G04 #@! TF.GenerationSoftware,KiCad,Pcbnew,(6.0.9)*
G04 #@! TF.CreationDate,2024-05-21T19:31:49-07:00*
G04 #@! TF.ProjectId,IMX294_MIPI_Breakout_Small,494d5832-3934-45f4-9d49-50495f427265,rev?*
G04 #@! TF.SameCoordinates,Original*
G04 #@! TF.FileFunction,Soldermask,Top*
G04 #@! TF.FilePolarity,Negative*
%FSLAX46Y46*%
G04 Gerber Fmt 4.6, Leading zero omitted, Abs format (unit mm)*
G04 Created by KiCad (PCBNEW (6.0.9)) date 2024-05-21 19:31:49*
%MOMM*%
%LPD*%
G01*
G04 APERTURE LIST*
%ADD10R,0.300000X0.230000*%
%ADD11R,0.850000X0.650000*%
%ADD12C,1.000000*%
%ADD13R,1.000000X1.050000*%
%ADD14R,1.050000X2.200000*%
%ADD15R,0.299999X0.449999*%
%ADD16C,5.600000*%
%ADD17R,1.100000X0.250000*%
%ADD18R,1.500000X1.700000*%
%ADD19R,0.254000X1.168400*%
%ADD20R,0.600000X0.600000*%
%ADD21R,0.400000X0.400000*%
%ADD22R,2.000000X1.200000*%
%ADD23R,1.050000X1.000000*%
%ADD24R,2.200000X1.050000*%
G04 APERTURE END LIST*
D10*
G04 #@! TO.C,FL4*
X161950000Y-94790000D03*
X162450000Y-94790000D03*
X162450000Y-95270000D03*
X161950000Y-95270000D03*
G04 #@! TD*
G04 #@! TO.C,R10*
G36*
G01*
X131380000Y-81615000D02*
X131380000Y-81985000D01*
G75*
G02*
X131245000Y-82120000I-135000J0D01*
G01*
X130975000Y-82120000D01*
G75*
G02*
X130840000Y-81985000I0J135000D01*
G01*
X130840000Y-81615000D01*
G75*
G02*
X130975000Y-81480000I135000J0D01*
G01*
X131245000Y-81480000D01*
G75*
G02*
X131380000Y-81615000I0J-135000D01*
G01*
G37*
G36*
G01*
X130360000Y-81615000D02*
X130360000Y-81985000D01*
G75*
G02*
X130225000Y-82120000I-135000J0D01*
G01*
X129955000Y-82120000D01*
G75*
G02*
X129820000Y-81985000I0J135000D01*
G01*
X129820000Y-81615000D01*
G75*
G02*
X129955000Y-81480000I135000J0D01*
G01*
X130225000Y-81480000D01*
G75*
G02*
X130360000Y-81615000I0J-135000D01*
G01*
G37*
G04 #@! TD*
G04 #@! TO.C,R12*
G36*
G01*
X129185000Y-97280000D02*
X128815000Y-97280000D01*
G75*
G02*
X128680000Y-97145000I0J135000D01*
G01*
X128680000Y-96875000D01*
G75*
G02*
X128815000Y-96740000I135000J0D01*
G01*
X129185000Y-96740000D01*
G75*
G02*
X129320000Y-96875000I0J-135000D01*
G01*
X129320000Y-97145000D01*
G75*
G02*
X129185000Y-97280000I-135000J0D01*
G01*
G37*
G36*
G01*
X129185000Y-96260000D02*
X128815000Y-96260000D01*
G75*
G02*
X128680000Y-96125000I0J135000D01*
G01*
X128680000Y-95855000D01*
G75*
G02*
X128815000Y-95720000I135000J0D01*
G01*
X129185000Y-95720000D01*
G75*
G02*
X129320000Y-95855000I0J-135000D01*
G01*
X129320000Y-96125000D01*
G75*
G02*
X129185000Y-96260000I-135000J0D01*
G01*
G37*
G04 #@! TD*
D11*
G04 #@! TO.C,U5*
X158425000Y-84775000D03*
X158425000Y-86425000D03*
X159975000Y-86425000D03*
X159975000Y-84775000D03*
G04 #@! TD*
G04 #@! TO.C,C1*
G36*
G01*
X132530000Y-105240000D02*
X132870000Y-105240000D01*
G75*
G02*
X133010000Y-105380000I0J-140000D01*
G01*
X133010000Y-105660000D01*
G75*
G02*
X132870000Y-105800000I-140000J0D01*
G01*
X132530000Y-105800000D01*
G75*
G02*
X132390000Y-105660000I0J140000D01*
G01*
X132390000Y-105380000D01*
G75*
G02*
X132530000Y-105240000I140000J0D01*
G01*
G37*
G36*
G01*
X132530000Y-106200000D02*
X132870000Y-106200000D01*
G75*
G02*
X133010000Y-106340000I0J-140000D01*
G01*
X133010000Y-106620000D01*
G75*
G02*
X132870000Y-106760000I-140000J0D01*
G01*
X132530000Y-106760000D01*
G75*
G02*
X132390000Y-106620000I0J140000D01*
G01*
X132390000Y-106340000D01*
G75*
G02*
X132530000Y-106200000I140000J0D01*
G01*
G37*
G04 #@! TD*
G04 #@! TO.C,C70*
G36*
G01*
X157240000Y-113970000D02*
X157240000Y-113630000D01*
G75*
G02*
X157380000Y-113490000I140000J0D01*
G01*
X157660000Y-113490000D01*
G75*
G02*
X157800000Y-113630000I0J-140000D01*
G01*
X157800000Y-113970000D01*
G75*
G02*
X157660000Y-114110000I-140000J0D01*
G01*
X157380000Y-114110000D01*
G75*
G02*
X157240000Y-113970000I0J140000D01*
G01*
G37*
G36*
G01*
X158200000Y-113970000D02*
X158200000Y-113630000D01*
G75*
G02*
X158340000Y-113490000I140000J0D01*
G01*
X158620000Y-113490000D01*
G75*
G02*
X158760000Y-113630000I0J-140000D01*
G01*
X158760000Y-113970000D01*
G75*
G02*
X158620000Y-114110000I-140000J0D01*
G01*
X158340000Y-114110000D01*
G75*
G02*
X158200000Y-113970000I0J140000D01*
G01*
G37*
G04 #@! TD*
G04 #@! TO.C,R3*
G36*
G01*
X143670000Y-77085000D02*
X143670000Y-76715000D01*
G75*
G02*
X143805000Y-76580000I135000J0D01*
G01*
X144075000Y-76580000D01*
G75*
G02*
X144210000Y-76715000I0J-135000D01*
G01*
X144210000Y-77085000D01*
G75*
G02*
X144075000Y-77220000I-135000J0D01*
G01*
X143805000Y-77220000D01*
G75*
G02*
X143670000Y-77085000I0J135000D01*
G01*
G37*
G36*
G01*
X144690000Y-77085000D02*
X144690000Y-76715000D01*
G75*
G02*
X144825000Y-76580000I135000J0D01*
G01*
X145095000Y-76580000D01*
G75*
G02*
X145230000Y-76715000I0J-135000D01*
G01*
X145230000Y-77085000D01*
G75*
G02*
X145095000Y-77220000I-135000J0D01*
G01*
X144825000Y-77220000D01*
G75*
G02*
X144690000Y-77085000I0J135000D01*
G01*
G37*
G04 #@! TD*
G04 #@! TO.C,C36*
G36*
G01*
X145170000Y-108660000D02*
X144830000Y-108660000D01*
G75*
G02*
X144690000Y-108520000I0J140000D01*
G01*
X144690000Y-108240000D01*
G75*
G02*
X144830000Y-108100000I140000J0D01*
G01*
X145170000Y-108100000D01*
G75*
G02*
X145310000Y-108240000I0J-140000D01*
G01*
X145310000Y-108520000D01*
G75*
G02*
X145170000Y-108660000I-140000J0D01*
G01*
G37*
G36*
G01*
X145170000Y-107700000D02*
X144830000Y-107700000D01*
G75*
G02*
X144690000Y-107560000I0J140000D01*
G01*
X144690000Y-107280000D01*
G75*
G02*
X144830000Y-107140000I140000J0D01*
G01*
X145170000Y-107140000D01*
G75*
G02*
X145310000Y-107280000I0J-140000D01*
G01*
X145310000Y-107560000D01*
G75*
G02*
X145170000Y-107700000I-140000J0D01*
G01*
G37*
G04 #@! TD*
G04 #@! TO.C,C41*
G36*
G01*
X143830000Y-83260000D02*
X144170000Y-83260000D01*
G75*
G02*
X144310000Y-83400000I0J-140000D01*
G01*
X144310000Y-83680000D01*
G75*
G02*
X144170000Y-83820000I-140000J0D01*
G01*
X143830000Y-83820000D01*
G75*
G02*
X143690000Y-83680000I0J140000D01*
G01*
X143690000Y-83400000D01*
G75*
G02*
X143830000Y-83260000I140000J0D01*
G01*
G37*
G36*
G01*
X143830000Y-84220000D02*
X144170000Y-84220000D01*
G75*
G02*
X144310000Y-84360000I0J-140000D01*
G01*
X144310000Y-84640000D01*
G75*
G02*
X144170000Y-84780000I-140000J0D01*
G01*
X143830000Y-84780000D01*
G75*
G02*
X143690000Y-84640000I0J140000D01*
G01*
X143690000Y-84360000D01*
G75*
G02*
X143830000Y-84220000I140000J0D01*
G01*
G37*
G04 #@! TD*
D12*
G04 #@! TO.C,TP5*
X125100000Y-97200000D03*
G04 #@! TD*
D13*
G04 #@! TO.C,J4*
X146025000Y-116095000D03*
D14*
X144550000Y-117620000D03*
X147500000Y-117620000D03*
G04 #@! TD*
G04 #@! TO.C,C55*
G36*
G01*
X155540000Y-94570000D02*
X155540000Y-94230000D01*
G75*
G02*
X155680000Y-94090000I140000J0D01*
G01*
X155960000Y-94090000D01*
G75*
G02*
X156100000Y-94230000I0J-140000D01*
G01*
X156100000Y-94570000D01*
G75*
G02*
X155960000Y-94710000I-140000J0D01*
G01*
X155680000Y-94710000D01*
G75*
G02*
X155540000Y-94570000I0J140000D01*
G01*
G37*
G36*
G01*
X156500000Y-94570000D02*
X156500000Y-94230000D01*
G75*
G02*
X156640000Y-94090000I140000J0D01*
G01*
X156920000Y-94090000D01*
G75*
G02*
X157060000Y-94230000I0J-140000D01*
G01*
X157060000Y-94570000D01*
G75*
G02*
X156920000Y-94710000I-140000J0D01*
G01*
X156640000Y-94710000D01*
G75*
G02*
X156500000Y-94570000I0J140000D01*
G01*
G37*
G04 #@! TD*
D12*
G04 #@! TO.C,TP2*
X151900000Y-81300000D03*
G04 #@! TD*
G04 #@! TO.C,C53*
G36*
G01*
X135830000Y-110140000D02*
X136170000Y-110140000D01*
G75*
G02*
X136310000Y-110280000I0J-140000D01*
G01*
X136310000Y-110560000D01*
G75*
G02*
X136170000Y-110700000I-140000J0D01*
G01*
X135830000Y-110700000D01*
G75*
G02*
X135690000Y-110560000I0J140000D01*
G01*
X135690000Y-110280000D01*
G75*
G02*
X135830000Y-110140000I140000J0D01*
G01*
G37*
G36*
G01*
X135830000Y-111100000D02*
X136170000Y-111100000D01*
G75*
G02*
X136310000Y-111240000I0J-140000D01*
G01*
X136310000Y-111520000D01*
G75*
G02*
X136170000Y-111660000I-140000J0D01*
G01*
X135830000Y-111660000D01*
G75*
G02*
X135690000Y-111520000I0J140000D01*
G01*
X135690000Y-111240000D01*
G75*
G02*
X135830000Y-111100000I140000J0D01*
G01*
G37*
G04 #@! TD*
G04 #@! TO.C,C32*
G36*
G01*
X157425000Y-87450000D02*
X157425000Y-87950000D01*
G75*
G02*
X157200000Y-88175000I-225000J0D01*
G01*
X156750000Y-88175000D01*
G75*
G02*
X156525000Y-87950000I0J225000D01*
G01*
X156525000Y-87450000D01*
G75*
G02*
X156750000Y-87225000I225000J0D01*
G01*
X157200000Y-87225000D01*
G75*
G02*
X157425000Y-87450000I0J-225000D01*
G01*
G37*
G36*
G01*
X155875000Y-87450000D02*
X155875000Y-87950000D01*
G75*
G02*
X155650000Y-88175000I-225000J0D01*
G01*
X155200000Y-88175000D01*
G75*
G02*
X154975000Y-87950000I0J225000D01*
G01*
X154975000Y-87450000D01*
G75*
G02*
X155200000Y-87225000I225000J0D01*
G01*
X155650000Y-87225000D01*
G75*
G02*
X155875000Y-87450000I0J-225000D01*
G01*
G37*
G04 #@! TD*
D15*
G04 #@! TO.C,U6*
X159150001Y-110925001D03*
X158500000Y-110925001D03*
X157850001Y-110925001D03*
X157850001Y-112874999D03*
X158500000Y-112874999D03*
X159150001Y-112874999D03*
G04 #@! TD*
G04 #@! TO.C,C69*
G36*
G01*
X126900000Y-94675000D02*
X126400000Y-94675000D01*
G75*
G02*
X126175000Y-94450000I0J225000D01*
G01*
X126175000Y-94000000D01*
G75*
G02*
X126400000Y-93775000I225000J0D01*
G01*
X126900000Y-93775000D01*
G75*
G02*
X127125000Y-94000000I0J-225000D01*
G01*
X127125000Y-94450000D01*
G75*
G02*
X126900000Y-94675000I-225000J0D01*
G01*
G37*
G36*
G01*
X126900000Y-93125000D02*
X126400000Y-93125000D01*
G75*
G02*
X126175000Y-92900000I0J225000D01*
G01*
X126175000Y-92450000D01*
G75*
G02*
X126400000Y-92225000I225000J0D01*
G01*
X126900000Y-92225000D01*
G75*
G02*
X127125000Y-92450000I0J-225000D01*
G01*
X127125000Y-92900000D01*
G75*
G02*
X126900000Y-93125000I-225000J0D01*
G01*
G37*
G04 #@! TD*
G04 #@! TO.C,C37*
G36*
G01*
X157425000Y-107050000D02*
X157425000Y-107550000D01*
G75*
G02*
X157200000Y-107775000I-225000J0D01*
G01*
X156750000Y-107775000D01*
G75*
G02*
X156525000Y-107550000I0J225000D01*
G01*
X156525000Y-107050000D01*
G75*
G02*
X156750000Y-106825000I225000J0D01*
G01*
X157200000Y-106825000D01*
G75*
G02*
X157425000Y-107050000I0J-225000D01*
G01*
G37*
G36*
G01*
X155875000Y-107050000D02*
X155875000Y-107550000D01*
G75*
G02*
X155650000Y-107775000I-225000J0D01*
G01*
X155200000Y-107775000D01*
G75*
G02*
X154975000Y-107550000I0J225000D01*
G01*
X154975000Y-107050000D01*
G75*
G02*
X155200000Y-106825000I225000J0D01*
G01*
X155650000Y-106825000D01*
G75*
G02*
X155875000Y-107050000I0J-225000D01*
G01*
G37*
G04 #@! TD*
G04 #@! TO.C,C4*
G36*
G01*
X134757609Y-105617193D02*
X134517193Y-105857609D01*
G75*
G02*
X134319203Y-105857609I-98995J98995D01*
G01*
X134121213Y-105659619D01*
G75*
G02*
X134121213Y-105461629I98995J98995D01*
G01*
X134361629Y-105221213D01*
G75*
G02*
X134559619Y-105221213I98995J-98995D01*
G01*
X134757609Y-105419203D01*
G75*
G02*
X134757609Y-105617193I-98995J-98995D01*
G01*
G37*
G36*
G01*
X134078787Y-104938371D02*
X133838371Y-105178787D01*
G75*
G02*
X133640381Y-105178787I-98995J98995D01*
G01*
X133442391Y-104980797D01*
G75*
G02*
X133442391Y-104782807I98995J98995D01*
G01*
X133682807Y-104542391D01*
G75*
G02*
X133880797Y-104542391I98995J-98995D01*
G01*
X134078787Y-104740381D01*
G75*
G02*
X134078787Y-104938371I-98995J-98995D01*
G01*
G37*
G04 #@! TD*
G04 #@! TO.C,C18*
G36*
G01*
X155170000Y-84660000D02*
X154830000Y-84660000D01*
G75*
G02*
X154690000Y-84520000I0J140000D01*
G01*
X154690000Y-84240000D01*
G75*
G02*
X154830000Y-84100000I140000J0D01*
G01*
X155170000Y-84100000D01*
G75*
G02*
X155310000Y-84240000I0J-140000D01*
G01*
X155310000Y-84520000D01*
G75*
G02*
X155170000Y-84660000I-140000J0D01*
G01*
G37*
G36*
G01*
X155170000Y-83700000D02*
X154830000Y-83700000D01*
G75*
G02*
X154690000Y-83560000I0J140000D01*
G01*
X154690000Y-83280000D01*
G75*
G02*
X154830000Y-83140000I140000J0D01*
G01*
X155170000Y-83140000D01*
G75*
G02*
X155310000Y-83280000I0J-140000D01*
G01*
X155310000Y-83560000D01*
G75*
G02*
X155170000Y-83700000I-140000J0D01*
G01*
G37*
G04 #@! TD*
G04 #@! TO.C,R1*
G36*
G01*
X134780000Y-101015000D02*
X134780000Y-101385000D01*
G75*
G02*
X134645000Y-101520000I-135000J0D01*
G01*
X134375000Y-101520000D01*
G75*
G02*
X134240000Y-101385000I0J135000D01*
G01*
X134240000Y-101015000D01*
G75*
G02*
X134375000Y-100880000I135000J0D01*
G01*
X134645000Y-100880000D01*
G75*
G02*
X134780000Y-101015000I0J-135000D01*
G01*
G37*
G36*
G01*
X133760000Y-101015000D02*
X133760000Y-101385000D01*
G75*
G02*
X133625000Y-101520000I-135000J0D01*
G01*
X133355000Y-101520000D01*
G75*
G02*
X133220000Y-101385000I0J135000D01*
G01*
X133220000Y-101015000D01*
G75*
G02*
X133355000Y-100880000I135000J0D01*
G01*
X133625000Y-100880000D01*
G75*
G02*
X133760000Y-101015000I0J-135000D01*
G01*
G37*
G04 #@! TD*
G04 #@! TO.C,C45*
G36*
G01*
X132940000Y-92370000D02*
X132940000Y-92030000D01*
G75*
G02*
X133080000Y-91890000I140000J0D01*
G01*
X133360000Y-91890000D01*
G75*
G02*
X133500000Y-92030000I0J-140000D01*
G01*
X133500000Y-92370000D01*
G75*
G02*
X133360000Y-92510000I-140000J0D01*
G01*
X133080000Y-92510000D01*
G75*
G02*
X132940000Y-92370000I0J140000D01*
G01*
G37*
G36*
G01*
X133900000Y-92370000D02*
X133900000Y-92030000D01*
G75*
G02*
X134040000Y-91890000I140000J0D01*
G01*
X134320000Y-91890000D01*
G75*
G02*
X134460000Y-92030000I0J-140000D01*
G01*
X134460000Y-92370000D01*
G75*
G02*
X134320000Y-92510000I-140000J0D01*
G01*
X134040000Y-92510000D01*
G75*
G02*
X133900000Y-92370000I0J140000D01*
G01*
G37*
G04 #@! TD*
G04 #@! TO.C,C6*
G36*
G01*
X134560000Y-96530000D02*
X134560000Y-96870000D01*
G75*
G02*
X134420000Y-97010000I-140000J0D01*
G01*
X134140000Y-97010000D01*
G75*
G02*
X134000000Y-96870000I0J140000D01*
G01*
X134000000Y-96530000D01*
G75*
G02*
X134140000Y-96390000I140000J0D01*
G01*
X134420000Y-96390000D01*
G75*
G02*
X134560000Y-96530000I0J-140000D01*
G01*
G37*
G36*
G01*
X133600000Y-96530000D02*
X133600000Y-96870000D01*
G75*
G02*
X133460000Y-97010000I-140000J0D01*
G01*
X133180000Y-97010000D01*
G75*
G02*
X133040000Y-96870000I0J140000D01*
G01*
X133040000Y-96530000D01*
G75*
G02*
X133180000Y-96390000I140000J0D01*
G01*
X133460000Y-96390000D01*
G75*
G02*
X133600000Y-96530000I0J-140000D01*
G01*
G37*
G04 #@! TD*
G04 #@! TO.C,C68*
G36*
G01*
X126830000Y-95740000D02*
X127170000Y-95740000D01*
G75*
G02*
X127310000Y-95880000I0J-140000D01*
G01*
X127310000Y-96160000D01*
G75*
G02*
X127170000Y-96300000I-140000J0D01*
G01*
X126830000Y-96300000D01*
G75*
G02*
X126690000Y-96160000I0J140000D01*
G01*
X126690000Y-95880000D01*
G75*
G02*
X126830000Y-95740000I140000J0D01*
G01*
G37*
G36*
G01*
X126830000Y-96700000D02*
X127170000Y-96700000D01*
G75*
G02*
X127310000Y-96840000I0J-140000D01*
G01*
X127310000Y-97120000D01*
G75*
G02*
X127170000Y-97260000I-140000J0D01*
G01*
X126830000Y-97260000D01*
G75*
G02*
X126690000Y-97120000I0J140000D01*
G01*
X126690000Y-96840000D01*
G75*
G02*
X126830000Y-96700000I140000J0D01*
G01*
G37*
G04 #@! TD*
G04 #@! TO.C,C17*
G36*
G01*
X133670000Y-84760000D02*
X133330000Y-84760000D01*
G75*
G02*
X133190000Y-84620000I0J140000D01*
G01*
X133190000Y-84340000D01*
G75*
G02*
X133330000Y-84200000I140000J0D01*
G01*
X133670000Y-84200000D01*
G75*
G02*
X133810000Y-84340000I0J-140000D01*
G01*
X133810000Y-84620000D01*
G75*
G02*
X133670000Y-84760000I-140000J0D01*
G01*
G37*
G36*
G01*
X133670000Y-83800000D02*
X133330000Y-83800000D01*
G75*
G02*
X133190000Y-83660000I0J140000D01*
G01*
X133190000Y-83380000D01*
G75*
G02*
X133330000Y-83240000I140000J0D01*
G01*
X133670000Y-83240000D01*
G75*
G02*
X133810000Y-83380000I0J-140000D01*
G01*
X133810000Y-83660000D01*
G75*
G02*
X133670000Y-83800000I-140000J0D01*
G01*
G37*
G04 #@! TD*
G04 #@! TO.C,C66*
G36*
G01*
X154170000Y-108560000D02*
X153830000Y-108560000D01*
G75*
G02*
X153690000Y-108420000I0J140000D01*
G01*
X153690000Y-108140000D01*
G75*
G02*
X153830000Y-108000000I140000J0D01*
G01*
X154170000Y-108000000D01*
G75*
G02*
X154310000Y-108140000I0J-140000D01*
G01*
X154310000Y-108420000D01*
G75*
G02*
X154170000Y-108560000I-140000J0D01*
G01*
G37*
G36*
G01*
X154170000Y-107600000D02*
X153830000Y-107600000D01*
G75*
G02*
X153690000Y-107460000I0J140000D01*
G01*
X153690000Y-107180000D01*
G75*
G02*
X153830000Y-107040000I140000J0D01*
G01*
X154170000Y-107040000D01*
G75*
G02*
X154310000Y-107180000I0J-140000D01*
G01*
X154310000Y-107460000D01*
G75*
G02*
X154170000Y-107600000I-140000J0D01*
G01*
G37*
G04 #@! TD*
G04 #@! TO.C,C43*
G36*
G01*
X155540000Y-99970000D02*
X155540000Y-99630000D01*
G75*
G02*
X155680000Y-99490000I140000J0D01*
G01*
X155960000Y-99490000D01*
G75*
G02*
X156100000Y-99630000I0J-140000D01*
G01*
X156100000Y-99970000D01*
G75*
G02*
X155960000Y-100110000I-140000J0D01*
G01*
X155680000Y-100110000D01*
G75*
G02*
X155540000Y-99970000I0J140000D01*
G01*
G37*
G36*
G01*
X156500000Y-99970000D02*
X156500000Y-99630000D01*
G75*
G02*
X156640000Y-99490000I140000J0D01*
G01*
X156920000Y-99490000D01*
G75*
G02*
X157060000Y-99630000I0J-140000D01*
G01*
X157060000Y-99970000D01*
G75*
G02*
X156920000Y-100110000I-140000J0D01*
G01*
X156640000Y-100110000D01*
G75*
G02*
X156500000Y-99970000I0J140000D01*
G01*
G37*
G04 #@! TD*
G04 #@! TO.C,C46*
G36*
G01*
X155540000Y-90370000D02*
X155540000Y-90030000D01*
G75*
G02*
X155680000Y-89890000I140000J0D01*
G01*
X155960000Y-89890000D01*
G75*
G02*
X156100000Y-90030000I0J-140000D01*
G01*
X156100000Y-90370000D01*
G75*
G02*
X155960000Y-90510000I-140000J0D01*
G01*
X155680000Y-90510000D01*
G75*
G02*
X155540000Y-90370000I0J140000D01*
G01*
G37*
G36*
G01*
X156500000Y-90370000D02*
X156500000Y-90030000D01*
G75*
G02*
X156640000Y-89890000I140000J0D01*
G01*
X156920000Y-89890000D01*
G75*
G02*
X157060000Y-90030000I0J-140000D01*
G01*
X157060000Y-90370000D01*
G75*
G02*
X156920000Y-90510000I-140000J0D01*
G01*
X156640000Y-90510000D01*
G75*
G02*
X156500000Y-90370000I0J140000D01*
G01*
G37*
G04 #@! TD*
G04 #@! TO.C,C62*
G36*
G01*
X153830000Y-110140000D02*
X154170000Y-110140000D01*
G75*
G02*
X154310000Y-110280000I0J-140000D01*
G01*
X154310000Y-110560000D01*
G75*
G02*
X154170000Y-110700000I-140000J0D01*
G01*
X153830000Y-110700000D01*
G75*
G02*
X153690000Y-110560000I0J140000D01*
G01*
X153690000Y-110280000D01*
G75*
G02*
X153830000Y-110140000I140000J0D01*
G01*
G37*
G36*
G01*
X153830000Y-111100000D02*
X154170000Y-111100000D01*
G75*
G02*
X154310000Y-111240000I0J-140000D01*
G01*
X154310000Y-111520000D01*
G75*
G02*
X154170000Y-111660000I-140000J0D01*
G01*
X153830000Y-111660000D01*
G75*
G02*
X153690000Y-111520000I0J140000D01*
G01*
X153690000Y-111240000D01*
G75*
G02*
X153830000Y-111100000I140000J0D01*
G01*
G37*
G04 #@! TD*
G04 #@! TO.C,R5*
G36*
G01*
X160185000Y-88880000D02*
X159815000Y-88880000D01*
G75*
G02*
X159680000Y-88745000I0J135000D01*
G01*
X159680000Y-88475000D01*
G75*
G02*
X159815000Y-88340000I135000J0D01*
G01*
X160185000Y-88340000D01*
G75*
G02*
X160320000Y-88475000I0J-135000D01*
G01*
X160320000Y-88745000D01*
G75*
G02*
X160185000Y-88880000I-135000J0D01*
G01*
G37*
G36*
G01*
X160185000Y-87860000D02*
X159815000Y-87860000D01*
G75*
G02*
X159680000Y-87725000I0J135000D01*
G01*
X159680000Y-87455000D01*
G75*
G02*
X159815000Y-87320000I135000J0D01*
G01*
X160185000Y-87320000D01*
G75*
G02*
X160320000Y-87455000I0J-135000D01*
G01*
X160320000Y-87725000D01*
G75*
G02*
X160185000Y-87860000I-135000J0D01*
G01*
G37*
G04 #@! TD*
G04 #@! TO.C,C5*
G36*
G01*
X134925000Y-95000000D02*
X134925000Y-95500000D01*
G75*
G02*
X134700000Y-95725000I-225000J0D01*
G01*
X134250000Y-95725000D01*
G75*
G02*
X134025000Y-95500000I0J225000D01*
G01*
X134025000Y-95000000D01*
G75*
G02*
X134250000Y-94775000I225000J0D01*
G01*
X134700000Y-94775000D01*
G75*
G02*
X134925000Y-95000000I0J-225000D01*
G01*
G37*
G36*
G01*
X133375000Y-95000000D02*
X133375000Y-95500000D01*
G75*
G02*
X133150000Y-95725000I-225000J0D01*
G01*
X132700000Y-95725000D01*
G75*
G02*
X132475000Y-95500000I0J225000D01*
G01*
X132475000Y-95000000D01*
G75*
G02*
X132700000Y-94775000I225000J0D01*
G01*
X133150000Y-94775000D01*
G75*
G02*
X133375000Y-95000000I0J-225000D01*
G01*
G37*
G04 #@! TD*
G04 #@! TO.C,C24*
G36*
G01*
X155540000Y-96370000D02*
X155540000Y-96030000D01*
G75*
G02*
X155680000Y-95890000I140000J0D01*
G01*
X155960000Y-95890000D01*
G75*
G02*
X156100000Y-96030000I0J-140000D01*
G01*
X156100000Y-96370000D01*
G75*
G02*
X155960000Y-96510000I-140000J0D01*
G01*
X155680000Y-96510000D01*
G75*
G02*
X155540000Y-96370000I0J140000D01*
G01*
G37*
G36*
G01*
X156500000Y-96370000D02*
X156500000Y-96030000D01*
G75*
G02*
X156640000Y-95890000I140000J0D01*
G01*
X156920000Y-95890000D01*
G75*
G02*
X157060000Y-96030000I0J-140000D01*
G01*
X157060000Y-96370000D01*
G75*
G02*
X156920000Y-96510000I-140000J0D01*
G01*
X156640000Y-96510000D01*
G75*
G02*
X156500000Y-96370000I0J140000D01*
G01*
G37*
G04 #@! TD*
G04 #@! TO.C,C44*
G36*
G01*
X132475000Y-94000000D02*
X132475000Y-93500000D01*
G75*
G02*
X132700000Y-93275000I225000J0D01*
G01*
X133150000Y-93275000D01*
G75*
G02*
X133375000Y-93500000I0J-225000D01*
G01*
X133375000Y-94000000D01*
G75*
G02*
X133150000Y-94225000I-225000J0D01*
G01*
X132700000Y-94225000D01*
G75*
G02*
X132475000Y-94000000I0J225000D01*
G01*
G37*
G36*
G01*
X134025000Y-94000000D02*
X134025000Y-93500000D01*
G75*
G02*
X134250000Y-93275000I225000J0D01*
G01*
X134700000Y-93275000D01*
G75*
G02*
X134925000Y-93500000I0J-225000D01*
G01*
X134925000Y-94000000D01*
G75*
G02*
X134700000Y-94225000I-225000J0D01*
G01*
X134250000Y-94225000D01*
G75*
G02*
X134025000Y-94000000I0J225000D01*
G01*
G37*
G04 #@! TD*
G04 #@! TO.C,C28*
G36*
G01*
X144830000Y-86140000D02*
X145170000Y-86140000D01*
G75*
G02*
X145310000Y-86280000I0J-140000D01*
G01*
X145310000Y-86560000D01*
G75*
G02*
X145170000Y-86700000I-140000J0D01*
G01*
X144830000Y-86700000D01*
G75*
G02*
X144690000Y-86560000I0J140000D01*
G01*
X144690000Y-86280000D01*
G75*
G02*
X144830000Y-86140000I140000J0D01*
G01*
G37*
G36*
G01*
X144830000Y-87100000D02*
X145170000Y-87100000D01*
G75*
G02*
X145310000Y-87240000I0J-140000D01*
G01*
X145310000Y-87520000D01*
G75*
G02*
X145170000Y-87660000I-140000J0D01*
G01*
X144830000Y-87660000D01*
G75*
G02*
X144690000Y-87520000I0J140000D01*
G01*
X144690000Y-87240000D01*
G75*
G02*
X144830000Y-87100000I140000J0D01*
G01*
G37*
G04 #@! TD*
G04 #@! TO.C,R4*
G36*
G01*
X145570000Y-77085000D02*
X145570000Y-76715000D01*
G75*
G02*
X145705000Y-76580000I135000J0D01*
G01*
X145975000Y-76580000D01*
G75*
G02*
X146110000Y-76715000I0J-135000D01*
G01*
X146110000Y-77085000D01*
G75*
G02*
X145975000Y-77220000I-135000J0D01*
G01*
X145705000Y-77220000D01*
G75*
G02*
X145570000Y-77085000I0J135000D01*
G01*
G37*
G36*
G01*
X146590000Y-77085000D02*
X146590000Y-76715000D01*
G75*
G02*
X146725000Y-76580000I135000J0D01*
G01*
X146995000Y-76580000D01*
G75*
G02*
X147130000Y-76715000I0J-135000D01*
G01*
X147130000Y-77085000D01*
G75*
G02*
X146995000Y-77220000I-135000J0D01*
G01*
X146725000Y-77220000D01*
G75*
G02*
X146590000Y-77085000I0J135000D01*
G01*
G37*
G04 #@! TD*
D12*
G04 #@! TO.C,TP3*
X125100000Y-94600000D03*
G04 #@! TD*
G04 #@! TO.C,U3*
G36*
G01*
X156550000Y-79550000D02*
X156550000Y-79850000D01*
G75*
G02*
X156400000Y-80000000I-150000J0D01*
G01*
X155375000Y-80000000D01*
G75*
G02*
X155225000Y-79850000I0J150000D01*
G01*
X155225000Y-79550000D01*
G75*
G02*
X155375000Y-79400000I150000J0D01*
G01*
X156400000Y-79400000D01*
G75*
G02*
X156550000Y-79550000I0J-150000D01*
G01*
G37*
G36*
G01*
X156550000Y-78600000D02*
X156550000Y-78900000D01*
G75*
G02*
X156400000Y-79050000I-150000J0D01*
G01*
X155375000Y-79050000D01*
G75*
G02*
X155225000Y-78900000I0J150000D01*
G01*
X155225000Y-78600000D01*
G75*
G02*
X155375000Y-78450000I150000J0D01*
G01*
X156400000Y-78450000D01*
G75*
G02*
X156550000Y-78600000I0J-150000D01*
G01*
G37*
G36*
G01*
X156550000Y-77650000D02*
X156550000Y-77950000D01*
G75*
G02*
X156400000Y-78100000I-150000J0D01*
G01*
X155375000Y-78100000D01*
G75*
G02*
X155225000Y-77950000I0J150000D01*
G01*
X155225000Y-77650000D01*
G75*
G02*
X155375000Y-77500000I150000J0D01*
G01*
X156400000Y-77500000D01*
G75*
G02*
X156550000Y-77650000I0J-150000D01*
G01*
G37*
G36*
G01*
X154275000Y-77650000D02*
X154275000Y-77950000D01*
G75*
G02*
X154125000Y-78100000I-150000J0D01*
G01*
X153100000Y-78100000D01*
G75*
G02*
X152950000Y-77950000I0J150000D01*
G01*
X152950000Y-77650000D01*
G75*
G02*
X153100000Y-77500000I150000J0D01*
G01*
X154125000Y-77500000D01*
G75*
G02*
X154275000Y-77650000I0J-150000D01*
G01*
G37*
G36*
G01*
X154275000Y-79550000D02*
X154275000Y-79850000D01*
G75*
G02*
X154125000Y-80000000I-150000J0D01*
G01*
X153100000Y-80000000D01*
G75*
G02*
X152950000Y-79850000I0J150000D01*
G01*
X152950000Y-79550000D01*
G75*
G02*
X153100000Y-79400000I150000J0D01*
G01*
X154125000Y-79400000D01*
G75*
G02*
X154275000Y-79550000I0J-150000D01*
G01*
G37*
G04 #@! TD*
G04 #@! TO.C,C21*
G36*
G01*
X137750000Y-85125000D02*
X137250000Y-85125000D01*
G75*
G02*
X137025000Y-84900000I0J225000D01*
G01*
X137025000Y-84450000D01*
G75*
G02*
X137250000Y-84225000I225000J0D01*
G01*
X137750000Y-84225000D01*
G75*
G02*
X137975000Y-84450000I0J-225000D01*
G01*
X137975000Y-84900000D01*
G75*
G02*
X137750000Y-85125000I-225000J0D01*
G01*
G37*
G36*
G01*
X137750000Y-83575000D02*
X137250000Y-83575000D01*
G75*
G02*
X137025000Y-83350000I0J225000D01*
G01*
X137025000Y-82900000D01*
G75*
G02*
X137250000Y-82675000I225000J0D01*
G01*
X137750000Y-82675000D01*
G75*
G02*
X137975000Y-82900000I0J-225000D01*
G01*
X137975000Y-83350000D01*
G75*
G02*
X137750000Y-83575000I-225000J0D01*
G01*
G37*
G04 #@! TD*
G04 #@! TO.C,TP9*
X131100000Y-84400000D03*
G04 #@! TD*
D10*
G04 #@! TO.C,FL2*
X161950000Y-97790000D03*
X162450000Y-97790000D03*
X162450000Y-98270000D03*
X161950000Y-98270000D03*
G04 #@! TD*
G04 #@! TO.C,C38*
G36*
G01*
X143170000Y-84780000D02*
X142830000Y-84780000D01*
G75*
G02*
X142690000Y-84640000I0J140000D01*
G01*
X142690000Y-84360000D01*
G75*
G02*
X142830000Y-84220000I140000J0D01*
G01*
X143170000Y-84220000D01*
G75*
G02*
X143310000Y-84360000I0J-140000D01*
G01*
X143310000Y-84640000D01*
G75*
G02*
X143170000Y-84780000I-140000J0D01*
G01*
G37*
G36*
G01*
X143170000Y-83820000D02*
X142830000Y-83820000D01*
G75*
G02*
X142690000Y-83680000I0J140000D01*
G01*
X142690000Y-83400000D01*
G75*
G02*
X142830000Y-83260000I140000J0D01*
G01*
X143170000Y-83260000D01*
G75*
G02*
X143310000Y-83400000I0J-140000D01*
G01*
X143310000Y-83680000D01*
G75*
G02*
X143170000Y-83820000I-140000J0D01*
G01*
G37*
G04 #@! TD*
G04 #@! TO.C,C61*
G36*
G01*
X158440000Y-105270000D02*
X158440000Y-104930000D01*
G75*
G02*
X158580000Y-104790000I140000J0D01*
G01*
X158860000Y-104790000D01*
G75*
G02*
X159000000Y-104930000I0J-140000D01*
G01*
X159000000Y-105270000D01*
G75*
G02*
X158860000Y-105410000I-140000J0D01*
G01*
X158580000Y-105410000D01*
G75*
G02*
X158440000Y-105270000I0J140000D01*
G01*
G37*
G36*
G01*
X159400000Y-105270000D02*
X159400000Y-104930000D01*
G75*
G02*
X159540000Y-104790000I140000J0D01*
G01*
X159820000Y-104790000D01*
G75*
G02*
X159960000Y-104930000I0J-140000D01*
G01*
X159960000Y-105270000D01*
G75*
G02*
X159820000Y-105410000I-140000J0D01*
G01*
X159540000Y-105410000D01*
G75*
G02*
X159400000Y-105270000I0J140000D01*
G01*
G37*
G04 #@! TD*
G04 #@! TO.C,C52*
G36*
G01*
X158440000Y-90420000D02*
X158440000Y-90080000D01*
G75*
G02*
X158580000Y-89940000I140000J0D01*
G01*
X158860000Y-89940000D01*
G75*
G02*
X159000000Y-90080000I0J-140000D01*
G01*
X159000000Y-90420000D01*
G75*
G02*
X158860000Y-90560000I-140000J0D01*
G01*
X158580000Y-90560000D01*
G75*
G02*
X158440000Y-90420000I0J140000D01*
G01*
G37*
G36*
G01*
X159400000Y-90420000D02*
X159400000Y-90080000D01*
G75*
G02*
X159540000Y-89940000I140000J0D01*
G01*
X159820000Y-89940000D01*
G75*
G02*
X159960000Y-90080000I0J-140000D01*
G01*
X159960000Y-90420000D01*
G75*
G02*
X159820000Y-90560000I-140000J0D01*
G01*
X159540000Y-90560000D01*
G75*
G02*
X159400000Y-90420000I0J140000D01*
G01*
G37*
G04 #@! TD*
G04 #@! TO.C,C60*
G36*
G01*
X157060000Y-93330000D02*
X157060000Y-93670000D01*
G75*
G02*
X156920000Y-93810000I-140000J0D01*
G01*
X156640000Y-93810000D01*
G75*
G02*
X156500000Y-93670000I0J140000D01*
G01*
X156500000Y-93330000D01*
G75*
G02*
X156640000Y-93190000I140000J0D01*
G01*
X156920000Y-93190000D01*
G75*
G02*
X157060000Y-93330000I0J-140000D01*
G01*
G37*
G36*
G01*
X156100000Y-93330000D02*
X156100000Y-93670000D01*
G75*
G02*
X155960000Y-93810000I-140000J0D01*
G01*
X155680000Y-93810000D01*
G75*
G02*
X155540000Y-93670000I0J140000D01*
G01*
X155540000Y-93330000D01*
G75*
G02*
X155680000Y-93190000I140000J0D01*
G01*
X155960000Y-93190000D01*
G75*
G02*
X156100000Y-93330000I0J-140000D01*
G01*
G37*
G04 #@! TD*
G04 #@! TO.C,C49*
G36*
G01*
X143270000Y-111760000D02*
X142930000Y-111760000D01*
G75*
G02*
X142790000Y-111620000I0J140000D01*
G01*
X142790000Y-111340000D01*
G75*
G02*
X142930000Y-111200000I140000J0D01*
G01*
X143270000Y-111200000D01*
G75*
G02*
X143410000Y-111340000I0J-140000D01*
G01*
X143410000Y-111620000D01*
G75*
G02*
X143270000Y-111760000I-140000J0D01*
G01*
G37*
G36*
G01*
X143270000Y-110800000D02*
X142930000Y-110800000D01*
G75*
G02*
X142790000Y-110660000I0J140000D01*
G01*
X142790000Y-110380000D01*
G75*
G02*
X142930000Y-110240000I140000J0D01*
G01*
X143270000Y-110240000D01*
G75*
G02*
X143410000Y-110380000I0J-140000D01*
G01*
X143410000Y-110660000D01*
G75*
G02*
X143270000Y-110800000I-140000J0D01*
G01*
G37*
G04 #@! TD*
G04 #@! TO.C,C13*
G36*
G01*
X152150000Y-80175000D02*
X151650000Y-80175000D01*
G75*
G02*
X151425000Y-79950000I0J225000D01*
G01*
X151425000Y-79500000D01*
G75*
G02*
X151650000Y-79275000I225000J0D01*
G01*
X152150000Y-79275000D01*
G75*
G02*
X152375000Y-79500000I0J-225000D01*
G01*
X152375000Y-79950000D01*
G75*
G02*
X152150000Y-80175000I-225000J0D01*
G01*
G37*
G36*
G01*
X152150000Y-78625000D02*
X151650000Y-78625000D01*
G75*
G02*
X151425000Y-78400000I0J225000D01*
G01*
X151425000Y-77950000D01*
G75*
G02*
X151650000Y-77725000I225000J0D01*
G01*
X152150000Y-77725000D01*
G75*
G02*
X152375000Y-77950000I0J-225000D01*
G01*
X152375000Y-78400000D01*
G75*
G02*
X152150000Y-78625000I-225000J0D01*
G01*
G37*
G04 #@! TD*
G04 #@! TO.C,J1*
G36*
G01*
X163750000Y-106700000D02*
X165000000Y-106700000D01*
G75*
G02*
X165150000Y-106850000I0J-150000D01*
G01*
X165150000Y-107150000D01*
G75*
G02*
X165000000Y-107300000I-150000J0D01*
G01*
X163750000Y-107300000D01*
G75*
G02*
X163600000Y-107150000I0J150000D01*
G01*
X163600000Y-106850000D01*
G75*
G02*
X163750000Y-106700000I150000J0D01*
G01*
G37*
G36*
G01*
X163750000Y-107700000D02*
X165000000Y-107700000D01*
G75*
G02*
X165150000Y-107850000I0J-150000D01*
G01*
X165150000Y-108150000D01*
G75*
G02*
X165000000Y-108300000I-150000J0D01*
G01*
X163750000Y-108300000D01*
G75*
G02*
X163600000Y-108150000I0J150000D01*
G01*
X163600000Y-107850000D01*
G75*
G02*
X163750000Y-107700000I150000J0D01*
G01*
G37*
G36*
G01*
X163750000Y-108700000D02*
X165000000Y-108700000D01*
G75*
G02*
X165150000Y-108850000I0J-150000D01*
G01*
X165150000Y-109150000D01*
G75*
G02*
X165000000Y-109300000I-150000J0D01*
G01*
X163750000Y-109300000D01*
G75*
G02*
X163600000Y-109150000I0J150000D01*
G01*
X163600000Y-108850000D01*
G75*
G02*
X163750000Y-108700000I150000J0D01*
G01*
G37*
G36*
G01*
X163750000Y-109700000D02*
X165000000Y-109700000D01*
G75*
G02*
X165150000Y-109850000I0J-150000D01*
G01*
X165150000Y-110150000D01*
G75*
G02*
X165000000Y-110300000I-150000J0D01*
G01*
X163750000Y-110300000D01*
G75*
G02*
X163600000Y-110150000I0J150000D01*
G01*
X163600000Y-109850000D01*
G75*
G02*
X163750000Y-109700000I150000J0D01*
G01*
G37*
G36*
G01*
X166250000Y-110700000D02*
X167550000Y-110700000D01*
G75*
G02*
X167800000Y-110950000I0J-250000D01*
G01*
X167800000Y-111650000D01*
G75*
G02*
X167550000Y-111900000I-250000J0D01*
G01*
X166250000Y-111900000D01*
G75*
G02*
X166000000Y-111650000I0J250000D01*
G01*
X166000000Y-110950000D01*
G75*
G02*
X166250000Y-110700000I250000J0D01*
G01*
G37*
G36*
G01*
X166250000Y-105100000D02*
X167550000Y-105100000D01*
G75*
G02*
X167800000Y-105350000I0J-250000D01*
G01*
X167800000Y-106050000D01*
G75*
G02*
X167550000Y-106300000I-250000J0D01*
G01*
X166250000Y-106300000D01*
G75*
G02*
X166000000Y-106050000I0J250000D01*
G01*
X166000000Y-105350000D01*
G75*
G02*
X166250000Y-105100000I250000J0D01*
G01*
G37*
G04 #@! TD*
G04 #@! TO.C,C31*
G36*
G01*
X135170000Y-111660000D02*
X134830000Y-111660000D01*
G75*
G02*
X134690000Y-111520000I0J140000D01*
G01*
X134690000Y-111240000D01*
G75*
G02*
X134830000Y-111100000I140000J0D01*
G01*
X135170000Y-111100000D01*
G75*
G02*
X135310000Y-111240000I0J-140000D01*
G01*
X135310000Y-111520000D01*
G75*
G02*
X135170000Y-111660000I-140000J0D01*
G01*
G37*
G36*
G01*
X135170000Y-110700000D02*
X134830000Y-110700000D01*
G75*
G02*
X134690000Y-110560000I0J140000D01*
G01*
X134690000Y-110280000D01*
G75*
G02*
X134830000Y-110140000I140000J0D01*
G01*
X135170000Y-110140000D01*
G75*
G02*
X135310000Y-110280000I0J-140000D01*
G01*
X135310000Y-110560000D01*
G75*
G02*
X135170000Y-110700000I-140000J0D01*
G01*
G37*
G04 #@! TD*
D16*
G04 #@! TO.C,H3*
X124900000Y-78500000D03*
G04 #@! TD*
G04 #@! TO.C,C7*
G36*
G01*
X134975000Y-98000000D02*
X134975000Y-98500000D01*
G75*
G02*
X134750000Y-98725000I-225000J0D01*
G01*
X134300000Y-98725000D01*
G75*
G02*
X134075000Y-98500000I0J225000D01*
G01*
X134075000Y-98000000D01*
G75*
G02*
X134300000Y-97775000I225000J0D01*
G01*
X134750000Y-97775000D01*
G75*
G02*
X134975000Y-98000000I0J-225000D01*
G01*
G37*
G36*
G01*
X133425000Y-98000000D02*
X133425000Y-98500000D01*
G75*
G02*
X133200000Y-98725000I-225000J0D01*
G01*
X132750000Y-98725000D01*
G75*
G02*
X132525000Y-98500000I0J225000D01*
G01*
X132525000Y-98000000D01*
G75*
G02*
X132750000Y-97775000I225000J0D01*
G01*
X133200000Y-97775000D01*
G75*
G02*
X133425000Y-98000000I0J-225000D01*
G01*
G37*
G04 #@! TD*
G04 #@! TO.C,L1*
G36*
G01*
X142850000Y-81318750D02*
X142850000Y-82081250D01*
G75*
G02*
X142631250Y-82300000I-218750J0D01*
G01*
X142193750Y-82300000D01*
G75*
G02*
X141975000Y-82081250I0J218750D01*
G01*
X141975000Y-81318750D01*
G75*
G02*
X142193750Y-81100000I218750J0D01*
G01*
X142631250Y-81100000D01*
G75*
G02*
X142850000Y-81318750I0J-218750D01*
G01*
G37*
G36*
G01*
X140725000Y-81318750D02*
X140725000Y-82081250D01*
G75*
G02*
X140506250Y-82300000I-218750J0D01*
G01*
X140068750Y-82300000D01*
G75*
G02*
X139850000Y-82081250I0J218750D01*
G01*
X139850000Y-81318750D01*
G75*
G02*
X140068750Y-81100000I218750J0D01*
G01*
X140506250Y-81100000D01*
G75*
G02*
X140725000Y-81318750I0J-218750D01*
G01*
G37*
G04 #@! TD*
G04 #@! TO.C,C42*
G36*
G01*
X157060000Y-91030000D02*
X157060000Y-91370000D01*
G75*
G02*
X156920000Y-91510000I-140000J0D01*
G01*
X156640000Y-91510000D01*
G75*
G02*
X156500000Y-91370000I0J140000D01*
G01*
X156500000Y-91030000D01*
G75*
G02*
X156640000Y-90890000I140000J0D01*
G01*
X156920000Y-90890000D01*
G75*
G02*
X157060000Y-91030000I0J-140000D01*
G01*
G37*
G36*
G01*
X156100000Y-91030000D02*
X156100000Y-91370000D01*
G75*
G02*
X155960000Y-91510000I-140000J0D01*
G01*
X155680000Y-91510000D01*
G75*
G02*
X155540000Y-91370000I0J140000D01*
G01*
X155540000Y-91030000D01*
G75*
G02*
X155680000Y-90890000I140000J0D01*
G01*
X155960000Y-90890000D01*
G75*
G02*
X156100000Y-91030000I0J-140000D01*
G01*
G37*
G04 #@! TD*
G04 #@! TO.C,FB3*
G36*
G01*
X148006250Y-80575000D02*
X147493750Y-80575000D01*
G75*
G02*
X147275000Y-80356250I0J218750D01*
G01*
X147275000Y-79918750D01*
G75*
G02*
X147493750Y-79700000I218750J0D01*
G01*
X148006250Y-79700000D01*
G75*
G02*
X148225000Y-79918750I0J-218750D01*
G01*
X148225000Y-80356250D01*
G75*
G02*
X148006250Y-80575000I-218750J0D01*
G01*
G37*
G36*
G01*
X148006250Y-79000000D02*
X147493750Y-79000000D01*
G75*
G02*
X147275000Y-78781250I0J218750D01*
G01*
X147275000Y-78343750D01*
G75*
G02*
X147493750Y-78125000I218750J0D01*
G01*
X148006250Y-78125000D01*
G75*
G02*
X148225000Y-78343750I0J-218750D01*
G01*
X148225000Y-78781250D01*
G75*
G02*
X148006250Y-79000000I-218750J0D01*
G01*
G37*
G04 #@! TD*
G04 #@! TO.C,C35*
G36*
G01*
X152750000Y-85575000D02*
X152250000Y-85575000D01*
G75*
G02*
X152025000Y-85350000I0J225000D01*
G01*
X152025000Y-84900000D01*
G75*
G02*
X152250000Y-84675000I225000J0D01*
G01*
X152750000Y-84675000D01*
G75*
G02*
X152975000Y-84900000I0J-225000D01*
G01*
X152975000Y-85350000D01*
G75*
G02*
X152750000Y-85575000I-225000J0D01*
G01*
G37*
G36*
G01*
X152750000Y-84025000D02*
X152250000Y-84025000D01*
G75*
G02*
X152025000Y-83800000I0J225000D01*
G01*
X152025000Y-83350000D01*
G75*
G02*
X152250000Y-83125000I225000J0D01*
G01*
X152750000Y-83125000D01*
G75*
G02*
X152975000Y-83350000I0J-225000D01*
G01*
X152975000Y-83800000D01*
G75*
G02*
X152750000Y-84025000I-225000J0D01*
G01*
G37*
G04 #@! TD*
G04 #@! TO.C,FB2*
G36*
G01*
X157220000Y-114972500D02*
X157220000Y-114627500D01*
G75*
G02*
X157367500Y-114480000I147500J0D01*
G01*
X157662500Y-114480000D01*
G75*
G02*
X157810000Y-114627500I0J-147500D01*
G01*
X157810000Y-114972500D01*
G75*
G02*
X157662500Y-115120000I-147500J0D01*
G01*
X157367500Y-115120000D01*
G75*
G02*
X157220000Y-114972500I0J147500D01*
G01*
G37*
G36*
G01*
X158190000Y-114972500D02*
X158190000Y-114627500D01*
G75*
G02*
X158337500Y-114480000I147500J0D01*
G01*
X158632500Y-114480000D01*
G75*
G02*
X158780000Y-114627500I0J-147500D01*
G01*
X158780000Y-114972500D01*
G75*
G02*
X158632500Y-115120000I-147500J0D01*
G01*
X158337500Y-115120000D01*
G75*
G02*
X158190000Y-114972500I0J147500D01*
G01*
G37*
G04 #@! TD*
G04 #@! TO.C,R9*
G36*
G01*
X161290000Y-88515000D02*
X161290000Y-88885000D01*
G75*
G02*
X161155000Y-89020000I-135000J0D01*
G01*
X160885000Y-89020000D01*
G75*
G02*
X160750000Y-88885000I0J135000D01*
G01*
X160750000Y-88515000D01*
G75*
G02*
X160885000Y-88380000I135000J0D01*
G01*
X161155000Y-88380000D01*
G75*
G02*
X161290000Y-88515000I0J-135000D01*
G01*
G37*
G36*
G01*
X160270000Y-88515000D02*
X160270000Y-88885000D01*
G75*
G02*
X160135000Y-89020000I-135000J0D01*
G01*
X159865000Y-89020000D01*
G75*
G02*
X159730000Y-88885000I0J135000D01*
G01*
X159730000Y-88515000D01*
G75*
G02*
X159865000Y-88380000I135000J0D01*
G01*
X160135000Y-88380000D01*
G75*
G02*
X160270000Y-88515000I0J-135000D01*
G01*
G37*
G04 #@! TD*
G04 #@! TO.C,C50*
G36*
G01*
X136170000Y-84660000D02*
X135830000Y-84660000D01*
G75*
G02*
X135690000Y-84520000I0J140000D01*
G01*
X135690000Y-84240000D01*
G75*
G02*
X135830000Y-84100000I140000J0D01*
G01*
X136170000Y-84100000D01*
G75*
G02*
X136310000Y-84240000I0J-140000D01*
G01*
X136310000Y-84520000D01*
G75*
G02*
X136170000Y-84660000I-140000J0D01*
G01*
G37*
G36*
G01*
X136170000Y-83700000D02*
X135830000Y-83700000D01*
G75*
G02*
X135690000Y-83560000I0J140000D01*
G01*
X135690000Y-83280000D01*
G75*
G02*
X135830000Y-83140000I140000J0D01*
G01*
X136170000Y-83140000D01*
G75*
G02*
X136310000Y-83280000I0J-140000D01*
G01*
X136310000Y-83560000D01*
G75*
G02*
X136170000Y-83700000I-140000J0D01*
G01*
G37*
G04 #@! TD*
G04 #@! TO.C,C47*
G36*
G01*
X143830000Y-110240000D02*
X144170000Y-110240000D01*
G75*
G02*
X144310000Y-110380000I0J-140000D01*
G01*
X144310000Y-110660000D01*
G75*
G02*
X144170000Y-110800000I-140000J0D01*
G01*
X143830000Y-110800000D01*
G75*
G02*
X143690000Y-110660000I0J140000D01*
G01*
X143690000Y-110380000D01*
G75*
G02*
X143830000Y-110240000I140000J0D01*
G01*
G37*
G36*
G01*
X143830000Y-111200000D02*
X144170000Y-111200000D01*
G75*
G02*
X144310000Y-111340000I0J-140000D01*
G01*
X144310000Y-111620000D01*
G75*
G02*
X144170000Y-111760000I-140000J0D01*
G01*
X143830000Y-111760000D01*
G75*
G02*
X143690000Y-111620000I0J140000D01*
G01*
X143690000Y-111340000D01*
G75*
G02*
X143830000Y-111200000I140000J0D01*
G01*
G37*
G04 #@! TD*
G04 #@! TO.C,C2*
G36*
G01*
X155290000Y-104370000D02*
X155290000Y-104030000D01*
G75*
G02*
X155430000Y-103890000I140000J0D01*
G01*
X155710000Y-103890000D01*
G75*
G02*
X155850000Y-104030000I0J-140000D01*
G01*
X155850000Y-104370000D01*
G75*
G02*
X155710000Y-104510000I-140000J0D01*
G01*
X155430000Y-104510000D01*
G75*
G02*
X155290000Y-104370000I0J140000D01*
G01*
G37*
G36*
G01*
X156250000Y-104370000D02*
X156250000Y-104030000D01*
G75*
G02*
X156390000Y-103890000I140000J0D01*
G01*
X156670000Y-103890000D01*
G75*
G02*
X156810000Y-104030000I0J-140000D01*
G01*
X156810000Y-104370000D01*
G75*
G02*
X156670000Y-104510000I-140000J0D01*
G01*
X156390000Y-104510000D01*
G75*
G02*
X156250000Y-104370000I0J140000D01*
G01*
G37*
G04 #@! TD*
G04 #@! TO.C,C10*
G36*
G01*
X157400000Y-77725000D02*
X157900000Y-77725000D01*
G75*
G02*
X158125000Y-77950000I0J-225000D01*
G01*
X158125000Y-78400000D01*
G75*
G02*
X157900000Y-78625000I-225000J0D01*
G01*
X157400000Y-78625000D01*
G75*
G02*
X157175000Y-78400000I0J225000D01*
G01*
X157175000Y-77950000D01*
G75*
G02*
X157400000Y-77725000I225000J0D01*
G01*
G37*
G36*
G01*
X157400000Y-79275000D02*
X157900000Y-79275000D01*
G75*
G02*
X158125000Y-79500000I0J-225000D01*
G01*
X158125000Y-79950000D01*
G75*
G02*
X157900000Y-80175000I-225000J0D01*
G01*
X157400000Y-80175000D01*
G75*
G02*
X157175000Y-79950000I0J225000D01*
G01*
X157175000Y-79500000D01*
G75*
G02*
X157400000Y-79275000I225000J0D01*
G01*
G37*
G04 #@! TD*
G04 #@! TO.C,C22*
G36*
G01*
X134330000Y-83240000D02*
X134670000Y-83240000D01*
G75*
G02*
X134810000Y-83380000I0J-140000D01*
G01*
X134810000Y-83660000D01*
G75*
G02*
X134670000Y-83800000I-140000J0D01*
G01*
X134330000Y-83800000D01*
G75*
G02*
X134190000Y-83660000I0J140000D01*
G01*
X134190000Y-83380000D01*
G75*
G02*
X134330000Y-83240000I140000J0D01*
G01*
G37*
G36*
G01*
X134330000Y-84200000D02*
X134670000Y-84200000D01*
G75*
G02*
X134810000Y-84340000I0J-140000D01*
G01*
X134810000Y-84620000D01*
G75*
G02*
X134670000Y-84760000I-140000J0D01*
G01*
X134330000Y-84760000D01*
G75*
G02*
X134190000Y-84620000I0J140000D01*
G01*
X134190000Y-84340000D01*
G75*
G02*
X134330000Y-84200000I140000J0D01*
G01*
G37*
G04 #@! TD*
G04 #@! TO.C,R11*
G36*
G01*
X127815000Y-95720000D02*
X128185000Y-95720000D01*
G75*
G02*
X128320000Y-95855000I0J-135000D01*
G01*
X128320000Y-96125000D01*
G75*
G02*
X128185000Y-96260000I-135000J0D01*
G01*
X127815000Y-96260000D01*
G75*
G02*
X127680000Y-96125000I0J135000D01*
G01*
X127680000Y-95855000D01*
G75*
G02*
X127815000Y-95720000I135000J0D01*
G01*
G37*
G36*
G01*
X127815000Y-96740000D02*
X128185000Y-96740000D01*
G75*
G02*
X128320000Y-96875000I0J-135000D01*
G01*
X128320000Y-97145000D01*
G75*
G02*
X128185000Y-97280000I-135000J0D01*
G01*
X127815000Y-97280000D01*
G75*
G02*
X127680000Y-97145000I0J135000D01*
G01*
X127680000Y-96875000D01*
G75*
G02*
X127815000Y-96740000I135000J0D01*
G01*
G37*
G04 #@! TD*
D12*
G04 #@! TO.C,TP7*
X125300000Y-84500000D03*
G04 #@! TD*
G04 #@! TO.C,C54*
G36*
G01*
X158440000Y-107370000D02*
X158440000Y-107030000D01*
G75*
G02*
X158580000Y-106890000I140000J0D01*
G01*
X158860000Y-106890000D01*
G75*
G02*
X159000000Y-107030000I0J-140000D01*
G01*
X159000000Y-107370000D01*
G75*
G02*
X158860000Y-107510000I-140000J0D01*
G01*
X158580000Y-107510000D01*
G75*
G02*
X158440000Y-107370000I0J140000D01*
G01*
G37*
G36*
G01*
X159400000Y-107370000D02*
X159400000Y-107030000D01*
G75*
G02*
X159540000Y-106890000I140000J0D01*
G01*
X159820000Y-106890000D01*
G75*
G02*
X159960000Y-107030000I0J-140000D01*
G01*
X159960000Y-107370000D01*
G75*
G02*
X159820000Y-107510000I-140000J0D01*
G01*
X159540000Y-107510000D01*
G75*
G02*
X159400000Y-107370000I0J140000D01*
G01*
G37*
G04 #@! TD*
G04 #@! TO.C,C25*
G36*
G01*
X132475000Y-107950000D02*
X132475000Y-107450000D01*
G75*
G02*
X132700000Y-107225000I225000J0D01*
G01*
X133150000Y-107225000D01*
G75*
G02*
X133375000Y-107450000I0J-225000D01*
G01*
X133375000Y-107950000D01*
G75*
G02*
X133150000Y-108175000I-225000J0D01*
G01*
X132700000Y-108175000D01*
G75*
G02*
X132475000Y-107950000I0J225000D01*
G01*
G37*
G36*
G01*
X134025000Y-107950000D02*
X134025000Y-107450000D01*
G75*
G02*
X134250000Y-107225000I225000J0D01*
G01*
X134700000Y-107225000D01*
G75*
G02*
X134925000Y-107450000I0J-225000D01*
G01*
X134925000Y-107950000D01*
G75*
G02*
X134700000Y-108175000I-225000J0D01*
G01*
X134250000Y-108175000D01*
G75*
G02*
X134025000Y-107950000I0J225000D01*
G01*
G37*
G04 #@! TD*
G04 #@! TO.C,U1*
G36*
G01*
X141500000Y-78350000D02*
X141500000Y-78050000D01*
G75*
G02*
X141650000Y-77900000I150000J0D01*
G01*
X142675000Y-77900000D01*
G75*
G02*
X142825000Y-78050000I0J-150000D01*
G01*
X142825000Y-78350000D01*
G75*
G02*
X142675000Y-78500000I-150000J0D01*
G01*
X141650000Y-78500000D01*
G75*
G02*
X141500000Y-78350000I0J150000D01*
G01*
G37*
G36*
G01*
X141500000Y-79300000D02*
X141500000Y-79000000D01*
G75*
G02*
X141650000Y-78850000I150000J0D01*
G01*
X142675000Y-78850000D01*
G75*
G02*
X142825000Y-79000000I0J-150000D01*
G01*
X142825000Y-79300000D01*
G75*
G02*
X142675000Y-79450000I-150000J0D01*
G01*
X141650000Y-79450000D01*
G75*
G02*
X141500000Y-79300000I0J150000D01*
G01*
G37*
G36*
G01*
X141500000Y-80250000D02*
X141500000Y-79950000D01*
G75*
G02*
X141650000Y-79800000I150000J0D01*
G01*
X142675000Y-79800000D01*
G75*
G02*
X142825000Y-79950000I0J-150000D01*
G01*
X142825000Y-80250000D01*
G75*
G02*
X142675000Y-80400000I-150000J0D01*
G01*
X141650000Y-80400000D01*
G75*
G02*
X141500000Y-80250000I0J150000D01*
G01*
G37*
G36*
G01*
X143775000Y-80250000D02*
X143775000Y-79950000D01*
G75*
G02*
X143925000Y-79800000I150000J0D01*
G01*
X144950000Y-79800000D01*
G75*
G02*
X145100000Y-79950000I0J-150000D01*
G01*
X145100000Y-80250000D01*
G75*
G02*
X144950000Y-80400000I-150000J0D01*
G01*
X143925000Y-80400000D01*
G75*
G02*
X143775000Y-80250000I0J150000D01*
G01*
G37*
G36*
G01*
X143775000Y-78350000D02*
X143775000Y-78050000D01*
G75*
G02*
X143925000Y-77900000I150000J0D01*
G01*
X144950000Y-77900000D01*
G75*
G02*
X145100000Y-78050000I0J-150000D01*
G01*
X145100000Y-78350000D01*
G75*
G02*
X144950000Y-78500000I-150000J0D01*
G01*
X143925000Y-78500000D01*
G75*
G02*
X143775000Y-78350000I0J150000D01*
G01*
G37*
G04 #@! TD*
G04 #@! TO.C,C67*
G36*
G01*
X129620000Y-90760000D02*
X129280000Y-90760000D01*
G75*
G02*
X129140000Y-90620000I0J140000D01*
G01*
X129140000Y-90340000D01*
G75*
G02*
X129280000Y-90200000I140000J0D01*
G01*
X129620000Y-90200000D01*
G75*
G02*
X129760000Y-90340000I0J-140000D01*
G01*
X129760000Y-90620000D01*
G75*
G02*
X129620000Y-90760000I-140000J0D01*
G01*
G37*
G36*
G01*
X129620000Y-89800000D02*
X129280000Y-89800000D01*
G75*
G02*
X129140000Y-89660000I0J140000D01*
G01*
X129140000Y-89380000D01*
G75*
G02*
X129280000Y-89240000I140000J0D01*
G01*
X129620000Y-89240000D01*
G75*
G02*
X129760000Y-89380000I0J-140000D01*
G01*
X129760000Y-89660000D01*
G75*
G02*
X129620000Y-89800000I-140000J0D01*
G01*
G37*
G04 #@! TD*
D16*
G04 #@! TO.C,H1*
X165100000Y-116500000D03*
G04 #@! TD*
G04 #@! TO.C,C12*
G36*
G01*
X140087500Y-78125000D02*
X140587500Y-78125000D01*
G75*
G02*
X140812500Y-78350000I0J-225000D01*
G01*
X140812500Y-78800000D01*
G75*
G02*
X140587500Y-79025000I-225000J0D01*
G01*
X140087500Y-79025000D01*
G75*
G02*
X139862500Y-78800000I0J225000D01*
G01*
X139862500Y-78350000D01*
G75*
G02*
X140087500Y-78125000I225000J0D01*
G01*
G37*
G36*
G01*
X140087500Y-79675000D02*
X140587500Y-79675000D01*
G75*
G02*
X140812500Y-79900000I0J-225000D01*
G01*
X140812500Y-80350000D01*
G75*
G02*
X140587500Y-80575000I-225000J0D01*
G01*
X140087500Y-80575000D01*
G75*
G02*
X139862500Y-80350000I0J225000D01*
G01*
X139862500Y-79900000D01*
G75*
G02*
X140087500Y-79675000I225000J0D01*
G01*
G37*
G04 #@! TD*
D17*
G04 #@! TO.C,J9*
X163650000Y-100300000D03*
X163650000Y-99800000D03*
X163650000Y-99300000D03*
X163650000Y-98800000D03*
X163650000Y-98300000D03*
X163650000Y-97800000D03*
X163650000Y-97300000D03*
X163650000Y-96800000D03*
X163650000Y-96300000D03*
X163650000Y-95800000D03*
X163650000Y-95300000D03*
X163650000Y-94800000D03*
X163650000Y-94300000D03*
X163650000Y-93800000D03*
X163650000Y-93300000D03*
X163650000Y-92800000D03*
X163650000Y-92300000D03*
X163650000Y-91800000D03*
X163650000Y-91300000D03*
X163650000Y-90800000D03*
X163650000Y-90300000D03*
X163650000Y-89800000D03*
D18*
X167550000Y-101950000D03*
X167550000Y-88150000D03*
G04 #@! TD*
G04 #@! TO.C,C39*
G36*
G01*
X152250000Y-109925000D02*
X152750000Y-109925000D01*
G75*
G02*
X152975000Y-110150000I0J-225000D01*
G01*
X152975000Y-110600000D01*
G75*
G02*
X152750000Y-110825000I-225000J0D01*
G01*
X152250000Y-110825000D01*
G75*
G02*
X152025000Y-110600000I0J225000D01*
G01*
X152025000Y-110150000D01*
G75*
G02*
X152250000Y-109925000I225000J0D01*
G01*
G37*
G36*
G01*
X152250000Y-111475000D02*
X152750000Y-111475000D01*
G75*
G02*
X152975000Y-111700000I0J-225000D01*
G01*
X152975000Y-112150000D01*
G75*
G02*
X152750000Y-112375000I-225000J0D01*
G01*
X152250000Y-112375000D01*
G75*
G02*
X152025000Y-112150000I0J225000D01*
G01*
X152025000Y-111700000D01*
G75*
G02*
X152250000Y-111475000I225000J0D01*
G01*
G37*
G04 #@! TD*
G04 #@! TO.C,C59*
G36*
G01*
X136170000Y-108710000D02*
X135830000Y-108710000D01*
G75*
G02*
X135690000Y-108570000I0J140000D01*
G01*
X135690000Y-108290000D01*
G75*
G02*
X135830000Y-108150000I140000J0D01*
G01*
X136170000Y-108150000D01*
G75*
G02*
X136310000Y-108290000I0J-140000D01*
G01*
X136310000Y-108570000D01*
G75*
G02*
X136170000Y-108710000I-140000J0D01*
G01*
G37*
G36*
G01*
X136170000Y-107750000D02*
X135830000Y-107750000D01*
G75*
G02*
X135690000Y-107610000I0J140000D01*
G01*
X135690000Y-107330000D01*
G75*
G02*
X135830000Y-107190000I140000J0D01*
G01*
X136170000Y-107190000D01*
G75*
G02*
X136310000Y-107330000I0J-140000D01*
G01*
X136310000Y-107610000D01*
G75*
G02*
X136170000Y-107750000I-140000J0D01*
G01*
G37*
G04 #@! TD*
G04 #@! TO.C,C56*
G36*
G01*
X159960000Y-90980000D02*
X159960000Y-91320000D01*
G75*
G02*
X159820000Y-91460000I-140000J0D01*
G01*
X159540000Y-91460000D01*
G75*
G02*
X159400000Y-91320000I0J140000D01*
G01*
X159400000Y-90980000D01*
G75*
G02*
X159540000Y-90840000I140000J0D01*
G01*
X159820000Y-90840000D01*
G75*
G02*
X159960000Y-90980000I0J-140000D01*
G01*
G37*
G36*
G01*
X159000000Y-90980000D02*
X159000000Y-91320000D01*
G75*
G02*
X158860000Y-91460000I-140000J0D01*
G01*
X158580000Y-91460000D01*
G75*
G02*
X158440000Y-91320000I0J140000D01*
G01*
X158440000Y-90980000D01*
G75*
G02*
X158580000Y-90840000I140000J0D01*
G01*
X158860000Y-90840000D01*
G75*
G02*
X159000000Y-90980000I0J-140000D01*
G01*
G37*
G04 #@! TD*
G04 #@! TO.C,C65*
G36*
G01*
X153830000Y-86540000D02*
X154170000Y-86540000D01*
G75*
G02*
X154310000Y-86680000I0J-140000D01*
G01*
X154310000Y-86960000D01*
G75*
G02*
X154170000Y-87100000I-140000J0D01*
G01*
X153830000Y-87100000D01*
G75*
G02*
X153690000Y-86960000I0J140000D01*
G01*
X153690000Y-86680000D01*
G75*
G02*
X153830000Y-86540000I140000J0D01*
G01*
G37*
G36*
G01*
X153830000Y-87500000D02*
X154170000Y-87500000D01*
G75*
G02*
X154310000Y-87640000I0J-140000D01*
G01*
X154310000Y-87920000D01*
G75*
G02*
X154170000Y-88060000I-140000J0D01*
G01*
X153830000Y-88060000D01*
G75*
G02*
X153690000Y-87920000I0J140000D01*
G01*
X153690000Y-87640000D01*
G75*
G02*
X153830000Y-87500000I140000J0D01*
G01*
G37*
G04 #@! TD*
G04 #@! TO.C,C20*
G36*
G01*
X157060000Y-96930000D02*
X157060000Y-97270000D01*
G75*
G02*
X156920000Y-97410000I-140000J0D01*
G01*
X156640000Y-97410000D01*
G75*
G02*
X156500000Y-97270000I0J140000D01*
G01*
X156500000Y-96930000D01*
G75*
G02*
X156640000Y-96790000I140000J0D01*
G01*
X156920000Y-96790000D01*
G75*
G02*
X157060000Y-96930000I0J-140000D01*
G01*
G37*
G36*
G01*
X156100000Y-96930000D02*
X156100000Y-97270000D01*
G75*
G02*
X155960000Y-97410000I-140000J0D01*
G01*
X155680000Y-97410000D01*
G75*
G02*
X155540000Y-97270000I0J140000D01*
G01*
X155540000Y-96930000D01*
G75*
G02*
X155680000Y-96790000I140000J0D01*
G01*
X155960000Y-96790000D01*
G75*
G02*
X156100000Y-96930000I0J-140000D01*
G01*
G37*
G04 #@! TD*
G04 #@! TO.C,C26*
G36*
G01*
X137250000Y-109675000D02*
X137750000Y-109675000D01*
G75*
G02*
X137975000Y-109900000I0J-225000D01*
G01*
X137975000Y-110350000D01*
G75*
G02*
X137750000Y-110575000I-225000J0D01*
G01*
X137250000Y-110575000D01*
G75*
G02*
X137025000Y-110350000I0J225000D01*
G01*
X137025000Y-109900000D01*
G75*
G02*
X137250000Y-109675000I225000J0D01*
G01*
G37*
G36*
G01*
X137250000Y-111225000D02*
X137750000Y-111225000D01*
G75*
G02*
X137975000Y-111450000I0J-225000D01*
G01*
X137975000Y-111900000D01*
G75*
G02*
X137750000Y-112125000I-225000J0D01*
G01*
X137250000Y-112125000D01*
G75*
G02*
X137025000Y-111900000I0J225000D01*
G01*
X137025000Y-111450000D01*
G75*
G02*
X137250000Y-111225000I225000J0D01*
G01*
G37*
G04 #@! TD*
G04 #@! TO.C,C64*
G36*
G01*
X159960000Y-105930000D02*
X159960000Y-106270000D01*
G75*
G02*
X159820000Y-106410000I-140000J0D01*
G01*
X159540000Y-106410000D01*
G75*
G02*
X159400000Y-106270000I0J140000D01*
G01*
X159400000Y-105930000D01*
G75*
G02*
X159540000Y-105790000I140000J0D01*
G01*
X159820000Y-105790000D01*
G75*
G02*
X159960000Y-105930000I0J-140000D01*
G01*
G37*
G36*
G01*
X159000000Y-105930000D02*
X159000000Y-106270000D01*
G75*
G02*
X158860000Y-106410000I-140000J0D01*
G01*
X158580000Y-106410000D01*
G75*
G02*
X158440000Y-106270000I0J140000D01*
G01*
X158440000Y-105930000D01*
G75*
G02*
X158580000Y-105790000I140000J0D01*
G01*
X158860000Y-105790000D01*
G75*
G02*
X159000000Y-105930000I0J-140000D01*
G01*
G37*
G04 #@! TD*
G04 #@! TO.C,C30*
G36*
G01*
X157060000Y-98730000D02*
X157060000Y-99070000D01*
G75*
G02*
X156920000Y-99210000I-140000J0D01*
G01*
X156640000Y-99210000D01*
G75*
G02*
X156500000Y-99070000I0J140000D01*
G01*
X156500000Y-98730000D01*
G75*
G02*
X156640000Y-98590000I140000J0D01*
G01*
X156920000Y-98590000D01*
G75*
G02*
X157060000Y-98730000I0J-140000D01*
G01*
G37*
G36*
G01*
X156100000Y-98730000D02*
X156100000Y-99070000D01*
G75*
G02*
X155960000Y-99210000I-140000J0D01*
G01*
X155680000Y-99210000D01*
G75*
G02*
X155540000Y-99070000I0J140000D01*
G01*
X155540000Y-98730000D01*
G75*
G02*
X155680000Y-98590000I140000J0D01*
G01*
X155960000Y-98590000D01*
G75*
G02*
X156100000Y-98730000I0J-140000D01*
G01*
G37*
G04 #@! TD*
G04 #@! TO.C,C19*
G36*
G01*
X132475000Y-87250000D02*
X132475000Y-86750000D01*
G75*
G02*
X132700000Y-86525000I225000J0D01*
G01*
X133150000Y-86525000D01*
G75*
G02*
X133375000Y-86750000I0J-225000D01*
G01*
X133375000Y-87250000D01*
G75*
G02*
X133150000Y-87475000I-225000J0D01*
G01*
X132700000Y-87475000D01*
G75*
G02*
X132475000Y-87250000I0J225000D01*
G01*
G37*
G36*
G01*
X134025000Y-87250000D02*
X134025000Y-86750000D01*
G75*
G02*
X134250000Y-86525000I225000J0D01*
G01*
X134700000Y-86525000D01*
G75*
G02*
X134925000Y-86750000I0J-225000D01*
G01*
X134925000Y-87250000D01*
G75*
G02*
X134700000Y-87475000I-225000J0D01*
G01*
X134250000Y-87475000D01*
G75*
G02*
X134025000Y-87250000I0J225000D01*
G01*
G37*
G04 #@! TD*
G04 #@! TO.C,C9*
G36*
G01*
X132830000Y-102640000D02*
X133170000Y-102640000D01*
G75*
G02*
X133310000Y-102780000I0J-140000D01*
G01*
X133310000Y-103060000D01*
G75*
G02*
X133170000Y-103200000I-140000J0D01*
G01*
X132830000Y-103200000D01*
G75*
G02*
X132690000Y-103060000I0J140000D01*
G01*
X132690000Y-102780000D01*
G75*
G02*
X132830000Y-102640000I140000J0D01*
G01*
G37*
G36*
G01*
X132830000Y-103600000D02*
X133170000Y-103600000D01*
G75*
G02*
X133310000Y-103740000I0J-140000D01*
G01*
X133310000Y-104020000D01*
G75*
G02*
X133170000Y-104160000I-140000J0D01*
G01*
X132830000Y-104160000D01*
G75*
G02*
X132690000Y-104020000I0J140000D01*
G01*
X132690000Y-103740000D01*
G75*
G02*
X132830000Y-103600000I140000J0D01*
G01*
G37*
G04 #@! TD*
G04 #@! TO.C,C51*
G36*
G01*
X157060000Y-95130000D02*
X157060000Y-95470000D01*
G75*
G02*
X156920000Y-95610000I-140000J0D01*
G01*
X156640000Y-95610000D01*
G75*
G02*
X156500000Y-95470000I0J140000D01*
G01*
X156500000Y-95130000D01*
G75*
G02*
X156640000Y-94990000I140000J0D01*
G01*
X156920000Y-94990000D01*
G75*
G02*
X157060000Y-95130000I0J-140000D01*
G01*
G37*
G36*
G01*
X156100000Y-95130000D02*
X156100000Y-95470000D01*
G75*
G02*
X155960000Y-95610000I-140000J0D01*
G01*
X155680000Y-95610000D01*
G75*
G02*
X155540000Y-95470000I0J140000D01*
G01*
X155540000Y-95130000D01*
G75*
G02*
X155680000Y-94990000I140000J0D01*
G01*
X155960000Y-94990000D01*
G75*
G02*
X156100000Y-95130000I0J-140000D01*
G01*
G37*
G04 #@! TD*
G04 #@! TO.C,C3*
G36*
G01*
X134217193Y-89342391D02*
X134457609Y-89582807D01*
G75*
G02*
X134457609Y-89780797I-98995J-98995D01*
G01*
X134259619Y-89978787D01*
G75*
G02*
X134061629Y-89978787I-98995J98995D01*
G01*
X133821213Y-89738371D01*
G75*
G02*
X133821213Y-89540381I98995J98995D01*
G01*
X134019203Y-89342391D01*
G75*
G02*
X134217193Y-89342391I98995J-98995D01*
G01*
G37*
G36*
G01*
X133538371Y-90021213D02*
X133778787Y-90261629D01*
G75*
G02*
X133778787Y-90459619I-98995J-98995D01*
G01*
X133580797Y-90657609D01*
G75*
G02*
X133382807Y-90657609I-98995J98995D01*
G01*
X133142391Y-90417193D01*
G75*
G02*
X133142391Y-90219203I98995J98995D01*
G01*
X133340381Y-90021213D01*
G75*
G02*
X133538371Y-90021213I98995J-98995D01*
G01*
G37*
G04 #@! TD*
D12*
G04 #@! TO.C,TP4*
X128200000Y-84500000D03*
G04 #@! TD*
G04 #@! TO.C,R2*
G36*
G01*
X155320000Y-102985000D02*
X155320000Y-102615000D01*
G75*
G02*
X155455000Y-102480000I135000J0D01*
G01*
X155725000Y-102480000D01*
G75*
G02*
X155860000Y-102615000I0J-135000D01*
G01*
X155860000Y-102985000D01*
G75*
G02*
X155725000Y-103120000I-135000J0D01*
G01*
X155455000Y-103120000D01*
G75*
G02*
X155320000Y-102985000I0J135000D01*
G01*
G37*
G36*
G01*
X156340000Y-102985000D02*
X156340000Y-102615000D01*
G75*
G02*
X156475000Y-102480000I135000J0D01*
G01*
X156745000Y-102480000D01*
G75*
G02*
X156880000Y-102615000I0J-135000D01*
G01*
X156880000Y-102985000D01*
G75*
G02*
X156745000Y-103120000I-135000J0D01*
G01*
X156475000Y-103120000D01*
G75*
G02*
X156340000Y-102985000I0J135000D01*
G01*
G37*
G04 #@! TD*
D16*
G04 #@! TO.C,H2*
X165100000Y-78500000D03*
G04 #@! TD*
G04 #@! TO.C,H4*
X124900000Y-116500000D03*
G04 #@! TD*
G04 #@! TO.C,C71*
G36*
G01*
X154040000Y-113670000D02*
X154040000Y-113330000D01*
G75*
G02*
X154180000Y-113190000I140000J0D01*
G01*
X154460000Y-113190000D01*
G75*
G02*
X154600000Y-113330000I0J-140000D01*
G01*
X154600000Y-113670000D01*
G75*
G02*
X154460000Y-113810000I-140000J0D01*
G01*
X154180000Y-113810000D01*
G75*
G02*
X154040000Y-113670000I0J140000D01*
G01*
G37*
G36*
G01*
X155000000Y-113670000D02*
X155000000Y-113330000D01*
G75*
G02*
X155140000Y-113190000I140000J0D01*
G01*
X155420000Y-113190000D01*
G75*
G02*
X155560000Y-113330000I0J-140000D01*
G01*
X155560000Y-113670000D01*
G75*
G02*
X155420000Y-113810000I-140000J0D01*
G01*
X155140000Y-113810000D01*
G75*
G02*
X155000000Y-113670000I0J140000D01*
G01*
G37*
G04 #@! TD*
D12*
G04 #@! TO.C,TP10*
X148350000Y-110900000D03*
G04 #@! TD*
D19*
G04 #@! TO.C,U7*
X155350001Y-114828400D03*
X154850000Y-114828400D03*
X154350000Y-114828400D03*
X153849999Y-114828400D03*
X153849999Y-117571600D03*
X154350000Y-117571600D03*
X154850000Y-117571600D03*
X155350001Y-117571600D03*
G04 #@! TD*
G04 #@! TO.C,C8*
G36*
G01*
X133170000Y-89460000D02*
X132830000Y-89460000D01*
G75*
G02*
X132690000Y-89320000I0J140000D01*
G01*
X132690000Y-89040000D01*
G75*
G02*
X132830000Y-88900000I140000J0D01*
G01*
X133170000Y-88900000D01*
G75*
G02*
X133310000Y-89040000I0J-140000D01*
G01*
X133310000Y-89320000D01*
G75*
G02*
X133170000Y-89460000I-140000J0D01*
G01*
G37*
G36*
G01*
X133170000Y-88500000D02*
X132830000Y-88500000D01*
G75*
G02*
X132690000Y-88360000I0J140000D01*
G01*
X132690000Y-88080000D01*
G75*
G02*
X132830000Y-87940000I140000J0D01*
G01*
X133170000Y-87940000D01*
G75*
G02*
X133310000Y-88080000I0J-140000D01*
G01*
X133310000Y-88360000D01*
G75*
G02*
X133170000Y-88500000I-140000J0D01*
G01*
G37*
G04 #@! TD*
D10*
G04 #@! TO.C,FL1*
X161950000Y-99290000D03*
X162450000Y-99290000D03*
X162450000Y-99770000D03*
X161950000Y-99770000D03*
G04 #@! TD*
G04 #@! TO.C,C27*
G36*
G01*
X133830000Y-110140000D02*
X134170000Y-110140000D01*
G75*
G02*
X134310000Y-110280000I0J-140000D01*
G01*
X134310000Y-110560000D01*
G75*
G02*
X134170000Y-110700000I-140000J0D01*
G01*
X133830000Y-110700000D01*
G75*
G02*
X133690000Y-110560000I0J140000D01*
G01*
X133690000Y-110280000D01*
G75*
G02*
X133830000Y-110140000I140000J0D01*
G01*
G37*
G36*
G01*
X133830000Y-111100000D02*
X134170000Y-111100000D01*
G75*
G02*
X134310000Y-111240000I0J-140000D01*
G01*
X134310000Y-111520000D01*
G75*
G02*
X134170000Y-111660000I-140000J0D01*
G01*
X133830000Y-111660000D01*
G75*
G02*
X133690000Y-111520000I0J140000D01*
G01*
X133690000Y-111240000D01*
G75*
G02*
X133830000Y-111100000I140000J0D01*
G01*
G37*
G04 #@! TD*
D20*
G04 #@! TO.C,C11*
X128200000Y-87150000D03*
D21*
X128600000Y-87950000D03*
X127800000Y-87950000D03*
D20*
X128200000Y-88750000D03*
G04 #@! TD*
G04 #@! TO.C,R8*
G36*
G01*
X149315000Y-109120000D02*
X149685000Y-109120000D01*
G75*
G02*
X149820000Y-109255000I0J-135000D01*
G01*
X149820000Y-109525000D01*
G75*
G02*
X149685000Y-109660000I-135000J0D01*
G01*
X149315000Y-109660000D01*
G75*
G02*
X149180000Y-109525000I0J135000D01*
G01*
X149180000Y-109255000D01*
G75*
G02*
X149315000Y-109120000I135000J0D01*
G01*
G37*
G36*
G01*
X149315000Y-110140000D02*
X149685000Y-110140000D01*
G75*
G02*
X149820000Y-110275000I0J-135000D01*
G01*
X149820000Y-110545000D01*
G75*
G02*
X149685000Y-110680000I-135000J0D01*
G01*
X149315000Y-110680000D01*
G75*
G02*
X149180000Y-110545000I0J135000D01*
G01*
X149180000Y-110275000D01*
G75*
G02*
X149315000Y-110140000I135000J0D01*
G01*
G37*
G04 #@! TD*
G04 #@! TO.C,C48*
G36*
G01*
X157425000Y-105450000D02*
X157425000Y-105950000D01*
G75*
G02*
X157200000Y-106175000I-225000J0D01*
G01*
X156750000Y-106175000D01*
G75*
G02*
X156525000Y-105950000I0J225000D01*
G01*
X156525000Y-105450000D01*
G75*
G02*
X156750000Y-105225000I225000J0D01*
G01*
X157200000Y-105225000D01*
G75*
G02*
X157425000Y-105450000I0J-225000D01*
G01*
G37*
G36*
G01*
X155875000Y-105450000D02*
X155875000Y-105950000D01*
G75*
G02*
X155650000Y-106175000I-225000J0D01*
G01*
X155200000Y-106175000D01*
G75*
G02*
X154975000Y-105950000I0J225000D01*
G01*
X154975000Y-105450000D01*
G75*
G02*
X155200000Y-105225000I225000J0D01*
G01*
X155650000Y-105225000D01*
G75*
G02*
X155875000Y-105450000I0J-225000D01*
G01*
G37*
G04 #@! TD*
D10*
G04 #@! TO.C,FL3*
X161950000Y-96290000D03*
X162450000Y-96290000D03*
X162450000Y-96770000D03*
X161950000Y-96770000D03*
G04 #@! TD*
D13*
G04 #@! TO.C,J3*
X139125000Y-116120000D03*
D14*
X137650000Y-117645000D03*
X140600000Y-117645000D03*
G04 #@! TD*
G04 #@! TO.C,C34*
G36*
G01*
X155540000Y-98170000D02*
X155540000Y-97830000D01*
G75*
G02*
X155680000Y-97690000I140000J0D01*
G01*
X155960000Y-97690000D01*
G75*
G02*
X156100000Y-97830000I0J-140000D01*
G01*
X156100000Y-98170000D01*
G75*
G02*
X155960000Y-98310000I-140000J0D01*
G01*
X155680000Y-98310000D01*
G75*
G02*
X155540000Y-98170000I0J140000D01*
G01*
G37*
G36*
G01*
X156500000Y-98170000D02*
X156500000Y-97830000D01*
G75*
G02*
X156640000Y-97690000I140000J0D01*
G01*
X156920000Y-97690000D01*
G75*
G02*
X157060000Y-97830000I0J-140000D01*
G01*
X157060000Y-98170000D01*
G75*
G02*
X156920000Y-98310000I-140000J0D01*
G01*
X156640000Y-98310000D01*
G75*
G02*
X156500000Y-98170000I0J140000D01*
G01*
G37*
G04 #@! TD*
G04 #@! TO.C,C40*
G36*
G01*
X157060000Y-100530000D02*
X157060000Y-100870000D01*
G75*
G02*
X156920000Y-101010000I-140000J0D01*
G01*
X156640000Y-101010000D01*
G75*
G02*
X156500000Y-100870000I0J140000D01*
G01*
X156500000Y-100530000D01*
G75*
G02*
X156640000Y-100390000I140000J0D01*
G01*
X156920000Y-100390000D01*
G75*
G02*
X157060000Y-100530000I0J-140000D01*
G01*
G37*
G36*
G01*
X156100000Y-100530000D02*
X156100000Y-100870000D01*
G75*
G02*
X155960000Y-101010000I-140000J0D01*
G01*
X155680000Y-101010000D01*
G75*
G02*
X155540000Y-100870000I0J140000D01*
G01*
X155540000Y-100530000D01*
G75*
G02*
X155680000Y-100390000I140000J0D01*
G01*
X155960000Y-100390000D01*
G75*
G02*
X156100000Y-100530000I0J-140000D01*
G01*
G37*
G04 #@! TD*
D12*
G04 #@! TO.C,TP1*
X138800000Y-80350000D03*
G04 #@! TD*
G04 #@! TO.C,C33*
G36*
G01*
X155270000Y-111660000D02*
X154930000Y-111660000D01*
G75*
G02*
X154790000Y-111520000I0J140000D01*
G01*
X154790000Y-111240000D01*
G75*
G02*
X154930000Y-111100000I140000J0D01*
G01*
X155270000Y-111100000D01*
G75*
G02*
X155410000Y-111240000I0J-140000D01*
G01*
X155410000Y-111520000D01*
G75*
G02*
X155270000Y-111660000I-140000J0D01*
G01*
G37*
G36*
G01*
X155270000Y-110700000D02*
X154930000Y-110700000D01*
G75*
G02*
X154790000Y-110560000I0J140000D01*
G01*
X154790000Y-110280000D01*
G75*
G02*
X154930000Y-110140000I140000J0D01*
G01*
X155270000Y-110140000D01*
G75*
G02*
X155410000Y-110280000I0J-140000D01*
G01*
X155410000Y-110560000D01*
G75*
G02*
X155270000Y-110700000I-140000J0D01*
G01*
G37*
G04 #@! TD*
G04 #@! TO.C,U4*
G36*
G01*
X128062500Y-94625000D02*
X127937500Y-94625000D01*
G75*
G02*
X127875000Y-94562500I0J62500D01*
G01*
X127875000Y-93862500D01*
G75*
G02*
X127937500Y-93800000I62500J0D01*
G01*
X128062500Y-93800000D01*
G75*
G02*
X128125000Y-93862500I0J-62500D01*
G01*
X128125000Y-94562500D01*
G75*
G02*
X128062500Y-94625000I-62500J0D01*
G01*
G37*
G36*
G01*
X128562500Y-94625000D02*
X128437500Y-94625000D01*
G75*
G02*
X128375000Y-94562500I0J62500D01*
G01*
X128375000Y-93862500D01*
G75*
G02*
X128437500Y-93800000I62500J0D01*
G01*
X128562500Y-93800000D01*
G75*
G02*
X128625000Y-93862500I0J-62500D01*
G01*
X128625000Y-94562500D01*
G75*
G02*
X128562500Y-94625000I-62500J0D01*
G01*
G37*
G36*
G01*
X129062500Y-94625000D02*
X128937500Y-94625000D01*
G75*
G02*
X128875000Y-94562500I0J62500D01*
G01*
X128875000Y-93862500D01*
G75*
G02*
X128937500Y-93800000I62500J0D01*
G01*
X129062500Y-93800000D01*
G75*
G02*
X129125000Y-93862500I0J-62500D01*
G01*
X129125000Y-94562500D01*
G75*
G02*
X129062500Y-94625000I-62500J0D01*
G01*
G37*
G36*
G01*
X129562500Y-94625000D02*
X129437500Y-94625000D01*
G75*
G02*
X129375000Y-94562500I0J62500D01*
G01*
X129375000Y-93862500D01*
G75*
G02*
X129437500Y-93800000I62500J0D01*
G01*
X129562500Y-93800000D01*
G75*
G02*
X129625000Y-93862500I0J-62500D01*
G01*
X129625000Y-94562500D01*
G75*
G02*
X129562500Y-94625000I-62500J0D01*
G01*
G37*
G36*
G01*
X130062500Y-94625000D02*
X129937500Y-94625000D01*
G75*
G02*
X129875000Y-94562500I0J62500D01*
G01*
X129875000Y-93862500D01*
G75*
G02*
X129937500Y-93800000I62500J0D01*
G01*
X130062500Y-93800000D01*
G75*
G02*
X130125000Y-93862500I0J-62500D01*
G01*
X130125000Y-94562500D01*
G75*
G02*
X130062500Y-94625000I-62500J0D01*
G01*
G37*
G36*
G01*
X130062500Y-92200000D02*
X129937500Y-92200000D01*
G75*
G02*
X129875000Y-92137500I0J62500D01*
G01*
X129875000Y-91437500D01*
G75*
G02*
X129937500Y-91375000I62500J0D01*
G01*
X130062500Y-91375000D01*
G75*
G02*
X130125000Y-91437500I0J-62500D01*
G01*
X130125000Y-92137500D01*
G75*
G02*
X130062500Y-92200000I-62500J0D01*
G01*
G37*
G36*
G01*
X129562500Y-92200000D02*
X129437500Y-92200000D01*
G75*
G02*
X129375000Y-92137500I0J62500D01*
G01*
X129375000Y-91437500D01*
G75*
G02*
X129437500Y-91375000I62500J0D01*
G01*
X129562500Y-91375000D01*
G75*
G02*
X129625000Y-91437500I0J-62500D01*
G01*
X129625000Y-92137500D01*
G75*
G02*
X129562500Y-92200000I-62500J0D01*
G01*
G37*
G36*
G01*
X129062500Y-92200000D02*
X128937500Y-92200000D01*
G75*
G02*
X128875000Y-92137500I0J62500D01*
G01*
X128875000Y-91437500D01*
G75*
G02*
X128937500Y-91375000I62500J0D01*
G01*
X129062500Y-91375000D01*
G75*
G02*
X129125000Y-91437500I0J-62500D01*
G01*
X129125000Y-92137500D01*
G75*
G02*
X129062500Y-92200000I-62500J0D01*
G01*
G37*
G36*
G01*
X128562500Y-92200000D02*
X128437500Y-92200000D01*
G75*
G02*
X128375000Y-92137500I0J62500D01*
G01*
X128375000Y-91437500D01*
G75*
G02*
X128437500Y-91375000I62500J0D01*
G01*
X128562500Y-91375000D01*
G75*
G02*
X128625000Y-91437500I0J-62500D01*
G01*
X128625000Y-92137500D01*
G75*
G02*
X128562500Y-92200000I-62500J0D01*
G01*
G37*
G36*
G01*
X128062500Y-92200000D02*
X127937500Y-92200000D01*
G75*
G02*
X127875000Y-92137500I0J62500D01*
G01*
X127875000Y-91437500D01*
G75*
G02*
X127937500Y-91375000I62500J0D01*
G01*
X128062500Y-91375000D01*
G75*
G02*
X128125000Y-91437500I0J-62500D01*
G01*
X128125000Y-92137500D01*
G75*
G02*
X128062500Y-92200000I-62500J0D01*
G01*
G37*
D22*
X129000000Y-93000000D03*
G04 #@! TD*
G04 #@! TO.C,C57*
G36*
G01*
X135830000Y-86440000D02*
X136170000Y-86440000D01*
G75*
G02*
X136310000Y-86580000I0J-140000D01*
G01*
X136310000Y-86860000D01*
G75*
G02*
X136170000Y-87000000I-140000J0D01*
G01*
X135830000Y-87000000D01*
G75*
G02*
X135690000Y-86860000I0J140000D01*
G01*
X135690000Y-86580000D01*
G75*
G02*
X135830000Y-86440000I140000J0D01*
G01*
G37*
G36*
G01*
X135830000Y-87400000D02*
X136170000Y-87400000D01*
G75*
G02*
X136310000Y-87540000I0J-140000D01*
G01*
X136310000Y-87820000D01*
G75*
G02*
X136170000Y-87960000I-140000J0D01*
G01*
X135830000Y-87960000D01*
G75*
G02*
X135690000Y-87820000I0J140000D01*
G01*
X135690000Y-87540000D01*
G75*
G02*
X135830000Y-87400000I140000J0D01*
G01*
G37*
G04 #@! TD*
G04 #@! TO.C,FB1*
G36*
G01*
X158943750Y-77725000D02*
X159456250Y-77725000D01*
G75*
G02*
X159675000Y-77943750I0J-218750D01*
G01*
X159675000Y-78381250D01*
G75*
G02*
X159456250Y-78600000I-218750J0D01*
G01*
X158943750Y-78600000D01*
G75*
G02*
X158725000Y-78381250I0J218750D01*
G01*
X158725000Y-77943750D01*
G75*
G02*
X158943750Y-77725000I218750J0D01*
G01*
G37*
G36*
G01*
X158943750Y-79300000D02*
X159456250Y-79300000D01*
G75*
G02*
X159675000Y-79518750I0J-218750D01*
G01*
X159675000Y-79956250D01*
G75*
G02*
X159456250Y-80175000I-218750J0D01*
G01*
X158943750Y-80175000D01*
G75*
G02*
X158725000Y-79956250I0J218750D01*
G01*
X158725000Y-79518750D01*
G75*
G02*
X158943750Y-79300000I218750J0D01*
G01*
G37*
G04 #@! TD*
G04 #@! TO.C,C16*
G36*
G01*
X160260000Y-83230000D02*
X160260000Y-83570000D01*
G75*
G02*
X160120000Y-83710000I-140000J0D01*
G01*
X159840000Y-83710000D01*
G75*
G02*
X159700000Y-83570000I0J140000D01*
G01*
X159700000Y-83230000D01*
G75*
G02*
X159840000Y-83090000I140000J0D01*
G01*
X160120000Y-83090000D01*
G75*
G02*
X160260000Y-83230000I0J-140000D01*
G01*
G37*
G36*
G01*
X159300000Y-83230000D02*
X159300000Y-83570000D01*
G75*
G02*
X159160000Y-83710000I-140000J0D01*
G01*
X158880000Y-83710000D01*
G75*
G02*
X158740000Y-83570000I0J140000D01*
G01*
X158740000Y-83230000D01*
G75*
G02*
X158880000Y-83090000I140000J0D01*
G01*
X159160000Y-83090000D01*
G75*
G02*
X159300000Y-83230000I0J-140000D01*
G01*
G37*
G04 #@! TD*
G04 #@! TO.C,C72*
G36*
G01*
X155160000Y-118730000D02*
X155160000Y-119070000D01*
G75*
G02*
X155020000Y-119210000I-140000J0D01*
G01*
X154740000Y-119210000D01*
G75*
G02*
X154600000Y-119070000I0J140000D01*
G01*
X154600000Y-118730000D01*
G75*
G02*
X154740000Y-118590000I140000J0D01*
G01*
X155020000Y-118590000D01*
G75*
G02*
X155160000Y-118730000I0J-140000D01*
G01*
G37*
G36*
G01*
X154200000Y-118730000D02*
X154200000Y-119070000D01*
G75*
G02*
X154060000Y-119210000I-140000J0D01*
G01*
X153780000Y-119210000D01*
G75*
G02*
X153640000Y-119070000I0J140000D01*
G01*
X153640000Y-118730000D01*
G75*
G02*
X153780000Y-118590000I140000J0D01*
G01*
X154060000Y-118590000D01*
G75*
G02*
X154200000Y-118730000I0J-140000D01*
G01*
G37*
G04 #@! TD*
D23*
G04 #@! TO.C,J5*
X164870000Y-84050000D03*
D24*
X166395000Y-82575000D03*
X166395000Y-85525000D03*
G04 #@! TD*
G04 #@! TO.C,JP1*
G36*
X151450000Y-88150000D02*
G01*
X150950000Y-88150000D01*
X150950000Y-88145033D01*
X150870059Y-88143568D01*
X150734744Y-88101293D01*
X150616734Y-88022738D01*
X150525514Y-87914219D01*
X150468419Y-87784460D01*
X150450836Y-87650000D01*
X150450000Y-87650000D01*
X150450000Y-87150000D01*
X150450836Y-87150000D01*
X150450037Y-87143891D01*
X150471848Y-87003814D01*
X150532096Y-86875489D01*
X150625940Y-86769231D01*
X150745835Y-86693583D01*
X150882142Y-86654626D01*
X150950000Y-86655041D01*
X150950000Y-86650000D01*
X151450000Y-86650000D01*
X151450000Y-88150000D01*
G37*
G36*
X152250000Y-86655041D02*
G01*
X152323905Y-86655492D01*
X152459726Y-86696111D01*
X152578688Y-86773218D01*
X152671226Y-86880615D01*
X152729903Y-87009667D01*
X152750000Y-87150000D01*
X152750000Y-87650000D01*
X152749851Y-87662216D01*
X152726331Y-87802017D01*
X152664519Y-87929596D01*
X152569384Y-88034700D01*
X152448574Y-88108877D01*
X152311801Y-88146166D01*
X152250000Y-88145033D01*
X152250000Y-88150000D01*
X151750000Y-88150000D01*
X151750000Y-86650000D01*
X152250000Y-86650000D01*
X152250000Y-86655041D01*
G37*
G04 #@! TD*
G04 #@! TO.C,C63*
G36*
G01*
X155540000Y-92770000D02*
X155540000Y-92430000D01*
G75*
G02*
X155680000Y-92290000I140000J0D01*
G01*
X155960000Y-92290000D01*
G75*
G02*
X156100000Y-92430000I0J-140000D01*
G01*
X156100000Y-92770000D01*
G75*
G02*
X155960000Y-92910000I-140000J0D01*
G01*
X155680000Y-92910000D01*
G75*
G02*
X155540000Y-92770000I0J140000D01*
G01*
G37*
G36*
G01*
X156500000Y-92770000D02*
X156500000Y-92430000D01*
G75*
G02*
X156640000Y-92290000I140000J0D01*
G01*
X156920000Y-92290000D01*
G75*
G02*
X157060000Y-92430000I0J-140000D01*
G01*
X157060000Y-92770000D01*
G75*
G02*
X156920000Y-92910000I-140000J0D01*
G01*
X156640000Y-92910000D01*
G75*
G02*
X156500000Y-92770000I0J140000D01*
G01*
G37*
G04 #@! TD*
G04 #@! TO.C,C58*
G36*
G01*
X154170000Y-84660000D02*
X153830000Y-84660000D01*
G75*
G02*
X153690000Y-84520000I0J140000D01*
G01*
X153690000Y-84240000D01*
G75*
G02*
X153830000Y-84100000I140000J0D01*
G01*
X154170000Y-84100000D01*
G75*
G02*
X154310000Y-84240000I0J-140000D01*
G01*
X154310000Y-84520000D01*
G75*
G02*
X154170000Y-84660000I-140000J0D01*
G01*
G37*
G36*
G01*
X154170000Y-83700000D02*
X153830000Y-83700000D01*
G75*
G02*
X153690000Y-83560000I0J140000D01*
G01*
X153690000Y-83280000D01*
G75*
G02*
X153830000Y-83140000I140000J0D01*
G01*
X154170000Y-83140000D01*
G75*
G02*
X154310000Y-83280000I0J-140000D01*
G01*
X154310000Y-83560000D01*
G75*
G02*
X154170000Y-83700000I-140000J0D01*
G01*
G37*
G04 #@! TD*
G04 #@! TO.C,C14*
G36*
G01*
X128625000Y-89950000D02*
X128625000Y-90450000D01*
G75*
G02*
X128400000Y-90675000I-225000J0D01*
G01*
X127950000Y-90675000D01*
G75*
G02*
X127725000Y-90450000I0J225000D01*
G01*
X127725000Y-89950000D01*
G75*
G02*
X127950000Y-89725000I225000J0D01*
G01*
X128400000Y-89725000D01*
G75*
G02*
X128625000Y-89950000I0J-225000D01*
G01*
G37*
G36*
G01*
X127075000Y-89950000D02*
X127075000Y-90450000D01*
G75*
G02*
X126850000Y-90675000I-225000J0D01*
G01*
X126400000Y-90675000D01*
G75*
G02*
X126175000Y-90450000I0J225000D01*
G01*
X126175000Y-89950000D01*
G75*
G02*
X126400000Y-89725000I225000J0D01*
G01*
X126850000Y-89725000D01*
G75*
G02*
X127075000Y-89950000I0J-225000D01*
G01*
G37*
G04 #@! TD*
G04 #@! TO.C,C15*
G36*
G01*
X146450000Y-80575000D02*
X145950000Y-80575000D01*
G75*
G02*
X145725000Y-80350000I0J225000D01*
G01*
X145725000Y-79900000D01*
G75*
G02*
X145950000Y-79675000I225000J0D01*
G01*
X146450000Y-79675000D01*
G75*
G02*
X146675000Y-79900000I0J-225000D01*
G01*
X146675000Y-80350000D01*
G75*
G02*
X146450000Y-80575000I-225000J0D01*
G01*
G37*
G36*
G01*
X146450000Y-79025000D02*
X145950000Y-79025000D01*
G75*
G02*
X145725000Y-78800000I0J225000D01*
G01*
X145725000Y-78350000D01*
G75*
G02*
X145950000Y-78125000I225000J0D01*
G01*
X146450000Y-78125000D01*
G75*
G02*
X146675000Y-78350000I0J-225000D01*
G01*
X146675000Y-78800000D01*
G75*
G02*
X146450000Y-79025000I-225000J0D01*
G01*
G37*
G04 #@! TD*
G04 #@! TO.C,C29*
G36*
G01*
X155930000Y-110140000D02*
X156270000Y-110140000D01*
G75*
G02*
X156410000Y-110280000I0J-140000D01*
G01*
X156410000Y-110560000D01*
G75*
G02*
X156270000Y-110700000I-140000J0D01*
G01*
X155930000Y-110700000D01*
G75*
G02*
X155790000Y-110560000I0J140000D01*
G01*
X155790000Y-110280000D01*
G75*
G02*
X155930000Y-110140000I140000J0D01*
G01*
G37*
G36*
G01*
X155930000Y-111100000D02*
X156270000Y-111100000D01*
G75*
G02*
X156410000Y-111240000I0J-140000D01*
G01*
X156410000Y-111520000D01*
G75*
G02*
X156270000Y-111660000I-140000J0D01*
G01*
X155930000Y-111660000D01*
G75*
G02*
X155790000Y-111520000I0J140000D01*
G01*
X155790000Y-111240000D01*
G75*
G02*
X155930000Y-111100000I140000J0D01*
G01*
G37*
G04 #@! TD*
G04 #@! TO.C,C23*
G36*
G01*
X155830000Y-83140000D02*
X156170000Y-83140000D01*
G75*
G02*
X156310000Y-83280000I0J-140000D01*
G01*
X156310000Y-83560000D01*
G75*
G02*
X156170000Y-83700000I-140000J0D01*
G01*
X155830000Y-83700000D01*
G75*
G02*
X155690000Y-83560000I0J140000D01*
G01*
X155690000Y-83280000D01*
G75*
G02*
X155830000Y-83140000I140000J0D01*
G01*
G37*
G36*
G01*
X155830000Y-84100000D02*
X156170000Y-84100000D01*
G75*
G02*
X156310000Y-84240000I0J-140000D01*
G01*
X156310000Y-84520000D01*
G75*
G02*
X156170000Y-84660000I-140000J0D01*
G01*
X155830000Y-84660000D01*
G75*
G02*
X155690000Y-84520000I0J140000D01*
G01*
X155690000Y-84240000D01*
G75*
G02*
X155830000Y-84100000I140000J0D01*
G01*
G37*
G04 #@! TD*
D10*
G04 #@! TO.C,FL5*
X161950000Y-93290000D03*
X162450000Y-93290000D03*
X162450000Y-93770000D03*
X161950000Y-93770000D03*
G04 #@! TD*
M02*
