G04 #@! TF.GenerationSoftware,KiCad,Pcbnew,(6.0.9)*
G04 #@! TF.CreationDate,2024-05-21T19:31:49-07:00*
G04 #@! TF.ProjectId,IMX294_MIPI_Breakout_Small,494d5832-3934-45f4-9d49-50495f427265,rev?*
G04 #@! TF.SameCoordinates,Original*
G04 #@! TF.FileFunction,Legend,Top*
G04 #@! TF.FilePolarity,Positive*
%FSLAX46Y46*%
G04 Gerber Fmt 4.6, Leading zero omitted, Abs format (unit mm)*
G04 Created by KiCad (PCBNEW (6.0.9)) date 2024-05-21 19:31:49*
%MOMM*%
%LPD*%
G01*
G04 APERTURE LIST*
%ADD10C,0.150000*%
%ADD11C,0.200000*%
%ADD12C,0.175000*%
%ADD13C,0.100000*%
%ADD14C,0.120000*%
%ADD15C,0.152400*%
G04 APERTURE END LIST*
D10*
X156050000Y-113947619D02*
X156050000Y-113709523D01*
X156288095Y-113804761D02*
X156050000Y-113709523D01*
X155811904Y-113804761D01*
X156192857Y-113519047D02*
X156050000Y-113709523D01*
X155907142Y-113519047D01*
D11*
X144691666Y-114252380D02*
X145358333Y-115252380D01*
X145358333Y-114252380D02*
X144691666Y-115252380D01*
X145739285Y-115252380D02*
X145739285Y-114252380D01*
X145739285Y-114728571D02*
X146310714Y-114728571D01*
X146310714Y-115252380D02*
X146310714Y-114252380D01*
X146739285Y-115204761D02*
X146882142Y-115252380D01*
X147120238Y-115252380D01*
X147215476Y-115204761D01*
X147263095Y-115157142D01*
X147310714Y-115061904D01*
X147310714Y-114966666D01*
X147263095Y-114871428D01*
X147215476Y-114823809D01*
X147120238Y-114776190D01*
X146929761Y-114728571D01*
X146834523Y-114680952D01*
X146786904Y-114633333D01*
X146739285Y-114538095D01*
X146739285Y-114442857D01*
X146786904Y-114347619D01*
X146834523Y-114300000D01*
X146929761Y-114252380D01*
X147167857Y-114252380D01*
X147310714Y-114300000D01*
D12*
X123338095Y-95552380D02*
X123300000Y-95514285D01*
X123261904Y-95438095D01*
X123261904Y-95247619D01*
X123300000Y-95171428D01*
X123338095Y-95133333D01*
X123414285Y-95095238D01*
X123490476Y-95095238D01*
X123604761Y-95133333D01*
X124061904Y-95590476D01*
X124061904Y-95095238D01*
X123261904Y-94866666D02*
X124061904Y-94600000D01*
X123261904Y-94333333D01*
X124061904Y-94028571D02*
X124061904Y-93876190D01*
X124023809Y-93800000D01*
X123985714Y-93761904D01*
X123871428Y-93685714D01*
X123719047Y-93647619D01*
X123414285Y-93647619D01*
X123338095Y-93685714D01*
X123300000Y-93723809D01*
X123261904Y-93800000D01*
X123261904Y-93952380D01*
X123300000Y-94028571D01*
X123338095Y-94066666D01*
X123414285Y-94104761D01*
X123604761Y-94104761D01*
X123680952Y-94066666D01*
X123719047Y-94028571D01*
X123757142Y-93952380D01*
X123757142Y-93800000D01*
X123719047Y-93723809D01*
X123680952Y-93685714D01*
X123604761Y-93647619D01*
D11*
X123613571Y-112220476D02*
X123613571Y-112553809D01*
X124137380Y-112553809D02*
X123137380Y-112553809D01*
X123137380Y-112077619D01*
X124137380Y-111553809D02*
X124089761Y-111649047D01*
X124042142Y-111696666D01*
X123946904Y-111744285D01*
X123661190Y-111744285D01*
X123565952Y-111696666D01*
X123518333Y-111649047D01*
X123470714Y-111553809D01*
X123470714Y-111410952D01*
X123518333Y-111315714D01*
X123565952Y-111268095D01*
X123661190Y-111220476D01*
X123946904Y-111220476D01*
X124042142Y-111268095D01*
X124089761Y-111315714D01*
X124137380Y-111410952D01*
X124137380Y-111553809D01*
X123470714Y-110363333D02*
X124137380Y-110363333D01*
X123470714Y-110791904D02*
X123994523Y-110791904D01*
X124089761Y-110744285D01*
X124137380Y-110649047D01*
X124137380Y-110506190D01*
X124089761Y-110410952D01*
X124042142Y-110363333D01*
X124137380Y-109887142D02*
X123470714Y-109887142D01*
X123661190Y-109887142D02*
X123565952Y-109839523D01*
X123518333Y-109791904D01*
X123470714Y-109696666D01*
X123470714Y-109601428D01*
X123137380Y-109410952D02*
X123137380Y-108839523D01*
X124137380Y-109125238D02*
X123137380Y-109125238D01*
X124137380Y-108506190D02*
X123137380Y-108506190D01*
X124137380Y-108077619D02*
X123613571Y-108077619D01*
X123518333Y-108125238D01*
X123470714Y-108220476D01*
X123470714Y-108363333D01*
X123518333Y-108458571D01*
X123565952Y-108506190D01*
X124137380Y-107601428D02*
X123470714Y-107601428D01*
X123137380Y-107601428D02*
X123185000Y-107649047D01*
X123232619Y-107601428D01*
X123185000Y-107553809D01*
X123137380Y-107601428D01*
X123232619Y-107601428D01*
X124137380Y-107125238D02*
X123470714Y-107125238D01*
X123661190Y-107125238D02*
X123565952Y-107077619D01*
X123518333Y-107030000D01*
X123470714Y-106934761D01*
X123470714Y-106839523D01*
X124137380Y-106077619D02*
X123137380Y-106077619D01*
X124089761Y-106077619D02*
X124137380Y-106172857D01*
X124137380Y-106363333D01*
X124089761Y-106458571D01*
X124042142Y-106506190D01*
X123946904Y-106553809D01*
X123661190Y-106553809D01*
X123565952Y-106506190D01*
X123518333Y-106458571D01*
X123470714Y-106363333D01*
X123470714Y-106172857D01*
X123518333Y-106077619D01*
X124089761Y-105649047D02*
X124137380Y-105553809D01*
X124137380Y-105363333D01*
X124089761Y-105268095D01*
X123994523Y-105220476D01*
X123946904Y-105220476D01*
X123851666Y-105268095D01*
X123804047Y-105363333D01*
X123804047Y-105506190D01*
X123756428Y-105601428D01*
X123661190Y-105649047D01*
X123613571Y-105649047D01*
X123518333Y-105601428D01*
X123470714Y-105506190D01*
X123470714Y-105363333D01*
X123518333Y-105268095D01*
X123613571Y-104791904D02*
X123613571Y-104458571D01*
X124137380Y-104315714D02*
X124137380Y-104791904D01*
X123137380Y-104791904D01*
X123137380Y-104315714D01*
X123470714Y-103982380D02*
X124137380Y-103744285D01*
X123470714Y-103506190D02*
X124137380Y-103744285D01*
X124375476Y-103839523D01*
X124423095Y-103887142D01*
X124470714Y-103982380D01*
X124089761Y-102744285D02*
X124137380Y-102839523D01*
X124137380Y-103030000D01*
X124089761Y-103125238D01*
X123994523Y-103172857D01*
X123613571Y-103172857D01*
X123518333Y-103125238D01*
X123470714Y-103030000D01*
X123470714Y-102839523D01*
X123518333Y-102744285D01*
X123613571Y-102696666D01*
X123708809Y-102696666D01*
X123804047Y-103172857D01*
X123470714Y-101601428D02*
X124137380Y-101363333D01*
X123470714Y-101125238D01*
X123232619Y-100791904D02*
X123185000Y-100744285D01*
X123137380Y-100649047D01*
X123137380Y-100410952D01*
X123185000Y-100315714D01*
X123232619Y-100268095D01*
X123327857Y-100220476D01*
X123423095Y-100220476D01*
X123565952Y-100268095D01*
X124137380Y-100839523D01*
X124137380Y-100220476D01*
X125747380Y-108934761D02*
X124747380Y-108934761D01*
X124747380Y-108696666D01*
X124795000Y-108553809D01*
X124890238Y-108458571D01*
X124985476Y-108410952D01*
X125175952Y-108363333D01*
X125318809Y-108363333D01*
X125509285Y-108410952D01*
X125604523Y-108458571D01*
X125699761Y-108553809D01*
X125747380Y-108696666D01*
X125747380Y-108934761D01*
X125699761Y-107553809D02*
X125747380Y-107649047D01*
X125747380Y-107839523D01*
X125699761Y-107934761D01*
X125604523Y-107982380D01*
X125223571Y-107982380D01*
X125128333Y-107934761D01*
X125080714Y-107839523D01*
X125080714Y-107649047D01*
X125128333Y-107553809D01*
X125223571Y-107506190D01*
X125318809Y-107506190D01*
X125414047Y-107982380D01*
X125699761Y-107125238D02*
X125747380Y-107029999D01*
X125747380Y-106839523D01*
X125699761Y-106744285D01*
X125604523Y-106696666D01*
X125556904Y-106696666D01*
X125461666Y-106744285D01*
X125414047Y-106839523D01*
X125414047Y-106982380D01*
X125366428Y-107077619D01*
X125271190Y-107125238D01*
X125223571Y-107125238D01*
X125128333Y-107077619D01*
X125080714Y-106982380D01*
X125080714Y-106839523D01*
X125128333Y-106744285D01*
X125747380Y-106268095D02*
X125080714Y-106268095D01*
X124747380Y-106268095D02*
X124795000Y-106315714D01*
X124842619Y-106268095D01*
X124795000Y-106220476D01*
X124747380Y-106268095D01*
X124842619Y-106268095D01*
X125080714Y-105363333D02*
X125890238Y-105363333D01*
X125985476Y-105410952D01*
X126033095Y-105458571D01*
X126080714Y-105553809D01*
X126080714Y-105696666D01*
X126033095Y-105791904D01*
X125699761Y-105363333D02*
X125747380Y-105458571D01*
X125747380Y-105649047D01*
X125699761Y-105744285D01*
X125652142Y-105791904D01*
X125556904Y-105839523D01*
X125271190Y-105839523D01*
X125175952Y-105791904D01*
X125128333Y-105744285D01*
X125080714Y-105649047D01*
X125080714Y-105458571D01*
X125128333Y-105363333D01*
X125080714Y-104887142D02*
X125747380Y-104887142D01*
X125175952Y-104887142D02*
X125128333Y-104839523D01*
X125080714Y-104744285D01*
X125080714Y-104601428D01*
X125128333Y-104506190D01*
X125223571Y-104458571D01*
X125747380Y-104458571D01*
X125699761Y-103601428D02*
X125747380Y-103696666D01*
X125747380Y-103887142D01*
X125699761Y-103982380D01*
X125604523Y-104029999D01*
X125223571Y-104029999D01*
X125128333Y-103982380D01*
X125080714Y-103887142D01*
X125080714Y-103696666D01*
X125128333Y-103601428D01*
X125223571Y-103553809D01*
X125318809Y-103553809D01*
X125414047Y-104029999D01*
X125747380Y-102696666D02*
X124747380Y-102696666D01*
X125699761Y-102696666D02*
X125747380Y-102791904D01*
X125747380Y-102982380D01*
X125699761Y-103077619D01*
X125652142Y-103125238D01*
X125556904Y-103172857D01*
X125271190Y-103172857D01*
X125175952Y-103125238D01*
X125128333Y-103077619D01*
X125080714Y-102982380D01*
X125080714Y-102791904D01*
X125128333Y-102696666D01*
X125747380Y-101458571D02*
X124747380Y-101458571D01*
X125128333Y-101458571D02*
X125080714Y-101363333D01*
X125080714Y-101172857D01*
X125128333Y-101077619D01*
X125175952Y-101029999D01*
X125271190Y-100982380D01*
X125556904Y-100982380D01*
X125652142Y-101029999D01*
X125699761Y-101077619D01*
X125747380Y-101172857D01*
X125747380Y-101363333D01*
X125699761Y-101458571D01*
X125080714Y-100649047D02*
X125747380Y-100410952D01*
X125080714Y-100172857D02*
X125747380Y-100410952D01*
X125985476Y-100506190D01*
X126033095Y-100553809D01*
X126080714Y-100649047D01*
X126357380Y-108077619D02*
X127357380Y-107839523D01*
X126643095Y-107649047D01*
X127357380Y-107458571D01*
X126357380Y-107220476D01*
X127357380Y-106839523D02*
X126690714Y-106839523D01*
X126357380Y-106839523D02*
X126405000Y-106887142D01*
X126452619Y-106839523D01*
X126405000Y-106791904D01*
X126357380Y-106839523D01*
X126452619Y-106839523D01*
X127357380Y-106220476D02*
X127309761Y-106315714D01*
X127214523Y-106363333D01*
X126357380Y-106363333D01*
X127357380Y-105696666D02*
X127309761Y-105791904D01*
X127214523Y-105839523D01*
X126357380Y-105839523D01*
X126357380Y-104649047D02*
X127357380Y-104410952D01*
X126643095Y-104220476D01*
X127357380Y-104030000D01*
X126357380Y-103791904D01*
X127357380Y-103410952D02*
X126357380Y-103410952D01*
X127357380Y-102982380D02*
X126833571Y-102982380D01*
X126738333Y-103030000D01*
X126690714Y-103125238D01*
X126690714Y-103268095D01*
X126738333Y-103363333D01*
X126785952Y-103410952D01*
X127357380Y-102077619D02*
X126833571Y-102077619D01*
X126738333Y-102125238D01*
X126690714Y-102220476D01*
X126690714Y-102410952D01*
X126738333Y-102506190D01*
X127309761Y-102077619D02*
X127357380Y-102172857D01*
X127357380Y-102410952D01*
X127309761Y-102506190D01*
X127214523Y-102553809D01*
X127119285Y-102553809D01*
X127024047Y-102506190D01*
X126976428Y-102410952D01*
X126976428Y-102172857D01*
X126928809Y-102077619D01*
X126690714Y-101601428D02*
X127357380Y-101601428D01*
X126785952Y-101601428D02*
X126738333Y-101553809D01*
X126690714Y-101458571D01*
X126690714Y-101315714D01*
X126738333Y-101220476D01*
X126833571Y-101172857D01*
X127357380Y-101172857D01*
X126690714Y-100268095D02*
X127500238Y-100268095D01*
X127595476Y-100315714D01*
X127643095Y-100363333D01*
X127690714Y-100458571D01*
X127690714Y-100601428D01*
X127643095Y-100696666D01*
X127309761Y-100268095D02*
X127357380Y-100363333D01*
X127357380Y-100553809D01*
X127309761Y-100649047D01*
X127262142Y-100696666D01*
X127166904Y-100744285D01*
X126881190Y-100744285D01*
X126785952Y-100696666D01*
X126738333Y-100649047D01*
X126690714Y-100553809D01*
X126690714Y-100363333D01*
X126738333Y-100268095D01*
X128062619Y-109553809D02*
X128015000Y-109506190D01*
X127967380Y-109410952D01*
X127967380Y-109172857D01*
X128015000Y-109077619D01*
X128062619Y-109030000D01*
X128157857Y-108982380D01*
X128253095Y-108982380D01*
X128395952Y-109030000D01*
X128967380Y-109601428D01*
X128967380Y-108982380D01*
X127967380Y-108363333D02*
X127967380Y-108268095D01*
X128015000Y-108172857D01*
X128062619Y-108125238D01*
X128157857Y-108077619D01*
X128348333Y-108030000D01*
X128586428Y-108030000D01*
X128776904Y-108077619D01*
X128872142Y-108125238D01*
X128919761Y-108172857D01*
X128967380Y-108268095D01*
X128967380Y-108363333D01*
X128919761Y-108458571D01*
X128872142Y-108506190D01*
X128776904Y-108553809D01*
X128586428Y-108601428D01*
X128348333Y-108601428D01*
X128157857Y-108553809D01*
X128062619Y-108506190D01*
X128015000Y-108458571D01*
X127967380Y-108363333D01*
X128062619Y-107649047D02*
X128015000Y-107601428D01*
X127967380Y-107506190D01*
X127967380Y-107268095D01*
X128015000Y-107172857D01*
X128062619Y-107125238D01*
X128157857Y-107077619D01*
X128253095Y-107077619D01*
X128395952Y-107125238D01*
X128967380Y-107696666D01*
X128967380Y-107077619D01*
X128300714Y-106220476D02*
X128967380Y-106220476D01*
X127919761Y-106458571D02*
X128634047Y-106696666D01*
X128634047Y-106077619D01*
X127919761Y-104982380D02*
X129205476Y-105839523D01*
X127967380Y-104458571D02*
X127967380Y-104363333D01*
X128015000Y-104268095D01*
X128062619Y-104220476D01*
X128157857Y-104172857D01*
X128348333Y-104125238D01*
X128586428Y-104125238D01*
X128776904Y-104172857D01*
X128872142Y-104220476D01*
X128919761Y-104268095D01*
X128967380Y-104363333D01*
X128967380Y-104458571D01*
X128919761Y-104553809D01*
X128872142Y-104601428D01*
X128776904Y-104649047D01*
X128586428Y-104696666D01*
X128348333Y-104696666D01*
X128157857Y-104649047D01*
X128062619Y-104601428D01*
X128015000Y-104553809D01*
X127967380Y-104458571D01*
X127967380Y-103220476D02*
X127967380Y-103696666D01*
X128443571Y-103744285D01*
X128395952Y-103696666D01*
X128348333Y-103601428D01*
X128348333Y-103363333D01*
X128395952Y-103268095D01*
X128443571Y-103220476D01*
X128538809Y-103172857D01*
X128776904Y-103172857D01*
X128872142Y-103220476D01*
X128919761Y-103268095D01*
X128967380Y-103363333D01*
X128967380Y-103601428D01*
X128919761Y-103696666D01*
X128872142Y-103744285D01*
X127919761Y-102030000D02*
X129205476Y-102887142D01*
X128967380Y-101172857D02*
X128967380Y-101744285D01*
X128967380Y-101458571D02*
X127967380Y-101458571D01*
X128110238Y-101553809D01*
X128205476Y-101649047D01*
X128253095Y-101744285D01*
X128395952Y-100601428D02*
X128348333Y-100696666D01*
X128300714Y-100744285D01*
X128205476Y-100791904D01*
X128157857Y-100791904D01*
X128062619Y-100744285D01*
X128015000Y-100696666D01*
X127967380Y-100601428D01*
X127967380Y-100410952D01*
X128015000Y-100315714D01*
X128062619Y-100268095D01*
X128157857Y-100220476D01*
X128205476Y-100220476D01*
X128300714Y-100268095D01*
X128348333Y-100315714D01*
X128395952Y-100410952D01*
X128395952Y-100601428D01*
X128443571Y-100696666D01*
X128491190Y-100744285D01*
X128586428Y-100791904D01*
X128776904Y-100791904D01*
X128872142Y-100744285D01*
X128919761Y-100696666D01*
X128967380Y-100601428D01*
X128967380Y-100410952D01*
X128919761Y-100315714D01*
X128872142Y-100268095D01*
X128776904Y-100220476D01*
X128586428Y-100220476D01*
X128491190Y-100268095D01*
X128443571Y-100315714D01*
X128395952Y-100410952D01*
D12*
X146539666Y-88347083D02*
X147039666Y-88347083D01*
X147139666Y-88380416D01*
X147206333Y-88447083D01*
X147239666Y-88547083D01*
X147239666Y-88613750D01*
X147239666Y-88013750D02*
X146539666Y-88013750D01*
X146539666Y-87747083D01*
X146573000Y-87680416D01*
X146606333Y-87647083D01*
X146673000Y-87613750D01*
X146773000Y-87613750D01*
X146839666Y-87647083D01*
X146873000Y-87680416D01*
X146906333Y-87747083D01*
X146906333Y-88013750D01*
X147239666Y-86947083D02*
X147239666Y-87347083D01*
X147239666Y-87147083D02*
X146539666Y-87147083D01*
X146639666Y-87213750D01*
X146706333Y-87280416D01*
X146739666Y-87347083D01*
X147239666Y-86113750D02*
X146539666Y-86113750D01*
X146606333Y-85813750D02*
X146573000Y-85780416D01*
X146539666Y-85713750D01*
X146539666Y-85547083D01*
X146573000Y-85480416D01*
X146606333Y-85447083D01*
X146673000Y-85413750D01*
X146739666Y-85413750D01*
X146839666Y-85447083D01*
X147239666Y-85847083D01*
X147239666Y-85413750D01*
X147173000Y-84713750D02*
X147206333Y-84747083D01*
X147239666Y-84847083D01*
X147239666Y-84913750D01*
X147206333Y-85013750D01*
X147139666Y-85080416D01*
X147073000Y-85113750D01*
X146939666Y-85147083D01*
X146839666Y-85147083D01*
X146706333Y-85113750D01*
X146639666Y-85080416D01*
X146573000Y-85013750D01*
X146539666Y-84913750D01*
X146539666Y-84847083D01*
X146573000Y-84747083D01*
X146606333Y-84713750D01*
X147039666Y-83913750D02*
X147039666Y-83580416D01*
X147239666Y-83980416D02*
X146539666Y-83747083D01*
X147239666Y-83513750D01*
X147239666Y-83280416D02*
X146539666Y-83280416D01*
X146539666Y-83113750D01*
X146573000Y-83013750D01*
X146639666Y-82947083D01*
X146706333Y-82913750D01*
X146839666Y-82880416D01*
X146939666Y-82880416D01*
X147073000Y-82913750D01*
X147139666Y-82947083D01*
X147206333Y-83013750D01*
X147239666Y-83113750D01*
X147239666Y-83280416D01*
X147239666Y-82580416D02*
X146539666Y-82580416D01*
X146539666Y-82413750D01*
X146573000Y-82313750D01*
X146639666Y-82247083D01*
X146706333Y-82213750D01*
X146839666Y-82180416D01*
X146939666Y-82180416D01*
X147073000Y-82213750D01*
X147139666Y-82247083D01*
X147206333Y-82313750D01*
X147239666Y-82413750D01*
X147239666Y-82580416D01*
X147239666Y-81480416D02*
X146906333Y-81713750D01*
X147239666Y-81880416D02*
X146539666Y-81880416D01*
X146539666Y-81613750D01*
X146573000Y-81547083D01*
X146606333Y-81513750D01*
X146673000Y-81480416D01*
X146773000Y-81480416D01*
X146839666Y-81513750D01*
X146873000Y-81547083D01*
X146906333Y-81613750D01*
X146906333Y-81880416D01*
X147173000Y-81180416D02*
X147206333Y-81147083D01*
X147239666Y-81180416D01*
X147206333Y-81213750D01*
X147173000Y-81180416D01*
X147239666Y-81180416D01*
X146806333Y-81180416D02*
X146839666Y-81147083D01*
X146873000Y-81180416D01*
X146839666Y-81213750D01*
X146806333Y-81180416D01*
X146873000Y-81180416D01*
X148366666Y-87613750D02*
X147666666Y-87613750D01*
X147666666Y-87447083D01*
X147700000Y-87347083D01*
X147766666Y-87280416D01*
X147833333Y-87247083D01*
X147966666Y-87213750D01*
X148066666Y-87213750D01*
X148200000Y-87247083D01*
X148266666Y-87280416D01*
X148333333Y-87347083D01*
X148366666Y-87447083D01*
X148366666Y-87613750D01*
X148333333Y-86647083D02*
X148366666Y-86713750D01*
X148366666Y-86847083D01*
X148333333Y-86913750D01*
X148266666Y-86947083D01*
X148000000Y-86947083D01*
X147933333Y-86913750D01*
X147900000Y-86847083D01*
X147900000Y-86713750D01*
X147933333Y-86647083D01*
X148000000Y-86613750D01*
X148066666Y-86613750D01*
X148133333Y-86947083D01*
X147900000Y-86413750D02*
X147900000Y-86147083D01*
X148366666Y-86313750D02*
X147766666Y-86313750D01*
X147700000Y-86280416D01*
X147666666Y-86213750D01*
X147666666Y-86147083D01*
X148366666Y-85613750D02*
X148000000Y-85613750D01*
X147933333Y-85647083D01*
X147900000Y-85713750D01*
X147900000Y-85847083D01*
X147933333Y-85913750D01*
X148333333Y-85613750D02*
X148366666Y-85680416D01*
X148366666Y-85847083D01*
X148333333Y-85913750D01*
X148266666Y-85947083D01*
X148200000Y-85947083D01*
X148133333Y-85913750D01*
X148100000Y-85847083D01*
X148100000Y-85680416D01*
X148066666Y-85613750D01*
X147900000Y-84980416D02*
X148366666Y-84980416D01*
X147900000Y-85280416D02*
X148266666Y-85280416D01*
X148333333Y-85247083D01*
X148366666Y-85180416D01*
X148366666Y-85080416D01*
X148333333Y-85013750D01*
X148300000Y-84980416D01*
X148366666Y-84547083D02*
X148333333Y-84613750D01*
X148266666Y-84647083D01*
X147666666Y-84647083D01*
X147900000Y-84380416D02*
X147900000Y-84113750D01*
X147666666Y-84280416D02*
X148266666Y-84280416D01*
X148333333Y-84247083D01*
X148366666Y-84180416D01*
X148366666Y-84113750D01*
X147666666Y-83213750D02*
X147666666Y-83147083D01*
X147700000Y-83080416D01*
X147733333Y-83047083D01*
X147800000Y-83013750D01*
X147933333Y-82980416D01*
X148100000Y-82980416D01*
X148233333Y-83013750D01*
X148300000Y-83047083D01*
X148333333Y-83080416D01*
X148366666Y-83147083D01*
X148366666Y-83213750D01*
X148333333Y-83280416D01*
X148300000Y-83313750D01*
X148233333Y-83347083D01*
X148100000Y-83380416D01*
X147933333Y-83380416D01*
X147800000Y-83347083D01*
X147733333Y-83313750D01*
X147700000Y-83280416D01*
X147666666Y-83213750D01*
X148366666Y-82747083D02*
X147900000Y-82380416D01*
X147900000Y-82747083D02*
X148366666Y-82380416D01*
X148366666Y-81747083D02*
X148366666Y-82147083D01*
X148366666Y-81947083D02*
X147666666Y-81947083D01*
X147766666Y-82013750D01*
X147833333Y-82080416D01*
X147866666Y-82147083D01*
X148166666Y-81480416D02*
X148166666Y-81147083D01*
X148366666Y-81547083D02*
X147666666Y-81313750D01*
X148366666Y-81080416D01*
X149460333Y-88313750D02*
X149493666Y-88213750D01*
X149493666Y-88047083D01*
X149460333Y-87980416D01*
X149427000Y-87947083D01*
X149360333Y-87913750D01*
X149293666Y-87913750D01*
X149227000Y-87947083D01*
X149193666Y-87980416D01*
X149160333Y-88047083D01*
X149127000Y-88180416D01*
X149093666Y-88247083D01*
X149060333Y-88280416D01*
X148993666Y-88313750D01*
X148927000Y-88313750D01*
X148860333Y-88280416D01*
X148827000Y-88247083D01*
X148793666Y-88180416D01*
X148793666Y-88013750D01*
X148827000Y-87913750D01*
X149493666Y-87613750D02*
X148793666Y-87613750D01*
X149493666Y-87313750D02*
X149127000Y-87313750D01*
X149060333Y-87347083D01*
X149027000Y-87413750D01*
X149027000Y-87513750D01*
X149060333Y-87580416D01*
X149093666Y-87613750D01*
X149493666Y-86880416D02*
X149460333Y-86947083D01*
X149427000Y-86980416D01*
X149360333Y-87013750D01*
X149160333Y-87013750D01*
X149093666Y-86980416D01*
X149060333Y-86947083D01*
X149027000Y-86880416D01*
X149027000Y-86780416D01*
X149060333Y-86713750D01*
X149093666Y-86680416D01*
X149160333Y-86647083D01*
X149360333Y-86647083D01*
X149427000Y-86680416D01*
X149460333Y-86713750D01*
X149493666Y-86780416D01*
X149493666Y-86880416D01*
X149493666Y-86347083D02*
X149027000Y-86347083D01*
X149160333Y-86347083D02*
X149093666Y-86313750D01*
X149060333Y-86280416D01*
X149027000Y-86213750D01*
X149027000Y-86147083D01*
X149027000Y-86013750D02*
X149027000Y-85747083D01*
X148793666Y-85913750D02*
X149393666Y-85913750D01*
X149460333Y-85880416D01*
X149493666Y-85813750D01*
X149493666Y-85747083D01*
X149460333Y-85247083D02*
X149493666Y-85313750D01*
X149493666Y-85447083D01*
X149460333Y-85513750D01*
X149393666Y-85547083D01*
X149127000Y-85547083D01*
X149060333Y-85513750D01*
X149027000Y-85447083D01*
X149027000Y-85313750D01*
X149060333Y-85247083D01*
X149127000Y-85213750D01*
X149193666Y-85213750D01*
X149260333Y-85547083D01*
X149493666Y-84613750D02*
X148793666Y-84613750D01*
X149460333Y-84613750D02*
X149493666Y-84680416D01*
X149493666Y-84813750D01*
X149460333Y-84880416D01*
X149427000Y-84913750D01*
X149360333Y-84947083D01*
X149160333Y-84947083D01*
X149093666Y-84913750D01*
X149060333Y-84880416D01*
X149027000Y-84813750D01*
X149027000Y-84680416D01*
X149060333Y-84613750D01*
X149427000Y-84280416D02*
X149460333Y-84247083D01*
X149493666Y-84280416D01*
X149460333Y-84313750D01*
X149427000Y-84280416D01*
X149493666Y-84280416D01*
X149060333Y-84280416D02*
X149093666Y-84247083D01*
X149127000Y-84280416D01*
X149093666Y-84313750D01*
X149060333Y-84280416D01*
X149127000Y-84280416D01*
X148793666Y-83280416D02*
X148793666Y-83213750D01*
X148827000Y-83147083D01*
X148860333Y-83113750D01*
X148927000Y-83080416D01*
X149060333Y-83047083D01*
X149227000Y-83047083D01*
X149360333Y-83080416D01*
X149427000Y-83113750D01*
X149460333Y-83147083D01*
X149493666Y-83213750D01*
X149493666Y-83280416D01*
X149460333Y-83347083D01*
X149427000Y-83380416D01*
X149360333Y-83413750D01*
X149227000Y-83447083D01*
X149060333Y-83447083D01*
X148927000Y-83413750D01*
X148860333Y-83380416D01*
X148827000Y-83347083D01*
X148793666Y-83280416D01*
X149493666Y-82813750D02*
X149027000Y-82447083D01*
X149027000Y-82813750D02*
X149493666Y-82447083D01*
X149493666Y-81813750D02*
X149493666Y-82213750D01*
X149493666Y-82013750D02*
X148793666Y-82013750D01*
X148893666Y-82080416D01*
X148960333Y-82147083D01*
X148993666Y-82213750D01*
X148793666Y-81380416D02*
X148793666Y-81313750D01*
X148827000Y-81247083D01*
X148860333Y-81213750D01*
X148927000Y-81180416D01*
X149060333Y-81147083D01*
X149227000Y-81147083D01*
X149360333Y-81180416D01*
X149427000Y-81213750D01*
X149460333Y-81247083D01*
X149493666Y-81313750D01*
X149493666Y-81380416D01*
X149460333Y-81447083D01*
X149427000Y-81480416D01*
X149360333Y-81513750D01*
X149227000Y-81547083D01*
X149060333Y-81547083D01*
X148927000Y-81513750D01*
X148860333Y-81480416D01*
X148827000Y-81447083D01*
X148793666Y-81380416D01*
D10*
X157300000Y-84947619D02*
X157300000Y-84709523D01*
X157538095Y-84804761D02*
X157300000Y-84709523D01*
X157061904Y-84804761D01*
X157442857Y-84519047D02*
X157300000Y-84709523D01*
X157157142Y-84519047D01*
D12*
X136404761Y-79561904D02*
X135947619Y-79561904D01*
X136176190Y-79561904D02*
X136176190Y-78761904D01*
X136100000Y-78876190D01*
X136023809Y-78952380D01*
X135947619Y-78990476D01*
X136633333Y-78761904D02*
X136900000Y-79561904D01*
X137166666Y-78761904D01*
X137395238Y-78838095D02*
X137433333Y-78800000D01*
X137509523Y-78761904D01*
X137700000Y-78761904D01*
X137776190Y-78800000D01*
X137814285Y-78838095D01*
X137852380Y-78914285D01*
X137852380Y-78990476D01*
X137814285Y-79104761D01*
X137357142Y-79561904D01*
X137852380Y-79561904D01*
D10*
X127800000Y-95447619D02*
X127800000Y-95209523D01*
X128038095Y-95304761D02*
X127800000Y-95209523D01*
X127561904Y-95304761D01*
X127942857Y-95019047D02*
X127800000Y-95209523D01*
X127657142Y-95019047D01*
D11*
X163397619Y-109616666D02*
X163350000Y-109711904D01*
X163254761Y-109807142D01*
X163111904Y-109950000D01*
X163064285Y-110045238D01*
X163064285Y-110140476D01*
X163302380Y-110092857D02*
X163254761Y-110188095D01*
X163159523Y-110283333D01*
X162969047Y-110330952D01*
X162635714Y-110330952D01*
X162445238Y-110283333D01*
X162350000Y-110188095D01*
X162302380Y-110092857D01*
X162302380Y-109902380D01*
X162350000Y-109807142D01*
X162445238Y-109711904D01*
X162635714Y-109664285D01*
X162969047Y-109664285D01*
X163159523Y-109711904D01*
X163254761Y-109807142D01*
X163302380Y-109902380D01*
X163302380Y-110092857D01*
X162302380Y-109330952D02*
X163302380Y-109092857D01*
X162588095Y-108902380D01*
X163302380Y-108711904D01*
X162302380Y-108473809D01*
X163302380Y-108092857D02*
X162302380Y-108092857D01*
X163302380Y-107616666D02*
X162302380Y-107616666D01*
X163207142Y-106569047D02*
X163254761Y-106616666D01*
X163302380Y-106759523D01*
X163302380Y-106854761D01*
X163254761Y-106997619D01*
X163159523Y-107092857D01*
X163064285Y-107140476D01*
X162873809Y-107188095D01*
X162730952Y-107188095D01*
X162540476Y-107140476D01*
X162445238Y-107092857D01*
X162350000Y-106997619D01*
X162302380Y-106854761D01*
X162302380Y-106759523D01*
X162350000Y-106616666D01*
X162397619Y-106569047D01*
D12*
X151404761Y-82911904D02*
X150947619Y-82911904D01*
X151176190Y-82911904D02*
X151176190Y-82111904D01*
X151100000Y-82226190D01*
X151023809Y-82302380D01*
X150947619Y-82340476D01*
X151633333Y-82111904D02*
X151900000Y-82911904D01*
X152166666Y-82111904D01*
X152547619Y-82454761D02*
X152471428Y-82416666D01*
X152433333Y-82378571D01*
X152395238Y-82302380D01*
X152395238Y-82264285D01*
X152433333Y-82188095D01*
X152471428Y-82150000D01*
X152547619Y-82111904D01*
X152700000Y-82111904D01*
X152776190Y-82150000D01*
X152814285Y-82188095D01*
X152852380Y-82264285D01*
X152852380Y-82302380D01*
X152814285Y-82378571D01*
X152776190Y-82416666D01*
X152700000Y-82454761D01*
X152547619Y-82454761D01*
X152471428Y-82492857D01*
X152433333Y-82530952D01*
X152395238Y-82607142D01*
X152395238Y-82759523D01*
X152433333Y-82835714D01*
X152471428Y-82873809D01*
X152547619Y-82911904D01*
X152700000Y-82911904D01*
X152776190Y-82873809D01*
X152814285Y-82835714D01*
X152852380Y-82759523D01*
X152852380Y-82607142D01*
X152814285Y-82530952D01*
X152776190Y-82492857D01*
X152700000Y-82454761D01*
D11*
X164107142Y-84545238D02*
X164154761Y-84592857D01*
X164202380Y-84735714D01*
X164202380Y-84830952D01*
X164154761Y-84973809D01*
X164059523Y-85069047D01*
X163964285Y-85116666D01*
X163773809Y-85164285D01*
X163630952Y-85164285D01*
X163440476Y-85116666D01*
X163345238Y-85069047D01*
X163250000Y-84973809D01*
X163202380Y-84830952D01*
X163202380Y-84735714D01*
X163250000Y-84592857D01*
X163297619Y-84545238D01*
X164202380Y-83640476D02*
X164202380Y-84116666D01*
X163202380Y-84116666D01*
X164202380Y-83307142D02*
X163202380Y-83307142D01*
X164202380Y-82735714D02*
X163630952Y-83164285D01*
X163202380Y-82735714D02*
X163773809Y-83307142D01*
D12*
X123300000Y-97809523D02*
X123261904Y-97885714D01*
X123261904Y-98000000D01*
X123300000Y-98114285D01*
X123376190Y-98190476D01*
X123452380Y-98228571D01*
X123604761Y-98266666D01*
X123719047Y-98266666D01*
X123871428Y-98228571D01*
X123947619Y-98190476D01*
X124023809Y-98114285D01*
X124061904Y-98000000D01*
X124061904Y-97923809D01*
X124023809Y-97809523D01*
X123985714Y-97771428D01*
X123719047Y-97771428D01*
X123719047Y-97923809D01*
X124061904Y-97428571D02*
X123261904Y-97428571D01*
X124061904Y-96971428D01*
X123261904Y-96971428D01*
X124061904Y-96590476D02*
X123261904Y-96590476D01*
X123261904Y-96400000D01*
X123300000Y-96285714D01*
X123376190Y-96209523D01*
X123452380Y-96171428D01*
X123604761Y-96133333D01*
X123719047Y-96133333D01*
X123871428Y-96171428D01*
X123947619Y-96209523D01*
X124023809Y-96285714D01*
X124061904Y-96400000D01*
X124061904Y-96590476D01*
D10*
X147971428Y-112471428D02*
X147771428Y-112185714D01*
X147628571Y-112471428D02*
X147628571Y-111871428D01*
X147857142Y-111871428D01*
X147914285Y-111900000D01*
X147942857Y-111928571D01*
X147971428Y-111985714D01*
X147971428Y-112071428D01*
X147942857Y-112128571D01*
X147914285Y-112157142D01*
X147857142Y-112185714D01*
X147628571Y-112185714D01*
X148200000Y-112442857D02*
X148285714Y-112471428D01*
X148428571Y-112471428D01*
X148485714Y-112442857D01*
X148514285Y-112414285D01*
X148542857Y-112357142D01*
X148542857Y-112300000D01*
X148514285Y-112242857D01*
X148485714Y-112214285D01*
X148428571Y-112185714D01*
X148314285Y-112157142D01*
X148257142Y-112128571D01*
X148228571Y-112100000D01*
X148200000Y-112042857D01*
X148200000Y-111985714D01*
X148228571Y-111928571D01*
X148257142Y-111900000D01*
X148314285Y-111871428D01*
X148457142Y-111871428D01*
X148542857Y-111900000D01*
X148714285Y-111871428D02*
X149057142Y-111871428D01*
X148885714Y-112471428D02*
X148885714Y-111871428D01*
D11*
X158561214Y-100135714D02*
X158561214Y-100435714D01*
X159032642Y-100435714D02*
X158132642Y-100435714D01*
X158132642Y-100007142D01*
X159032642Y-99664285D02*
X158132642Y-99664285D01*
X158132642Y-99321428D01*
X158175500Y-99235714D01*
X158218357Y-99192857D01*
X158304071Y-99150000D01*
X158432642Y-99150000D01*
X158518357Y-99192857D01*
X158561214Y-99235714D01*
X158604071Y-99321428D01*
X158604071Y-99664285D01*
X158946928Y-98250000D02*
X158989785Y-98292857D01*
X159032642Y-98421428D01*
X159032642Y-98507142D01*
X158989785Y-98635714D01*
X158904071Y-98721428D01*
X158818357Y-98764285D01*
X158646928Y-98807142D01*
X158518357Y-98807142D01*
X158346928Y-98764285D01*
X158261214Y-98721428D01*
X158175500Y-98635714D01*
X158132642Y-98507142D01*
X158132642Y-98421428D01*
X158175500Y-98292857D01*
X158218357Y-98250000D01*
X158946928Y-96664285D02*
X158989785Y-96707142D01*
X159032642Y-96835714D01*
X159032642Y-96921428D01*
X158989785Y-97050000D01*
X158904071Y-97135714D01*
X158818357Y-97178571D01*
X158646928Y-97221428D01*
X158518357Y-97221428D01*
X158346928Y-97178571D01*
X158261214Y-97135714D01*
X158175500Y-97050000D01*
X158132642Y-96921428D01*
X158132642Y-96835714D01*
X158175500Y-96707142D01*
X158218357Y-96664285D01*
X159032642Y-96150000D02*
X158989785Y-96235714D01*
X158946928Y-96278571D01*
X158861214Y-96321428D01*
X158604071Y-96321428D01*
X158518357Y-96278571D01*
X158475500Y-96235714D01*
X158432642Y-96150000D01*
X158432642Y-96021428D01*
X158475500Y-95935714D01*
X158518357Y-95892857D01*
X158604071Y-95850000D01*
X158861214Y-95850000D01*
X158946928Y-95892857D01*
X158989785Y-95935714D01*
X159032642Y-96021428D01*
X159032642Y-96150000D01*
X158432642Y-95464285D02*
X159032642Y-95464285D01*
X158518357Y-95464285D02*
X158475500Y-95421428D01*
X158432642Y-95335714D01*
X158432642Y-95207142D01*
X158475500Y-95121428D01*
X158561214Y-95078571D01*
X159032642Y-95078571D01*
X158432642Y-94778571D02*
X158432642Y-94435714D01*
X158132642Y-94650000D02*
X158904071Y-94650000D01*
X158989785Y-94607142D01*
X159032642Y-94521428D01*
X159032642Y-94435714D01*
X159032642Y-93750000D02*
X158561214Y-93750000D01*
X158475500Y-93792857D01*
X158432642Y-93878571D01*
X158432642Y-94050000D01*
X158475500Y-94135714D01*
X158989785Y-93750000D02*
X159032642Y-93835714D01*
X159032642Y-94050000D01*
X158989785Y-94135714D01*
X158904071Y-94178571D01*
X158818357Y-94178571D01*
X158732642Y-94135714D01*
X158689785Y-94050000D01*
X158689785Y-93835714D01*
X158646928Y-93750000D01*
X158989785Y-92935714D02*
X159032642Y-93021428D01*
X159032642Y-93192857D01*
X158989785Y-93278571D01*
X158946928Y-93321428D01*
X158861214Y-93364285D01*
X158604071Y-93364285D01*
X158518357Y-93321428D01*
X158475500Y-93278571D01*
X158432642Y-93192857D01*
X158432642Y-93021428D01*
X158475500Y-92935714D01*
X158432642Y-92678571D02*
X158432642Y-92335714D01*
X158132642Y-92550000D02*
X158904071Y-92550000D01*
X158989785Y-92507142D01*
X159032642Y-92421428D01*
X159032642Y-92335714D01*
X160010214Y-100178571D02*
X160010214Y-100478571D01*
X160481642Y-100478571D02*
X159581642Y-100478571D01*
X159581642Y-100050000D01*
X160481642Y-99321428D02*
X160010214Y-99321428D01*
X159924500Y-99364285D01*
X159881642Y-99450000D01*
X159881642Y-99621428D01*
X159924500Y-99707142D01*
X160438785Y-99321428D02*
X160481642Y-99407142D01*
X160481642Y-99621428D01*
X160438785Y-99707142D01*
X160353071Y-99750000D01*
X160267357Y-99750000D01*
X160181642Y-99707142D01*
X160138785Y-99621428D01*
X160138785Y-99407142D01*
X160095928Y-99321428D01*
X160438785Y-98507142D02*
X160481642Y-98592857D01*
X160481642Y-98764285D01*
X160438785Y-98850000D01*
X160395928Y-98892857D01*
X160310214Y-98935714D01*
X160053071Y-98935714D01*
X159967357Y-98892857D01*
X159924500Y-98850000D01*
X159881642Y-98764285D01*
X159881642Y-98592857D01*
X159924500Y-98507142D01*
X160481642Y-98121428D02*
X159881642Y-98121428D01*
X159581642Y-98121428D02*
X159624500Y-98164285D01*
X159667357Y-98121428D01*
X159624500Y-98078571D01*
X159581642Y-98121428D01*
X159667357Y-98121428D01*
X159881642Y-97692857D02*
X160481642Y-97692857D01*
X159967357Y-97692857D02*
X159924500Y-97650000D01*
X159881642Y-97564285D01*
X159881642Y-97435714D01*
X159924500Y-97350000D01*
X160010214Y-97307142D01*
X160481642Y-97307142D01*
X159881642Y-96492857D02*
X160610214Y-96492857D01*
X160695928Y-96535714D01*
X160738785Y-96578571D01*
X160781642Y-96664285D01*
X160781642Y-96792857D01*
X160738785Y-96878571D01*
X160438785Y-96492857D02*
X160481642Y-96578571D01*
X160481642Y-96750000D01*
X160438785Y-96835714D01*
X160395928Y-96878571D01*
X160310214Y-96921428D01*
X160053071Y-96921428D01*
X159967357Y-96878571D01*
X159924500Y-96835714D01*
X159881642Y-96750000D01*
X159881642Y-96578571D01*
X159924500Y-96492857D01*
X160481642Y-94992857D02*
X159581642Y-94992857D01*
X160438785Y-94992857D02*
X160481642Y-95078571D01*
X160481642Y-95250000D01*
X160438785Y-95335714D01*
X160395928Y-95378571D01*
X160310214Y-95421428D01*
X160053071Y-95421428D01*
X159967357Y-95378571D01*
X159924500Y-95335714D01*
X159881642Y-95250000D01*
X159881642Y-95078571D01*
X159924500Y-94992857D01*
X160481642Y-94435714D02*
X160438785Y-94521428D01*
X160395928Y-94564285D01*
X160310214Y-94607142D01*
X160053071Y-94607142D01*
X159967357Y-94564285D01*
X159924500Y-94521428D01*
X159881642Y-94435714D01*
X159881642Y-94307142D01*
X159924500Y-94221428D01*
X159967357Y-94178571D01*
X160053071Y-94135714D01*
X160310214Y-94135714D01*
X160395928Y-94178571D01*
X160438785Y-94221428D01*
X160481642Y-94307142D01*
X160481642Y-94435714D01*
X159881642Y-93835714D02*
X160481642Y-93664285D01*
X160053071Y-93492857D01*
X160481642Y-93321428D01*
X159881642Y-93150000D01*
X159881642Y-92807142D02*
X160481642Y-92807142D01*
X159967357Y-92807142D02*
X159924500Y-92764285D01*
X159881642Y-92678571D01*
X159881642Y-92550000D01*
X159924500Y-92464285D01*
X160010214Y-92421428D01*
X160481642Y-92421428D01*
X137886904Y-114252380D02*
X138553571Y-115252380D01*
X138553571Y-114252380D02*
X137886904Y-115252380D01*
X138791666Y-114252380D02*
X139125000Y-115252380D01*
X139458333Y-114252380D01*
X139744047Y-115204761D02*
X139886904Y-115252380D01*
X140125000Y-115252380D01*
X140220238Y-115204761D01*
X140267857Y-115157142D01*
X140315476Y-115061904D01*
X140315476Y-114966666D01*
X140267857Y-114871428D01*
X140220238Y-114823809D01*
X140125000Y-114776190D01*
X139934523Y-114728571D01*
X139839285Y-114680952D01*
X139791666Y-114633333D01*
X139744047Y-114538095D01*
X139744047Y-114442857D01*
X139791666Y-114347619D01*
X139839285Y-114300000D01*
X139934523Y-114252380D01*
X140172619Y-114252380D01*
X140315476Y-114300000D01*
D12*
X124690476Y-82800000D02*
X124614285Y-82761904D01*
X124500000Y-82761904D01*
X124385714Y-82800000D01*
X124309523Y-82876190D01*
X124271428Y-82952380D01*
X124233333Y-83104761D01*
X124233333Y-83219047D01*
X124271428Y-83371428D01*
X124309523Y-83447619D01*
X124385714Y-83523809D01*
X124500000Y-83561904D01*
X124576190Y-83561904D01*
X124690476Y-83523809D01*
X124728571Y-83485714D01*
X124728571Y-83219047D01*
X124576190Y-83219047D01*
X125071428Y-83561904D02*
X125071428Y-82761904D01*
X125528571Y-83561904D01*
X125528571Y-82761904D01*
X125909523Y-83561904D02*
X125909523Y-82761904D01*
X126100000Y-82761904D01*
X126214285Y-82800000D01*
X126290476Y-82876190D01*
X126328571Y-82952380D01*
X126366666Y-83104761D01*
X126366666Y-83219047D01*
X126328571Y-83371428D01*
X126290476Y-83447619D01*
X126214285Y-83523809D01*
X126100000Y-83561904D01*
X125909523Y-83561904D01*
X127209523Y-82761904D02*
X127704761Y-82761904D01*
X127438095Y-83066666D01*
X127552380Y-83066666D01*
X127628571Y-83104761D01*
X127666666Y-83142857D01*
X127704761Y-83219047D01*
X127704761Y-83409523D01*
X127666666Y-83485714D01*
X127628571Y-83523809D01*
X127552380Y-83561904D01*
X127323809Y-83561904D01*
X127247619Y-83523809D01*
X127209523Y-83485714D01*
X127933333Y-82761904D02*
X128200000Y-83561904D01*
X128466666Y-82761904D01*
X128657142Y-82761904D02*
X129152380Y-82761904D01*
X128885714Y-83066666D01*
X129000000Y-83066666D01*
X129076190Y-83104761D01*
X129114285Y-83142857D01*
X129152380Y-83219047D01*
X129152380Y-83409523D01*
X129114285Y-83485714D01*
X129076190Y-83523809D01*
X129000000Y-83561904D01*
X128771428Y-83561904D01*
X128695238Y-83523809D01*
X128657142Y-83485714D01*
X130509523Y-83142857D02*
X130776190Y-83142857D01*
X130890476Y-83561904D02*
X130509523Y-83561904D01*
X130509523Y-82761904D01*
X130890476Y-82761904D01*
X131233333Y-83561904D02*
X131233333Y-82761904D01*
X131690476Y-83561904D01*
X131690476Y-82761904D01*
D10*
G04 #@! TO.C,FL4*
X165020238Y-95003571D02*
X164803571Y-95003571D01*
X164803571Y-95344047D02*
X164803571Y-94694047D01*
X165113095Y-94694047D01*
X165670238Y-95344047D02*
X165360714Y-95344047D01*
X165360714Y-94694047D01*
X166165476Y-94910714D02*
X166165476Y-95344047D01*
X166010714Y-94663095D02*
X165855952Y-95127380D01*
X166258333Y-95127380D01*
G04 #@! TO.C,R10*
X128307142Y-81994047D02*
X128090476Y-81684523D01*
X127935714Y-81994047D02*
X127935714Y-81344047D01*
X128183333Y-81344047D01*
X128245238Y-81375000D01*
X128276190Y-81405952D01*
X128307142Y-81467857D01*
X128307142Y-81560714D01*
X128276190Y-81622619D01*
X128245238Y-81653571D01*
X128183333Y-81684523D01*
X127935714Y-81684523D01*
X128926190Y-81994047D02*
X128554761Y-81994047D01*
X128740476Y-81994047D02*
X128740476Y-81344047D01*
X128678571Y-81436904D01*
X128616666Y-81498809D01*
X128554761Y-81529761D01*
X129328571Y-81344047D02*
X129390476Y-81344047D01*
X129452380Y-81375000D01*
X129483333Y-81405952D01*
X129514285Y-81467857D01*
X129545238Y-81591666D01*
X129545238Y-81746428D01*
X129514285Y-81870238D01*
X129483333Y-81932142D01*
X129452380Y-81963095D01*
X129390476Y-81994047D01*
X129328571Y-81994047D01*
X129266666Y-81963095D01*
X129235714Y-81932142D01*
X129204761Y-81870238D01*
X129173809Y-81746428D01*
X129173809Y-81591666D01*
X129204761Y-81467857D01*
X129235714Y-81405952D01*
X129266666Y-81375000D01*
X129328571Y-81344047D01*
G04 #@! TO.C,R12*
X129294047Y-98867857D02*
X128984523Y-99084523D01*
X129294047Y-99239285D02*
X128644047Y-99239285D01*
X128644047Y-98991666D01*
X128675000Y-98929761D01*
X128705952Y-98898809D01*
X128767857Y-98867857D01*
X128860714Y-98867857D01*
X128922619Y-98898809D01*
X128953571Y-98929761D01*
X128984523Y-98991666D01*
X128984523Y-99239285D01*
X129294047Y-98248809D02*
X129294047Y-98620238D01*
X129294047Y-98434523D02*
X128644047Y-98434523D01*
X128736904Y-98496428D01*
X128798809Y-98558333D01*
X128829761Y-98620238D01*
X128705952Y-98001190D02*
X128675000Y-97970238D01*
X128644047Y-97908333D01*
X128644047Y-97753571D01*
X128675000Y-97691666D01*
X128705952Y-97660714D01*
X128767857Y-97629761D01*
X128829761Y-97629761D01*
X128922619Y-97660714D01*
X129294047Y-98032142D01*
X129294047Y-97629761D01*
G04 #@! TO.C,U5*
X157304761Y-83144047D02*
X157304761Y-83670238D01*
X157335714Y-83732142D01*
X157366666Y-83763095D01*
X157428571Y-83794047D01*
X157552380Y-83794047D01*
X157614285Y-83763095D01*
X157645238Y-83732142D01*
X157676190Y-83670238D01*
X157676190Y-83144047D01*
X158295238Y-83144047D02*
X157985714Y-83144047D01*
X157954761Y-83453571D01*
X157985714Y-83422619D01*
X158047619Y-83391666D01*
X158202380Y-83391666D01*
X158264285Y-83422619D01*
X158295238Y-83453571D01*
X158326190Y-83515476D01*
X158326190Y-83670238D01*
X158295238Y-83732142D01*
X158264285Y-83763095D01*
X158202380Y-83794047D01*
X158047619Y-83794047D01*
X157985714Y-83763095D01*
X157954761Y-83732142D01*
G04 #@! TO.C,C1*
X132032142Y-106108333D02*
X132063095Y-106139285D01*
X132094047Y-106232142D01*
X132094047Y-106294047D01*
X132063095Y-106386904D01*
X132001190Y-106448809D01*
X131939285Y-106479761D01*
X131815476Y-106510714D01*
X131722619Y-106510714D01*
X131598809Y-106479761D01*
X131536904Y-106448809D01*
X131475000Y-106386904D01*
X131444047Y-106294047D01*
X131444047Y-106232142D01*
X131475000Y-106139285D01*
X131505952Y-106108333D01*
X132094047Y-105489285D02*
X132094047Y-105860714D01*
X132094047Y-105675000D02*
X131444047Y-105675000D01*
X131536904Y-105736904D01*
X131598809Y-105798809D01*
X131629761Y-105860714D01*
G04 #@! TO.C,C70*
X159432142Y-114032142D02*
X159401190Y-114063095D01*
X159308333Y-114094047D01*
X159246428Y-114094047D01*
X159153571Y-114063095D01*
X159091666Y-114001190D01*
X159060714Y-113939285D01*
X159029761Y-113815476D01*
X159029761Y-113722619D01*
X159060714Y-113598809D01*
X159091666Y-113536904D01*
X159153571Y-113475000D01*
X159246428Y-113444047D01*
X159308333Y-113444047D01*
X159401190Y-113475000D01*
X159432142Y-113505952D01*
X159648809Y-113444047D02*
X160082142Y-113444047D01*
X159803571Y-114094047D01*
X160453571Y-113444047D02*
X160515476Y-113444047D01*
X160577380Y-113475000D01*
X160608333Y-113505952D01*
X160639285Y-113567857D01*
X160670238Y-113691666D01*
X160670238Y-113846428D01*
X160639285Y-113970238D01*
X160608333Y-114032142D01*
X160577380Y-114063095D01*
X160515476Y-114094047D01*
X160453571Y-114094047D01*
X160391666Y-114063095D01*
X160360714Y-114032142D01*
X160329761Y-113970238D01*
X160298809Y-113846428D01*
X160298809Y-113691666D01*
X160329761Y-113567857D01*
X160360714Y-113505952D01*
X160391666Y-113475000D01*
X160453571Y-113444047D01*
G04 #@! TO.C,R3*
X144341666Y-76344047D02*
X144125000Y-76034523D01*
X143970238Y-76344047D02*
X143970238Y-75694047D01*
X144217857Y-75694047D01*
X144279761Y-75725000D01*
X144310714Y-75755952D01*
X144341666Y-75817857D01*
X144341666Y-75910714D01*
X144310714Y-75972619D01*
X144279761Y-76003571D01*
X144217857Y-76034523D01*
X143970238Y-76034523D01*
X144558333Y-75694047D02*
X144960714Y-75694047D01*
X144744047Y-75941666D01*
X144836904Y-75941666D01*
X144898809Y-75972619D01*
X144929761Y-76003571D01*
X144960714Y-76065476D01*
X144960714Y-76220238D01*
X144929761Y-76282142D01*
X144898809Y-76313095D01*
X144836904Y-76344047D01*
X144651190Y-76344047D01*
X144589285Y-76313095D01*
X144558333Y-76282142D01*
G04 #@! TO.C,C36*
X144072142Y-108317857D02*
X144103095Y-108348809D01*
X144134047Y-108441666D01*
X144134047Y-108503571D01*
X144103095Y-108596428D01*
X144041190Y-108658333D01*
X143979285Y-108689285D01*
X143855476Y-108720238D01*
X143762619Y-108720238D01*
X143638809Y-108689285D01*
X143576904Y-108658333D01*
X143515000Y-108596428D01*
X143484047Y-108503571D01*
X143484047Y-108441666D01*
X143515000Y-108348809D01*
X143545952Y-108317857D01*
X143484047Y-108101190D02*
X143484047Y-107698809D01*
X143731666Y-107915476D01*
X143731666Y-107822619D01*
X143762619Y-107760714D01*
X143793571Y-107729761D01*
X143855476Y-107698809D01*
X144010238Y-107698809D01*
X144072142Y-107729761D01*
X144103095Y-107760714D01*
X144134047Y-107822619D01*
X144134047Y-108008333D01*
X144103095Y-108070238D01*
X144072142Y-108101190D01*
X143484047Y-107141666D02*
X143484047Y-107265476D01*
X143515000Y-107327380D01*
X143545952Y-107358333D01*
X143638809Y-107420238D01*
X143762619Y-107451190D01*
X144010238Y-107451190D01*
X144072142Y-107420238D01*
X144103095Y-107389285D01*
X144134047Y-107327380D01*
X144134047Y-107203571D01*
X144103095Y-107141666D01*
X144072142Y-107110714D01*
X144010238Y-107079761D01*
X143855476Y-107079761D01*
X143793571Y-107110714D01*
X143762619Y-107141666D01*
X143731666Y-107203571D01*
X143731666Y-107327380D01*
X143762619Y-107389285D01*
X143793571Y-107420238D01*
X143855476Y-107451190D01*
G04 #@! TO.C,C41*
X145392142Y-84437857D02*
X145423095Y-84468809D01*
X145454047Y-84561666D01*
X145454047Y-84623571D01*
X145423095Y-84716428D01*
X145361190Y-84778333D01*
X145299285Y-84809285D01*
X145175476Y-84840238D01*
X145082619Y-84840238D01*
X144958809Y-84809285D01*
X144896904Y-84778333D01*
X144835000Y-84716428D01*
X144804047Y-84623571D01*
X144804047Y-84561666D01*
X144835000Y-84468809D01*
X144865952Y-84437857D01*
X145020714Y-83880714D02*
X145454047Y-83880714D01*
X144773095Y-84035476D02*
X145237380Y-84190238D01*
X145237380Y-83787857D01*
X145454047Y-83199761D02*
X145454047Y-83571190D01*
X145454047Y-83385476D02*
X144804047Y-83385476D01*
X144896904Y-83447380D01*
X144958809Y-83509285D01*
X144989761Y-83571190D01*
G04 #@! TO.C,C55*
X154032142Y-94682142D02*
X154001190Y-94713095D01*
X153908333Y-94744047D01*
X153846428Y-94744047D01*
X153753571Y-94713095D01*
X153691666Y-94651190D01*
X153660714Y-94589285D01*
X153629761Y-94465476D01*
X153629761Y-94372619D01*
X153660714Y-94248809D01*
X153691666Y-94186904D01*
X153753571Y-94125000D01*
X153846428Y-94094047D01*
X153908333Y-94094047D01*
X154001190Y-94125000D01*
X154032142Y-94155952D01*
X154620238Y-94094047D02*
X154310714Y-94094047D01*
X154279761Y-94403571D01*
X154310714Y-94372619D01*
X154372619Y-94341666D01*
X154527380Y-94341666D01*
X154589285Y-94372619D01*
X154620238Y-94403571D01*
X154651190Y-94465476D01*
X154651190Y-94620238D01*
X154620238Y-94682142D01*
X154589285Y-94713095D01*
X154527380Y-94744047D01*
X154372619Y-94744047D01*
X154310714Y-94713095D01*
X154279761Y-94682142D01*
X155239285Y-94094047D02*
X154929761Y-94094047D01*
X154898809Y-94403571D01*
X154929761Y-94372619D01*
X154991666Y-94341666D01*
X155146428Y-94341666D01*
X155208333Y-94372619D01*
X155239285Y-94403571D01*
X155270238Y-94465476D01*
X155270238Y-94620238D01*
X155239285Y-94682142D01*
X155208333Y-94713095D01*
X155146428Y-94744047D01*
X154991666Y-94744047D01*
X154929761Y-94713095D01*
X154898809Y-94682142D01*
G04 #@! TO.C,C53*
X136232142Y-113317857D02*
X136263095Y-113348809D01*
X136294047Y-113441666D01*
X136294047Y-113503571D01*
X136263095Y-113596428D01*
X136201190Y-113658333D01*
X136139285Y-113689285D01*
X136015476Y-113720238D01*
X135922619Y-113720238D01*
X135798809Y-113689285D01*
X135736904Y-113658333D01*
X135675000Y-113596428D01*
X135644047Y-113503571D01*
X135644047Y-113441666D01*
X135675000Y-113348809D01*
X135705952Y-113317857D01*
X135644047Y-112729761D02*
X135644047Y-113039285D01*
X135953571Y-113070238D01*
X135922619Y-113039285D01*
X135891666Y-112977380D01*
X135891666Y-112822619D01*
X135922619Y-112760714D01*
X135953571Y-112729761D01*
X136015476Y-112698809D01*
X136170238Y-112698809D01*
X136232142Y-112729761D01*
X136263095Y-112760714D01*
X136294047Y-112822619D01*
X136294047Y-112977380D01*
X136263095Y-113039285D01*
X136232142Y-113070238D01*
X135644047Y-112482142D02*
X135644047Y-112079761D01*
X135891666Y-112296428D01*
X135891666Y-112203571D01*
X135922619Y-112141666D01*
X135953571Y-112110714D01*
X136015476Y-112079761D01*
X136170238Y-112079761D01*
X136232142Y-112110714D01*
X136263095Y-112141666D01*
X136294047Y-112203571D01*
X136294047Y-112389285D01*
X136263095Y-112451190D01*
X136232142Y-112482142D01*
G04 #@! TO.C,C32*
X155782142Y-86682142D02*
X155751190Y-86713095D01*
X155658333Y-86744047D01*
X155596428Y-86744047D01*
X155503571Y-86713095D01*
X155441666Y-86651190D01*
X155410714Y-86589285D01*
X155379761Y-86465476D01*
X155379761Y-86372619D01*
X155410714Y-86248809D01*
X155441666Y-86186904D01*
X155503571Y-86125000D01*
X155596428Y-86094047D01*
X155658333Y-86094047D01*
X155751190Y-86125000D01*
X155782142Y-86155952D01*
X155998809Y-86094047D02*
X156401190Y-86094047D01*
X156184523Y-86341666D01*
X156277380Y-86341666D01*
X156339285Y-86372619D01*
X156370238Y-86403571D01*
X156401190Y-86465476D01*
X156401190Y-86620238D01*
X156370238Y-86682142D01*
X156339285Y-86713095D01*
X156277380Y-86744047D01*
X156091666Y-86744047D01*
X156029761Y-86713095D01*
X155998809Y-86682142D01*
X156648809Y-86155952D02*
X156679761Y-86125000D01*
X156741666Y-86094047D01*
X156896428Y-86094047D01*
X156958333Y-86125000D01*
X156989285Y-86155952D01*
X157020238Y-86217857D01*
X157020238Y-86279761D01*
X156989285Y-86372619D01*
X156617857Y-86744047D01*
X157020238Y-86744047D01*
G04 #@! TO.C,U6*
X160094047Y-112395238D02*
X160620238Y-112395238D01*
X160682142Y-112364285D01*
X160713095Y-112333333D01*
X160744047Y-112271428D01*
X160744047Y-112147619D01*
X160713095Y-112085714D01*
X160682142Y-112054761D01*
X160620238Y-112023809D01*
X160094047Y-112023809D01*
X160094047Y-111435714D02*
X160094047Y-111559523D01*
X160125000Y-111621428D01*
X160155952Y-111652380D01*
X160248809Y-111714285D01*
X160372619Y-111745238D01*
X160620238Y-111745238D01*
X160682142Y-111714285D01*
X160713095Y-111683333D01*
X160744047Y-111621428D01*
X160744047Y-111497619D01*
X160713095Y-111435714D01*
X160682142Y-111404761D01*
X160620238Y-111373809D01*
X160465476Y-111373809D01*
X160403571Y-111404761D01*
X160372619Y-111435714D01*
X160341666Y-111497619D01*
X160341666Y-111621428D01*
X160372619Y-111683333D01*
X160403571Y-111714285D01*
X160465476Y-111745238D01*
X158852380Y-110100000D02*
X159090476Y-110100000D01*
X158995238Y-110338095D02*
X159090476Y-110100000D01*
X158995238Y-109861904D01*
X159280952Y-110242857D02*
X159090476Y-110100000D01*
X159280952Y-109957142D01*
G04 #@! TO.C,C69*
X125682142Y-92967857D02*
X125713095Y-92998809D01*
X125744047Y-93091666D01*
X125744047Y-93153571D01*
X125713095Y-93246428D01*
X125651190Y-93308333D01*
X125589285Y-93339285D01*
X125465476Y-93370238D01*
X125372619Y-93370238D01*
X125248809Y-93339285D01*
X125186904Y-93308333D01*
X125125000Y-93246428D01*
X125094047Y-93153571D01*
X125094047Y-93091666D01*
X125125000Y-92998809D01*
X125155952Y-92967857D01*
X125094047Y-92410714D02*
X125094047Y-92534523D01*
X125125000Y-92596428D01*
X125155952Y-92627380D01*
X125248809Y-92689285D01*
X125372619Y-92720238D01*
X125620238Y-92720238D01*
X125682142Y-92689285D01*
X125713095Y-92658333D01*
X125744047Y-92596428D01*
X125744047Y-92472619D01*
X125713095Y-92410714D01*
X125682142Y-92379761D01*
X125620238Y-92348809D01*
X125465476Y-92348809D01*
X125403571Y-92379761D01*
X125372619Y-92410714D01*
X125341666Y-92472619D01*
X125341666Y-92596428D01*
X125372619Y-92658333D01*
X125403571Y-92689285D01*
X125465476Y-92720238D01*
X125744047Y-92039285D02*
X125744047Y-91915476D01*
X125713095Y-91853571D01*
X125682142Y-91822619D01*
X125589285Y-91760714D01*
X125465476Y-91729761D01*
X125217857Y-91729761D01*
X125155952Y-91760714D01*
X125125000Y-91791666D01*
X125094047Y-91853571D01*
X125094047Y-91977380D01*
X125125000Y-92039285D01*
X125155952Y-92070238D01*
X125217857Y-92101190D01*
X125372619Y-92101190D01*
X125434523Y-92070238D01*
X125465476Y-92039285D01*
X125496428Y-91977380D01*
X125496428Y-91853571D01*
X125465476Y-91791666D01*
X125434523Y-91760714D01*
X125372619Y-91729761D01*
G04 #@! TO.C,C37*
X158232142Y-107867857D02*
X158263095Y-107898809D01*
X158294047Y-107991666D01*
X158294047Y-108053571D01*
X158263095Y-108146428D01*
X158201190Y-108208333D01*
X158139285Y-108239285D01*
X158015476Y-108270238D01*
X157922619Y-108270238D01*
X157798809Y-108239285D01*
X157736904Y-108208333D01*
X157675000Y-108146428D01*
X157644047Y-108053571D01*
X157644047Y-107991666D01*
X157675000Y-107898809D01*
X157705952Y-107867857D01*
X157644047Y-107651190D02*
X157644047Y-107248809D01*
X157891666Y-107465476D01*
X157891666Y-107372619D01*
X157922619Y-107310714D01*
X157953571Y-107279761D01*
X158015476Y-107248809D01*
X158170238Y-107248809D01*
X158232142Y-107279761D01*
X158263095Y-107310714D01*
X158294047Y-107372619D01*
X158294047Y-107558333D01*
X158263095Y-107620238D01*
X158232142Y-107651190D01*
X157644047Y-107032142D02*
X157644047Y-106598809D01*
X158294047Y-106877380D01*
G04 #@! TO.C,C4*
X135490753Y-106212453D02*
X135534526Y-106212453D01*
X135622072Y-106256226D01*
X135665846Y-106300000D01*
X135709619Y-106387546D01*
X135709619Y-106475093D01*
X135687732Y-106540753D01*
X135622072Y-106650186D01*
X135556412Y-106715846D01*
X135446979Y-106781506D01*
X135381319Y-106803392D01*
X135293773Y-106803392D01*
X135206226Y-106759619D01*
X135162453Y-106715846D01*
X135118680Y-106628299D01*
X135118680Y-106584526D01*
X134834153Y-106081133D02*
X135140566Y-105774720D01*
X134768493Y-106365659D02*
X135206226Y-106146793D01*
X134921700Y-105862267D01*
G04 #@! TO.C,C18*
X155232142Y-82517857D02*
X155263095Y-82548809D01*
X155294047Y-82641666D01*
X155294047Y-82703571D01*
X155263095Y-82796428D01*
X155201190Y-82858333D01*
X155139285Y-82889285D01*
X155015476Y-82920238D01*
X154922619Y-82920238D01*
X154798809Y-82889285D01*
X154736904Y-82858333D01*
X154675000Y-82796428D01*
X154644047Y-82703571D01*
X154644047Y-82641666D01*
X154675000Y-82548809D01*
X154705952Y-82517857D01*
X155294047Y-81898809D02*
X155294047Y-82270238D01*
X155294047Y-82084523D02*
X154644047Y-82084523D01*
X154736904Y-82146428D01*
X154798809Y-82208333D01*
X154829761Y-82270238D01*
X154922619Y-81527380D02*
X154891666Y-81589285D01*
X154860714Y-81620238D01*
X154798809Y-81651190D01*
X154767857Y-81651190D01*
X154705952Y-81620238D01*
X154675000Y-81589285D01*
X154644047Y-81527380D01*
X154644047Y-81403571D01*
X154675000Y-81341666D01*
X154705952Y-81310714D01*
X154767857Y-81279761D01*
X154798809Y-81279761D01*
X154860714Y-81310714D01*
X154891666Y-81341666D01*
X154922619Y-81403571D01*
X154922619Y-81527380D01*
X154953571Y-81589285D01*
X154984523Y-81620238D01*
X155046428Y-81651190D01*
X155170238Y-81651190D01*
X155232142Y-81620238D01*
X155263095Y-81589285D01*
X155294047Y-81527380D01*
X155294047Y-81403571D01*
X155263095Y-81341666D01*
X155232142Y-81310714D01*
X155170238Y-81279761D01*
X155046428Y-81279761D01*
X154984523Y-81310714D01*
X154953571Y-81341666D01*
X154922619Y-81403571D01*
G04 #@! TO.C,R1*
X132341666Y-101494047D02*
X132125000Y-101184523D01*
X131970238Y-101494047D02*
X131970238Y-100844047D01*
X132217857Y-100844047D01*
X132279761Y-100875000D01*
X132310714Y-100905952D01*
X132341666Y-100967857D01*
X132341666Y-101060714D01*
X132310714Y-101122619D01*
X132279761Y-101153571D01*
X132217857Y-101184523D01*
X131970238Y-101184523D01*
X132960714Y-101494047D02*
X132589285Y-101494047D01*
X132775000Y-101494047D02*
X132775000Y-100844047D01*
X132713095Y-100936904D01*
X132651190Y-100998809D01*
X132589285Y-101029761D01*
G04 #@! TO.C,C45*
X130982142Y-92482142D02*
X130951190Y-92513095D01*
X130858333Y-92544047D01*
X130796428Y-92544047D01*
X130703571Y-92513095D01*
X130641666Y-92451190D01*
X130610714Y-92389285D01*
X130579761Y-92265476D01*
X130579761Y-92172619D01*
X130610714Y-92048809D01*
X130641666Y-91986904D01*
X130703571Y-91925000D01*
X130796428Y-91894047D01*
X130858333Y-91894047D01*
X130951190Y-91925000D01*
X130982142Y-91955952D01*
X131539285Y-92110714D02*
X131539285Y-92544047D01*
X131384523Y-91863095D02*
X131229761Y-92327380D01*
X131632142Y-92327380D01*
X132189285Y-91894047D02*
X131879761Y-91894047D01*
X131848809Y-92203571D01*
X131879761Y-92172619D01*
X131941666Y-92141666D01*
X132096428Y-92141666D01*
X132158333Y-92172619D01*
X132189285Y-92203571D01*
X132220238Y-92265476D01*
X132220238Y-92420238D01*
X132189285Y-92482142D01*
X132158333Y-92513095D01*
X132096428Y-92544047D01*
X131941666Y-92544047D01*
X131879761Y-92513095D01*
X131848809Y-92482142D01*
G04 #@! TO.C,C6*
X131491666Y-96932142D02*
X131460714Y-96963095D01*
X131367857Y-96994047D01*
X131305952Y-96994047D01*
X131213095Y-96963095D01*
X131151190Y-96901190D01*
X131120238Y-96839285D01*
X131089285Y-96715476D01*
X131089285Y-96622619D01*
X131120238Y-96498809D01*
X131151190Y-96436904D01*
X131213095Y-96375000D01*
X131305952Y-96344047D01*
X131367857Y-96344047D01*
X131460714Y-96375000D01*
X131491666Y-96405952D01*
X132048809Y-96344047D02*
X131925000Y-96344047D01*
X131863095Y-96375000D01*
X131832142Y-96405952D01*
X131770238Y-96498809D01*
X131739285Y-96622619D01*
X131739285Y-96870238D01*
X131770238Y-96932142D01*
X131801190Y-96963095D01*
X131863095Y-96994047D01*
X131986904Y-96994047D01*
X132048809Y-96963095D01*
X132079761Y-96932142D01*
X132110714Y-96870238D01*
X132110714Y-96715476D01*
X132079761Y-96653571D01*
X132048809Y-96622619D01*
X131986904Y-96591666D01*
X131863095Y-96591666D01*
X131801190Y-96622619D01*
X131770238Y-96653571D01*
X131739285Y-96715476D01*
G04 #@! TO.C,C68*
X127207142Y-98942857D02*
X127238095Y-98973809D01*
X127269047Y-99066666D01*
X127269047Y-99128571D01*
X127238095Y-99221428D01*
X127176190Y-99283333D01*
X127114285Y-99314285D01*
X126990476Y-99345238D01*
X126897619Y-99345238D01*
X126773809Y-99314285D01*
X126711904Y-99283333D01*
X126650000Y-99221428D01*
X126619047Y-99128571D01*
X126619047Y-99066666D01*
X126650000Y-98973809D01*
X126680952Y-98942857D01*
X126619047Y-98385714D02*
X126619047Y-98509523D01*
X126650000Y-98571428D01*
X126680952Y-98602380D01*
X126773809Y-98664285D01*
X126897619Y-98695238D01*
X127145238Y-98695238D01*
X127207142Y-98664285D01*
X127238095Y-98633333D01*
X127269047Y-98571428D01*
X127269047Y-98447619D01*
X127238095Y-98385714D01*
X127207142Y-98354761D01*
X127145238Y-98323809D01*
X126990476Y-98323809D01*
X126928571Y-98354761D01*
X126897619Y-98385714D01*
X126866666Y-98447619D01*
X126866666Y-98571428D01*
X126897619Y-98633333D01*
X126928571Y-98664285D01*
X126990476Y-98695238D01*
X126897619Y-97952380D02*
X126866666Y-98014285D01*
X126835714Y-98045238D01*
X126773809Y-98076190D01*
X126742857Y-98076190D01*
X126680952Y-98045238D01*
X126650000Y-98014285D01*
X126619047Y-97952380D01*
X126619047Y-97828571D01*
X126650000Y-97766666D01*
X126680952Y-97735714D01*
X126742857Y-97704761D01*
X126773809Y-97704761D01*
X126835714Y-97735714D01*
X126866666Y-97766666D01*
X126897619Y-97828571D01*
X126897619Y-97952380D01*
X126928571Y-98014285D01*
X126959523Y-98045238D01*
X127021428Y-98076190D01*
X127145238Y-98076190D01*
X127207142Y-98045238D01*
X127238095Y-98014285D01*
X127269047Y-97952380D01*
X127269047Y-97828571D01*
X127238095Y-97766666D01*
X127207142Y-97735714D01*
X127145238Y-97704761D01*
X127021428Y-97704761D01*
X126959523Y-97735714D01*
X126928571Y-97766666D01*
X126897619Y-97828571D01*
G04 #@! TO.C,C17*
X133732142Y-82367857D02*
X133763095Y-82398809D01*
X133794047Y-82491666D01*
X133794047Y-82553571D01*
X133763095Y-82646428D01*
X133701190Y-82708333D01*
X133639285Y-82739285D01*
X133515476Y-82770238D01*
X133422619Y-82770238D01*
X133298809Y-82739285D01*
X133236904Y-82708333D01*
X133175000Y-82646428D01*
X133144047Y-82553571D01*
X133144047Y-82491666D01*
X133175000Y-82398809D01*
X133205952Y-82367857D01*
X133794047Y-81748809D02*
X133794047Y-82120238D01*
X133794047Y-81934523D02*
X133144047Y-81934523D01*
X133236904Y-81996428D01*
X133298809Y-82058333D01*
X133329761Y-82120238D01*
X133144047Y-81532142D02*
X133144047Y-81098809D01*
X133794047Y-81377380D01*
G04 #@! TO.C,C66*
X153282142Y-108217857D02*
X153313095Y-108248809D01*
X153344047Y-108341666D01*
X153344047Y-108403571D01*
X153313095Y-108496428D01*
X153251190Y-108558333D01*
X153189285Y-108589285D01*
X153065476Y-108620238D01*
X152972619Y-108620238D01*
X152848809Y-108589285D01*
X152786904Y-108558333D01*
X152725000Y-108496428D01*
X152694047Y-108403571D01*
X152694047Y-108341666D01*
X152725000Y-108248809D01*
X152755952Y-108217857D01*
X152694047Y-107660714D02*
X152694047Y-107784523D01*
X152725000Y-107846428D01*
X152755952Y-107877380D01*
X152848809Y-107939285D01*
X152972619Y-107970238D01*
X153220238Y-107970238D01*
X153282142Y-107939285D01*
X153313095Y-107908333D01*
X153344047Y-107846428D01*
X153344047Y-107722619D01*
X153313095Y-107660714D01*
X153282142Y-107629761D01*
X153220238Y-107598809D01*
X153065476Y-107598809D01*
X153003571Y-107629761D01*
X152972619Y-107660714D01*
X152941666Y-107722619D01*
X152941666Y-107846428D01*
X152972619Y-107908333D01*
X153003571Y-107939285D01*
X153065476Y-107970238D01*
X152694047Y-107041666D02*
X152694047Y-107165476D01*
X152725000Y-107227380D01*
X152755952Y-107258333D01*
X152848809Y-107320238D01*
X152972619Y-107351190D01*
X153220238Y-107351190D01*
X153282142Y-107320238D01*
X153313095Y-107289285D01*
X153344047Y-107227380D01*
X153344047Y-107103571D01*
X153313095Y-107041666D01*
X153282142Y-107010714D01*
X153220238Y-106979761D01*
X153065476Y-106979761D01*
X153003571Y-107010714D01*
X152972619Y-107041666D01*
X152941666Y-107103571D01*
X152941666Y-107227380D01*
X152972619Y-107289285D01*
X153003571Y-107320238D01*
X153065476Y-107351190D01*
G04 #@! TO.C,C43*
X154032142Y-100082142D02*
X154001190Y-100113095D01*
X153908333Y-100144047D01*
X153846428Y-100144047D01*
X153753571Y-100113095D01*
X153691666Y-100051190D01*
X153660714Y-99989285D01*
X153629761Y-99865476D01*
X153629761Y-99772619D01*
X153660714Y-99648809D01*
X153691666Y-99586904D01*
X153753571Y-99525000D01*
X153846428Y-99494047D01*
X153908333Y-99494047D01*
X154001190Y-99525000D01*
X154032142Y-99555952D01*
X154589285Y-99710714D02*
X154589285Y-100144047D01*
X154434523Y-99463095D02*
X154279761Y-99927380D01*
X154682142Y-99927380D01*
X154867857Y-99494047D02*
X155270238Y-99494047D01*
X155053571Y-99741666D01*
X155146428Y-99741666D01*
X155208333Y-99772619D01*
X155239285Y-99803571D01*
X155270238Y-99865476D01*
X155270238Y-100020238D01*
X155239285Y-100082142D01*
X155208333Y-100113095D01*
X155146428Y-100144047D01*
X154960714Y-100144047D01*
X154898809Y-100113095D01*
X154867857Y-100082142D01*
G04 #@! TO.C,C46*
X154032142Y-90482142D02*
X154001190Y-90513095D01*
X153908333Y-90544047D01*
X153846428Y-90544047D01*
X153753571Y-90513095D01*
X153691666Y-90451190D01*
X153660714Y-90389285D01*
X153629761Y-90265476D01*
X153629761Y-90172619D01*
X153660714Y-90048809D01*
X153691666Y-89986904D01*
X153753571Y-89925000D01*
X153846428Y-89894047D01*
X153908333Y-89894047D01*
X154001190Y-89925000D01*
X154032142Y-89955952D01*
X154589285Y-90110714D02*
X154589285Y-90544047D01*
X154434523Y-89863095D02*
X154279761Y-90327380D01*
X154682142Y-90327380D01*
X155208333Y-89894047D02*
X155084523Y-89894047D01*
X155022619Y-89925000D01*
X154991666Y-89955952D01*
X154929761Y-90048809D01*
X154898809Y-90172619D01*
X154898809Y-90420238D01*
X154929761Y-90482142D01*
X154960714Y-90513095D01*
X155022619Y-90544047D01*
X155146428Y-90544047D01*
X155208333Y-90513095D01*
X155239285Y-90482142D01*
X155270238Y-90420238D01*
X155270238Y-90265476D01*
X155239285Y-90203571D01*
X155208333Y-90172619D01*
X155146428Y-90141666D01*
X155022619Y-90141666D01*
X154960714Y-90172619D01*
X154929761Y-90203571D01*
X154898809Y-90265476D01*
G04 #@! TO.C,C62*
X153582142Y-109632142D02*
X153551190Y-109663095D01*
X153458333Y-109694047D01*
X153396428Y-109694047D01*
X153303571Y-109663095D01*
X153241666Y-109601190D01*
X153210714Y-109539285D01*
X153179761Y-109415476D01*
X153179761Y-109322619D01*
X153210714Y-109198809D01*
X153241666Y-109136904D01*
X153303571Y-109075000D01*
X153396428Y-109044047D01*
X153458333Y-109044047D01*
X153551190Y-109075000D01*
X153582142Y-109105952D01*
X154139285Y-109044047D02*
X154015476Y-109044047D01*
X153953571Y-109075000D01*
X153922619Y-109105952D01*
X153860714Y-109198809D01*
X153829761Y-109322619D01*
X153829761Y-109570238D01*
X153860714Y-109632142D01*
X153891666Y-109663095D01*
X153953571Y-109694047D01*
X154077380Y-109694047D01*
X154139285Y-109663095D01*
X154170238Y-109632142D01*
X154201190Y-109570238D01*
X154201190Y-109415476D01*
X154170238Y-109353571D01*
X154139285Y-109322619D01*
X154077380Y-109291666D01*
X153953571Y-109291666D01*
X153891666Y-109322619D01*
X153860714Y-109353571D01*
X153829761Y-109415476D01*
X154448809Y-109105952D02*
X154479761Y-109075000D01*
X154541666Y-109044047D01*
X154696428Y-109044047D01*
X154758333Y-109075000D01*
X154789285Y-109105952D01*
X154820238Y-109167857D01*
X154820238Y-109229761D01*
X154789285Y-109322619D01*
X154417857Y-109694047D01*
X154820238Y-109694047D01*
G04 #@! TO.C,R5*
X159394047Y-88208333D02*
X159084523Y-88425000D01*
X159394047Y-88579761D02*
X158744047Y-88579761D01*
X158744047Y-88332142D01*
X158775000Y-88270238D01*
X158805952Y-88239285D01*
X158867857Y-88208333D01*
X158960714Y-88208333D01*
X159022619Y-88239285D01*
X159053571Y-88270238D01*
X159084523Y-88332142D01*
X159084523Y-88579761D01*
X158744047Y-87620238D02*
X158744047Y-87929761D01*
X159053571Y-87960714D01*
X159022619Y-87929761D01*
X158991666Y-87867857D01*
X158991666Y-87713095D01*
X159022619Y-87651190D01*
X159053571Y-87620238D01*
X159115476Y-87589285D01*
X159270238Y-87589285D01*
X159332142Y-87620238D01*
X159363095Y-87651190D01*
X159394047Y-87713095D01*
X159394047Y-87867857D01*
X159363095Y-87929761D01*
X159332142Y-87960714D01*
G04 #@! TO.C,C5*
X131391666Y-95432142D02*
X131360714Y-95463095D01*
X131267857Y-95494047D01*
X131205952Y-95494047D01*
X131113095Y-95463095D01*
X131051190Y-95401190D01*
X131020238Y-95339285D01*
X130989285Y-95215476D01*
X130989285Y-95122619D01*
X131020238Y-94998809D01*
X131051190Y-94936904D01*
X131113095Y-94875000D01*
X131205952Y-94844047D01*
X131267857Y-94844047D01*
X131360714Y-94875000D01*
X131391666Y-94905952D01*
X131979761Y-94844047D02*
X131670238Y-94844047D01*
X131639285Y-95153571D01*
X131670238Y-95122619D01*
X131732142Y-95091666D01*
X131886904Y-95091666D01*
X131948809Y-95122619D01*
X131979761Y-95153571D01*
X132010714Y-95215476D01*
X132010714Y-95370238D01*
X131979761Y-95432142D01*
X131948809Y-95463095D01*
X131886904Y-95494047D01*
X131732142Y-95494047D01*
X131670238Y-95463095D01*
X131639285Y-95432142D01*
G04 #@! TO.C,C24*
X154032142Y-96482142D02*
X154001190Y-96513095D01*
X153908333Y-96544047D01*
X153846428Y-96544047D01*
X153753571Y-96513095D01*
X153691666Y-96451190D01*
X153660714Y-96389285D01*
X153629761Y-96265476D01*
X153629761Y-96172619D01*
X153660714Y-96048809D01*
X153691666Y-95986904D01*
X153753571Y-95925000D01*
X153846428Y-95894047D01*
X153908333Y-95894047D01*
X154001190Y-95925000D01*
X154032142Y-95955952D01*
X154279761Y-95955952D02*
X154310714Y-95925000D01*
X154372619Y-95894047D01*
X154527380Y-95894047D01*
X154589285Y-95925000D01*
X154620238Y-95955952D01*
X154651190Y-96017857D01*
X154651190Y-96079761D01*
X154620238Y-96172619D01*
X154248809Y-96544047D01*
X154651190Y-96544047D01*
X155208333Y-96110714D02*
X155208333Y-96544047D01*
X155053571Y-95863095D02*
X154898809Y-96327380D01*
X155301190Y-96327380D01*
G04 #@! TO.C,C44*
X130982142Y-93982142D02*
X130951190Y-94013095D01*
X130858333Y-94044047D01*
X130796428Y-94044047D01*
X130703571Y-94013095D01*
X130641666Y-93951190D01*
X130610714Y-93889285D01*
X130579761Y-93765476D01*
X130579761Y-93672619D01*
X130610714Y-93548809D01*
X130641666Y-93486904D01*
X130703571Y-93425000D01*
X130796428Y-93394047D01*
X130858333Y-93394047D01*
X130951190Y-93425000D01*
X130982142Y-93455952D01*
X131539285Y-93610714D02*
X131539285Y-94044047D01*
X131384523Y-93363095D02*
X131229761Y-93827380D01*
X131632142Y-93827380D01*
X132158333Y-93610714D02*
X132158333Y-94044047D01*
X132003571Y-93363095D02*
X131848809Y-93827380D01*
X132251190Y-93827380D01*
G04 #@! TO.C,C28*
X144332142Y-87417857D02*
X144363095Y-87448809D01*
X144394047Y-87541666D01*
X144394047Y-87603571D01*
X144363095Y-87696428D01*
X144301190Y-87758333D01*
X144239285Y-87789285D01*
X144115476Y-87820238D01*
X144022619Y-87820238D01*
X143898809Y-87789285D01*
X143836904Y-87758333D01*
X143775000Y-87696428D01*
X143744047Y-87603571D01*
X143744047Y-87541666D01*
X143775000Y-87448809D01*
X143805952Y-87417857D01*
X143805952Y-87170238D02*
X143775000Y-87139285D01*
X143744047Y-87077380D01*
X143744047Y-86922619D01*
X143775000Y-86860714D01*
X143805952Y-86829761D01*
X143867857Y-86798809D01*
X143929761Y-86798809D01*
X144022619Y-86829761D01*
X144394047Y-87201190D01*
X144394047Y-86798809D01*
X144022619Y-86427380D02*
X143991666Y-86489285D01*
X143960714Y-86520238D01*
X143898809Y-86551190D01*
X143867857Y-86551190D01*
X143805952Y-86520238D01*
X143775000Y-86489285D01*
X143744047Y-86427380D01*
X143744047Y-86303571D01*
X143775000Y-86241666D01*
X143805952Y-86210714D01*
X143867857Y-86179761D01*
X143898809Y-86179761D01*
X143960714Y-86210714D01*
X143991666Y-86241666D01*
X144022619Y-86303571D01*
X144022619Y-86427380D01*
X144053571Y-86489285D01*
X144084523Y-86520238D01*
X144146428Y-86551190D01*
X144270238Y-86551190D01*
X144332142Y-86520238D01*
X144363095Y-86489285D01*
X144394047Y-86427380D01*
X144394047Y-86303571D01*
X144363095Y-86241666D01*
X144332142Y-86210714D01*
X144270238Y-86179761D01*
X144146428Y-86179761D01*
X144084523Y-86210714D01*
X144053571Y-86241666D01*
X144022619Y-86303571D01*
G04 #@! TO.C,R4*
X146241666Y-76344047D02*
X146025000Y-76034523D01*
X145870238Y-76344047D02*
X145870238Y-75694047D01*
X146117857Y-75694047D01*
X146179761Y-75725000D01*
X146210714Y-75755952D01*
X146241666Y-75817857D01*
X146241666Y-75910714D01*
X146210714Y-75972619D01*
X146179761Y-76003571D01*
X146117857Y-76034523D01*
X145870238Y-76034523D01*
X146798809Y-75910714D02*
X146798809Y-76344047D01*
X146644047Y-75663095D02*
X146489285Y-76127380D01*
X146891666Y-76127380D01*
G04 #@! TO.C,U3*
X153054761Y-76244047D02*
X153054761Y-76770238D01*
X153085714Y-76832142D01*
X153116666Y-76863095D01*
X153178571Y-76894047D01*
X153302380Y-76894047D01*
X153364285Y-76863095D01*
X153395238Y-76832142D01*
X153426190Y-76770238D01*
X153426190Y-76244047D01*
X153673809Y-76244047D02*
X154076190Y-76244047D01*
X153859523Y-76491666D01*
X153952380Y-76491666D01*
X154014285Y-76522619D01*
X154045238Y-76553571D01*
X154076190Y-76615476D01*
X154076190Y-76770238D01*
X154045238Y-76832142D01*
X154014285Y-76863095D01*
X153952380Y-76894047D01*
X153766666Y-76894047D01*
X153704761Y-76863095D01*
X153673809Y-76832142D01*
G04 #@! TO.C,C21*
X139032142Y-84317857D02*
X139063095Y-84348809D01*
X139094047Y-84441666D01*
X139094047Y-84503571D01*
X139063095Y-84596428D01*
X139001190Y-84658333D01*
X138939285Y-84689285D01*
X138815476Y-84720238D01*
X138722619Y-84720238D01*
X138598809Y-84689285D01*
X138536904Y-84658333D01*
X138475000Y-84596428D01*
X138444047Y-84503571D01*
X138444047Y-84441666D01*
X138475000Y-84348809D01*
X138505952Y-84317857D01*
X138505952Y-84070238D02*
X138475000Y-84039285D01*
X138444047Y-83977380D01*
X138444047Y-83822619D01*
X138475000Y-83760714D01*
X138505952Y-83729761D01*
X138567857Y-83698809D01*
X138629761Y-83698809D01*
X138722619Y-83729761D01*
X139094047Y-84101190D01*
X139094047Y-83698809D01*
X139094047Y-83079761D02*
X139094047Y-83451190D01*
X139094047Y-83265476D02*
X138444047Y-83265476D01*
X138536904Y-83327380D01*
X138598809Y-83389285D01*
X138629761Y-83451190D01*
G04 #@! TO.C,FL2*
X165020238Y-98003571D02*
X164803571Y-98003571D01*
X164803571Y-98344047D02*
X164803571Y-97694047D01*
X165113095Y-97694047D01*
X165670238Y-98344047D02*
X165360714Y-98344047D01*
X165360714Y-97694047D01*
X165855952Y-97755952D02*
X165886904Y-97725000D01*
X165948809Y-97694047D01*
X166103571Y-97694047D01*
X166165476Y-97725000D01*
X166196428Y-97755952D01*
X166227380Y-97817857D01*
X166227380Y-97879761D01*
X166196428Y-97972619D01*
X165825000Y-98344047D01*
X166227380Y-98344047D01*
G04 #@! TO.C,C38*
X142072142Y-84437857D02*
X142103095Y-84468809D01*
X142134047Y-84561666D01*
X142134047Y-84623571D01*
X142103095Y-84716428D01*
X142041190Y-84778333D01*
X141979285Y-84809285D01*
X141855476Y-84840238D01*
X141762619Y-84840238D01*
X141638809Y-84809285D01*
X141576904Y-84778333D01*
X141515000Y-84716428D01*
X141484047Y-84623571D01*
X141484047Y-84561666D01*
X141515000Y-84468809D01*
X141545952Y-84437857D01*
X141484047Y-84221190D02*
X141484047Y-83818809D01*
X141731666Y-84035476D01*
X141731666Y-83942619D01*
X141762619Y-83880714D01*
X141793571Y-83849761D01*
X141855476Y-83818809D01*
X142010238Y-83818809D01*
X142072142Y-83849761D01*
X142103095Y-83880714D01*
X142134047Y-83942619D01*
X142134047Y-84128333D01*
X142103095Y-84190238D01*
X142072142Y-84221190D01*
X141762619Y-83447380D02*
X141731666Y-83509285D01*
X141700714Y-83540238D01*
X141638809Y-83571190D01*
X141607857Y-83571190D01*
X141545952Y-83540238D01*
X141515000Y-83509285D01*
X141484047Y-83447380D01*
X141484047Y-83323571D01*
X141515000Y-83261666D01*
X141545952Y-83230714D01*
X141607857Y-83199761D01*
X141638809Y-83199761D01*
X141700714Y-83230714D01*
X141731666Y-83261666D01*
X141762619Y-83323571D01*
X141762619Y-83447380D01*
X141793571Y-83509285D01*
X141824523Y-83540238D01*
X141886428Y-83571190D01*
X142010238Y-83571190D01*
X142072142Y-83540238D01*
X142103095Y-83509285D01*
X142134047Y-83447380D01*
X142134047Y-83323571D01*
X142103095Y-83261666D01*
X142072142Y-83230714D01*
X142010238Y-83199761D01*
X141886428Y-83199761D01*
X141824523Y-83230714D01*
X141793571Y-83261666D01*
X141762619Y-83323571D01*
G04 #@! TO.C,C61*
X160732142Y-105282142D02*
X160701190Y-105313095D01*
X160608333Y-105344047D01*
X160546428Y-105344047D01*
X160453571Y-105313095D01*
X160391666Y-105251190D01*
X160360714Y-105189285D01*
X160329761Y-105065476D01*
X160329761Y-104972619D01*
X160360714Y-104848809D01*
X160391666Y-104786904D01*
X160453571Y-104725000D01*
X160546428Y-104694047D01*
X160608333Y-104694047D01*
X160701190Y-104725000D01*
X160732142Y-104755952D01*
X161289285Y-104694047D02*
X161165476Y-104694047D01*
X161103571Y-104725000D01*
X161072619Y-104755952D01*
X161010714Y-104848809D01*
X160979761Y-104972619D01*
X160979761Y-105220238D01*
X161010714Y-105282142D01*
X161041666Y-105313095D01*
X161103571Y-105344047D01*
X161227380Y-105344047D01*
X161289285Y-105313095D01*
X161320238Y-105282142D01*
X161351190Y-105220238D01*
X161351190Y-105065476D01*
X161320238Y-105003571D01*
X161289285Y-104972619D01*
X161227380Y-104941666D01*
X161103571Y-104941666D01*
X161041666Y-104972619D01*
X161010714Y-105003571D01*
X160979761Y-105065476D01*
X161970238Y-105344047D02*
X161598809Y-105344047D01*
X161784523Y-105344047D02*
X161784523Y-104694047D01*
X161722619Y-104786904D01*
X161660714Y-104848809D01*
X161598809Y-104879761D01*
G04 #@! TO.C,C52*
X160682142Y-90482142D02*
X160651190Y-90513095D01*
X160558333Y-90544047D01*
X160496428Y-90544047D01*
X160403571Y-90513095D01*
X160341666Y-90451190D01*
X160310714Y-90389285D01*
X160279761Y-90265476D01*
X160279761Y-90172619D01*
X160310714Y-90048809D01*
X160341666Y-89986904D01*
X160403571Y-89925000D01*
X160496428Y-89894047D01*
X160558333Y-89894047D01*
X160651190Y-89925000D01*
X160682142Y-89955952D01*
X161270238Y-89894047D02*
X160960714Y-89894047D01*
X160929761Y-90203571D01*
X160960714Y-90172619D01*
X161022619Y-90141666D01*
X161177380Y-90141666D01*
X161239285Y-90172619D01*
X161270238Y-90203571D01*
X161301190Y-90265476D01*
X161301190Y-90420238D01*
X161270238Y-90482142D01*
X161239285Y-90513095D01*
X161177380Y-90544047D01*
X161022619Y-90544047D01*
X160960714Y-90513095D01*
X160929761Y-90482142D01*
X161548809Y-89955952D02*
X161579761Y-89925000D01*
X161641666Y-89894047D01*
X161796428Y-89894047D01*
X161858333Y-89925000D01*
X161889285Y-89955952D01*
X161920238Y-90017857D01*
X161920238Y-90079761D01*
X161889285Y-90172619D01*
X161517857Y-90544047D01*
X161920238Y-90544047D01*
G04 #@! TO.C,C60*
X154032142Y-93782142D02*
X154001190Y-93813095D01*
X153908333Y-93844047D01*
X153846428Y-93844047D01*
X153753571Y-93813095D01*
X153691666Y-93751190D01*
X153660714Y-93689285D01*
X153629761Y-93565476D01*
X153629761Y-93472619D01*
X153660714Y-93348809D01*
X153691666Y-93286904D01*
X153753571Y-93225000D01*
X153846428Y-93194047D01*
X153908333Y-93194047D01*
X154001190Y-93225000D01*
X154032142Y-93255952D01*
X154589285Y-93194047D02*
X154465476Y-93194047D01*
X154403571Y-93225000D01*
X154372619Y-93255952D01*
X154310714Y-93348809D01*
X154279761Y-93472619D01*
X154279761Y-93720238D01*
X154310714Y-93782142D01*
X154341666Y-93813095D01*
X154403571Y-93844047D01*
X154527380Y-93844047D01*
X154589285Y-93813095D01*
X154620238Y-93782142D01*
X154651190Y-93720238D01*
X154651190Y-93565476D01*
X154620238Y-93503571D01*
X154589285Y-93472619D01*
X154527380Y-93441666D01*
X154403571Y-93441666D01*
X154341666Y-93472619D01*
X154310714Y-93503571D01*
X154279761Y-93565476D01*
X155053571Y-93194047D02*
X155115476Y-93194047D01*
X155177380Y-93225000D01*
X155208333Y-93255952D01*
X155239285Y-93317857D01*
X155270238Y-93441666D01*
X155270238Y-93596428D01*
X155239285Y-93720238D01*
X155208333Y-93782142D01*
X155177380Y-93813095D01*
X155115476Y-93844047D01*
X155053571Y-93844047D01*
X154991666Y-93813095D01*
X154960714Y-93782142D01*
X154929761Y-93720238D01*
X154898809Y-93596428D01*
X154898809Y-93441666D01*
X154929761Y-93317857D01*
X154960714Y-93255952D01*
X154991666Y-93225000D01*
X155053571Y-93194047D01*
G04 #@! TO.C,C49*
X142172142Y-111417857D02*
X142203095Y-111448809D01*
X142234047Y-111541666D01*
X142234047Y-111603571D01*
X142203095Y-111696428D01*
X142141190Y-111758333D01*
X142079285Y-111789285D01*
X141955476Y-111820238D01*
X141862619Y-111820238D01*
X141738809Y-111789285D01*
X141676904Y-111758333D01*
X141615000Y-111696428D01*
X141584047Y-111603571D01*
X141584047Y-111541666D01*
X141615000Y-111448809D01*
X141645952Y-111417857D01*
X141800714Y-110860714D02*
X142234047Y-110860714D01*
X141553095Y-111015476D02*
X142017380Y-111170238D01*
X142017380Y-110767857D01*
X142234047Y-110489285D02*
X142234047Y-110365476D01*
X142203095Y-110303571D01*
X142172142Y-110272619D01*
X142079285Y-110210714D01*
X141955476Y-110179761D01*
X141707857Y-110179761D01*
X141645952Y-110210714D01*
X141615000Y-110241666D01*
X141584047Y-110303571D01*
X141584047Y-110427380D01*
X141615000Y-110489285D01*
X141645952Y-110520238D01*
X141707857Y-110551190D01*
X141862619Y-110551190D01*
X141924523Y-110520238D01*
X141955476Y-110489285D01*
X141986428Y-110427380D01*
X141986428Y-110303571D01*
X141955476Y-110241666D01*
X141924523Y-110210714D01*
X141862619Y-110179761D01*
G04 #@! TO.C,C13*
X150882142Y-79317857D02*
X150913095Y-79348809D01*
X150944047Y-79441666D01*
X150944047Y-79503571D01*
X150913095Y-79596428D01*
X150851190Y-79658333D01*
X150789285Y-79689285D01*
X150665476Y-79720238D01*
X150572619Y-79720238D01*
X150448809Y-79689285D01*
X150386904Y-79658333D01*
X150325000Y-79596428D01*
X150294047Y-79503571D01*
X150294047Y-79441666D01*
X150325000Y-79348809D01*
X150355952Y-79317857D01*
X150944047Y-78698809D02*
X150944047Y-79070238D01*
X150944047Y-78884523D02*
X150294047Y-78884523D01*
X150386904Y-78946428D01*
X150448809Y-79008333D01*
X150479761Y-79070238D01*
X150294047Y-78482142D02*
X150294047Y-78079761D01*
X150541666Y-78296428D01*
X150541666Y-78203571D01*
X150572619Y-78141666D01*
X150603571Y-78110714D01*
X150665476Y-78079761D01*
X150820238Y-78079761D01*
X150882142Y-78110714D01*
X150913095Y-78141666D01*
X150944047Y-78203571D01*
X150944047Y-78389285D01*
X150913095Y-78451190D01*
X150882142Y-78482142D01*
G04 #@! TO.C,C31*
X135232142Y-113317857D02*
X135263095Y-113348809D01*
X135294047Y-113441666D01*
X135294047Y-113503571D01*
X135263095Y-113596428D01*
X135201190Y-113658333D01*
X135139285Y-113689285D01*
X135015476Y-113720238D01*
X134922619Y-113720238D01*
X134798809Y-113689285D01*
X134736904Y-113658333D01*
X134675000Y-113596428D01*
X134644047Y-113503571D01*
X134644047Y-113441666D01*
X134675000Y-113348809D01*
X134705952Y-113317857D01*
X134644047Y-113101190D02*
X134644047Y-112698809D01*
X134891666Y-112915476D01*
X134891666Y-112822619D01*
X134922619Y-112760714D01*
X134953571Y-112729761D01*
X135015476Y-112698809D01*
X135170238Y-112698809D01*
X135232142Y-112729761D01*
X135263095Y-112760714D01*
X135294047Y-112822619D01*
X135294047Y-113008333D01*
X135263095Y-113070238D01*
X135232142Y-113101190D01*
X135294047Y-112079761D02*
X135294047Y-112451190D01*
X135294047Y-112265476D02*
X134644047Y-112265476D01*
X134736904Y-112327380D01*
X134798809Y-112389285D01*
X134829761Y-112451190D01*
G04 #@! TO.C,C7*
X131441666Y-98432142D02*
X131410714Y-98463095D01*
X131317857Y-98494047D01*
X131255952Y-98494047D01*
X131163095Y-98463095D01*
X131101190Y-98401190D01*
X131070238Y-98339285D01*
X131039285Y-98215476D01*
X131039285Y-98122619D01*
X131070238Y-97998809D01*
X131101190Y-97936904D01*
X131163095Y-97875000D01*
X131255952Y-97844047D01*
X131317857Y-97844047D01*
X131410714Y-97875000D01*
X131441666Y-97905952D01*
X131658333Y-97844047D02*
X132091666Y-97844047D01*
X131813095Y-98494047D01*
G04 #@! TO.C,L1*
X140391666Y-83294047D02*
X140082142Y-83294047D01*
X140082142Y-82644047D01*
X140948809Y-83294047D02*
X140577380Y-83294047D01*
X140763095Y-83294047D02*
X140763095Y-82644047D01*
X140701190Y-82736904D01*
X140639285Y-82798809D01*
X140577380Y-82829761D01*
G04 #@! TO.C,C42*
X154032142Y-91432142D02*
X154001190Y-91463095D01*
X153908333Y-91494047D01*
X153846428Y-91494047D01*
X153753571Y-91463095D01*
X153691666Y-91401190D01*
X153660714Y-91339285D01*
X153629761Y-91215476D01*
X153629761Y-91122619D01*
X153660714Y-90998809D01*
X153691666Y-90936904D01*
X153753571Y-90875000D01*
X153846428Y-90844047D01*
X153908333Y-90844047D01*
X154001190Y-90875000D01*
X154032142Y-90905952D01*
X154589285Y-91060714D02*
X154589285Y-91494047D01*
X154434523Y-90813095D02*
X154279761Y-91277380D01*
X154682142Y-91277380D01*
X154898809Y-90905952D02*
X154929761Y-90875000D01*
X154991666Y-90844047D01*
X155146428Y-90844047D01*
X155208333Y-90875000D01*
X155239285Y-90905952D01*
X155270238Y-90967857D01*
X155270238Y-91029761D01*
X155239285Y-91122619D01*
X154867857Y-91494047D01*
X155270238Y-91494047D01*
G04 #@! TO.C,FB3*
X149003571Y-77191666D02*
X149003571Y-77408333D01*
X149344047Y-77408333D02*
X148694047Y-77408333D01*
X148694047Y-77098809D01*
X149003571Y-76634523D02*
X149034523Y-76541666D01*
X149065476Y-76510714D01*
X149127380Y-76479761D01*
X149220238Y-76479761D01*
X149282142Y-76510714D01*
X149313095Y-76541666D01*
X149344047Y-76603571D01*
X149344047Y-76851190D01*
X148694047Y-76851190D01*
X148694047Y-76634523D01*
X148725000Y-76572619D01*
X148755952Y-76541666D01*
X148817857Y-76510714D01*
X148879761Y-76510714D01*
X148941666Y-76541666D01*
X148972619Y-76572619D01*
X149003571Y-76634523D01*
X149003571Y-76851190D01*
X148694047Y-76263095D02*
X148694047Y-75860714D01*
X148941666Y-76077380D01*
X148941666Y-75984523D01*
X148972619Y-75922619D01*
X149003571Y-75891666D01*
X149065476Y-75860714D01*
X149220238Y-75860714D01*
X149282142Y-75891666D01*
X149313095Y-75922619D01*
X149344047Y-75984523D01*
X149344047Y-76170238D01*
X149313095Y-76232142D01*
X149282142Y-76263095D01*
G04 #@! TO.C,C35*
X151532142Y-84767857D02*
X151563095Y-84798809D01*
X151594047Y-84891666D01*
X151594047Y-84953571D01*
X151563095Y-85046428D01*
X151501190Y-85108333D01*
X151439285Y-85139285D01*
X151315476Y-85170238D01*
X151222619Y-85170238D01*
X151098809Y-85139285D01*
X151036904Y-85108333D01*
X150975000Y-85046428D01*
X150944047Y-84953571D01*
X150944047Y-84891666D01*
X150975000Y-84798809D01*
X151005952Y-84767857D01*
X150944047Y-84551190D02*
X150944047Y-84148809D01*
X151191666Y-84365476D01*
X151191666Y-84272619D01*
X151222619Y-84210714D01*
X151253571Y-84179761D01*
X151315476Y-84148809D01*
X151470238Y-84148809D01*
X151532142Y-84179761D01*
X151563095Y-84210714D01*
X151594047Y-84272619D01*
X151594047Y-84458333D01*
X151563095Y-84520238D01*
X151532142Y-84551190D01*
X150944047Y-83560714D02*
X150944047Y-83870238D01*
X151253571Y-83901190D01*
X151222619Y-83870238D01*
X151191666Y-83808333D01*
X151191666Y-83653571D01*
X151222619Y-83591666D01*
X151253571Y-83560714D01*
X151315476Y-83529761D01*
X151470238Y-83529761D01*
X151532142Y-83560714D01*
X151563095Y-83591666D01*
X151594047Y-83653571D01*
X151594047Y-83808333D01*
X151563095Y-83870238D01*
X151532142Y-83901190D01*
G04 #@! TO.C,FB2*
X159308333Y-114753571D02*
X159091666Y-114753571D01*
X159091666Y-115094047D02*
X159091666Y-114444047D01*
X159401190Y-114444047D01*
X159865476Y-114753571D02*
X159958333Y-114784523D01*
X159989285Y-114815476D01*
X160020238Y-114877380D01*
X160020238Y-114970238D01*
X159989285Y-115032142D01*
X159958333Y-115063095D01*
X159896428Y-115094047D01*
X159648809Y-115094047D01*
X159648809Y-114444047D01*
X159865476Y-114444047D01*
X159927380Y-114475000D01*
X159958333Y-114505952D01*
X159989285Y-114567857D01*
X159989285Y-114629761D01*
X159958333Y-114691666D01*
X159927380Y-114722619D01*
X159865476Y-114753571D01*
X159648809Y-114753571D01*
X160267857Y-114505952D02*
X160298809Y-114475000D01*
X160360714Y-114444047D01*
X160515476Y-114444047D01*
X160577380Y-114475000D01*
X160608333Y-114505952D01*
X160639285Y-114567857D01*
X160639285Y-114629761D01*
X160608333Y-114722619D01*
X160236904Y-115094047D01*
X160639285Y-115094047D01*
G04 #@! TO.C,R9*
X161991666Y-88994047D02*
X161775000Y-88684523D01*
X161620238Y-88994047D02*
X161620238Y-88344047D01*
X161867857Y-88344047D01*
X161929761Y-88375000D01*
X161960714Y-88405952D01*
X161991666Y-88467857D01*
X161991666Y-88560714D01*
X161960714Y-88622619D01*
X161929761Y-88653571D01*
X161867857Y-88684523D01*
X161620238Y-88684523D01*
X162301190Y-88994047D02*
X162425000Y-88994047D01*
X162486904Y-88963095D01*
X162517857Y-88932142D01*
X162579761Y-88839285D01*
X162610714Y-88715476D01*
X162610714Y-88467857D01*
X162579761Y-88405952D01*
X162548809Y-88375000D01*
X162486904Y-88344047D01*
X162363095Y-88344047D01*
X162301190Y-88375000D01*
X162270238Y-88405952D01*
X162239285Y-88467857D01*
X162239285Y-88622619D01*
X162270238Y-88684523D01*
X162301190Y-88715476D01*
X162363095Y-88746428D01*
X162486904Y-88746428D01*
X162548809Y-88715476D01*
X162579761Y-88684523D01*
X162610714Y-88622619D01*
G04 #@! TO.C,C50*
X136282142Y-82417857D02*
X136313095Y-82448809D01*
X136344047Y-82541666D01*
X136344047Y-82603571D01*
X136313095Y-82696428D01*
X136251190Y-82758333D01*
X136189285Y-82789285D01*
X136065476Y-82820238D01*
X135972619Y-82820238D01*
X135848809Y-82789285D01*
X135786904Y-82758333D01*
X135725000Y-82696428D01*
X135694047Y-82603571D01*
X135694047Y-82541666D01*
X135725000Y-82448809D01*
X135755952Y-82417857D01*
X135694047Y-81829761D02*
X135694047Y-82139285D01*
X136003571Y-82170238D01*
X135972619Y-82139285D01*
X135941666Y-82077380D01*
X135941666Y-81922619D01*
X135972619Y-81860714D01*
X136003571Y-81829761D01*
X136065476Y-81798809D01*
X136220238Y-81798809D01*
X136282142Y-81829761D01*
X136313095Y-81860714D01*
X136344047Y-81922619D01*
X136344047Y-82077380D01*
X136313095Y-82139285D01*
X136282142Y-82170238D01*
X135694047Y-81396428D02*
X135694047Y-81334523D01*
X135725000Y-81272619D01*
X135755952Y-81241666D01*
X135817857Y-81210714D01*
X135941666Y-81179761D01*
X136096428Y-81179761D01*
X136220238Y-81210714D01*
X136282142Y-81241666D01*
X136313095Y-81272619D01*
X136344047Y-81334523D01*
X136344047Y-81396428D01*
X136313095Y-81458333D01*
X136282142Y-81489285D01*
X136220238Y-81520238D01*
X136096428Y-81551190D01*
X135941666Y-81551190D01*
X135817857Y-81520238D01*
X135755952Y-81489285D01*
X135725000Y-81458333D01*
X135694047Y-81396428D01*
G04 #@! TO.C,C47*
X145392142Y-111417857D02*
X145423095Y-111448809D01*
X145454047Y-111541666D01*
X145454047Y-111603571D01*
X145423095Y-111696428D01*
X145361190Y-111758333D01*
X145299285Y-111789285D01*
X145175476Y-111820238D01*
X145082619Y-111820238D01*
X144958809Y-111789285D01*
X144896904Y-111758333D01*
X144835000Y-111696428D01*
X144804047Y-111603571D01*
X144804047Y-111541666D01*
X144835000Y-111448809D01*
X144865952Y-111417857D01*
X145020714Y-110860714D02*
X145454047Y-110860714D01*
X144773095Y-111015476D02*
X145237380Y-111170238D01*
X145237380Y-110767857D01*
X144804047Y-110582142D02*
X144804047Y-110148809D01*
X145454047Y-110427380D01*
G04 #@! TO.C,C2*
X154291666Y-104432142D02*
X154260714Y-104463095D01*
X154167857Y-104494047D01*
X154105952Y-104494047D01*
X154013095Y-104463095D01*
X153951190Y-104401190D01*
X153920238Y-104339285D01*
X153889285Y-104215476D01*
X153889285Y-104122619D01*
X153920238Y-103998809D01*
X153951190Y-103936904D01*
X154013095Y-103875000D01*
X154105952Y-103844047D01*
X154167857Y-103844047D01*
X154260714Y-103875000D01*
X154291666Y-103905952D01*
X154539285Y-103905952D02*
X154570238Y-103875000D01*
X154632142Y-103844047D01*
X154786904Y-103844047D01*
X154848809Y-103875000D01*
X154879761Y-103905952D01*
X154910714Y-103967857D01*
X154910714Y-104029761D01*
X154879761Y-104122619D01*
X154508333Y-104494047D01*
X154910714Y-104494047D01*
G04 #@! TO.C,C10*
X157882142Y-81917857D02*
X157913095Y-81948809D01*
X157944047Y-82041666D01*
X157944047Y-82103571D01*
X157913095Y-82196428D01*
X157851190Y-82258333D01*
X157789285Y-82289285D01*
X157665476Y-82320238D01*
X157572619Y-82320238D01*
X157448809Y-82289285D01*
X157386904Y-82258333D01*
X157325000Y-82196428D01*
X157294047Y-82103571D01*
X157294047Y-82041666D01*
X157325000Y-81948809D01*
X157355952Y-81917857D01*
X157944047Y-81298809D02*
X157944047Y-81670238D01*
X157944047Y-81484523D02*
X157294047Y-81484523D01*
X157386904Y-81546428D01*
X157448809Y-81608333D01*
X157479761Y-81670238D01*
X157294047Y-80896428D02*
X157294047Y-80834523D01*
X157325000Y-80772619D01*
X157355952Y-80741666D01*
X157417857Y-80710714D01*
X157541666Y-80679761D01*
X157696428Y-80679761D01*
X157820238Y-80710714D01*
X157882142Y-80741666D01*
X157913095Y-80772619D01*
X157944047Y-80834523D01*
X157944047Y-80896428D01*
X157913095Y-80958333D01*
X157882142Y-80989285D01*
X157820238Y-81020238D01*
X157696428Y-81051190D01*
X157541666Y-81051190D01*
X157417857Y-81020238D01*
X157355952Y-80989285D01*
X157325000Y-80958333D01*
X157294047Y-80896428D01*
G04 #@! TO.C,C22*
X134682142Y-82417857D02*
X134713095Y-82448809D01*
X134744047Y-82541666D01*
X134744047Y-82603571D01*
X134713095Y-82696428D01*
X134651190Y-82758333D01*
X134589285Y-82789285D01*
X134465476Y-82820238D01*
X134372619Y-82820238D01*
X134248809Y-82789285D01*
X134186904Y-82758333D01*
X134125000Y-82696428D01*
X134094047Y-82603571D01*
X134094047Y-82541666D01*
X134125000Y-82448809D01*
X134155952Y-82417857D01*
X134155952Y-82170238D02*
X134125000Y-82139285D01*
X134094047Y-82077380D01*
X134094047Y-81922619D01*
X134125000Y-81860714D01*
X134155952Y-81829761D01*
X134217857Y-81798809D01*
X134279761Y-81798809D01*
X134372619Y-81829761D01*
X134744047Y-82201190D01*
X134744047Y-81798809D01*
X134155952Y-81551190D02*
X134125000Y-81520238D01*
X134094047Y-81458333D01*
X134094047Y-81303571D01*
X134125000Y-81241666D01*
X134155952Y-81210714D01*
X134217857Y-81179761D01*
X134279761Y-81179761D01*
X134372619Y-81210714D01*
X134744047Y-81582142D01*
X134744047Y-81179761D01*
G04 #@! TO.C,R11*
X128269047Y-98867857D02*
X127959523Y-99084523D01*
X128269047Y-99239285D02*
X127619047Y-99239285D01*
X127619047Y-98991666D01*
X127650000Y-98929761D01*
X127680952Y-98898809D01*
X127742857Y-98867857D01*
X127835714Y-98867857D01*
X127897619Y-98898809D01*
X127928571Y-98929761D01*
X127959523Y-98991666D01*
X127959523Y-99239285D01*
X128269047Y-98248809D02*
X128269047Y-98620238D01*
X128269047Y-98434523D02*
X127619047Y-98434523D01*
X127711904Y-98496428D01*
X127773809Y-98558333D01*
X127804761Y-98620238D01*
X128269047Y-97629761D02*
X128269047Y-98001190D01*
X128269047Y-97815476D02*
X127619047Y-97815476D01*
X127711904Y-97877380D01*
X127773809Y-97939285D01*
X127804761Y-98001190D01*
G04 #@! TO.C,C54*
X160732142Y-107432142D02*
X160701190Y-107463095D01*
X160608333Y-107494047D01*
X160546428Y-107494047D01*
X160453571Y-107463095D01*
X160391666Y-107401190D01*
X160360714Y-107339285D01*
X160329761Y-107215476D01*
X160329761Y-107122619D01*
X160360714Y-106998809D01*
X160391666Y-106936904D01*
X160453571Y-106875000D01*
X160546428Y-106844047D01*
X160608333Y-106844047D01*
X160701190Y-106875000D01*
X160732142Y-106905952D01*
X161320238Y-106844047D02*
X161010714Y-106844047D01*
X160979761Y-107153571D01*
X161010714Y-107122619D01*
X161072619Y-107091666D01*
X161227380Y-107091666D01*
X161289285Y-107122619D01*
X161320238Y-107153571D01*
X161351190Y-107215476D01*
X161351190Y-107370238D01*
X161320238Y-107432142D01*
X161289285Y-107463095D01*
X161227380Y-107494047D01*
X161072619Y-107494047D01*
X161010714Y-107463095D01*
X160979761Y-107432142D01*
X161908333Y-107060714D02*
X161908333Y-107494047D01*
X161753571Y-106813095D02*
X161598809Y-107277380D01*
X162001190Y-107277380D01*
G04 #@! TO.C,C25*
X133282142Y-109232142D02*
X133251190Y-109263095D01*
X133158333Y-109294047D01*
X133096428Y-109294047D01*
X133003571Y-109263095D01*
X132941666Y-109201190D01*
X132910714Y-109139285D01*
X132879761Y-109015476D01*
X132879761Y-108922619D01*
X132910714Y-108798809D01*
X132941666Y-108736904D01*
X133003571Y-108675000D01*
X133096428Y-108644047D01*
X133158333Y-108644047D01*
X133251190Y-108675000D01*
X133282142Y-108705952D01*
X133529761Y-108705952D02*
X133560714Y-108675000D01*
X133622619Y-108644047D01*
X133777380Y-108644047D01*
X133839285Y-108675000D01*
X133870238Y-108705952D01*
X133901190Y-108767857D01*
X133901190Y-108829761D01*
X133870238Y-108922619D01*
X133498809Y-109294047D01*
X133901190Y-109294047D01*
X134489285Y-108644047D02*
X134179761Y-108644047D01*
X134148809Y-108953571D01*
X134179761Y-108922619D01*
X134241666Y-108891666D01*
X134396428Y-108891666D01*
X134458333Y-108922619D01*
X134489285Y-108953571D01*
X134520238Y-109015476D01*
X134520238Y-109170238D01*
X134489285Y-109232142D01*
X134458333Y-109263095D01*
X134396428Y-109294047D01*
X134241666Y-109294047D01*
X134179761Y-109263095D01*
X134148809Y-109232142D01*
G04 #@! TO.C,U1*
X143154761Y-81044047D02*
X143154761Y-81570238D01*
X143185714Y-81632142D01*
X143216666Y-81663095D01*
X143278571Y-81694047D01*
X143402380Y-81694047D01*
X143464285Y-81663095D01*
X143495238Y-81632142D01*
X143526190Y-81570238D01*
X143526190Y-81044047D01*
X144176190Y-81694047D02*
X143804761Y-81694047D01*
X143990476Y-81694047D02*
X143990476Y-81044047D01*
X143928571Y-81136904D01*
X143866666Y-81198809D01*
X143804761Y-81229761D01*
G04 #@! TO.C,C67*
X129632142Y-88542857D02*
X129663095Y-88573809D01*
X129694047Y-88666666D01*
X129694047Y-88728571D01*
X129663095Y-88821428D01*
X129601190Y-88883333D01*
X129539285Y-88914285D01*
X129415476Y-88945238D01*
X129322619Y-88945238D01*
X129198809Y-88914285D01*
X129136904Y-88883333D01*
X129075000Y-88821428D01*
X129044047Y-88728571D01*
X129044047Y-88666666D01*
X129075000Y-88573809D01*
X129105952Y-88542857D01*
X129044047Y-87985714D02*
X129044047Y-88109523D01*
X129075000Y-88171428D01*
X129105952Y-88202380D01*
X129198809Y-88264285D01*
X129322619Y-88295238D01*
X129570238Y-88295238D01*
X129632142Y-88264285D01*
X129663095Y-88233333D01*
X129694047Y-88171428D01*
X129694047Y-88047619D01*
X129663095Y-87985714D01*
X129632142Y-87954761D01*
X129570238Y-87923809D01*
X129415476Y-87923809D01*
X129353571Y-87954761D01*
X129322619Y-87985714D01*
X129291666Y-88047619D01*
X129291666Y-88171428D01*
X129322619Y-88233333D01*
X129353571Y-88264285D01*
X129415476Y-88295238D01*
X129044047Y-87707142D02*
X129044047Y-87273809D01*
X129694047Y-87552380D01*
G04 #@! TO.C,C12*
X139382142Y-78817857D02*
X139413095Y-78848809D01*
X139444047Y-78941666D01*
X139444047Y-79003571D01*
X139413095Y-79096428D01*
X139351190Y-79158333D01*
X139289285Y-79189285D01*
X139165476Y-79220238D01*
X139072619Y-79220238D01*
X138948809Y-79189285D01*
X138886904Y-79158333D01*
X138825000Y-79096428D01*
X138794047Y-79003571D01*
X138794047Y-78941666D01*
X138825000Y-78848809D01*
X138855952Y-78817857D01*
X139444047Y-78198809D02*
X139444047Y-78570238D01*
X139444047Y-78384523D02*
X138794047Y-78384523D01*
X138886904Y-78446428D01*
X138948809Y-78508333D01*
X138979761Y-78570238D01*
X138855952Y-77951190D02*
X138825000Y-77920238D01*
X138794047Y-77858333D01*
X138794047Y-77703571D01*
X138825000Y-77641666D01*
X138855952Y-77610714D01*
X138917857Y-77579761D01*
X138979761Y-77579761D01*
X139072619Y-77610714D01*
X139444047Y-77982142D01*
X139444047Y-77579761D01*
G04 #@! TO.C,J9*
X162644047Y-102116666D02*
X163108333Y-102116666D01*
X163201190Y-102147619D01*
X163263095Y-102209523D01*
X163294047Y-102302380D01*
X163294047Y-102364285D01*
X163294047Y-101776190D02*
X163294047Y-101652380D01*
X163263095Y-101590476D01*
X163232142Y-101559523D01*
X163139285Y-101497619D01*
X163015476Y-101466666D01*
X162767857Y-101466666D01*
X162705952Y-101497619D01*
X162675000Y-101528571D01*
X162644047Y-101590476D01*
X162644047Y-101714285D01*
X162675000Y-101776190D01*
X162705952Y-101807142D01*
X162767857Y-101838095D01*
X162922619Y-101838095D01*
X162984523Y-101807142D01*
X163015476Y-101776190D01*
X163046428Y-101714285D01*
X163046428Y-101590476D01*
X163015476Y-101528571D01*
X162984523Y-101497619D01*
X162922619Y-101466666D01*
G04 #@! TO.C,C39*
X151532142Y-111617857D02*
X151563095Y-111648809D01*
X151594047Y-111741666D01*
X151594047Y-111803571D01*
X151563095Y-111896428D01*
X151501190Y-111958333D01*
X151439285Y-111989285D01*
X151315476Y-112020238D01*
X151222619Y-112020238D01*
X151098809Y-111989285D01*
X151036904Y-111958333D01*
X150975000Y-111896428D01*
X150944047Y-111803571D01*
X150944047Y-111741666D01*
X150975000Y-111648809D01*
X151005952Y-111617857D01*
X150944047Y-111401190D02*
X150944047Y-110998809D01*
X151191666Y-111215476D01*
X151191666Y-111122619D01*
X151222619Y-111060714D01*
X151253571Y-111029761D01*
X151315476Y-110998809D01*
X151470238Y-110998809D01*
X151532142Y-111029761D01*
X151563095Y-111060714D01*
X151594047Y-111122619D01*
X151594047Y-111308333D01*
X151563095Y-111370238D01*
X151532142Y-111401190D01*
X151594047Y-110689285D02*
X151594047Y-110565476D01*
X151563095Y-110503571D01*
X151532142Y-110472619D01*
X151439285Y-110410714D01*
X151315476Y-110379761D01*
X151067857Y-110379761D01*
X151005952Y-110410714D01*
X150975000Y-110441666D01*
X150944047Y-110503571D01*
X150944047Y-110627380D01*
X150975000Y-110689285D01*
X151005952Y-110720238D01*
X151067857Y-110751190D01*
X151222619Y-110751190D01*
X151284523Y-110720238D01*
X151315476Y-110689285D01*
X151346428Y-110627380D01*
X151346428Y-110503571D01*
X151315476Y-110441666D01*
X151284523Y-110410714D01*
X151222619Y-110379761D01*
G04 #@! TO.C,C59*
X137282142Y-108317857D02*
X137313095Y-108348809D01*
X137344047Y-108441666D01*
X137344047Y-108503571D01*
X137313095Y-108596428D01*
X137251190Y-108658333D01*
X137189285Y-108689285D01*
X137065476Y-108720238D01*
X136972619Y-108720238D01*
X136848809Y-108689285D01*
X136786904Y-108658333D01*
X136725000Y-108596428D01*
X136694047Y-108503571D01*
X136694047Y-108441666D01*
X136725000Y-108348809D01*
X136755952Y-108317857D01*
X136694047Y-107729761D02*
X136694047Y-108039285D01*
X137003571Y-108070238D01*
X136972619Y-108039285D01*
X136941666Y-107977380D01*
X136941666Y-107822619D01*
X136972619Y-107760714D01*
X137003571Y-107729761D01*
X137065476Y-107698809D01*
X137220238Y-107698809D01*
X137282142Y-107729761D01*
X137313095Y-107760714D01*
X137344047Y-107822619D01*
X137344047Y-107977380D01*
X137313095Y-108039285D01*
X137282142Y-108070238D01*
X137344047Y-107389285D02*
X137344047Y-107265476D01*
X137313095Y-107203571D01*
X137282142Y-107172619D01*
X137189285Y-107110714D01*
X137065476Y-107079761D01*
X136817857Y-107079761D01*
X136755952Y-107110714D01*
X136725000Y-107141666D01*
X136694047Y-107203571D01*
X136694047Y-107327380D01*
X136725000Y-107389285D01*
X136755952Y-107420238D01*
X136817857Y-107451190D01*
X136972619Y-107451190D01*
X137034523Y-107420238D01*
X137065476Y-107389285D01*
X137096428Y-107327380D01*
X137096428Y-107203571D01*
X137065476Y-107141666D01*
X137034523Y-107110714D01*
X136972619Y-107079761D01*
G04 #@! TO.C,C56*
X160732142Y-91432142D02*
X160701190Y-91463095D01*
X160608333Y-91494047D01*
X160546428Y-91494047D01*
X160453571Y-91463095D01*
X160391666Y-91401190D01*
X160360714Y-91339285D01*
X160329761Y-91215476D01*
X160329761Y-91122619D01*
X160360714Y-90998809D01*
X160391666Y-90936904D01*
X160453571Y-90875000D01*
X160546428Y-90844047D01*
X160608333Y-90844047D01*
X160701190Y-90875000D01*
X160732142Y-90905952D01*
X161320238Y-90844047D02*
X161010714Y-90844047D01*
X160979761Y-91153571D01*
X161010714Y-91122619D01*
X161072619Y-91091666D01*
X161227380Y-91091666D01*
X161289285Y-91122619D01*
X161320238Y-91153571D01*
X161351190Y-91215476D01*
X161351190Y-91370238D01*
X161320238Y-91432142D01*
X161289285Y-91463095D01*
X161227380Y-91494047D01*
X161072619Y-91494047D01*
X161010714Y-91463095D01*
X160979761Y-91432142D01*
X161908333Y-90844047D02*
X161784523Y-90844047D01*
X161722619Y-90875000D01*
X161691666Y-90905952D01*
X161629761Y-90998809D01*
X161598809Y-91122619D01*
X161598809Y-91370238D01*
X161629761Y-91432142D01*
X161660714Y-91463095D01*
X161722619Y-91494047D01*
X161846428Y-91494047D01*
X161908333Y-91463095D01*
X161939285Y-91432142D01*
X161970238Y-91370238D01*
X161970238Y-91215476D01*
X161939285Y-91153571D01*
X161908333Y-91122619D01*
X161846428Y-91091666D01*
X161722619Y-91091666D01*
X161660714Y-91122619D01*
X161629761Y-91153571D01*
X161598809Y-91215476D01*
G04 #@! TO.C,C65*
X153582142Y-86132142D02*
X153551190Y-86163095D01*
X153458333Y-86194047D01*
X153396428Y-86194047D01*
X153303571Y-86163095D01*
X153241666Y-86101190D01*
X153210714Y-86039285D01*
X153179761Y-85915476D01*
X153179761Y-85822619D01*
X153210714Y-85698809D01*
X153241666Y-85636904D01*
X153303571Y-85575000D01*
X153396428Y-85544047D01*
X153458333Y-85544047D01*
X153551190Y-85575000D01*
X153582142Y-85605952D01*
X154139285Y-85544047D02*
X154015476Y-85544047D01*
X153953571Y-85575000D01*
X153922619Y-85605952D01*
X153860714Y-85698809D01*
X153829761Y-85822619D01*
X153829761Y-86070238D01*
X153860714Y-86132142D01*
X153891666Y-86163095D01*
X153953571Y-86194047D01*
X154077380Y-86194047D01*
X154139285Y-86163095D01*
X154170238Y-86132142D01*
X154201190Y-86070238D01*
X154201190Y-85915476D01*
X154170238Y-85853571D01*
X154139285Y-85822619D01*
X154077380Y-85791666D01*
X153953571Y-85791666D01*
X153891666Y-85822619D01*
X153860714Y-85853571D01*
X153829761Y-85915476D01*
X154789285Y-85544047D02*
X154479761Y-85544047D01*
X154448809Y-85853571D01*
X154479761Y-85822619D01*
X154541666Y-85791666D01*
X154696428Y-85791666D01*
X154758333Y-85822619D01*
X154789285Y-85853571D01*
X154820238Y-85915476D01*
X154820238Y-86070238D01*
X154789285Y-86132142D01*
X154758333Y-86163095D01*
X154696428Y-86194047D01*
X154541666Y-86194047D01*
X154479761Y-86163095D01*
X154448809Y-86132142D01*
G04 #@! TO.C,C20*
X154032142Y-97332142D02*
X154001190Y-97363095D01*
X153908333Y-97394047D01*
X153846428Y-97394047D01*
X153753571Y-97363095D01*
X153691666Y-97301190D01*
X153660714Y-97239285D01*
X153629761Y-97115476D01*
X153629761Y-97022619D01*
X153660714Y-96898809D01*
X153691666Y-96836904D01*
X153753571Y-96775000D01*
X153846428Y-96744047D01*
X153908333Y-96744047D01*
X154001190Y-96775000D01*
X154032142Y-96805952D01*
X154279761Y-96805952D02*
X154310714Y-96775000D01*
X154372619Y-96744047D01*
X154527380Y-96744047D01*
X154589285Y-96775000D01*
X154620238Y-96805952D01*
X154651190Y-96867857D01*
X154651190Y-96929761D01*
X154620238Y-97022619D01*
X154248809Y-97394047D01*
X154651190Y-97394047D01*
X155053571Y-96744047D02*
X155115476Y-96744047D01*
X155177380Y-96775000D01*
X155208333Y-96805952D01*
X155239285Y-96867857D01*
X155270238Y-96991666D01*
X155270238Y-97146428D01*
X155239285Y-97270238D01*
X155208333Y-97332142D01*
X155177380Y-97363095D01*
X155115476Y-97394047D01*
X155053571Y-97394047D01*
X154991666Y-97363095D01*
X154960714Y-97332142D01*
X154929761Y-97270238D01*
X154898809Y-97146428D01*
X154898809Y-96991666D01*
X154929761Y-96867857D01*
X154960714Y-96805952D01*
X154991666Y-96775000D01*
X155053571Y-96744047D01*
G04 #@! TO.C,C26*
X139162142Y-111317857D02*
X139193095Y-111348809D01*
X139224047Y-111441666D01*
X139224047Y-111503571D01*
X139193095Y-111596428D01*
X139131190Y-111658333D01*
X139069285Y-111689285D01*
X138945476Y-111720238D01*
X138852619Y-111720238D01*
X138728809Y-111689285D01*
X138666904Y-111658333D01*
X138605000Y-111596428D01*
X138574047Y-111503571D01*
X138574047Y-111441666D01*
X138605000Y-111348809D01*
X138635952Y-111317857D01*
X138635952Y-111070238D02*
X138605000Y-111039285D01*
X138574047Y-110977380D01*
X138574047Y-110822619D01*
X138605000Y-110760714D01*
X138635952Y-110729761D01*
X138697857Y-110698809D01*
X138759761Y-110698809D01*
X138852619Y-110729761D01*
X139224047Y-111101190D01*
X139224047Y-110698809D01*
X138574047Y-110141666D02*
X138574047Y-110265476D01*
X138605000Y-110327380D01*
X138635952Y-110358333D01*
X138728809Y-110420238D01*
X138852619Y-110451190D01*
X139100238Y-110451190D01*
X139162142Y-110420238D01*
X139193095Y-110389285D01*
X139224047Y-110327380D01*
X139224047Y-110203571D01*
X139193095Y-110141666D01*
X139162142Y-110110714D01*
X139100238Y-110079761D01*
X138945476Y-110079761D01*
X138883571Y-110110714D01*
X138852619Y-110141666D01*
X138821666Y-110203571D01*
X138821666Y-110327380D01*
X138852619Y-110389285D01*
X138883571Y-110420238D01*
X138945476Y-110451190D01*
G04 #@! TO.C,C64*
X160732142Y-106332142D02*
X160701190Y-106363095D01*
X160608333Y-106394047D01*
X160546428Y-106394047D01*
X160453571Y-106363095D01*
X160391666Y-106301190D01*
X160360714Y-106239285D01*
X160329761Y-106115476D01*
X160329761Y-106022619D01*
X160360714Y-105898809D01*
X160391666Y-105836904D01*
X160453571Y-105775000D01*
X160546428Y-105744047D01*
X160608333Y-105744047D01*
X160701190Y-105775000D01*
X160732142Y-105805952D01*
X161289285Y-105744047D02*
X161165476Y-105744047D01*
X161103571Y-105775000D01*
X161072619Y-105805952D01*
X161010714Y-105898809D01*
X160979761Y-106022619D01*
X160979761Y-106270238D01*
X161010714Y-106332142D01*
X161041666Y-106363095D01*
X161103571Y-106394047D01*
X161227380Y-106394047D01*
X161289285Y-106363095D01*
X161320238Y-106332142D01*
X161351190Y-106270238D01*
X161351190Y-106115476D01*
X161320238Y-106053571D01*
X161289285Y-106022619D01*
X161227380Y-105991666D01*
X161103571Y-105991666D01*
X161041666Y-106022619D01*
X161010714Y-106053571D01*
X160979761Y-106115476D01*
X161908333Y-105960714D02*
X161908333Y-106394047D01*
X161753571Y-105713095D02*
X161598809Y-106177380D01*
X162001190Y-106177380D01*
G04 #@! TO.C,C30*
X154032142Y-99132142D02*
X154001190Y-99163095D01*
X153908333Y-99194047D01*
X153846428Y-99194047D01*
X153753571Y-99163095D01*
X153691666Y-99101190D01*
X153660714Y-99039285D01*
X153629761Y-98915476D01*
X153629761Y-98822619D01*
X153660714Y-98698809D01*
X153691666Y-98636904D01*
X153753571Y-98575000D01*
X153846428Y-98544047D01*
X153908333Y-98544047D01*
X154001190Y-98575000D01*
X154032142Y-98605952D01*
X154248809Y-98544047D02*
X154651190Y-98544047D01*
X154434523Y-98791666D01*
X154527380Y-98791666D01*
X154589285Y-98822619D01*
X154620238Y-98853571D01*
X154651190Y-98915476D01*
X154651190Y-99070238D01*
X154620238Y-99132142D01*
X154589285Y-99163095D01*
X154527380Y-99194047D01*
X154341666Y-99194047D01*
X154279761Y-99163095D01*
X154248809Y-99132142D01*
X155053571Y-98544047D02*
X155115476Y-98544047D01*
X155177380Y-98575000D01*
X155208333Y-98605952D01*
X155239285Y-98667857D01*
X155270238Y-98791666D01*
X155270238Y-98946428D01*
X155239285Y-99070238D01*
X155208333Y-99132142D01*
X155177380Y-99163095D01*
X155115476Y-99194047D01*
X155053571Y-99194047D01*
X154991666Y-99163095D01*
X154960714Y-99132142D01*
X154929761Y-99070238D01*
X154898809Y-98946428D01*
X154898809Y-98791666D01*
X154929761Y-98667857D01*
X154960714Y-98605952D01*
X154991666Y-98575000D01*
X155053571Y-98544047D01*
G04 #@! TO.C,C19*
X133282142Y-86032142D02*
X133251190Y-86063095D01*
X133158333Y-86094047D01*
X133096428Y-86094047D01*
X133003571Y-86063095D01*
X132941666Y-86001190D01*
X132910714Y-85939285D01*
X132879761Y-85815476D01*
X132879761Y-85722619D01*
X132910714Y-85598809D01*
X132941666Y-85536904D01*
X133003571Y-85475000D01*
X133096428Y-85444047D01*
X133158333Y-85444047D01*
X133251190Y-85475000D01*
X133282142Y-85505952D01*
X133901190Y-86094047D02*
X133529761Y-86094047D01*
X133715476Y-86094047D02*
X133715476Y-85444047D01*
X133653571Y-85536904D01*
X133591666Y-85598809D01*
X133529761Y-85629761D01*
X134210714Y-86094047D02*
X134334523Y-86094047D01*
X134396428Y-86063095D01*
X134427380Y-86032142D01*
X134489285Y-85939285D01*
X134520238Y-85815476D01*
X134520238Y-85567857D01*
X134489285Y-85505952D01*
X134458333Y-85475000D01*
X134396428Y-85444047D01*
X134272619Y-85444047D01*
X134210714Y-85475000D01*
X134179761Y-85505952D01*
X134148809Y-85567857D01*
X134148809Y-85722619D01*
X134179761Y-85784523D01*
X134210714Y-85815476D01*
X134272619Y-85846428D01*
X134396428Y-85846428D01*
X134458333Y-85815476D01*
X134489285Y-85784523D01*
X134520238Y-85722619D01*
G04 #@! TO.C,C9*
X132232142Y-103508333D02*
X132263095Y-103539285D01*
X132294047Y-103632142D01*
X132294047Y-103694047D01*
X132263095Y-103786904D01*
X132201190Y-103848809D01*
X132139285Y-103879761D01*
X132015476Y-103910714D01*
X131922619Y-103910714D01*
X131798809Y-103879761D01*
X131736904Y-103848809D01*
X131675000Y-103786904D01*
X131644047Y-103694047D01*
X131644047Y-103632142D01*
X131675000Y-103539285D01*
X131705952Y-103508333D01*
X132294047Y-103198809D02*
X132294047Y-103075000D01*
X132263095Y-103013095D01*
X132232142Y-102982142D01*
X132139285Y-102920238D01*
X132015476Y-102889285D01*
X131767857Y-102889285D01*
X131705952Y-102920238D01*
X131675000Y-102951190D01*
X131644047Y-103013095D01*
X131644047Y-103136904D01*
X131675000Y-103198809D01*
X131705952Y-103229761D01*
X131767857Y-103260714D01*
X131922619Y-103260714D01*
X131984523Y-103229761D01*
X132015476Y-103198809D01*
X132046428Y-103136904D01*
X132046428Y-103013095D01*
X132015476Y-102951190D01*
X131984523Y-102920238D01*
X131922619Y-102889285D01*
G04 #@! TO.C,C51*
X154032142Y-95532142D02*
X154001190Y-95563095D01*
X153908333Y-95594047D01*
X153846428Y-95594047D01*
X153753571Y-95563095D01*
X153691666Y-95501190D01*
X153660714Y-95439285D01*
X153629761Y-95315476D01*
X153629761Y-95222619D01*
X153660714Y-95098809D01*
X153691666Y-95036904D01*
X153753571Y-94975000D01*
X153846428Y-94944047D01*
X153908333Y-94944047D01*
X154001190Y-94975000D01*
X154032142Y-95005952D01*
X154620238Y-94944047D02*
X154310714Y-94944047D01*
X154279761Y-95253571D01*
X154310714Y-95222619D01*
X154372619Y-95191666D01*
X154527380Y-95191666D01*
X154589285Y-95222619D01*
X154620238Y-95253571D01*
X154651190Y-95315476D01*
X154651190Y-95470238D01*
X154620238Y-95532142D01*
X154589285Y-95563095D01*
X154527380Y-95594047D01*
X154372619Y-95594047D01*
X154310714Y-95563095D01*
X154279761Y-95532142D01*
X155270238Y-95594047D02*
X154898809Y-95594047D01*
X155084523Y-95594047D02*
X155084523Y-94944047D01*
X155022619Y-95036904D01*
X154960714Y-95098809D01*
X154898809Y-95129761D01*
G04 #@! TO.C,C3*
X132687546Y-91390753D02*
X132687546Y-91434526D01*
X132643773Y-91522072D01*
X132600000Y-91565846D01*
X132512453Y-91609619D01*
X132424906Y-91609619D01*
X132359246Y-91587732D01*
X132249813Y-91522072D01*
X132184153Y-91456412D01*
X132118493Y-91346979D01*
X132096607Y-91281319D01*
X132096607Y-91193773D01*
X132140380Y-91106226D01*
X132184153Y-91062453D01*
X132271700Y-91018680D01*
X132315473Y-91018680D01*
X132424906Y-90821700D02*
X132709433Y-90537174D01*
X132731319Y-90865473D01*
X132796979Y-90799813D01*
X132862639Y-90777927D01*
X132906412Y-90777927D01*
X132972072Y-90799813D01*
X133081506Y-90909246D01*
X133103392Y-90974906D01*
X133103392Y-91018680D01*
X133081506Y-91084340D01*
X132950186Y-91215659D01*
X132884526Y-91237546D01*
X132840753Y-91237546D01*
G04 #@! TO.C,R2*
X154291666Y-103194047D02*
X154075000Y-102884523D01*
X153920238Y-103194047D02*
X153920238Y-102544047D01*
X154167857Y-102544047D01*
X154229761Y-102575000D01*
X154260714Y-102605952D01*
X154291666Y-102667857D01*
X154291666Y-102760714D01*
X154260714Y-102822619D01*
X154229761Y-102853571D01*
X154167857Y-102884523D01*
X153920238Y-102884523D01*
X154539285Y-102605952D02*
X154570238Y-102575000D01*
X154632142Y-102544047D01*
X154786904Y-102544047D01*
X154848809Y-102575000D01*
X154879761Y-102605952D01*
X154910714Y-102667857D01*
X154910714Y-102729761D01*
X154879761Y-102822619D01*
X154508333Y-103194047D01*
X154910714Y-103194047D01*
G04 #@! TO.C,C71*
X154357142Y-112857142D02*
X154326190Y-112888095D01*
X154233333Y-112919047D01*
X154171428Y-112919047D01*
X154078571Y-112888095D01*
X154016666Y-112826190D01*
X153985714Y-112764285D01*
X153954761Y-112640476D01*
X153954761Y-112547619D01*
X153985714Y-112423809D01*
X154016666Y-112361904D01*
X154078571Y-112300000D01*
X154171428Y-112269047D01*
X154233333Y-112269047D01*
X154326190Y-112300000D01*
X154357142Y-112330952D01*
X154573809Y-112269047D02*
X155007142Y-112269047D01*
X154728571Y-112919047D01*
X155595238Y-112919047D02*
X155223809Y-112919047D01*
X155409523Y-112919047D02*
X155409523Y-112269047D01*
X155347619Y-112361904D01*
X155285714Y-112423809D01*
X155223809Y-112454761D01*
G04 #@! TO.C,U7*
X155994047Y-115395238D02*
X156520238Y-115395238D01*
X156582142Y-115364285D01*
X156613095Y-115333333D01*
X156644047Y-115271428D01*
X156644047Y-115147619D01*
X156613095Y-115085714D01*
X156582142Y-115054761D01*
X156520238Y-115023809D01*
X155994047Y-115023809D01*
X155994047Y-114776190D02*
X155994047Y-114342857D01*
X156644047Y-114621428D01*
G04 #@! TO.C,C8*
X132232142Y-88808333D02*
X132263095Y-88839285D01*
X132294047Y-88932142D01*
X132294047Y-88994047D01*
X132263095Y-89086904D01*
X132201190Y-89148809D01*
X132139285Y-89179761D01*
X132015476Y-89210714D01*
X131922619Y-89210714D01*
X131798809Y-89179761D01*
X131736904Y-89148809D01*
X131675000Y-89086904D01*
X131644047Y-88994047D01*
X131644047Y-88932142D01*
X131675000Y-88839285D01*
X131705952Y-88808333D01*
X131922619Y-88436904D02*
X131891666Y-88498809D01*
X131860714Y-88529761D01*
X131798809Y-88560714D01*
X131767857Y-88560714D01*
X131705952Y-88529761D01*
X131675000Y-88498809D01*
X131644047Y-88436904D01*
X131644047Y-88313095D01*
X131675000Y-88251190D01*
X131705952Y-88220238D01*
X131767857Y-88189285D01*
X131798809Y-88189285D01*
X131860714Y-88220238D01*
X131891666Y-88251190D01*
X131922619Y-88313095D01*
X131922619Y-88436904D01*
X131953571Y-88498809D01*
X131984523Y-88529761D01*
X132046428Y-88560714D01*
X132170238Y-88560714D01*
X132232142Y-88529761D01*
X132263095Y-88498809D01*
X132294047Y-88436904D01*
X132294047Y-88313095D01*
X132263095Y-88251190D01*
X132232142Y-88220238D01*
X132170238Y-88189285D01*
X132046428Y-88189285D01*
X131984523Y-88220238D01*
X131953571Y-88251190D01*
X131922619Y-88313095D01*
G04 #@! TO.C,FL1*
X165020238Y-99503571D02*
X164803571Y-99503571D01*
X164803571Y-99844047D02*
X164803571Y-99194047D01*
X165113095Y-99194047D01*
X165670238Y-99844047D02*
X165360714Y-99844047D01*
X165360714Y-99194047D01*
X166227380Y-99844047D02*
X165855952Y-99844047D01*
X166041666Y-99844047D02*
X166041666Y-99194047D01*
X165979761Y-99286904D01*
X165917857Y-99348809D01*
X165855952Y-99379761D01*
G04 #@! TO.C,C27*
X134232142Y-113317857D02*
X134263095Y-113348809D01*
X134294047Y-113441666D01*
X134294047Y-113503571D01*
X134263095Y-113596428D01*
X134201190Y-113658333D01*
X134139285Y-113689285D01*
X134015476Y-113720238D01*
X133922619Y-113720238D01*
X133798809Y-113689285D01*
X133736904Y-113658333D01*
X133675000Y-113596428D01*
X133644047Y-113503571D01*
X133644047Y-113441666D01*
X133675000Y-113348809D01*
X133705952Y-113317857D01*
X133705952Y-113070238D02*
X133675000Y-113039285D01*
X133644047Y-112977380D01*
X133644047Y-112822619D01*
X133675000Y-112760714D01*
X133705952Y-112729761D01*
X133767857Y-112698809D01*
X133829761Y-112698809D01*
X133922619Y-112729761D01*
X134294047Y-113101190D01*
X134294047Y-112698809D01*
X133644047Y-112482142D02*
X133644047Y-112048809D01*
X134294047Y-112327380D01*
G04 #@! TO.C,C11*
X127007142Y-88367857D02*
X127038095Y-88398809D01*
X127069047Y-88491666D01*
X127069047Y-88553571D01*
X127038095Y-88646428D01*
X126976190Y-88708333D01*
X126914285Y-88739285D01*
X126790476Y-88770238D01*
X126697619Y-88770238D01*
X126573809Y-88739285D01*
X126511904Y-88708333D01*
X126450000Y-88646428D01*
X126419047Y-88553571D01*
X126419047Y-88491666D01*
X126450000Y-88398809D01*
X126480952Y-88367857D01*
X127069047Y-87748809D02*
X127069047Y-88120238D01*
X127069047Y-87934523D02*
X126419047Y-87934523D01*
X126511904Y-87996428D01*
X126573809Y-88058333D01*
X126604761Y-88120238D01*
X127069047Y-87129761D02*
X127069047Y-87501190D01*
X127069047Y-87315476D02*
X126419047Y-87315476D01*
X126511904Y-87377380D01*
X126573809Y-87439285D01*
X126604761Y-87501190D01*
G04 #@! TO.C,R8*
X149794047Y-108458333D02*
X149484523Y-108675000D01*
X149794047Y-108829761D02*
X149144047Y-108829761D01*
X149144047Y-108582142D01*
X149175000Y-108520238D01*
X149205952Y-108489285D01*
X149267857Y-108458333D01*
X149360714Y-108458333D01*
X149422619Y-108489285D01*
X149453571Y-108520238D01*
X149484523Y-108582142D01*
X149484523Y-108829761D01*
X149422619Y-108086904D02*
X149391666Y-108148809D01*
X149360714Y-108179761D01*
X149298809Y-108210714D01*
X149267857Y-108210714D01*
X149205952Y-108179761D01*
X149175000Y-108148809D01*
X149144047Y-108086904D01*
X149144047Y-107963095D01*
X149175000Y-107901190D01*
X149205952Y-107870238D01*
X149267857Y-107839285D01*
X149298809Y-107839285D01*
X149360714Y-107870238D01*
X149391666Y-107901190D01*
X149422619Y-107963095D01*
X149422619Y-108086904D01*
X149453571Y-108148809D01*
X149484523Y-108179761D01*
X149546428Y-108210714D01*
X149670238Y-108210714D01*
X149732142Y-108179761D01*
X149763095Y-108148809D01*
X149794047Y-108086904D01*
X149794047Y-107963095D01*
X149763095Y-107901190D01*
X149732142Y-107870238D01*
X149670238Y-107839285D01*
X149546428Y-107839285D01*
X149484523Y-107870238D01*
X149453571Y-107901190D01*
X149422619Y-107963095D01*
G04 #@! TO.C,C48*
X158182142Y-106117857D02*
X158213095Y-106148809D01*
X158244047Y-106241666D01*
X158244047Y-106303571D01*
X158213095Y-106396428D01*
X158151190Y-106458333D01*
X158089285Y-106489285D01*
X157965476Y-106520238D01*
X157872619Y-106520238D01*
X157748809Y-106489285D01*
X157686904Y-106458333D01*
X157625000Y-106396428D01*
X157594047Y-106303571D01*
X157594047Y-106241666D01*
X157625000Y-106148809D01*
X157655952Y-106117857D01*
X157810714Y-105560714D02*
X158244047Y-105560714D01*
X157563095Y-105715476D02*
X158027380Y-105870238D01*
X158027380Y-105467857D01*
X157872619Y-105127380D02*
X157841666Y-105189285D01*
X157810714Y-105220238D01*
X157748809Y-105251190D01*
X157717857Y-105251190D01*
X157655952Y-105220238D01*
X157625000Y-105189285D01*
X157594047Y-105127380D01*
X157594047Y-105003571D01*
X157625000Y-104941666D01*
X157655952Y-104910714D01*
X157717857Y-104879761D01*
X157748809Y-104879761D01*
X157810714Y-104910714D01*
X157841666Y-104941666D01*
X157872619Y-105003571D01*
X157872619Y-105127380D01*
X157903571Y-105189285D01*
X157934523Y-105220238D01*
X157996428Y-105251190D01*
X158120238Y-105251190D01*
X158182142Y-105220238D01*
X158213095Y-105189285D01*
X158244047Y-105127380D01*
X158244047Y-105003571D01*
X158213095Y-104941666D01*
X158182142Y-104910714D01*
X158120238Y-104879761D01*
X157996428Y-104879761D01*
X157934523Y-104910714D01*
X157903571Y-104941666D01*
X157872619Y-105003571D01*
G04 #@! TO.C,FL3*
X165020238Y-96503571D02*
X164803571Y-96503571D01*
X164803571Y-96844047D02*
X164803571Y-96194047D01*
X165113095Y-96194047D01*
X165670238Y-96844047D02*
X165360714Y-96844047D01*
X165360714Y-96194047D01*
X165825000Y-96194047D02*
X166227380Y-96194047D01*
X166010714Y-96441666D01*
X166103571Y-96441666D01*
X166165476Y-96472619D01*
X166196428Y-96503571D01*
X166227380Y-96565476D01*
X166227380Y-96720238D01*
X166196428Y-96782142D01*
X166165476Y-96813095D01*
X166103571Y-96844047D01*
X165917857Y-96844047D01*
X165855952Y-96813095D01*
X165825000Y-96782142D01*
G04 #@! TO.C,C34*
X154032142Y-98232142D02*
X154001190Y-98263095D01*
X153908333Y-98294047D01*
X153846428Y-98294047D01*
X153753571Y-98263095D01*
X153691666Y-98201190D01*
X153660714Y-98139285D01*
X153629761Y-98015476D01*
X153629761Y-97922619D01*
X153660714Y-97798809D01*
X153691666Y-97736904D01*
X153753571Y-97675000D01*
X153846428Y-97644047D01*
X153908333Y-97644047D01*
X154001190Y-97675000D01*
X154032142Y-97705952D01*
X154248809Y-97644047D02*
X154651190Y-97644047D01*
X154434523Y-97891666D01*
X154527380Y-97891666D01*
X154589285Y-97922619D01*
X154620238Y-97953571D01*
X154651190Y-98015476D01*
X154651190Y-98170238D01*
X154620238Y-98232142D01*
X154589285Y-98263095D01*
X154527380Y-98294047D01*
X154341666Y-98294047D01*
X154279761Y-98263095D01*
X154248809Y-98232142D01*
X155208333Y-97860714D02*
X155208333Y-98294047D01*
X155053571Y-97613095D02*
X154898809Y-98077380D01*
X155301190Y-98077380D01*
G04 #@! TO.C,C40*
X154032142Y-100982142D02*
X154001190Y-101013095D01*
X153908333Y-101044047D01*
X153846428Y-101044047D01*
X153753571Y-101013095D01*
X153691666Y-100951190D01*
X153660714Y-100889285D01*
X153629761Y-100765476D01*
X153629761Y-100672619D01*
X153660714Y-100548809D01*
X153691666Y-100486904D01*
X153753571Y-100425000D01*
X153846428Y-100394047D01*
X153908333Y-100394047D01*
X154001190Y-100425000D01*
X154032142Y-100455952D01*
X154589285Y-100610714D02*
X154589285Y-101044047D01*
X154434523Y-100363095D02*
X154279761Y-100827380D01*
X154682142Y-100827380D01*
X155053571Y-100394047D02*
X155115476Y-100394047D01*
X155177380Y-100425000D01*
X155208333Y-100455952D01*
X155239285Y-100517857D01*
X155270238Y-100641666D01*
X155270238Y-100796428D01*
X155239285Y-100920238D01*
X155208333Y-100982142D01*
X155177380Y-101013095D01*
X155115476Y-101044047D01*
X155053571Y-101044047D01*
X154991666Y-101013095D01*
X154960714Y-100982142D01*
X154929761Y-100920238D01*
X154898809Y-100796428D01*
X154898809Y-100641666D01*
X154929761Y-100517857D01*
X154960714Y-100455952D01*
X154991666Y-100425000D01*
X155053571Y-100394047D01*
G04 #@! TO.C,C33*
X155682142Y-109467857D02*
X155713095Y-109498809D01*
X155744047Y-109591666D01*
X155744047Y-109653571D01*
X155713095Y-109746428D01*
X155651190Y-109808333D01*
X155589285Y-109839285D01*
X155465476Y-109870238D01*
X155372619Y-109870238D01*
X155248809Y-109839285D01*
X155186904Y-109808333D01*
X155125000Y-109746428D01*
X155094047Y-109653571D01*
X155094047Y-109591666D01*
X155125000Y-109498809D01*
X155155952Y-109467857D01*
X155094047Y-109251190D02*
X155094047Y-108848809D01*
X155341666Y-109065476D01*
X155341666Y-108972619D01*
X155372619Y-108910714D01*
X155403571Y-108879761D01*
X155465476Y-108848809D01*
X155620238Y-108848809D01*
X155682142Y-108879761D01*
X155713095Y-108910714D01*
X155744047Y-108972619D01*
X155744047Y-109158333D01*
X155713095Y-109220238D01*
X155682142Y-109251190D01*
X155094047Y-108632142D02*
X155094047Y-108229761D01*
X155341666Y-108446428D01*
X155341666Y-108353571D01*
X155372619Y-108291666D01*
X155403571Y-108260714D01*
X155465476Y-108229761D01*
X155620238Y-108229761D01*
X155682142Y-108260714D01*
X155713095Y-108291666D01*
X155744047Y-108353571D01*
X155744047Y-108539285D01*
X155713095Y-108601190D01*
X155682142Y-108632142D01*
G04 #@! TO.C,U4*
X126329761Y-91119047D02*
X126329761Y-91645238D01*
X126360714Y-91707142D01*
X126391666Y-91738095D01*
X126453571Y-91769047D01*
X126577380Y-91769047D01*
X126639285Y-91738095D01*
X126670238Y-91707142D01*
X126701190Y-91645238D01*
X126701190Y-91119047D01*
X127289285Y-91335714D02*
X127289285Y-91769047D01*
X127134523Y-91088095D02*
X126979761Y-91552380D01*
X127382142Y-91552380D01*
G04 #@! TO.C,C57*
X137332142Y-87617857D02*
X137363095Y-87648809D01*
X137394047Y-87741666D01*
X137394047Y-87803571D01*
X137363095Y-87896428D01*
X137301190Y-87958333D01*
X137239285Y-87989285D01*
X137115476Y-88020238D01*
X137022619Y-88020238D01*
X136898809Y-87989285D01*
X136836904Y-87958333D01*
X136775000Y-87896428D01*
X136744047Y-87803571D01*
X136744047Y-87741666D01*
X136775000Y-87648809D01*
X136805952Y-87617857D01*
X136744047Y-87029761D02*
X136744047Y-87339285D01*
X137053571Y-87370238D01*
X137022619Y-87339285D01*
X136991666Y-87277380D01*
X136991666Y-87122619D01*
X137022619Y-87060714D01*
X137053571Y-87029761D01*
X137115476Y-86998809D01*
X137270238Y-86998809D01*
X137332142Y-87029761D01*
X137363095Y-87060714D01*
X137394047Y-87122619D01*
X137394047Y-87277380D01*
X137363095Y-87339285D01*
X137332142Y-87370238D01*
X136744047Y-86782142D02*
X136744047Y-86348809D01*
X137394047Y-86627380D01*
G04 #@! TO.C,FB1*
X159153571Y-81991666D02*
X159153571Y-82208333D01*
X159494047Y-82208333D02*
X158844047Y-82208333D01*
X158844047Y-81898809D01*
X159153571Y-81434523D02*
X159184523Y-81341666D01*
X159215476Y-81310714D01*
X159277380Y-81279761D01*
X159370238Y-81279761D01*
X159432142Y-81310714D01*
X159463095Y-81341666D01*
X159494047Y-81403571D01*
X159494047Y-81651190D01*
X158844047Y-81651190D01*
X158844047Y-81434523D01*
X158875000Y-81372619D01*
X158905952Y-81341666D01*
X158967857Y-81310714D01*
X159029761Y-81310714D01*
X159091666Y-81341666D01*
X159122619Y-81372619D01*
X159153571Y-81434523D01*
X159153571Y-81651190D01*
X159494047Y-80660714D02*
X159494047Y-81032142D01*
X159494047Y-80846428D02*
X158844047Y-80846428D01*
X158936904Y-80908333D01*
X158998809Y-80970238D01*
X159029761Y-81032142D01*
G04 #@! TO.C,C16*
X160982142Y-83632142D02*
X160951190Y-83663095D01*
X160858333Y-83694047D01*
X160796428Y-83694047D01*
X160703571Y-83663095D01*
X160641666Y-83601190D01*
X160610714Y-83539285D01*
X160579761Y-83415476D01*
X160579761Y-83322619D01*
X160610714Y-83198809D01*
X160641666Y-83136904D01*
X160703571Y-83075000D01*
X160796428Y-83044047D01*
X160858333Y-83044047D01*
X160951190Y-83075000D01*
X160982142Y-83105952D01*
X161601190Y-83694047D02*
X161229761Y-83694047D01*
X161415476Y-83694047D02*
X161415476Y-83044047D01*
X161353571Y-83136904D01*
X161291666Y-83198809D01*
X161229761Y-83229761D01*
X162158333Y-83044047D02*
X162034523Y-83044047D01*
X161972619Y-83075000D01*
X161941666Y-83105952D01*
X161879761Y-83198809D01*
X161848809Y-83322619D01*
X161848809Y-83570238D01*
X161879761Y-83632142D01*
X161910714Y-83663095D01*
X161972619Y-83694047D01*
X162096428Y-83694047D01*
X162158333Y-83663095D01*
X162189285Y-83632142D01*
X162220238Y-83570238D01*
X162220238Y-83415476D01*
X162189285Y-83353571D01*
X162158333Y-83322619D01*
X162096428Y-83291666D01*
X161972619Y-83291666D01*
X161910714Y-83322619D01*
X161879761Y-83353571D01*
X161848809Y-83415476D01*
G04 #@! TO.C,C72*
X152107142Y-119132142D02*
X152076190Y-119163095D01*
X151983333Y-119194047D01*
X151921428Y-119194047D01*
X151828571Y-119163095D01*
X151766666Y-119101190D01*
X151735714Y-119039285D01*
X151704761Y-118915476D01*
X151704761Y-118822619D01*
X151735714Y-118698809D01*
X151766666Y-118636904D01*
X151828571Y-118575000D01*
X151921428Y-118544047D01*
X151983333Y-118544047D01*
X152076190Y-118575000D01*
X152107142Y-118605952D01*
X152323809Y-118544047D02*
X152757142Y-118544047D01*
X152478571Y-119194047D01*
X152973809Y-118605952D02*
X153004761Y-118575000D01*
X153066666Y-118544047D01*
X153221428Y-118544047D01*
X153283333Y-118575000D01*
X153314285Y-118605952D01*
X153345238Y-118667857D01*
X153345238Y-118729761D01*
X153314285Y-118822619D01*
X152942857Y-119194047D01*
X153345238Y-119194047D01*
G04 #@! TO.C,JP1*
X150208333Y-85544047D02*
X150208333Y-86008333D01*
X150177380Y-86101190D01*
X150115476Y-86163095D01*
X150022619Y-86194047D01*
X149960714Y-86194047D01*
X150517857Y-86194047D02*
X150517857Y-85544047D01*
X150765476Y-85544047D01*
X150827380Y-85575000D01*
X150858333Y-85605952D01*
X150889285Y-85667857D01*
X150889285Y-85760714D01*
X150858333Y-85822619D01*
X150827380Y-85853571D01*
X150765476Y-85884523D01*
X150517857Y-85884523D01*
X151508333Y-86194047D02*
X151136904Y-86194047D01*
X151322619Y-86194047D02*
X151322619Y-85544047D01*
X151260714Y-85636904D01*
X151198809Y-85698809D01*
X151136904Y-85729761D01*
G04 #@! TO.C,C63*
X154032142Y-92832142D02*
X154001190Y-92863095D01*
X153908333Y-92894047D01*
X153846428Y-92894047D01*
X153753571Y-92863095D01*
X153691666Y-92801190D01*
X153660714Y-92739285D01*
X153629761Y-92615476D01*
X153629761Y-92522619D01*
X153660714Y-92398809D01*
X153691666Y-92336904D01*
X153753571Y-92275000D01*
X153846428Y-92244047D01*
X153908333Y-92244047D01*
X154001190Y-92275000D01*
X154032142Y-92305952D01*
X154589285Y-92244047D02*
X154465476Y-92244047D01*
X154403571Y-92275000D01*
X154372619Y-92305952D01*
X154310714Y-92398809D01*
X154279761Y-92522619D01*
X154279761Y-92770238D01*
X154310714Y-92832142D01*
X154341666Y-92863095D01*
X154403571Y-92894047D01*
X154527380Y-92894047D01*
X154589285Y-92863095D01*
X154620238Y-92832142D01*
X154651190Y-92770238D01*
X154651190Y-92615476D01*
X154620238Y-92553571D01*
X154589285Y-92522619D01*
X154527380Y-92491666D01*
X154403571Y-92491666D01*
X154341666Y-92522619D01*
X154310714Y-92553571D01*
X154279761Y-92615476D01*
X154867857Y-92244047D02*
X155270238Y-92244047D01*
X155053571Y-92491666D01*
X155146428Y-92491666D01*
X155208333Y-92522619D01*
X155239285Y-92553571D01*
X155270238Y-92615476D01*
X155270238Y-92770238D01*
X155239285Y-92832142D01*
X155208333Y-92863095D01*
X155146428Y-92894047D01*
X154960714Y-92894047D01*
X154898809Y-92863095D01*
X154867857Y-92832142D01*
G04 #@! TO.C,C58*
X154232142Y-82517857D02*
X154263095Y-82548809D01*
X154294047Y-82641666D01*
X154294047Y-82703571D01*
X154263095Y-82796428D01*
X154201190Y-82858333D01*
X154139285Y-82889285D01*
X154015476Y-82920238D01*
X153922619Y-82920238D01*
X153798809Y-82889285D01*
X153736904Y-82858333D01*
X153675000Y-82796428D01*
X153644047Y-82703571D01*
X153644047Y-82641666D01*
X153675000Y-82548809D01*
X153705952Y-82517857D01*
X153644047Y-81929761D02*
X153644047Y-82239285D01*
X153953571Y-82270238D01*
X153922619Y-82239285D01*
X153891666Y-82177380D01*
X153891666Y-82022619D01*
X153922619Y-81960714D01*
X153953571Y-81929761D01*
X154015476Y-81898809D01*
X154170238Y-81898809D01*
X154232142Y-81929761D01*
X154263095Y-81960714D01*
X154294047Y-82022619D01*
X154294047Y-82177380D01*
X154263095Y-82239285D01*
X154232142Y-82270238D01*
X153922619Y-81527380D02*
X153891666Y-81589285D01*
X153860714Y-81620238D01*
X153798809Y-81651190D01*
X153767857Y-81651190D01*
X153705952Y-81620238D01*
X153675000Y-81589285D01*
X153644047Y-81527380D01*
X153644047Y-81403571D01*
X153675000Y-81341666D01*
X153705952Y-81310714D01*
X153767857Y-81279761D01*
X153798809Y-81279761D01*
X153860714Y-81310714D01*
X153891666Y-81341666D01*
X153922619Y-81403571D01*
X153922619Y-81527380D01*
X153953571Y-81589285D01*
X153984523Y-81620238D01*
X154046428Y-81651190D01*
X154170238Y-81651190D01*
X154232142Y-81620238D01*
X154263095Y-81589285D01*
X154294047Y-81527380D01*
X154294047Y-81403571D01*
X154263095Y-81341666D01*
X154232142Y-81310714D01*
X154170238Y-81279761D01*
X154046428Y-81279761D01*
X153984523Y-81310714D01*
X153953571Y-81341666D01*
X153922619Y-81403571D01*
G04 #@! TO.C,C14*
X124432142Y-90457142D02*
X124401190Y-90488095D01*
X124308333Y-90519047D01*
X124246428Y-90519047D01*
X124153571Y-90488095D01*
X124091666Y-90426190D01*
X124060714Y-90364285D01*
X124029761Y-90240476D01*
X124029761Y-90147619D01*
X124060714Y-90023809D01*
X124091666Y-89961904D01*
X124153571Y-89900000D01*
X124246428Y-89869047D01*
X124308333Y-89869047D01*
X124401190Y-89900000D01*
X124432142Y-89930952D01*
X125051190Y-90519047D02*
X124679761Y-90519047D01*
X124865476Y-90519047D02*
X124865476Y-89869047D01*
X124803571Y-89961904D01*
X124741666Y-90023809D01*
X124679761Y-90054761D01*
X125608333Y-90085714D02*
X125608333Y-90519047D01*
X125453571Y-89838095D02*
X125298809Y-90302380D01*
X125701190Y-90302380D01*
G04 #@! TO.C,C15*
X148232142Y-77017857D02*
X148263095Y-77048809D01*
X148294047Y-77141666D01*
X148294047Y-77203571D01*
X148263095Y-77296428D01*
X148201190Y-77358333D01*
X148139285Y-77389285D01*
X148015476Y-77420238D01*
X147922619Y-77420238D01*
X147798809Y-77389285D01*
X147736904Y-77358333D01*
X147675000Y-77296428D01*
X147644047Y-77203571D01*
X147644047Y-77141666D01*
X147675000Y-77048809D01*
X147705952Y-77017857D01*
X148294047Y-76398809D02*
X148294047Y-76770238D01*
X148294047Y-76584523D02*
X147644047Y-76584523D01*
X147736904Y-76646428D01*
X147798809Y-76708333D01*
X147829761Y-76770238D01*
X147644047Y-75810714D02*
X147644047Y-76120238D01*
X147953571Y-76151190D01*
X147922619Y-76120238D01*
X147891666Y-76058333D01*
X147891666Y-75903571D01*
X147922619Y-75841666D01*
X147953571Y-75810714D01*
X148015476Y-75779761D01*
X148170238Y-75779761D01*
X148232142Y-75810714D01*
X148263095Y-75841666D01*
X148294047Y-75903571D01*
X148294047Y-76058333D01*
X148263095Y-76120238D01*
X148232142Y-76151190D01*
G04 #@! TO.C,C29*
X156632142Y-109467857D02*
X156663095Y-109498809D01*
X156694047Y-109591666D01*
X156694047Y-109653571D01*
X156663095Y-109746428D01*
X156601190Y-109808333D01*
X156539285Y-109839285D01*
X156415476Y-109870238D01*
X156322619Y-109870238D01*
X156198809Y-109839285D01*
X156136904Y-109808333D01*
X156075000Y-109746428D01*
X156044047Y-109653571D01*
X156044047Y-109591666D01*
X156075000Y-109498809D01*
X156105952Y-109467857D01*
X156105952Y-109220238D02*
X156075000Y-109189285D01*
X156044047Y-109127380D01*
X156044047Y-108972619D01*
X156075000Y-108910714D01*
X156105952Y-108879761D01*
X156167857Y-108848809D01*
X156229761Y-108848809D01*
X156322619Y-108879761D01*
X156694047Y-109251190D01*
X156694047Y-108848809D01*
X156694047Y-108539285D02*
X156694047Y-108415476D01*
X156663095Y-108353571D01*
X156632142Y-108322619D01*
X156539285Y-108260714D01*
X156415476Y-108229761D01*
X156167857Y-108229761D01*
X156105952Y-108260714D01*
X156075000Y-108291666D01*
X156044047Y-108353571D01*
X156044047Y-108477380D01*
X156075000Y-108539285D01*
X156105952Y-108570238D01*
X156167857Y-108601190D01*
X156322619Y-108601190D01*
X156384523Y-108570238D01*
X156415476Y-108539285D01*
X156446428Y-108477380D01*
X156446428Y-108353571D01*
X156415476Y-108291666D01*
X156384523Y-108260714D01*
X156322619Y-108229761D01*
G04 #@! TO.C,C23*
X156232142Y-82517857D02*
X156263095Y-82548809D01*
X156294047Y-82641666D01*
X156294047Y-82703571D01*
X156263095Y-82796428D01*
X156201190Y-82858333D01*
X156139285Y-82889285D01*
X156015476Y-82920238D01*
X155922619Y-82920238D01*
X155798809Y-82889285D01*
X155736904Y-82858333D01*
X155675000Y-82796428D01*
X155644047Y-82703571D01*
X155644047Y-82641666D01*
X155675000Y-82548809D01*
X155705952Y-82517857D01*
X155705952Y-82270238D02*
X155675000Y-82239285D01*
X155644047Y-82177380D01*
X155644047Y-82022619D01*
X155675000Y-81960714D01*
X155705952Y-81929761D01*
X155767857Y-81898809D01*
X155829761Y-81898809D01*
X155922619Y-81929761D01*
X156294047Y-82301190D01*
X156294047Y-81898809D01*
X155644047Y-81682142D02*
X155644047Y-81279761D01*
X155891666Y-81496428D01*
X155891666Y-81403571D01*
X155922619Y-81341666D01*
X155953571Y-81310714D01*
X156015476Y-81279761D01*
X156170238Y-81279761D01*
X156232142Y-81310714D01*
X156263095Y-81341666D01*
X156294047Y-81403571D01*
X156294047Y-81589285D01*
X156263095Y-81651190D01*
X156232142Y-81682142D01*
G04 #@! TO.C,FL5*
X165020238Y-93503571D02*
X164803571Y-93503571D01*
X164803571Y-93844047D02*
X164803571Y-93194047D01*
X165113095Y-93194047D01*
X165670238Y-93844047D02*
X165360714Y-93844047D01*
X165360714Y-93194047D01*
X166196428Y-93194047D02*
X165886904Y-93194047D01*
X165855952Y-93503571D01*
X165886904Y-93472619D01*
X165948809Y-93441666D01*
X166103571Y-93441666D01*
X166165476Y-93472619D01*
X166196428Y-93503571D01*
X166227380Y-93565476D01*
X166227380Y-93720238D01*
X166196428Y-93782142D01*
X166165476Y-93813095D01*
X166103571Y-93844047D01*
X165948809Y-93844047D01*
X165886904Y-93813095D01*
X165855952Y-93782142D01*
D13*
G04 #@! TO.C,FL4*
X161500000Y-94717000D02*
X161500000Y-94717000D01*
X161600000Y-94717000D02*
X161600000Y-94717000D01*
X161500000Y-94717000D02*
G75*
G03*
X161600000Y-94717000I50000J0D01*
G01*
X161600000Y-94717000D02*
G75*
G03*
X161500000Y-94717000I-50000J0D01*
G01*
G04 #@! TO.C,R10*
X130753641Y-81420000D02*
X130446359Y-81420000D01*
X130753641Y-82180000D02*
X130446359Y-82180000D01*
G04 #@! TO.C,R12*
X128620000Y-96653641D02*
X128620000Y-96346359D01*
X129380000Y-96653641D02*
X129380000Y-96346359D01*
G04 #@! TO.C,U5*
X159200000Y-84250000D02*
X158060000Y-84250000D01*
G04 #@! TO.C,C1*
X132340000Y-105892164D02*
X132340000Y-106107836D01*
X133060000Y-105892164D02*
X133060000Y-106107836D01*
D14*
G04 #@! TO.C,C70*
X157892164Y-114160000D02*
X158107836Y-114160000D01*
X157892164Y-113440000D02*
X158107836Y-113440000D01*
D13*
G04 #@! TO.C,R3*
X144296359Y-77280000D02*
X144603641Y-77280000D01*
X144296359Y-76520000D02*
X144603641Y-76520000D01*
G04 #@! TO.C,C36*
X145360000Y-108007836D02*
X145360000Y-107792164D01*
X144640000Y-108007836D02*
X144640000Y-107792164D01*
G04 #@! TO.C,C41*
X143640000Y-83912164D02*
X143640000Y-84127836D01*
X144360000Y-83912164D02*
X144360000Y-84127836D01*
D14*
G04 #@! TO.C,TP5*
X125800000Y-97200000D02*
G75*
G03*
X125800000Y-97200000I-700000J0D01*
G01*
G04 #@! TO.C,J4*
X147375000Y-118980000D02*
X144675000Y-118980000D01*
X146785000Y-116260000D02*
X146785000Y-115630000D01*
X147425000Y-116260000D02*
X146785000Y-116260000D01*
X144625000Y-116260000D02*
X145265000Y-116260000D01*
D13*
G04 #@! TO.C,C55*
X156192164Y-94760000D02*
X156407836Y-94760000D01*
X156192164Y-94040000D02*
X156407836Y-94040000D01*
G04 #@! TO.C,TP2*
X152600000Y-81300000D02*
G75*
G03*
X152600000Y-81300000I-700000J0D01*
G01*
G04 #@! TO.C,C53*
X136360000Y-110792164D02*
X136360000Y-111007836D01*
X135640000Y-110792164D02*
X135640000Y-111007836D01*
G04 #@! TO.C,C32*
X156340580Y-88210000D02*
X156059420Y-88210000D01*
X156340580Y-87190000D02*
X156059420Y-87190000D01*
D15*
G04 #@! TO.C,U6*
X159700000Y-112700001D02*
X159700000Y-112950000D01*
X159700000Y-110850000D02*
X159700000Y-111700000D01*
X157300000Y-110850000D02*
X157300000Y-111099999D01*
X157300000Y-112700001D02*
X157300000Y-112950000D01*
D13*
G04 #@! TO.C,C69*
X126140000Y-93590580D02*
X126140000Y-93309420D01*
X127160000Y-93590580D02*
X127160000Y-93309420D01*
G04 #@! TO.C,C37*
X156340580Y-106790000D02*
X156059420Y-106790000D01*
X156340580Y-107810000D02*
X156059420Y-107810000D01*
G04 #@! TO.C,C4*
X134430810Y-105021693D02*
X134278307Y-104869190D01*
X133921693Y-105530810D02*
X133769190Y-105378307D01*
G04 #@! TO.C,C18*
X155360000Y-84007836D02*
X155360000Y-83792164D01*
X154640000Y-84007836D02*
X154640000Y-83792164D01*
G04 #@! TO.C,R1*
X134153641Y-101580000D02*
X133846359Y-101580000D01*
X134153641Y-100820000D02*
X133846359Y-100820000D01*
G04 #@! TO.C,C45*
X133592164Y-91840000D02*
X133807836Y-91840000D01*
X133592164Y-92560000D02*
X133807836Y-92560000D01*
G04 #@! TO.C,C6*
X133907836Y-96340000D02*
X133692164Y-96340000D01*
X133907836Y-97060000D02*
X133692164Y-97060000D01*
G04 #@! TO.C,C68*
X126640000Y-96392164D02*
X126640000Y-96607836D01*
X127360000Y-96392164D02*
X127360000Y-96607836D01*
G04 #@! TO.C,C17*
X133860000Y-84107836D02*
X133860000Y-83892164D01*
X133140000Y-84107836D02*
X133140000Y-83892164D01*
G04 #@! TO.C,C66*
X153640000Y-107907836D02*
X153640000Y-107692164D01*
X154360000Y-107907836D02*
X154360000Y-107692164D01*
G04 #@! TO.C,C43*
X156192164Y-99440000D02*
X156407836Y-99440000D01*
X156192164Y-100160000D02*
X156407836Y-100160000D01*
G04 #@! TO.C,C46*
X156192164Y-89840000D02*
X156407836Y-89840000D01*
X156192164Y-90560000D02*
X156407836Y-90560000D01*
G04 #@! TO.C,C62*
X154360000Y-110792164D02*
X154360000Y-111007836D01*
X153640000Y-110792164D02*
X153640000Y-111007836D01*
G04 #@! TO.C,R5*
X159620000Y-88253641D02*
X159620000Y-87946359D01*
X160380000Y-88253641D02*
X160380000Y-87946359D01*
G04 #@! TO.C,C5*
X133840580Y-94740000D02*
X133559420Y-94740000D01*
X133840580Y-95760000D02*
X133559420Y-95760000D01*
G04 #@! TO.C,C24*
X156192164Y-95840000D02*
X156407836Y-95840000D01*
X156192164Y-96560000D02*
X156407836Y-96560000D01*
G04 #@! TO.C,C44*
X133559420Y-93240000D02*
X133840580Y-93240000D01*
X133559420Y-94260000D02*
X133840580Y-94260000D01*
G04 #@! TO.C,C28*
X144640000Y-86792164D02*
X144640000Y-87007836D01*
X145360000Y-86792164D02*
X145360000Y-87007836D01*
G04 #@! TO.C,R4*
X146196359Y-76520000D02*
X146503641Y-76520000D01*
X146196359Y-77280000D02*
X146503641Y-77280000D01*
G04 #@! TO.C,TP3*
X125800000Y-94600000D02*
G75*
G03*
X125800000Y-94600000I-700000J0D01*
G01*
G04 #@! TO.C,U3*
X154750000Y-80310000D02*
X156550000Y-80310000D01*
X154750000Y-77190000D02*
X153950000Y-77190000D01*
X154750000Y-77190000D02*
X155550000Y-77190000D01*
X154750000Y-80310000D02*
X153950000Y-80310000D01*
G04 #@! TO.C,C21*
X138010000Y-84040580D02*
X138010000Y-83759420D01*
X136990000Y-84040580D02*
X136990000Y-83759420D01*
G04 #@! TO.C,TP9*
X131800000Y-84400000D02*
G75*
G03*
X131800000Y-84400000I-700000J0D01*
G01*
G04 #@! TO.C,FL2*
X161600000Y-97717000D02*
X161600000Y-97717000D01*
X161500000Y-97717000D02*
X161500000Y-97717000D01*
X161500000Y-97717000D02*
G75*
G03*
X161600000Y-97717000I50000J0D01*
G01*
X161600000Y-97717000D02*
G75*
G03*
X161500000Y-97717000I-50000J0D01*
G01*
G04 #@! TO.C,C38*
X143360000Y-84127836D02*
X143360000Y-83912164D01*
X142640000Y-84127836D02*
X142640000Y-83912164D01*
G04 #@! TO.C,C61*
X159092164Y-104740000D02*
X159307836Y-104740000D01*
X159092164Y-105460000D02*
X159307836Y-105460000D01*
G04 #@! TO.C,C52*
X159092164Y-90610000D02*
X159307836Y-90610000D01*
X159092164Y-89890000D02*
X159307836Y-89890000D01*
G04 #@! TO.C,C60*
X156407836Y-93140000D02*
X156192164Y-93140000D01*
X156407836Y-93860000D02*
X156192164Y-93860000D01*
G04 #@! TO.C,C49*
X143460000Y-111107836D02*
X143460000Y-110892164D01*
X142740000Y-111107836D02*
X142740000Y-110892164D01*
G04 #@! TO.C,C13*
X151390000Y-79090580D02*
X151390000Y-78809420D01*
X152410000Y-79090580D02*
X152410000Y-78809420D01*
G04 #@! TO.C,J1*
X164590000Y-106440000D02*
X163600000Y-106440000D01*
X165740000Y-111610000D02*
X164590000Y-111610000D01*
X164590000Y-111610000D02*
X164590000Y-110560000D01*
X165740000Y-105390000D02*
X164590000Y-105390000D01*
X164590000Y-105390000D02*
X164590000Y-106440000D01*
X167710000Y-106560000D02*
X167710000Y-110440000D01*
G04 #@! TO.C,C31*
X135360000Y-111007836D02*
X135360000Y-110792164D01*
X134640000Y-111007836D02*
X134640000Y-110792164D01*
G04 #@! TO.C,C7*
X133890580Y-97740000D02*
X133609420Y-97740000D01*
X133890580Y-98760000D02*
X133609420Y-98760000D01*
G04 #@! TO.C,L1*
X141749622Y-82260000D02*
X140950378Y-82260000D01*
X141749622Y-81140000D02*
X140950378Y-81140000D01*
G04 #@! TO.C,C42*
X156407836Y-91560000D02*
X156192164Y-91560000D01*
X156407836Y-90840000D02*
X156192164Y-90840000D01*
G04 #@! TO.C,FB3*
X147240000Y-79512779D02*
X147240000Y-79187221D01*
X148260000Y-79512779D02*
X148260000Y-79187221D01*
G04 #@! TO.C,C35*
X151990000Y-84490580D02*
X151990000Y-84209420D01*
X153010000Y-84490580D02*
X153010000Y-84209420D01*
G04 #@! TO.C,R9*
X160663641Y-89080000D02*
X160356359Y-89080000D01*
X160663641Y-88320000D02*
X160356359Y-88320000D01*
G04 #@! TO.C,C50*
X136360000Y-84007836D02*
X136360000Y-83792164D01*
X135640000Y-84007836D02*
X135640000Y-83792164D01*
G04 #@! TO.C,C47*
X143640000Y-110892164D02*
X143640000Y-111107836D01*
X144360000Y-110892164D02*
X144360000Y-111107836D01*
G04 #@! TO.C,C2*
X155942164Y-104560000D02*
X156157836Y-104560000D01*
X155942164Y-103840000D02*
X156157836Y-103840000D01*
G04 #@! TO.C,C10*
X157140000Y-78809420D02*
X157140000Y-79090580D01*
X158160000Y-78809420D02*
X158160000Y-79090580D01*
G04 #@! TO.C,C22*
X134860000Y-83892164D02*
X134860000Y-84107836D01*
X134140000Y-83892164D02*
X134140000Y-84107836D01*
G04 #@! TO.C,R11*
X127620000Y-96346359D02*
X127620000Y-96653641D01*
X128380000Y-96346359D02*
X128380000Y-96653641D01*
G04 #@! TO.C,TP7*
X126000000Y-84500000D02*
G75*
G03*
X126000000Y-84500000I-700000J0D01*
G01*
G04 #@! TO.C,C54*
X159092164Y-106840000D02*
X159307836Y-106840000D01*
X159092164Y-107560000D02*
X159307836Y-107560000D01*
G04 #@! TO.C,C25*
X133559420Y-108210000D02*
X133840580Y-108210000D01*
X133559420Y-107190000D02*
X133840580Y-107190000D01*
G04 #@! TO.C,U1*
X143300000Y-77590000D02*
X144100000Y-77590000D01*
X143300000Y-80710000D02*
X144100000Y-80710000D01*
X143300000Y-77590000D02*
X141500000Y-77590000D01*
X143300000Y-80710000D02*
X142500000Y-80710000D01*
G04 #@! TO.C,C67*
X129090000Y-90107836D02*
X129090000Y-89892164D01*
X129810000Y-90107836D02*
X129810000Y-89892164D01*
G04 #@! TO.C,C12*
X140847500Y-79209420D02*
X140847500Y-79490580D01*
X139827500Y-79209420D02*
X139827500Y-79490580D01*
G04 #@! TO.C,J9*
X162600000Y-100300000D02*
X162600000Y-100300000D01*
X163600000Y-100950000D02*
X163600000Y-102300000D01*
X163600000Y-89150000D02*
X163600000Y-87800000D01*
X163600000Y-87800000D02*
X166350000Y-87800000D01*
X163600000Y-102300000D02*
X166350000Y-102300000D01*
X168500000Y-100750000D02*
X168500000Y-89550000D01*
X162700000Y-100300000D02*
X162700000Y-100300000D01*
X162600000Y-100300000D02*
G75*
G03*
X162700000Y-100300000I50000J0D01*
G01*
X162700000Y-100300000D02*
G75*
G03*
X162600000Y-100300000I-50000J0D01*
G01*
G04 #@! TO.C,C39*
X153010000Y-111009420D02*
X153010000Y-111290580D01*
X151990000Y-111009420D02*
X151990000Y-111290580D01*
G04 #@! TO.C,C59*
X136360000Y-108057836D02*
X136360000Y-107842164D01*
X135640000Y-108057836D02*
X135640000Y-107842164D01*
G04 #@! TO.C,C56*
X159307836Y-91510000D02*
X159092164Y-91510000D01*
X159307836Y-90790000D02*
X159092164Y-90790000D01*
G04 #@! TO.C,C65*
X153640000Y-87192164D02*
X153640000Y-87407836D01*
X154360000Y-87192164D02*
X154360000Y-87407836D01*
G04 #@! TO.C,C20*
X156407836Y-97460000D02*
X156192164Y-97460000D01*
X156407836Y-96740000D02*
X156192164Y-96740000D01*
G04 #@! TO.C,C26*
X136990000Y-110759420D02*
X136990000Y-111040580D01*
X138010000Y-110759420D02*
X138010000Y-111040580D01*
G04 #@! TO.C,C64*
X159307836Y-106460000D02*
X159092164Y-106460000D01*
X159307836Y-105740000D02*
X159092164Y-105740000D01*
G04 #@! TO.C,C30*
X156407836Y-98540000D02*
X156192164Y-98540000D01*
X156407836Y-99260000D02*
X156192164Y-99260000D01*
G04 #@! TO.C,C19*
X133559420Y-86490000D02*
X133840580Y-86490000D01*
X133559420Y-87510000D02*
X133840580Y-87510000D01*
G04 #@! TO.C,C9*
X132640000Y-103292164D02*
X132640000Y-103507836D01*
X133360000Y-103292164D02*
X133360000Y-103507836D01*
G04 #@! TO.C,C51*
X156407836Y-94940000D02*
X156192164Y-94940000D01*
X156407836Y-95660000D02*
X156192164Y-95660000D01*
G04 #@! TO.C,C3*
X134130810Y-90178307D02*
X133978307Y-90330810D01*
X133621693Y-89669190D02*
X133469190Y-89821693D01*
G04 #@! TO.C,TP4*
X128900000Y-84500000D02*
G75*
G03*
X128900000Y-84500000I-700000J0D01*
G01*
G04 #@! TO.C,R2*
X155946359Y-102420000D02*
X156253641Y-102420000D01*
X155946359Y-103180000D02*
X156253641Y-103180000D01*
D14*
G04 #@! TO.C,C71*
X154692164Y-113140000D02*
X154907836Y-113140000D01*
X154692164Y-113860000D02*
X154907836Y-113860000D01*
D13*
G04 #@! TO.C,TP10*
X149050000Y-110900000D02*
G75*
G03*
X149050000Y-110900000I-700000J0D01*
G01*
D14*
G04 #@! TO.C,U7*
X155654100Y-116705705D02*
X155654100Y-115694295D01*
X153545900Y-115694295D02*
X153545900Y-116705705D01*
X155654100Y-115895200D02*
G75*
G03*
X155654100Y-116504800I0J-304800D01*
G01*
D13*
G04 #@! TO.C,C8*
X133360000Y-88807836D02*
X133360000Y-88592164D01*
X132640000Y-88807836D02*
X132640000Y-88592164D01*
G04 #@! TO.C,FL1*
X161600000Y-99217000D02*
X161600000Y-99217000D01*
X161500000Y-99217000D02*
X161500000Y-99217000D01*
X161600000Y-99217000D02*
G75*
G03*
X161500000Y-99217000I-50000J0D01*
G01*
X161500000Y-99217000D02*
G75*
G03*
X161600000Y-99217000I50000J0D01*
G01*
G04 #@! TO.C,C27*
X133640000Y-110792164D02*
X133640000Y-111007836D01*
X134360000Y-110792164D02*
X134360000Y-111007836D01*
G04 #@! TO.C,C11*
X128280000Y-86610000D02*
X128280000Y-86610000D01*
X128280000Y-86510000D02*
X128280000Y-86510000D01*
X128280000Y-86510000D02*
G75*
G03*
X128280000Y-86610000I0J-50000D01*
G01*
X128280000Y-86610000D02*
G75*
G03*
X128280000Y-86510000I0J50000D01*
G01*
G04 #@! TO.C,R8*
X149880000Y-109746359D02*
X149880000Y-110053641D01*
X149120000Y-109746359D02*
X149120000Y-110053641D01*
G04 #@! TO.C,C48*
X156340580Y-106210000D02*
X156059420Y-106210000D01*
X156340580Y-105190000D02*
X156059420Y-105190000D01*
G04 #@! TO.C,FL3*
X161600000Y-96217000D02*
X161600000Y-96217000D01*
X161500000Y-96217000D02*
X161500000Y-96217000D01*
X161600000Y-96217000D02*
G75*
G03*
X161500000Y-96217000I-50000J0D01*
G01*
X161500000Y-96217000D02*
G75*
G03*
X161600000Y-96217000I50000J0D01*
G01*
D14*
G04 #@! TO.C,J3*
X139885000Y-116285000D02*
X139885000Y-115655000D01*
X140525000Y-116285000D02*
X139885000Y-116285000D01*
X137725000Y-116285000D02*
X138365000Y-116285000D01*
X140475000Y-119005000D02*
X137775000Y-119005000D01*
D13*
G04 #@! TO.C,C34*
X156192164Y-97640000D02*
X156407836Y-97640000D01*
X156192164Y-98360000D02*
X156407836Y-98360000D01*
G04 #@! TO.C,C40*
X156407836Y-100340000D02*
X156192164Y-100340000D01*
X156407836Y-101060000D02*
X156192164Y-101060000D01*
G04 #@! TO.C,TP1*
X139500000Y-80350000D02*
G75*
G03*
X139500000Y-80350000I-700000J0D01*
G01*
G04 #@! TO.C,C33*
X155460000Y-111007836D02*
X155460000Y-110792164D01*
X154740000Y-111007836D02*
X154740000Y-110792164D01*
G04 #@! TO.C,U4*
X130360000Y-94250000D02*
X130360000Y-91750000D01*
X127640000Y-93000000D02*
X127640000Y-91750000D01*
G04 #@! TO.C,C57*
X136360000Y-87092164D02*
X136360000Y-87307836D01*
X135640000Y-87092164D02*
X135640000Y-87307836D01*
G04 #@! TO.C,FB1*
X158690000Y-78787221D02*
X158690000Y-79112779D01*
X159710000Y-78787221D02*
X159710000Y-79112779D01*
G04 #@! TO.C,C16*
X159607836Y-83040000D02*
X159392164Y-83040000D01*
X159607836Y-83760000D02*
X159392164Y-83760000D01*
D14*
G04 #@! TO.C,C72*
X154507836Y-118540000D02*
X154292164Y-118540000D01*
X154507836Y-119260000D02*
X154292164Y-119260000D01*
G04 #@! TO.C,J5*
X167755000Y-82700000D02*
X167755000Y-85400000D01*
X165035000Y-83290000D02*
X164405000Y-83290000D01*
X165035000Y-82650000D02*
X165035000Y-83290000D01*
X165035000Y-85450000D02*
X165035000Y-84810000D01*
D13*
G04 #@! TO.C,JP1*
X150900000Y-86400000D02*
X152300000Y-86400000D01*
X153000000Y-87100000D02*
X153000000Y-87700000D01*
X150200000Y-87700000D02*
X150200000Y-87100000D01*
X152300000Y-88400000D02*
X150900000Y-88400000D01*
X150200000Y-87700000D02*
G75*
G03*
X150900000Y-88400000I699999J-1D01*
G01*
X150900000Y-86400000D02*
G75*
G03*
X150200000Y-87100000I-1J-699999D01*
G01*
X153000000Y-87100000D02*
G75*
G03*
X152300000Y-86400000I-700000J0D01*
G01*
X152300000Y-88400000D02*
G75*
G03*
X153000000Y-87700000I0J700000D01*
G01*
G04 #@! TO.C,C63*
X156192164Y-92240000D02*
X156407836Y-92240000D01*
X156192164Y-92960000D02*
X156407836Y-92960000D01*
G04 #@! TO.C,C58*
X154360000Y-84007836D02*
X154360000Y-83792164D01*
X153640000Y-84007836D02*
X153640000Y-83792164D01*
G04 #@! TO.C,C14*
X127540580Y-89690000D02*
X127259420Y-89690000D01*
X127540580Y-90710000D02*
X127259420Y-90710000D01*
G04 #@! TO.C,C15*
X146710000Y-79490580D02*
X146710000Y-79209420D01*
X145690000Y-79490580D02*
X145690000Y-79209420D01*
G04 #@! TO.C,C29*
X156460000Y-110792164D02*
X156460000Y-111007836D01*
X155740000Y-110792164D02*
X155740000Y-111007836D01*
G04 #@! TO.C,C23*
X156360000Y-83792164D02*
X156360000Y-84007836D01*
X155640000Y-83792164D02*
X155640000Y-84007836D01*
G04 #@! TO.C,FL5*
X161600000Y-93217000D02*
X161600000Y-93217000D01*
X161500000Y-93217000D02*
X161500000Y-93217000D01*
X161500000Y-93217000D02*
G75*
G03*
X161600000Y-93217000I50000J0D01*
G01*
X161600000Y-93217000D02*
G75*
G03*
X161500000Y-93217000I-50000J0D01*
G01*
G04 #@! TD*
M02*
