G04 #@! TF.GenerationSoftware,KiCad,Pcbnew,8.0.4*
G04 #@! TF.CreationDate,2025-07-27T15:22:32-07:00*
G04 #@! TF.ProjectId,FourThirdsEye_Small,466f7572-5468-4697-9264-734579655f53,rev?*
G04 #@! TF.SameCoordinates,Original*
G04 #@! TF.FileFunction,Soldermask,Top*
G04 #@! TF.FilePolarity,Negative*
%FSLAX46Y46*%
G04 Gerber Fmt 4.6, Leading zero omitted, Abs format (unit mm)*
G04 Created by KiCad (PCBNEW 8.0.4) date 2025-07-27 15:22:32*
%MOMM*%
%LPD*%
G01*
G04 APERTURE LIST*
%ADD10C,0.010000*%
%ADD11R,0.300000X0.230000*%
%ADD12R,0.850000X0.650000*%
%ADD13C,1.000000*%
%ADD14R,0.299999X0.449999*%
%ADD15C,5.600000*%
%ADD16R,1.800000X0.300000*%
%ADD17R,0.254000X1.168400*%
%ADD18R,0.600000X0.600000*%
%ADD19R,0.400000X0.400000*%
%ADD20R,2.000000X1.200000*%
G04 APERTURE END LIST*
G04 #@! TO.C,*
G36*
X129250000Y-75050000D02*
G01*
X135150000Y-75050000D01*
X135150000Y-80950000D01*
X129250000Y-80950000D01*
X129250000Y-75050000D01*
G37*
G04 #@! TO.C,J4*
G36*
X139640000Y-115485000D02*
G01*
X137760000Y-115485000D01*
X137760000Y-117575000D01*
X139640000Y-117575000D01*
X139640000Y-115485000D01*
G37*
D10*
G04 #@! TO.C,U8*
X149498000Y-115926000D02*
X149505000Y-115927000D01*
X149511000Y-115928000D01*
X149517000Y-115929000D01*
X149524000Y-115931000D01*
X149530000Y-115933000D01*
X149536000Y-115936000D01*
X149542000Y-115939000D01*
X149548000Y-115942000D01*
X149553000Y-115945000D01*
X149558000Y-115949000D01*
X149564000Y-115953000D01*
X149569000Y-115957000D01*
X149573000Y-115962000D01*
X149578000Y-115966000D01*
X149582000Y-115971000D01*
X149586000Y-115977000D01*
X149590000Y-115982000D01*
X149593000Y-115988000D01*
X149596000Y-115993000D01*
X149599000Y-115999000D01*
X149602000Y-116005000D01*
X149604000Y-116011000D01*
X149606000Y-116018000D01*
X149607000Y-116024000D01*
X149608000Y-116030000D01*
X149609000Y-116037000D01*
X149610000Y-116043000D01*
X149610000Y-116050000D01*
X149610000Y-116250000D01*
X149610000Y-116257000D01*
X149609000Y-116263000D01*
X149608000Y-116270000D01*
X149607000Y-116276000D01*
X149606000Y-116282000D01*
X149604000Y-116289000D01*
X149602000Y-116295000D01*
X149599000Y-116301000D01*
X149596000Y-116307000D01*
X149593000Y-116312000D01*
X149590000Y-116318000D01*
X149586000Y-116323000D01*
X149582000Y-116329000D01*
X149578000Y-116334000D01*
X149573000Y-116338000D01*
X149569000Y-116343000D01*
X149564000Y-116347000D01*
X149558000Y-116351000D01*
X149553000Y-116355000D01*
X149548000Y-116358000D01*
X149542000Y-116361000D01*
X149536000Y-116364000D01*
X149530000Y-116367000D01*
X149524000Y-116369000D01*
X149517000Y-116371000D01*
X149511000Y-116372000D01*
X149505000Y-116373000D01*
X149498000Y-116374000D01*
X149492000Y-116375000D01*
X149485000Y-116375000D01*
X149045000Y-116375000D01*
X149038000Y-116375000D01*
X149032000Y-116374000D01*
X149025000Y-116373000D01*
X149019000Y-116372000D01*
X149013000Y-116371000D01*
X149006000Y-116369000D01*
X149000000Y-116367000D01*
X148994000Y-116364000D01*
X148988000Y-116361000D01*
X148982000Y-116358000D01*
X148977000Y-116355000D01*
X148972000Y-116351000D01*
X148966000Y-116347000D01*
X148961000Y-116343000D01*
X148957000Y-116338000D01*
X148952000Y-116334000D01*
X148948000Y-116329000D01*
X148944000Y-116323000D01*
X148940000Y-116318000D01*
X148937000Y-116312000D01*
X148934000Y-116307000D01*
X148931000Y-116301000D01*
X148928000Y-116295000D01*
X148926000Y-116289000D01*
X148924000Y-116282000D01*
X148923000Y-116276000D01*
X148922000Y-116270000D01*
X148921000Y-116263000D01*
X148920000Y-116257000D01*
X148920000Y-116250000D01*
X148920000Y-116050000D01*
X148920000Y-116043000D01*
X148921000Y-116037000D01*
X148922000Y-116030000D01*
X148923000Y-116024000D01*
X148924000Y-116018000D01*
X148926000Y-116011000D01*
X148928000Y-116005000D01*
X148931000Y-115999000D01*
X148934000Y-115993000D01*
X148937000Y-115988000D01*
X148940000Y-115982000D01*
X148944000Y-115977000D01*
X148948000Y-115971000D01*
X148952000Y-115966000D01*
X148957000Y-115962000D01*
X148961000Y-115957000D01*
X148966000Y-115953000D01*
X148972000Y-115949000D01*
X148977000Y-115945000D01*
X148982000Y-115942000D01*
X148988000Y-115939000D01*
X148994000Y-115936000D01*
X149000000Y-115933000D01*
X149006000Y-115931000D01*
X149013000Y-115929000D01*
X149019000Y-115928000D01*
X149025000Y-115927000D01*
X149032000Y-115926000D01*
X149038000Y-115925000D01*
X149045000Y-115925000D01*
X149485000Y-115925000D01*
X149492000Y-115925000D01*
X149498000Y-115926000D01*
G36*
X149498000Y-115926000D02*
G01*
X149505000Y-115927000D01*
X149511000Y-115928000D01*
X149517000Y-115929000D01*
X149524000Y-115931000D01*
X149530000Y-115933000D01*
X149536000Y-115936000D01*
X149542000Y-115939000D01*
X149548000Y-115942000D01*
X149553000Y-115945000D01*
X149558000Y-115949000D01*
X149564000Y-115953000D01*
X149569000Y-115957000D01*
X149573000Y-115962000D01*
X149578000Y-115966000D01*
X149582000Y-115971000D01*
X149586000Y-115977000D01*
X149590000Y-115982000D01*
X149593000Y-115988000D01*
X149596000Y-115993000D01*
X149599000Y-115999000D01*
X149602000Y-116005000D01*
X149604000Y-116011000D01*
X149606000Y-116018000D01*
X149607000Y-116024000D01*
X149608000Y-116030000D01*
X149609000Y-116037000D01*
X149610000Y-116043000D01*
X149610000Y-116050000D01*
X149610000Y-116250000D01*
X149610000Y-116257000D01*
X149609000Y-116263000D01*
X149608000Y-116270000D01*
X149607000Y-116276000D01*
X149606000Y-116282000D01*
X149604000Y-116289000D01*
X149602000Y-116295000D01*
X149599000Y-116301000D01*
X149596000Y-116307000D01*
X149593000Y-116312000D01*
X149590000Y-116318000D01*
X149586000Y-116323000D01*
X149582000Y-116329000D01*
X149578000Y-116334000D01*
X149573000Y-116338000D01*
X149569000Y-116343000D01*
X149564000Y-116347000D01*
X149558000Y-116351000D01*
X149553000Y-116355000D01*
X149548000Y-116358000D01*
X149542000Y-116361000D01*
X149536000Y-116364000D01*
X149530000Y-116367000D01*
X149524000Y-116369000D01*
X149517000Y-116371000D01*
X149511000Y-116372000D01*
X149505000Y-116373000D01*
X149498000Y-116374000D01*
X149492000Y-116375000D01*
X149485000Y-116375000D01*
X149045000Y-116375000D01*
X149038000Y-116375000D01*
X149032000Y-116374000D01*
X149025000Y-116373000D01*
X149019000Y-116372000D01*
X149013000Y-116371000D01*
X149006000Y-116369000D01*
X149000000Y-116367000D01*
X148994000Y-116364000D01*
X148988000Y-116361000D01*
X148982000Y-116358000D01*
X148977000Y-116355000D01*
X148972000Y-116351000D01*
X148966000Y-116347000D01*
X148961000Y-116343000D01*
X148957000Y-116338000D01*
X148952000Y-116334000D01*
X148948000Y-116329000D01*
X148944000Y-116323000D01*
X148940000Y-116318000D01*
X148937000Y-116312000D01*
X148934000Y-116307000D01*
X148931000Y-116301000D01*
X148928000Y-116295000D01*
X148926000Y-116289000D01*
X148924000Y-116282000D01*
X148923000Y-116276000D01*
X148922000Y-116270000D01*
X148921000Y-116263000D01*
X148920000Y-116257000D01*
X148920000Y-116250000D01*
X148920000Y-116050000D01*
X148920000Y-116043000D01*
X148921000Y-116037000D01*
X148922000Y-116030000D01*
X148923000Y-116024000D01*
X148924000Y-116018000D01*
X148926000Y-116011000D01*
X148928000Y-116005000D01*
X148931000Y-115999000D01*
X148934000Y-115993000D01*
X148937000Y-115988000D01*
X148940000Y-115982000D01*
X148944000Y-115977000D01*
X148948000Y-115971000D01*
X148952000Y-115966000D01*
X148957000Y-115962000D01*
X148961000Y-115957000D01*
X148966000Y-115953000D01*
X148972000Y-115949000D01*
X148977000Y-115945000D01*
X148982000Y-115942000D01*
X148988000Y-115939000D01*
X148994000Y-115936000D01*
X149000000Y-115933000D01*
X149006000Y-115931000D01*
X149013000Y-115929000D01*
X149019000Y-115928000D01*
X149025000Y-115927000D01*
X149032000Y-115926000D01*
X149038000Y-115925000D01*
X149045000Y-115925000D01*
X149485000Y-115925000D01*
X149492000Y-115925000D01*
X149498000Y-115926000D01*
G37*
X149498000Y-115426000D02*
X149505000Y-115427000D01*
X149511000Y-115428000D01*
X149517000Y-115429000D01*
X149524000Y-115431000D01*
X149530000Y-115433000D01*
X149536000Y-115436000D01*
X149542000Y-115439000D01*
X149548000Y-115442000D01*
X149553000Y-115445000D01*
X149558000Y-115449000D01*
X149564000Y-115453000D01*
X149569000Y-115457000D01*
X149573000Y-115462000D01*
X149578000Y-115466000D01*
X149582000Y-115471000D01*
X149586000Y-115477000D01*
X149590000Y-115482000D01*
X149593000Y-115488000D01*
X149596000Y-115493000D01*
X149599000Y-115499000D01*
X149602000Y-115505000D01*
X149604000Y-115511000D01*
X149606000Y-115518000D01*
X149607000Y-115524000D01*
X149608000Y-115530000D01*
X149609000Y-115537000D01*
X149610000Y-115543000D01*
X149610000Y-115550000D01*
X149610000Y-115750000D01*
X149610000Y-115757000D01*
X149609000Y-115763000D01*
X149608000Y-115770000D01*
X149607000Y-115776000D01*
X149606000Y-115782000D01*
X149604000Y-115789000D01*
X149602000Y-115795000D01*
X149599000Y-115801000D01*
X149596000Y-115807000D01*
X149593000Y-115812000D01*
X149590000Y-115818000D01*
X149586000Y-115823000D01*
X149582000Y-115829000D01*
X149578000Y-115834000D01*
X149573000Y-115838000D01*
X149569000Y-115843000D01*
X149564000Y-115847000D01*
X149558000Y-115851000D01*
X149553000Y-115855000D01*
X149548000Y-115858000D01*
X149542000Y-115861000D01*
X149536000Y-115864000D01*
X149530000Y-115867000D01*
X149524000Y-115869000D01*
X149517000Y-115871000D01*
X149511000Y-115872000D01*
X149505000Y-115873000D01*
X149498000Y-115874000D01*
X149492000Y-115875000D01*
X149485000Y-115875000D01*
X149045000Y-115875000D01*
X149038000Y-115875000D01*
X149032000Y-115874000D01*
X149025000Y-115873000D01*
X149019000Y-115872000D01*
X149013000Y-115871000D01*
X149006000Y-115869000D01*
X149000000Y-115867000D01*
X148994000Y-115864000D01*
X148988000Y-115861000D01*
X148982000Y-115858000D01*
X148977000Y-115855000D01*
X148972000Y-115851000D01*
X148966000Y-115847000D01*
X148961000Y-115843000D01*
X148957000Y-115838000D01*
X148952000Y-115834000D01*
X148948000Y-115829000D01*
X148944000Y-115823000D01*
X148940000Y-115818000D01*
X148937000Y-115812000D01*
X148934000Y-115807000D01*
X148931000Y-115801000D01*
X148928000Y-115795000D01*
X148926000Y-115789000D01*
X148924000Y-115782000D01*
X148923000Y-115776000D01*
X148922000Y-115770000D01*
X148921000Y-115763000D01*
X148920000Y-115757000D01*
X148920000Y-115750000D01*
X148920000Y-115550000D01*
X148920000Y-115543000D01*
X148921000Y-115537000D01*
X148922000Y-115530000D01*
X148923000Y-115524000D01*
X148924000Y-115518000D01*
X148926000Y-115511000D01*
X148928000Y-115505000D01*
X148931000Y-115499000D01*
X148934000Y-115493000D01*
X148937000Y-115488000D01*
X148940000Y-115482000D01*
X148944000Y-115477000D01*
X148948000Y-115471000D01*
X148952000Y-115466000D01*
X148957000Y-115462000D01*
X148961000Y-115457000D01*
X148966000Y-115453000D01*
X148972000Y-115449000D01*
X148977000Y-115445000D01*
X148982000Y-115442000D01*
X148988000Y-115439000D01*
X148994000Y-115436000D01*
X149000000Y-115433000D01*
X149006000Y-115431000D01*
X149013000Y-115429000D01*
X149019000Y-115428000D01*
X149025000Y-115427000D01*
X149032000Y-115426000D01*
X149038000Y-115425000D01*
X149045000Y-115425000D01*
X149485000Y-115425000D01*
X149492000Y-115425000D01*
X149498000Y-115426000D01*
G36*
X149498000Y-115426000D02*
G01*
X149505000Y-115427000D01*
X149511000Y-115428000D01*
X149517000Y-115429000D01*
X149524000Y-115431000D01*
X149530000Y-115433000D01*
X149536000Y-115436000D01*
X149542000Y-115439000D01*
X149548000Y-115442000D01*
X149553000Y-115445000D01*
X149558000Y-115449000D01*
X149564000Y-115453000D01*
X149569000Y-115457000D01*
X149573000Y-115462000D01*
X149578000Y-115466000D01*
X149582000Y-115471000D01*
X149586000Y-115477000D01*
X149590000Y-115482000D01*
X149593000Y-115488000D01*
X149596000Y-115493000D01*
X149599000Y-115499000D01*
X149602000Y-115505000D01*
X149604000Y-115511000D01*
X149606000Y-115518000D01*
X149607000Y-115524000D01*
X149608000Y-115530000D01*
X149609000Y-115537000D01*
X149610000Y-115543000D01*
X149610000Y-115550000D01*
X149610000Y-115750000D01*
X149610000Y-115757000D01*
X149609000Y-115763000D01*
X149608000Y-115770000D01*
X149607000Y-115776000D01*
X149606000Y-115782000D01*
X149604000Y-115789000D01*
X149602000Y-115795000D01*
X149599000Y-115801000D01*
X149596000Y-115807000D01*
X149593000Y-115812000D01*
X149590000Y-115818000D01*
X149586000Y-115823000D01*
X149582000Y-115829000D01*
X149578000Y-115834000D01*
X149573000Y-115838000D01*
X149569000Y-115843000D01*
X149564000Y-115847000D01*
X149558000Y-115851000D01*
X149553000Y-115855000D01*
X149548000Y-115858000D01*
X149542000Y-115861000D01*
X149536000Y-115864000D01*
X149530000Y-115867000D01*
X149524000Y-115869000D01*
X149517000Y-115871000D01*
X149511000Y-115872000D01*
X149505000Y-115873000D01*
X149498000Y-115874000D01*
X149492000Y-115875000D01*
X149485000Y-115875000D01*
X149045000Y-115875000D01*
X149038000Y-115875000D01*
X149032000Y-115874000D01*
X149025000Y-115873000D01*
X149019000Y-115872000D01*
X149013000Y-115871000D01*
X149006000Y-115869000D01*
X149000000Y-115867000D01*
X148994000Y-115864000D01*
X148988000Y-115861000D01*
X148982000Y-115858000D01*
X148977000Y-115855000D01*
X148972000Y-115851000D01*
X148966000Y-115847000D01*
X148961000Y-115843000D01*
X148957000Y-115838000D01*
X148952000Y-115834000D01*
X148948000Y-115829000D01*
X148944000Y-115823000D01*
X148940000Y-115818000D01*
X148937000Y-115812000D01*
X148934000Y-115807000D01*
X148931000Y-115801000D01*
X148928000Y-115795000D01*
X148926000Y-115789000D01*
X148924000Y-115782000D01*
X148923000Y-115776000D01*
X148922000Y-115770000D01*
X148921000Y-115763000D01*
X148920000Y-115757000D01*
X148920000Y-115750000D01*
X148920000Y-115550000D01*
X148920000Y-115543000D01*
X148921000Y-115537000D01*
X148922000Y-115530000D01*
X148923000Y-115524000D01*
X148924000Y-115518000D01*
X148926000Y-115511000D01*
X148928000Y-115505000D01*
X148931000Y-115499000D01*
X148934000Y-115493000D01*
X148937000Y-115488000D01*
X148940000Y-115482000D01*
X148944000Y-115477000D01*
X148948000Y-115471000D01*
X148952000Y-115466000D01*
X148957000Y-115462000D01*
X148961000Y-115457000D01*
X148966000Y-115453000D01*
X148972000Y-115449000D01*
X148977000Y-115445000D01*
X148982000Y-115442000D01*
X148988000Y-115439000D01*
X148994000Y-115436000D01*
X149000000Y-115433000D01*
X149006000Y-115431000D01*
X149013000Y-115429000D01*
X149019000Y-115428000D01*
X149025000Y-115427000D01*
X149032000Y-115426000D01*
X149038000Y-115425000D01*
X149045000Y-115425000D01*
X149485000Y-115425000D01*
X149492000Y-115425000D01*
X149498000Y-115426000D01*
G37*
X149498000Y-114926000D02*
X149505000Y-114927000D01*
X149511000Y-114928000D01*
X149517000Y-114929000D01*
X149524000Y-114931000D01*
X149530000Y-114933000D01*
X149536000Y-114936000D01*
X149542000Y-114939000D01*
X149548000Y-114942000D01*
X149553000Y-114945000D01*
X149558000Y-114949000D01*
X149564000Y-114953000D01*
X149569000Y-114957000D01*
X149573000Y-114962000D01*
X149578000Y-114966000D01*
X149582000Y-114971000D01*
X149586000Y-114977000D01*
X149590000Y-114982000D01*
X149593000Y-114988000D01*
X149596000Y-114993000D01*
X149599000Y-114999000D01*
X149602000Y-115005000D01*
X149604000Y-115011000D01*
X149606000Y-115018000D01*
X149607000Y-115024000D01*
X149608000Y-115030000D01*
X149609000Y-115037000D01*
X149610000Y-115043000D01*
X149610000Y-115050000D01*
X149610000Y-115250000D01*
X149610000Y-115257000D01*
X149609000Y-115263000D01*
X149608000Y-115270000D01*
X149607000Y-115276000D01*
X149606000Y-115282000D01*
X149604000Y-115289000D01*
X149602000Y-115295000D01*
X149599000Y-115301000D01*
X149596000Y-115307000D01*
X149593000Y-115312000D01*
X149590000Y-115318000D01*
X149586000Y-115323000D01*
X149582000Y-115329000D01*
X149578000Y-115334000D01*
X149573000Y-115338000D01*
X149569000Y-115343000D01*
X149564000Y-115347000D01*
X149558000Y-115351000D01*
X149553000Y-115355000D01*
X149548000Y-115358000D01*
X149542000Y-115361000D01*
X149536000Y-115364000D01*
X149530000Y-115367000D01*
X149524000Y-115369000D01*
X149517000Y-115371000D01*
X149511000Y-115372000D01*
X149505000Y-115373000D01*
X149498000Y-115374000D01*
X149492000Y-115375000D01*
X149485000Y-115375000D01*
X149045000Y-115375000D01*
X149038000Y-115375000D01*
X149032000Y-115374000D01*
X149025000Y-115373000D01*
X149019000Y-115372000D01*
X149013000Y-115371000D01*
X149006000Y-115369000D01*
X149000000Y-115367000D01*
X148994000Y-115364000D01*
X148988000Y-115361000D01*
X148982000Y-115358000D01*
X148977000Y-115355000D01*
X148972000Y-115351000D01*
X148966000Y-115347000D01*
X148961000Y-115343000D01*
X148957000Y-115338000D01*
X148952000Y-115334000D01*
X148948000Y-115329000D01*
X148944000Y-115323000D01*
X148940000Y-115318000D01*
X148937000Y-115312000D01*
X148934000Y-115307000D01*
X148931000Y-115301000D01*
X148928000Y-115295000D01*
X148926000Y-115289000D01*
X148924000Y-115282000D01*
X148923000Y-115276000D01*
X148922000Y-115270000D01*
X148921000Y-115263000D01*
X148920000Y-115257000D01*
X148920000Y-115250000D01*
X148920000Y-115050000D01*
X148920000Y-115043000D01*
X148921000Y-115037000D01*
X148922000Y-115030000D01*
X148923000Y-115024000D01*
X148924000Y-115018000D01*
X148926000Y-115011000D01*
X148928000Y-115005000D01*
X148931000Y-114999000D01*
X148934000Y-114993000D01*
X148937000Y-114988000D01*
X148940000Y-114982000D01*
X148944000Y-114977000D01*
X148948000Y-114971000D01*
X148952000Y-114966000D01*
X148957000Y-114962000D01*
X148961000Y-114957000D01*
X148966000Y-114953000D01*
X148972000Y-114949000D01*
X148977000Y-114945000D01*
X148982000Y-114942000D01*
X148988000Y-114939000D01*
X148994000Y-114936000D01*
X149000000Y-114933000D01*
X149006000Y-114931000D01*
X149013000Y-114929000D01*
X149019000Y-114928000D01*
X149025000Y-114927000D01*
X149032000Y-114926000D01*
X149038000Y-114925000D01*
X149045000Y-114925000D01*
X149485000Y-114925000D01*
X149492000Y-114925000D01*
X149498000Y-114926000D01*
G36*
X149498000Y-114926000D02*
G01*
X149505000Y-114927000D01*
X149511000Y-114928000D01*
X149517000Y-114929000D01*
X149524000Y-114931000D01*
X149530000Y-114933000D01*
X149536000Y-114936000D01*
X149542000Y-114939000D01*
X149548000Y-114942000D01*
X149553000Y-114945000D01*
X149558000Y-114949000D01*
X149564000Y-114953000D01*
X149569000Y-114957000D01*
X149573000Y-114962000D01*
X149578000Y-114966000D01*
X149582000Y-114971000D01*
X149586000Y-114977000D01*
X149590000Y-114982000D01*
X149593000Y-114988000D01*
X149596000Y-114993000D01*
X149599000Y-114999000D01*
X149602000Y-115005000D01*
X149604000Y-115011000D01*
X149606000Y-115018000D01*
X149607000Y-115024000D01*
X149608000Y-115030000D01*
X149609000Y-115037000D01*
X149610000Y-115043000D01*
X149610000Y-115050000D01*
X149610000Y-115250000D01*
X149610000Y-115257000D01*
X149609000Y-115263000D01*
X149608000Y-115270000D01*
X149607000Y-115276000D01*
X149606000Y-115282000D01*
X149604000Y-115289000D01*
X149602000Y-115295000D01*
X149599000Y-115301000D01*
X149596000Y-115307000D01*
X149593000Y-115312000D01*
X149590000Y-115318000D01*
X149586000Y-115323000D01*
X149582000Y-115329000D01*
X149578000Y-115334000D01*
X149573000Y-115338000D01*
X149569000Y-115343000D01*
X149564000Y-115347000D01*
X149558000Y-115351000D01*
X149553000Y-115355000D01*
X149548000Y-115358000D01*
X149542000Y-115361000D01*
X149536000Y-115364000D01*
X149530000Y-115367000D01*
X149524000Y-115369000D01*
X149517000Y-115371000D01*
X149511000Y-115372000D01*
X149505000Y-115373000D01*
X149498000Y-115374000D01*
X149492000Y-115375000D01*
X149485000Y-115375000D01*
X149045000Y-115375000D01*
X149038000Y-115375000D01*
X149032000Y-115374000D01*
X149025000Y-115373000D01*
X149019000Y-115372000D01*
X149013000Y-115371000D01*
X149006000Y-115369000D01*
X149000000Y-115367000D01*
X148994000Y-115364000D01*
X148988000Y-115361000D01*
X148982000Y-115358000D01*
X148977000Y-115355000D01*
X148972000Y-115351000D01*
X148966000Y-115347000D01*
X148961000Y-115343000D01*
X148957000Y-115338000D01*
X148952000Y-115334000D01*
X148948000Y-115329000D01*
X148944000Y-115323000D01*
X148940000Y-115318000D01*
X148937000Y-115312000D01*
X148934000Y-115307000D01*
X148931000Y-115301000D01*
X148928000Y-115295000D01*
X148926000Y-115289000D01*
X148924000Y-115282000D01*
X148923000Y-115276000D01*
X148922000Y-115270000D01*
X148921000Y-115263000D01*
X148920000Y-115257000D01*
X148920000Y-115250000D01*
X148920000Y-115050000D01*
X148920000Y-115043000D01*
X148921000Y-115037000D01*
X148922000Y-115030000D01*
X148923000Y-115024000D01*
X148924000Y-115018000D01*
X148926000Y-115011000D01*
X148928000Y-115005000D01*
X148931000Y-114999000D01*
X148934000Y-114993000D01*
X148937000Y-114988000D01*
X148940000Y-114982000D01*
X148944000Y-114977000D01*
X148948000Y-114971000D01*
X148952000Y-114966000D01*
X148957000Y-114962000D01*
X148961000Y-114957000D01*
X148966000Y-114953000D01*
X148972000Y-114949000D01*
X148977000Y-114945000D01*
X148982000Y-114942000D01*
X148988000Y-114939000D01*
X148994000Y-114936000D01*
X149000000Y-114933000D01*
X149006000Y-114931000D01*
X149013000Y-114929000D01*
X149019000Y-114928000D01*
X149025000Y-114927000D01*
X149032000Y-114926000D01*
X149038000Y-114925000D01*
X149045000Y-114925000D01*
X149485000Y-114925000D01*
X149492000Y-114925000D01*
X149498000Y-114926000D01*
G37*
X149498000Y-114426000D02*
X149505000Y-114427000D01*
X149511000Y-114428000D01*
X149517000Y-114429000D01*
X149524000Y-114431000D01*
X149530000Y-114433000D01*
X149536000Y-114436000D01*
X149542000Y-114439000D01*
X149548000Y-114442000D01*
X149553000Y-114445000D01*
X149558000Y-114449000D01*
X149564000Y-114453000D01*
X149569000Y-114457000D01*
X149573000Y-114462000D01*
X149578000Y-114466000D01*
X149582000Y-114471000D01*
X149586000Y-114477000D01*
X149590000Y-114482000D01*
X149593000Y-114488000D01*
X149596000Y-114493000D01*
X149599000Y-114499000D01*
X149602000Y-114505000D01*
X149604000Y-114511000D01*
X149606000Y-114518000D01*
X149607000Y-114524000D01*
X149608000Y-114530000D01*
X149609000Y-114537000D01*
X149610000Y-114543000D01*
X149610000Y-114550000D01*
X149610000Y-114750000D01*
X149610000Y-114757000D01*
X149609000Y-114763000D01*
X149608000Y-114770000D01*
X149607000Y-114776000D01*
X149606000Y-114782000D01*
X149604000Y-114789000D01*
X149602000Y-114795000D01*
X149599000Y-114801000D01*
X149596000Y-114807000D01*
X149593000Y-114812000D01*
X149590000Y-114818000D01*
X149586000Y-114823000D01*
X149582000Y-114829000D01*
X149578000Y-114834000D01*
X149573000Y-114838000D01*
X149569000Y-114843000D01*
X149564000Y-114847000D01*
X149558000Y-114851000D01*
X149553000Y-114855000D01*
X149548000Y-114858000D01*
X149542000Y-114861000D01*
X149536000Y-114864000D01*
X149530000Y-114867000D01*
X149524000Y-114869000D01*
X149517000Y-114871000D01*
X149511000Y-114872000D01*
X149505000Y-114873000D01*
X149498000Y-114874000D01*
X149492000Y-114875000D01*
X149485000Y-114875000D01*
X149045000Y-114875000D01*
X149038000Y-114875000D01*
X149032000Y-114874000D01*
X149025000Y-114873000D01*
X149019000Y-114872000D01*
X149013000Y-114871000D01*
X149006000Y-114869000D01*
X149000000Y-114867000D01*
X148994000Y-114864000D01*
X148988000Y-114861000D01*
X148982000Y-114858000D01*
X148977000Y-114855000D01*
X148972000Y-114851000D01*
X148966000Y-114847000D01*
X148961000Y-114843000D01*
X148957000Y-114838000D01*
X148952000Y-114834000D01*
X148948000Y-114829000D01*
X148944000Y-114823000D01*
X148940000Y-114818000D01*
X148937000Y-114812000D01*
X148934000Y-114807000D01*
X148931000Y-114801000D01*
X148928000Y-114795000D01*
X148926000Y-114789000D01*
X148924000Y-114782000D01*
X148923000Y-114776000D01*
X148922000Y-114770000D01*
X148921000Y-114763000D01*
X148920000Y-114757000D01*
X148920000Y-114750000D01*
X148920000Y-114550000D01*
X148920000Y-114543000D01*
X148921000Y-114537000D01*
X148922000Y-114530000D01*
X148923000Y-114524000D01*
X148924000Y-114518000D01*
X148926000Y-114511000D01*
X148928000Y-114505000D01*
X148931000Y-114499000D01*
X148934000Y-114493000D01*
X148937000Y-114488000D01*
X148940000Y-114482000D01*
X148944000Y-114477000D01*
X148948000Y-114471000D01*
X148952000Y-114466000D01*
X148957000Y-114462000D01*
X148961000Y-114457000D01*
X148966000Y-114453000D01*
X148972000Y-114449000D01*
X148977000Y-114445000D01*
X148982000Y-114442000D01*
X148988000Y-114439000D01*
X148994000Y-114436000D01*
X149000000Y-114433000D01*
X149006000Y-114431000D01*
X149013000Y-114429000D01*
X149019000Y-114428000D01*
X149025000Y-114427000D01*
X149032000Y-114426000D01*
X149038000Y-114425000D01*
X149045000Y-114425000D01*
X149485000Y-114425000D01*
X149492000Y-114425000D01*
X149498000Y-114426000D01*
G36*
X149498000Y-114426000D02*
G01*
X149505000Y-114427000D01*
X149511000Y-114428000D01*
X149517000Y-114429000D01*
X149524000Y-114431000D01*
X149530000Y-114433000D01*
X149536000Y-114436000D01*
X149542000Y-114439000D01*
X149548000Y-114442000D01*
X149553000Y-114445000D01*
X149558000Y-114449000D01*
X149564000Y-114453000D01*
X149569000Y-114457000D01*
X149573000Y-114462000D01*
X149578000Y-114466000D01*
X149582000Y-114471000D01*
X149586000Y-114477000D01*
X149590000Y-114482000D01*
X149593000Y-114488000D01*
X149596000Y-114493000D01*
X149599000Y-114499000D01*
X149602000Y-114505000D01*
X149604000Y-114511000D01*
X149606000Y-114518000D01*
X149607000Y-114524000D01*
X149608000Y-114530000D01*
X149609000Y-114537000D01*
X149610000Y-114543000D01*
X149610000Y-114550000D01*
X149610000Y-114750000D01*
X149610000Y-114757000D01*
X149609000Y-114763000D01*
X149608000Y-114770000D01*
X149607000Y-114776000D01*
X149606000Y-114782000D01*
X149604000Y-114789000D01*
X149602000Y-114795000D01*
X149599000Y-114801000D01*
X149596000Y-114807000D01*
X149593000Y-114812000D01*
X149590000Y-114818000D01*
X149586000Y-114823000D01*
X149582000Y-114829000D01*
X149578000Y-114834000D01*
X149573000Y-114838000D01*
X149569000Y-114843000D01*
X149564000Y-114847000D01*
X149558000Y-114851000D01*
X149553000Y-114855000D01*
X149548000Y-114858000D01*
X149542000Y-114861000D01*
X149536000Y-114864000D01*
X149530000Y-114867000D01*
X149524000Y-114869000D01*
X149517000Y-114871000D01*
X149511000Y-114872000D01*
X149505000Y-114873000D01*
X149498000Y-114874000D01*
X149492000Y-114875000D01*
X149485000Y-114875000D01*
X149045000Y-114875000D01*
X149038000Y-114875000D01*
X149032000Y-114874000D01*
X149025000Y-114873000D01*
X149019000Y-114872000D01*
X149013000Y-114871000D01*
X149006000Y-114869000D01*
X149000000Y-114867000D01*
X148994000Y-114864000D01*
X148988000Y-114861000D01*
X148982000Y-114858000D01*
X148977000Y-114855000D01*
X148972000Y-114851000D01*
X148966000Y-114847000D01*
X148961000Y-114843000D01*
X148957000Y-114838000D01*
X148952000Y-114834000D01*
X148948000Y-114829000D01*
X148944000Y-114823000D01*
X148940000Y-114818000D01*
X148937000Y-114812000D01*
X148934000Y-114807000D01*
X148931000Y-114801000D01*
X148928000Y-114795000D01*
X148926000Y-114789000D01*
X148924000Y-114782000D01*
X148923000Y-114776000D01*
X148922000Y-114770000D01*
X148921000Y-114763000D01*
X148920000Y-114757000D01*
X148920000Y-114750000D01*
X148920000Y-114550000D01*
X148920000Y-114543000D01*
X148921000Y-114537000D01*
X148922000Y-114530000D01*
X148923000Y-114524000D01*
X148924000Y-114518000D01*
X148926000Y-114511000D01*
X148928000Y-114505000D01*
X148931000Y-114499000D01*
X148934000Y-114493000D01*
X148937000Y-114488000D01*
X148940000Y-114482000D01*
X148944000Y-114477000D01*
X148948000Y-114471000D01*
X148952000Y-114466000D01*
X148957000Y-114462000D01*
X148961000Y-114457000D01*
X148966000Y-114453000D01*
X148972000Y-114449000D01*
X148977000Y-114445000D01*
X148982000Y-114442000D01*
X148988000Y-114439000D01*
X148994000Y-114436000D01*
X149000000Y-114433000D01*
X149006000Y-114431000D01*
X149013000Y-114429000D01*
X149019000Y-114428000D01*
X149025000Y-114427000D01*
X149032000Y-114426000D01*
X149038000Y-114425000D01*
X149045000Y-114425000D01*
X149485000Y-114425000D01*
X149492000Y-114425000D01*
X149498000Y-114426000D01*
G37*
X148713000Y-115971000D02*
X148720000Y-115972000D01*
X148726000Y-115973000D01*
X148732000Y-115974000D01*
X148739000Y-115976000D01*
X148745000Y-115978000D01*
X148751000Y-115981000D01*
X148757000Y-115984000D01*
X148762000Y-115987000D01*
X148768000Y-115990000D01*
X148773000Y-115994000D01*
X148779000Y-115998000D01*
X148784000Y-116002000D01*
X148788000Y-116007000D01*
X148793000Y-116011000D01*
X148797000Y-116016000D01*
X148801000Y-116022000D01*
X148805000Y-116027000D01*
X148808000Y-116032000D01*
X148811000Y-116038000D01*
X148814000Y-116044000D01*
X148817000Y-116050000D01*
X148819000Y-116056000D01*
X148821000Y-116063000D01*
X148822000Y-116069000D01*
X148823000Y-116075000D01*
X148824000Y-116082000D01*
X148825000Y-116088000D01*
X148825000Y-116095000D01*
X148825000Y-116535000D01*
X148825000Y-116542000D01*
X148824000Y-116548000D01*
X148823000Y-116555000D01*
X148822000Y-116561000D01*
X148821000Y-116567000D01*
X148819000Y-116574000D01*
X148817000Y-116580000D01*
X148814000Y-116586000D01*
X148811000Y-116592000D01*
X148808000Y-116598000D01*
X148805000Y-116603000D01*
X148801000Y-116608000D01*
X148797000Y-116614000D01*
X148793000Y-116619000D01*
X148788000Y-116623000D01*
X148784000Y-116628000D01*
X148779000Y-116632000D01*
X148773000Y-116636000D01*
X148768000Y-116640000D01*
X148762000Y-116643000D01*
X148757000Y-116646000D01*
X148751000Y-116649000D01*
X148745000Y-116652000D01*
X148739000Y-116654000D01*
X148732000Y-116656000D01*
X148726000Y-116657000D01*
X148720000Y-116658000D01*
X148713000Y-116659000D01*
X148707000Y-116660000D01*
X148700000Y-116660000D01*
X148500000Y-116660000D01*
X148493000Y-116660000D01*
X148487000Y-116659000D01*
X148480000Y-116658000D01*
X148474000Y-116657000D01*
X148468000Y-116656000D01*
X148461000Y-116654000D01*
X148455000Y-116652000D01*
X148449000Y-116649000D01*
X148443000Y-116646000D01*
X148437000Y-116643000D01*
X148432000Y-116640000D01*
X148427000Y-116636000D01*
X148421000Y-116632000D01*
X148416000Y-116628000D01*
X148412000Y-116623000D01*
X148407000Y-116619000D01*
X148403000Y-116614000D01*
X148399000Y-116608000D01*
X148395000Y-116603000D01*
X148392000Y-116598000D01*
X148389000Y-116592000D01*
X148386000Y-116586000D01*
X148383000Y-116580000D01*
X148381000Y-116574000D01*
X148379000Y-116567000D01*
X148378000Y-116561000D01*
X148377000Y-116555000D01*
X148376000Y-116548000D01*
X148375000Y-116542000D01*
X148375000Y-116535000D01*
X148375000Y-116095000D01*
X148375000Y-116088000D01*
X148376000Y-116082000D01*
X148377000Y-116075000D01*
X148378000Y-116069000D01*
X148379000Y-116063000D01*
X148381000Y-116056000D01*
X148383000Y-116050000D01*
X148386000Y-116044000D01*
X148389000Y-116038000D01*
X148392000Y-116032000D01*
X148395000Y-116027000D01*
X148399000Y-116022000D01*
X148403000Y-116016000D01*
X148407000Y-116011000D01*
X148412000Y-116007000D01*
X148416000Y-116002000D01*
X148421000Y-115998000D01*
X148427000Y-115994000D01*
X148432000Y-115990000D01*
X148438000Y-115987000D01*
X148443000Y-115984000D01*
X148449000Y-115981000D01*
X148455000Y-115978000D01*
X148461000Y-115976000D01*
X148468000Y-115974000D01*
X148474000Y-115973000D01*
X148480000Y-115972000D01*
X148487000Y-115971000D01*
X148493000Y-115970000D01*
X148500000Y-115970000D01*
X148700000Y-115970000D01*
X148707000Y-115970000D01*
X148713000Y-115971000D01*
G36*
X148713000Y-115971000D02*
G01*
X148720000Y-115972000D01*
X148726000Y-115973000D01*
X148732000Y-115974000D01*
X148739000Y-115976000D01*
X148745000Y-115978000D01*
X148751000Y-115981000D01*
X148757000Y-115984000D01*
X148762000Y-115987000D01*
X148768000Y-115990000D01*
X148773000Y-115994000D01*
X148779000Y-115998000D01*
X148784000Y-116002000D01*
X148788000Y-116007000D01*
X148793000Y-116011000D01*
X148797000Y-116016000D01*
X148801000Y-116022000D01*
X148805000Y-116027000D01*
X148808000Y-116032000D01*
X148811000Y-116038000D01*
X148814000Y-116044000D01*
X148817000Y-116050000D01*
X148819000Y-116056000D01*
X148821000Y-116063000D01*
X148822000Y-116069000D01*
X148823000Y-116075000D01*
X148824000Y-116082000D01*
X148825000Y-116088000D01*
X148825000Y-116095000D01*
X148825000Y-116535000D01*
X148825000Y-116542000D01*
X148824000Y-116548000D01*
X148823000Y-116555000D01*
X148822000Y-116561000D01*
X148821000Y-116567000D01*
X148819000Y-116574000D01*
X148817000Y-116580000D01*
X148814000Y-116586000D01*
X148811000Y-116592000D01*
X148808000Y-116598000D01*
X148805000Y-116603000D01*
X148801000Y-116608000D01*
X148797000Y-116614000D01*
X148793000Y-116619000D01*
X148788000Y-116623000D01*
X148784000Y-116628000D01*
X148779000Y-116632000D01*
X148773000Y-116636000D01*
X148768000Y-116640000D01*
X148762000Y-116643000D01*
X148757000Y-116646000D01*
X148751000Y-116649000D01*
X148745000Y-116652000D01*
X148739000Y-116654000D01*
X148732000Y-116656000D01*
X148726000Y-116657000D01*
X148720000Y-116658000D01*
X148713000Y-116659000D01*
X148707000Y-116660000D01*
X148700000Y-116660000D01*
X148500000Y-116660000D01*
X148493000Y-116660000D01*
X148487000Y-116659000D01*
X148480000Y-116658000D01*
X148474000Y-116657000D01*
X148468000Y-116656000D01*
X148461000Y-116654000D01*
X148455000Y-116652000D01*
X148449000Y-116649000D01*
X148443000Y-116646000D01*
X148437000Y-116643000D01*
X148432000Y-116640000D01*
X148427000Y-116636000D01*
X148421000Y-116632000D01*
X148416000Y-116628000D01*
X148412000Y-116623000D01*
X148407000Y-116619000D01*
X148403000Y-116614000D01*
X148399000Y-116608000D01*
X148395000Y-116603000D01*
X148392000Y-116598000D01*
X148389000Y-116592000D01*
X148386000Y-116586000D01*
X148383000Y-116580000D01*
X148381000Y-116574000D01*
X148379000Y-116567000D01*
X148378000Y-116561000D01*
X148377000Y-116555000D01*
X148376000Y-116548000D01*
X148375000Y-116542000D01*
X148375000Y-116535000D01*
X148375000Y-116095000D01*
X148375000Y-116088000D01*
X148376000Y-116082000D01*
X148377000Y-116075000D01*
X148378000Y-116069000D01*
X148379000Y-116063000D01*
X148381000Y-116056000D01*
X148383000Y-116050000D01*
X148386000Y-116044000D01*
X148389000Y-116038000D01*
X148392000Y-116032000D01*
X148395000Y-116027000D01*
X148399000Y-116022000D01*
X148403000Y-116016000D01*
X148407000Y-116011000D01*
X148412000Y-116007000D01*
X148416000Y-116002000D01*
X148421000Y-115998000D01*
X148427000Y-115994000D01*
X148432000Y-115990000D01*
X148438000Y-115987000D01*
X148443000Y-115984000D01*
X148449000Y-115981000D01*
X148455000Y-115978000D01*
X148461000Y-115976000D01*
X148468000Y-115974000D01*
X148474000Y-115973000D01*
X148480000Y-115972000D01*
X148487000Y-115971000D01*
X148493000Y-115970000D01*
X148500000Y-115970000D01*
X148700000Y-115970000D01*
X148707000Y-115970000D01*
X148713000Y-115971000D01*
G37*
X148713000Y-114141000D02*
X148720000Y-114142000D01*
X148726000Y-114143000D01*
X148732000Y-114144000D01*
X148739000Y-114146000D01*
X148745000Y-114148000D01*
X148751000Y-114151000D01*
X148757000Y-114154000D01*
X148762000Y-114157000D01*
X148768000Y-114160000D01*
X148773000Y-114164000D01*
X148779000Y-114168000D01*
X148784000Y-114172000D01*
X148788000Y-114177000D01*
X148793000Y-114181000D01*
X148797000Y-114186000D01*
X148801000Y-114192000D01*
X148805000Y-114197000D01*
X148808000Y-114202000D01*
X148811000Y-114208000D01*
X148814000Y-114214000D01*
X148817000Y-114220000D01*
X148819000Y-114226000D01*
X148821000Y-114233000D01*
X148822000Y-114239000D01*
X148823000Y-114245000D01*
X148824000Y-114252000D01*
X148825000Y-114258000D01*
X148825000Y-114265000D01*
X148825000Y-114705000D01*
X148825000Y-114712000D01*
X148824000Y-114718000D01*
X148823000Y-114725000D01*
X148822000Y-114731000D01*
X148821000Y-114737000D01*
X148819000Y-114744000D01*
X148817000Y-114750000D01*
X148814000Y-114756000D01*
X148811000Y-114762000D01*
X148808000Y-114768000D01*
X148805000Y-114773000D01*
X148801000Y-114778000D01*
X148797000Y-114784000D01*
X148793000Y-114789000D01*
X148788000Y-114793000D01*
X148784000Y-114798000D01*
X148779000Y-114802000D01*
X148773000Y-114806000D01*
X148768000Y-114810000D01*
X148762000Y-114813000D01*
X148757000Y-114816000D01*
X148751000Y-114819000D01*
X148745000Y-114822000D01*
X148739000Y-114824000D01*
X148732000Y-114826000D01*
X148726000Y-114827000D01*
X148720000Y-114828000D01*
X148713000Y-114829000D01*
X148707000Y-114830000D01*
X148700000Y-114830000D01*
X148500000Y-114830000D01*
X148493000Y-114830000D01*
X148487000Y-114829000D01*
X148480000Y-114828000D01*
X148474000Y-114827000D01*
X148468000Y-114826000D01*
X148461000Y-114824000D01*
X148455000Y-114822000D01*
X148449000Y-114819000D01*
X148443000Y-114816000D01*
X148437000Y-114813000D01*
X148432000Y-114810000D01*
X148427000Y-114806000D01*
X148421000Y-114802000D01*
X148416000Y-114798000D01*
X148412000Y-114793000D01*
X148407000Y-114789000D01*
X148403000Y-114784000D01*
X148399000Y-114778000D01*
X148395000Y-114773000D01*
X148392000Y-114768000D01*
X148389000Y-114762000D01*
X148386000Y-114756000D01*
X148383000Y-114750000D01*
X148381000Y-114744000D01*
X148379000Y-114737000D01*
X148378000Y-114731000D01*
X148377000Y-114725000D01*
X148376000Y-114718000D01*
X148375000Y-114712000D01*
X148375000Y-114705000D01*
X148375000Y-114265000D01*
X148375000Y-114258000D01*
X148376000Y-114252000D01*
X148377000Y-114245000D01*
X148378000Y-114239000D01*
X148379000Y-114233000D01*
X148381000Y-114226000D01*
X148383000Y-114220000D01*
X148386000Y-114214000D01*
X148389000Y-114208000D01*
X148392000Y-114202000D01*
X148395000Y-114197000D01*
X148399000Y-114192000D01*
X148403000Y-114186000D01*
X148407000Y-114181000D01*
X148412000Y-114177000D01*
X148416000Y-114172000D01*
X148421000Y-114168000D01*
X148427000Y-114164000D01*
X148432000Y-114160000D01*
X148438000Y-114157000D01*
X148443000Y-114154000D01*
X148449000Y-114151000D01*
X148455000Y-114148000D01*
X148461000Y-114146000D01*
X148468000Y-114144000D01*
X148474000Y-114143000D01*
X148480000Y-114142000D01*
X148487000Y-114141000D01*
X148493000Y-114140000D01*
X148500000Y-114140000D01*
X148700000Y-114140000D01*
X148707000Y-114140000D01*
X148713000Y-114141000D01*
G36*
X148713000Y-114141000D02*
G01*
X148720000Y-114142000D01*
X148726000Y-114143000D01*
X148732000Y-114144000D01*
X148739000Y-114146000D01*
X148745000Y-114148000D01*
X148751000Y-114151000D01*
X148757000Y-114154000D01*
X148762000Y-114157000D01*
X148768000Y-114160000D01*
X148773000Y-114164000D01*
X148779000Y-114168000D01*
X148784000Y-114172000D01*
X148788000Y-114177000D01*
X148793000Y-114181000D01*
X148797000Y-114186000D01*
X148801000Y-114192000D01*
X148805000Y-114197000D01*
X148808000Y-114202000D01*
X148811000Y-114208000D01*
X148814000Y-114214000D01*
X148817000Y-114220000D01*
X148819000Y-114226000D01*
X148821000Y-114233000D01*
X148822000Y-114239000D01*
X148823000Y-114245000D01*
X148824000Y-114252000D01*
X148825000Y-114258000D01*
X148825000Y-114265000D01*
X148825000Y-114705000D01*
X148825000Y-114712000D01*
X148824000Y-114718000D01*
X148823000Y-114725000D01*
X148822000Y-114731000D01*
X148821000Y-114737000D01*
X148819000Y-114744000D01*
X148817000Y-114750000D01*
X148814000Y-114756000D01*
X148811000Y-114762000D01*
X148808000Y-114768000D01*
X148805000Y-114773000D01*
X148801000Y-114778000D01*
X148797000Y-114784000D01*
X148793000Y-114789000D01*
X148788000Y-114793000D01*
X148784000Y-114798000D01*
X148779000Y-114802000D01*
X148773000Y-114806000D01*
X148768000Y-114810000D01*
X148762000Y-114813000D01*
X148757000Y-114816000D01*
X148751000Y-114819000D01*
X148745000Y-114822000D01*
X148739000Y-114824000D01*
X148732000Y-114826000D01*
X148726000Y-114827000D01*
X148720000Y-114828000D01*
X148713000Y-114829000D01*
X148707000Y-114830000D01*
X148700000Y-114830000D01*
X148500000Y-114830000D01*
X148493000Y-114830000D01*
X148487000Y-114829000D01*
X148480000Y-114828000D01*
X148474000Y-114827000D01*
X148468000Y-114826000D01*
X148461000Y-114824000D01*
X148455000Y-114822000D01*
X148449000Y-114819000D01*
X148443000Y-114816000D01*
X148437000Y-114813000D01*
X148432000Y-114810000D01*
X148427000Y-114806000D01*
X148421000Y-114802000D01*
X148416000Y-114798000D01*
X148412000Y-114793000D01*
X148407000Y-114789000D01*
X148403000Y-114784000D01*
X148399000Y-114778000D01*
X148395000Y-114773000D01*
X148392000Y-114768000D01*
X148389000Y-114762000D01*
X148386000Y-114756000D01*
X148383000Y-114750000D01*
X148381000Y-114744000D01*
X148379000Y-114737000D01*
X148378000Y-114731000D01*
X148377000Y-114725000D01*
X148376000Y-114718000D01*
X148375000Y-114712000D01*
X148375000Y-114705000D01*
X148375000Y-114265000D01*
X148375000Y-114258000D01*
X148376000Y-114252000D01*
X148377000Y-114245000D01*
X148378000Y-114239000D01*
X148379000Y-114233000D01*
X148381000Y-114226000D01*
X148383000Y-114220000D01*
X148386000Y-114214000D01*
X148389000Y-114208000D01*
X148392000Y-114202000D01*
X148395000Y-114197000D01*
X148399000Y-114192000D01*
X148403000Y-114186000D01*
X148407000Y-114181000D01*
X148412000Y-114177000D01*
X148416000Y-114172000D01*
X148421000Y-114168000D01*
X148427000Y-114164000D01*
X148432000Y-114160000D01*
X148438000Y-114157000D01*
X148443000Y-114154000D01*
X148449000Y-114151000D01*
X148455000Y-114148000D01*
X148461000Y-114146000D01*
X148468000Y-114144000D01*
X148474000Y-114143000D01*
X148480000Y-114142000D01*
X148487000Y-114141000D01*
X148493000Y-114140000D01*
X148500000Y-114140000D01*
X148700000Y-114140000D01*
X148707000Y-114140000D01*
X148713000Y-114141000D01*
G37*
X148213000Y-115971000D02*
X148220000Y-115972000D01*
X148226000Y-115973000D01*
X148232000Y-115974000D01*
X148239000Y-115976000D01*
X148245000Y-115978000D01*
X148251000Y-115981000D01*
X148257000Y-115984000D01*
X148263000Y-115987000D01*
X148268000Y-115990000D01*
X148273000Y-115994000D01*
X148279000Y-115998000D01*
X148284000Y-116002000D01*
X148288000Y-116007000D01*
X148293000Y-116011000D01*
X148297000Y-116016000D01*
X148301000Y-116022000D01*
X148305000Y-116027000D01*
X148308000Y-116032000D01*
X148311000Y-116038000D01*
X148314000Y-116044000D01*
X148317000Y-116050000D01*
X148319000Y-116056000D01*
X148321000Y-116063000D01*
X148322000Y-116069000D01*
X148323000Y-116075000D01*
X148324000Y-116082000D01*
X148325000Y-116088000D01*
X148325000Y-116095000D01*
X148325000Y-116535000D01*
X148325000Y-116542000D01*
X148324000Y-116548000D01*
X148323000Y-116555000D01*
X148322000Y-116561000D01*
X148321000Y-116567000D01*
X148319000Y-116574000D01*
X148317000Y-116580000D01*
X148314000Y-116586000D01*
X148311000Y-116592000D01*
X148308000Y-116598000D01*
X148305000Y-116603000D01*
X148301000Y-116608000D01*
X148297000Y-116614000D01*
X148293000Y-116619000D01*
X148288000Y-116623000D01*
X148284000Y-116628000D01*
X148279000Y-116632000D01*
X148273000Y-116636000D01*
X148268000Y-116640000D01*
X148263000Y-116643000D01*
X148257000Y-116646000D01*
X148251000Y-116649000D01*
X148245000Y-116652000D01*
X148239000Y-116654000D01*
X148232000Y-116656000D01*
X148226000Y-116657000D01*
X148220000Y-116658000D01*
X148213000Y-116659000D01*
X148207000Y-116660000D01*
X148200000Y-116660000D01*
X148000000Y-116660000D01*
X147993000Y-116660000D01*
X147987000Y-116659000D01*
X147980000Y-116658000D01*
X147974000Y-116657000D01*
X147968000Y-116656000D01*
X147961000Y-116654000D01*
X147955000Y-116652000D01*
X147949000Y-116649000D01*
X147943000Y-116646000D01*
X147937000Y-116643000D01*
X147932000Y-116640000D01*
X147927000Y-116636000D01*
X147921000Y-116632000D01*
X147916000Y-116628000D01*
X147912000Y-116623000D01*
X147907000Y-116619000D01*
X147903000Y-116614000D01*
X147899000Y-116608000D01*
X147895000Y-116603000D01*
X147892000Y-116598000D01*
X147889000Y-116592000D01*
X147886000Y-116586000D01*
X147883000Y-116580000D01*
X147881000Y-116574000D01*
X147879000Y-116567000D01*
X147878000Y-116561000D01*
X147877000Y-116555000D01*
X147876000Y-116548000D01*
X147875000Y-116542000D01*
X147875000Y-116535000D01*
X147875000Y-116095000D01*
X147875000Y-116088000D01*
X147876000Y-116082000D01*
X147877000Y-116075000D01*
X147878000Y-116069000D01*
X147879000Y-116063000D01*
X147881000Y-116056000D01*
X147883000Y-116050000D01*
X147886000Y-116044000D01*
X147889000Y-116038000D01*
X147892000Y-116032000D01*
X147895000Y-116027000D01*
X147899000Y-116022000D01*
X147903000Y-116016000D01*
X147907000Y-116011000D01*
X147912000Y-116007000D01*
X147916000Y-116002000D01*
X147921000Y-115998000D01*
X147927000Y-115994000D01*
X147932000Y-115990000D01*
X147938000Y-115987000D01*
X147943000Y-115984000D01*
X147949000Y-115981000D01*
X147955000Y-115978000D01*
X147961000Y-115976000D01*
X147968000Y-115974000D01*
X147974000Y-115973000D01*
X147980000Y-115972000D01*
X147987000Y-115971000D01*
X147993000Y-115970000D01*
X148000000Y-115970000D01*
X148200000Y-115970000D01*
X148207000Y-115970000D01*
X148213000Y-115971000D01*
G36*
X148213000Y-115971000D02*
G01*
X148220000Y-115972000D01*
X148226000Y-115973000D01*
X148232000Y-115974000D01*
X148239000Y-115976000D01*
X148245000Y-115978000D01*
X148251000Y-115981000D01*
X148257000Y-115984000D01*
X148263000Y-115987000D01*
X148268000Y-115990000D01*
X148273000Y-115994000D01*
X148279000Y-115998000D01*
X148284000Y-116002000D01*
X148288000Y-116007000D01*
X148293000Y-116011000D01*
X148297000Y-116016000D01*
X148301000Y-116022000D01*
X148305000Y-116027000D01*
X148308000Y-116032000D01*
X148311000Y-116038000D01*
X148314000Y-116044000D01*
X148317000Y-116050000D01*
X148319000Y-116056000D01*
X148321000Y-116063000D01*
X148322000Y-116069000D01*
X148323000Y-116075000D01*
X148324000Y-116082000D01*
X148325000Y-116088000D01*
X148325000Y-116095000D01*
X148325000Y-116535000D01*
X148325000Y-116542000D01*
X148324000Y-116548000D01*
X148323000Y-116555000D01*
X148322000Y-116561000D01*
X148321000Y-116567000D01*
X148319000Y-116574000D01*
X148317000Y-116580000D01*
X148314000Y-116586000D01*
X148311000Y-116592000D01*
X148308000Y-116598000D01*
X148305000Y-116603000D01*
X148301000Y-116608000D01*
X148297000Y-116614000D01*
X148293000Y-116619000D01*
X148288000Y-116623000D01*
X148284000Y-116628000D01*
X148279000Y-116632000D01*
X148273000Y-116636000D01*
X148268000Y-116640000D01*
X148263000Y-116643000D01*
X148257000Y-116646000D01*
X148251000Y-116649000D01*
X148245000Y-116652000D01*
X148239000Y-116654000D01*
X148232000Y-116656000D01*
X148226000Y-116657000D01*
X148220000Y-116658000D01*
X148213000Y-116659000D01*
X148207000Y-116660000D01*
X148200000Y-116660000D01*
X148000000Y-116660000D01*
X147993000Y-116660000D01*
X147987000Y-116659000D01*
X147980000Y-116658000D01*
X147974000Y-116657000D01*
X147968000Y-116656000D01*
X147961000Y-116654000D01*
X147955000Y-116652000D01*
X147949000Y-116649000D01*
X147943000Y-116646000D01*
X147937000Y-116643000D01*
X147932000Y-116640000D01*
X147927000Y-116636000D01*
X147921000Y-116632000D01*
X147916000Y-116628000D01*
X147912000Y-116623000D01*
X147907000Y-116619000D01*
X147903000Y-116614000D01*
X147899000Y-116608000D01*
X147895000Y-116603000D01*
X147892000Y-116598000D01*
X147889000Y-116592000D01*
X147886000Y-116586000D01*
X147883000Y-116580000D01*
X147881000Y-116574000D01*
X147879000Y-116567000D01*
X147878000Y-116561000D01*
X147877000Y-116555000D01*
X147876000Y-116548000D01*
X147875000Y-116542000D01*
X147875000Y-116535000D01*
X147875000Y-116095000D01*
X147875000Y-116088000D01*
X147876000Y-116082000D01*
X147877000Y-116075000D01*
X147878000Y-116069000D01*
X147879000Y-116063000D01*
X147881000Y-116056000D01*
X147883000Y-116050000D01*
X147886000Y-116044000D01*
X147889000Y-116038000D01*
X147892000Y-116032000D01*
X147895000Y-116027000D01*
X147899000Y-116022000D01*
X147903000Y-116016000D01*
X147907000Y-116011000D01*
X147912000Y-116007000D01*
X147916000Y-116002000D01*
X147921000Y-115998000D01*
X147927000Y-115994000D01*
X147932000Y-115990000D01*
X147938000Y-115987000D01*
X147943000Y-115984000D01*
X147949000Y-115981000D01*
X147955000Y-115978000D01*
X147961000Y-115976000D01*
X147968000Y-115974000D01*
X147974000Y-115973000D01*
X147980000Y-115972000D01*
X147987000Y-115971000D01*
X147993000Y-115970000D01*
X148000000Y-115970000D01*
X148200000Y-115970000D01*
X148207000Y-115970000D01*
X148213000Y-115971000D01*
G37*
X148213000Y-114141000D02*
X148220000Y-114142000D01*
X148226000Y-114143000D01*
X148232000Y-114144000D01*
X148239000Y-114146000D01*
X148245000Y-114148000D01*
X148251000Y-114151000D01*
X148257000Y-114154000D01*
X148263000Y-114157000D01*
X148268000Y-114160000D01*
X148273000Y-114164000D01*
X148279000Y-114168000D01*
X148284000Y-114172000D01*
X148288000Y-114177000D01*
X148293000Y-114181000D01*
X148297000Y-114186000D01*
X148301000Y-114192000D01*
X148305000Y-114197000D01*
X148308000Y-114202000D01*
X148311000Y-114208000D01*
X148314000Y-114214000D01*
X148317000Y-114220000D01*
X148319000Y-114226000D01*
X148321000Y-114233000D01*
X148322000Y-114239000D01*
X148323000Y-114245000D01*
X148324000Y-114252000D01*
X148325000Y-114258000D01*
X148325000Y-114265000D01*
X148325000Y-114705000D01*
X148325000Y-114712000D01*
X148324000Y-114718000D01*
X148323000Y-114725000D01*
X148322000Y-114731000D01*
X148321000Y-114737000D01*
X148319000Y-114744000D01*
X148317000Y-114750000D01*
X148314000Y-114756000D01*
X148311000Y-114762000D01*
X148308000Y-114768000D01*
X148305000Y-114773000D01*
X148301000Y-114778000D01*
X148297000Y-114784000D01*
X148293000Y-114789000D01*
X148288000Y-114793000D01*
X148284000Y-114798000D01*
X148279000Y-114802000D01*
X148273000Y-114806000D01*
X148268000Y-114810000D01*
X148263000Y-114813000D01*
X148257000Y-114816000D01*
X148251000Y-114819000D01*
X148245000Y-114822000D01*
X148239000Y-114824000D01*
X148232000Y-114826000D01*
X148226000Y-114827000D01*
X148220000Y-114828000D01*
X148213000Y-114829000D01*
X148207000Y-114830000D01*
X148200000Y-114830000D01*
X148000000Y-114830000D01*
X147993000Y-114830000D01*
X147987000Y-114829000D01*
X147980000Y-114828000D01*
X147974000Y-114827000D01*
X147968000Y-114826000D01*
X147961000Y-114824000D01*
X147955000Y-114822000D01*
X147949000Y-114819000D01*
X147943000Y-114816000D01*
X147937000Y-114813000D01*
X147932000Y-114810000D01*
X147927000Y-114806000D01*
X147921000Y-114802000D01*
X147916000Y-114798000D01*
X147912000Y-114793000D01*
X147907000Y-114789000D01*
X147903000Y-114784000D01*
X147899000Y-114778000D01*
X147895000Y-114773000D01*
X147892000Y-114768000D01*
X147889000Y-114762000D01*
X147886000Y-114756000D01*
X147883000Y-114750000D01*
X147881000Y-114744000D01*
X147879000Y-114737000D01*
X147878000Y-114731000D01*
X147877000Y-114725000D01*
X147876000Y-114718000D01*
X147875000Y-114712000D01*
X147875000Y-114705000D01*
X147875000Y-114265000D01*
X147875000Y-114258000D01*
X147876000Y-114252000D01*
X147877000Y-114245000D01*
X147878000Y-114239000D01*
X147879000Y-114233000D01*
X147881000Y-114226000D01*
X147883000Y-114220000D01*
X147886000Y-114214000D01*
X147889000Y-114208000D01*
X147892000Y-114202000D01*
X147895000Y-114197000D01*
X147899000Y-114192000D01*
X147903000Y-114186000D01*
X147907000Y-114181000D01*
X147912000Y-114177000D01*
X147916000Y-114172000D01*
X147921000Y-114168000D01*
X147927000Y-114164000D01*
X147932000Y-114160000D01*
X147938000Y-114157000D01*
X147943000Y-114154000D01*
X147949000Y-114151000D01*
X147955000Y-114148000D01*
X147961000Y-114146000D01*
X147968000Y-114144000D01*
X147974000Y-114143000D01*
X147980000Y-114142000D01*
X147987000Y-114141000D01*
X147993000Y-114140000D01*
X148000000Y-114140000D01*
X148200000Y-114140000D01*
X148207000Y-114140000D01*
X148213000Y-114141000D01*
G36*
X148213000Y-114141000D02*
G01*
X148220000Y-114142000D01*
X148226000Y-114143000D01*
X148232000Y-114144000D01*
X148239000Y-114146000D01*
X148245000Y-114148000D01*
X148251000Y-114151000D01*
X148257000Y-114154000D01*
X148263000Y-114157000D01*
X148268000Y-114160000D01*
X148273000Y-114164000D01*
X148279000Y-114168000D01*
X148284000Y-114172000D01*
X148288000Y-114177000D01*
X148293000Y-114181000D01*
X148297000Y-114186000D01*
X148301000Y-114192000D01*
X148305000Y-114197000D01*
X148308000Y-114202000D01*
X148311000Y-114208000D01*
X148314000Y-114214000D01*
X148317000Y-114220000D01*
X148319000Y-114226000D01*
X148321000Y-114233000D01*
X148322000Y-114239000D01*
X148323000Y-114245000D01*
X148324000Y-114252000D01*
X148325000Y-114258000D01*
X148325000Y-114265000D01*
X148325000Y-114705000D01*
X148325000Y-114712000D01*
X148324000Y-114718000D01*
X148323000Y-114725000D01*
X148322000Y-114731000D01*
X148321000Y-114737000D01*
X148319000Y-114744000D01*
X148317000Y-114750000D01*
X148314000Y-114756000D01*
X148311000Y-114762000D01*
X148308000Y-114768000D01*
X148305000Y-114773000D01*
X148301000Y-114778000D01*
X148297000Y-114784000D01*
X148293000Y-114789000D01*
X148288000Y-114793000D01*
X148284000Y-114798000D01*
X148279000Y-114802000D01*
X148273000Y-114806000D01*
X148268000Y-114810000D01*
X148263000Y-114813000D01*
X148257000Y-114816000D01*
X148251000Y-114819000D01*
X148245000Y-114822000D01*
X148239000Y-114824000D01*
X148232000Y-114826000D01*
X148226000Y-114827000D01*
X148220000Y-114828000D01*
X148213000Y-114829000D01*
X148207000Y-114830000D01*
X148200000Y-114830000D01*
X148000000Y-114830000D01*
X147993000Y-114830000D01*
X147987000Y-114829000D01*
X147980000Y-114828000D01*
X147974000Y-114827000D01*
X147968000Y-114826000D01*
X147961000Y-114824000D01*
X147955000Y-114822000D01*
X147949000Y-114819000D01*
X147943000Y-114816000D01*
X147937000Y-114813000D01*
X147932000Y-114810000D01*
X147927000Y-114806000D01*
X147921000Y-114802000D01*
X147916000Y-114798000D01*
X147912000Y-114793000D01*
X147907000Y-114789000D01*
X147903000Y-114784000D01*
X147899000Y-114778000D01*
X147895000Y-114773000D01*
X147892000Y-114768000D01*
X147889000Y-114762000D01*
X147886000Y-114756000D01*
X147883000Y-114750000D01*
X147881000Y-114744000D01*
X147879000Y-114737000D01*
X147878000Y-114731000D01*
X147877000Y-114725000D01*
X147876000Y-114718000D01*
X147875000Y-114712000D01*
X147875000Y-114705000D01*
X147875000Y-114265000D01*
X147875000Y-114258000D01*
X147876000Y-114252000D01*
X147877000Y-114245000D01*
X147878000Y-114239000D01*
X147879000Y-114233000D01*
X147881000Y-114226000D01*
X147883000Y-114220000D01*
X147886000Y-114214000D01*
X147889000Y-114208000D01*
X147892000Y-114202000D01*
X147895000Y-114197000D01*
X147899000Y-114192000D01*
X147903000Y-114186000D01*
X147907000Y-114181000D01*
X147912000Y-114177000D01*
X147916000Y-114172000D01*
X147921000Y-114168000D01*
X147927000Y-114164000D01*
X147932000Y-114160000D01*
X147938000Y-114157000D01*
X147943000Y-114154000D01*
X147949000Y-114151000D01*
X147955000Y-114148000D01*
X147961000Y-114146000D01*
X147968000Y-114144000D01*
X147974000Y-114143000D01*
X147980000Y-114142000D01*
X147987000Y-114141000D01*
X147993000Y-114140000D01*
X148000000Y-114140000D01*
X148200000Y-114140000D01*
X148207000Y-114140000D01*
X148213000Y-114141000D01*
G37*
X147713000Y-115971000D02*
X147720000Y-115972000D01*
X147726000Y-115973000D01*
X147732000Y-115974000D01*
X147739000Y-115976000D01*
X147745000Y-115978000D01*
X147751000Y-115981000D01*
X147757000Y-115984000D01*
X147762000Y-115987000D01*
X147768000Y-115990000D01*
X147773000Y-115994000D01*
X147779000Y-115998000D01*
X147784000Y-116002000D01*
X147788000Y-116007000D01*
X147793000Y-116011000D01*
X147797000Y-116016000D01*
X147801000Y-116022000D01*
X147805000Y-116027000D01*
X147808000Y-116032000D01*
X147811000Y-116038000D01*
X147814000Y-116044000D01*
X147817000Y-116050000D01*
X147819000Y-116056000D01*
X147821000Y-116063000D01*
X147822000Y-116069000D01*
X147823000Y-116075000D01*
X147824000Y-116082000D01*
X147825000Y-116088000D01*
X147825000Y-116095000D01*
X147825000Y-116535000D01*
X147825000Y-116542000D01*
X147824000Y-116548000D01*
X147823000Y-116555000D01*
X147822000Y-116561000D01*
X147821000Y-116567000D01*
X147819000Y-116574000D01*
X147817000Y-116580000D01*
X147814000Y-116586000D01*
X147811000Y-116592000D01*
X147808000Y-116598000D01*
X147805000Y-116603000D01*
X147801000Y-116608000D01*
X147797000Y-116614000D01*
X147793000Y-116619000D01*
X147788000Y-116623000D01*
X147784000Y-116628000D01*
X147779000Y-116632000D01*
X147773000Y-116636000D01*
X147768000Y-116640000D01*
X147762000Y-116643000D01*
X147757000Y-116646000D01*
X147751000Y-116649000D01*
X147745000Y-116652000D01*
X147739000Y-116654000D01*
X147732000Y-116656000D01*
X147726000Y-116657000D01*
X147720000Y-116658000D01*
X147713000Y-116659000D01*
X147707000Y-116660000D01*
X147700000Y-116660000D01*
X147500000Y-116660000D01*
X147493000Y-116660000D01*
X147487000Y-116659000D01*
X147480000Y-116658000D01*
X147474000Y-116657000D01*
X147468000Y-116656000D01*
X147461000Y-116654000D01*
X147455000Y-116652000D01*
X147449000Y-116649000D01*
X147443000Y-116646000D01*
X147437000Y-116643000D01*
X147432000Y-116640000D01*
X147427000Y-116636000D01*
X147421000Y-116632000D01*
X147416000Y-116628000D01*
X147412000Y-116623000D01*
X147407000Y-116619000D01*
X147403000Y-116614000D01*
X147399000Y-116608000D01*
X147395000Y-116603000D01*
X147392000Y-116598000D01*
X147389000Y-116592000D01*
X147386000Y-116586000D01*
X147383000Y-116580000D01*
X147381000Y-116574000D01*
X147379000Y-116567000D01*
X147378000Y-116561000D01*
X147377000Y-116555000D01*
X147376000Y-116548000D01*
X147375000Y-116542000D01*
X147375000Y-116535000D01*
X147375000Y-116095000D01*
X147375000Y-116088000D01*
X147376000Y-116082000D01*
X147377000Y-116075000D01*
X147378000Y-116069000D01*
X147379000Y-116063000D01*
X147381000Y-116056000D01*
X147383000Y-116050000D01*
X147386000Y-116044000D01*
X147389000Y-116038000D01*
X147392000Y-116032000D01*
X147395000Y-116027000D01*
X147399000Y-116022000D01*
X147403000Y-116016000D01*
X147407000Y-116011000D01*
X147412000Y-116007000D01*
X147416000Y-116002000D01*
X147421000Y-115998000D01*
X147427000Y-115994000D01*
X147432000Y-115990000D01*
X147438000Y-115987000D01*
X147443000Y-115984000D01*
X147449000Y-115981000D01*
X147455000Y-115978000D01*
X147461000Y-115976000D01*
X147468000Y-115974000D01*
X147474000Y-115973000D01*
X147480000Y-115972000D01*
X147487000Y-115971000D01*
X147493000Y-115970000D01*
X147500000Y-115970000D01*
X147700000Y-115970000D01*
X147707000Y-115970000D01*
X147713000Y-115971000D01*
G36*
X147713000Y-115971000D02*
G01*
X147720000Y-115972000D01*
X147726000Y-115973000D01*
X147732000Y-115974000D01*
X147739000Y-115976000D01*
X147745000Y-115978000D01*
X147751000Y-115981000D01*
X147757000Y-115984000D01*
X147762000Y-115987000D01*
X147768000Y-115990000D01*
X147773000Y-115994000D01*
X147779000Y-115998000D01*
X147784000Y-116002000D01*
X147788000Y-116007000D01*
X147793000Y-116011000D01*
X147797000Y-116016000D01*
X147801000Y-116022000D01*
X147805000Y-116027000D01*
X147808000Y-116032000D01*
X147811000Y-116038000D01*
X147814000Y-116044000D01*
X147817000Y-116050000D01*
X147819000Y-116056000D01*
X147821000Y-116063000D01*
X147822000Y-116069000D01*
X147823000Y-116075000D01*
X147824000Y-116082000D01*
X147825000Y-116088000D01*
X147825000Y-116095000D01*
X147825000Y-116535000D01*
X147825000Y-116542000D01*
X147824000Y-116548000D01*
X147823000Y-116555000D01*
X147822000Y-116561000D01*
X147821000Y-116567000D01*
X147819000Y-116574000D01*
X147817000Y-116580000D01*
X147814000Y-116586000D01*
X147811000Y-116592000D01*
X147808000Y-116598000D01*
X147805000Y-116603000D01*
X147801000Y-116608000D01*
X147797000Y-116614000D01*
X147793000Y-116619000D01*
X147788000Y-116623000D01*
X147784000Y-116628000D01*
X147779000Y-116632000D01*
X147773000Y-116636000D01*
X147768000Y-116640000D01*
X147762000Y-116643000D01*
X147757000Y-116646000D01*
X147751000Y-116649000D01*
X147745000Y-116652000D01*
X147739000Y-116654000D01*
X147732000Y-116656000D01*
X147726000Y-116657000D01*
X147720000Y-116658000D01*
X147713000Y-116659000D01*
X147707000Y-116660000D01*
X147700000Y-116660000D01*
X147500000Y-116660000D01*
X147493000Y-116660000D01*
X147487000Y-116659000D01*
X147480000Y-116658000D01*
X147474000Y-116657000D01*
X147468000Y-116656000D01*
X147461000Y-116654000D01*
X147455000Y-116652000D01*
X147449000Y-116649000D01*
X147443000Y-116646000D01*
X147437000Y-116643000D01*
X147432000Y-116640000D01*
X147427000Y-116636000D01*
X147421000Y-116632000D01*
X147416000Y-116628000D01*
X147412000Y-116623000D01*
X147407000Y-116619000D01*
X147403000Y-116614000D01*
X147399000Y-116608000D01*
X147395000Y-116603000D01*
X147392000Y-116598000D01*
X147389000Y-116592000D01*
X147386000Y-116586000D01*
X147383000Y-116580000D01*
X147381000Y-116574000D01*
X147379000Y-116567000D01*
X147378000Y-116561000D01*
X147377000Y-116555000D01*
X147376000Y-116548000D01*
X147375000Y-116542000D01*
X147375000Y-116535000D01*
X147375000Y-116095000D01*
X147375000Y-116088000D01*
X147376000Y-116082000D01*
X147377000Y-116075000D01*
X147378000Y-116069000D01*
X147379000Y-116063000D01*
X147381000Y-116056000D01*
X147383000Y-116050000D01*
X147386000Y-116044000D01*
X147389000Y-116038000D01*
X147392000Y-116032000D01*
X147395000Y-116027000D01*
X147399000Y-116022000D01*
X147403000Y-116016000D01*
X147407000Y-116011000D01*
X147412000Y-116007000D01*
X147416000Y-116002000D01*
X147421000Y-115998000D01*
X147427000Y-115994000D01*
X147432000Y-115990000D01*
X147438000Y-115987000D01*
X147443000Y-115984000D01*
X147449000Y-115981000D01*
X147455000Y-115978000D01*
X147461000Y-115976000D01*
X147468000Y-115974000D01*
X147474000Y-115973000D01*
X147480000Y-115972000D01*
X147487000Y-115971000D01*
X147493000Y-115970000D01*
X147500000Y-115970000D01*
X147700000Y-115970000D01*
X147707000Y-115970000D01*
X147713000Y-115971000D01*
G37*
X147713000Y-114141000D02*
X147720000Y-114142000D01*
X147726000Y-114143000D01*
X147732000Y-114144000D01*
X147739000Y-114146000D01*
X147745000Y-114148000D01*
X147751000Y-114151000D01*
X147757000Y-114154000D01*
X147762000Y-114157000D01*
X147768000Y-114160000D01*
X147773000Y-114164000D01*
X147779000Y-114168000D01*
X147784000Y-114172000D01*
X147788000Y-114177000D01*
X147793000Y-114181000D01*
X147797000Y-114186000D01*
X147801000Y-114192000D01*
X147805000Y-114197000D01*
X147808000Y-114202000D01*
X147811000Y-114208000D01*
X147814000Y-114214000D01*
X147817000Y-114220000D01*
X147819000Y-114226000D01*
X147821000Y-114233000D01*
X147822000Y-114239000D01*
X147823000Y-114245000D01*
X147824000Y-114252000D01*
X147825000Y-114258000D01*
X147825000Y-114265000D01*
X147825000Y-114705000D01*
X147825000Y-114712000D01*
X147824000Y-114718000D01*
X147823000Y-114725000D01*
X147822000Y-114731000D01*
X147821000Y-114737000D01*
X147819000Y-114744000D01*
X147817000Y-114750000D01*
X147814000Y-114756000D01*
X147811000Y-114762000D01*
X147808000Y-114768000D01*
X147805000Y-114773000D01*
X147801000Y-114778000D01*
X147797000Y-114784000D01*
X147793000Y-114789000D01*
X147788000Y-114793000D01*
X147784000Y-114798000D01*
X147779000Y-114802000D01*
X147773000Y-114806000D01*
X147768000Y-114810000D01*
X147762000Y-114813000D01*
X147757000Y-114816000D01*
X147751000Y-114819000D01*
X147745000Y-114822000D01*
X147739000Y-114824000D01*
X147732000Y-114826000D01*
X147726000Y-114827000D01*
X147720000Y-114828000D01*
X147713000Y-114829000D01*
X147707000Y-114830000D01*
X147700000Y-114830000D01*
X147500000Y-114830000D01*
X147493000Y-114830000D01*
X147487000Y-114829000D01*
X147480000Y-114828000D01*
X147474000Y-114827000D01*
X147468000Y-114826000D01*
X147461000Y-114824000D01*
X147455000Y-114822000D01*
X147449000Y-114819000D01*
X147443000Y-114816000D01*
X147437000Y-114813000D01*
X147432000Y-114810000D01*
X147427000Y-114806000D01*
X147421000Y-114802000D01*
X147416000Y-114798000D01*
X147412000Y-114793000D01*
X147407000Y-114789000D01*
X147403000Y-114784000D01*
X147399000Y-114778000D01*
X147395000Y-114773000D01*
X147392000Y-114768000D01*
X147389000Y-114762000D01*
X147386000Y-114756000D01*
X147383000Y-114750000D01*
X147381000Y-114744000D01*
X147379000Y-114737000D01*
X147378000Y-114731000D01*
X147377000Y-114725000D01*
X147376000Y-114718000D01*
X147375000Y-114712000D01*
X147375000Y-114705000D01*
X147375000Y-114265000D01*
X147375000Y-114258000D01*
X147376000Y-114252000D01*
X147377000Y-114245000D01*
X147378000Y-114239000D01*
X147379000Y-114233000D01*
X147381000Y-114226000D01*
X147383000Y-114220000D01*
X147386000Y-114214000D01*
X147389000Y-114208000D01*
X147392000Y-114202000D01*
X147395000Y-114197000D01*
X147399000Y-114192000D01*
X147403000Y-114186000D01*
X147407000Y-114181000D01*
X147412000Y-114177000D01*
X147416000Y-114172000D01*
X147421000Y-114168000D01*
X147427000Y-114164000D01*
X147432000Y-114160000D01*
X147438000Y-114157000D01*
X147443000Y-114154000D01*
X147449000Y-114151000D01*
X147455000Y-114148000D01*
X147461000Y-114146000D01*
X147468000Y-114144000D01*
X147474000Y-114143000D01*
X147480000Y-114142000D01*
X147487000Y-114141000D01*
X147493000Y-114140000D01*
X147500000Y-114140000D01*
X147700000Y-114140000D01*
X147707000Y-114140000D01*
X147713000Y-114141000D01*
G36*
X147713000Y-114141000D02*
G01*
X147720000Y-114142000D01*
X147726000Y-114143000D01*
X147732000Y-114144000D01*
X147739000Y-114146000D01*
X147745000Y-114148000D01*
X147751000Y-114151000D01*
X147757000Y-114154000D01*
X147762000Y-114157000D01*
X147768000Y-114160000D01*
X147773000Y-114164000D01*
X147779000Y-114168000D01*
X147784000Y-114172000D01*
X147788000Y-114177000D01*
X147793000Y-114181000D01*
X147797000Y-114186000D01*
X147801000Y-114192000D01*
X147805000Y-114197000D01*
X147808000Y-114202000D01*
X147811000Y-114208000D01*
X147814000Y-114214000D01*
X147817000Y-114220000D01*
X147819000Y-114226000D01*
X147821000Y-114233000D01*
X147822000Y-114239000D01*
X147823000Y-114245000D01*
X147824000Y-114252000D01*
X147825000Y-114258000D01*
X147825000Y-114265000D01*
X147825000Y-114705000D01*
X147825000Y-114712000D01*
X147824000Y-114718000D01*
X147823000Y-114725000D01*
X147822000Y-114731000D01*
X147821000Y-114737000D01*
X147819000Y-114744000D01*
X147817000Y-114750000D01*
X147814000Y-114756000D01*
X147811000Y-114762000D01*
X147808000Y-114768000D01*
X147805000Y-114773000D01*
X147801000Y-114778000D01*
X147797000Y-114784000D01*
X147793000Y-114789000D01*
X147788000Y-114793000D01*
X147784000Y-114798000D01*
X147779000Y-114802000D01*
X147773000Y-114806000D01*
X147768000Y-114810000D01*
X147762000Y-114813000D01*
X147757000Y-114816000D01*
X147751000Y-114819000D01*
X147745000Y-114822000D01*
X147739000Y-114824000D01*
X147732000Y-114826000D01*
X147726000Y-114827000D01*
X147720000Y-114828000D01*
X147713000Y-114829000D01*
X147707000Y-114830000D01*
X147700000Y-114830000D01*
X147500000Y-114830000D01*
X147493000Y-114830000D01*
X147487000Y-114829000D01*
X147480000Y-114828000D01*
X147474000Y-114827000D01*
X147468000Y-114826000D01*
X147461000Y-114824000D01*
X147455000Y-114822000D01*
X147449000Y-114819000D01*
X147443000Y-114816000D01*
X147437000Y-114813000D01*
X147432000Y-114810000D01*
X147427000Y-114806000D01*
X147421000Y-114802000D01*
X147416000Y-114798000D01*
X147412000Y-114793000D01*
X147407000Y-114789000D01*
X147403000Y-114784000D01*
X147399000Y-114778000D01*
X147395000Y-114773000D01*
X147392000Y-114768000D01*
X147389000Y-114762000D01*
X147386000Y-114756000D01*
X147383000Y-114750000D01*
X147381000Y-114744000D01*
X147379000Y-114737000D01*
X147378000Y-114731000D01*
X147377000Y-114725000D01*
X147376000Y-114718000D01*
X147375000Y-114712000D01*
X147375000Y-114705000D01*
X147375000Y-114265000D01*
X147375000Y-114258000D01*
X147376000Y-114252000D01*
X147377000Y-114245000D01*
X147378000Y-114239000D01*
X147379000Y-114233000D01*
X147381000Y-114226000D01*
X147383000Y-114220000D01*
X147386000Y-114214000D01*
X147389000Y-114208000D01*
X147392000Y-114202000D01*
X147395000Y-114197000D01*
X147399000Y-114192000D01*
X147403000Y-114186000D01*
X147407000Y-114181000D01*
X147412000Y-114177000D01*
X147416000Y-114172000D01*
X147421000Y-114168000D01*
X147427000Y-114164000D01*
X147432000Y-114160000D01*
X147438000Y-114157000D01*
X147443000Y-114154000D01*
X147449000Y-114151000D01*
X147455000Y-114148000D01*
X147461000Y-114146000D01*
X147468000Y-114144000D01*
X147474000Y-114143000D01*
X147480000Y-114142000D01*
X147487000Y-114141000D01*
X147493000Y-114140000D01*
X147500000Y-114140000D01*
X147700000Y-114140000D01*
X147707000Y-114140000D01*
X147713000Y-114141000D01*
G37*
X147168000Y-115926000D02*
X147175000Y-115927000D01*
X147181000Y-115928000D01*
X147187000Y-115929000D01*
X147194000Y-115931000D01*
X147200000Y-115933000D01*
X147206000Y-115936000D01*
X147212000Y-115939000D01*
X147218000Y-115942000D01*
X147223000Y-115945000D01*
X147228000Y-115949000D01*
X147234000Y-115953000D01*
X147239000Y-115957000D01*
X147243000Y-115962000D01*
X147248000Y-115966000D01*
X147252000Y-115971000D01*
X147256000Y-115977000D01*
X147260000Y-115982000D01*
X147263000Y-115988000D01*
X147266000Y-115993000D01*
X147269000Y-115999000D01*
X147272000Y-116005000D01*
X147274000Y-116011000D01*
X147276000Y-116018000D01*
X147277000Y-116024000D01*
X147278000Y-116030000D01*
X147279000Y-116037000D01*
X147280000Y-116043000D01*
X147280000Y-116050000D01*
X147280000Y-116250000D01*
X147280000Y-116257000D01*
X147279000Y-116263000D01*
X147278000Y-116270000D01*
X147277000Y-116276000D01*
X147276000Y-116282000D01*
X147274000Y-116289000D01*
X147272000Y-116295000D01*
X147269000Y-116301000D01*
X147266000Y-116307000D01*
X147263000Y-116312000D01*
X147260000Y-116318000D01*
X147256000Y-116323000D01*
X147252000Y-116329000D01*
X147248000Y-116334000D01*
X147243000Y-116338000D01*
X147239000Y-116343000D01*
X147234000Y-116347000D01*
X147228000Y-116351000D01*
X147223000Y-116355000D01*
X147218000Y-116358000D01*
X147212000Y-116361000D01*
X147206000Y-116364000D01*
X147200000Y-116367000D01*
X147194000Y-116369000D01*
X147187000Y-116371000D01*
X147181000Y-116372000D01*
X147175000Y-116373000D01*
X147168000Y-116374000D01*
X147162000Y-116375000D01*
X147155000Y-116375000D01*
X146715000Y-116375000D01*
X146708000Y-116375000D01*
X146702000Y-116374000D01*
X146695000Y-116373000D01*
X146689000Y-116372000D01*
X146683000Y-116371000D01*
X146676000Y-116369000D01*
X146670000Y-116367000D01*
X146664000Y-116364000D01*
X146658000Y-116361000D01*
X146652000Y-116358000D01*
X146647000Y-116355000D01*
X146642000Y-116351000D01*
X146636000Y-116347000D01*
X146631000Y-116343000D01*
X146627000Y-116338000D01*
X146622000Y-116334000D01*
X146618000Y-116329000D01*
X146614000Y-116323000D01*
X146610000Y-116318000D01*
X146607000Y-116312000D01*
X146604000Y-116307000D01*
X146601000Y-116301000D01*
X146598000Y-116295000D01*
X146596000Y-116289000D01*
X146594000Y-116282000D01*
X146593000Y-116276000D01*
X146592000Y-116270000D01*
X146591000Y-116263000D01*
X146590000Y-116257000D01*
X146590000Y-116250000D01*
X146590000Y-116050000D01*
X146590000Y-116043000D01*
X146591000Y-116037000D01*
X146592000Y-116030000D01*
X146593000Y-116024000D01*
X146594000Y-116018000D01*
X146596000Y-116011000D01*
X146598000Y-116005000D01*
X146601000Y-115999000D01*
X146604000Y-115993000D01*
X146607000Y-115988000D01*
X146610000Y-115982000D01*
X146614000Y-115977000D01*
X146618000Y-115971000D01*
X146622000Y-115966000D01*
X146627000Y-115962000D01*
X146631000Y-115957000D01*
X146636000Y-115953000D01*
X146642000Y-115949000D01*
X146647000Y-115945000D01*
X146652000Y-115942000D01*
X146658000Y-115939000D01*
X146664000Y-115936000D01*
X146670000Y-115933000D01*
X146676000Y-115931000D01*
X146683000Y-115929000D01*
X146689000Y-115928000D01*
X146695000Y-115927000D01*
X146702000Y-115926000D01*
X146708000Y-115925000D01*
X146715000Y-115925000D01*
X147155000Y-115925000D01*
X147162000Y-115925000D01*
X147168000Y-115926000D01*
G36*
X147168000Y-115926000D02*
G01*
X147175000Y-115927000D01*
X147181000Y-115928000D01*
X147187000Y-115929000D01*
X147194000Y-115931000D01*
X147200000Y-115933000D01*
X147206000Y-115936000D01*
X147212000Y-115939000D01*
X147218000Y-115942000D01*
X147223000Y-115945000D01*
X147228000Y-115949000D01*
X147234000Y-115953000D01*
X147239000Y-115957000D01*
X147243000Y-115962000D01*
X147248000Y-115966000D01*
X147252000Y-115971000D01*
X147256000Y-115977000D01*
X147260000Y-115982000D01*
X147263000Y-115988000D01*
X147266000Y-115993000D01*
X147269000Y-115999000D01*
X147272000Y-116005000D01*
X147274000Y-116011000D01*
X147276000Y-116018000D01*
X147277000Y-116024000D01*
X147278000Y-116030000D01*
X147279000Y-116037000D01*
X147280000Y-116043000D01*
X147280000Y-116050000D01*
X147280000Y-116250000D01*
X147280000Y-116257000D01*
X147279000Y-116263000D01*
X147278000Y-116270000D01*
X147277000Y-116276000D01*
X147276000Y-116282000D01*
X147274000Y-116289000D01*
X147272000Y-116295000D01*
X147269000Y-116301000D01*
X147266000Y-116307000D01*
X147263000Y-116312000D01*
X147260000Y-116318000D01*
X147256000Y-116323000D01*
X147252000Y-116329000D01*
X147248000Y-116334000D01*
X147243000Y-116338000D01*
X147239000Y-116343000D01*
X147234000Y-116347000D01*
X147228000Y-116351000D01*
X147223000Y-116355000D01*
X147218000Y-116358000D01*
X147212000Y-116361000D01*
X147206000Y-116364000D01*
X147200000Y-116367000D01*
X147194000Y-116369000D01*
X147187000Y-116371000D01*
X147181000Y-116372000D01*
X147175000Y-116373000D01*
X147168000Y-116374000D01*
X147162000Y-116375000D01*
X147155000Y-116375000D01*
X146715000Y-116375000D01*
X146708000Y-116375000D01*
X146702000Y-116374000D01*
X146695000Y-116373000D01*
X146689000Y-116372000D01*
X146683000Y-116371000D01*
X146676000Y-116369000D01*
X146670000Y-116367000D01*
X146664000Y-116364000D01*
X146658000Y-116361000D01*
X146652000Y-116358000D01*
X146647000Y-116355000D01*
X146642000Y-116351000D01*
X146636000Y-116347000D01*
X146631000Y-116343000D01*
X146627000Y-116338000D01*
X146622000Y-116334000D01*
X146618000Y-116329000D01*
X146614000Y-116323000D01*
X146610000Y-116318000D01*
X146607000Y-116312000D01*
X146604000Y-116307000D01*
X146601000Y-116301000D01*
X146598000Y-116295000D01*
X146596000Y-116289000D01*
X146594000Y-116282000D01*
X146593000Y-116276000D01*
X146592000Y-116270000D01*
X146591000Y-116263000D01*
X146590000Y-116257000D01*
X146590000Y-116250000D01*
X146590000Y-116050000D01*
X146590000Y-116043000D01*
X146591000Y-116037000D01*
X146592000Y-116030000D01*
X146593000Y-116024000D01*
X146594000Y-116018000D01*
X146596000Y-116011000D01*
X146598000Y-116005000D01*
X146601000Y-115999000D01*
X146604000Y-115993000D01*
X146607000Y-115988000D01*
X146610000Y-115982000D01*
X146614000Y-115977000D01*
X146618000Y-115971000D01*
X146622000Y-115966000D01*
X146627000Y-115962000D01*
X146631000Y-115957000D01*
X146636000Y-115953000D01*
X146642000Y-115949000D01*
X146647000Y-115945000D01*
X146652000Y-115942000D01*
X146658000Y-115939000D01*
X146664000Y-115936000D01*
X146670000Y-115933000D01*
X146676000Y-115931000D01*
X146683000Y-115929000D01*
X146689000Y-115928000D01*
X146695000Y-115927000D01*
X146702000Y-115926000D01*
X146708000Y-115925000D01*
X146715000Y-115925000D01*
X147155000Y-115925000D01*
X147162000Y-115925000D01*
X147168000Y-115926000D01*
G37*
X147168000Y-115426000D02*
X147175000Y-115427000D01*
X147181000Y-115428000D01*
X147187000Y-115429000D01*
X147194000Y-115431000D01*
X147200000Y-115433000D01*
X147206000Y-115436000D01*
X147212000Y-115439000D01*
X147218000Y-115442000D01*
X147223000Y-115445000D01*
X147228000Y-115449000D01*
X147234000Y-115453000D01*
X147239000Y-115457000D01*
X147243000Y-115462000D01*
X147248000Y-115466000D01*
X147252000Y-115471000D01*
X147256000Y-115477000D01*
X147260000Y-115482000D01*
X147263000Y-115488000D01*
X147266000Y-115493000D01*
X147269000Y-115499000D01*
X147272000Y-115505000D01*
X147274000Y-115511000D01*
X147276000Y-115518000D01*
X147277000Y-115524000D01*
X147278000Y-115530000D01*
X147279000Y-115537000D01*
X147280000Y-115543000D01*
X147280000Y-115550000D01*
X147280000Y-115750000D01*
X147280000Y-115757000D01*
X147279000Y-115763000D01*
X147278000Y-115770000D01*
X147277000Y-115776000D01*
X147276000Y-115782000D01*
X147274000Y-115789000D01*
X147272000Y-115795000D01*
X147269000Y-115801000D01*
X147266000Y-115807000D01*
X147263000Y-115812000D01*
X147260000Y-115818000D01*
X147256000Y-115823000D01*
X147252000Y-115829000D01*
X147248000Y-115834000D01*
X147243000Y-115838000D01*
X147239000Y-115843000D01*
X147234000Y-115847000D01*
X147228000Y-115851000D01*
X147223000Y-115855000D01*
X147218000Y-115858000D01*
X147212000Y-115861000D01*
X147206000Y-115864000D01*
X147200000Y-115867000D01*
X147194000Y-115869000D01*
X147187000Y-115871000D01*
X147181000Y-115872000D01*
X147175000Y-115873000D01*
X147168000Y-115874000D01*
X147162000Y-115875000D01*
X147155000Y-115875000D01*
X146715000Y-115875000D01*
X146708000Y-115875000D01*
X146702000Y-115874000D01*
X146695000Y-115873000D01*
X146689000Y-115872000D01*
X146683000Y-115871000D01*
X146676000Y-115869000D01*
X146670000Y-115867000D01*
X146664000Y-115864000D01*
X146658000Y-115861000D01*
X146652000Y-115858000D01*
X146647000Y-115855000D01*
X146642000Y-115851000D01*
X146636000Y-115847000D01*
X146631000Y-115843000D01*
X146627000Y-115838000D01*
X146622000Y-115834000D01*
X146618000Y-115829000D01*
X146614000Y-115823000D01*
X146610000Y-115818000D01*
X146607000Y-115812000D01*
X146604000Y-115807000D01*
X146601000Y-115801000D01*
X146598000Y-115795000D01*
X146596000Y-115789000D01*
X146594000Y-115782000D01*
X146593000Y-115776000D01*
X146592000Y-115770000D01*
X146591000Y-115763000D01*
X146590000Y-115757000D01*
X146590000Y-115750000D01*
X146590000Y-115550000D01*
X146590000Y-115543000D01*
X146591000Y-115537000D01*
X146592000Y-115530000D01*
X146593000Y-115524000D01*
X146594000Y-115518000D01*
X146596000Y-115511000D01*
X146598000Y-115505000D01*
X146601000Y-115499000D01*
X146604000Y-115493000D01*
X146607000Y-115488000D01*
X146610000Y-115482000D01*
X146614000Y-115477000D01*
X146618000Y-115471000D01*
X146622000Y-115466000D01*
X146627000Y-115462000D01*
X146631000Y-115457000D01*
X146636000Y-115453000D01*
X146642000Y-115449000D01*
X146647000Y-115445000D01*
X146652000Y-115442000D01*
X146658000Y-115439000D01*
X146664000Y-115436000D01*
X146670000Y-115433000D01*
X146676000Y-115431000D01*
X146683000Y-115429000D01*
X146689000Y-115428000D01*
X146695000Y-115427000D01*
X146702000Y-115426000D01*
X146708000Y-115425000D01*
X146715000Y-115425000D01*
X147155000Y-115425000D01*
X147162000Y-115425000D01*
X147168000Y-115426000D01*
G36*
X147168000Y-115426000D02*
G01*
X147175000Y-115427000D01*
X147181000Y-115428000D01*
X147187000Y-115429000D01*
X147194000Y-115431000D01*
X147200000Y-115433000D01*
X147206000Y-115436000D01*
X147212000Y-115439000D01*
X147218000Y-115442000D01*
X147223000Y-115445000D01*
X147228000Y-115449000D01*
X147234000Y-115453000D01*
X147239000Y-115457000D01*
X147243000Y-115462000D01*
X147248000Y-115466000D01*
X147252000Y-115471000D01*
X147256000Y-115477000D01*
X147260000Y-115482000D01*
X147263000Y-115488000D01*
X147266000Y-115493000D01*
X147269000Y-115499000D01*
X147272000Y-115505000D01*
X147274000Y-115511000D01*
X147276000Y-115518000D01*
X147277000Y-115524000D01*
X147278000Y-115530000D01*
X147279000Y-115537000D01*
X147280000Y-115543000D01*
X147280000Y-115550000D01*
X147280000Y-115750000D01*
X147280000Y-115757000D01*
X147279000Y-115763000D01*
X147278000Y-115770000D01*
X147277000Y-115776000D01*
X147276000Y-115782000D01*
X147274000Y-115789000D01*
X147272000Y-115795000D01*
X147269000Y-115801000D01*
X147266000Y-115807000D01*
X147263000Y-115812000D01*
X147260000Y-115818000D01*
X147256000Y-115823000D01*
X147252000Y-115829000D01*
X147248000Y-115834000D01*
X147243000Y-115838000D01*
X147239000Y-115843000D01*
X147234000Y-115847000D01*
X147228000Y-115851000D01*
X147223000Y-115855000D01*
X147218000Y-115858000D01*
X147212000Y-115861000D01*
X147206000Y-115864000D01*
X147200000Y-115867000D01*
X147194000Y-115869000D01*
X147187000Y-115871000D01*
X147181000Y-115872000D01*
X147175000Y-115873000D01*
X147168000Y-115874000D01*
X147162000Y-115875000D01*
X147155000Y-115875000D01*
X146715000Y-115875000D01*
X146708000Y-115875000D01*
X146702000Y-115874000D01*
X146695000Y-115873000D01*
X146689000Y-115872000D01*
X146683000Y-115871000D01*
X146676000Y-115869000D01*
X146670000Y-115867000D01*
X146664000Y-115864000D01*
X146658000Y-115861000D01*
X146652000Y-115858000D01*
X146647000Y-115855000D01*
X146642000Y-115851000D01*
X146636000Y-115847000D01*
X146631000Y-115843000D01*
X146627000Y-115838000D01*
X146622000Y-115834000D01*
X146618000Y-115829000D01*
X146614000Y-115823000D01*
X146610000Y-115818000D01*
X146607000Y-115812000D01*
X146604000Y-115807000D01*
X146601000Y-115801000D01*
X146598000Y-115795000D01*
X146596000Y-115789000D01*
X146594000Y-115782000D01*
X146593000Y-115776000D01*
X146592000Y-115770000D01*
X146591000Y-115763000D01*
X146590000Y-115757000D01*
X146590000Y-115750000D01*
X146590000Y-115550000D01*
X146590000Y-115543000D01*
X146591000Y-115537000D01*
X146592000Y-115530000D01*
X146593000Y-115524000D01*
X146594000Y-115518000D01*
X146596000Y-115511000D01*
X146598000Y-115505000D01*
X146601000Y-115499000D01*
X146604000Y-115493000D01*
X146607000Y-115488000D01*
X146610000Y-115482000D01*
X146614000Y-115477000D01*
X146618000Y-115471000D01*
X146622000Y-115466000D01*
X146627000Y-115462000D01*
X146631000Y-115457000D01*
X146636000Y-115453000D01*
X146642000Y-115449000D01*
X146647000Y-115445000D01*
X146652000Y-115442000D01*
X146658000Y-115439000D01*
X146664000Y-115436000D01*
X146670000Y-115433000D01*
X146676000Y-115431000D01*
X146683000Y-115429000D01*
X146689000Y-115428000D01*
X146695000Y-115427000D01*
X146702000Y-115426000D01*
X146708000Y-115425000D01*
X146715000Y-115425000D01*
X147155000Y-115425000D01*
X147162000Y-115425000D01*
X147168000Y-115426000D01*
G37*
X147168000Y-114926000D02*
X147175000Y-114927000D01*
X147181000Y-114928000D01*
X147187000Y-114929000D01*
X147194000Y-114931000D01*
X147200000Y-114933000D01*
X147206000Y-114936000D01*
X147212000Y-114939000D01*
X147218000Y-114942000D01*
X147223000Y-114945000D01*
X147228000Y-114949000D01*
X147234000Y-114953000D01*
X147239000Y-114957000D01*
X147243000Y-114962000D01*
X147248000Y-114966000D01*
X147252000Y-114971000D01*
X147256000Y-114977000D01*
X147260000Y-114982000D01*
X147263000Y-114988000D01*
X147266000Y-114993000D01*
X147269000Y-114999000D01*
X147272000Y-115005000D01*
X147274000Y-115011000D01*
X147276000Y-115018000D01*
X147277000Y-115024000D01*
X147278000Y-115030000D01*
X147279000Y-115037000D01*
X147280000Y-115043000D01*
X147280000Y-115050000D01*
X147280000Y-115250000D01*
X147280000Y-115257000D01*
X147279000Y-115263000D01*
X147278000Y-115270000D01*
X147277000Y-115276000D01*
X147276000Y-115282000D01*
X147274000Y-115289000D01*
X147272000Y-115295000D01*
X147269000Y-115301000D01*
X147266000Y-115307000D01*
X147263000Y-115312000D01*
X147260000Y-115318000D01*
X147256000Y-115323000D01*
X147252000Y-115329000D01*
X147248000Y-115334000D01*
X147243000Y-115338000D01*
X147239000Y-115343000D01*
X147234000Y-115347000D01*
X147228000Y-115351000D01*
X147223000Y-115355000D01*
X147218000Y-115358000D01*
X147212000Y-115361000D01*
X147206000Y-115364000D01*
X147200000Y-115367000D01*
X147194000Y-115369000D01*
X147187000Y-115371000D01*
X147181000Y-115372000D01*
X147175000Y-115373000D01*
X147168000Y-115374000D01*
X147162000Y-115375000D01*
X147155000Y-115375000D01*
X146715000Y-115375000D01*
X146708000Y-115375000D01*
X146702000Y-115374000D01*
X146695000Y-115373000D01*
X146689000Y-115372000D01*
X146683000Y-115371000D01*
X146676000Y-115369000D01*
X146670000Y-115367000D01*
X146664000Y-115364000D01*
X146658000Y-115361000D01*
X146652000Y-115358000D01*
X146647000Y-115355000D01*
X146642000Y-115351000D01*
X146636000Y-115347000D01*
X146631000Y-115343000D01*
X146627000Y-115338000D01*
X146622000Y-115334000D01*
X146618000Y-115329000D01*
X146614000Y-115323000D01*
X146610000Y-115318000D01*
X146607000Y-115312000D01*
X146604000Y-115307000D01*
X146601000Y-115301000D01*
X146598000Y-115295000D01*
X146596000Y-115289000D01*
X146594000Y-115282000D01*
X146593000Y-115276000D01*
X146592000Y-115270000D01*
X146591000Y-115263000D01*
X146590000Y-115257000D01*
X146590000Y-115250000D01*
X146590000Y-115050000D01*
X146590000Y-115043000D01*
X146591000Y-115037000D01*
X146592000Y-115030000D01*
X146593000Y-115024000D01*
X146594000Y-115018000D01*
X146596000Y-115011000D01*
X146598000Y-115005000D01*
X146601000Y-114999000D01*
X146604000Y-114993000D01*
X146607000Y-114988000D01*
X146610000Y-114982000D01*
X146614000Y-114977000D01*
X146618000Y-114971000D01*
X146622000Y-114966000D01*
X146627000Y-114962000D01*
X146631000Y-114957000D01*
X146636000Y-114953000D01*
X146642000Y-114949000D01*
X146647000Y-114945000D01*
X146652000Y-114942000D01*
X146658000Y-114939000D01*
X146664000Y-114936000D01*
X146670000Y-114933000D01*
X146676000Y-114931000D01*
X146683000Y-114929000D01*
X146689000Y-114928000D01*
X146695000Y-114927000D01*
X146702000Y-114926000D01*
X146708000Y-114925000D01*
X146715000Y-114925000D01*
X147155000Y-114925000D01*
X147162000Y-114925000D01*
X147168000Y-114926000D01*
G36*
X147168000Y-114926000D02*
G01*
X147175000Y-114927000D01*
X147181000Y-114928000D01*
X147187000Y-114929000D01*
X147194000Y-114931000D01*
X147200000Y-114933000D01*
X147206000Y-114936000D01*
X147212000Y-114939000D01*
X147218000Y-114942000D01*
X147223000Y-114945000D01*
X147228000Y-114949000D01*
X147234000Y-114953000D01*
X147239000Y-114957000D01*
X147243000Y-114962000D01*
X147248000Y-114966000D01*
X147252000Y-114971000D01*
X147256000Y-114977000D01*
X147260000Y-114982000D01*
X147263000Y-114988000D01*
X147266000Y-114993000D01*
X147269000Y-114999000D01*
X147272000Y-115005000D01*
X147274000Y-115011000D01*
X147276000Y-115018000D01*
X147277000Y-115024000D01*
X147278000Y-115030000D01*
X147279000Y-115037000D01*
X147280000Y-115043000D01*
X147280000Y-115050000D01*
X147280000Y-115250000D01*
X147280000Y-115257000D01*
X147279000Y-115263000D01*
X147278000Y-115270000D01*
X147277000Y-115276000D01*
X147276000Y-115282000D01*
X147274000Y-115289000D01*
X147272000Y-115295000D01*
X147269000Y-115301000D01*
X147266000Y-115307000D01*
X147263000Y-115312000D01*
X147260000Y-115318000D01*
X147256000Y-115323000D01*
X147252000Y-115329000D01*
X147248000Y-115334000D01*
X147243000Y-115338000D01*
X147239000Y-115343000D01*
X147234000Y-115347000D01*
X147228000Y-115351000D01*
X147223000Y-115355000D01*
X147218000Y-115358000D01*
X147212000Y-115361000D01*
X147206000Y-115364000D01*
X147200000Y-115367000D01*
X147194000Y-115369000D01*
X147187000Y-115371000D01*
X147181000Y-115372000D01*
X147175000Y-115373000D01*
X147168000Y-115374000D01*
X147162000Y-115375000D01*
X147155000Y-115375000D01*
X146715000Y-115375000D01*
X146708000Y-115375000D01*
X146702000Y-115374000D01*
X146695000Y-115373000D01*
X146689000Y-115372000D01*
X146683000Y-115371000D01*
X146676000Y-115369000D01*
X146670000Y-115367000D01*
X146664000Y-115364000D01*
X146658000Y-115361000D01*
X146652000Y-115358000D01*
X146647000Y-115355000D01*
X146642000Y-115351000D01*
X146636000Y-115347000D01*
X146631000Y-115343000D01*
X146627000Y-115338000D01*
X146622000Y-115334000D01*
X146618000Y-115329000D01*
X146614000Y-115323000D01*
X146610000Y-115318000D01*
X146607000Y-115312000D01*
X146604000Y-115307000D01*
X146601000Y-115301000D01*
X146598000Y-115295000D01*
X146596000Y-115289000D01*
X146594000Y-115282000D01*
X146593000Y-115276000D01*
X146592000Y-115270000D01*
X146591000Y-115263000D01*
X146590000Y-115257000D01*
X146590000Y-115250000D01*
X146590000Y-115050000D01*
X146590000Y-115043000D01*
X146591000Y-115037000D01*
X146592000Y-115030000D01*
X146593000Y-115024000D01*
X146594000Y-115018000D01*
X146596000Y-115011000D01*
X146598000Y-115005000D01*
X146601000Y-114999000D01*
X146604000Y-114993000D01*
X146607000Y-114988000D01*
X146610000Y-114982000D01*
X146614000Y-114977000D01*
X146618000Y-114971000D01*
X146622000Y-114966000D01*
X146627000Y-114962000D01*
X146631000Y-114957000D01*
X146636000Y-114953000D01*
X146642000Y-114949000D01*
X146647000Y-114945000D01*
X146652000Y-114942000D01*
X146658000Y-114939000D01*
X146664000Y-114936000D01*
X146670000Y-114933000D01*
X146676000Y-114931000D01*
X146683000Y-114929000D01*
X146689000Y-114928000D01*
X146695000Y-114927000D01*
X146702000Y-114926000D01*
X146708000Y-114925000D01*
X146715000Y-114925000D01*
X147155000Y-114925000D01*
X147162000Y-114925000D01*
X147168000Y-114926000D01*
G37*
X147168000Y-114426000D02*
X147175000Y-114427000D01*
X147181000Y-114428000D01*
X147187000Y-114429000D01*
X147194000Y-114431000D01*
X147200000Y-114433000D01*
X147206000Y-114436000D01*
X147212000Y-114439000D01*
X147218000Y-114442000D01*
X147223000Y-114445000D01*
X147228000Y-114449000D01*
X147234000Y-114453000D01*
X147239000Y-114457000D01*
X147243000Y-114462000D01*
X147248000Y-114466000D01*
X147252000Y-114471000D01*
X147256000Y-114477000D01*
X147260000Y-114482000D01*
X147263000Y-114488000D01*
X147266000Y-114493000D01*
X147269000Y-114499000D01*
X147272000Y-114505000D01*
X147274000Y-114511000D01*
X147276000Y-114518000D01*
X147277000Y-114524000D01*
X147278000Y-114530000D01*
X147279000Y-114537000D01*
X147280000Y-114543000D01*
X147280000Y-114550000D01*
X147280000Y-114750000D01*
X147280000Y-114757000D01*
X147279000Y-114763000D01*
X147278000Y-114770000D01*
X147277000Y-114776000D01*
X147276000Y-114782000D01*
X147274000Y-114789000D01*
X147272000Y-114795000D01*
X147269000Y-114801000D01*
X147266000Y-114807000D01*
X147263000Y-114812000D01*
X147260000Y-114818000D01*
X147256000Y-114823000D01*
X147252000Y-114829000D01*
X147248000Y-114834000D01*
X147243000Y-114838000D01*
X147239000Y-114843000D01*
X147234000Y-114847000D01*
X147228000Y-114851000D01*
X147223000Y-114855000D01*
X147218000Y-114858000D01*
X147212000Y-114861000D01*
X147206000Y-114864000D01*
X147200000Y-114867000D01*
X147194000Y-114869000D01*
X147187000Y-114871000D01*
X147181000Y-114872000D01*
X147175000Y-114873000D01*
X147168000Y-114874000D01*
X147162000Y-114875000D01*
X147155000Y-114875000D01*
X146715000Y-114875000D01*
X146708000Y-114875000D01*
X146702000Y-114874000D01*
X146695000Y-114873000D01*
X146689000Y-114872000D01*
X146683000Y-114871000D01*
X146676000Y-114869000D01*
X146670000Y-114867000D01*
X146664000Y-114864000D01*
X146658000Y-114861000D01*
X146652000Y-114858000D01*
X146647000Y-114855000D01*
X146642000Y-114851000D01*
X146636000Y-114847000D01*
X146631000Y-114843000D01*
X146627000Y-114838000D01*
X146622000Y-114834000D01*
X146618000Y-114829000D01*
X146614000Y-114823000D01*
X146610000Y-114818000D01*
X146607000Y-114812000D01*
X146604000Y-114807000D01*
X146601000Y-114801000D01*
X146598000Y-114795000D01*
X146596000Y-114789000D01*
X146594000Y-114782000D01*
X146593000Y-114776000D01*
X146592000Y-114770000D01*
X146591000Y-114763000D01*
X146590000Y-114757000D01*
X146590000Y-114750000D01*
X146590000Y-114550000D01*
X146590000Y-114543000D01*
X146591000Y-114537000D01*
X146592000Y-114530000D01*
X146593000Y-114524000D01*
X146594000Y-114518000D01*
X146596000Y-114511000D01*
X146598000Y-114505000D01*
X146601000Y-114499000D01*
X146604000Y-114493000D01*
X146607000Y-114488000D01*
X146610000Y-114482000D01*
X146614000Y-114477000D01*
X146618000Y-114471000D01*
X146622000Y-114466000D01*
X146627000Y-114462000D01*
X146631000Y-114457000D01*
X146636000Y-114453000D01*
X146642000Y-114449000D01*
X146647000Y-114445000D01*
X146652000Y-114442000D01*
X146658000Y-114439000D01*
X146664000Y-114436000D01*
X146670000Y-114433000D01*
X146676000Y-114431000D01*
X146683000Y-114429000D01*
X146689000Y-114428000D01*
X146695000Y-114427000D01*
X146702000Y-114426000D01*
X146708000Y-114425000D01*
X146715000Y-114425000D01*
X147155000Y-114425000D01*
X147162000Y-114425000D01*
X147168000Y-114426000D01*
G36*
X147168000Y-114426000D02*
G01*
X147175000Y-114427000D01*
X147181000Y-114428000D01*
X147187000Y-114429000D01*
X147194000Y-114431000D01*
X147200000Y-114433000D01*
X147206000Y-114436000D01*
X147212000Y-114439000D01*
X147218000Y-114442000D01*
X147223000Y-114445000D01*
X147228000Y-114449000D01*
X147234000Y-114453000D01*
X147239000Y-114457000D01*
X147243000Y-114462000D01*
X147248000Y-114466000D01*
X147252000Y-114471000D01*
X147256000Y-114477000D01*
X147260000Y-114482000D01*
X147263000Y-114488000D01*
X147266000Y-114493000D01*
X147269000Y-114499000D01*
X147272000Y-114505000D01*
X147274000Y-114511000D01*
X147276000Y-114518000D01*
X147277000Y-114524000D01*
X147278000Y-114530000D01*
X147279000Y-114537000D01*
X147280000Y-114543000D01*
X147280000Y-114550000D01*
X147280000Y-114750000D01*
X147280000Y-114757000D01*
X147279000Y-114763000D01*
X147278000Y-114770000D01*
X147277000Y-114776000D01*
X147276000Y-114782000D01*
X147274000Y-114789000D01*
X147272000Y-114795000D01*
X147269000Y-114801000D01*
X147266000Y-114807000D01*
X147263000Y-114812000D01*
X147260000Y-114818000D01*
X147256000Y-114823000D01*
X147252000Y-114829000D01*
X147248000Y-114834000D01*
X147243000Y-114838000D01*
X147239000Y-114843000D01*
X147234000Y-114847000D01*
X147228000Y-114851000D01*
X147223000Y-114855000D01*
X147218000Y-114858000D01*
X147212000Y-114861000D01*
X147206000Y-114864000D01*
X147200000Y-114867000D01*
X147194000Y-114869000D01*
X147187000Y-114871000D01*
X147181000Y-114872000D01*
X147175000Y-114873000D01*
X147168000Y-114874000D01*
X147162000Y-114875000D01*
X147155000Y-114875000D01*
X146715000Y-114875000D01*
X146708000Y-114875000D01*
X146702000Y-114874000D01*
X146695000Y-114873000D01*
X146689000Y-114872000D01*
X146683000Y-114871000D01*
X146676000Y-114869000D01*
X146670000Y-114867000D01*
X146664000Y-114864000D01*
X146658000Y-114861000D01*
X146652000Y-114858000D01*
X146647000Y-114855000D01*
X146642000Y-114851000D01*
X146636000Y-114847000D01*
X146631000Y-114843000D01*
X146627000Y-114838000D01*
X146622000Y-114834000D01*
X146618000Y-114829000D01*
X146614000Y-114823000D01*
X146610000Y-114818000D01*
X146607000Y-114812000D01*
X146604000Y-114807000D01*
X146601000Y-114801000D01*
X146598000Y-114795000D01*
X146596000Y-114789000D01*
X146594000Y-114782000D01*
X146593000Y-114776000D01*
X146592000Y-114770000D01*
X146591000Y-114763000D01*
X146590000Y-114757000D01*
X146590000Y-114750000D01*
X146590000Y-114550000D01*
X146590000Y-114543000D01*
X146591000Y-114537000D01*
X146592000Y-114530000D01*
X146593000Y-114524000D01*
X146594000Y-114518000D01*
X146596000Y-114511000D01*
X146598000Y-114505000D01*
X146601000Y-114499000D01*
X146604000Y-114493000D01*
X146607000Y-114488000D01*
X146610000Y-114482000D01*
X146614000Y-114477000D01*
X146618000Y-114471000D01*
X146622000Y-114466000D01*
X146627000Y-114462000D01*
X146631000Y-114457000D01*
X146636000Y-114453000D01*
X146642000Y-114449000D01*
X146647000Y-114445000D01*
X146652000Y-114442000D01*
X146658000Y-114439000D01*
X146664000Y-114436000D01*
X146670000Y-114433000D01*
X146676000Y-114431000D01*
X146683000Y-114429000D01*
X146689000Y-114428000D01*
X146695000Y-114427000D01*
X146702000Y-114426000D01*
X146708000Y-114425000D01*
X146715000Y-114425000D01*
X147155000Y-114425000D01*
X147162000Y-114425000D01*
X147168000Y-114426000D01*
G37*
G04 #@! TO.C,J3*
G36*
X132740000Y-115485000D02*
G01*
X130860000Y-115485000D01*
X130860000Y-117575000D01*
X132740000Y-117575000D01*
X132740000Y-115485000D01*
G37*
G04 #@! TD*
D11*
G04 #@! TO.C,FL4*
X162000000Y-96540000D03*
X162500000Y-96540000D03*
X162500000Y-96060000D03*
X162000000Y-96060000D03*
G04 #@! TD*
G04 #@! TO.C,R10*
G36*
G01*
X130360000Y-88215000D02*
X130360000Y-88585000D01*
G75*
G02*
X130225000Y-88720000I-135000J0D01*
G01*
X129955000Y-88720000D01*
G75*
G02*
X129820000Y-88585000I0J135000D01*
G01*
X129820000Y-88215000D01*
G75*
G02*
X129955000Y-88080000I135000J0D01*
G01*
X130225000Y-88080000D01*
G75*
G02*
X130360000Y-88215000I0J-135000D01*
G01*
G37*
G36*
G01*
X131380000Y-88215000D02*
X131380000Y-88585000D01*
G75*
G02*
X131245000Y-88720000I-135000J0D01*
G01*
X130975000Y-88720000D01*
G75*
G02*
X130840000Y-88585000I0J135000D01*
G01*
X130840000Y-88215000D01*
G75*
G02*
X130975000Y-88080000I135000J0D01*
G01*
X131245000Y-88080000D01*
G75*
G02*
X131380000Y-88215000I0J-135000D01*
G01*
G37*
G04 #@! TD*
G04 #@! TO.C,R12*
G36*
G01*
X129185000Y-96260000D02*
X128815000Y-96260000D01*
G75*
G02*
X128680000Y-96125000I0J135000D01*
G01*
X128680000Y-95855000D01*
G75*
G02*
X128815000Y-95720000I135000J0D01*
G01*
X129185000Y-95720000D01*
G75*
G02*
X129320000Y-95855000I0J-135000D01*
G01*
X129320000Y-96125000D01*
G75*
G02*
X129185000Y-96260000I-135000J0D01*
G01*
G37*
G36*
G01*
X129185000Y-97280000D02*
X128815000Y-97280000D01*
G75*
G02*
X128680000Y-97145000I0J135000D01*
G01*
X128680000Y-96875000D01*
G75*
G02*
X128815000Y-96740000I135000J0D01*
G01*
X129185000Y-96740000D01*
G75*
G02*
X129320000Y-96875000I0J-135000D01*
G01*
X129320000Y-97145000D01*
G75*
G02*
X129185000Y-97280000I-135000J0D01*
G01*
G37*
G04 #@! TD*
D12*
G04 #@! TO.C,U5*
X159975000Y-84775000D03*
X159975000Y-86425000D03*
X158425000Y-86425000D03*
X158425000Y-84775000D03*
G04 #@! TD*
G04 #@! TO.C,C1*
G36*
G01*
X132530000Y-106200000D02*
X132870000Y-106200000D01*
G75*
G02*
X133010000Y-106340000I0J-140000D01*
G01*
X133010000Y-106620000D01*
G75*
G02*
X132870000Y-106760000I-140000J0D01*
G01*
X132530000Y-106760000D01*
G75*
G02*
X132390000Y-106620000I0J140000D01*
G01*
X132390000Y-106340000D01*
G75*
G02*
X132530000Y-106200000I140000J0D01*
G01*
G37*
G36*
G01*
X132530000Y-105240000D02*
X132870000Y-105240000D01*
G75*
G02*
X133010000Y-105380000I0J-140000D01*
G01*
X133010000Y-105660000D01*
G75*
G02*
X132870000Y-105800000I-140000J0D01*
G01*
X132530000Y-105800000D01*
G75*
G02*
X132390000Y-105660000I0J140000D01*
G01*
X132390000Y-105380000D01*
G75*
G02*
X132530000Y-105240000I140000J0D01*
G01*
G37*
G04 #@! TD*
G04 #@! TO.C,C70*
G36*
G01*
X157900000Y-113970000D02*
X157900000Y-113630000D01*
G75*
G02*
X158040000Y-113490000I140000J0D01*
G01*
X158320000Y-113490000D01*
G75*
G02*
X158460000Y-113630000I0J-140000D01*
G01*
X158460000Y-113970000D01*
G75*
G02*
X158320000Y-114110000I-140000J0D01*
G01*
X158040000Y-114110000D01*
G75*
G02*
X157900000Y-113970000I0J140000D01*
G01*
G37*
G36*
G01*
X156940000Y-113970000D02*
X156940000Y-113630000D01*
G75*
G02*
X157080000Y-113490000I140000J0D01*
G01*
X157360000Y-113490000D01*
G75*
G02*
X157500000Y-113630000I0J-140000D01*
G01*
X157500000Y-113970000D01*
G75*
G02*
X157360000Y-114110000I-140000J0D01*
G01*
X157080000Y-114110000D01*
G75*
G02*
X156940000Y-113970000I0J140000D01*
G01*
G37*
G04 #@! TD*
G04 #@! TO.C,R3*
G36*
G01*
X144140000Y-77085000D02*
X144140000Y-76715000D01*
G75*
G02*
X144275000Y-76580000I135000J0D01*
G01*
X144545000Y-76580000D01*
G75*
G02*
X144680000Y-76715000I0J-135000D01*
G01*
X144680000Y-77085000D01*
G75*
G02*
X144545000Y-77220000I-135000J0D01*
G01*
X144275000Y-77220000D01*
G75*
G02*
X144140000Y-77085000I0J135000D01*
G01*
G37*
G36*
G01*
X143120000Y-77085000D02*
X143120000Y-76715000D01*
G75*
G02*
X143255000Y-76580000I135000J0D01*
G01*
X143525000Y-76580000D01*
G75*
G02*
X143660000Y-76715000I0J-135000D01*
G01*
X143660000Y-77085000D01*
G75*
G02*
X143525000Y-77220000I-135000J0D01*
G01*
X143255000Y-77220000D01*
G75*
G02*
X143120000Y-77085000I0J135000D01*
G01*
G37*
G04 #@! TD*
G04 #@! TO.C,C36*
G36*
G01*
X145170000Y-107700000D02*
X144830000Y-107700000D01*
G75*
G02*
X144690000Y-107560000I0J140000D01*
G01*
X144690000Y-107280000D01*
G75*
G02*
X144830000Y-107140000I140000J0D01*
G01*
X145170000Y-107140000D01*
G75*
G02*
X145310000Y-107280000I0J-140000D01*
G01*
X145310000Y-107560000D01*
G75*
G02*
X145170000Y-107700000I-140000J0D01*
G01*
G37*
G36*
G01*
X145170000Y-108660000D02*
X144830000Y-108660000D01*
G75*
G02*
X144690000Y-108520000I0J140000D01*
G01*
X144690000Y-108240000D01*
G75*
G02*
X144830000Y-108100000I140000J0D01*
G01*
X145170000Y-108100000D01*
G75*
G02*
X145310000Y-108240000I0J-140000D01*
G01*
X145310000Y-108520000D01*
G75*
G02*
X145170000Y-108660000I-140000J0D01*
G01*
G37*
G04 #@! TD*
G04 #@! TO.C,C41*
G36*
G01*
X143830000Y-84200000D02*
X144170000Y-84200000D01*
G75*
G02*
X144310000Y-84340000I0J-140000D01*
G01*
X144310000Y-84620000D01*
G75*
G02*
X144170000Y-84760000I-140000J0D01*
G01*
X143830000Y-84760000D01*
G75*
G02*
X143690000Y-84620000I0J140000D01*
G01*
X143690000Y-84340000D01*
G75*
G02*
X143830000Y-84200000I140000J0D01*
G01*
G37*
G36*
G01*
X143830000Y-83240000D02*
X144170000Y-83240000D01*
G75*
G02*
X144310000Y-83380000I0J-140000D01*
G01*
X144310000Y-83660000D01*
G75*
G02*
X144170000Y-83800000I-140000J0D01*
G01*
X143830000Y-83800000D01*
G75*
G02*
X143690000Y-83660000I0J140000D01*
G01*
X143690000Y-83380000D01*
G75*
G02*
X143830000Y-83240000I140000J0D01*
G01*
G37*
G04 #@! TD*
D13*
G04 #@! TO.C,TP5*
X125100000Y-97200000D03*
G04 #@! TD*
G04 #@! TO.C,J4*
G36*
G01*
X136950000Y-115375000D02*
X137500000Y-115375000D01*
G75*
G02*
X137750000Y-115625000I0J-250000D01*
G01*
X137750000Y-117325000D01*
G75*
G02*
X137500000Y-117575000I-250000J0D01*
G01*
X136950000Y-117575000D01*
G75*
G02*
X136700000Y-117325000I0J250000D01*
G01*
X136700000Y-115625000D01*
G75*
G02*
X136950000Y-115375000I250000J0D01*
G01*
G37*
G36*
G01*
X139900000Y-115375000D02*
X140450000Y-115375000D01*
G75*
G02*
X140700000Y-115625000I0J-250000D01*
G01*
X140700000Y-117325000D01*
G75*
G02*
X140450000Y-117575000I-250000J0D01*
G01*
X139900000Y-117575000D01*
G75*
G02*
X139650000Y-117325000I0J250000D01*
G01*
X139650000Y-115625000D01*
G75*
G02*
X139900000Y-115375000I250000J0D01*
G01*
G37*
G36*
G01*
X138450000Y-114425000D02*
X138950000Y-114425000D01*
G75*
G02*
X139200000Y-114675000I0J-250000D01*
G01*
X139200000Y-115225000D01*
G75*
G02*
X138950000Y-115475000I-250000J0D01*
G01*
X138450000Y-115475000D01*
G75*
G02*
X138200000Y-115225000I0J250000D01*
G01*
X138200000Y-114675000D01*
G75*
G02*
X138450000Y-114425000I250000J0D01*
G01*
G37*
G04 #@! TD*
G04 #@! TO.C,C55*
G36*
G01*
X156500000Y-94570000D02*
X156500000Y-94230000D01*
G75*
G02*
X156640000Y-94090000I140000J0D01*
G01*
X156920000Y-94090000D01*
G75*
G02*
X157060000Y-94230000I0J-140000D01*
G01*
X157060000Y-94570000D01*
G75*
G02*
X156920000Y-94710000I-140000J0D01*
G01*
X156640000Y-94710000D01*
G75*
G02*
X156500000Y-94570000I0J140000D01*
G01*
G37*
G36*
G01*
X155540000Y-94570000D02*
X155540000Y-94230000D01*
G75*
G02*
X155680000Y-94090000I140000J0D01*
G01*
X155960000Y-94090000D01*
G75*
G02*
X156100000Y-94230000I0J-140000D01*
G01*
X156100000Y-94570000D01*
G75*
G02*
X155960000Y-94710000I-140000J0D01*
G01*
X155680000Y-94710000D01*
G75*
G02*
X155540000Y-94570000I0J140000D01*
G01*
G37*
G04 #@! TD*
G04 #@! TO.C,TP2*
X151900000Y-81300000D03*
G04 #@! TD*
G04 #@! TO.C,C53*
G36*
G01*
X135830000Y-111100000D02*
X136170000Y-111100000D01*
G75*
G02*
X136310000Y-111240000I0J-140000D01*
G01*
X136310000Y-111520000D01*
G75*
G02*
X136170000Y-111660000I-140000J0D01*
G01*
X135830000Y-111660000D01*
G75*
G02*
X135690000Y-111520000I0J140000D01*
G01*
X135690000Y-111240000D01*
G75*
G02*
X135830000Y-111100000I140000J0D01*
G01*
G37*
G36*
G01*
X135830000Y-110140000D02*
X136170000Y-110140000D01*
G75*
G02*
X136310000Y-110280000I0J-140000D01*
G01*
X136310000Y-110560000D01*
G75*
G02*
X136170000Y-110700000I-140000J0D01*
G01*
X135830000Y-110700000D01*
G75*
G02*
X135690000Y-110560000I0J140000D01*
G01*
X135690000Y-110280000D01*
G75*
G02*
X135830000Y-110140000I140000J0D01*
G01*
G37*
G04 #@! TD*
G04 #@! TO.C,C32*
G36*
G01*
X155875000Y-87450000D02*
X155875000Y-87950000D01*
G75*
G02*
X155650000Y-88175000I-225000J0D01*
G01*
X155200000Y-88175000D01*
G75*
G02*
X154975000Y-87950000I0J225000D01*
G01*
X154975000Y-87450000D01*
G75*
G02*
X155200000Y-87225000I225000J0D01*
G01*
X155650000Y-87225000D01*
G75*
G02*
X155875000Y-87450000I0J-225000D01*
G01*
G37*
G36*
G01*
X157425000Y-87450000D02*
X157425000Y-87950000D01*
G75*
G02*
X157200000Y-88175000I-225000J0D01*
G01*
X156750000Y-88175000D01*
G75*
G02*
X156525000Y-87950000I0J225000D01*
G01*
X156525000Y-87450000D01*
G75*
G02*
X156750000Y-87225000I225000J0D01*
G01*
X157200000Y-87225000D01*
G75*
G02*
X157425000Y-87450000I0J-225000D01*
G01*
G37*
G04 #@! TD*
D14*
G04 #@! TO.C,U6*
X158900001Y-112874999D03*
X158250000Y-112874999D03*
X157600001Y-112874999D03*
X157600001Y-110925001D03*
X158250000Y-110925001D03*
X158900001Y-110925001D03*
G04 #@! TD*
G04 #@! TO.C,C69*
G36*
G01*
X126850000Y-93175000D02*
X126350000Y-93175000D01*
G75*
G02*
X126125000Y-92950000I0J225000D01*
G01*
X126125000Y-92500000D01*
G75*
G02*
X126350000Y-92275000I225000J0D01*
G01*
X126850000Y-92275000D01*
G75*
G02*
X127075000Y-92500000I0J-225000D01*
G01*
X127075000Y-92950000D01*
G75*
G02*
X126850000Y-93175000I-225000J0D01*
G01*
G37*
G36*
G01*
X126850000Y-94725000D02*
X126350000Y-94725000D01*
G75*
G02*
X126125000Y-94500000I0J225000D01*
G01*
X126125000Y-94050000D01*
G75*
G02*
X126350000Y-93825000I225000J0D01*
G01*
X126850000Y-93825000D01*
G75*
G02*
X127075000Y-94050000I0J-225000D01*
G01*
X127075000Y-94500000D01*
G75*
G02*
X126850000Y-94725000I-225000J0D01*
G01*
G37*
G04 #@! TD*
G04 #@! TO.C,C37*
G36*
G01*
X155875000Y-107050000D02*
X155875000Y-107550000D01*
G75*
G02*
X155650000Y-107775000I-225000J0D01*
G01*
X155200000Y-107775000D01*
G75*
G02*
X154975000Y-107550000I0J225000D01*
G01*
X154975000Y-107050000D01*
G75*
G02*
X155200000Y-106825000I225000J0D01*
G01*
X155650000Y-106825000D01*
G75*
G02*
X155875000Y-107050000I0J-225000D01*
G01*
G37*
G36*
G01*
X157425000Y-107050000D02*
X157425000Y-107550000D01*
G75*
G02*
X157200000Y-107775000I-225000J0D01*
G01*
X156750000Y-107775000D01*
G75*
G02*
X156525000Y-107550000I0J225000D01*
G01*
X156525000Y-107050000D01*
G75*
G02*
X156750000Y-106825000I225000J0D01*
G01*
X157200000Y-106825000D01*
G75*
G02*
X157425000Y-107050000I0J-225000D01*
G01*
G37*
G04 #@! TD*
G04 #@! TO.C,C4*
G36*
G01*
X134078787Y-104938371D02*
X133838371Y-105178787D01*
G75*
G02*
X133640381Y-105178787I-98995J98995D01*
G01*
X133442391Y-104980797D01*
G75*
G02*
X133442391Y-104782807I98995J98995D01*
G01*
X133682807Y-104542391D01*
G75*
G02*
X133880797Y-104542391I98995J-98995D01*
G01*
X134078787Y-104740381D01*
G75*
G02*
X134078787Y-104938371I-98995J-98995D01*
G01*
G37*
G36*
G01*
X134757609Y-105617193D02*
X134517193Y-105857609D01*
G75*
G02*
X134319203Y-105857609I-98995J98995D01*
G01*
X134121213Y-105659619D01*
G75*
G02*
X134121213Y-105461629I98995J98995D01*
G01*
X134361629Y-105221213D01*
G75*
G02*
X134559619Y-105221213I98995J-98995D01*
G01*
X134757609Y-105419203D01*
G75*
G02*
X134757609Y-105617193I-98995J-98995D01*
G01*
G37*
G04 #@! TD*
G04 #@! TO.C,C18*
G36*
G01*
X155170000Y-83700000D02*
X154830000Y-83700000D01*
G75*
G02*
X154690000Y-83560000I0J140000D01*
G01*
X154690000Y-83280000D01*
G75*
G02*
X154830000Y-83140000I140000J0D01*
G01*
X155170000Y-83140000D01*
G75*
G02*
X155310000Y-83280000I0J-140000D01*
G01*
X155310000Y-83560000D01*
G75*
G02*
X155170000Y-83700000I-140000J0D01*
G01*
G37*
G36*
G01*
X155170000Y-84660000D02*
X154830000Y-84660000D01*
G75*
G02*
X154690000Y-84520000I0J140000D01*
G01*
X154690000Y-84240000D01*
G75*
G02*
X154830000Y-84100000I140000J0D01*
G01*
X155170000Y-84100000D01*
G75*
G02*
X155310000Y-84240000I0J-140000D01*
G01*
X155310000Y-84520000D01*
G75*
G02*
X155170000Y-84660000I-140000J0D01*
G01*
G37*
G04 #@! TD*
G04 #@! TO.C,R1*
G36*
G01*
X133760000Y-101015000D02*
X133760000Y-101385000D01*
G75*
G02*
X133625000Y-101520000I-135000J0D01*
G01*
X133355000Y-101520000D01*
G75*
G02*
X133220000Y-101385000I0J135000D01*
G01*
X133220000Y-101015000D01*
G75*
G02*
X133355000Y-100880000I135000J0D01*
G01*
X133625000Y-100880000D01*
G75*
G02*
X133760000Y-101015000I0J-135000D01*
G01*
G37*
G36*
G01*
X134780000Y-101015000D02*
X134780000Y-101385000D01*
G75*
G02*
X134645000Y-101520000I-135000J0D01*
G01*
X134375000Y-101520000D01*
G75*
G02*
X134240000Y-101385000I0J135000D01*
G01*
X134240000Y-101015000D01*
G75*
G02*
X134375000Y-100880000I135000J0D01*
G01*
X134645000Y-100880000D01*
G75*
G02*
X134780000Y-101015000I0J-135000D01*
G01*
G37*
G04 #@! TD*
G04 #@! TO.C,C45*
G36*
G01*
X133900000Y-92370000D02*
X133900000Y-92030000D01*
G75*
G02*
X134040000Y-91890000I140000J0D01*
G01*
X134320000Y-91890000D01*
G75*
G02*
X134460000Y-92030000I0J-140000D01*
G01*
X134460000Y-92370000D01*
G75*
G02*
X134320000Y-92510000I-140000J0D01*
G01*
X134040000Y-92510000D01*
G75*
G02*
X133900000Y-92370000I0J140000D01*
G01*
G37*
G36*
G01*
X132940000Y-92370000D02*
X132940000Y-92030000D01*
G75*
G02*
X133080000Y-91890000I140000J0D01*
G01*
X133360000Y-91890000D01*
G75*
G02*
X133500000Y-92030000I0J-140000D01*
G01*
X133500000Y-92370000D01*
G75*
G02*
X133360000Y-92510000I-140000J0D01*
G01*
X133080000Y-92510000D01*
G75*
G02*
X132940000Y-92370000I0J140000D01*
G01*
G37*
G04 #@! TD*
G04 #@! TO.C,C6*
G36*
G01*
X133600000Y-96530000D02*
X133600000Y-96870000D01*
G75*
G02*
X133460000Y-97010000I-140000J0D01*
G01*
X133180000Y-97010000D01*
G75*
G02*
X133040000Y-96870000I0J140000D01*
G01*
X133040000Y-96530000D01*
G75*
G02*
X133180000Y-96390000I140000J0D01*
G01*
X133460000Y-96390000D01*
G75*
G02*
X133600000Y-96530000I0J-140000D01*
G01*
G37*
G36*
G01*
X134560000Y-96530000D02*
X134560000Y-96870000D01*
G75*
G02*
X134420000Y-97010000I-140000J0D01*
G01*
X134140000Y-97010000D01*
G75*
G02*
X134000000Y-96870000I0J140000D01*
G01*
X134000000Y-96530000D01*
G75*
G02*
X134140000Y-96390000I140000J0D01*
G01*
X134420000Y-96390000D01*
G75*
G02*
X134560000Y-96530000I0J-140000D01*
G01*
G37*
G04 #@! TD*
G04 #@! TO.C,C68*
G36*
G01*
X126830000Y-96700000D02*
X127170000Y-96700000D01*
G75*
G02*
X127310000Y-96840000I0J-140000D01*
G01*
X127310000Y-97120000D01*
G75*
G02*
X127170000Y-97260000I-140000J0D01*
G01*
X126830000Y-97260000D01*
G75*
G02*
X126690000Y-97120000I0J140000D01*
G01*
X126690000Y-96840000D01*
G75*
G02*
X126830000Y-96700000I140000J0D01*
G01*
G37*
G36*
G01*
X126830000Y-95740000D02*
X127170000Y-95740000D01*
G75*
G02*
X127310000Y-95880000I0J-140000D01*
G01*
X127310000Y-96160000D01*
G75*
G02*
X127170000Y-96300000I-140000J0D01*
G01*
X126830000Y-96300000D01*
G75*
G02*
X126690000Y-96160000I0J140000D01*
G01*
X126690000Y-95880000D01*
G75*
G02*
X126830000Y-95740000I140000J0D01*
G01*
G37*
G04 #@! TD*
G04 #@! TO.C,C17*
G36*
G01*
X133670000Y-83800000D02*
X133330000Y-83800000D01*
G75*
G02*
X133190000Y-83660000I0J140000D01*
G01*
X133190000Y-83380000D01*
G75*
G02*
X133330000Y-83240000I140000J0D01*
G01*
X133670000Y-83240000D01*
G75*
G02*
X133810000Y-83380000I0J-140000D01*
G01*
X133810000Y-83660000D01*
G75*
G02*
X133670000Y-83800000I-140000J0D01*
G01*
G37*
G36*
G01*
X133670000Y-84760000D02*
X133330000Y-84760000D01*
G75*
G02*
X133190000Y-84620000I0J140000D01*
G01*
X133190000Y-84340000D01*
G75*
G02*
X133330000Y-84200000I140000J0D01*
G01*
X133670000Y-84200000D01*
G75*
G02*
X133810000Y-84340000I0J-140000D01*
G01*
X133810000Y-84620000D01*
G75*
G02*
X133670000Y-84760000I-140000J0D01*
G01*
G37*
G04 #@! TD*
G04 #@! TO.C,C66*
G36*
G01*
X154170000Y-107600000D02*
X153830000Y-107600000D01*
G75*
G02*
X153690000Y-107460000I0J140000D01*
G01*
X153690000Y-107180000D01*
G75*
G02*
X153830000Y-107040000I140000J0D01*
G01*
X154170000Y-107040000D01*
G75*
G02*
X154310000Y-107180000I0J-140000D01*
G01*
X154310000Y-107460000D01*
G75*
G02*
X154170000Y-107600000I-140000J0D01*
G01*
G37*
G36*
G01*
X154170000Y-108560000D02*
X153830000Y-108560000D01*
G75*
G02*
X153690000Y-108420000I0J140000D01*
G01*
X153690000Y-108140000D01*
G75*
G02*
X153830000Y-108000000I140000J0D01*
G01*
X154170000Y-108000000D01*
G75*
G02*
X154310000Y-108140000I0J-140000D01*
G01*
X154310000Y-108420000D01*
G75*
G02*
X154170000Y-108560000I-140000J0D01*
G01*
G37*
G04 #@! TD*
G04 #@! TO.C,C75*
G36*
G01*
X147400000Y-117570000D02*
X147400000Y-117230000D01*
G75*
G02*
X147540000Y-117090000I140000J0D01*
G01*
X147820000Y-117090000D01*
G75*
G02*
X147960000Y-117230000I0J-140000D01*
G01*
X147960000Y-117570000D01*
G75*
G02*
X147820000Y-117710000I-140000J0D01*
G01*
X147540000Y-117710000D01*
G75*
G02*
X147400000Y-117570000I0J140000D01*
G01*
G37*
G36*
G01*
X146440000Y-117570000D02*
X146440000Y-117230000D01*
G75*
G02*
X146580000Y-117090000I140000J0D01*
G01*
X146860000Y-117090000D01*
G75*
G02*
X147000000Y-117230000I0J-140000D01*
G01*
X147000000Y-117570000D01*
G75*
G02*
X146860000Y-117710000I-140000J0D01*
G01*
X146580000Y-117710000D01*
G75*
G02*
X146440000Y-117570000I0J140000D01*
G01*
G37*
G04 #@! TD*
G04 #@! TO.C,C43*
G36*
G01*
X156500000Y-99970000D02*
X156500000Y-99630000D01*
G75*
G02*
X156640000Y-99490000I140000J0D01*
G01*
X156920000Y-99490000D01*
G75*
G02*
X157060000Y-99630000I0J-140000D01*
G01*
X157060000Y-99970000D01*
G75*
G02*
X156920000Y-100110000I-140000J0D01*
G01*
X156640000Y-100110000D01*
G75*
G02*
X156500000Y-99970000I0J140000D01*
G01*
G37*
G36*
G01*
X155540000Y-99970000D02*
X155540000Y-99630000D01*
G75*
G02*
X155680000Y-99490000I140000J0D01*
G01*
X155960000Y-99490000D01*
G75*
G02*
X156100000Y-99630000I0J-140000D01*
G01*
X156100000Y-99970000D01*
G75*
G02*
X155960000Y-100110000I-140000J0D01*
G01*
X155680000Y-100110000D01*
G75*
G02*
X155540000Y-99970000I0J140000D01*
G01*
G37*
G04 #@! TD*
G04 #@! TO.C,C46*
G36*
G01*
X156500000Y-90370000D02*
X156500000Y-90030000D01*
G75*
G02*
X156640000Y-89890000I140000J0D01*
G01*
X156920000Y-89890000D01*
G75*
G02*
X157060000Y-90030000I0J-140000D01*
G01*
X157060000Y-90370000D01*
G75*
G02*
X156920000Y-90510000I-140000J0D01*
G01*
X156640000Y-90510000D01*
G75*
G02*
X156500000Y-90370000I0J140000D01*
G01*
G37*
G36*
G01*
X155540000Y-90370000D02*
X155540000Y-90030000D01*
G75*
G02*
X155680000Y-89890000I140000J0D01*
G01*
X155960000Y-89890000D01*
G75*
G02*
X156100000Y-90030000I0J-140000D01*
G01*
X156100000Y-90370000D01*
G75*
G02*
X155960000Y-90510000I-140000J0D01*
G01*
X155680000Y-90510000D01*
G75*
G02*
X155540000Y-90370000I0J140000D01*
G01*
G37*
G04 #@! TD*
G04 #@! TO.C,C62*
G36*
G01*
X153830000Y-111400000D02*
X154170000Y-111400000D01*
G75*
G02*
X154310000Y-111540000I0J-140000D01*
G01*
X154310000Y-111820000D01*
G75*
G02*
X154170000Y-111960000I-140000J0D01*
G01*
X153830000Y-111960000D01*
G75*
G02*
X153690000Y-111820000I0J140000D01*
G01*
X153690000Y-111540000D01*
G75*
G02*
X153830000Y-111400000I140000J0D01*
G01*
G37*
G36*
G01*
X153830000Y-110440000D02*
X154170000Y-110440000D01*
G75*
G02*
X154310000Y-110580000I0J-140000D01*
G01*
X154310000Y-110860000D01*
G75*
G02*
X154170000Y-111000000I-140000J0D01*
G01*
X153830000Y-111000000D01*
G75*
G02*
X153690000Y-110860000I0J140000D01*
G01*
X153690000Y-110580000D01*
G75*
G02*
X153830000Y-110440000I140000J0D01*
G01*
G37*
G04 #@! TD*
G04 #@! TO.C,R5*
G36*
G01*
X160185000Y-87860000D02*
X159815000Y-87860000D01*
G75*
G02*
X159680000Y-87725000I0J135000D01*
G01*
X159680000Y-87455000D01*
G75*
G02*
X159815000Y-87320000I135000J0D01*
G01*
X160185000Y-87320000D01*
G75*
G02*
X160320000Y-87455000I0J-135000D01*
G01*
X160320000Y-87725000D01*
G75*
G02*
X160185000Y-87860000I-135000J0D01*
G01*
G37*
G36*
G01*
X160185000Y-88880000D02*
X159815000Y-88880000D01*
G75*
G02*
X159680000Y-88745000I0J135000D01*
G01*
X159680000Y-88475000D01*
G75*
G02*
X159815000Y-88340000I135000J0D01*
G01*
X160185000Y-88340000D01*
G75*
G02*
X160320000Y-88475000I0J-135000D01*
G01*
X160320000Y-88745000D01*
G75*
G02*
X160185000Y-88880000I-135000J0D01*
G01*
G37*
G04 #@! TD*
G04 #@! TO.C,C5*
G36*
G01*
X133275000Y-95050000D02*
X133275000Y-95550000D01*
G75*
G02*
X133050000Y-95775000I-225000J0D01*
G01*
X132600000Y-95775000D01*
G75*
G02*
X132375000Y-95550000I0J225000D01*
G01*
X132375000Y-95050000D01*
G75*
G02*
X132600000Y-94825000I225000J0D01*
G01*
X133050000Y-94825000D01*
G75*
G02*
X133275000Y-95050000I0J-225000D01*
G01*
G37*
G36*
G01*
X134825000Y-95050000D02*
X134825000Y-95550000D01*
G75*
G02*
X134600000Y-95775000I-225000J0D01*
G01*
X134150000Y-95775000D01*
G75*
G02*
X133925000Y-95550000I0J225000D01*
G01*
X133925000Y-95050000D01*
G75*
G02*
X134150000Y-94825000I225000J0D01*
G01*
X134600000Y-94825000D01*
G75*
G02*
X134825000Y-95050000I0J-225000D01*
G01*
G37*
G04 #@! TD*
G04 #@! TO.C,C24*
G36*
G01*
X156500000Y-96370000D02*
X156500000Y-96030000D01*
G75*
G02*
X156640000Y-95890000I140000J0D01*
G01*
X156920000Y-95890000D01*
G75*
G02*
X157060000Y-96030000I0J-140000D01*
G01*
X157060000Y-96370000D01*
G75*
G02*
X156920000Y-96510000I-140000J0D01*
G01*
X156640000Y-96510000D01*
G75*
G02*
X156500000Y-96370000I0J140000D01*
G01*
G37*
G36*
G01*
X155540000Y-96370000D02*
X155540000Y-96030000D01*
G75*
G02*
X155680000Y-95890000I140000J0D01*
G01*
X155960000Y-95890000D01*
G75*
G02*
X156100000Y-96030000I0J-140000D01*
G01*
X156100000Y-96370000D01*
G75*
G02*
X155960000Y-96510000I-140000J0D01*
G01*
X155680000Y-96510000D01*
G75*
G02*
X155540000Y-96370000I0J140000D01*
G01*
G37*
G04 #@! TD*
G04 #@! TO.C,C44*
G36*
G01*
X133925000Y-93950000D02*
X133925000Y-93450000D01*
G75*
G02*
X134150000Y-93225000I225000J0D01*
G01*
X134600000Y-93225000D01*
G75*
G02*
X134825000Y-93450000I0J-225000D01*
G01*
X134825000Y-93950000D01*
G75*
G02*
X134600000Y-94175000I-225000J0D01*
G01*
X134150000Y-94175000D01*
G75*
G02*
X133925000Y-93950000I0J225000D01*
G01*
G37*
G36*
G01*
X132375000Y-93950000D02*
X132375000Y-93450000D01*
G75*
G02*
X132600000Y-93225000I225000J0D01*
G01*
X133050000Y-93225000D01*
G75*
G02*
X133275000Y-93450000I0J-225000D01*
G01*
X133275000Y-93950000D01*
G75*
G02*
X133050000Y-94175000I-225000J0D01*
G01*
X132600000Y-94175000D01*
G75*
G02*
X132375000Y-93950000I0J225000D01*
G01*
G37*
G04 #@! TD*
G04 #@! TO.C,C28*
G36*
G01*
X144830000Y-87100000D02*
X145170000Y-87100000D01*
G75*
G02*
X145310000Y-87240000I0J-140000D01*
G01*
X145310000Y-87520000D01*
G75*
G02*
X145170000Y-87660000I-140000J0D01*
G01*
X144830000Y-87660000D01*
G75*
G02*
X144690000Y-87520000I0J140000D01*
G01*
X144690000Y-87240000D01*
G75*
G02*
X144830000Y-87100000I140000J0D01*
G01*
G37*
G36*
G01*
X144830000Y-86140000D02*
X145170000Y-86140000D01*
G75*
G02*
X145310000Y-86280000I0J-140000D01*
G01*
X145310000Y-86560000D01*
G75*
G02*
X145170000Y-86700000I-140000J0D01*
G01*
X144830000Y-86700000D01*
G75*
G02*
X144690000Y-86560000I0J140000D01*
G01*
X144690000Y-86280000D01*
G75*
G02*
X144830000Y-86140000I140000J0D01*
G01*
G37*
G04 #@! TD*
G04 #@! TO.C,R4*
G36*
G01*
X146040000Y-77085000D02*
X146040000Y-76715000D01*
G75*
G02*
X146175000Y-76580000I135000J0D01*
G01*
X146445000Y-76580000D01*
G75*
G02*
X146580000Y-76715000I0J-135000D01*
G01*
X146580000Y-77085000D01*
G75*
G02*
X146445000Y-77220000I-135000J0D01*
G01*
X146175000Y-77220000D01*
G75*
G02*
X146040000Y-77085000I0J135000D01*
G01*
G37*
G36*
G01*
X145020000Y-77085000D02*
X145020000Y-76715000D01*
G75*
G02*
X145155000Y-76580000I135000J0D01*
G01*
X145425000Y-76580000D01*
G75*
G02*
X145560000Y-76715000I0J-135000D01*
G01*
X145560000Y-77085000D01*
G75*
G02*
X145425000Y-77220000I-135000J0D01*
G01*
X145155000Y-77220000D01*
G75*
G02*
X145020000Y-77085000I0J135000D01*
G01*
G37*
G04 #@! TD*
D13*
G04 #@! TO.C,TP3*
X125100000Y-94600000D03*
G04 #@! TD*
G04 #@! TO.C,U3*
G36*
G01*
X154225000Y-79900000D02*
X154225000Y-80200000D01*
G75*
G02*
X154075000Y-80350000I-150000J0D01*
G01*
X153050000Y-80350000D01*
G75*
G02*
X152900000Y-80200000I0J150000D01*
G01*
X152900000Y-79900000D01*
G75*
G02*
X153050000Y-79750000I150000J0D01*
G01*
X154075000Y-79750000D01*
G75*
G02*
X154225000Y-79900000I0J-150000D01*
G01*
G37*
G36*
G01*
X154225000Y-78000000D02*
X154225000Y-78300000D01*
G75*
G02*
X154075000Y-78450000I-150000J0D01*
G01*
X153050000Y-78450000D01*
G75*
G02*
X152900000Y-78300000I0J150000D01*
G01*
X152900000Y-78000000D01*
G75*
G02*
X153050000Y-77850000I150000J0D01*
G01*
X154075000Y-77850000D01*
G75*
G02*
X154225000Y-78000000I0J-150000D01*
G01*
G37*
G36*
G01*
X156500000Y-78000000D02*
X156500000Y-78300000D01*
G75*
G02*
X156350000Y-78450000I-150000J0D01*
G01*
X155325000Y-78450000D01*
G75*
G02*
X155175000Y-78300000I0J150000D01*
G01*
X155175000Y-78000000D01*
G75*
G02*
X155325000Y-77850000I150000J0D01*
G01*
X156350000Y-77850000D01*
G75*
G02*
X156500000Y-78000000I0J-150000D01*
G01*
G37*
G36*
G01*
X156500000Y-78950000D02*
X156500000Y-79250000D01*
G75*
G02*
X156350000Y-79400000I-150000J0D01*
G01*
X155325000Y-79400000D01*
G75*
G02*
X155175000Y-79250000I0J150000D01*
G01*
X155175000Y-78950000D01*
G75*
G02*
X155325000Y-78800000I150000J0D01*
G01*
X156350000Y-78800000D01*
G75*
G02*
X156500000Y-78950000I0J-150000D01*
G01*
G37*
G36*
G01*
X156500000Y-79900000D02*
X156500000Y-80200000D01*
G75*
G02*
X156350000Y-80350000I-150000J0D01*
G01*
X155325000Y-80350000D01*
G75*
G02*
X155175000Y-80200000I0J150000D01*
G01*
X155175000Y-79900000D01*
G75*
G02*
X155325000Y-79750000I150000J0D01*
G01*
X156350000Y-79750000D01*
G75*
G02*
X156500000Y-79900000I0J-150000D01*
G01*
G37*
G04 #@! TD*
G04 #@! TO.C,C21*
G36*
G01*
X137750000Y-83575000D02*
X137250000Y-83575000D01*
G75*
G02*
X137025000Y-83350000I0J225000D01*
G01*
X137025000Y-82900000D01*
G75*
G02*
X137250000Y-82675000I225000J0D01*
G01*
X137750000Y-82675000D01*
G75*
G02*
X137975000Y-82900000I0J-225000D01*
G01*
X137975000Y-83350000D01*
G75*
G02*
X137750000Y-83575000I-225000J0D01*
G01*
G37*
G36*
G01*
X137750000Y-85125000D02*
X137250000Y-85125000D01*
G75*
G02*
X137025000Y-84900000I0J225000D01*
G01*
X137025000Y-84450000D01*
G75*
G02*
X137250000Y-84225000I225000J0D01*
G01*
X137750000Y-84225000D01*
G75*
G02*
X137975000Y-84450000I0J-225000D01*
G01*
X137975000Y-84900000D01*
G75*
G02*
X137750000Y-85125000I-225000J0D01*
G01*
G37*
G04 #@! TD*
G04 #@! TO.C,TP9*
X131100000Y-85600000D03*
G04 #@! TD*
D11*
G04 #@! TO.C,FL2*
X162000000Y-93540000D03*
X162500000Y-93540000D03*
X162500000Y-93060000D03*
X162000000Y-93060000D03*
G04 #@! TD*
G04 #@! TO.C,C38*
G36*
G01*
X143170000Y-83800000D02*
X142830000Y-83800000D01*
G75*
G02*
X142690000Y-83660000I0J140000D01*
G01*
X142690000Y-83380000D01*
G75*
G02*
X142830000Y-83240000I140000J0D01*
G01*
X143170000Y-83240000D01*
G75*
G02*
X143310000Y-83380000I0J-140000D01*
G01*
X143310000Y-83660000D01*
G75*
G02*
X143170000Y-83800000I-140000J0D01*
G01*
G37*
G36*
G01*
X143170000Y-84760000D02*
X142830000Y-84760000D01*
G75*
G02*
X142690000Y-84620000I0J140000D01*
G01*
X142690000Y-84340000D01*
G75*
G02*
X142830000Y-84200000I140000J0D01*
G01*
X143170000Y-84200000D01*
G75*
G02*
X143310000Y-84340000I0J-140000D01*
G01*
X143310000Y-84620000D01*
G75*
G02*
X143170000Y-84760000I-140000J0D01*
G01*
G37*
G04 #@! TD*
G04 #@! TO.C,C61*
G36*
G01*
X159400000Y-105270000D02*
X159400000Y-104930000D01*
G75*
G02*
X159540000Y-104790000I140000J0D01*
G01*
X159820000Y-104790000D01*
G75*
G02*
X159960000Y-104930000I0J-140000D01*
G01*
X159960000Y-105270000D01*
G75*
G02*
X159820000Y-105410000I-140000J0D01*
G01*
X159540000Y-105410000D01*
G75*
G02*
X159400000Y-105270000I0J140000D01*
G01*
G37*
G36*
G01*
X158440000Y-105270000D02*
X158440000Y-104930000D01*
G75*
G02*
X158580000Y-104790000I140000J0D01*
G01*
X158860000Y-104790000D01*
G75*
G02*
X159000000Y-104930000I0J-140000D01*
G01*
X159000000Y-105270000D01*
G75*
G02*
X158860000Y-105410000I-140000J0D01*
G01*
X158580000Y-105410000D01*
G75*
G02*
X158440000Y-105270000I0J140000D01*
G01*
G37*
G04 #@! TD*
G04 #@! TO.C,C52*
G36*
G01*
X159000000Y-90370000D02*
X159000000Y-90030000D01*
G75*
G02*
X159140000Y-89890000I140000J0D01*
G01*
X159420000Y-89890000D01*
G75*
G02*
X159560000Y-90030000I0J-140000D01*
G01*
X159560000Y-90370000D01*
G75*
G02*
X159420000Y-90510000I-140000J0D01*
G01*
X159140000Y-90510000D01*
G75*
G02*
X159000000Y-90370000I0J140000D01*
G01*
G37*
G36*
G01*
X158040000Y-90370000D02*
X158040000Y-90030000D01*
G75*
G02*
X158180000Y-89890000I140000J0D01*
G01*
X158460000Y-89890000D01*
G75*
G02*
X158600000Y-90030000I0J-140000D01*
G01*
X158600000Y-90370000D01*
G75*
G02*
X158460000Y-90510000I-140000J0D01*
G01*
X158180000Y-90510000D01*
G75*
G02*
X158040000Y-90370000I0J140000D01*
G01*
G37*
G04 #@! TD*
G04 #@! TO.C,C60*
G36*
G01*
X156100000Y-93330000D02*
X156100000Y-93670000D01*
G75*
G02*
X155960000Y-93810000I-140000J0D01*
G01*
X155680000Y-93810000D01*
G75*
G02*
X155540000Y-93670000I0J140000D01*
G01*
X155540000Y-93330000D01*
G75*
G02*
X155680000Y-93190000I140000J0D01*
G01*
X155960000Y-93190000D01*
G75*
G02*
X156100000Y-93330000I0J-140000D01*
G01*
G37*
G36*
G01*
X157060000Y-93330000D02*
X157060000Y-93670000D01*
G75*
G02*
X156920000Y-93810000I-140000J0D01*
G01*
X156640000Y-93810000D01*
G75*
G02*
X156500000Y-93670000I0J140000D01*
G01*
X156500000Y-93330000D01*
G75*
G02*
X156640000Y-93190000I140000J0D01*
G01*
X156920000Y-93190000D01*
G75*
G02*
X157060000Y-93330000I0J-140000D01*
G01*
G37*
G04 #@! TD*
G04 #@! TO.C,C49*
G36*
G01*
X143270000Y-110800000D02*
X142930000Y-110800000D01*
G75*
G02*
X142790000Y-110660000I0J140000D01*
G01*
X142790000Y-110380000D01*
G75*
G02*
X142930000Y-110240000I140000J0D01*
G01*
X143270000Y-110240000D01*
G75*
G02*
X143410000Y-110380000I0J-140000D01*
G01*
X143410000Y-110660000D01*
G75*
G02*
X143270000Y-110800000I-140000J0D01*
G01*
G37*
G36*
G01*
X143270000Y-111760000D02*
X142930000Y-111760000D01*
G75*
G02*
X142790000Y-111620000I0J140000D01*
G01*
X142790000Y-111340000D01*
G75*
G02*
X142930000Y-111200000I140000J0D01*
G01*
X143270000Y-111200000D01*
G75*
G02*
X143410000Y-111340000I0J-140000D01*
G01*
X143410000Y-111620000D01*
G75*
G02*
X143270000Y-111760000I-140000J0D01*
G01*
G37*
G04 #@! TD*
G04 #@! TO.C,C13*
G36*
G01*
X152150000Y-79025000D02*
X151650000Y-79025000D01*
G75*
G02*
X151425000Y-78800000I0J225000D01*
G01*
X151425000Y-78350000D01*
G75*
G02*
X151650000Y-78125000I225000J0D01*
G01*
X152150000Y-78125000D01*
G75*
G02*
X152375000Y-78350000I0J-225000D01*
G01*
X152375000Y-78800000D01*
G75*
G02*
X152150000Y-79025000I-225000J0D01*
G01*
G37*
G36*
G01*
X152150000Y-80575000D02*
X151650000Y-80575000D01*
G75*
G02*
X151425000Y-80350000I0J225000D01*
G01*
X151425000Y-79900000D01*
G75*
G02*
X151650000Y-79675000I225000J0D01*
G01*
X152150000Y-79675000D01*
G75*
G02*
X152375000Y-79900000I0J-225000D01*
G01*
X152375000Y-80350000D01*
G75*
G02*
X152150000Y-80575000I-225000J0D01*
G01*
G37*
G04 #@! TD*
G04 #@! TO.C,J1*
G36*
G01*
X166250000Y-110700000D02*
X167550000Y-110700000D01*
G75*
G02*
X167800000Y-110950000I0J-250000D01*
G01*
X167800000Y-111650000D01*
G75*
G02*
X167550000Y-111900000I-250000J0D01*
G01*
X166250000Y-111900000D01*
G75*
G02*
X166000000Y-111650000I0J250000D01*
G01*
X166000000Y-110950000D01*
G75*
G02*
X166250000Y-110700000I250000J0D01*
G01*
G37*
G36*
G01*
X166250000Y-105100000D02*
X167550000Y-105100000D01*
G75*
G02*
X167800000Y-105350000I0J-250000D01*
G01*
X167800000Y-106050000D01*
G75*
G02*
X167550000Y-106300000I-250000J0D01*
G01*
X166250000Y-106300000D01*
G75*
G02*
X166000000Y-106050000I0J250000D01*
G01*
X166000000Y-105350000D01*
G75*
G02*
X166250000Y-105100000I250000J0D01*
G01*
G37*
G36*
G01*
X163750000Y-109700000D02*
X165000000Y-109700000D01*
G75*
G02*
X165150000Y-109850000I0J-150000D01*
G01*
X165150000Y-110150000D01*
G75*
G02*
X165000000Y-110300000I-150000J0D01*
G01*
X163750000Y-110300000D01*
G75*
G02*
X163600000Y-110150000I0J150000D01*
G01*
X163600000Y-109850000D01*
G75*
G02*
X163750000Y-109700000I150000J0D01*
G01*
G37*
G36*
G01*
X163750000Y-108700000D02*
X165000000Y-108700000D01*
G75*
G02*
X165150000Y-108850000I0J-150000D01*
G01*
X165150000Y-109150000D01*
G75*
G02*
X165000000Y-109300000I-150000J0D01*
G01*
X163750000Y-109300000D01*
G75*
G02*
X163600000Y-109150000I0J150000D01*
G01*
X163600000Y-108850000D01*
G75*
G02*
X163750000Y-108700000I150000J0D01*
G01*
G37*
G36*
G01*
X163750000Y-107700000D02*
X165000000Y-107700000D01*
G75*
G02*
X165150000Y-107850000I0J-150000D01*
G01*
X165150000Y-108150000D01*
G75*
G02*
X165000000Y-108300000I-150000J0D01*
G01*
X163750000Y-108300000D01*
G75*
G02*
X163600000Y-108150000I0J150000D01*
G01*
X163600000Y-107850000D01*
G75*
G02*
X163750000Y-107700000I150000J0D01*
G01*
G37*
G36*
G01*
X163750000Y-106700000D02*
X165000000Y-106700000D01*
G75*
G02*
X165150000Y-106850000I0J-150000D01*
G01*
X165150000Y-107150000D01*
G75*
G02*
X165000000Y-107300000I-150000J0D01*
G01*
X163750000Y-107300000D01*
G75*
G02*
X163600000Y-107150000I0J150000D01*
G01*
X163600000Y-106850000D01*
G75*
G02*
X163750000Y-106700000I150000J0D01*
G01*
G37*
G04 #@! TD*
G04 #@! TO.C,C31*
G36*
G01*
X135170000Y-110700000D02*
X134830000Y-110700000D01*
G75*
G02*
X134690000Y-110560000I0J140000D01*
G01*
X134690000Y-110280000D01*
G75*
G02*
X134830000Y-110140000I140000J0D01*
G01*
X135170000Y-110140000D01*
G75*
G02*
X135310000Y-110280000I0J-140000D01*
G01*
X135310000Y-110560000D01*
G75*
G02*
X135170000Y-110700000I-140000J0D01*
G01*
G37*
G36*
G01*
X135170000Y-111660000D02*
X134830000Y-111660000D01*
G75*
G02*
X134690000Y-111520000I0J140000D01*
G01*
X134690000Y-111240000D01*
G75*
G02*
X134830000Y-111100000I140000J0D01*
G01*
X135170000Y-111100000D01*
G75*
G02*
X135310000Y-111240000I0J-140000D01*
G01*
X135310000Y-111520000D01*
G75*
G02*
X135170000Y-111660000I-140000J0D01*
G01*
G37*
G04 #@! TD*
D15*
G04 #@! TO.C,H3*
X125000000Y-77500000D03*
G04 #@! TD*
G04 #@! TO.C,C7*
G36*
G01*
X133275000Y-97950000D02*
X133275000Y-98450000D01*
G75*
G02*
X133050000Y-98675000I-225000J0D01*
G01*
X132600000Y-98675000D01*
G75*
G02*
X132375000Y-98450000I0J225000D01*
G01*
X132375000Y-97950000D01*
G75*
G02*
X132600000Y-97725000I225000J0D01*
G01*
X133050000Y-97725000D01*
G75*
G02*
X133275000Y-97950000I0J-225000D01*
G01*
G37*
G36*
G01*
X134825000Y-97950000D02*
X134825000Y-98450000D01*
G75*
G02*
X134600000Y-98675000I-225000J0D01*
G01*
X134150000Y-98675000D01*
G75*
G02*
X133925000Y-98450000I0J225000D01*
G01*
X133925000Y-97950000D01*
G75*
G02*
X134150000Y-97725000I225000J0D01*
G01*
X134600000Y-97725000D01*
G75*
G02*
X134825000Y-97950000I0J-225000D01*
G01*
G37*
G04 #@! TD*
G04 #@! TO.C,L1*
G36*
G01*
X140675000Y-81318750D02*
X140675000Y-82081250D01*
G75*
G02*
X140456250Y-82300000I-218750J0D01*
G01*
X140018750Y-82300000D01*
G75*
G02*
X139800000Y-82081250I0J218750D01*
G01*
X139800000Y-81318750D01*
G75*
G02*
X140018750Y-81100000I218750J0D01*
G01*
X140456250Y-81100000D01*
G75*
G02*
X140675000Y-81318750I0J-218750D01*
G01*
G37*
G36*
G01*
X142800000Y-81318750D02*
X142800000Y-82081250D01*
G75*
G02*
X142581250Y-82300000I-218750J0D01*
G01*
X142143750Y-82300000D01*
G75*
G02*
X141925000Y-82081250I0J218750D01*
G01*
X141925000Y-81318750D01*
G75*
G02*
X142143750Y-81100000I218750J0D01*
G01*
X142581250Y-81100000D01*
G75*
G02*
X142800000Y-81318750I0J-218750D01*
G01*
G37*
G04 #@! TD*
G04 #@! TO.C,C42*
G36*
G01*
X156100000Y-91030000D02*
X156100000Y-91370000D01*
G75*
G02*
X155960000Y-91510000I-140000J0D01*
G01*
X155680000Y-91510000D01*
G75*
G02*
X155540000Y-91370000I0J140000D01*
G01*
X155540000Y-91030000D01*
G75*
G02*
X155680000Y-90890000I140000J0D01*
G01*
X155960000Y-90890000D01*
G75*
G02*
X156100000Y-91030000I0J-140000D01*
G01*
G37*
G36*
G01*
X157060000Y-91030000D02*
X157060000Y-91370000D01*
G75*
G02*
X156920000Y-91510000I-140000J0D01*
G01*
X156640000Y-91510000D01*
G75*
G02*
X156500000Y-91370000I0J140000D01*
G01*
X156500000Y-91030000D01*
G75*
G02*
X156640000Y-90890000I140000J0D01*
G01*
X156920000Y-90890000D01*
G75*
G02*
X157060000Y-91030000I0J-140000D01*
G01*
G37*
G04 #@! TD*
G04 #@! TO.C,FB3*
G36*
G01*
X147956250Y-78950000D02*
X147443750Y-78950000D01*
G75*
G02*
X147225000Y-78731250I0J218750D01*
G01*
X147225000Y-78293750D01*
G75*
G02*
X147443750Y-78075000I218750J0D01*
G01*
X147956250Y-78075000D01*
G75*
G02*
X148175000Y-78293750I0J-218750D01*
G01*
X148175000Y-78731250D01*
G75*
G02*
X147956250Y-78950000I-218750J0D01*
G01*
G37*
G36*
G01*
X147956250Y-80525000D02*
X147443750Y-80525000D01*
G75*
G02*
X147225000Y-80306250I0J218750D01*
G01*
X147225000Y-79868750D01*
G75*
G02*
X147443750Y-79650000I218750J0D01*
G01*
X147956250Y-79650000D01*
G75*
G02*
X148175000Y-79868750I0J-218750D01*
G01*
X148175000Y-80306250D01*
G75*
G02*
X147956250Y-80525000I-218750J0D01*
G01*
G37*
G04 #@! TD*
G04 #@! TO.C,C35*
G36*
G01*
X152750000Y-84075000D02*
X152250000Y-84075000D01*
G75*
G02*
X152025000Y-83850000I0J225000D01*
G01*
X152025000Y-83400000D01*
G75*
G02*
X152250000Y-83175000I225000J0D01*
G01*
X152750000Y-83175000D01*
G75*
G02*
X152975000Y-83400000I0J-225000D01*
G01*
X152975000Y-83850000D01*
G75*
G02*
X152750000Y-84075000I-225000J0D01*
G01*
G37*
G36*
G01*
X152750000Y-85625000D02*
X152250000Y-85625000D01*
G75*
G02*
X152025000Y-85400000I0J225000D01*
G01*
X152025000Y-84950000D01*
G75*
G02*
X152250000Y-84725000I225000J0D01*
G01*
X152750000Y-84725000D01*
G75*
G02*
X152975000Y-84950000I0J-225000D01*
G01*
X152975000Y-85400000D01*
G75*
G02*
X152750000Y-85625000I-225000J0D01*
G01*
G37*
G04 #@! TD*
G04 #@! TO.C,FB2*
G36*
G01*
X159410000Y-113627500D02*
X159410000Y-113972500D01*
G75*
G02*
X159262500Y-114120000I-147500J0D01*
G01*
X158967500Y-114120000D01*
G75*
G02*
X158820000Y-113972500I0J147500D01*
G01*
X158820000Y-113627500D01*
G75*
G02*
X158967500Y-113480000I147500J0D01*
G01*
X159262500Y-113480000D01*
G75*
G02*
X159410000Y-113627500I0J-147500D01*
G01*
G37*
G36*
G01*
X160380000Y-113627500D02*
X160380000Y-113972500D01*
G75*
G02*
X160232500Y-114120000I-147500J0D01*
G01*
X159937500Y-114120000D01*
G75*
G02*
X159790000Y-113972500I0J147500D01*
G01*
X159790000Y-113627500D01*
G75*
G02*
X159937500Y-113480000I147500J0D01*
G01*
X160232500Y-113480000D01*
G75*
G02*
X160380000Y-113627500I0J-147500D01*
G01*
G37*
G04 #@! TD*
G04 #@! TO.C,C50*
G36*
G01*
X136170000Y-83700000D02*
X135830000Y-83700000D01*
G75*
G02*
X135690000Y-83560000I0J140000D01*
G01*
X135690000Y-83280000D01*
G75*
G02*
X135830000Y-83140000I140000J0D01*
G01*
X136170000Y-83140000D01*
G75*
G02*
X136310000Y-83280000I0J-140000D01*
G01*
X136310000Y-83560000D01*
G75*
G02*
X136170000Y-83700000I-140000J0D01*
G01*
G37*
G36*
G01*
X136170000Y-84660000D02*
X135830000Y-84660000D01*
G75*
G02*
X135690000Y-84520000I0J140000D01*
G01*
X135690000Y-84240000D01*
G75*
G02*
X135830000Y-84100000I140000J0D01*
G01*
X136170000Y-84100000D01*
G75*
G02*
X136310000Y-84240000I0J-140000D01*
G01*
X136310000Y-84520000D01*
G75*
G02*
X136170000Y-84660000I-140000J0D01*
G01*
G37*
G04 #@! TD*
G04 #@! TO.C,C47*
G36*
G01*
X143830000Y-111200000D02*
X144170000Y-111200000D01*
G75*
G02*
X144310000Y-111340000I0J-140000D01*
G01*
X144310000Y-111620000D01*
G75*
G02*
X144170000Y-111760000I-140000J0D01*
G01*
X143830000Y-111760000D01*
G75*
G02*
X143690000Y-111620000I0J140000D01*
G01*
X143690000Y-111340000D01*
G75*
G02*
X143830000Y-111200000I140000J0D01*
G01*
G37*
G36*
G01*
X143830000Y-110240000D02*
X144170000Y-110240000D01*
G75*
G02*
X144310000Y-110380000I0J-140000D01*
G01*
X144310000Y-110660000D01*
G75*
G02*
X144170000Y-110800000I-140000J0D01*
G01*
X143830000Y-110800000D01*
G75*
G02*
X143690000Y-110660000I0J140000D01*
G01*
X143690000Y-110380000D01*
G75*
G02*
X143830000Y-110240000I140000J0D01*
G01*
G37*
G04 #@! TD*
G04 #@! TO.C,C2*
G36*
G01*
X156200000Y-104370000D02*
X156200000Y-104030000D01*
G75*
G02*
X156340000Y-103890000I140000J0D01*
G01*
X156620000Y-103890000D01*
G75*
G02*
X156760000Y-104030000I0J-140000D01*
G01*
X156760000Y-104370000D01*
G75*
G02*
X156620000Y-104510000I-140000J0D01*
G01*
X156340000Y-104510000D01*
G75*
G02*
X156200000Y-104370000I0J140000D01*
G01*
G37*
G36*
G01*
X155240000Y-104370000D02*
X155240000Y-104030000D01*
G75*
G02*
X155380000Y-103890000I140000J0D01*
G01*
X155660000Y-103890000D01*
G75*
G02*
X155800000Y-104030000I0J-140000D01*
G01*
X155800000Y-104370000D01*
G75*
G02*
X155660000Y-104510000I-140000J0D01*
G01*
X155380000Y-104510000D01*
G75*
G02*
X155240000Y-104370000I0J140000D01*
G01*
G37*
G04 #@! TD*
G04 #@! TO.C,C10*
G36*
G01*
X157450000Y-79625000D02*
X157950000Y-79625000D01*
G75*
G02*
X158175000Y-79850000I0J-225000D01*
G01*
X158175000Y-80300000D01*
G75*
G02*
X157950000Y-80525000I-225000J0D01*
G01*
X157450000Y-80525000D01*
G75*
G02*
X157225000Y-80300000I0J225000D01*
G01*
X157225000Y-79850000D01*
G75*
G02*
X157450000Y-79625000I225000J0D01*
G01*
G37*
G36*
G01*
X157450000Y-78075000D02*
X157950000Y-78075000D01*
G75*
G02*
X158175000Y-78300000I0J-225000D01*
G01*
X158175000Y-78750000D01*
G75*
G02*
X157950000Y-78975000I-225000J0D01*
G01*
X157450000Y-78975000D01*
G75*
G02*
X157225000Y-78750000I0J225000D01*
G01*
X157225000Y-78300000D01*
G75*
G02*
X157450000Y-78075000I225000J0D01*
G01*
G37*
G04 #@! TD*
G04 #@! TO.C,C74*
G36*
G01*
X148800000Y-117230000D02*
X148800000Y-117570000D01*
G75*
G02*
X148660000Y-117710000I-140000J0D01*
G01*
X148380000Y-117710000D01*
G75*
G02*
X148240000Y-117570000I0J140000D01*
G01*
X148240000Y-117230000D01*
G75*
G02*
X148380000Y-117090000I140000J0D01*
G01*
X148660000Y-117090000D01*
G75*
G02*
X148800000Y-117230000I0J-140000D01*
G01*
G37*
G36*
G01*
X149760000Y-117230000D02*
X149760000Y-117570000D01*
G75*
G02*
X149620000Y-117710000I-140000J0D01*
G01*
X149340000Y-117710000D01*
G75*
G02*
X149200000Y-117570000I0J140000D01*
G01*
X149200000Y-117230000D01*
G75*
G02*
X149340000Y-117090000I140000J0D01*
G01*
X149620000Y-117090000D01*
G75*
G02*
X149760000Y-117230000I0J-140000D01*
G01*
G37*
G04 #@! TD*
G04 #@! TO.C,C22*
G36*
G01*
X134330000Y-84200000D02*
X134670000Y-84200000D01*
G75*
G02*
X134810000Y-84340000I0J-140000D01*
G01*
X134810000Y-84620000D01*
G75*
G02*
X134670000Y-84760000I-140000J0D01*
G01*
X134330000Y-84760000D01*
G75*
G02*
X134190000Y-84620000I0J140000D01*
G01*
X134190000Y-84340000D01*
G75*
G02*
X134330000Y-84200000I140000J0D01*
G01*
G37*
G36*
G01*
X134330000Y-83240000D02*
X134670000Y-83240000D01*
G75*
G02*
X134810000Y-83380000I0J-140000D01*
G01*
X134810000Y-83660000D01*
G75*
G02*
X134670000Y-83800000I-140000J0D01*
G01*
X134330000Y-83800000D01*
G75*
G02*
X134190000Y-83660000I0J140000D01*
G01*
X134190000Y-83380000D01*
G75*
G02*
X134330000Y-83240000I140000J0D01*
G01*
G37*
G04 #@! TD*
G04 #@! TO.C,R11*
G36*
G01*
X127815000Y-96740000D02*
X128185000Y-96740000D01*
G75*
G02*
X128320000Y-96875000I0J-135000D01*
G01*
X128320000Y-97145000D01*
G75*
G02*
X128185000Y-97280000I-135000J0D01*
G01*
X127815000Y-97280000D01*
G75*
G02*
X127680000Y-97145000I0J135000D01*
G01*
X127680000Y-96875000D01*
G75*
G02*
X127815000Y-96740000I135000J0D01*
G01*
G37*
G36*
G01*
X127815000Y-95720000D02*
X128185000Y-95720000D01*
G75*
G02*
X128320000Y-95855000I0J-135000D01*
G01*
X128320000Y-96125000D01*
G75*
G02*
X128185000Y-96260000I-135000J0D01*
G01*
X127815000Y-96260000D01*
G75*
G02*
X127680000Y-96125000I0J135000D01*
G01*
X127680000Y-95855000D01*
G75*
G02*
X127815000Y-95720000I135000J0D01*
G01*
G37*
G04 #@! TD*
D13*
G04 #@! TO.C,TP7*
X125300000Y-85600000D03*
G04 #@! TD*
G04 #@! TO.C,C54*
G36*
G01*
X159400000Y-107370000D02*
X159400000Y-107030000D01*
G75*
G02*
X159540000Y-106890000I140000J0D01*
G01*
X159820000Y-106890000D01*
G75*
G02*
X159960000Y-107030000I0J-140000D01*
G01*
X159960000Y-107370000D01*
G75*
G02*
X159820000Y-107510000I-140000J0D01*
G01*
X159540000Y-107510000D01*
G75*
G02*
X159400000Y-107370000I0J140000D01*
G01*
G37*
G36*
G01*
X158440000Y-107370000D02*
X158440000Y-107030000D01*
G75*
G02*
X158580000Y-106890000I140000J0D01*
G01*
X158860000Y-106890000D01*
G75*
G02*
X159000000Y-107030000I0J-140000D01*
G01*
X159000000Y-107370000D01*
G75*
G02*
X158860000Y-107510000I-140000J0D01*
G01*
X158580000Y-107510000D01*
G75*
G02*
X158440000Y-107370000I0J140000D01*
G01*
G37*
G04 #@! TD*
G04 #@! TO.C,C25*
G36*
G01*
X134025000Y-107950000D02*
X134025000Y-107450000D01*
G75*
G02*
X134250000Y-107225000I225000J0D01*
G01*
X134700000Y-107225000D01*
G75*
G02*
X134925000Y-107450000I0J-225000D01*
G01*
X134925000Y-107950000D01*
G75*
G02*
X134700000Y-108175000I-225000J0D01*
G01*
X134250000Y-108175000D01*
G75*
G02*
X134025000Y-107950000I0J225000D01*
G01*
G37*
G36*
G01*
X132475000Y-107950000D02*
X132475000Y-107450000D01*
G75*
G02*
X132700000Y-107225000I225000J0D01*
G01*
X133150000Y-107225000D01*
G75*
G02*
X133375000Y-107450000I0J-225000D01*
G01*
X133375000Y-107950000D01*
G75*
G02*
X133150000Y-108175000I-225000J0D01*
G01*
X132700000Y-108175000D01*
G75*
G02*
X132475000Y-107950000I0J225000D01*
G01*
G37*
G04 #@! TD*
G04 #@! TO.C,U1*
G36*
G01*
X143775000Y-78300000D02*
X143775000Y-78000000D01*
G75*
G02*
X143925000Y-77850000I150000J0D01*
G01*
X144950000Y-77850000D01*
G75*
G02*
X145100000Y-78000000I0J-150000D01*
G01*
X145100000Y-78300000D01*
G75*
G02*
X144950000Y-78450000I-150000J0D01*
G01*
X143925000Y-78450000D01*
G75*
G02*
X143775000Y-78300000I0J150000D01*
G01*
G37*
G36*
G01*
X143775000Y-80200000D02*
X143775000Y-79900000D01*
G75*
G02*
X143925000Y-79750000I150000J0D01*
G01*
X144950000Y-79750000D01*
G75*
G02*
X145100000Y-79900000I0J-150000D01*
G01*
X145100000Y-80200000D01*
G75*
G02*
X144950000Y-80350000I-150000J0D01*
G01*
X143925000Y-80350000D01*
G75*
G02*
X143775000Y-80200000I0J150000D01*
G01*
G37*
G36*
G01*
X141500000Y-80200000D02*
X141500000Y-79900000D01*
G75*
G02*
X141650000Y-79750000I150000J0D01*
G01*
X142675000Y-79750000D01*
G75*
G02*
X142825000Y-79900000I0J-150000D01*
G01*
X142825000Y-80200000D01*
G75*
G02*
X142675000Y-80350000I-150000J0D01*
G01*
X141650000Y-80350000D01*
G75*
G02*
X141500000Y-80200000I0J150000D01*
G01*
G37*
G36*
G01*
X141500000Y-79250000D02*
X141500000Y-78950000D01*
G75*
G02*
X141650000Y-78800000I150000J0D01*
G01*
X142675000Y-78800000D01*
G75*
G02*
X142825000Y-78950000I0J-150000D01*
G01*
X142825000Y-79250000D01*
G75*
G02*
X142675000Y-79400000I-150000J0D01*
G01*
X141650000Y-79400000D01*
G75*
G02*
X141500000Y-79250000I0J150000D01*
G01*
G37*
G36*
G01*
X141500000Y-78300000D02*
X141500000Y-78000000D01*
G75*
G02*
X141650000Y-77850000I150000J0D01*
G01*
X142675000Y-77850000D01*
G75*
G02*
X142825000Y-78000000I0J-150000D01*
G01*
X142825000Y-78300000D01*
G75*
G02*
X142675000Y-78450000I-150000J0D01*
G01*
X141650000Y-78450000D01*
G75*
G02*
X141500000Y-78300000I0J150000D01*
G01*
G37*
G04 #@! TD*
G04 #@! TO.C,C67*
G36*
G01*
X129620000Y-89800000D02*
X129280000Y-89800000D01*
G75*
G02*
X129140000Y-89660000I0J140000D01*
G01*
X129140000Y-89380000D01*
G75*
G02*
X129280000Y-89240000I140000J0D01*
G01*
X129620000Y-89240000D01*
G75*
G02*
X129760000Y-89380000I0J-140000D01*
G01*
X129760000Y-89660000D01*
G75*
G02*
X129620000Y-89800000I-140000J0D01*
G01*
G37*
G36*
G01*
X129620000Y-90760000D02*
X129280000Y-90760000D01*
G75*
G02*
X129140000Y-90620000I0J140000D01*
G01*
X129140000Y-90340000D01*
G75*
G02*
X129280000Y-90200000I140000J0D01*
G01*
X129620000Y-90200000D01*
G75*
G02*
X129760000Y-90340000I0J-140000D01*
G01*
X129760000Y-90620000D01*
G75*
G02*
X129620000Y-90760000I-140000J0D01*
G01*
G37*
G04 #@! TD*
D15*
G04 #@! TO.C,H1*
X164900000Y-117500000D03*
G04 #@! TD*
G04 #@! TO.C,C12*
G36*
G01*
X140050000Y-79625000D02*
X140550000Y-79625000D01*
G75*
G02*
X140775000Y-79850000I0J-225000D01*
G01*
X140775000Y-80300000D01*
G75*
G02*
X140550000Y-80525000I-225000J0D01*
G01*
X140050000Y-80525000D01*
G75*
G02*
X139825000Y-80300000I0J225000D01*
G01*
X139825000Y-79850000D01*
G75*
G02*
X140050000Y-79625000I225000J0D01*
G01*
G37*
G36*
G01*
X140050000Y-78075000D02*
X140550000Y-78075000D01*
G75*
G02*
X140775000Y-78300000I0J-225000D01*
G01*
X140775000Y-78750000D01*
G75*
G02*
X140550000Y-78975000I-225000J0D01*
G01*
X140050000Y-78975000D01*
G75*
G02*
X139825000Y-78750000I0J225000D01*
G01*
X139825000Y-78300000D01*
G75*
G02*
X140050000Y-78075000I225000J0D01*
G01*
G37*
G04 #@! TD*
D16*
G04 #@! TO.C,J9*
X163900000Y-102300000D03*
X163900000Y-89800000D03*
X166600000Y-89800000D03*
X166600000Y-102300000D03*
X166600000Y-101300000D03*
X163900000Y-100800000D03*
X166600000Y-100300000D03*
X163900000Y-99800000D03*
X166600000Y-99300000D03*
X163900000Y-98800000D03*
X166600000Y-98300000D03*
X163900000Y-97800000D03*
X166600000Y-97300000D03*
X163900000Y-96800000D03*
X166600000Y-96300000D03*
X163900000Y-95800000D03*
X166600000Y-95300000D03*
X163900000Y-94800000D03*
X166600000Y-94300000D03*
X163900000Y-93800000D03*
X166600000Y-93300000D03*
X163900000Y-92800000D03*
X166600000Y-92300000D03*
X163900000Y-91800000D03*
X166600000Y-91300000D03*
X163900000Y-90800000D03*
G04 #@! TD*
G04 #@! TO.C,C39*
G36*
G01*
X152250000Y-111525000D02*
X152750000Y-111525000D01*
G75*
G02*
X152975000Y-111750000I0J-225000D01*
G01*
X152975000Y-112200000D01*
G75*
G02*
X152750000Y-112425000I-225000J0D01*
G01*
X152250000Y-112425000D01*
G75*
G02*
X152025000Y-112200000I0J225000D01*
G01*
X152025000Y-111750000D01*
G75*
G02*
X152250000Y-111525000I225000J0D01*
G01*
G37*
G36*
G01*
X152250000Y-109975000D02*
X152750000Y-109975000D01*
G75*
G02*
X152975000Y-110200000I0J-225000D01*
G01*
X152975000Y-110650000D01*
G75*
G02*
X152750000Y-110875000I-225000J0D01*
G01*
X152250000Y-110875000D01*
G75*
G02*
X152025000Y-110650000I0J225000D01*
G01*
X152025000Y-110200000D01*
G75*
G02*
X152250000Y-109975000I225000J0D01*
G01*
G37*
G04 #@! TD*
G04 #@! TO.C,C59*
G36*
G01*
X136170000Y-107750000D02*
X135830000Y-107750000D01*
G75*
G02*
X135690000Y-107610000I0J140000D01*
G01*
X135690000Y-107330000D01*
G75*
G02*
X135830000Y-107190000I140000J0D01*
G01*
X136170000Y-107190000D01*
G75*
G02*
X136310000Y-107330000I0J-140000D01*
G01*
X136310000Y-107610000D01*
G75*
G02*
X136170000Y-107750000I-140000J0D01*
G01*
G37*
G36*
G01*
X136170000Y-108710000D02*
X135830000Y-108710000D01*
G75*
G02*
X135690000Y-108570000I0J140000D01*
G01*
X135690000Y-108290000D01*
G75*
G02*
X135830000Y-108150000I140000J0D01*
G01*
X136170000Y-108150000D01*
G75*
G02*
X136310000Y-108290000I0J-140000D01*
G01*
X136310000Y-108570000D01*
G75*
G02*
X136170000Y-108710000I-140000J0D01*
G01*
G37*
G04 #@! TD*
G04 #@! TO.C,C73*
G36*
G01*
X148800000Y-118230000D02*
X148800000Y-118570000D01*
G75*
G02*
X148660000Y-118710000I-140000J0D01*
G01*
X148380000Y-118710000D01*
G75*
G02*
X148240000Y-118570000I0J140000D01*
G01*
X148240000Y-118230000D01*
G75*
G02*
X148380000Y-118090000I140000J0D01*
G01*
X148660000Y-118090000D01*
G75*
G02*
X148800000Y-118230000I0J-140000D01*
G01*
G37*
G36*
G01*
X149760000Y-118230000D02*
X149760000Y-118570000D01*
G75*
G02*
X149620000Y-118710000I-140000J0D01*
G01*
X149340000Y-118710000D01*
G75*
G02*
X149200000Y-118570000I0J140000D01*
G01*
X149200000Y-118230000D01*
G75*
G02*
X149340000Y-118090000I140000J0D01*
G01*
X149620000Y-118090000D01*
G75*
G02*
X149760000Y-118230000I0J-140000D01*
G01*
G37*
G04 #@! TD*
G04 #@! TO.C,C56*
G36*
G01*
X158600000Y-90930000D02*
X158600000Y-91270000D01*
G75*
G02*
X158460000Y-91410000I-140000J0D01*
G01*
X158180000Y-91410000D01*
G75*
G02*
X158040000Y-91270000I0J140000D01*
G01*
X158040000Y-90930000D01*
G75*
G02*
X158180000Y-90790000I140000J0D01*
G01*
X158460000Y-90790000D01*
G75*
G02*
X158600000Y-90930000I0J-140000D01*
G01*
G37*
G36*
G01*
X159560000Y-90930000D02*
X159560000Y-91270000D01*
G75*
G02*
X159420000Y-91410000I-140000J0D01*
G01*
X159140000Y-91410000D01*
G75*
G02*
X159000000Y-91270000I0J140000D01*
G01*
X159000000Y-90930000D01*
G75*
G02*
X159140000Y-90790000I140000J0D01*
G01*
X159420000Y-90790000D01*
G75*
G02*
X159560000Y-90930000I0J-140000D01*
G01*
G37*
G04 #@! TD*
G04 #@! TO.C,C65*
G36*
G01*
X153830000Y-87500000D02*
X154170000Y-87500000D01*
G75*
G02*
X154310000Y-87640000I0J-140000D01*
G01*
X154310000Y-87920000D01*
G75*
G02*
X154170000Y-88060000I-140000J0D01*
G01*
X153830000Y-88060000D01*
G75*
G02*
X153690000Y-87920000I0J140000D01*
G01*
X153690000Y-87640000D01*
G75*
G02*
X153830000Y-87500000I140000J0D01*
G01*
G37*
G36*
G01*
X153830000Y-86540000D02*
X154170000Y-86540000D01*
G75*
G02*
X154310000Y-86680000I0J-140000D01*
G01*
X154310000Y-86960000D01*
G75*
G02*
X154170000Y-87100000I-140000J0D01*
G01*
X153830000Y-87100000D01*
G75*
G02*
X153690000Y-86960000I0J140000D01*
G01*
X153690000Y-86680000D01*
G75*
G02*
X153830000Y-86540000I140000J0D01*
G01*
G37*
G04 #@! TD*
G04 #@! TO.C,C20*
G36*
G01*
X156100000Y-96930000D02*
X156100000Y-97270000D01*
G75*
G02*
X155960000Y-97410000I-140000J0D01*
G01*
X155680000Y-97410000D01*
G75*
G02*
X155540000Y-97270000I0J140000D01*
G01*
X155540000Y-96930000D01*
G75*
G02*
X155680000Y-96790000I140000J0D01*
G01*
X155960000Y-96790000D01*
G75*
G02*
X156100000Y-96930000I0J-140000D01*
G01*
G37*
G36*
G01*
X157060000Y-96930000D02*
X157060000Y-97270000D01*
G75*
G02*
X156920000Y-97410000I-140000J0D01*
G01*
X156640000Y-97410000D01*
G75*
G02*
X156500000Y-97270000I0J140000D01*
G01*
X156500000Y-96930000D01*
G75*
G02*
X156640000Y-96790000I140000J0D01*
G01*
X156920000Y-96790000D01*
G75*
G02*
X157060000Y-96930000I0J-140000D01*
G01*
G37*
G04 #@! TD*
G04 #@! TO.C,C26*
G36*
G01*
X137250000Y-111225000D02*
X137750000Y-111225000D01*
G75*
G02*
X137975000Y-111450000I0J-225000D01*
G01*
X137975000Y-111900000D01*
G75*
G02*
X137750000Y-112125000I-225000J0D01*
G01*
X137250000Y-112125000D01*
G75*
G02*
X137025000Y-111900000I0J225000D01*
G01*
X137025000Y-111450000D01*
G75*
G02*
X137250000Y-111225000I225000J0D01*
G01*
G37*
G36*
G01*
X137250000Y-109675000D02*
X137750000Y-109675000D01*
G75*
G02*
X137975000Y-109900000I0J-225000D01*
G01*
X137975000Y-110350000D01*
G75*
G02*
X137750000Y-110575000I-225000J0D01*
G01*
X137250000Y-110575000D01*
G75*
G02*
X137025000Y-110350000I0J225000D01*
G01*
X137025000Y-109900000D01*
G75*
G02*
X137250000Y-109675000I225000J0D01*
G01*
G37*
G04 #@! TD*
G04 #@! TO.C,C64*
G36*
G01*
X159000000Y-105930000D02*
X159000000Y-106270000D01*
G75*
G02*
X158860000Y-106410000I-140000J0D01*
G01*
X158580000Y-106410000D01*
G75*
G02*
X158440000Y-106270000I0J140000D01*
G01*
X158440000Y-105930000D01*
G75*
G02*
X158580000Y-105790000I140000J0D01*
G01*
X158860000Y-105790000D01*
G75*
G02*
X159000000Y-105930000I0J-140000D01*
G01*
G37*
G36*
G01*
X159960000Y-105930000D02*
X159960000Y-106270000D01*
G75*
G02*
X159820000Y-106410000I-140000J0D01*
G01*
X159540000Y-106410000D01*
G75*
G02*
X159400000Y-106270000I0J140000D01*
G01*
X159400000Y-105930000D01*
G75*
G02*
X159540000Y-105790000I140000J0D01*
G01*
X159820000Y-105790000D01*
G75*
G02*
X159960000Y-105930000I0J-140000D01*
G01*
G37*
G04 #@! TD*
G04 #@! TO.C,C30*
G36*
G01*
X156100000Y-98730000D02*
X156100000Y-99070000D01*
G75*
G02*
X155960000Y-99210000I-140000J0D01*
G01*
X155680000Y-99210000D01*
G75*
G02*
X155540000Y-99070000I0J140000D01*
G01*
X155540000Y-98730000D01*
G75*
G02*
X155680000Y-98590000I140000J0D01*
G01*
X155960000Y-98590000D01*
G75*
G02*
X156100000Y-98730000I0J-140000D01*
G01*
G37*
G36*
G01*
X157060000Y-98730000D02*
X157060000Y-99070000D01*
G75*
G02*
X156920000Y-99210000I-140000J0D01*
G01*
X156640000Y-99210000D01*
G75*
G02*
X156500000Y-99070000I0J140000D01*
G01*
X156500000Y-98730000D01*
G75*
G02*
X156640000Y-98590000I140000J0D01*
G01*
X156920000Y-98590000D01*
G75*
G02*
X157060000Y-98730000I0J-140000D01*
G01*
G37*
G04 #@! TD*
G04 #@! TO.C,C19*
G36*
G01*
X134025000Y-87250000D02*
X134025000Y-86750000D01*
G75*
G02*
X134250000Y-86525000I225000J0D01*
G01*
X134700000Y-86525000D01*
G75*
G02*
X134925000Y-86750000I0J-225000D01*
G01*
X134925000Y-87250000D01*
G75*
G02*
X134700000Y-87475000I-225000J0D01*
G01*
X134250000Y-87475000D01*
G75*
G02*
X134025000Y-87250000I0J225000D01*
G01*
G37*
G36*
G01*
X132475000Y-87250000D02*
X132475000Y-86750000D01*
G75*
G02*
X132700000Y-86525000I225000J0D01*
G01*
X133150000Y-86525000D01*
G75*
G02*
X133375000Y-86750000I0J-225000D01*
G01*
X133375000Y-87250000D01*
G75*
G02*
X133150000Y-87475000I-225000J0D01*
G01*
X132700000Y-87475000D01*
G75*
G02*
X132475000Y-87250000I0J225000D01*
G01*
G37*
G04 #@! TD*
G04 #@! TO.C,C9*
G36*
G01*
X132830000Y-103600000D02*
X133170000Y-103600000D01*
G75*
G02*
X133310000Y-103740000I0J-140000D01*
G01*
X133310000Y-104020000D01*
G75*
G02*
X133170000Y-104160000I-140000J0D01*
G01*
X132830000Y-104160000D01*
G75*
G02*
X132690000Y-104020000I0J140000D01*
G01*
X132690000Y-103740000D01*
G75*
G02*
X132830000Y-103600000I140000J0D01*
G01*
G37*
G36*
G01*
X132830000Y-102640000D02*
X133170000Y-102640000D01*
G75*
G02*
X133310000Y-102780000I0J-140000D01*
G01*
X133310000Y-103060000D01*
G75*
G02*
X133170000Y-103200000I-140000J0D01*
G01*
X132830000Y-103200000D01*
G75*
G02*
X132690000Y-103060000I0J140000D01*
G01*
X132690000Y-102780000D01*
G75*
G02*
X132830000Y-102640000I140000J0D01*
G01*
G37*
G04 #@! TD*
G04 #@! TO.C,C51*
G36*
G01*
X156100000Y-95130000D02*
X156100000Y-95470000D01*
G75*
G02*
X155960000Y-95610000I-140000J0D01*
G01*
X155680000Y-95610000D01*
G75*
G02*
X155540000Y-95470000I0J140000D01*
G01*
X155540000Y-95130000D01*
G75*
G02*
X155680000Y-94990000I140000J0D01*
G01*
X155960000Y-94990000D01*
G75*
G02*
X156100000Y-95130000I0J-140000D01*
G01*
G37*
G36*
G01*
X157060000Y-95130000D02*
X157060000Y-95470000D01*
G75*
G02*
X156920000Y-95610000I-140000J0D01*
G01*
X156640000Y-95610000D01*
G75*
G02*
X156500000Y-95470000I0J140000D01*
G01*
X156500000Y-95130000D01*
G75*
G02*
X156640000Y-94990000I140000J0D01*
G01*
X156920000Y-94990000D01*
G75*
G02*
X157060000Y-95130000I0J-140000D01*
G01*
G37*
G04 #@! TD*
G04 #@! TO.C,C3*
G36*
G01*
X133538371Y-90021213D02*
X133778787Y-90261629D01*
G75*
G02*
X133778787Y-90459619I-98995J-98995D01*
G01*
X133580797Y-90657609D01*
G75*
G02*
X133382807Y-90657609I-98995J98995D01*
G01*
X133142391Y-90417193D01*
G75*
G02*
X133142391Y-90219203I98995J98995D01*
G01*
X133340381Y-90021213D01*
G75*
G02*
X133538371Y-90021213I98995J-98995D01*
G01*
G37*
G36*
G01*
X134217193Y-89342391D02*
X134457609Y-89582807D01*
G75*
G02*
X134457609Y-89780797I-98995J-98995D01*
G01*
X134259619Y-89978787D01*
G75*
G02*
X134061629Y-89978787I-98995J98995D01*
G01*
X133821213Y-89738371D01*
G75*
G02*
X133821213Y-89540381I98995J98995D01*
G01*
X134019203Y-89342391D01*
G75*
G02*
X134217193Y-89342391I98995J-98995D01*
G01*
G37*
G04 #@! TD*
D13*
G04 #@! TO.C,TP4*
X128200000Y-85600000D03*
G04 #@! TD*
G04 #@! TO.C,R2*
G36*
G01*
X156240000Y-102985000D02*
X156240000Y-102615000D01*
G75*
G02*
X156375000Y-102480000I135000J0D01*
G01*
X156645000Y-102480000D01*
G75*
G02*
X156780000Y-102615000I0J-135000D01*
G01*
X156780000Y-102985000D01*
G75*
G02*
X156645000Y-103120000I-135000J0D01*
G01*
X156375000Y-103120000D01*
G75*
G02*
X156240000Y-102985000I0J135000D01*
G01*
G37*
G36*
G01*
X155220000Y-102985000D02*
X155220000Y-102615000D01*
G75*
G02*
X155355000Y-102480000I135000J0D01*
G01*
X155625000Y-102480000D01*
G75*
G02*
X155760000Y-102615000I0J-135000D01*
G01*
X155760000Y-102985000D01*
G75*
G02*
X155625000Y-103120000I-135000J0D01*
G01*
X155355000Y-103120000D01*
G75*
G02*
X155220000Y-102985000I0J135000D01*
G01*
G37*
G04 #@! TD*
D15*
G04 #@! TO.C,H2*
X165000000Y-77500000D03*
G04 #@! TD*
G04 #@! TO.C,H4*
X125000000Y-117500000D03*
G04 #@! TD*
G04 #@! TO.C,C71*
G36*
G01*
X155000000Y-113470000D02*
X155000000Y-113130000D01*
G75*
G02*
X155140000Y-112990000I140000J0D01*
G01*
X155420000Y-112990000D01*
G75*
G02*
X155560000Y-113130000I0J-140000D01*
G01*
X155560000Y-113470000D01*
G75*
G02*
X155420000Y-113610000I-140000J0D01*
G01*
X155140000Y-113610000D01*
G75*
G02*
X155000000Y-113470000I0J140000D01*
G01*
G37*
G36*
G01*
X154040000Y-113470000D02*
X154040000Y-113130000D01*
G75*
G02*
X154180000Y-112990000I140000J0D01*
G01*
X154460000Y-112990000D01*
G75*
G02*
X154600000Y-113130000I0J-140000D01*
G01*
X154600000Y-113470000D01*
G75*
G02*
X154460000Y-113610000I-140000J0D01*
G01*
X154180000Y-113610000D01*
G75*
G02*
X154040000Y-113470000I0J140000D01*
G01*
G37*
G04 #@! TD*
D13*
G04 #@! TO.C,TP10*
X148350000Y-110900000D03*
G04 #@! TD*
D17*
G04 #@! TO.C,U7*
X155350001Y-117371600D03*
X154850000Y-117371600D03*
X154350000Y-117371600D03*
X153849999Y-117371600D03*
X153849999Y-114628400D03*
X154350000Y-114628400D03*
X154850000Y-114628400D03*
X155350001Y-114628400D03*
G04 #@! TD*
G04 #@! TO.C,C8*
G36*
G01*
X133170000Y-88500000D02*
X132830000Y-88500000D01*
G75*
G02*
X132690000Y-88360000I0J140000D01*
G01*
X132690000Y-88080000D01*
G75*
G02*
X132830000Y-87940000I140000J0D01*
G01*
X133170000Y-87940000D01*
G75*
G02*
X133310000Y-88080000I0J-140000D01*
G01*
X133310000Y-88360000D01*
G75*
G02*
X133170000Y-88500000I-140000J0D01*
G01*
G37*
G36*
G01*
X133170000Y-89460000D02*
X132830000Y-89460000D01*
G75*
G02*
X132690000Y-89320000I0J140000D01*
G01*
X132690000Y-89040000D01*
G75*
G02*
X132830000Y-88900000I140000J0D01*
G01*
X133170000Y-88900000D01*
G75*
G02*
X133310000Y-89040000I0J-140000D01*
G01*
X133310000Y-89320000D01*
G75*
G02*
X133170000Y-89460000I-140000J0D01*
G01*
G37*
G04 #@! TD*
D11*
G04 #@! TO.C,FL1*
X162000000Y-91540000D03*
X162500000Y-91540000D03*
X162500000Y-91060000D03*
X162000000Y-91060000D03*
G04 #@! TD*
G04 #@! TO.C,C27*
G36*
G01*
X133830000Y-111100000D02*
X134170000Y-111100000D01*
G75*
G02*
X134310000Y-111240000I0J-140000D01*
G01*
X134310000Y-111520000D01*
G75*
G02*
X134170000Y-111660000I-140000J0D01*
G01*
X133830000Y-111660000D01*
G75*
G02*
X133690000Y-111520000I0J140000D01*
G01*
X133690000Y-111240000D01*
G75*
G02*
X133830000Y-111100000I140000J0D01*
G01*
G37*
G36*
G01*
X133830000Y-110140000D02*
X134170000Y-110140000D01*
G75*
G02*
X134310000Y-110280000I0J-140000D01*
G01*
X134310000Y-110560000D01*
G75*
G02*
X134170000Y-110700000I-140000J0D01*
G01*
X133830000Y-110700000D01*
G75*
G02*
X133690000Y-110560000I0J140000D01*
G01*
X133690000Y-110280000D01*
G75*
G02*
X133830000Y-110140000I140000J0D01*
G01*
G37*
G04 #@! TD*
D18*
G04 #@! TO.C,C11*
X128200000Y-88700000D03*
D19*
X127800000Y-87900000D03*
X128600000Y-87900000D03*
D18*
X128200000Y-87100000D03*
G04 #@! TD*
G04 #@! TO.C,R8*
G36*
G01*
X149315000Y-110140000D02*
X149685000Y-110140000D01*
G75*
G02*
X149820000Y-110275000I0J-135000D01*
G01*
X149820000Y-110545000D01*
G75*
G02*
X149685000Y-110680000I-135000J0D01*
G01*
X149315000Y-110680000D01*
G75*
G02*
X149180000Y-110545000I0J135000D01*
G01*
X149180000Y-110275000D01*
G75*
G02*
X149315000Y-110140000I135000J0D01*
G01*
G37*
G36*
G01*
X149315000Y-109120000D02*
X149685000Y-109120000D01*
G75*
G02*
X149820000Y-109255000I0J-135000D01*
G01*
X149820000Y-109525000D01*
G75*
G02*
X149685000Y-109660000I-135000J0D01*
G01*
X149315000Y-109660000D01*
G75*
G02*
X149180000Y-109525000I0J135000D01*
G01*
X149180000Y-109255000D01*
G75*
G02*
X149315000Y-109120000I135000J0D01*
G01*
G37*
G04 #@! TD*
G04 #@! TO.C,C48*
G36*
G01*
X155875000Y-105450000D02*
X155875000Y-105950000D01*
G75*
G02*
X155650000Y-106175000I-225000J0D01*
G01*
X155200000Y-106175000D01*
G75*
G02*
X154975000Y-105950000I0J225000D01*
G01*
X154975000Y-105450000D01*
G75*
G02*
X155200000Y-105225000I225000J0D01*
G01*
X155650000Y-105225000D01*
G75*
G02*
X155875000Y-105450000I0J-225000D01*
G01*
G37*
G36*
G01*
X157425000Y-105450000D02*
X157425000Y-105950000D01*
G75*
G02*
X157200000Y-106175000I-225000J0D01*
G01*
X156750000Y-106175000D01*
G75*
G02*
X156525000Y-105950000I0J225000D01*
G01*
X156525000Y-105450000D01*
G75*
G02*
X156750000Y-105225000I225000J0D01*
G01*
X157200000Y-105225000D01*
G75*
G02*
X157425000Y-105450000I0J-225000D01*
G01*
G37*
G04 #@! TD*
D11*
G04 #@! TO.C,FL3*
X162000000Y-94540000D03*
X162500000Y-94540000D03*
X162500000Y-94060000D03*
X162000000Y-94060000D03*
G04 #@! TD*
G04 #@! TO.C,J3*
G36*
G01*
X130050000Y-115375000D02*
X130600000Y-115375000D01*
G75*
G02*
X130850000Y-115625000I0J-250000D01*
G01*
X130850000Y-117325000D01*
G75*
G02*
X130600000Y-117575000I-250000J0D01*
G01*
X130050000Y-117575000D01*
G75*
G02*
X129800000Y-117325000I0J250000D01*
G01*
X129800000Y-115625000D01*
G75*
G02*
X130050000Y-115375000I250000J0D01*
G01*
G37*
G36*
G01*
X133000000Y-115375000D02*
X133550000Y-115375000D01*
G75*
G02*
X133800000Y-115625000I0J-250000D01*
G01*
X133800000Y-117325000D01*
G75*
G02*
X133550000Y-117575000I-250000J0D01*
G01*
X133000000Y-117575000D01*
G75*
G02*
X132750000Y-117325000I0J250000D01*
G01*
X132750000Y-115625000D01*
G75*
G02*
X133000000Y-115375000I250000J0D01*
G01*
G37*
G36*
G01*
X131550000Y-114425000D02*
X132050000Y-114425000D01*
G75*
G02*
X132300000Y-114675000I0J-250000D01*
G01*
X132300000Y-115225000D01*
G75*
G02*
X132050000Y-115475000I-250000J0D01*
G01*
X131550000Y-115475000D01*
G75*
G02*
X131300000Y-115225000I0J250000D01*
G01*
X131300000Y-114675000D01*
G75*
G02*
X131550000Y-114425000I250000J0D01*
G01*
G37*
G04 #@! TD*
G04 #@! TO.C,C34*
G36*
G01*
X156500000Y-98170000D02*
X156500000Y-97830000D01*
G75*
G02*
X156640000Y-97690000I140000J0D01*
G01*
X156920000Y-97690000D01*
G75*
G02*
X157060000Y-97830000I0J-140000D01*
G01*
X157060000Y-98170000D01*
G75*
G02*
X156920000Y-98310000I-140000J0D01*
G01*
X156640000Y-98310000D01*
G75*
G02*
X156500000Y-98170000I0J140000D01*
G01*
G37*
G36*
G01*
X155540000Y-98170000D02*
X155540000Y-97830000D01*
G75*
G02*
X155680000Y-97690000I140000J0D01*
G01*
X155960000Y-97690000D01*
G75*
G02*
X156100000Y-97830000I0J-140000D01*
G01*
X156100000Y-98170000D01*
G75*
G02*
X155960000Y-98310000I-140000J0D01*
G01*
X155680000Y-98310000D01*
G75*
G02*
X155540000Y-98170000I0J140000D01*
G01*
G37*
G04 #@! TD*
G04 #@! TO.C,C40*
G36*
G01*
X156100000Y-100530000D02*
X156100000Y-100870000D01*
G75*
G02*
X155960000Y-101010000I-140000J0D01*
G01*
X155680000Y-101010000D01*
G75*
G02*
X155540000Y-100870000I0J140000D01*
G01*
X155540000Y-100530000D01*
G75*
G02*
X155680000Y-100390000I140000J0D01*
G01*
X155960000Y-100390000D01*
G75*
G02*
X156100000Y-100530000I0J-140000D01*
G01*
G37*
G36*
G01*
X157060000Y-100530000D02*
X157060000Y-100870000D01*
G75*
G02*
X156920000Y-101010000I-140000J0D01*
G01*
X156640000Y-101010000D01*
G75*
G02*
X156500000Y-100870000I0J140000D01*
G01*
X156500000Y-100530000D01*
G75*
G02*
X156640000Y-100390000I140000J0D01*
G01*
X156920000Y-100390000D01*
G75*
G02*
X157060000Y-100530000I0J-140000D01*
G01*
G37*
G04 #@! TD*
D13*
G04 #@! TO.C,TP1*
X138800000Y-80350000D03*
G04 #@! TD*
G04 #@! TO.C,C33*
G36*
G01*
X155270000Y-111000000D02*
X154930000Y-111000000D01*
G75*
G02*
X154790000Y-110860000I0J140000D01*
G01*
X154790000Y-110580000D01*
G75*
G02*
X154930000Y-110440000I140000J0D01*
G01*
X155270000Y-110440000D01*
G75*
G02*
X155410000Y-110580000I0J-140000D01*
G01*
X155410000Y-110860000D01*
G75*
G02*
X155270000Y-111000000I-140000J0D01*
G01*
G37*
G36*
G01*
X155270000Y-111960000D02*
X154930000Y-111960000D01*
G75*
G02*
X154790000Y-111820000I0J140000D01*
G01*
X154790000Y-111540000D01*
G75*
G02*
X154930000Y-111400000I140000J0D01*
G01*
X155270000Y-111400000D01*
G75*
G02*
X155410000Y-111540000I0J-140000D01*
G01*
X155410000Y-111820000D01*
G75*
G02*
X155270000Y-111960000I-140000J0D01*
G01*
G37*
G04 #@! TD*
D20*
G04 #@! TO.C,U4*
X129000000Y-93000000D03*
G36*
G01*
X128062500Y-92200000D02*
X127937500Y-92200000D01*
G75*
G02*
X127875000Y-92137500I0J62500D01*
G01*
X127875000Y-91437500D01*
G75*
G02*
X127937500Y-91375000I62500J0D01*
G01*
X128062500Y-91375000D01*
G75*
G02*
X128125000Y-91437500I0J-62500D01*
G01*
X128125000Y-92137500D01*
G75*
G02*
X128062500Y-92200000I-62500J0D01*
G01*
G37*
G36*
G01*
X128562500Y-92200000D02*
X128437500Y-92200000D01*
G75*
G02*
X128375000Y-92137500I0J62500D01*
G01*
X128375000Y-91437500D01*
G75*
G02*
X128437500Y-91375000I62500J0D01*
G01*
X128562500Y-91375000D01*
G75*
G02*
X128625000Y-91437500I0J-62500D01*
G01*
X128625000Y-92137500D01*
G75*
G02*
X128562500Y-92200000I-62500J0D01*
G01*
G37*
G36*
G01*
X129062500Y-92200000D02*
X128937500Y-92200000D01*
G75*
G02*
X128875000Y-92137500I0J62500D01*
G01*
X128875000Y-91437500D01*
G75*
G02*
X128937500Y-91375000I62500J0D01*
G01*
X129062500Y-91375000D01*
G75*
G02*
X129125000Y-91437500I0J-62500D01*
G01*
X129125000Y-92137500D01*
G75*
G02*
X129062500Y-92200000I-62500J0D01*
G01*
G37*
G36*
G01*
X129562500Y-92200000D02*
X129437500Y-92200000D01*
G75*
G02*
X129375000Y-92137500I0J62500D01*
G01*
X129375000Y-91437500D01*
G75*
G02*
X129437500Y-91375000I62500J0D01*
G01*
X129562500Y-91375000D01*
G75*
G02*
X129625000Y-91437500I0J-62500D01*
G01*
X129625000Y-92137500D01*
G75*
G02*
X129562500Y-92200000I-62500J0D01*
G01*
G37*
G36*
G01*
X130062500Y-92200000D02*
X129937500Y-92200000D01*
G75*
G02*
X129875000Y-92137500I0J62500D01*
G01*
X129875000Y-91437500D01*
G75*
G02*
X129937500Y-91375000I62500J0D01*
G01*
X130062500Y-91375000D01*
G75*
G02*
X130125000Y-91437500I0J-62500D01*
G01*
X130125000Y-92137500D01*
G75*
G02*
X130062500Y-92200000I-62500J0D01*
G01*
G37*
G36*
G01*
X130062500Y-94625000D02*
X129937500Y-94625000D01*
G75*
G02*
X129875000Y-94562500I0J62500D01*
G01*
X129875000Y-93862500D01*
G75*
G02*
X129937500Y-93800000I62500J0D01*
G01*
X130062500Y-93800000D01*
G75*
G02*
X130125000Y-93862500I0J-62500D01*
G01*
X130125000Y-94562500D01*
G75*
G02*
X130062500Y-94625000I-62500J0D01*
G01*
G37*
G36*
G01*
X129562500Y-94625000D02*
X129437500Y-94625000D01*
G75*
G02*
X129375000Y-94562500I0J62500D01*
G01*
X129375000Y-93862500D01*
G75*
G02*
X129437500Y-93800000I62500J0D01*
G01*
X129562500Y-93800000D01*
G75*
G02*
X129625000Y-93862500I0J-62500D01*
G01*
X129625000Y-94562500D01*
G75*
G02*
X129562500Y-94625000I-62500J0D01*
G01*
G37*
G36*
G01*
X129062500Y-94625000D02*
X128937500Y-94625000D01*
G75*
G02*
X128875000Y-94562500I0J62500D01*
G01*
X128875000Y-93862500D01*
G75*
G02*
X128937500Y-93800000I62500J0D01*
G01*
X129062500Y-93800000D01*
G75*
G02*
X129125000Y-93862500I0J-62500D01*
G01*
X129125000Y-94562500D01*
G75*
G02*
X129062500Y-94625000I-62500J0D01*
G01*
G37*
G36*
G01*
X128562500Y-94625000D02*
X128437500Y-94625000D01*
G75*
G02*
X128375000Y-94562500I0J62500D01*
G01*
X128375000Y-93862500D01*
G75*
G02*
X128437500Y-93800000I62500J0D01*
G01*
X128562500Y-93800000D01*
G75*
G02*
X128625000Y-93862500I0J-62500D01*
G01*
X128625000Y-94562500D01*
G75*
G02*
X128562500Y-94625000I-62500J0D01*
G01*
G37*
G36*
G01*
X128062500Y-94625000D02*
X127937500Y-94625000D01*
G75*
G02*
X127875000Y-94562500I0J62500D01*
G01*
X127875000Y-93862500D01*
G75*
G02*
X127937500Y-93800000I62500J0D01*
G01*
X128062500Y-93800000D01*
G75*
G02*
X128125000Y-93862500I0J-62500D01*
G01*
X128125000Y-94562500D01*
G75*
G02*
X128062500Y-94625000I-62500J0D01*
G01*
G37*
G04 #@! TD*
G04 #@! TO.C,C57*
G36*
G01*
X135830000Y-87400000D02*
X136170000Y-87400000D01*
G75*
G02*
X136310000Y-87540000I0J-140000D01*
G01*
X136310000Y-87820000D01*
G75*
G02*
X136170000Y-87960000I-140000J0D01*
G01*
X135830000Y-87960000D01*
G75*
G02*
X135690000Y-87820000I0J140000D01*
G01*
X135690000Y-87540000D01*
G75*
G02*
X135830000Y-87400000I140000J0D01*
G01*
G37*
G36*
G01*
X135830000Y-86440000D02*
X136170000Y-86440000D01*
G75*
G02*
X136310000Y-86580000I0J-140000D01*
G01*
X136310000Y-86860000D01*
G75*
G02*
X136170000Y-87000000I-140000J0D01*
G01*
X135830000Y-87000000D01*
G75*
G02*
X135690000Y-86860000I0J140000D01*
G01*
X135690000Y-86580000D01*
G75*
G02*
X135830000Y-86440000I140000J0D01*
G01*
G37*
G04 #@! TD*
G04 #@! TO.C,FB1*
G36*
G01*
X158943750Y-79650000D02*
X159456250Y-79650000D01*
G75*
G02*
X159675000Y-79868750I0J-218750D01*
G01*
X159675000Y-80306250D01*
G75*
G02*
X159456250Y-80525000I-218750J0D01*
G01*
X158943750Y-80525000D01*
G75*
G02*
X158725000Y-80306250I0J218750D01*
G01*
X158725000Y-79868750D01*
G75*
G02*
X158943750Y-79650000I218750J0D01*
G01*
G37*
G36*
G01*
X158943750Y-78075000D02*
X159456250Y-78075000D01*
G75*
G02*
X159675000Y-78293750I0J-218750D01*
G01*
X159675000Y-78731250D01*
G75*
G02*
X159456250Y-78950000I-218750J0D01*
G01*
X158943750Y-78950000D01*
G75*
G02*
X158725000Y-78731250I0J218750D01*
G01*
X158725000Y-78293750D01*
G75*
G02*
X158943750Y-78075000I218750J0D01*
G01*
G37*
G04 #@! TD*
G04 #@! TO.C,C16*
G36*
G01*
X159300000Y-83330000D02*
X159300000Y-83670000D01*
G75*
G02*
X159160000Y-83810000I-140000J0D01*
G01*
X158880000Y-83810000D01*
G75*
G02*
X158740000Y-83670000I0J140000D01*
G01*
X158740000Y-83330000D01*
G75*
G02*
X158880000Y-83190000I140000J0D01*
G01*
X159160000Y-83190000D01*
G75*
G02*
X159300000Y-83330000I0J-140000D01*
G01*
G37*
G36*
G01*
X160260000Y-83330000D02*
X160260000Y-83670000D01*
G75*
G02*
X160120000Y-83810000I-140000J0D01*
G01*
X159840000Y-83810000D01*
G75*
G02*
X159700000Y-83670000I0J140000D01*
G01*
X159700000Y-83330000D01*
G75*
G02*
X159840000Y-83190000I140000J0D01*
G01*
X160120000Y-83190000D01*
G75*
G02*
X160260000Y-83330000I0J-140000D01*
G01*
G37*
G04 #@! TD*
G04 #@! TO.C,C72*
G36*
G01*
X154200000Y-118530000D02*
X154200000Y-118870000D01*
G75*
G02*
X154060000Y-119010000I-140000J0D01*
G01*
X153780000Y-119010000D01*
G75*
G02*
X153640000Y-118870000I0J140000D01*
G01*
X153640000Y-118530000D01*
G75*
G02*
X153780000Y-118390000I140000J0D01*
G01*
X154060000Y-118390000D01*
G75*
G02*
X154200000Y-118530000I0J-140000D01*
G01*
G37*
G36*
G01*
X155160000Y-118530000D02*
X155160000Y-118870000D01*
G75*
G02*
X155020000Y-119010000I-140000J0D01*
G01*
X154740000Y-119010000D01*
G75*
G02*
X154600000Y-118870000I0J140000D01*
G01*
X154600000Y-118530000D01*
G75*
G02*
X154740000Y-118390000I140000J0D01*
G01*
X155020000Y-118390000D01*
G75*
G02*
X155160000Y-118530000I0J-140000D01*
G01*
G37*
G04 #@! TD*
G04 #@! TO.C,JP1*
G36*
X152250000Y-86655089D02*
G01*
X152321157Y-86655089D01*
X152457708Y-86695184D01*
X152577430Y-86772125D01*
X152670627Y-86879680D01*
X152729746Y-87009134D01*
X152750000Y-87150000D01*
X152750000Y-87650000D01*
X152729746Y-87790866D01*
X152670627Y-87920320D01*
X152577430Y-88027875D01*
X152457708Y-88104816D01*
X152321157Y-88144911D01*
X152250000Y-88144911D01*
X152250000Y-88150000D01*
X151750000Y-88150000D01*
X151750000Y-86650000D01*
X152250000Y-86650000D01*
X152250000Y-86655089D01*
G37*
G36*
X151450000Y-88150000D02*
G01*
X150950000Y-88150000D01*
X150950000Y-88144911D01*
X150878843Y-88144911D01*
X150742292Y-88104816D01*
X150622570Y-88027875D01*
X150529373Y-87920320D01*
X150470254Y-87790866D01*
X150450000Y-87650000D01*
X150450000Y-87150000D01*
X150470254Y-87009134D01*
X150529373Y-86879680D01*
X150622570Y-86772125D01*
X150742292Y-86695184D01*
X150878843Y-86655089D01*
X150950000Y-86655089D01*
X150950000Y-86650000D01*
X151450000Y-86650000D01*
X151450000Y-88150000D01*
G37*
G04 #@! TD*
G04 #@! TO.C,C63*
G36*
G01*
X156500000Y-92770000D02*
X156500000Y-92430000D01*
G75*
G02*
X156640000Y-92290000I140000J0D01*
G01*
X156920000Y-92290000D01*
G75*
G02*
X157060000Y-92430000I0J-140000D01*
G01*
X157060000Y-92770000D01*
G75*
G02*
X156920000Y-92910000I-140000J0D01*
G01*
X156640000Y-92910000D01*
G75*
G02*
X156500000Y-92770000I0J140000D01*
G01*
G37*
G36*
G01*
X155540000Y-92770000D02*
X155540000Y-92430000D01*
G75*
G02*
X155680000Y-92290000I140000J0D01*
G01*
X155960000Y-92290000D01*
G75*
G02*
X156100000Y-92430000I0J-140000D01*
G01*
X156100000Y-92770000D01*
G75*
G02*
X155960000Y-92910000I-140000J0D01*
G01*
X155680000Y-92910000D01*
G75*
G02*
X155540000Y-92770000I0J140000D01*
G01*
G37*
G04 #@! TD*
G04 #@! TO.C,C58*
G36*
G01*
X154170000Y-83700000D02*
X153830000Y-83700000D01*
G75*
G02*
X153690000Y-83560000I0J140000D01*
G01*
X153690000Y-83280000D01*
G75*
G02*
X153830000Y-83140000I140000J0D01*
G01*
X154170000Y-83140000D01*
G75*
G02*
X154310000Y-83280000I0J-140000D01*
G01*
X154310000Y-83560000D01*
G75*
G02*
X154170000Y-83700000I-140000J0D01*
G01*
G37*
G36*
G01*
X154170000Y-84660000D02*
X153830000Y-84660000D01*
G75*
G02*
X153690000Y-84520000I0J140000D01*
G01*
X153690000Y-84240000D01*
G75*
G02*
X153830000Y-84100000I140000J0D01*
G01*
X154170000Y-84100000D01*
G75*
G02*
X154310000Y-84240000I0J-140000D01*
G01*
X154310000Y-84520000D01*
G75*
G02*
X154170000Y-84660000I-140000J0D01*
G01*
G37*
G04 #@! TD*
G04 #@! TO.C,C14*
G36*
G01*
X127075000Y-89950000D02*
X127075000Y-90450000D01*
G75*
G02*
X126850000Y-90675000I-225000J0D01*
G01*
X126400000Y-90675000D01*
G75*
G02*
X126175000Y-90450000I0J225000D01*
G01*
X126175000Y-89950000D01*
G75*
G02*
X126400000Y-89725000I225000J0D01*
G01*
X126850000Y-89725000D01*
G75*
G02*
X127075000Y-89950000I0J-225000D01*
G01*
G37*
G36*
G01*
X128625000Y-89950000D02*
X128625000Y-90450000D01*
G75*
G02*
X128400000Y-90675000I-225000J0D01*
G01*
X127950000Y-90675000D01*
G75*
G02*
X127725000Y-90450000I0J225000D01*
G01*
X127725000Y-89950000D01*
G75*
G02*
X127950000Y-89725000I225000J0D01*
G01*
X128400000Y-89725000D01*
G75*
G02*
X128625000Y-89950000I0J-225000D01*
G01*
G37*
G04 #@! TD*
G04 #@! TO.C,C15*
G36*
G01*
X146450000Y-78975000D02*
X145950000Y-78975000D01*
G75*
G02*
X145725000Y-78750000I0J225000D01*
G01*
X145725000Y-78300000D01*
G75*
G02*
X145950000Y-78075000I225000J0D01*
G01*
X146450000Y-78075000D01*
G75*
G02*
X146675000Y-78300000I0J-225000D01*
G01*
X146675000Y-78750000D01*
G75*
G02*
X146450000Y-78975000I-225000J0D01*
G01*
G37*
G36*
G01*
X146450000Y-80525000D02*
X145950000Y-80525000D01*
G75*
G02*
X145725000Y-80300000I0J225000D01*
G01*
X145725000Y-79850000D01*
G75*
G02*
X145950000Y-79625000I225000J0D01*
G01*
X146450000Y-79625000D01*
G75*
G02*
X146675000Y-79850000I0J-225000D01*
G01*
X146675000Y-80300000D01*
G75*
G02*
X146450000Y-80525000I-225000J0D01*
G01*
G37*
G04 #@! TD*
G04 #@! TO.C,C29*
G36*
G01*
X155930000Y-111400000D02*
X156270000Y-111400000D01*
G75*
G02*
X156410000Y-111540000I0J-140000D01*
G01*
X156410000Y-111820000D01*
G75*
G02*
X156270000Y-111960000I-140000J0D01*
G01*
X155930000Y-111960000D01*
G75*
G02*
X155790000Y-111820000I0J140000D01*
G01*
X155790000Y-111540000D01*
G75*
G02*
X155930000Y-111400000I140000J0D01*
G01*
G37*
G36*
G01*
X155930000Y-110440000D02*
X156270000Y-110440000D01*
G75*
G02*
X156410000Y-110580000I0J-140000D01*
G01*
X156410000Y-110860000D01*
G75*
G02*
X156270000Y-111000000I-140000J0D01*
G01*
X155930000Y-111000000D01*
G75*
G02*
X155790000Y-110860000I0J140000D01*
G01*
X155790000Y-110580000D01*
G75*
G02*
X155930000Y-110440000I140000J0D01*
G01*
G37*
G04 #@! TD*
G04 #@! TO.C,C23*
G36*
G01*
X155830000Y-84100000D02*
X156170000Y-84100000D01*
G75*
G02*
X156310000Y-84240000I0J-140000D01*
G01*
X156310000Y-84520000D01*
G75*
G02*
X156170000Y-84660000I-140000J0D01*
G01*
X155830000Y-84660000D01*
G75*
G02*
X155690000Y-84520000I0J140000D01*
G01*
X155690000Y-84240000D01*
G75*
G02*
X155830000Y-84100000I140000J0D01*
G01*
G37*
G36*
G01*
X155830000Y-83140000D02*
X156170000Y-83140000D01*
G75*
G02*
X156310000Y-83280000I0J-140000D01*
G01*
X156310000Y-83560000D01*
G75*
G02*
X156170000Y-83700000I-140000J0D01*
G01*
X155830000Y-83700000D01*
G75*
G02*
X155690000Y-83560000I0J140000D01*
G01*
X155690000Y-83280000D01*
G75*
G02*
X155830000Y-83140000I140000J0D01*
G01*
G37*
G04 #@! TD*
D11*
G04 #@! TO.C,FL5*
X162000000Y-97540000D03*
X162500000Y-97540000D03*
X162500000Y-97060000D03*
X162000000Y-97060000D03*
G04 #@! TD*
M02*
