M48
; DRILL file {KiCad (6.0.9)} date Tue May 21 19:31:50 2024
; FORMAT={-:-/ absolute / inch / decimal}
; #@! TF.CreationDate,2024-05-21T19:31:50-07:00
; #@! TF.GenerationSoftware,Kicad,Pcbnew,(6.0.9)
; #@! TF.FileFunction,Plated,1,4,PTH
FMAT,2
INCH
; #@! TA.AperFunction,Plated,PTH,ViaDrill
T1C0.0079
; #@! TA.AperFunction,Plated,PTH,ViaDrill
T2C0.0118
%
G90
G05
T1
X6.2579Y-3.6909
X6.2579Y-3.872
X6.2657Y-3.6713
X6.2697Y-3.8465
X6.2815Y-3.6909
X6.2815Y-3.872
X6.3268Y-3.8346
X6.3307Y-3.685
X6.3346Y-3.7126
X6.3346Y-3.7697
X6.3386Y-3.8976
X6.3482Y-3.8476
X6.3482Y-3.8713
X6.3583Y-3.7126
X6.3583Y-3.7697
X6.3858Y-3.7126
X6.3858Y-3.7717
T2
X4.9705Y-3.6358
X4.9705Y-3.6654
X4.9724Y-3.5374
X4.9724Y-3.5669
X4.9764Y-3.7008
X4.9764Y-3.7244
X4.9764Y-3.748
X5.0Y-3.6358
X5.0Y-3.6653
X5.002Y-3.5374
X5.002Y-3.5669
X5.002Y-3.7008
X5.002Y-3.7244
X5.002Y-3.748
X5.0161Y-3.8193
X5.0197Y-3.4626
X5.0236Y-3.6476
X5.0236Y-3.6732
X5.0315Y-3.4055
X5.0315Y-3.4311
X5.0335Y-3.5846
X5.0472Y-3.4626
X5.0492Y-3.6476
X5.0492Y-3.6752
X5.063Y-3.4055
X5.063Y-3.4311
X5.0748Y-3.4626
X5.0787Y-3.6476
X5.0787Y-3.6752
X5.0787Y-3.8189
X5.1457Y-3.6614
X5.1476Y-3.5965
X5.2244Y-4.1988
X5.2283Y-4.1575
X5.2362Y-3.4331
X5.2362Y-3.4685
X5.2362Y-3.5118
X5.2362Y-3.5709
X5.2362Y-3.6299
X5.2362Y-3.689
X5.2362Y-3.748
X5.2362Y-3.8071
X5.2362Y-3.8701
X5.2362Y-3.9291
X5.2362Y-4.0512
X5.2362Y-4.1024
X5.2362Y-4.2283
X5.2638Y-3.9528
X5.2795Y-3.3386
X5.2913Y-4.1576
X5.2953Y-3.2795
X5.2953Y-3.4567
X5.2953Y-3.5157
X5.2953Y-3.6299
X5.2953Y-3.6929
X5.2953Y-3.748
X5.2953Y-3.8091
X5.2953Y-3.8661
X5.2953Y-3.9843
X5.2953Y-4.2283
X5.2953Y-4.3425
X5.2953Y-4.4016
X5.2992Y-4.0984
X5.3071Y-3.3386
X5.311Y-3.5748
X5.3543Y-3.2795
X5.3543Y-3.3386
X5.3543Y-3.4528
X5.3543Y-4.2283
X5.3543Y-4.3386
X5.3543Y-4.4055
X5.4134Y-3.2756
X5.4134Y-3.3386
X5.4134Y-4.3386
X5.4134Y-4.4016
X5.4183Y-4.6339
X5.4469Y-3.1437
X5.4469Y-3.1752
X5.4469Y-3.2087
X5.4774Y-4.5717
X5.4774Y-4.613
X5.4803Y-3.1437
X5.4803Y-3.1752
X5.4803Y-3.2087
X5.5084Y-3.0778
X5.5084Y-3.1093
X5.5364Y-4.6339
X5.5472Y-3.0925
X5.5807Y-3.1161
X5.6122Y-3.1161
X5.6476Y-3.1161
X5.6496Y-3.2795
X5.6496Y-3.3386
X5.6496Y-4.3386
X5.6496Y-4.4016
X5.6673Y-3.0276
X5.6939Y-4.6339
X5.7087Y-3.3937
X5.7087Y-3.4429
X5.7087Y-4.2205
X5.7087Y-4.2669
X5.7087Y-4.3406
X5.7402Y-3.0807
X5.7402Y-3.1083
X5.749Y-4.5707
X5.75Y-4.612
X5.7697Y-3.0807
X5.7697Y-3.1083
X5.7815Y-3.0276
X5.8012Y-3.0748
X5.8012Y-3.1063
X5.8081Y-4.6339
X5.8307Y-3.0748
X5.8307Y-3.1063
X5.8858Y-4.3465
X5.8976Y-4.3976
X5.9134Y-4.3701
X5.9154Y-3.4252
X5.9291Y-4.3976
X5.9646Y-3.061
X5.9646Y-3.0906
X6.0Y-3.0778
X6.0039Y-3.2795
X6.0039Y-3.3346
X6.0039Y-4.3484
X6.0039Y-4.4055
X6.0315Y-4.252
X6.06Y-4.6821
X6.063Y-3.2756
X6.063Y-3.3346
X6.063Y-3.4567
X6.063Y-4.2244
X6.063Y-4.3386
X6.063Y-4.3976
X6.0976Y-4.6811
X6.1132Y-4.4685
X6.1181Y-3.4528
X6.1201Y-3.1004
X6.122Y-3.2756
X6.122Y-3.3346
X6.122Y-3.5748
X6.122Y-3.685
X6.122Y-3.748
X6.122Y-3.8071
X6.122Y-3.8701
X6.122Y-3.9291
X6.122Y-4.0472
X6.122Y-4.1024
X6.122Y-4.1614
X6.122Y-4.2205
X6.122Y-4.3425
X6.122Y-4.4016
X6.1535Y-3.1004
X6.1811Y-3.4528
X6.1811Y-3.5157
X6.1811Y-3.5709
X6.1811Y-3.689
X6.1811Y-3.748
X6.1811Y-3.8661
X6.1811Y-3.9291
X6.1811Y-4.1614
X6.1811Y-4.2205
X6.185Y-3.8071
X6.1909Y-3.064
X6.2008Y-3.6614
X6.2008Y-3.7205
X6.2008Y-3.7795
X6.2008Y-3.8386
X6.2008Y-4.4803
X6.2008Y-4.5197
X6.2067Y-3.0906
X6.2087Y-4.4449
X6.2126Y-3.6024
X6.2224Y-3.064
X6.2402Y-3.5138
X6.2402Y-3.5709
X6.2402Y-4.1614
X6.25Y-3.061
X6.25Y-3.0906
X6.2677Y-3.4291
X6.2677Y-3.4882
X6.2815Y-3.061
X6.2815Y-3.0906
X6.2953Y-4.2205
X6.2992Y-3.5079
X6.2992Y-3.5709
X6.2992Y-4.1614
X6.3209Y-4.4902
X6.3346Y-3.4291
X6.3346Y-3.5394
X6.3504Y-4.5236
X6.3898Y-4.3307
X6.4016Y-3.5591
X6.4016Y-3.5984
X6.4016Y-3.6339
X6.4203Y-3.2274
X6.4252Y-3.5118
X6.4449Y-3.9685
X6.4528Y-3.4843
X6.4528Y-3.5118
X6.4528Y-4.2126
X6.4528Y-4.252
X6.4685Y-4.3307
X6.4803Y-3.4843
X6.4803Y-3.5118
X6.4803Y-3.8898
X6.4803Y-3.9528
X6.4843Y-3.5984
X6.4843Y-3.6339
X6.4882Y-4.2126
X6.4882Y-4.252
X6.4921Y-3.7126
X6.4921Y-3.7717
X6.4921Y-3.815
X6.5079Y-3.4843
X6.5079Y-3.5118
X6.5945Y-3.3661
X6.5984Y-3.252
X6.5984Y-4.0157
X6.6024Y-3.4724
T0
M30
