G04 #@! TF.GenerationSoftware,KiCad,Pcbnew,8.0.4*
G04 #@! TF.CreationDate,2025-07-27T15:22:31-07:00*
G04 #@! TF.ProjectId,FourThirdsEye_Small,466f7572-5468-4697-9264-734579655f53,rev?*
G04 #@! TF.SameCoordinates,Original*
G04 #@! TF.FileFunction,Copper,L2,Inr*
G04 #@! TF.FilePolarity,Positive*
%FSLAX46Y46*%
G04 Gerber Fmt 4.6, Leading zero omitted, Abs format (unit mm)*
G04 Created by KiCad (PCBNEW 8.0.4) date 2025-07-27 15:22:31*
%MOMM*%
%LPD*%
G01*
G04 APERTURE LIST*
G04 #@! TA.AperFunction,ViaPad*
%ADD10C,0.450000*%
G04 #@! TD*
G04 #@! TA.AperFunction,ViaPad*
%ADD11C,0.350000*%
G04 #@! TD*
G04 APERTURE END LIST*
D10*
G04 #@! TO.N,GND*
X167200000Y-112400000D03*
X166400000Y-112500000D03*
X135700000Y-75500000D03*
X124500000Y-81600000D03*
X125200000Y-83700000D03*
G04 #@! TO.N,Net-(C1-Pad1)*
X132800000Y-105600000D03*
G04 #@! TO.N,GND*
X122000000Y-112400000D03*
X123800000Y-105300000D03*
X128150000Y-119000000D03*
X122000000Y-87400000D03*
X159600000Y-75600000D03*
X168000000Y-104200000D03*
X168000000Y-107800000D03*
X139150000Y-75300000D03*
X168000000Y-112200000D03*
X128800000Y-74650000D03*
X136200000Y-116400000D03*
X168000000Y-90900000D03*
X132825000Y-93700000D03*
X168000000Y-88200000D03*
X163550000Y-80600000D03*
X133032171Y-112737059D03*
X152300000Y-116500000D03*
X156100000Y-119650000D03*
X143100000Y-74650000D03*
X138000000Y-120450000D03*
X127000000Y-112200000D03*
X140700000Y-120450000D03*
X161300000Y-120450000D03*
X158950000Y-89250000D03*
X124000000Y-108400000D03*
X134100000Y-74650000D03*
X122000000Y-90000000D03*
X168000000Y-82700000D03*
X136900000Y-74650000D03*
X167100000Y-113200000D03*
X127300000Y-120450000D03*
X126300000Y-90600000D03*
X133350000Y-113550000D03*
X161000000Y-87800000D03*
X136700000Y-118900000D03*
X145800000Y-78900000D03*
X167300000Y-113900000D03*
X133900000Y-118900000D03*
X156600000Y-74650000D03*
X126250000Y-93100000D03*
X141600000Y-120450000D03*
X122842080Y-96765456D03*
X153200000Y-108000000D03*
X128700000Y-76100000D03*
X137350000Y-119550000D03*
X122613382Y-110089475D03*
X123800000Y-102400000D03*
X122688660Y-92850639D03*
X157100000Y-96700000D03*
X163900000Y-89800000D03*
X157500000Y-94500000D03*
X124800000Y-87500000D03*
X140300000Y-117400000D03*
X122000000Y-82900000D03*
X124453158Y-92422883D03*
X128350000Y-77950000D03*
X123490403Y-84405415D03*
X135000000Y-118900000D03*
X158994375Y-118548078D03*
X125500000Y-96000000D03*
X122000000Y-106200000D03*
X129399158Y-118053951D03*
X142950000Y-75300000D03*
X150250000Y-87000000D03*
X134050000Y-119700000D03*
X167300000Y-81500000D03*
X122000000Y-101700000D03*
X124667685Y-95871749D03*
X167300000Y-82400000D03*
X168000000Y-81000000D03*
X165100000Y-80950000D03*
X164800000Y-107000000D03*
X144350000Y-119750000D03*
X128000000Y-111300000D03*
X162800000Y-74650000D03*
X122800000Y-108700000D03*
X123600000Y-105900000D03*
X123300000Y-110400000D03*
X128817176Y-113034354D03*
X161800000Y-115500000D03*
X161900000Y-76100000D03*
X168000000Y-108700000D03*
X148570000Y-117450000D03*
X142300000Y-74650000D03*
X133000000Y-96700000D03*
X126955682Y-83373283D03*
X139912500Y-78900000D03*
X149150000Y-119800000D03*
X157000000Y-99400000D03*
X157500000Y-74650000D03*
X150800000Y-118800000D03*
X123336890Y-89210993D03*
X125675320Y-88764033D03*
X122800000Y-94300000D03*
X168000000Y-97100000D03*
X123500000Y-114200000D03*
X168000000Y-106900000D03*
X168000000Y-111300000D03*
X161700000Y-118800000D03*
X160600000Y-117800000D03*
X161650000Y-75400000D03*
X126300000Y-80700000D03*
X123200000Y-112000000D03*
X142700000Y-115300000D03*
X126300000Y-89850000D03*
X124600000Y-111600000D03*
X145000000Y-119550000D03*
X158600000Y-120450000D03*
X137538690Y-118797698D03*
X126800000Y-86100000D03*
X155450000Y-79100000D03*
X141400000Y-74650000D03*
X138500000Y-118900000D03*
X158250000Y-118800000D03*
X133000000Y-117500000D03*
X143738984Y-118885484D03*
X154000000Y-110750000D03*
X122000000Y-107100000D03*
X141500000Y-79100000D03*
X141300000Y-117600000D03*
X125600000Y-112500000D03*
X149400000Y-74650000D03*
X142300000Y-116000000D03*
X157250000Y-119600000D03*
X125700000Y-113200000D03*
X123697594Y-94703056D03*
X123621667Y-104398779D03*
X123200000Y-90400000D03*
X122000000Y-88200000D03*
X122600000Y-113700000D03*
X164600000Y-89800000D03*
X161000000Y-86500000D03*
X168000000Y-83600000D03*
X168000000Y-105100000D03*
X123800000Y-87800000D03*
X140000000Y-75700000D03*
X136000000Y-84800000D03*
X122000000Y-99800000D03*
X168000000Y-115650000D03*
X131000000Y-114200000D03*
X141450000Y-119650000D03*
X151250000Y-119700000D03*
X127500000Y-87900000D03*
X168000000Y-93500000D03*
X152300000Y-120450000D03*
X124100000Y-110000000D03*
X142676724Y-117090929D03*
X133700000Y-100400000D03*
X133200000Y-74650000D03*
X122982910Y-87265965D03*
D11*
X159250000Y-98750000D03*
D10*
X126800000Y-85100000D03*
X158400000Y-74650000D03*
X126999641Y-93099250D03*
X133000000Y-115500000D03*
X123987208Y-91567369D03*
X150700000Y-118100000D03*
X128150000Y-78850000D03*
X126300000Y-112500000D03*
X124400000Y-104700000D03*
X128500000Y-109500000D03*
X162650000Y-80650000D03*
X165600000Y-114000000D03*
X122900000Y-83300000D03*
X152500000Y-110250000D03*
X145800000Y-74650000D03*
X125300000Y-104500000D03*
X143500000Y-117200000D03*
X122000000Y-97200000D03*
X126650141Y-84189300D03*
X124300000Y-89100000D03*
X124600000Y-82600000D03*
X163500000Y-81400000D03*
X140200000Y-118900000D03*
X124000000Y-112400000D03*
X164000000Y-113200000D03*
X168000000Y-91800000D03*
X133000000Y-99800000D03*
X149600000Y-120450000D03*
X128800000Y-112400000D03*
X161700000Y-78400000D03*
X131950000Y-113650000D03*
X123000000Y-93500000D03*
X125700000Y-84300000D03*
X157300000Y-77825000D03*
X122800000Y-87900000D03*
X122800000Y-106400000D03*
X126683605Y-88733479D03*
X129100000Y-113600000D03*
X127000000Y-74650000D03*
X151700000Y-117800000D03*
X151700000Y-75350000D03*
X126467562Y-82650419D03*
X157800000Y-75700000D03*
X158700000Y-75350000D03*
X150300000Y-74650000D03*
X127900000Y-74650000D03*
X142500000Y-120450000D03*
X126500000Y-113300000D03*
X145800000Y-78100000D03*
X123400000Y-98600000D03*
X137300000Y-117400000D03*
X128640173Y-107805558D03*
X143800000Y-115500000D03*
X135300000Y-120450000D03*
X153200000Y-118800000D03*
X127300000Y-113800000D03*
X161100000Y-74650000D03*
X130100000Y-115100000D03*
X127624250Y-108256230D03*
X157600001Y-112874999D03*
X168000000Y-92600000D03*
X123650000Y-80800000D03*
X143600000Y-119600000D03*
X152800000Y-117900000D03*
X135050000Y-119750000D03*
D11*
X158200000Y-93000000D03*
D10*
X126000000Y-86600000D03*
D11*
X166600000Y-102300000D03*
D10*
X130000000Y-120450000D03*
X122900000Y-101700000D03*
D11*
X160300000Y-93000000D03*
D10*
X132700000Y-106650000D03*
X122800000Y-96000000D03*
X133000000Y-87200000D03*
X123600000Y-97400000D03*
D11*
X163900000Y-99800000D03*
D10*
X122000000Y-83800000D03*
X122000000Y-85600000D03*
X127400000Y-114950000D03*
X125311670Y-102016116D03*
X166550000Y-114150000D03*
X143300000Y-120450000D03*
X146600000Y-78900000D03*
X131300000Y-119750000D03*
X128700000Y-119550000D03*
X146000000Y-120450000D03*
X152100000Y-74650000D03*
X164250000Y-81200000D03*
X159500000Y-120450000D03*
X128900000Y-87900000D03*
X155800000Y-120450000D03*
X122800000Y-105200000D03*
X132200000Y-112900000D03*
X127121435Y-80180818D03*
X157000000Y-105700000D03*
X166550000Y-84550000D03*
X156800000Y-120450000D03*
X168000000Y-99800000D03*
X141800000Y-116800000D03*
X160200000Y-117000000D03*
X144500000Y-115000000D03*
X153800000Y-74650000D03*
X150500000Y-120450000D03*
X161000000Y-85400000D03*
X124700000Y-90900000D03*
X125300000Y-85600000D03*
X129750000Y-113000000D03*
X163200000Y-113600000D03*
X124500000Y-110600000D03*
X161150000Y-76350000D03*
X152364100Y-117177451D03*
X128400000Y-115900000D03*
X152600000Y-75400000D03*
X168000000Y-114000000D03*
X141200000Y-114900000D03*
X122000000Y-109700000D03*
X126500000Y-111600000D03*
X136200000Y-120450000D03*
X142000000Y-118900000D03*
X157000000Y-95200000D03*
X125200000Y-105500000D03*
X158100000Y-77825000D03*
X168000000Y-95300000D03*
X122700000Y-100500000D03*
X137100000Y-120450000D03*
X157000000Y-107200000D03*
X137700000Y-114900000D03*
X126700000Y-114350000D03*
X129500000Y-114500000D03*
X130650000Y-112882386D03*
X129600000Y-118800000D03*
X157000000Y-90700000D03*
X122000000Y-82000000D03*
X125000000Y-112400000D03*
X129000000Y-97000000D03*
X151500000Y-78900000D03*
X126188209Y-109867958D03*
X124900000Y-107400000D03*
X122600000Y-107700000D03*
X138300000Y-119800000D03*
X141000000Y-75350000D03*
X133800000Y-115600000D03*
X126900000Y-81700000D03*
X168000000Y-86400000D03*
X163100000Y-107000000D03*
X123500000Y-100800000D03*
X130156056Y-113625917D03*
X128500000Y-110700000D03*
X125997246Y-106728527D03*
X155250000Y-75500000D03*
X160400000Y-120450000D03*
X133050000Y-119400000D03*
X126900000Y-87000000D03*
X122750000Y-114750000D03*
X139800000Y-120450000D03*
X130450000Y-119300000D03*
X141100000Y-116600000D03*
D11*
X161700000Y-95400000D03*
D10*
X160650000Y-75350000D03*
X147800000Y-120450000D03*
X136800000Y-114900000D03*
X129900000Y-117200000D03*
X126000000Y-107400000D03*
X127600000Y-81000000D03*
X122700000Y-112700000D03*
X123300000Y-99700000D03*
X167300000Y-80050000D03*
X167250000Y-114700000D03*
X130600000Y-74650000D03*
D11*
X166600000Y-95300000D03*
D10*
X129093617Y-115173138D03*
X133000000Y-107400000D03*
X168000000Y-85400000D03*
X133000000Y-92200000D03*
X165100000Y-113200000D03*
X143900000Y-114800000D03*
X125350000Y-91550000D03*
X141900000Y-115500000D03*
X158500000Y-105700000D03*
X123700000Y-95600000D03*
X158200000Y-119600000D03*
X133500000Y-120450000D03*
X137500000Y-84800000D03*
X151200000Y-115300000D03*
X127900000Y-114400000D03*
X142850000Y-79100000D03*
X122000000Y-89100000D03*
X152500000Y-85200000D03*
X167200000Y-111600000D03*
X126250000Y-91550000D03*
X148150000Y-116900000D03*
X154900000Y-120450000D03*
X168000000Y-109500000D03*
X125000000Y-108400000D03*
X126100000Y-82000000D03*
X122000000Y-105300000D03*
X125300000Y-99100000D03*
X139600000Y-74650000D03*
X123700000Y-82700000D03*
X128700000Y-111600000D03*
X123900000Y-82000000D03*
X134500000Y-110300000D03*
X140175000Y-116475000D03*
X128700000Y-114300000D03*
X123700000Y-111200000D03*
X125350000Y-90600000D03*
X131300000Y-118900000D03*
X142200000Y-117500000D03*
D11*
X163900000Y-102300000D03*
D10*
X138900000Y-120450000D03*
X124700000Y-90000000D03*
X154700000Y-74650000D03*
X128400000Y-118000000D03*
X168000000Y-87300000D03*
X130000000Y-115800000D03*
X157700000Y-120450000D03*
X137150000Y-75300000D03*
X133000000Y-104200000D03*
X122000000Y-108800000D03*
X165100000Y-81800000D03*
X125750000Y-114100000D03*
X125350000Y-92350000D03*
X125000000Y-100300000D03*
X137225000Y-116475000D03*
X144200000Y-120450000D03*
X127750000Y-79650000D03*
X168000000Y-98000000D03*
X147680000Y-117450000D03*
X143500000Y-84800000D03*
X165900000Y-81150000D03*
X124700000Y-106000000D03*
X124200000Y-85900000D03*
X155500000Y-84400000D03*
D11*
X166600000Y-98300000D03*
D10*
X168000000Y-102400000D03*
X123600000Y-93900000D03*
X127798707Y-112379623D03*
X152400000Y-78575000D03*
X122000000Y-115100000D03*
X126400000Y-109000000D03*
D11*
X166600000Y-92300000D03*
D10*
X133275000Y-116475000D03*
X123450000Y-81450000D03*
X129100000Y-116600000D03*
X127000000Y-91550000D03*
X122000000Y-111500000D03*
X147600000Y-74650000D03*
X127600000Y-93300000D03*
X160000000Y-118600000D03*
X122000000Y-94500000D03*
X123600000Y-83600000D03*
X130200000Y-118600000D03*
X161000000Y-84200000D03*
D11*
X159250000Y-97250000D03*
D10*
X157700000Y-78525000D03*
X128300000Y-115100000D03*
X123200000Y-107100000D03*
X149000000Y-75350000D03*
X127800000Y-110500000D03*
X142050000Y-75650000D03*
X122700000Y-99100000D03*
X128300000Y-107100000D03*
X135000000Y-74650000D03*
X132400000Y-74650000D03*
X125000000Y-88200000D03*
X134800000Y-84800000D03*
X124500000Y-96700000D03*
X124000000Y-107400000D03*
X122000000Y-102600000D03*
X123000000Y-91400000D03*
X128200000Y-87900000D03*
X163000000Y-120450000D03*
X158500000Y-91100000D03*
X151400000Y-120450000D03*
X123200441Y-92247197D03*
X123200000Y-86300000D03*
X126200000Y-85900000D03*
X126250000Y-92350000D03*
X156300000Y-79100000D03*
X157250000Y-113800000D03*
X162000000Y-74650000D03*
X123900000Y-90800000D03*
X126700000Y-107900000D03*
X124700000Y-84300000D03*
X124200000Y-99200000D03*
X162400000Y-75400000D03*
X128500000Y-79700000D03*
X125800000Y-108300000D03*
X136150000Y-119650000D03*
X164650000Y-113750000D03*
X165250000Y-82700000D03*
X131000000Y-118200000D03*
X143100000Y-116500000D03*
X167300000Y-85150000D03*
X147500000Y-76800000D03*
X162700000Y-114650000D03*
X122000000Y-95400000D03*
X124400000Y-83400000D03*
X132650000Y-113400000D03*
X124095255Y-106781997D03*
X161700000Y-77100000D03*
X132825000Y-98200000D03*
X122000000Y-103500000D03*
X168000000Y-90000000D03*
X163900000Y-114100000D03*
X123700000Y-93100000D03*
X153920000Y-118700000D03*
X122800000Y-89700000D03*
X129000000Y-92650000D03*
X153500000Y-75400000D03*
X152500000Y-119650000D03*
X168000000Y-84500000D03*
X151600000Y-116100000D03*
X162200000Y-119650000D03*
X144600000Y-118900000D03*
X132700000Y-120450000D03*
X147200000Y-75350000D03*
X130500000Y-117500000D03*
X127600000Y-92650000D03*
X153950000Y-120450000D03*
X146000000Y-116700000D03*
X148900000Y-116900000D03*
X153100000Y-120450000D03*
X168000000Y-110400000D03*
X166550000Y-80600000D03*
X148200000Y-119750000D03*
X139912500Y-78100000D03*
X149850000Y-75350000D03*
X122000000Y-116000000D03*
X144900000Y-74650000D03*
X142900000Y-118900000D03*
X157500000Y-96000000D03*
X127900000Y-109600000D03*
X122700000Y-80400000D03*
X151500000Y-78150000D03*
D11*
X165500000Y-96800000D03*
D10*
X122000000Y-86500000D03*
X126100000Y-110700000D03*
X151590490Y-118604017D03*
X123500000Y-88400000D03*
X122000000Y-98900000D03*
X126999641Y-92349250D03*
X139950000Y-119700000D03*
X159300000Y-74650000D03*
D11*
X166600000Y-89800000D03*
D10*
X165950000Y-82350000D03*
X150200000Y-110950000D03*
X156900000Y-75350000D03*
X156100000Y-75700000D03*
X154950000Y-119650000D03*
X168000000Y-113100000D03*
X162200000Y-120450000D03*
X168000000Y-98900000D03*
X129100000Y-120450000D03*
X125350000Y-89850000D03*
X148700000Y-120450000D03*
X143300000Y-114900000D03*
X157550000Y-111000000D03*
X124750000Y-114050000D03*
X148000000Y-75350000D03*
X122000000Y-100700000D03*
X122900000Y-102700000D03*
X127100000Y-113000000D03*
X123400000Y-113200000D03*
X134300000Y-118300000D03*
X133200000Y-118500000D03*
X125736503Y-87504436D03*
X132250000Y-119650000D03*
X128000000Y-76200000D03*
X133700000Y-117500000D03*
X128400000Y-117000000D03*
X122000000Y-96300000D03*
X162500000Y-79850000D03*
X146350000Y-75350000D03*
X131500000Y-74650000D03*
D11*
X159250000Y-95650000D03*
D10*
X127550000Y-75400000D03*
X122000000Y-80100000D03*
X129800000Y-119800000D03*
X160800000Y-119450000D03*
X140500000Y-74650000D03*
X128600000Y-76900000D03*
X133000000Y-90700000D03*
X124300000Y-100300000D03*
X135800000Y-118900000D03*
X136500000Y-75700000D03*
X161100000Y-116100000D03*
X140750000Y-78600000D03*
X134100000Y-84800000D03*
X151200000Y-74650000D03*
X122000000Y-79100000D03*
X127288155Y-106866020D03*
X126100000Y-104800000D03*
X138200000Y-75500000D03*
X164250000Y-82150000D03*
X146700000Y-74650000D03*
X157500000Y-93000000D03*
X144000000Y-74650000D03*
X129100000Y-117300000D03*
X122700000Y-81300000D03*
X161900000Y-79400000D03*
X124000000Y-89900000D03*
X146300000Y-114700000D03*
X122000000Y-107900000D03*
X129108167Y-115886067D03*
X124700000Y-91600000D03*
X122800000Y-84200000D03*
X163100000Y-104400000D03*
X154350000Y-75250000D03*
X122700000Y-97900000D03*
X131193620Y-113581981D03*
X130850000Y-114900000D03*
X168000000Y-103300000D03*
X144450000Y-75350000D03*
X122000000Y-113300000D03*
X127000000Y-110400000D03*
X142150000Y-79100000D03*
X130325000Y-116475000D03*
X125000000Y-89100000D03*
X157000000Y-93700000D03*
X127200000Y-111300000D03*
X163200000Y-89800000D03*
X163100000Y-105700000D03*
X127100000Y-109100000D03*
X125750000Y-81250000D03*
X124295747Y-101672382D03*
X122600000Y-88800000D03*
D11*
X165500000Y-93800000D03*
D10*
X145350000Y-75350000D03*
X133400000Y-114300000D03*
X127049641Y-90599250D03*
X124100000Y-85100000D03*
X150800000Y-75350000D03*
X155600000Y-74650000D03*
X141100000Y-118900000D03*
X141100000Y-115600000D03*
X125100000Y-97200000D03*
X145700000Y-119800000D03*
X153800000Y-119650000D03*
X151405959Y-116921946D03*
X130200000Y-114300000D03*
X161000000Y-89200000D03*
X167300000Y-80750000D03*
X126096546Y-105758435D03*
X130900000Y-120450000D03*
X153200000Y-117300000D03*
X132600000Y-114100000D03*
X160400000Y-75950000D03*
X125300000Y-110400000D03*
X122800000Y-95300000D03*
X122796707Y-103864083D03*
X155000000Y-115900000D03*
X125718120Y-111710344D03*
X135400000Y-117200000D03*
X125350000Y-93100000D03*
X159500000Y-117700000D03*
X140200000Y-115000000D03*
X127000000Y-105900000D03*
X144100000Y-116200000D03*
X125400000Y-98300000D03*
X127049641Y-89849250D03*
X125600000Y-109300000D03*
X149900000Y-114900000D03*
X124500000Y-103600000D03*
X122000000Y-93600000D03*
X123121519Y-85374202D03*
X128250000Y-92650000D03*
X122000000Y-84700000D03*
X166850000Y-83000000D03*
X144000000Y-117700000D03*
X163100000Y-103000000D03*
X136600000Y-117500000D03*
X129700000Y-74650000D03*
X154000000Y-85100000D03*
X137500000Y-110200000D03*
X146500000Y-119800000D03*
X142100000Y-114900000D03*
X125000000Y-109200000D03*
X132825000Y-95300000D03*
X125100000Y-86700000D03*
X168000000Y-114800000D03*
X138700000Y-74650000D03*
X146340000Y-76900000D03*
X125100000Y-82000000D03*
X124600000Y-113200000D03*
X167040643Y-83866488D03*
X123600000Y-103200000D03*
X122700000Y-111300000D03*
X131600000Y-112800000D03*
X155600000Y-110750000D03*
X124700000Y-80900000D03*
X137800000Y-74650000D03*
X122000000Y-92700000D03*
X124500000Y-98300000D03*
X140300000Y-115700000D03*
X128200000Y-120450000D03*
X124500000Y-93200000D03*
X157000000Y-98200000D03*
X122000000Y-90900000D03*
X123255018Y-109654079D03*
X122000000Y-104400000D03*
X160200000Y-74650000D03*
X152200000Y-118700000D03*
X157500000Y-97500000D03*
X132200000Y-118900000D03*
X147400000Y-119800000D03*
X146300000Y-115700000D03*
X126500000Y-87800000D03*
X124586010Y-102757052D03*
X145000000Y-86200000D03*
X123521908Y-96368253D03*
X133000000Y-88100000D03*
X163900000Y-107000000D03*
X168000000Y-106000000D03*
X130700000Y-93000000D03*
X168000000Y-94400000D03*
X135300000Y-115700000D03*
X155275000Y-113300000D03*
X157000000Y-87700000D03*
X124000000Y-109200000D03*
X122000000Y-110600000D03*
X131800000Y-120450000D03*
X135873711Y-114867598D03*
X129000000Y-93350000D03*
X146600000Y-78100000D03*
X136900000Y-115800000D03*
X126700000Y-105100000D03*
X128450000Y-75450000D03*
X122000000Y-81100000D03*
X168000000Y-81900000D03*
X148500000Y-74650000D03*
X126100000Y-83500000D03*
X159700000Y-119400000D03*
X165900000Y-83600000D03*
X127550000Y-119700000D03*
X134400000Y-120450000D03*
X128200000Y-80400000D03*
X122900000Y-82000000D03*
X139300000Y-119000000D03*
X166500000Y-81700000D03*
X124300000Y-86800000D03*
X145100000Y-120450000D03*
X168000000Y-80100000D03*
X166200000Y-113200000D03*
X149950000Y-119650000D03*
X163100000Y-108300000D03*
X161400000Y-117800000D03*
X142750000Y-119700000D03*
X144300000Y-116800000D03*
X143000000Y-117700000D03*
X125100000Y-103500000D03*
X125193234Y-82933603D03*
X152900000Y-74650000D03*
X125200000Y-101200000D03*
X128250000Y-93350000D03*
X131900000Y-118300000D03*
X168000000Y-79200000D03*
X146900000Y-120450000D03*
X168000000Y-96200000D03*
X136000000Y-110200000D03*
X143500000Y-110200000D03*
X128100000Y-113400000D03*
X145000000Y-108380000D03*
X122000000Y-98000000D03*
X161500000Y-116700000D03*
X168000000Y-89100000D03*
X126200000Y-89200000D03*
X135900000Y-74650000D03*
X128868099Y-118577735D03*
X122000000Y-114200000D03*
X122000000Y-91800000D03*
G04 #@! TO.N,Net-(C3-Pad1)*
X134500000Y-89300000D03*
G04 #@! TO.N,Net-(C4-Pad1)*
X134399116Y-105602417D03*
G04 #@! TO.N,Net-(U2-VBGR1)*
X155500000Y-104200000D03*
G04 #@! TO.N,Net-(U2-VRLT_RD)*
X134375000Y-95300000D03*
G04 #@! TO.N,Net-(U2-VRLS)*
X134500000Y-96750000D03*
G04 #@! TO.N,Net-(U2-VRLT)*
X134375000Y-98200000D03*
G04 #@! TO.N,Net-(U2-VBGR2)*
X133000000Y-102900000D03*
G04 #@! TO.N,+1V2*
X152500000Y-83300000D03*
X134500000Y-83300000D03*
X155500000Y-83200000D03*
X155500000Y-99800000D03*
X136000000Y-111900000D03*
X155500000Y-90800000D03*
X155500000Y-95200000D03*
X155500000Y-96700000D03*
X159750000Y-90750000D03*
X139850000Y-79900000D03*
X143500000Y-83300000D03*
X154000000Y-83200000D03*
X139850000Y-80550000D03*
X143500000Y-111800000D03*
X134500000Y-111800000D03*
X143440000Y-76900000D03*
X155500000Y-98300000D03*
X155500000Y-93600000D03*
X137500000Y-83200000D03*
X140550000Y-80550000D03*
X160000000Y-105700000D03*
X154000000Y-111700000D03*
X152500000Y-111900000D03*
X140550000Y-79900000D03*
X155500000Y-112100000D03*
X137500000Y-111800000D03*
X136000000Y-83300000D03*
G04 #@! TO.N,+1V8*
X134900000Y-90800000D03*
X145000000Y-110250000D03*
X134600000Y-104100000D03*
X159900000Y-107200000D03*
G04 #@! TO.N,+2V9*
X136000000Y-107400000D03*
X127050000Y-94600000D03*
X127050000Y-94000000D03*
X155500000Y-105700000D03*
X126400000Y-94000000D03*
X155500000Y-107200000D03*
X145000000Y-107200000D03*
X134375000Y-93700000D03*
X134500000Y-92200000D03*
X127410000Y-97010000D03*
X155100000Y-87700000D03*
X154000000Y-87750000D03*
X145000000Y-87450000D03*
X134500000Y-107400000D03*
X134500000Y-87800000D03*
X136000000Y-87700000D03*
X126400000Y-95200000D03*
X154000000Y-107300000D03*
X126400000Y-94600000D03*
X127050000Y-95200000D03*
G04 #@! TO.N,+3V3*
X167400000Y-101300000D03*
X127800000Y-87100000D03*
X128600000Y-87100000D03*
X166000000Y-101300000D03*
X147350000Y-78100000D03*
X154880000Y-118700000D03*
X127800000Y-86450000D03*
X159600000Y-78900000D03*
X158800000Y-78900000D03*
X160135000Y-113800000D03*
X128600000Y-86450000D03*
X147350000Y-78900000D03*
X166700000Y-101300000D03*
X148100000Y-78100000D03*
X148100000Y-78900000D03*
X158800000Y-78150000D03*
X159600000Y-78150000D03*
X164800000Y-108000000D03*
X163900000Y-108000000D03*
G04 #@! TO.N,SDA_3V3*
X162500000Y-113250000D03*
X161100000Y-113250000D03*
G04 #@! TO.N,SCL_3V3*
X161800000Y-110000000D03*
X163100000Y-110000000D03*
G04 #@! TO.N,CAM_EN*
X164900000Y-98800000D03*
D11*
X155837500Y-78150000D03*
D10*
G04 #@! TO.N,Net-(U4-SS_CTRL)*
X127850000Y-91050000D03*
X130750000Y-91350000D03*
G04 #@! TO.N,SCL_1V8*
X149800000Y-111500000D03*
G04 #@! TO.N,SDA_1V8*
X150600000Y-111500000D03*
D11*
X147600000Y-113900000D03*
D10*
G04 #@! TO.N,CLOCK*
X160000000Y-89250000D03*
D11*
G04 #@! TO.N,CAM_D0_P*
X159550000Y-93200000D03*
G04 #@! TO.N,CAM_D1_P*
X159550000Y-96750000D03*
G04 #@! TO.N,CAM_CLK_P*
X159550000Y-95150000D03*
G04 #@! TO.N,CAM_D2_P*
X161700000Y-96600000D03*
G04 #@! TO.N,CAM_D3_P*
X159550000Y-98250000D03*
D10*
G04 #@! TO.N,Net-(JP1-B)*
X157000000Y-89300000D03*
G04 #@! TO.N,Net-(U2-VEXRES2)*
X134500000Y-101200000D03*
G04 #@! TO.N,Net-(U2-VEXRES1)*
X155500000Y-102800000D03*
D11*
G04 #@! TO.N,XVS*
X149700000Y-115650000D03*
D10*
X131800000Y-114950000D03*
G04 #@! TO.N,XHS*
X138700000Y-114950000D03*
D11*
G04 #@! TO.N,CAM_D0_N*
X158950000Y-93200000D03*
G04 #@! TO.N,CAM_D1_N*
X158950000Y-96750000D03*
G04 #@! TO.N,CAM_CLK_N*
X158950000Y-95150000D03*
G04 #@! TO.N,CAM_D2_N*
X161700000Y-96000000D03*
G04 #@! TO.N,CAM_D3_N*
X158950000Y-98250000D03*
D10*
G04 #@! TO.N,Net-(C8-Pad1)*
X133000000Y-89200000D03*
G04 #@! TO.N,RST_1V8*
X149500000Y-110400000D03*
G04 #@! TO.N,GND*
X128700000Y-78500000D03*
G04 #@! TD*
G04 #@! TA.AperFunction,Conductor*
G04 #@! TO.N,GND*
G36*
X165002595Y-74200636D02*
G01*
X165339714Y-74218303D01*
X165350009Y-74219385D01*
X165680887Y-74271791D01*
X165691000Y-74273940D01*
X166014601Y-74360649D01*
X166024450Y-74363850D01*
X166337183Y-74483897D01*
X166346635Y-74488104D01*
X166645140Y-74640200D01*
X166654100Y-74645374D01*
X166935049Y-74827824D01*
X166943421Y-74833907D01*
X166987689Y-74869754D01*
X167203758Y-75044724D01*
X167211459Y-75051657D01*
X167448342Y-75288540D01*
X167455275Y-75296241D01*
X167618241Y-75497487D01*
X167666088Y-75556572D01*
X167672177Y-75564954D01*
X167799466Y-75760961D01*
X167854621Y-75845892D01*
X167859803Y-75854866D01*
X168011891Y-76153356D01*
X168016105Y-76162823D01*
X168136148Y-76475546D01*
X168139351Y-76485401D01*
X168226056Y-76808987D01*
X168228210Y-76819123D01*
X168280613Y-77149985D01*
X168281696Y-77160291D01*
X168299364Y-77497404D01*
X168299500Y-77502585D01*
X168299500Y-117497414D01*
X168299364Y-117502595D01*
X168281696Y-117839708D01*
X168280613Y-117850014D01*
X168228210Y-118180876D01*
X168226056Y-118191012D01*
X168139351Y-118514598D01*
X168136148Y-118524453D01*
X168016105Y-118837176D01*
X168011891Y-118846643D01*
X167859803Y-119145133D01*
X167854621Y-119154107D01*
X167672179Y-119435043D01*
X167666088Y-119443427D01*
X167455275Y-119703758D01*
X167448342Y-119711459D01*
X167211459Y-119948342D01*
X167203758Y-119955275D01*
X166943427Y-120166088D01*
X166935043Y-120172179D01*
X166654107Y-120354621D01*
X166645133Y-120359803D01*
X166346643Y-120511891D01*
X166337176Y-120516105D01*
X166024453Y-120636148D01*
X166014598Y-120639351D01*
X165691012Y-120726056D01*
X165680876Y-120728210D01*
X165350014Y-120780613D01*
X165339708Y-120781696D01*
X165002595Y-120799364D01*
X164997414Y-120799500D01*
X125002586Y-120799500D01*
X124997405Y-120799364D01*
X124660291Y-120781696D01*
X124649985Y-120780613D01*
X124319123Y-120728210D01*
X124308987Y-120726056D01*
X123985401Y-120639351D01*
X123975546Y-120636148D01*
X123662823Y-120516105D01*
X123653356Y-120511891D01*
X123354866Y-120359803D01*
X123345892Y-120354621D01*
X123064954Y-120172177D01*
X123056572Y-120166088D01*
X123012312Y-120130247D01*
X122875449Y-120019417D01*
X122796241Y-119955275D01*
X122788540Y-119948342D01*
X122551657Y-119711459D01*
X122544724Y-119703758D01*
X122333907Y-119443421D01*
X122327820Y-119435043D01*
X122200537Y-119239045D01*
X122145374Y-119154100D01*
X122140200Y-119145140D01*
X121988104Y-118846635D01*
X121983894Y-118837176D01*
X121979336Y-118825303D01*
X121863850Y-118524450D01*
X121860648Y-118514598D01*
X121830004Y-118400233D01*
X121773940Y-118191000D01*
X121771791Y-118180887D01*
X121719385Y-117850009D01*
X121718303Y-117839708D01*
X121704430Y-117574999D01*
X121700636Y-117502595D01*
X121700500Y-117497414D01*
X121700500Y-117331494D01*
X121999500Y-117331494D01*
X121999500Y-117668505D01*
X122037232Y-118003392D01*
X122112224Y-118331957D01*
X122223530Y-118650049D01*
X122223531Y-118650051D01*
X122369746Y-118953671D01*
X122369752Y-118953683D01*
X122549056Y-119239042D01*
X122549058Y-119239045D01*
X122759165Y-119502512D01*
X122759171Y-119502518D01*
X122759175Y-119502523D01*
X122997477Y-119740825D01*
X122997481Y-119740828D01*
X122997487Y-119740834D01*
X123260954Y-119950941D01*
X123260958Y-119950943D01*
X123260961Y-119950946D01*
X123267851Y-119955275D01*
X123546316Y-120130247D01*
X123546328Y-120130253D01*
X123627518Y-120169352D01*
X123849949Y-120276469D01*
X123998440Y-120328428D01*
X124168042Y-120387775D01*
X124168045Y-120387775D01*
X124168046Y-120387776D01*
X124496606Y-120462767D01*
X124831496Y-120500500D01*
X124831497Y-120500500D01*
X125168503Y-120500500D01*
X125168504Y-120500500D01*
X125503394Y-120462767D01*
X125831954Y-120387776D01*
X126150051Y-120276469D01*
X126453686Y-120130246D01*
X126739039Y-119950946D01*
X127002523Y-119740825D01*
X127240825Y-119502523D01*
X127287953Y-119443427D01*
X127450941Y-119239045D01*
X127450946Y-119239039D01*
X127630246Y-118953686D01*
X127752415Y-118699999D01*
X154474508Y-118699999D01*
X154474508Y-118700000D01*
X154494354Y-118825303D01*
X154494355Y-118825307D01*
X154549944Y-118934406D01*
X154551950Y-118938342D01*
X154641658Y-119028050D01*
X154754696Y-119085646D01*
X154880000Y-119105492D01*
X155005304Y-119085646D01*
X155118342Y-119028050D01*
X155208050Y-118938342D01*
X155265646Y-118825304D01*
X155285492Y-118700000D01*
X155265646Y-118574696D01*
X155208050Y-118461658D01*
X155118342Y-118371950D01*
X155039846Y-118331954D01*
X155005307Y-118314355D01*
X155005304Y-118314354D01*
X154880000Y-118294508D01*
X154754696Y-118314354D01*
X154754692Y-118314355D01*
X154641659Y-118371949D01*
X154551949Y-118461659D01*
X154494355Y-118574692D01*
X154494354Y-118574696D01*
X154474508Y-118699999D01*
X127752415Y-118699999D01*
X127776469Y-118650051D01*
X127887776Y-118331954D01*
X127962767Y-118003394D01*
X128000500Y-117668504D01*
X128000500Y-117331496D01*
X127962767Y-116996606D01*
X127887776Y-116668046D01*
X127776469Y-116349949D01*
X127630246Y-116046314D01*
X127450946Y-115760961D01*
X127450943Y-115760957D01*
X127450941Y-115760954D01*
X127240834Y-115497487D01*
X127240828Y-115497481D01*
X127240825Y-115497477D01*
X127228348Y-115485000D01*
X130850000Y-115485000D01*
X130850000Y-117575000D01*
X130850001Y-117575000D01*
X132749999Y-117575000D01*
X132750000Y-117575000D01*
X132750000Y-115485000D01*
X137750000Y-115485000D01*
X137750000Y-117575000D01*
X137750001Y-117575000D01*
X139649999Y-117575000D01*
X139650000Y-117575000D01*
X139650000Y-117331494D01*
X161899500Y-117331494D01*
X161899500Y-117668505D01*
X161937232Y-118003392D01*
X162012224Y-118331957D01*
X162123530Y-118650049D01*
X162123531Y-118650051D01*
X162269746Y-118953671D01*
X162269752Y-118953683D01*
X162449056Y-119239042D01*
X162449058Y-119239045D01*
X162659165Y-119502512D01*
X162659171Y-119502518D01*
X162659175Y-119502523D01*
X162897477Y-119740825D01*
X162897481Y-119740828D01*
X162897487Y-119740834D01*
X163160954Y-119950941D01*
X163160958Y-119950943D01*
X163160961Y-119950946D01*
X163167851Y-119955275D01*
X163446316Y-120130247D01*
X163446328Y-120130253D01*
X163527518Y-120169352D01*
X163749949Y-120276469D01*
X163898440Y-120328428D01*
X164068042Y-120387775D01*
X164068045Y-120387775D01*
X164068046Y-120387776D01*
X164396606Y-120462767D01*
X164731496Y-120500500D01*
X164731497Y-120500500D01*
X165068503Y-120500500D01*
X165068504Y-120500500D01*
X165403394Y-120462767D01*
X165731954Y-120387776D01*
X166050051Y-120276469D01*
X166353686Y-120130246D01*
X166639039Y-119950946D01*
X166902523Y-119740825D01*
X167140825Y-119502523D01*
X167187953Y-119443427D01*
X167350941Y-119239045D01*
X167350946Y-119239039D01*
X167530246Y-118953686D01*
X167676469Y-118650051D01*
X167787776Y-118331954D01*
X167862767Y-118003394D01*
X167900500Y-117668504D01*
X167900500Y-117331496D01*
X167862767Y-116996606D01*
X167787776Y-116668046D01*
X167676469Y-116349949D01*
X167530246Y-116046314D01*
X167350946Y-115760961D01*
X167350943Y-115760957D01*
X167350941Y-115760954D01*
X167140834Y-115497487D01*
X167140828Y-115497481D01*
X167140825Y-115497477D01*
X166902523Y-115259175D01*
X166902518Y-115259171D01*
X166902512Y-115259165D01*
X166639045Y-115049058D01*
X166639042Y-115049056D01*
X166353683Y-114869752D01*
X166353671Y-114869746D01*
X166050051Y-114723531D01*
X166050049Y-114723530D01*
X165731957Y-114612224D01*
X165403392Y-114537232D01*
X165068505Y-114499500D01*
X165068504Y-114499500D01*
X164731496Y-114499500D01*
X164731494Y-114499500D01*
X164396607Y-114537232D01*
X164068042Y-114612224D01*
X163749950Y-114723530D01*
X163749948Y-114723531D01*
X163446328Y-114869746D01*
X163446316Y-114869752D01*
X163160957Y-115049056D01*
X163160954Y-115049058D01*
X162897487Y-115259165D01*
X162659165Y-115497487D01*
X162449058Y-115760954D01*
X162449056Y-115760957D01*
X162269752Y-116046316D01*
X162269746Y-116046328D01*
X162123531Y-116349948D01*
X162123530Y-116349950D01*
X162012224Y-116668042D01*
X161937232Y-116996607D01*
X161899500Y-117331494D01*
X139650000Y-117331494D01*
X139650000Y-115650000D01*
X149345131Y-115650000D01*
X149362500Y-115759661D01*
X149412905Y-115858587D01*
X149491413Y-115937095D01*
X149590339Y-115987500D01*
X149700000Y-116004869D01*
X149809661Y-115987500D01*
X149908587Y-115937095D01*
X149987095Y-115858587D01*
X150037500Y-115759661D01*
X150054869Y-115650000D01*
X150037500Y-115540339D01*
X149987095Y-115441413D01*
X149908587Y-115362905D01*
X149809661Y-115312500D01*
X149700000Y-115295131D01*
X149590338Y-115312500D01*
X149491413Y-115362905D01*
X149412905Y-115441413D01*
X149362500Y-115540338D01*
X149362500Y-115540339D01*
X149345131Y-115650000D01*
X139650000Y-115650000D01*
X139650000Y-115485000D01*
X138944544Y-115485000D01*
X138886353Y-115466093D01*
X138850389Y-115416593D01*
X138850389Y-115355407D01*
X138886353Y-115305907D01*
X138899598Y-115297791D01*
X138938342Y-115278050D01*
X139028050Y-115188342D01*
X139085646Y-115075304D01*
X139105492Y-114950000D01*
X139085646Y-114824696D01*
X139028050Y-114711658D01*
X138938342Y-114621950D01*
X138919254Y-114612224D01*
X138825307Y-114564355D01*
X138825304Y-114564354D01*
X138700000Y-114544508D01*
X138574696Y-114564354D01*
X138574692Y-114564355D01*
X138461659Y-114621949D01*
X138371949Y-114711659D01*
X138314355Y-114824692D01*
X138314354Y-114824696D01*
X138294508Y-114950000D01*
X138310196Y-115049054D01*
X138314354Y-115075303D01*
X138314355Y-115075307D01*
X138369944Y-115184406D01*
X138371950Y-115188342D01*
X138461658Y-115278050D01*
X138500402Y-115297791D01*
X138543666Y-115341055D01*
X138553237Y-115401488D01*
X138525459Y-115456004D01*
X138470942Y-115483781D01*
X138455456Y-115485000D01*
X137750000Y-115485000D01*
X132750000Y-115485000D01*
X132044544Y-115485000D01*
X131986353Y-115466093D01*
X131950389Y-115416593D01*
X131950389Y-115355407D01*
X131986353Y-115305907D01*
X131999598Y-115297791D01*
X132038342Y-115278050D01*
X132128050Y-115188342D01*
X132185646Y-115075304D01*
X132205492Y-114950000D01*
X132185646Y-114824696D01*
X132128050Y-114711658D01*
X132038342Y-114621950D01*
X132019254Y-114612224D01*
X131925307Y-114564355D01*
X131925304Y-114564354D01*
X131800000Y-114544508D01*
X131674696Y-114564354D01*
X131674692Y-114564355D01*
X131561659Y-114621949D01*
X131471949Y-114711659D01*
X131414355Y-114824692D01*
X131414354Y-114824696D01*
X131394508Y-114950000D01*
X131410196Y-115049054D01*
X131414354Y-115075303D01*
X131414355Y-115075307D01*
X131469944Y-115184406D01*
X131471950Y-115188342D01*
X131561658Y-115278050D01*
X131600402Y-115297791D01*
X131643666Y-115341055D01*
X131653237Y-115401488D01*
X131625459Y-115456004D01*
X131570942Y-115483781D01*
X131555456Y-115485000D01*
X130850000Y-115485000D01*
X127228348Y-115485000D01*
X127002523Y-115259175D01*
X127002518Y-115259171D01*
X127002512Y-115259165D01*
X126739045Y-115049058D01*
X126739042Y-115049056D01*
X126453683Y-114869752D01*
X126453671Y-114869746D01*
X126150051Y-114723531D01*
X126150049Y-114723530D01*
X125831957Y-114612224D01*
X125503392Y-114537232D01*
X125168505Y-114499500D01*
X125168504Y-114499500D01*
X124831496Y-114499500D01*
X124831494Y-114499500D01*
X124496607Y-114537232D01*
X124168042Y-114612224D01*
X123849950Y-114723530D01*
X123849948Y-114723531D01*
X123546328Y-114869746D01*
X123546316Y-114869752D01*
X123260957Y-115049056D01*
X123260954Y-115049058D01*
X122997487Y-115259165D01*
X122759165Y-115497487D01*
X122549058Y-115760954D01*
X122549056Y-115760957D01*
X122369752Y-116046316D01*
X122369746Y-116046328D01*
X122223531Y-116349948D01*
X122223530Y-116349950D01*
X122112224Y-116668042D01*
X122037232Y-116996607D01*
X121999500Y-117331494D01*
X121700500Y-117331494D01*
X121700500Y-113900000D01*
X147245131Y-113900000D01*
X147262500Y-114009661D01*
X147312905Y-114108587D01*
X147391413Y-114187095D01*
X147490339Y-114237500D01*
X147600000Y-114254869D01*
X147709661Y-114237500D01*
X147808587Y-114187095D01*
X147887095Y-114108587D01*
X147937500Y-114009661D01*
X147954869Y-113900000D01*
X147939030Y-113799999D01*
X159729508Y-113799999D01*
X159729508Y-113800000D01*
X159749354Y-113925303D01*
X159749355Y-113925307D01*
X159792336Y-114009661D01*
X159806950Y-114038342D01*
X159896658Y-114128050D01*
X160009696Y-114185646D01*
X160135000Y-114205492D01*
X160260304Y-114185646D01*
X160373342Y-114128050D01*
X160463050Y-114038342D01*
X160520646Y-113925304D01*
X160540492Y-113800000D01*
X160520646Y-113674696D01*
X160463050Y-113561658D01*
X160373342Y-113471950D01*
X160369406Y-113469944D01*
X160260307Y-113414355D01*
X160260304Y-113414354D01*
X160135000Y-113394508D01*
X160009696Y-113414354D01*
X160009692Y-113414355D01*
X159896659Y-113471949D01*
X159806949Y-113561659D01*
X159749355Y-113674692D01*
X159749354Y-113674696D01*
X159729508Y-113799999D01*
X147939030Y-113799999D01*
X147937500Y-113790339D01*
X147887095Y-113691413D01*
X147808587Y-113612905D01*
X147709661Y-113562500D01*
X147600000Y-113545131D01*
X147490338Y-113562500D01*
X147391413Y-113612905D01*
X147312905Y-113691413D01*
X147262500Y-113790338D01*
X147262500Y-113790339D01*
X147245131Y-113900000D01*
X121700500Y-113900000D01*
X121700500Y-113249999D01*
X160694508Y-113249999D01*
X160694508Y-113250000D01*
X160714354Y-113375303D01*
X160714355Y-113375307D01*
X160763597Y-113471949D01*
X160771950Y-113488342D01*
X160861658Y-113578050D01*
X160974696Y-113635646D01*
X161100000Y-113655492D01*
X161225304Y-113635646D01*
X161338342Y-113578050D01*
X161428050Y-113488342D01*
X161485646Y-113375304D01*
X161505492Y-113250000D01*
X161505492Y-113249999D01*
X162094508Y-113249999D01*
X162094508Y-113250000D01*
X162114354Y-113375303D01*
X162114355Y-113375307D01*
X162163597Y-113471949D01*
X162171950Y-113488342D01*
X162261658Y-113578050D01*
X162374696Y-113635646D01*
X162500000Y-113655492D01*
X162625304Y-113635646D01*
X162738342Y-113578050D01*
X162828050Y-113488342D01*
X162885646Y-113375304D01*
X162905492Y-113250000D01*
X162885646Y-113124696D01*
X162828050Y-113011658D01*
X162738342Y-112921950D01*
X162734406Y-112919944D01*
X162625307Y-112864355D01*
X162625304Y-112864354D01*
X162500000Y-112844508D01*
X162374696Y-112864354D01*
X162374692Y-112864355D01*
X162261659Y-112921949D01*
X162171949Y-113011659D01*
X162114355Y-113124692D01*
X162114354Y-113124696D01*
X162094508Y-113249999D01*
X161505492Y-113249999D01*
X161485646Y-113124696D01*
X161428050Y-113011658D01*
X161338342Y-112921950D01*
X161334406Y-112919944D01*
X161225307Y-112864355D01*
X161225304Y-112864354D01*
X161100000Y-112844508D01*
X160974696Y-112864354D01*
X160974692Y-112864355D01*
X160861659Y-112921949D01*
X160771949Y-113011659D01*
X160714355Y-113124692D01*
X160714354Y-113124696D01*
X160694508Y-113249999D01*
X121700500Y-113249999D01*
X121700500Y-111799999D01*
X134094508Y-111799999D01*
X134094508Y-111800000D01*
X134114354Y-111925303D01*
X134114355Y-111925307D01*
X134165306Y-112025303D01*
X134171950Y-112038342D01*
X134261658Y-112128050D01*
X134374696Y-112185646D01*
X134500000Y-112205492D01*
X134625304Y-112185646D01*
X134738342Y-112128050D01*
X134828050Y-112038342D01*
X134885646Y-111925304D01*
X134889654Y-111899999D01*
X135594508Y-111899999D01*
X135594508Y-111900000D01*
X135614354Y-112025303D01*
X135614355Y-112025307D01*
X135615753Y-112028050D01*
X135671950Y-112138342D01*
X135761658Y-112228050D01*
X135874696Y-112285646D01*
X136000000Y-112305492D01*
X136125304Y-112285646D01*
X136238342Y-112228050D01*
X136328050Y-112138342D01*
X136385646Y-112025304D01*
X136405492Y-111900000D01*
X136389654Y-111799999D01*
X137094508Y-111799999D01*
X137094508Y-111800000D01*
X137114354Y-111925303D01*
X137114355Y-111925307D01*
X137165306Y-112025303D01*
X137171950Y-112038342D01*
X137261658Y-112128050D01*
X137374696Y-112185646D01*
X137500000Y-112205492D01*
X137625304Y-112185646D01*
X137738342Y-112128050D01*
X137828050Y-112038342D01*
X137885646Y-111925304D01*
X137905492Y-111800000D01*
X137905492Y-111799999D01*
X143094508Y-111799999D01*
X143094508Y-111800000D01*
X143114354Y-111925303D01*
X143114355Y-111925307D01*
X143165306Y-112025303D01*
X143171950Y-112038342D01*
X143261658Y-112128050D01*
X143374696Y-112185646D01*
X143500000Y-112205492D01*
X143625304Y-112185646D01*
X143738342Y-112128050D01*
X143828050Y-112038342D01*
X143885646Y-111925304D01*
X143905492Y-111800000D01*
X143885646Y-111674696D01*
X143828050Y-111561658D01*
X143766392Y-111500000D01*
X149394508Y-111500000D01*
X149405903Y-111571949D01*
X149414354Y-111625303D01*
X149414355Y-111625307D01*
X149449615Y-111694508D01*
X149471950Y-111738342D01*
X149561658Y-111828050D01*
X149674696Y-111885646D01*
X149800000Y-111905492D01*
X149925304Y-111885646D01*
X150038342Y-111828050D01*
X150128050Y-111738342D01*
X150128051Y-111738339D01*
X150129996Y-111736395D01*
X150184513Y-111708618D01*
X150244945Y-111718189D01*
X150270004Y-111736395D01*
X150271948Y-111738339D01*
X150271950Y-111738342D01*
X150361658Y-111828050D01*
X150474696Y-111885646D01*
X150600000Y-111905492D01*
X150634682Y-111899999D01*
X152094508Y-111899999D01*
X152094508Y-111900000D01*
X152114354Y-112025303D01*
X152114355Y-112025307D01*
X152115753Y-112028050D01*
X152171950Y-112138342D01*
X152261658Y-112228050D01*
X152374696Y-112285646D01*
X152500000Y-112305492D01*
X152625304Y-112285646D01*
X152738342Y-112228050D01*
X152828050Y-112138342D01*
X152885646Y-112025304D01*
X152905492Y-111900000D01*
X152885646Y-111774696D01*
X152847586Y-111700000D01*
X153594508Y-111700000D01*
X153605903Y-111771949D01*
X153614354Y-111825303D01*
X153614355Y-111825307D01*
X153615753Y-111828050D01*
X153671950Y-111938342D01*
X153761658Y-112028050D01*
X153874696Y-112085646D01*
X154000000Y-112105492D01*
X154034682Y-112099999D01*
X155094508Y-112099999D01*
X155094508Y-112100000D01*
X155114354Y-112225303D01*
X155114355Y-112225307D01*
X155115753Y-112228050D01*
X155171950Y-112338342D01*
X155261658Y-112428050D01*
X155374696Y-112485646D01*
X155500000Y-112505492D01*
X155625304Y-112485646D01*
X155738342Y-112428050D01*
X155828050Y-112338342D01*
X155885646Y-112225304D01*
X155905492Y-112100000D01*
X155885646Y-111974696D01*
X155828050Y-111861658D01*
X155738342Y-111771950D01*
X155672383Y-111738342D01*
X155625307Y-111714355D01*
X155625304Y-111714354D01*
X155500000Y-111694508D01*
X155374696Y-111714354D01*
X155374692Y-111714355D01*
X155261659Y-111771949D01*
X155171949Y-111861659D01*
X155114355Y-111974692D01*
X155114354Y-111974696D01*
X155094508Y-112099999D01*
X154034682Y-112099999D01*
X154125304Y-112085646D01*
X154238342Y-112028050D01*
X154328050Y-111938342D01*
X154385646Y-111825304D01*
X154405492Y-111700000D01*
X154385646Y-111574696D01*
X154328050Y-111461658D01*
X154238342Y-111371950D01*
X154234406Y-111369944D01*
X154125307Y-111314355D01*
X154125304Y-111314354D01*
X154000000Y-111294508D01*
X153874696Y-111314354D01*
X153874692Y-111314355D01*
X153761659Y-111371949D01*
X153671949Y-111461659D01*
X153614355Y-111574692D01*
X153614354Y-111574696D01*
X153600581Y-111661659D01*
X153594508Y-111700000D01*
X152847586Y-111700000D01*
X152828050Y-111661658D01*
X152738342Y-111571950D01*
X152718143Y-111561658D01*
X152625307Y-111514355D01*
X152625304Y-111514354D01*
X152500000Y-111494508D01*
X152374696Y-111514354D01*
X152374692Y-111514355D01*
X152261659Y-111571949D01*
X152171949Y-111661659D01*
X152114355Y-111774692D01*
X152114354Y-111774696D01*
X152094508Y-111899999D01*
X150634682Y-111899999D01*
X150725304Y-111885646D01*
X150838342Y-111828050D01*
X150928050Y-111738342D01*
X150985646Y-111625304D01*
X151005492Y-111500000D01*
X150985646Y-111374696D01*
X150928050Y-111261658D01*
X150838342Y-111171950D01*
X150834406Y-111169944D01*
X150725307Y-111114355D01*
X150725304Y-111114354D01*
X150600000Y-111094508D01*
X150474696Y-111114354D01*
X150474692Y-111114355D01*
X150361659Y-111171949D01*
X150361658Y-111171949D01*
X150361658Y-111171950D01*
X150271950Y-111261658D01*
X150271948Y-111261659D01*
X150270004Y-111263605D01*
X150215487Y-111291382D01*
X150155055Y-111281811D01*
X150129996Y-111263605D01*
X150128051Y-111261660D01*
X150128050Y-111261658D01*
X150038342Y-111171950D01*
X150034406Y-111169944D01*
X149925307Y-111114355D01*
X149925304Y-111114354D01*
X149800000Y-111094508D01*
X149674696Y-111114354D01*
X149674692Y-111114355D01*
X149561659Y-111171949D01*
X149471949Y-111261659D01*
X149414355Y-111374692D01*
X149414354Y-111374696D01*
X149400581Y-111461659D01*
X149394508Y-111500000D01*
X143766392Y-111500000D01*
X143738342Y-111471950D01*
X143718143Y-111461658D01*
X143625307Y-111414355D01*
X143625304Y-111414354D01*
X143500000Y-111394508D01*
X143374696Y-111414354D01*
X143374692Y-111414355D01*
X143261659Y-111471949D01*
X143171949Y-111561659D01*
X143114355Y-111674692D01*
X143114354Y-111674696D01*
X143094508Y-111799999D01*
X137905492Y-111799999D01*
X137885646Y-111674696D01*
X137828050Y-111561658D01*
X137738342Y-111471950D01*
X137718143Y-111461658D01*
X137625307Y-111414355D01*
X137625304Y-111414354D01*
X137500000Y-111394508D01*
X137374696Y-111414354D01*
X137374692Y-111414355D01*
X137261659Y-111471949D01*
X137171949Y-111561659D01*
X137114355Y-111674692D01*
X137114354Y-111674696D01*
X137094508Y-111799999D01*
X136389654Y-111799999D01*
X136385646Y-111774696D01*
X136328050Y-111661658D01*
X136238342Y-111571950D01*
X136218143Y-111561658D01*
X136125307Y-111514355D01*
X136125304Y-111514354D01*
X136000000Y-111494508D01*
X135874696Y-111514354D01*
X135874692Y-111514355D01*
X135761659Y-111571949D01*
X135671949Y-111661659D01*
X135614355Y-111774692D01*
X135614354Y-111774696D01*
X135594508Y-111899999D01*
X134889654Y-111899999D01*
X134905492Y-111800000D01*
X134885646Y-111674696D01*
X134828050Y-111561658D01*
X134738342Y-111471950D01*
X134718143Y-111461658D01*
X134625307Y-111414355D01*
X134625304Y-111414354D01*
X134500000Y-111394508D01*
X134374696Y-111414354D01*
X134374692Y-111414355D01*
X134261659Y-111471949D01*
X134171949Y-111561659D01*
X134114355Y-111674692D01*
X134114354Y-111674696D01*
X134094508Y-111799999D01*
X121700500Y-111799999D01*
X121700500Y-110249999D01*
X144594508Y-110249999D01*
X144594508Y-110250000D01*
X144614354Y-110375303D01*
X144614355Y-110375307D01*
X144669944Y-110484406D01*
X144671950Y-110488342D01*
X144761658Y-110578050D01*
X144874696Y-110635646D01*
X145000000Y-110655492D01*
X145125304Y-110635646D01*
X145238342Y-110578050D01*
X145328050Y-110488342D01*
X145373063Y-110399999D01*
X149094508Y-110399999D01*
X149094508Y-110400000D01*
X149114354Y-110525303D01*
X149114355Y-110525307D01*
X149169944Y-110634406D01*
X149171950Y-110638342D01*
X149261658Y-110728050D01*
X149374696Y-110785646D01*
X149500000Y-110805492D01*
X149625304Y-110785646D01*
X149738342Y-110728050D01*
X149828050Y-110638342D01*
X149885646Y-110525304D01*
X149905492Y-110400000D01*
X149885646Y-110274696D01*
X149828050Y-110161658D01*
X149738342Y-110071950D01*
X149734406Y-110069944D01*
X149625307Y-110014355D01*
X149625304Y-110014354D01*
X149534675Y-110000000D01*
X161394508Y-110000000D01*
X161405903Y-110071949D01*
X161414354Y-110125303D01*
X161414355Y-110125307D01*
X161432877Y-110161658D01*
X161471950Y-110238342D01*
X161561658Y-110328050D01*
X161674696Y-110385646D01*
X161800000Y-110405492D01*
X161925304Y-110385646D01*
X162038342Y-110328050D01*
X162128050Y-110238342D01*
X162185646Y-110125304D01*
X162205492Y-110000000D01*
X162694508Y-110000000D01*
X162705903Y-110071949D01*
X162714354Y-110125303D01*
X162714355Y-110125307D01*
X162732877Y-110161658D01*
X162771950Y-110238342D01*
X162861658Y-110328050D01*
X162974696Y-110385646D01*
X163100000Y-110405492D01*
X163225304Y-110385646D01*
X163338342Y-110328050D01*
X163428050Y-110238342D01*
X163485646Y-110125304D01*
X163505492Y-110000000D01*
X163485646Y-109874696D01*
X163428050Y-109761658D01*
X163338342Y-109671950D01*
X163334406Y-109669944D01*
X163225307Y-109614355D01*
X163225304Y-109614354D01*
X163100000Y-109594508D01*
X162974696Y-109614354D01*
X162974692Y-109614355D01*
X162861659Y-109671949D01*
X162771949Y-109761659D01*
X162714355Y-109874692D01*
X162714354Y-109874696D01*
X162694508Y-110000000D01*
X162205492Y-110000000D01*
X162185646Y-109874696D01*
X162128050Y-109761658D01*
X162038342Y-109671950D01*
X162034406Y-109669944D01*
X161925307Y-109614355D01*
X161925304Y-109614354D01*
X161800000Y-109594508D01*
X161674696Y-109614354D01*
X161674692Y-109614355D01*
X161561659Y-109671949D01*
X161471949Y-109761659D01*
X161414355Y-109874692D01*
X161414354Y-109874696D01*
X161394508Y-110000000D01*
X149534675Y-110000000D01*
X149500000Y-109994508D01*
X149374696Y-110014354D01*
X149374692Y-110014355D01*
X149261659Y-110071949D01*
X149171949Y-110161659D01*
X149114355Y-110274692D01*
X149114354Y-110274696D01*
X149094508Y-110399999D01*
X145373063Y-110399999D01*
X145385646Y-110375304D01*
X145405492Y-110250000D01*
X145385646Y-110124696D01*
X145328050Y-110011658D01*
X145238342Y-109921950D01*
X145234406Y-109919944D01*
X145125307Y-109864355D01*
X145125304Y-109864354D01*
X145000000Y-109844508D01*
X144874696Y-109864354D01*
X144874692Y-109864355D01*
X144761659Y-109921949D01*
X144671949Y-110011659D01*
X144614355Y-110124692D01*
X144614354Y-110124696D01*
X144594508Y-110249999D01*
X121700500Y-110249999D01*
X121700500Y-107999999D01*
X163494508Y-107999999D01*
X163494508Y-108000000D01*
X163514354Y-108125303D01*
X163514355Y-108125307D01*
X163516164Y-108128857D01*
X163571950Y-108238342D01*
X163661658Y-108328050D01*
X163774696Y-108385646D01*
X163900000Y-108405492D01*
X164025304Y-108385646D01*
X164138342Y-108328050D01*
X164228050Y-108238342D01*
X164261791Y-108172120D01*
X164305055Y-108128857D01*
X164365487Y-108119286D01*
X164420004Y-108147064D01*
X164438206Y-108172117D01*
X164471950Y-108238342D01*
X164561658Y-108328050D01*
X164674696Y-108385646D01*
X164800000Y-108405492D01*
X164925304Y-108385646D01*
X165038342Y-108328050D01*
X165128050Y-108238342D01*
X165185646Y-108125304D01*
X165205492Y-108000000D01*
X165185646Y-107874696D01*
X165128050Y-107761658D01*
X165038342Y-107671950D01*
X164972383Y-107638342D01*
X164925307Y-107614355D01*
X164925304Y-107614354D01*
X164800000Y-107594508D01*
X164674696Y-107614354D01*
X164674692Y-107614355D01*
X164561659Y-107671949D01*
X164471949Y-107761659D01*
X164438209Y-107827878D01*
X164394944Y-107871142D01*
X164334512Y-107880713D01*
X164279996Y-107852935D01*
X164261791Y-107827878D01*
X164250385Y-107805492D01*
X164228050Y-107761658D01*
X164138342Y-107671950D01*
X164072383Y-107638342D01*
X164025307Y-107614355D01*
X164025304Y-107614354D01*
X163900000Y-107594508D01*
X163774696Y-107614354D01*
X163774692Y-107614355D01*
X163661659Y-107671949D01*
X163571949Y-107761659D01*
X163514355Y-107874692D01*
X163514354Y-107874696D01*
X163494508Y-107999999D01*
X121700500Y-107999999D01*
X121700500Y-107399999D01*
X134094508Y-107399999D01*
X134094508Y-107400000D01*
X134114354Y-107525303D01*
X134114355Y-107525307D01*
X134115753Y-107528050D01*
X134171950Y-107638342D01*
X134261658Y-107728050D01*
X134374696Y-107785646D01*
X134500000Y-107805492D01*
X134625304Y-107785646D01*
X134738342Y-107728050D01*
X134828050Y-107638342D01*
X134885646Y-107525304D01*
X134905492Y-107400000D01*
X134905492Y-107399999D01*
X135594508Y-107399999D01*
X135594508Y-107400000D01*
X135614354Y-107525303D01*
X135614355Y-107525307D01*
X135615753Y-107528050D01*
X135671950Y-107638342D01*
X135761658Y-107728050D01*
X135874696Y-107785646D01*
X136000000Y-107805492D01*
X136125304Y-107785646D01*
X136238342Y-107728050D01*
X136328050Y-107638342D01*
X136385646Y-107525304D01*
X136405492Y-107400000D01*
X136385646Y-107274696D01*
X136347586Y-107199999D01*
X144594508Y-107199999D01*
X144594508Y-107200000D01*
X144614354Y-107325303D01*
X144614355Y-107325307D01*
X144652413Y-107399999D01*
X144671950Y-107438342D01*
X144761658Y-107528050D01*
X144874696Y-107585646D01*
X145000000Y-107605492D01*
X145125304Y-107585646D01*
X145238342Y-107528050D01*
X145328050Y-107438342D01*
X145385646Y-107325304D01*
X145389654Y-107299999D01*
X153594508Y-107299999D01*
X153594508Y-107300000D01*
X153614354Y-107425303D01*
X153614355Y-107425307D01*
X153620996Y-107438340D01*
X153671950Y-107538342D01*
X153761658Y-107628050D01*
X153874696Y-107685646D01*
X154000000Y-107705492D01*
X154125304Y-107685646D01*
X154238342Y-107628050D01*
X154328050Y-107538342D01*
X154385646Y-107425304D01*
X154405492Y-107300000D01*
X154389654Y-107199999D01*
X155094508Y-107199999D01*
X155094508Y-107200000D01*
X155114354Y-107325303D01*
X155114355Y-107325307D01*
X155152413Y-107399999D01*
X155171950Y-107438342D01*
X155261658Y-107528050D01*
X155374696Y-107585646D01*
X155500000Y-107605492D01*
X155625304Y-107585646D01*
X155738342Y-107528050D01*
X155828050Y-107438342D01*
X155885646Y-107325304D01*
X155905492Y-107200000D01*
X155905492Y-107199999D01*
X159494508Y-107199999D01*
X159494508Y-107200000D01*
X159514354Y-107325303D01*
X159514355Y-107325307D01*
X159552413Y-107399999D01*
X159571950Y-107438342D01*
X159661658Y-107528050D01*
X159774696Y-107585646D01*
X159900000Y-107605492D01*
X160025304Y-107585646D01*
X160138342Y-107528050D01*
X160228050Y-107438342D01*
X160285646Y-107325304D01*
X160305492Y-107200000D01*
X160285646Y-107074696D01*
X160228050Y-106961658D01*
X160138342Y-106871950D01*
X160134406Y-106869944D01*
X160025307Y-106814355D01*
X160025304Y-106814354D01*
X159900000Y-106794508D01*
X159774696Y-106814354D01*
X159774692Y-106814355D01*
X159661659Y-106871949D01*
X159571949Y-106961659D01*
X159514355Y-107074692D01*
X159514354Y-107074696D01*
X159494508Y-107199999D01*
X155905492Y-107199999D01*
X155885646Y-107074696D01*
X155828050Y-106961658D01*
X155738342Y-106871950D01*
X155734406Y-106869944D01*
X155625307Y-106814355D01*
X155625304Y-106814354D01*
X155500000Y-106794508D01*
X155374696Y-106814354D01*
X155374692Y-106814355D01*
X155261659Y-106871949D01*
X155171949Y-106961659D01*
X155114355Y-107074692D01*
X155114354Y-107074696D01*
X155094508Y-107199999D01*
X154389654Y-107199999D01*
X154385646Y-107174696D01*
X154328050Y-107061658D01*
X154238342Y-106971950D01*
X154218143Y-106961658D01*
X154125307Y-106914355D01*
X154125304Y-106914354D01*
X154000000Y-106894508D01*
X153874696Y-106914354D01*
X153874692Y-106914355D01*
X153761659Y-106971949D01*
X153671949Y-107061659D01*
X153614355Y-107174692D01*
X153614354Y-107174696D01*
X153594508Y-107299999D01*
X145389654Y-107299999D01*
X145405492Y-107200000D01*
X145385646Y-107074696D01*
X145328050Y-106961658D01*
X145238342Y-106871950D01*
X145234406Y-106869944D01*
X145125307Y-106814355D01*
X145125304Y-106814354D01*
X145000000Y-106794508D01*
X144874696Y-106814354D01*
X144874692Y-106814355D01*
X144761659Y-106871949D01*
X144671949Y-106961659D01*
X144614355Y-107074692D01*
X144614354Y-107074696D01*
X144594508Y-107199999D01*
X136347586Y-107199999D01*
X136328050Y-107161658D01*
X136238342Y-107071950D01*
X136218143Y-107061658D01*
X136125307Y-107014355D01*
X136125304Y-107014354D01*
X136000000Y-106994508D01*
X135874696Y-107014354D01*
X135874692Y-107014355D01*
X135761659Y-107071949D01*
X135671949Y-107161659D01*
X135614355Y-107274692D01*
X135614354Y-107274696D01*
X135594508Y-107399999D01*
X134905492Y-107399999D01*
X134885646Y-107274696D01*
X134828050Y-107161658D01*
X134738342Y-107071950D01*
X134718143Y-107061658D01*
X134625307Y-107014355D01*
X134625304Y-107014354D01*
X134500000Y-106994508D01*
X134374696Y-107014354D01*
X134374692Y-107014355D01*
X134261659Y-107071949D01*
X134171949Y-107161659D01*
X134114355Y-107274692D01*
X134114354Y-107274696D01*
X134094508Y-107399999D01*
X121700500Y-107399999D01*
X121700500Y-105599999D01*
X132394508Y-105599999D01*
X132394508Y-105600000D01*
X132414354Y-105725303D01*
X132414355Y-105725307D01*
X132415587Y-105727724D01*
X132471950Y-105838342D01*
X132561658Y-105928050D01*
X132674696Y-105985646D01*
X132800000Y-106005492D01*
X132925304Y-105985646D01*
X133038342Y-105928050D01*
X133128050Y-105838342D01*
X133185646Y-105725304D01*
X133205109Y-105602417D01*
X133993624Y-105602417D01*
X134009079Y-105700000D01*
X134013470Y-105727720D01*
X134013471Y-105727724D01*
X134063191Y-105825303D01*
X134071066Y-105840759D01*
X134160774Y-105930467D01*
X134273812Y-105988063D01*
X134399116Y-106007909D01*
X134524420Y-105988063D01*
X134637458Y-105930467D01*
X134727166Y-105840759D01*
X134784762Y-105727721D01*
X134804608Y-105602417D01*
X134784762Y-105477113D01*
X134727166Y-105364075D01*
X134637458Y-105274367D01*
X134632712Y-105271949D01*
X134524423Y-105216772D01*
X134524420Y-105216771D01*
X134399116Y-105196925D01*
X134273812Y-105216771D01*
X134273808Y-105216772D01*
X134160775Y-105274366D01*
X134071065Y-105364076D01*
X134013471Y-105477109D01*
X134013470Y-105477113D01*
X133998015Y-105574696D01*
X133993624Y-105602417D01*
X133205109Y-105602417D01*
X133205492Y-105600000D01*
X133185646Y-105474696D01*
X133128050Y-105361658D01*
X133038342Y-105271950D01*
X133034406Y-105269944D01*
X132925307Y-105214355D01*
X132925304Y-105214354D01*
X132800000Y-105194508D01*
X132674696Y-105214354D01*
X132674692Y-105214355D01*
X132561659Y-105271949D01*
X132471949Y-105361659D01*
X132414355Y-105474692D01*
X132414354Y-105474696D01*
X132394508Y-105599999D01*
X121700500Y-105599999D01*
X121700500Y-104099999D01*
X134194508Y-104099999D01*
X134194508Y-104100000D01*
X134214354Y-104225303D01*
X134214355Y-104225307D01*
X134265306Y-104325303D01*
X134271950Y-104338342D01*
X134361658Y-104428050D01*
X134474696Y-104485646D01*
X134600000Y-104505492D01*
X134725304Y-104485646D01*
X134838342Y-104428050D01*
X134928050Y-104338342D01*
X134985646Y-104225304D01*
X135005492Y-104100000D01*
X134985646Y-103974696D01*
X134928050Y-103861658D01*
X134838342Y-103771950D01*
X134834406Y-103769944D01*
X134725307Y-103714355D01*
X134725304Y-103714354D01*
X134600000Y-103694508D01*
X134474696Y-103714354D01*
X134474692Y-103714355D01*
X134361659Y-103771949D01*
X134271949Y-103861659D01*
X134214355Y-103974692D01*
X134214354Y-103974696D01*
X134194508Y-104099999D01*
X121700500Y-104099999D01*
X121700500Y-102899999D01*
X132594508Y-102899999D01*
X132594508Y-102900000D01*
X132614354Y-103025303D01*
X132614355Y-103025307D01*
X132620996Y-103038340D01*
X132671950Y-103138342D01*
X132761658Y-103228050D01*
X132874696Y-103285646D01*
X133000000Y-103305492D01*
X133125304Y-103285646D01*
X133238342Y-103228050D01*
X133328050Y-103138342D01*
X133385646Y-103025304D01*
X133405492Y-102900000D01*
X133385646Y-102774696D01*
X133328050Y-102661658D01*
X133238342Y-102571950D01*
X133218143Y-102561658D01*
X133125307Y-102514355D01*
X133125304Y-102514354D01*
X133000000Y-102494508D01*
X132874696Y-102514354D01*
X132874692Y-102514355D01*
X132761659Y-102571949D01*
X132671949Y-102661659D01*
X132614355Y-102774692D01*
X132614354Y-102774696D01*
X132594508Y-102899999D01*
X121700500Y-102899999D01*
X121700500Y-101199999D01*
X134094508Y-101199999D01*
X134094508Y-101200000D01*
X134114354Y-101325303D01*
X134114355Y-101325307D01*
X134165306Y-101425303D01*
X134171950Y-101438342D01*
X134261658Y-101528050D01*
X134374696Y-101585646D01*
X134500000Y-101605492D01*
X134625304Y-101585646D01*
X134738342Y-101528050D01*
X134828050Y-101438342D01*
X134885646Y-101325304D01*
X134905492Y-101200000D01*
X134885646Y-101074696D01*
X134828050Y-100961658D01*
X134738342Y-100871950D01*
X134734406Y-100869944D01*
X134625307Y-100814355D01*
X134625304Y-100814354D01*
X134500000Y-100794508D01*
X134374696Y-100814354D01*
X134374692Y-100814355D01*
X134261659Y-100871949D01*
X134171949Y-100961659D01*
X134114355Y-101074692D01*
X134114354Y-101074696D01*
X134094508Y-101199999D01*
X121700500Y-101199999D01*
X121700500Y-98199999D01*
X133969508Y-98199999D01*
X133969508Y-98200000D01*
X133989354Y-98325303D01*
X133989355Y-98325307D01*
X134024615Y-98394508D01*
X134046950Y-98438342D01*
X134136658Y-98528050D01*
X134249696Y-98585646D01*
X134375000Y-98605492D01*
X134500304Y-98585646D01*
X134613342Y-98528050D01*
X134703050Y-98438342D01*
X134760646Y-98325304D01*
X134780492Y-98200000D01*
X134760646Y-98074696D01*
X134703050Y-97961658D01*
X134613342Y-97871950D01*
X134609406Y-97869944D01*
X134500307Y-97814355D01*
X134500304Y-97814354D01*
X134375000Y-97794508D01*
X134249696Y-97814354D01*
X134249692Y-97814355D01*
X134136659Y-97871949D01*
X134046949Y-97961659D01*
X133989355Y-98074692D01*
X133989354Y-98074696D01*
X133969508Y-98199999D01*
X121700500Y-98199999D01*
X121700500Y-97009999D01*
X127004508Y-97009999D01*
X127004508Y-97010000D01*
X127024354Y-97135303D01*
X127024355Y-97135307D01*
X127024528Y-97135646D01*
X127081950Y-97248342D01*
X127171658Y-97338050D01*
X127284696Y-97395646D01*
X127410000Y-97415492D01*
X127535304Y-97395646D01*
X127648342Y-97338050D01*
X127738050Y-97248342D01*
X127795646Y-97135304D01*
X127815492Y-97010000D01*
X127795646Y-96884696D01*
X127738050Y-96771658D01*
X127716392Y-96750000D01*
X134094508Y-96750000D01*
X134111876Y-96859661D01*
X134114354Y-96875303D01*
X134114355Y-96875307D01*
X134156788Y-96958586D01*
X134171950Y-96988342D01*
X134261658Y-97078050D01*
X134374696Y-97135646D01*
X134500000Y-97155492D01*
X134625304Y-97135646D01*
X134738342Y-97078050D01*
X134828050Y-96988342D01*
X134885646Y-96875304D01*
X134905492Y-96750000D01*
X134885646Y-96624696D01*
X134828050Y-96511658D01*
X134738342Y-96421950D01*
X134734406Y-96419944D01*
X134625307Y-96364355D01*
X134625304Y-96364354D01*
X134500000Y-96344508D01*
X134374696Y-96364354D01*
X134374692Y-96364355D01*
X134261659Y-96421949D01*
X134171949Y-96511659D01*
X134114355Y-96624692D01*
X134114354Y-96624696D01*
X134094508Y-96750000D01*
X127716392Y-96750000D01*
X127648342Y-96681950D01*
X127644406Y-96679944D01*
X127535307Y-96624355D01*
X127535304Y-96624354D01*
X127410000Y-96604508D01*
X127284696Y-96624354D01*
X127284692Y-96624355D01*
X127171659Y-96681949D01*
X127081949Y-96771659D01*
X127024355Y-96884692D01*
X127024354Y-96884696D01*
X127004508Y-97009999D01*
X121700500Y-97009999D01*
X121700500Y-93999999D01*
X125994508Y-93999999D01*
X125994508Y-94000000D01*
X126014354Y-94125303D01*
X126014355Y-94125307D01*
X126071950Y-94238343D01*
X126074473Y-94241815D01*
X126093376Y-94300007D01*
X126074473Y-94358185D01*
X126071950Y-94361656D01*
X126014355Y-94474692D01*
X126014354Y-94474696D01*
X125994508Y-94599999D01*
X125994508Y-94600000D01*
X126014354Y-94725303D01*
X126014355Y-94725307D01*
X126071950Y-94838343D01*
X126074473Y-94841815D01*
X126093376Y-94900007D01*
X126074473Y-94958185D01*
X126071950Y-94961656D01*
X126014355Y-95074692D01*
X126014354Y-95074696D01*
X125994508Y-95199999D01*
X125994508Y-95200000D01*
X126014354Y-95325303D01*
X126014355Y-95325307D01*
X126046252Y-95387908D01*
X126071950Y-95438342D01*
X126161658Y-95528050D01*
X126274696Y-95585646D01*
X126400000Y-95605492D01*
X126525304Y-95585646D01*
X126638342Y-95528050D01*
X126654998Y-95511393D01*
X126709513Y-95483618D01*
X126769945Y-95493189D01*
X126795000Y-95511392D01*
X126811658Y-95528050D01*
X126924696Y-95585646D01*
X127050000Y-95605492D01*
X127175304Y-95585646D01*
X127288342Y-95528050D01*
X127378050Y-95438342D01*
X127435646Y-95325304D01*
X127439654Y-95299999D01*
X133969508Y-95299999D01*
X133969508Y-95300000D01*
X133989354Y-95425303D01*
X133989355Y-95425307D01*
X134033220Y-95511395D01*
X134046950Y-95538342D01*
X134136658Y-95628050D01*
X134249696Y-95685646D01*
X134375000Y-95705492D01*
X134500304Y-95685646D01*
X134613342Y-95628050D01*
X134703050Y-95538342D01*
X134760646Y-95425304D01*
X134780492Y-95300000D01*
X134760646Y-95174696D01*
X134703050Y-95061658D01*
X134613342Y-94971950D01*
X134586327Y-94958185D01*
X134500307Y-94914355D01*
X134500304Y-94914354D01*
X134375000Y-94894508D01*
X134249696Y-94914354D01*
X134249692Y-94914355D01*
X134136659Y-94971949D01*
X134046949Y-95061659D01*
X133989355Y-95174692D01*
X133989354Y-95174696D01*
X133969508Y-95299999D01*
X127439654Y-95299999D01*
X127455492Y-95200000D01*
X127435646Y-95074696D01*
X127378050Y-94961658D01*
X127378046Y-94961654D01*
X127375530Y-94958190D01*
X127356623Y-94900000D01*
X127375530Y-94841810D01*
X127378043Y-94838348D01*
X127378050Y-94838342D01*
X127435646Y-94725304D01*
X127455492Y-94600000D01*
X127435646Y-94474696D01*
X127378050Y-94361658D01*
X127378046Y-94361654D01*
X127375530Y-94358190D01*
X127356623Y-94300000D01*
X127375530Y-94241810D01*
X127378043Y-94238348D01*
X127378050Y-94238342D01*
X127435646Y-94125304D01*
X127455492Y-94000000D01*
X127435646Y-93874696D01*
X127378050Y-93761658D01*
X127316392Y-93700000D01*
X133969508Y-93700000D01*
X133978790Y-93758608D01*
X133989354Y-93825303D01*
X133989355Y-93825307D01*
X134041706Y-93928050D01*
X134046950Y-93938342D01*
X134136658Y-94028050D01*
X134249696Y-94085646D01*
X134375000Y-94105492D01*
X134500304Y-94085646D01*
X134613342Y-94028050D01*
X134703050Y-93938342D01*
X134760646Y-93825304D01*
X134780492Y-93700000D01*
X134760646Y-93574696D01*
X134703050Y-93461658D01*
X134613342Y-93371950D01*
X134593143Y-93361658D01*
X134500307Y-93314355D01*
X134500304Y-93314354D01*
X134375000Y-93294508D01*
X134249696Y-93314354D01*
X134249692Y-93314355D01*
X134136659Y-93371949D01*
X134046949Y-93461659D01*
X133989355Y-93574692D01*
X133989354Y-93574696D01*
X133969508Y-93700000D01*
X127316392Y-93700000D01*
X127288342Y-93671950D01*
X127284406Y-93669944D01*
X127175307Y-93614355D01*
X127175304Y-93614354D01*
X127050000Y-93594508D01*
X126924696Y-93614354D01*
X126924692Y-93614355D01*
X126811658Y-93671950D01*
X126811655Y-93671952D01*
X126795002Y-93688605D01*
X126740485Y-93716381D01*
X126680053Y-93706809D01*
X126654998Y-93688605D01*
X126638344Y-93671952D01*
X126638342Y-93671950D01*
X126582861Y-93643681D01*
X126525307Y-93614355D01*
X126525304Y-93614354D01*
X126400000Y-93594508D01*
X126274696Y-93614354D01*
X126274692Y-93614355D01*
X126161659Y-93671949D01*
X126071949Y-93761659D01*
X126014355Y-93874692D01*
X126014354Y-93874696D01*
X125994508Y-93999999D01*
X121700500Y-93999999D01*
X121700500Y-92199999D01*
X134094508Y-92199999D01*
X134094508Y-92200000D01*
X134114354Y-92325303D01*
X134114355Y-92325307D01*
X134169944Y-92434406D01*
X134171950Y-92438342D01*
X134261658Y-92528050D01*
X134374696Y-92585646D01*
X134500000Y-92605492D01*
X134625304Y-92585646D01*
X134738342Y-92528050D01*
X134828050Y-92438342D01*
X134885646Y-92325304D01*
X134905492Y-92200000D01*
X134885646Y-92074696D01*
X134828050Y-91961658D01*
X134738342Y-91871950D01*
X134734406Y-91869944D01*
X134625307Y-91814355D01*
X134625304Y-91814354D01*
X134500000Y-91794508D01*
X134374696Y-91814354D01*
X134374692Y-91814355D01*
X134261659Y-91871949D01*
X134171949Y-91961659D01*
X134114355Y-92074692D01*
X134114354Y-92074696D01*
X134094508Y-92199999D01*
X121700500Y-92199999D01*
X121700500Y-91049999D01*
X127444508Y-91049999D01*
X127444508Y-91050000D01*
X127464354Y-91175303D01*
X127464355Y-91175307D01*
X127519944Y-91284406D01*
X127521950Y-91288342D01*
X127611658Y-91378050D01*
X127724696Y-91435646D01*
X127850000Y-91455492D01*
X127975304Y-91435646D01*
X128088342Y-91378050D01*
X128116393Y-91349999D01*
X130344508Y-91349999D01*
X130344508Y-91350000D01*
X130364354Y-91475303D01*
X130364355Y-91475307D01*
X130419944Y-91584406D01*
X130421950Y-91588342D01*
X130511658Y-91678050D01*
X130624696Y-91735646D01*
X130750000Y-91755492D01*
X130875304Y-91735646D01*
X130988342Y-91678050D01*
X131078050Y-91588342D01*
X131135646Y-91475304D01*
X131155492Y-91350000D01*
X131135646Y-91224696D01*
X131078050Y-91111658D01*
X130988342Y-91021950D01*
X130922383Y-90988342D01*
X130875307Y-90964355D01*
X130875304Y-90964354D01*
X130750000Y-90944508D01*
X130624696Y-90964354D01*
X130624692Y-90964355D01*
X130511659Y-91021949D01*
X130421949Y-91111659D01*
X130364355Y-91224692D01*
X130364354Y-91224696D01*
X130344508Y-91349999D01*
X128116393Y-91349999D01*
X128178050Y-91288342D01*
X128235646Y-91175304D01*
X128255492Y-91050000D01*
X128235646Y-90924696D01*
X128178050Y-90811658D01*
X128166391Y-90799999D01*
X134494508Y-90799999D01*
X134494508Y-90800000D01*
X134514354Y-90925303D01*
X134514355Y-90925307D01*
X134563597Y-91021949D01*
X134571950Y-91038342D01*
X134661658Y-91128050D01*
X134774696Y-91185646D01*
X134900000Y-91205492D01*
X135025304Y-91185646D01*
X135138342Y-91128050D01*
X135228050Y-91038342D01*
X135285646Y-90925304D01*
X135305492Y-90800000D01*
X135285646Y-90674696D01*
X135228050Y-90561658D01*
X135144764Y-90478372D01*
X136399500Y-90478372D01*
X136399500Y-104521627D01*
X136434116Y-104762387D01*
X136434116Y-104762388D01*
X136502645Y-104995777D01*
X136502646Y-104995780D01*
X136502647Y-104995782D01*
X136603694Y-105217045D01*
X136735202Y-105421675D01*
X136735208Y-105421682D01*
X136735211Y-105421686D01*
X136894484Y-105605497D01*
X136894493Y-105605507D01*
X136894500Y-105605513D01*
X136894502Y-105605515D01*
X137035535Y-105727721D01*
X137078325Y-105764798D01*
X137282955Y-105896306D01*
X137504218Y-105997353D01*
X137737609Y-106065883D01*
X137827897Y-106078864D01*
X137978373Y-106100500D01*
X137978378Y-106100500D01*
X152021627Y-106100500D01*
X152155382Y-106081268D01*
X152262391Y-106065883D01*
X152495782Y-105997353D01*
X152717045Y-105896306D01*
X152921675Y-105764798D01*
X152996457Y-105699999D01*
X155094508Y-105699999D01*
X155094508Y-105700000D01*
X155114354Y-105825303D01*
X155114355Y-105825307D01*
X155150530Y-105896304D01*
X155171950Y-105938342D01*
X155261658Y-106028050D01*
X155374696Y-106085646D01*
X155500000Y-106105492D01*
X155625304Y-106085646D01*
X155738342Y-106028050D01*
X155828050Y-105938342D01*
X155885646Y-105825304D01*
X155905492Y-105700000D01*
X155905492Y-105699999D01*
X159594508Y-105699999D01*
X159594508Y-105700000D01*
X159614354Y-105825303D01*
X159614355Y-105825307D01*
X159650530Y-105896304D01*
X159671950Y-105938342D01*
X159761658Y-106028050D01*
X159874696Y-106085646D01*
X160000000Y-106105492D01*
X160125304Y-106085646D01*
X160238342Y-106028050D01*
X160328050Y-105938342D01*
X160385646Y-105825304D01*
X160405492Y-105700000D01*
X160385646Y-105574696D01*
X160328050Y-105461658D01*
X160238342Y-105371950D01*
X160234406Y-105369944D01*
X160125307Y-105314355D01*
X160125304Y-105314354D01*
X160000000Y-105294508D01*
X159874696Y-105314354D01*
X159874692Y-105314355D01*
X159761659Y-105371949D01*
X159671949Y-105461659D01*
X159614355Y-105574692D01*
X159614354Y-105574696D01*
X159594508Y-105699999D01*
X155905492Y-105699999D01*
X155885646Y-105574696D01*
X155828050Y-105461658D01*
X155738342Y-105371950D01*
X155734406Y-105369944D01*
X155625307Y-105314355D01*
X155625304Y-105314354D01*
X155500000Y-105294508D01*
X155374696Y-105314354D01*
X155374692Y-105314355D01*
X155261659Y-105371949D01*
X155171949Y-105461659D01*
X155114355Y-105574692D01*
X155114354Y-105574696D01*
X155094508Y-105699999D01*
X152996457Y-105699999D01*
X153105507Y-105605507D01*
X153264798Y-105421675D01*
X153396306Y-105217045D01*
X153497353Y-104995782D01*
X153565883Y-104762391D01*
X153581268Y-104655382D01*
X153600500Y-104521627D01*
X153600500Y-104199999D01*
X155094508Y-104199999D01*
X155094508Y-104200000D01*
X155114354Y-104325303D01*
X155114355Y-104325307D01*
X155152414Y-104400000D01*
X155171950Y-104438342D01*
X155261658Y-104528050D01*
X155374696Y-104585646D01*
X155500000Y-104605492D01*
X155625304Y-104585646D01*
X155738342Y-104528050D01*
X155828050Y-104438342D01*
X155885646Y-104325304D01*
X155905492Y-104200000D01*
X155885646Y-104074696D01*
X155828050Y-103961658D01*
X155738342Y-103871950D01*
X155718143Y-103861658D01*
X155625307Y-103814355D01*
X155625304Y-103814354D01*
X155500000Y-103794508D01*
X155374696Y-103814354D01*
X155374692Y-103814355D01*
X155261659Y-103871949D01*
X155171949Y-103961659D01*
X155114355Y-104074692D01*
X155114354Y-104074696D01*
X155094508Y-104199999D01*
X153600500Y-104199999D01*
X153600500Y-102799999D01*
X155094508Y-102799999D01*
X155094508Y-102800000D01*
X155114354Y-102925303D01*
X155114355Y-102925307D01*
X155165306Y-103025303D01*
X155171950Y-103038342D01*
X155261658Y-103128050D01*
X155374696Y-103185646D01*
X155500000Y-103205492D01*
X155625304Y-103185646D01*
X155738342Y-103128050D01*
X155828050Y-103038342D01*
X155885646Y-102925304D01*
X155905492Y-102800000D01*
X155885646Y-102674696D01*
X155828050Y-102561658D01*
X155738342Y-102471950D01*
X155734406Y-102469944D01*
X155625307Y-102414355D01*
X155625304Y-102414354D01*
X155500000Y-102394508D01*
X155374696Y-102414354D01*
X155374692Y-102414355D01*
X155261659Y-102471949D01*
X155171949Y-102561659D01*
X155114355Y-102674692D01*
X155114354Y-102674696D01*
X155094508Y-102799999D01*
X153600500Y-102799999D01*
X153600500Y-101299999D01*
X165594508Y-101299999D01*
X165594508Y-101300000D01*
X165614354Y-101425303D01*
X165614355Y-101425307D01*
X165666706Y-101528050D01*
X165671950Y-101538342D01*
X165761658Y-101628050D01*
X165874696Y-101685646D01*
X166000000Y-101705492D01*
X166125304Y-101685646D01*
X166238342Y-101628050D01*
X166279998Y-101586393D01*
X166334513Y-101558618D01*
X166394945Y-101568189D01*
X166420000Y-101586392D01*
X166461658Y-101628050D01*
X166574696Y-101685646D01*
X166700000Y-101705492D01*
X166825304Y-101685646D01*
X166938342Y-101628050D01*
X166979998Y-101586393D01*
X167034513Y-101558618D01*
X167094945Y-101568189D01*
X167120000Y-101586392D01*
X167161658Y-101628050D01*
X167274696Y-101685646D01*
X167400000Y-101705492D01*
X167525304Y-101685646D01*
X167638342Y-101628050D01*
X167728050Y-101538342D01*
X167785646Y-101425304D01*
X167805492Y-101300000D01*
X167785646Y-101174696D01*
X167728050Y-101061658D01*
X167638342Y-100971950D01*
X167618143Y-100961658D01*
X167525307Y-100914355D01*
X167525304Y-100914354D01*
X167400000Y-100894508D01*
X167274696Y-100914354D01*
X167274692Y-100914355D01*
X167161659Y-100971949D01*
X167161658Y-100971949D01*
X167161658Y-100971950D01*
X167120001Y-101013606D01*
X167065487Y-101041382D01*
X167005055Y-101031811D01*
X166979999Y-101013607D01*
X166938342Y-100971950D01*
X166918143Y-100961658D01*
X166825307Y-100914355D01*
X166825304Y-100914354D01*
X166700000Y-100894508D01*
X166574696Y-100914354D01*
X166574692Y-100914355D01*
X166461659Y-100971949D01*
X166461658Y-100971949D01*
X166461658Y-100971950D01*
X166420001Y-101013606D01*
X166365487Y-101041382D01*
X166305055Y-101031811D01*
X166279999Y-101013607D01*
X166238342Y-100971950D01*
X166218143Y-100961658D01*
X166125307Y-100914355D01*
X166125304Y-100914354D01*
X166000000Y-100894508D01*
X165874696Y-100914354D01*
X165874692Y-100914355D01*
X165761659Y-100971949D01*
X165671949Y-101061659D01*
X165614355Y-101174692D01*
X165614354Y-101174696D01*
X165594508Y-101299999D01*
X153600500Y-101299999D01*
X153600500Y-99799999D01*
X155094508Y-99799999D01*
X155094508Y-99800000D01*
X155114354Y-99925303D01*
X155114355Y-99925307D01*
X155169944Y-100034406D01*
X155171950Y-100038342D01*
X155261658Y-100128050D01*
X155374696Y-100185646D01*
X155500000Y-100205492D01*
X155625304Y-100185646D01*
X155738342Y-100128050D01*
X155828050Y-100038342D01*
X155885646Y-99925304D01*
X155905492Y-99800000D01*
X155885646Y-99674696D01*
X155828050Y-99561658D01*
X155738342Y-99471950D01*
X155734406Y-99469944D01*
X155625307Y-99414355D01*
X155625304Y-99414354D01*
X155500000Y-99394508D01*
X155374696Y-99414354D01*
X155374692Y-99414355D01*
X155261659Y-99471949D01*
X155171949Y-99561659D01*
X155114355Y-99674692D01*
X155114354Y-99674696D01*
X155094508Y-99799999D01*
X153600500Y-99799999D01*
X153600500Y-98799999D01*
X164494508Y-98799999D01*
X164494508Y-98800000D01*
X164514354Y-98925303D01*
X164514355Y-98925307D01*
X164569944Y-99034406D01*
X164571950Y-99038342D01*
X164661658Y-99128050D01*
X164774696Y-99185646D01*
X164900000Y-99205492D01*
X165025304Y-99185646D01*
X165138342Y-99128050D01*
X165228050Y-99038342D01*
X165285646Y-98925304D01*
X165305492Y-98800000D01*
X165285646Y-98674696D01*
X165228050Y-98561658D01*
X165138342Y-98471950D01*
X165072383Y-98438342D01*
X165025307Y-98414355D01*
X165025304Y-98414354D01*
X164900000Y-98394508D01*
X164774696Y-98414354D01*
X164774692Y-98414355D01*
X164661659Y-98471949D01*
X164571949Y-98561659D01*
X164514355Y-98674692D01*
X164514354Y-98674696D01*
X164494508Y-98799999D01*
X153600500Y-98799999D01*
X153600500Y-98300000D01*
X155094508Y-98300000D01*
X155109476Y-98394508D01*
X155114354Y-98425303D01*
X155114355Y-98425307D01*
X155138121Y-98471949D01*
X155171950Y-98538342D01*
X155261658Y-98628050D01*
X155374696Y-98685646D01*
X155500000Y-98705492D01*
X155625304Y-98685646D01*
X155738342Y-98628050D01*
X155828050Y-98538342D01*
X155885646Y-98425304D01*
X155905492Y-98300000D01*
X155897573Y-98250000D01*
X158595131Y-98250000D01*
X158612500Y-98359661D01*
X158662905Y-98458587D01*
X158741413Y-98537095D01*
X158840339Y-98587500D01*
X158950000Y-98604869D01*
X159059661Y-98587500D01*
X159158587Y-98537095D01*
X159179998Y-98515683D01*
X159234513Y-98487908D01*
X159294945Y-98497479D01*
X159320000Y-98515682D01*
X159341413Y-98537095D01*
X159440339Y-98587500D01*
X159550000Y-98604869D01*
X159659661Y-98587500D01*
X159758587Y-98537095D01*
X159837095Y-98458587D01*
X159887500Y-98359661D01*
X159904869Y-98250000D01*
X159887500Y-98140339D01*
X159837095Y-98041413D01*
X159758587Y-97962905D01*
X159659661Y-97912500D01*
X159550000Y-97895131D01*
X159440338Y-97912500D01*
X159343860Y-97961658D01*
X159341413Y-97962905D01*
X159320001Y-97984316D01*
X159265487Y-98012092D01*
X159205055Y-98002521D01*
X159179999Y-97984317D01*
X159158587Y-97962905D01*
X159059661Y-97912500D01*
X158950000Y-97895131D01*
X158840338Y-97912500D01*
X158741413Y-97962905D01*
X158662905Y-98041413D01*
X158612500Y-98140338D01*
X158603051Y-98199999D01*
X158595131Y-98250000D01*
X155897573Y-98250000D01*
X155885646Y-98174696D01*
X155828050Y-98061658D01*
X155738342Y-97971950D01*
X155718143Y-97961658D01*
X155625307Y-97914355D01*
X155625304Y-97914354D01*
X155500000Y-97894508D01*
X155374696Y-97914354D01*
X155374692Y-97914355D01*
X155261659Y-97971949D01*
X155171949Y-98061659D01*
X155114355Y-98174692D01*
X155114354Y-98174696D01*
X155094508Y-98300000D01*
X153600500Y-98300000D01*
X153600500Y-96699999D01*
X155094508Y-96699999D01*
X155094508Y-96700000D01*
X155114354Y-96825303D01*
X155114355Y-96825307D01*
X155145838Y-96887095D01*
X155171950Y-96938342D01*
X155261658Y-97028050D01*
X155374696Y-97085646D01*
X155500000Y-97105492D01*
X155625304Y-97085646D01*
X155738342Y-97028050D01*
X155828050Y-96938342D01*
X155885646Y-96825304D01*
X155897573Y-96750000D01*
X158595131Y-96750000D01*
X158612500Y-96859661D01*
X158662905Y-96958587D01*
X158741413Y-97037095D01*
X158840339Y-97087500D01*
X158950000Y-97104869D01*
X159059661Y-97087500D01*
X159158587Y-97037095D01*
X159179998Y-97015683D01*
X159234513Y-96987908D01*
X159294945Y-96997479D01*
X159320000Y-97015682D01*
X159341413Y-97037095D01*
X159440339Y-97087500D01*
X159550000Y-97104869D01*
X159659661Y-97087500D01*
X159758587Y-97037095D01*
X159837095Y-96958587D01*
X159887500Y-96859661D01*
X159904869Y-96750000D01*
X159887500Y-96640339D01*
X159837095Y-96541413D01*
X159758587Y-96462905D01*
X159659661Y-96412500D01*
X159550000Y-96395131D01*
X159440338Y-96412500D01*
X159343860Y-96461658D01*
X159341413Y-96462905D01*
X159320001Y-96484316D01*
X159265487Y-96512092D01*
X159205055Y-96502521D01*
X159179999Y-96484317D01*
X159158587Y-96462905D01*
X159059661Y-96412500D01*
X158950000Y-96395131D01*
X158840338Y-96412500D01*
X158741413Y-96462905D01*
X158662905Y-96541413D01*
X158612500Y-96640338D01*
X158603051Y-96699999D01*
X158595131Y-96750000D01*
X155897573Y-96750000D01*
X155905492Y-96700000D01*
X155885646Y-96574696D01*
X155828050Y-96461658D01*
X155738342Y-96371950D01*
X155685342Y-96344945D01*
X155625307Y-96314355D01*
X155625304Y-96314354D01*
X155500000Y-96294508D01*
X155374696Y-96314354D01*
X155374692Y-96314355D01*
X155261659Y-96371949D01*
X155171949Y-96461659D01*
X155114355Y-96574692D01*
X155114354Y-96574696D01*
X155094508Y-96699999D01*
X153600500Y-96699999D01*
X153600500Y-96000000D01*
X161345131Y-96000000D01*
X161362500Y-96109661D01*
X161412905Y-96208587D01*
X161434316Y-96229998D01*
X161462092Y-96284513D01*
X161452521Y-96344945D01*
X161434317Y-96370000D01*
X161412905Y-96391413D01*
X161362500Y-96490338D01*
X161359055Y-96512092D01*
X161345131Y-96600000D01*
X161362500Y-96709661D01*
X161412905Y-96808587D01*
X161491413Y-96887095D01*
X161590339Y-96937500D01*
X161700000Y-96954869D01*
X161809661Y-96937500D01*
X161908587Y-96887095D01*
X161987095Y-96808587D01*
X162037500Y-96709661D01*
X162054869Y-96600000D01*
X162037500Y-96490339D01*
X161987095Y-96391413D01*
X161965683Y-96370001D01*
X161937908Y-96315487D01*
X161947479Y-96255055D01*
X161965682Y-96229999D01*
X161987095Y-96208587D01*
X162037500Y-96109661D01*
X162054869Y-96000000D01*
X162037500Y-95890339D01*
X161987095Y-95791413D01*
X161908587Y-95712905D01*
X161809661Y-95662500D01*
X161700000Y-95645131D01*
X161590338Y-95662500D01*
X161491413Y-95712905D01*
X161412905Y-95791413D01*
X161362500Y-95890338D01*
X161362500Y-95890339D01*
X161345131Y-96000000D01*
X153600500Y-96000000D01*
X153600500Y-95199999D01*
X155094508Y-95199999D01*
X155094508Y-95200000D01*
X155114354Y-95325303D01*
X155114355Y-95325307D01*
X155146252Y-95387908D01*
X155171950Y-95438342D01*
X155261658Y-95528050D01*
X155374696Y-95585646D01*
X155500000Y-95605492D01*
X155625304Y-95585646D01*
X155738342Y-95528050D01*
X155828050Y-95438342D01*
X155885646Y-95325304D01*
X155905492Y-95200000D01*
X155897573Y-95150000D01*
X158595131Y-95150000D01*
X158612500Y-95259661D01*
X158662905Y-95358587D01*
X158741413Y-95437095D01*
X158840339Y-95487500D01*
X158950000Y-95504869D01*
X159059661Y-95487500D01*
X159158587Y-95437095D01*
X159179998Y-95415683D01*
X159234513Y-95387908D01*
X159294945Y-95397479D01*
X159320000Y-95415682D01*
X159341413Y-95437095D01*
X159440339Y-95487500D01*
X159550000Y-95504869D01*
X159659661Y-95487500D01*
X159758587Y-95437095D01*
X159837095Y-95358587D01*
X159887500Y-95259661D01*
X159904869Y-95150000D01*
X159887500Y-95040339D01*
X159837095Y-94941413D01*
X159758587Y-94862905D01*
X159659661Y-94812500D01*
X159550000Y-94795131D01*
X159440338Y-94812500D01*
X159341413Y-94862905D01*
X159320001Y-94884316D01*
X159265487Y-94912092D01*
X159205055Y-94902521D01*
X159179999Y-94884317D01*
X159158587Y-94862905D01*
X159059661Y-94812500D01*
X158950000Y-94795131D01*
X158840338Y-94812500D01*
X158741413Y-94862905D01*
X158662905Y-94941413D01*
X158612500Y-95040338D01*
X158612500Y-95040339D01*
X158595131Y-95150000D01*
X155897573Y-95150000D01*
X155885646Y-95074696D01*
X155828050Y-94961658D01*
X155738342Y-94871950D01*
X155720590Y-94862905D01*
X155625307Y-94814355D01*
X155625304Y-94814354D01*
X155500000Y-94794508D01*
X155374696Y-94814354D01*
X155374692Y-94814355D01*
X155261659Y-94871949D01*
X155171949Y-94961659D01*
X155114355Y-95074692D01*
X155114354Y-95074696D01*
X155094508Y-95199999D01*
X153600500Y-95199999D01*
X153600500Y-93600000D01*
X155094508Y-93600000D01*
X155105903Y-93671949D01*
X155114354Y-93725303D01*
X155114355Y-93725307D01*
X155131323Y-93758608D01*
X155171950Y-93838342D01*
X155261658Y-93928050D01*
X155374696Y-93985646D01*
X155500000Y-94005492D01*
X155625304Y-93985646D01*
X155738342Y-93928050D01*
X155828050Y-93838342D01*
X155885646Y-93725304D01*
X155905492Y-93600000D01*
X155885646Y-93474696D01*
X155828050Y-93361658D01*
X155738342Y-93271950D01*
X155734406Y-93269944D01*
X155625307Y-93214355D01*
X155625304Y-93214354D01*
X155534675Y-93200000D01*
X158595131Y-93200000D01*
X158612500Y-93309661D01*
X158662905Y-93408587D01*
X158741413Y-93487095D01*
X158840339Y-93537500D01*
X158950000Y-93554869D01*
X159059661Y-93537500D01*
X159158587Y-93487095D01*
X159179998Y-93465683D01*
X159234513Y-93437908D01*
X159294945Y-93447479D01*
X159320000Y-93465682D01*
X159341413Y-93487095D01*
X159440339Y-93537500D01*
X159550000Y-93554869D01*
X159659661Y-93537500D01*
X159758587Y-93487095D01*
X159837095Y-93408587D01*
X159887500Y-93309661D01*
X159904869Y-93200000D01*
X159887500Y-93090339D01*
X159837095Y-92991413D01*
X159758587Y-92912905D01*
X159659661Y-92862500D01*
X159550000Y-92845131D01*
X159440338Y-92862500D01*
X159341413Y-92912905D01*
X159320001Y-92934316D01*
X159265487Y-92962092D01*
X159205055Y-92952521D01*
X159179999Y-92934317D01*
X159158587Y-92912905D01*
X159059661Y-92862500D01*
X158950000Y-92845131D01*
X158840338Y-92862500D01*
X158741413Y-92912905D01*
X158662905Y-92991413D01*
X158612500Y-93090338D01*
X158612500Y-93090339D01*
X158595131Y-93200000D01*
X155534675Y-93200000D01*
X155500000Y-93194508D01*
X155374696Y-93214354D01*
X155374692Y-93214355D01*
X155261659Y-93271949D01*
X155171949Y-93361659D01*
X155114355Y-93474692D01*
X155114354Y-93474696D01*
X155094508Y-93600000D01*
X153600500Y-93600000D01*
X153600500Y-90799999D01*
X155094508Y-90799999D01*
X155094508Y-90800000D01*
X155114354Y-90925303D01*
X155114355Y-90925307D01*
X155163597Y-91021949D01*
X155171950Y-91038342D01*
X155261658Y-91128050D01*
X155374696Y-91185646D01*
X155500000Y-91205492D01*
X155625304Y-91185646D01*
X155738342Y-91128050D01*
X155828050Y-91038342D01*
X155885646Y-90925304D01*
X155905492Y-90800000D01*
X155897573Y-90749999D01*
X159344508Y-90749999D01*
X159344508Y-90750000D01*
X159364354Y-90875303D01*
X159364355Y-90875307D01*
X159389830Y-90925303D01*
X159421950Y-90988342D01*
X159511658Y-91078050D01*
X159624696Y-91135646D01*
X159750000Y-91155492D01*
X159875304Y-91135646D01*
X159988342Y-91078050D01*
X160078050Y-90988342D01*
X160135646Y-90875304D01*
X160155492Y-90750000D01*
X160135646Y-90624696D01*
X160078050Y-90511658D01*
X159988342Y-90421950D01*
X159938812Y-90396713D01*
X159875307Y-90364355D01*
X159875304Y-90364354D01*
X159750000Y-90344508D01*
X159624696Y-90364354D01*
X159624692Y-90364355D01*
X159511659Y-90421949D01*
X159421949Y-90511659D01*
X159364355Y-90624692D01*
X159364354Y-90624696D01*
X159344508Y-90749999D01*
X155897573Y-90749999D01*
X155885646Y-90674696D01*
X155828050Y-90561658D01*
X155738342Y-90471950D01*
X155734406Y-90469944D01*
X155625307Y-90414355D01*
X155625304Y-90414354D01*
X155500000Y-90394508D01*
X155374696Y-90414354D01*
X155374692Y-90414355D01*
X155261659Y-90471949D01*
X155171949Y-90561659D01*
X155114355Y-90674692D01*
X155114354Y-90674696D01*
X155094508Y-90799999D01*
X153600500Y-90799999D01*
X153600500Y-90478372D01*
X153565883Y-90237612D01*
X153565883Y-90237611D01*
X153565883Y-90237609D01*
X153497353Y-90004218D01*
X153396306Y-89782955D01*
X153264798Y-89578325D01*
X153239112Y-89548682D01*
X153105515Y-89394502D01*
X153105513Y-89394500D01*
X153105507Y-89394493D01*
X153105497Y-89394484D01*
X152996457Y-89300000D01*
X156594508Y-89300000D01*
X156609475Y-89394502D01*
X156614354Y-89425303D01*
X156614355Y-89425307D01*
X156666706Y-89528050D01*
X156671950Y-89538342D01*
X156761658Y-89628050D01*
X156874696Y-89685646D01*
X157000000Y-89705492D01*
X157125304Y-89685646D01*
X157238342Y-89628050D01*
X157328050Y-89538342D01*
X157385646Y-89425304D01*
X157405492Y-89300000D01*
X157397573Y-89249999D01*
X159594508Y-89249999D01*
X159594508Y-89250000D01*
X159614354Y-89375303D01*
X159614355Y-89375307D01*
X159648407Y-89442137D01*
X159671950Y-89488342D01*
X159761658Y-89578050D01*
X159874696Y-89635646D01*
X160000000Y-89655492D01*
X160125304Y-89635646D01*
X160238342Y-89578050D01*
X160328050Y-89488342D01*
X160385646Y-89375304D01*
X160405492Y-89250000D01*
X160385646Y-89124696D01*
X160328050Y-89011658D01*
X160238342Y-88921950D01*
X160194282Y-88899500D01*
X160125307Y-88864355D01*
X160125304Y-88864354D01*
X160000000Y-88844508D01*
X159874696Y-88864354D01*
X159874692Y-88864355D01*
X159761659Y-88921949D01*
X159671949Y-89011659D01*
X159614355Y-89124692D01*
X159614354Y-89124696D01*
X159594508Y-89249999D01*
X157397573Y-89249999D01*
X157385646Y-89174696D01*
X157328050Y-89061658D01*
X157238342Y-88971950D01*
X157218143Y-88961658D01*
X157125307Y-88914355D01*
X157125304Y-88914354D01*
X157000000Y-88894508D01*
X156874696Y-88914354D01*
X156874692Y-88914355D01*
X156761659Y-88971949D01*
X156671949Y-89061659D01*
X156614355Y-89174692D01*
X156614354Y-89174696D01*
X156594508Y-89300000D01*
X152996457Y-89300000D01*
X152921686Y-89235211D01*
X152921682Y-89235208D01*
X152921675Y-89235202D01*
X152749725Y-89124696D01*
X152717047Y-89103695D01*
X152653539Y-89074692D01*
X152495782Y-89002647D01*
X152495780Y-89002646D01*
X152495777Y-89002645D01*
X152320046Y-88951046D01*
X152262391Y-88934117D01*
X152262389Y-88934116D01*
X152262387Y-88934116D01*
X152021627Y-88899500D01*
X152021622Y-88899500D01*
X151939882Y-88899500D01*
X138139882Y-88899500D01*
X138100000Y-88899500D01*
X137978378Y-88899500D01*
X137978373Y-88899500D01*
X137737612Y-88934116D01*
X137737611Y-88934116D01*
X137504222Y-89002645D01*
X137484484Y-89011659D01*
X137282955Y-89103694D01*
X137282953Y-89103695D01*
X137282952Y-89103695D01*
X137172480Y-89174692D01*
X137078325Y-89235202D01*
X137078324Y-89235203D01*
X137078313Y-89235211D01*
X136894502Y-89394484D01*
X136894484Y-89394502D01*
X136735211Y-89578313D01*
X136735203Y-89578323D01*
X136735202Y-89578325D01*
X136730498Y-89585645D01*
X136603695Y-89782952D01*
X136603695Y-89782953D01*
X136502645Y-90004222D01*
X136434116Y-90237611D01*
X136434116Y-90237612D01*
X136399500Y-90478372D01*
X135144764Y-90478372D01*
X135138342Y-90471950D01*
X135134406Y-90469944D01*
X135025307Y-90414355D01*
X135025304Y-90414354D01*
X134900000Y-90394508D01*
X134774696Y-90414354D01*
X134774692Y-90414355D01*
X134661659Y-90471949D01*
X134571949Y-90561659D01*
X134514355Y-90674692D01*
X134514354Y-90674696D01*
X134494508Y-90799999D01*
X128166391Y-90799999D01*
X128088342Y-90721950D01*
X128084406Y-90719944D01*
X127975307Y-90664355D01*
X127975304Y-90664354D01*
X127850000Y-90644508D01*
X127724696Y-90664354D01*
X127724692Y-90664355D01*
X127611659Y-90721949D01*
X127521949Y-90811659D01*
X127464355Y-90924692D01*
X127464354Y-90924696D01*
X127444508Y-91049999D01*
X121700500Y-91049999D01*
X121700500Y-89200000D01*
X132594508Y-89200000D01*
X132612959Y-89316499D01*
X132614354Y-89325303D01*
X132614355Y-89325307D01*
X132639830Y-89375303D01*
X132671950Y-89438342D01*
X132761658Y-89528050D01*
X132874696Y-89585646D01*
X133000000Y-89605492D01*
X133125304Y-89585646D01*
X133238342Y-89528050D01*
X133328050Y-89438342D01*
X133385646Y-89325304D01*
X133389654Y-89300000D01*
X134094508Y-89300000D01*
X134109475Y-89394502D01*
X134114354Y-89425303D01*
X134114355Y-89425307D01*
X134166706Y-89528050D01*
X134171950Y-89538342D01*
X134261658Y-89628050D01*
X134374696Y-89685646D01*
X134500000Y-89705492D01*
X134625304Y-89685646D01*
X134738342Y-89628050D01*
X134828050Y-89538342D01*
X134885646Y-89425304D01*
X134905492Y-89300000D01*
X134885646Y-89174696D01*
X134828050Y-89061658D01*
X134738342Y-88971950D01*
X134718143Y-88961658D01*
X134625307Y-88914355D01*
X134625304Y-88914354D01*
X134500000Y-88894508D01*
X134374696Y-88914354D01*
X134374692Y-88914355D01*
X134261659Y-88971949D01*
X134171949Y-89061659D01*
X134114355Y-89174692D01*
X134114354Y-89174696D01*
X134094508Y-89300000D01*
X133389654Y-89300000D01*
X133405492Y-89200000D01*
X133385646Y-89074696D01*
X133328050Y-88961658D01*
X133238342Y-88871950D01*
X133223434Y-88864354D01*
X133125307Y-88814355D01*
X133125304Y-88814354D01*
X133000000Y-88794508D01*
X132874696Y-88814354D01*
X132874692Y-88814355D01*
X132761659Y-88871949D01*
X132671949Y-88961659D01*
X132614355Y-89074692D01*
X132614354Y-89074696D01*
X132594508Y-89200000D01*
X121700500Y-89200000D01*
X121700500Y-87799999D01*
X134094508Y-87799999D01*
X134094508Y-87800000D01*
X134114354Y-87925303D01*
X134114355Y-87925307D01*
X134166706Y-88028050D01*
X134171950Y-88038342D01*
X134261658Y-88128050D01*
X134374696Y-88185646D01*
X134500000Y-88205492D01*
X134625304Y-88185646D01*
X134738342Y-88128050D01*
X134828050Y-88038342D01*
X134885646Y-87925304D01*
X134905492Y-87800000D01*
X134889654Y-87699999D01*
X135594508Y-87699999D01*
X135594508Y-87700000D01*
X135614354Y-87825303D01*
X135614355Y-87825307D01*
X135639830Y-87875303D01*
X135671950Y-87938342D01*
X135761658Y-88028050D01*
X135874696Y-88085646D01*
X136000000Y-88105492D01*
X136125304Y-88085646D01*
X136238342Y-88028050D01*
X136328050Y-87938342D01*
X136385646Y-87825304D01*
X136405492Y-87700000D01*
X136385646Y-87574696D01*
X136328050Y-87461658D01*
X136316391Y-87449999D01*
X144594508Y-87449999D01*
X144594508Y-87450000D01*
X144614354Y-87575303D01*
X144614355Y-87575307D01*
X144664995Y-87674692D01*
X144671950Y-87688342D01*
X144761658Y-87778050D01*
X144874696Y-87835646D01*
X145000000Y-87855492D01*
X145125304Y-87835646D01*
X145238342Y-87778050D01*
X145266393Y-87749999D01*
X153594508Y-87749999D01*
X153594508Y-87750000D01*
X153614354Y-87875303D01*
X153614355Y-87875307D01*
X153669944Y-87984406D01*
X153671950Y-87988342D01*
X153761658Y-88078050D01*
X153874696Y-88135646D01*
X154000000Y-88155492D01*
X154125304Y-88135646D01*
X154238342Y-88078050D01*
X154328050Y-87988342D01*
X154385646Y-87875304D01*
X154405492Y-87750000D01*
X154397573Y-87699999D01*
X154694508Y-87699999D01*
X154694508Y-87700000D01*
X154714354Y-87825303D01*
X154714355Y-87825307D01*
X154739830Y-87875303D01*
X154771950Y-87938342D01*
X154861658Y-88028050D01*
X154974696Y-88085646D01*
X155100000Y-88105492D01*
X155225304Y-88085646D01*
X155338342Y-88028050D01*
X155428050Y-87938342D01*
X155485646Y-87825304D01*
X155505492Y-87700000D01*
X155485646Y-87574696D01*
X155428050Y-87461658D01*
X155338342Y-87371950D01*
X155323434Y-87364354D01*
X155225307Y-87314355D01*
X155225304Y-87314354D01*
X155100000Y-87294508D01*
X154974696Y-87314354D01*
X154974692Y-87314355D01*
X154861659Y-87371949D01*
X154771949Y-87461659D01*
X154714355Y-87574692D01*
X154714354Y-87574696D01*
X154694508Y-87699999D01*
X154397573Y-87699999D01*
X154385646Y-87624696D01*
X154328050Y-87511658D01*
X154238342Y-87421950D01*
X154223434Y-87414354D01*
X154125307Y-87364355D01*
X154125304Y-87364354D01*
X154000000Y-87344508D01*
X153874696Y-87364354D01*
X153874692Y-87364355D01*
X153761659Y-87421949D01*
X153671949Y-87511659D01*
X153614355Y-87624692D01*
X153614354Y-87624696D01*
X153594508Y-87749999D01*
X145266393Y-87749999D01*
X145328050Y-87688342D01*
X145385646Y-87575304D01*
X145405492Y-87450000D01*
X145385646Y-87324696D01*
X145328050Y-87211658D01*
X145238342Y-87121950D01*
X145195261Y-87099999D01*
X145125307Y-87064355D01*
X145125304Y-87064354D01*
X145000000Y-87044508D01*
X144874696Y-87064354D01*
X144874692Y-87064355D01*
X144761659Y-87121949D01*
X144671949Y-87211659D01*
X144614355Y-87324692D01*
X144614354Y-87324696D01*
X144594508Y-87449999D01*
X136316391Y-87449999D01*
X136238342Y-87371950D01*
X136223434Y-87364354D01*
X136125307Y-87314355D01*
X136125304Y-87314354D01*
X136000000Y-87294508D01*
X135874696Y-87314354D01*
X135874692Y-87314355D01*
X135761659Y-87371949D01*
X135671949Y-87461659D01*
X135614355Y-87574692D01*
X135614354Y-87574696D01*
X135594508Y-87699999D01*
X134889654Y-87699999D01*
X134885646Y-87674696D01*
X134828050Y-87561658D01*
X134738342Y-87471950D01*
X134695261Y-87449999D01*
X134625307Y-87414355D01*
X134625304Y-87414354D01*
X134500000Y-87394508D01*
X134374696Y-87414354D01*
X134374692Y-87414355D01*
X134261659Y-87471949D01*
X134171949Y-87561659D01*
X134114355Y-87674692D01*
X134114354Y-87674696D01*
X134094508Y-87799999D01*
X121700500Y-87799999D01*
X121700500Y-86449999D01*
X127394508Y-86449999D01*
X127394508Y-86450000D01*
X127414354Y-86575303D01*
X127414355Y-86575307D01*
X127443681Y-86632861D01*
X127471950Y-86688342D01*
X127471952Y-86688344D01*
X127488605Y-86704998D01*
X127516381Y-86759515D01*
X127506809Y-86819947D01*
X127488605Y-86845002D01*
X127471952Y-86861655D01*
X127471950Y-86861658D01*
X127414355Y-86974692D01*
X127414354Y-86974696D01*
X127394508Y-87099999D01*
X127394508Y-87100000D01*
X127414354Y-87225303D01*
X127414355Y-87225307D01*
X127449615Y-87294508D01*
X127471950Y-87338342D01*
X127561658Y-87428050D01*
X127674696Y-87485646D01*
X127800000Y-87505492D01*
X127925304Y-87485646D01*
X128038342Y-87428050D01*
X128128050Y-87338342D01*
X128128051Y-87338339D01*
X128129996Y-87336395D01*
X128184513Y-87308618D01*
X128244945Y-87318189D01*
X128270004Y-87336395D01*
X128271948Y-87338339D01*
X128271950Y-87338342D01*
X128361658Y-87428050D01*
X128474696Y-87485646D01*
X128600000Y-87505492D01*
X128725304Y-87485646D01*
X128838342Y-87428050D01*
X128928050Y-87338342D01*
X128985646Y-87225304D01*
X129005492Y-87100000D01*
X128985646Y-86974696D01*
X128928050Y-86861658D01*
X128911393Y-86845001D01*
X128883618Y-86790487D01*
X128893189Y-86730055D01*
X128911394Y-86704998D01*
X128928050Y-86688342D01*
X128985646Y-86575304D01*
X129005492Y-86450000D01*
X128985646Y-86324696D01*
X128928050Y-86211658D01*
X128838342Y-86121950D01*
X128834406Y-86119944D01*
X128725307Y-86064355D01*
X128725304Y-86064354D01*
X128600000Y-86044508D01*
X128474696Y-86064354D01*
X128474692Y-86064355D01*
X128361659Y-86121949D01*
X128361658Y-86121949D01*
X128361658Y-86121950D01*
X128271950Y-86211658D01*
X128271948Y-86211659D01*
X128270004Y-86213605D01*
X128215487Y-86241382D01*
X128155055Y-86231811D01*
X128129996Y-86213605D01*
X128128051Y-86211660D01*
X128128050Y-86211658D01*
X128038342Y-86121950D01*
X128034406Y-86119944D01*
X127925307Y-86064355D01*
X127925304Y-86064354D01*
X127800000Y-86044508D01*
X127674696Y-86064354D01*
X127674692Y-86064355D01*
X127561659Y-86121949D01*
X127471949Y-86211659D01*
X127414355Y-86324692D01*
X127414354Y-86324696D01*
X127394508Y-86449999D01*
X121700500Y-86449999D01*
X121700500Y-83299999D01*
X134094508Y-83299999D01*
X134094508Y-83300000D01*
X134114354Y-83425303D01*
X134114355Y-83425307D01*
X134120996Y-83438340D01*
X134171950Y-83538342D01*
X134261658Y-83628050D01*
X134374696Y-83685646D01*
X134500000Y-83705492D01*
X134625304Y-83685646D01*
X134738342Y-83628050D01*
X134828050Y-83538342D01*
X134885646Y-83425304D01*
X134905492Y-83300000D01*
X134905492Y-83299999D01*
X135594508Y-83299999D01*
X135594508Y-83300000D01*
X135614354Y-83425303D01*
X135614355Y-83425307D01*
X135620996Y-83438340D01*
X135671950Y-83538342D01*
X135761658Y-83628050D01*
X135874696Y-83685646D01*
X136000000Y-83705492D01*
X136125304Y-83685646D01*
X136238342Y-83628050D01*
X136328050Y-83538342D01*
X136385646Y-83425304D01*
X136405492Y-83300000D01*
X136389654Y-83199999D01*
X137094508Y-83199999D01*
X137094508Y-83200000D01*
X137114354Y-83325303D01*
X137114355Y-83325307D01*
X137165306Y-83425303D01*
X137171950Y-83438342D01*
X137261658Y-83528050D01*
X137374696Y-83585646D01*
X137500000Y-83605492D01*
X137625304Y-83585646D01*
X137738342Y-83528050D01*
X137828050Y-83438342D01*
X137885646Y-83325304D01*
X137889654Y-83299999D01*
X143094508Y-83299999D01*
X143094508Y-83300000D01*
X143114354Y-83425303D01*
X143114355Y-83425307D01*
X143120996Y-83438340D01*
X143171950Y-83538342D01*
X143261658Y-83628050D01*
X143374696Y-83685646D01*
X143500000Y-83705492D01*
X143625304Y-83685646D01*
X143738342Y-83628050D01*
X143828050Y-83538342D01*
X143885646Y-83425304D01*
X143905492Y-83300000D01*
X143905492Y-83299999D01*
X152094508Y-83299999D01*
X152094508Y-83300000D01*
X152114354Y-83425303D01*
X152114355Y-83425307D01*
X152120996Y-83438340D01*
X152171950Y-83538342D01*
X152261658Y-83628050D01*
X152374696Y-83685646D01*
X152500000Y-83705492D01*
X152625304Y-83685646D01*
X152738342Y-83628050D01*
X152828050Y-83538342D01*
X152885646Y-83425304D01*
X152905492Y-83300000D01*
X152889654Y-83199999D01*
X153594508Y-83199999D01*
X153594508Y-83200000D01*
X153614354Y-83325303D01*
X153614355Y-83325307D01*
X153665306Y-83425303D01*
X153671950Y-83438342D01*
X153761658Y-83528050D01*
X153874696Y-83585646D01*
X154000000Y-83605492D01*
X154125304Y-83585646D01*
X154238342Y-83528050D01*
X154328050Y-83438342D01*
X154385646Y-83325304D01*
X154405492Y-83200000D01*
X154405492Y-83199999D01*
X155094508Y-83199999D01*
X155094508Y-83200000D01*
X155114354Y-83325303D01*
X155114355Y-83325307D01*
X155165306Y-83425303D01*
X155171950Y-83438342D01*
X155261658Y-83528050D01*
X155374696Y-83585646D01*
X155500000Y-83605492D01*
X155625304Y-83585646D01*
X155738342Y-83528050D01*
X155828050Y-83438342D01*
X155885646Y-83325304D01*
X155905492Y-83200000D01*
X155885646Y-83074696D01*
X155828050Y-82961658D01*
X155738342Y-82871950D01*
X155734406Y-82869944D01*
X155625307Y-82814355D01*
X155625304Y-82814354D01*
X155500000Y-82794508D01*
X155374696Y-82814354D01*
X155374692Y-82814355D01*
X155261659Y-82871949D01*
X155171949Y-82961659D01*
X155114355Y-83074692D01*
X155114354Y-83074696D01*
X155094508Y-83199999D01*
X154405492Y-83199999D01*
X154385646Y-83074696D01*
X154328050Y-82961658D01*
X154238342Y-82871950D01*
X154234406Y-82869944D01*
X154125307Y-82814355D01*
X154125304Y-82814354D01*
X154000000Y-82794508D01*
X153874696Y-82814354D01*
X153874692Y-82814355D01*
X153761659Y-82871949D01*
X153671949Y-82961659D01*
X153614355Y-83074692D01*
X153614354Y-83074696D01*
X153594508Y-83199999D01*
X152889654Y-83199999D01*
X152885646Y-83174696D01*
X152828050Y-83061658D01*
X152738342Y-82971950D01*
X152718143Y-82961658D01*
X152625307Y-82914355D01*
X152625304Y-82914354D01*
X152500000Y-82894508D01*
X152374696Y-82914354D01*
X152374692Y-82914355D01*
X152261659Y-82971949D01*
X152171949Y-83061659D01*
X152114355Y-83174692D01*
X152114354Y-83174696D01*
X152094508Y-83299999D01*
X143905492Y-83299999D01*
X143885646Y-83174696D01*
X143828050Y-83061658D01*
X143738342Y-82971950D01*
X143718143Y-82961658D01*
X143625307Y-82914355D01*
X143625304Y-82914354D01*
X143500000Y-82894508D01*
X143374696Y-82914354D01*
X143374692Y-82914355D01*
X143261659Y-82971949D01*
X143171949Y-83061659D01*
X143114355Y-83174692D01*
X143114354Y-83174696D01*
X143094508Y-83299999D01*
X137889654Y-83299999D01*
X137905492Y-83200000D01*
X137885646Y-83074696D01*
X137828050Y-82961658D01*
X137738342Y-82871950D01*
X137734406Y-82869944D01*
X137625307Y-82814355D01*
X137625304Y-82814354D01*
X137500000Y-82794508D01*
X137374696Y-82814354D01*
X137374692Y-82814355D01*
X137261659Y-82871949D01*
X137171949Y-82961659D01*
X137114355Y-83074692D01*
X137114354Y-83074696D01*
X137094508Y-83199999D01*
X136389654Y-83199999D01*
X136385646Y-83174696D01*
X136328050Y-83061658D01*
X136238342Y-82971950D01*
X136218143Y-82961658D01*
X136125307Y-82914355D01*
X136125304Y-82914354D01*
X136000000Y-82894508D01*
X135874696Y-82914354D01*
X135874692Y-82914355D01*
X135761659Y-82971949D01*
X135671949Y-83061659D01*
X135614355Y-83174692D01*
X135614354Y-83174696D01*
X135594508Y-83299999D01*
X134905492Y-83299999D01*
X134885646Y-83174696D01*
X134828050Y-83061658D01*
X134738342Y-82971950D01*
X134718143Y-82961658D01*
X134625307Y-82914355D01*
X134625304Y-82914354D01*
X134500000Y-82894508D01*
X134374696Y-82914354D01*
X134374692Y-82914355D01*
X134261659Y-82971949D01*
X134171949Y-83061659D01*
X134114355Y-83174692D01*
X134114354Y-83174696D01*
X134094508Y-83299999D01*
X121700500Y-83299999D01*
X121700500Y-77502585D01*
X121700636Y-77497404D01*
X121709331Y-77331494D01*
X121999500Y-77331494D01*
X121999500Y-77668505D01*
X122037232Y-78003392D01*
X122112224Y-78331957D01*
X122223530Y-78650049D01*
X122223531Y-78650051D01*
X122369746Y-78953671D01*
X122369752Y-78953683D01*
X122549056Y-79239042D01*
X122549058Y-79239045D01*
X122759165Y-79502512D01*
X122759171Y-79502518D01*
X122759175Y-79502523D01*
X122997477Y-79740825D01*
X122997481Y-79740828D01*
X122997487Y-79740834D01*
X123260954Y-79950941D01*
X123260958Y-79950943D01*
X123260961Y-79950946D01*
X123490638Y-80095262D01*
X123546316Y-80130247D01*
X123546328Y-80130253D01*
X123597708Y-80154996D01*
X123849949Y-80276469D01*
X123998440Y-80328428D01*
X124168042Y-80387775D01*
X124168045Y-80387775D01*
X124168046Y-80387776D01*
X124496606Y-80462767D01*
X124831496Y-80500500D01*
X124831497Y-80500500D01*
X125168503Y-80500500D01*
X125168504Y-80500500D01*
X125503394Y-80462767D01*
X125831954Y-80387776D01*
X126150051Y-80276469D01*
X126453686Y-80130246D01*
X126739039Y-79950946D01*
X126802923Y-79900000D01*
X139444508Y-79900000D01*
X139452576Y-79950943D01*
X139464354Y-80025303D01*
X139464355Y-80025307D01*
X139493681Y-80082861D01*
X139521950Y-80138342D01*
X139521952Y-80138344D01*
X139538605Y-80154998D01*
X139566381Y-80209515D01*
X139556809Y-80269947D01*
X139538605Y-80295002D01*
X139521952Y-80311655D01*
X139521950Y-80311658D01*
X139464355Y-80424692D01*
X139464354Y-80424696D01*
X139444508Y-80549999D01*
X139444508Y-80550000D01*
X139464354Y-80675303D01*
X139464355Y-80675307D01*
X139519944Y-80784406D01*
X139521950Y-80788342D01*
X139611658Y-80878050D01*
X139724696Y-80935646D01*
X139850000Y-80955492D01*
X139975304Y-80935646D01*
X140088342Y-80878050D01*
X140129998Y-80836393D01*
X140184513Y-80808618D01*
X140244945Y-80818189D01*
X140270000Y-80836392D01*
X140311658Y-80878050D01*
X140424696Y-80935646D01*
X140550000Y-80955492D01*
X140675304Y-80935646D01*
X140788342Y-80878050D01*
X140878050Y-80788342D01*
X140935646Y-80675304D01*
X140955492Y-80550000D01*
X140935646Y-80424696D01*
X140878050Y-80311658D01*
X140861393Y-80295001D01*
X140833618Y-80240487D01*
X140843189Y-80180055D01*
X140861394Y-80154998D01*
X140878050Y-80138342D01*
X140935646Y-80025304D01*
X140955492Y-79900000D01*
X140935646Y-79774696D01*
X140878050Y-79661658D01*
X140788342Y-79571950D01*
X140784406Y-79569944D01*
X140675307Y-79514355D01*
X140675304Y-79514354D01*
X140550000Y-79494508D01*
X140424696Y-79514354D01*
X140424692Y-79514355D01*
X140311659Y-79571949D01*
X140311658Y-79571949D01*
X140311658Y-79571950D01*
X140270001Y-79613606D01*
X140215487Y-79641382D01*
X140155055Y-79631811D01*
X140129999Y-79613607D01*
X140088342Y-79571950D01*
X140084406Y-79569944D01*
X139975307Y-79514355D01*
X139975304Y-79514354D01*
X139850000Y-79494508D01*
X139724696Y-79514354D01*
X139724692Y-79514355D01*
X139611659Y-79571949D01*
X139521949Y-79661659D01*
X139464355Y-79774692D01*
X139464354Y-79774696D01*
X139444508Y-79900000D01*
X126802923Y-79900000D01*
X127002523Y-79740825D01*
X127240825Y-79502523D01*
X127450946Y-79239039D01*
X127630246Y-78953686D01*
X127776469Y-78650051D01*
X127887776Y-78331954D01*
X127940718Y-78099999D01*
X146944508Y-78099999D01*
X146944508Y-78100000D01*
X146964354Y-78225303D01*
X146964355Y-78225307D01*
X146989830Y-78275303D01*
X147021950Y-78338342D01*
X147111658Y-78428050D01*
X147111660Y-78428051D01*
X147113605Y-78429996D01*
X147141382Y-78484513D01*
X147131811Y-78544945D01*
X147113605Y-78570004D01*
X147111659Y-78571948D01*
X147111658Y-78571950D01*
X147033559Y-78650049D01*
X147021949Y-78661659D01*
X146964355Y-78774692D01*
X146964354Y-78774696D01*
X146944508Y-78900000D01*
X146953010Y-78953683D01*
X146964354Y-79025303D01*
X146964355Y-79025307D01*
X147006805Y-79108618D01*
X147021950Y-79138342D01*
X147111658Y-79228050D01*
X147224696Y-79285646D01*
X147350000Y-79305492D01*
X147475304Y-79285646D01*
X147588342Y-79228050D01*
X147654998Y-79161393D01*
X147709513Y-79133618D01*
X147769945Y-79143189D01*
X147795000Y-79161392D01*
X147861658Y-79228050D01*
X147974696Y-79285646D01*
X148100000Y-79305492D01*
X148225304Y-79285646D01*
X148338342Y-79228050D01*
X148428050Y-79138342D01*
X148485646Y-79025304D01*
X148505492Y-78900000D01*
X148485646Y-78774696D01*
X148428050Y-78661658D01*
X148338342Y-78571950D01*
X148338339Y-78571948D01*
X148336395Y-78570004D01*
X148308618Y-78515487D01*
X148318189Y-78455055D01*
X148336395Y-78429996D01*
X148338339Y-78428051D01*
X148338342Y-78428050D01*
X148428050Y-78338342D01*
X148485646Y-78225304D01*
X148497573Y-78150000D01*
X155482631Y-78150000D01*
X155500000Y-78259661D01*
X155550405Y-78358587D01*
X155628913Y-78437095D01*
X155727839Y-78487500D01*
X155837500Y-78504869D01*
X155947161Y-78487500D01*
X156046087Y-78437095D01*
X156124595Y-78358587D01*
X156175000Y-78259661D01*
X156192369Y-78150000D01*
X158394508Y-78150000D01*
X158411876Y-78259661D01*
X158414354Y-78275303D01*
X158414355Y-78275307D01*
X158456788Y-78358586D01*
X158471950Y-78388342D01*
X158538606Y-78454998D01*
X158566382Y-78509513D01*
X158556811Y-78569945D01*
X158538607Y-78595000D01*
X158483559Y-78650049D01*
X158471949Y-78661659D01*
X158414355Y-78774692D01*
X158414354Y-78774696D01*
X158394508Y-78900000D01*
X158403010Y-78953683D01*
X158414354Y-79025303D01*
X158414355Y-79025307D01*
X158456805Y-79108618D01*
X158471950Y-79138342D01*
X158561658Y-79228050D01*
X158674696Y-79285646D01*
X158800000Y-79305492D01*
X158925304Y-79285646D01*
X159038342Y-79228050D01*
X159128050Y-79138342D01*
X159128051Y-79138339D01*
X159129996Y-79136395D01*
X159184513Y-79108618D01*
X159244945Y-79118189D01*
X159270004Y-79136395D01*
X159271948Y-79138339D01*
X159271950Y-79138342D01*
X159361658Y-79228050D01*
X159474696Y-79285646D01*
X159600000Y-79305492D01*
X159725304Y-79285646D01*
X159838342Y-79228050D01*
X159928050Y-79138342D01*
X159985646Y-79025304D01*
X160005492Y-78900000D01*
X159985646Y-78774696D01*
X159928050Y-78661658D01*
X159861393Y-78595001D01*
X159833618Y-78540487D01*
X159843189Y-78480055D01*
X159861392Y-78454999D01*
X159928050Y-78388342D01*
X159985646Y-78275304D01*
X160005492Y-78150000D01*
X159985646Y-78024696D01*
X159928050Y-77911658D01*
X159838342Y-77821950D01*
X159834406Y-77819944D01*
X159725307Y-77764355D01*
X159725304Y-77764354D01*
X159600000Y-77744508D01*
X159474696Y-77764354D01*
X159474692Y-77764355D01*
X159361659Y-77821949D01*
X159361658Y-77821949D01*
X159361658Y-77821950D01*
X159271950Y-77911658D01*
X159271948Y-77911659D01*
X159270004Y-77913605D01*
X159215487Y-77941382D01*
X159155055Y-77931811D01*
X159129996Y-77913605D01*
X159128051Y-77911660D01*
X159128050Y-77911658D01*
X159038342Y-77821950D01*
X159034406Y-77819944D01*
X158925307Y-77764355D01*
X158925304Y-77764354D01*
X158800000Y-77744508D01*
X158674696Y-77764354D01*
X158674692Y-77764355D01*
X158561659Y-77821949D01*
X158471949Y-77911659D01*
X158414355Y-78024692D01*
X158414354Y-78024696D01*
X158394508Y-78150000D01*
X156192369Y-78150000D01*
X156175000Y-78040339D01*
X156124595Y-77941413D01*
X156046087Y-77862905D01*
X155947161Y-77812500D01*
X155837500Y-77795131D01*
X155727838Y-77812500D01*
X155628913Y-77862905D01*
X155550405Y-77941413D01*
X155500000Y-78040338D01*
X155490551Y-78099999D01*
X155482631Y-78150000D01*
X148497573Y-78150000D01*
X148505492Y-78100000D01*
X148485646Y-77974696D01*
X148428050Y-77861658D01*
X148338342Y-77771950D01*
X148323434Y-77764354D01*
X148225307Y-77714355D01*
X148225304Y-77714354D01*
X148100000Y-77694508D01*
X147974696Y-77714354D01*
X147974692Y-77714355D01*
X147861659Y-77771949D01*
X147861658Y-77771949D01*
X147861658Y-77771950D01*
X147795001Y-77838606D01*
X147740487Y-77866382D01*
X147680055Y-77856811D01*
X147654999Y-77838607D01*
X147588342Y-77771950D01*
X147573434Y-77764354D01*
X147475307Y-77714355D01*
X147475304Y-77714354D01*
X147350000Y-77694508D01*
X147224696Y-77714354D01*
X147224692Y-77714355D01*
X147111659Y-77771949D01*
X147021949Y-77861659D01*
X146964355Y-77974692D01*
X146964354Y-77974696D01*
X146944508Y-78099999D01*
X127940718Y-78099999D01*
X127962767Y-78003394D01*
X128000500Y-77668504D01*
X128000500Y-77331496D01*
X128000500Y-77331494D01*
X161999500Y-77331494D01*
X161999500Y-77668505D01*
X162037232Y-78003392D01*
X162112224Y-78331957D01*
X162223530Y-78650049D01*
X162223531Y-78650051D01*
X162369746Y-78953671D01*
X162369752Y-78953683D01*
X162549056Y-79239042D01*
X162549058Y-79239045D01*
X162759165Y-79502512D01*
X162759171Y-79502518D01*
X162759175Y-79502523D01*
X162997477Y-79740825D01*
X162997481Y-79740828D01*
X162997487Y-79740834D01*
X163260954Y-79950941D01*
X163260958Y-79950943D01*
X163260961Y-79950946D01*
X163490638Y-80095262D01*
X163546316Y-80130247D01*
X163546328Y-80130253D01*
X163597708Y-80154996D01*
X163849949Y-80276469D01*
X163998440Y-80328428D01*
X164168042Y-80387775D01*
X164168045Y-80387775D01*
X164168046Y-80387776D01*
X164496606Y-80462767D01*
X164831496Y-80500500D01*
X164831497Y-80500500D01*
X165168503Y-80500500D01*
X165168504Y-80500500D01*
X165503394Y-80462767D01*
X165831954Y-80387776D01*
X166150051Y-80276469D01*
X166453686Y-80130246D01*
X166739039Y-79950946D01*
X167002523Y-79740825D01*
X167240825Y-79502523D01*
X167450946Y-79239039D01*
X167630246Y-78953686D01*
X167776469Y-78650051D01*
X167887776Y-78331954D01*
X167962767Y-78003394D01*
X168000500Y-77668504D01*
X168000500Y-77331496D01*
X167962767Y-76996606D01*
X167887776Y-76668046D01*
X167776469Y-76349949D01*
X167630246Y-76046314D01*
X167450946Y-75760961D01*
X167450943Y-75760957D01*
X167450941Y-75760954D01*
X167240834Y-75497487D01*
X167240828Y-75497481D01*
X167240825Y-75497477D01*
X167002523Y-75259175D01*
X167002518Y-75259171D01*
X167002512Y-75259165D01*
X166739045Y-75049058D01*
X166739042Y-75049056D01*
X166453683Y-74869752D01*
X166453671Y-74869746D01*
X166150051Y-74723531D01*
X166150049Y-74723530D01*
X165831957Y-74612224D01*
X165503392Y-74537232D01*
X165168505Y-74499500D01*
X165168504Y-74499500D01*
X164831496Y-74499500D01*
X164831494Y-74499500D01*
X164496607Y-74537232D01*
X164168042Y-74612224D01*
X163849950Y-74723530D01*
X163849948Y-74723531D01*
X163546328Y-74869746D01*
X163546316Y-74869752D01*
X163260957Y-75049056D01*
X163260954Y-75049058D01*
X162997487Y-75259165D01*
X162759165Y-75497487D01*
X162549058Y-75760954D01*
X162549056Y-75760957D01*
X162369752Y-76046316D01*
X162369746Y-76046328D01*
X162223531Y-76349948D01*
X162223530Y-76349950D01*
X162112224Y-76668042D01*
X162037232Y-76996607D01*
X161999500Y-77331494D01*
X128000500Y-77331494D01*
X127962767Y-76996606D01*
X127940717Y-76899999D01*
X143034508Y-76899999D01*
X143034508Y-76900000D01*
X143054354Y-77025303D01*
X143054355Y-77025307D01*
X143109944Y-77134406D01*
X143111950Y-77138342D01*
X143201658Y-77228050D01*
X143314696Y-77285646D01*
X143440000Y-77305492D01*
X143565304Y-77285646D01*
X143678342Y-77228050D01*
X143768050Y-77138342D01*
X143825646Y-77025304D01*
X143845492Y-76900000D01*
X143825646Y-76774696D01*
X143768050Y-76661658D01*
X143678342Y-76571950D01*
X143674406Y-76569944D01*
X143565307Y-76514355D01*
X143565304Y-76514354D01*
X143440000Y-76494508D01*
X143314696Y-76514354D01*
X143314692Y-76514355D01*
X143201659Y-76571949D01*
X143111949Y-76661659D01*
X143054355Y-76774692D01*
X143054354Y-76774696D01*
X143034508Y-76899999D01*
X127940717Y-76899999D01*
X127887776Y-76668046D01*
X127776469Y-76349949D01*
X127630246Y-76046314D01*
X127450946Y-75760961D01*
X127450943Y-75760957D01*
X127450941Y-75760954D01*
X127240834Y-75497487D01*
X127240828Y-75497481D01*
X127240825Y-75497477D01*
X127002523Y-75259175D01*
X127002518Y-75259171D01*
X127002512Y-75259165D01*
X126739045Y-75049058D01*
X126739042Y-75049056D01*
X126453683Y-74869752D01*
X126453671Y-74869746D01*
X126150051Y-74723531D01*
X126150049Y-74723530D01*
X125831957Y-74612224D01*
X125503392Y-74537232D01*
X125168505Y-74499500D01*
X125168504Y-74499500D01*
X124831496Y-74499500D01*
X124831494Y-74499500D01*
X124496607Y-74537232D01*
X124168042Y-74612224D01*
X123849950Y-74723530D01*
X123849948Y-74723531D01*
X123546328Y-74869746D01*
X123546316Y-74869752D01*
X123260957Y-75049056D01*
X123260954Y-75049058D01*
X122997487Y-75259165D01*
X122759165Y-75497487D01*
X122549058Y-75760954D01*
X122549056Y-75760957D01*
X122369752Y-76046316D01*
X122369746Y-76046328D01*
X122223531Y-76349948D01*
X122223530Y-76349950D01*
X122112224Y-76668042D01*
X122037232Y-76996607D01*
X121999500Y-77331494D01*
X121709331Y-77331494D01*
X121710027Y-77318206D01*
X121718303Y-77160283D01*
X121719386Y-77149985D01*
X121721230Y-77138342D01*
X121771792Y-76819108D01*
X121773939Y-76809003D01*
X121860650Y-76485393D01*
X121863848Y-76475554D01*
X121983900Y-76162808D01*
X121988101Y-76153371D01*
X122140204Y-75854850D01*
X122145369Y-75845907D01*
X122327830Y-75564941D01*
X122333900Y-75556587D01*
X122544732Y-75296231D01*
X122551647Y-75288550D01*
X122788550Y-75051647D01*
X122796231Y-75044732D01*
X123056587Y-74833900D01*
X123064941Y-74827830D01*
X123345907Y-74645369D01*
X123354850Y-74640204D01*
X123653371Y-74488101D01*
X123662808Y-74483900D01*
X123975554Y-74363848D01*
X123985393Y-74360650D01*
X124309003Y-74273939D01*
X124319108Y-74271792D01*
X124649992Y-74219385D01*
X124660283Y-74218303D01*
X124997405Y-74200636D01*
X125002586Y-74200500D01*
X125039882Y-74200500D01*
X164960118Y-74200500D01*
X164997414Y-74200500D01*
X165002595Y-74200636D01*
G37*
G04 #@! TD.AperFunction*
G04 #@! TD*
M02*
