M48
; DRILL file {KiCad 8.0.4} date 2025-07-27T15:22:33-0700
; FORMAT={-:-/ absolute / inch / decimal}
; #@! TF.CreationDate,2025-07-27T15:22:33-07:00
; #@! TF.GenerationSoftware,Kicad,Pcbnew,8.0.4
; #@! TF.FileFunction,Plated,1,4,PTH
FMAT,2
INCH
; #@! TA.AperFunction,Plated,PTH,ViaDrill
T1C0.0079
; #@! TA.AperFunction,Plated,PTH,ViaDrill
T2C0.0118
%
G90
G05
T1
X5.811Y-4.4843
X5.8937Y-4.5531
X6.1353Y-3.0768
X6.2283Y-3.6614
X6.2579Y-3.6693
X6.2579Y-3.7461
X6.2579Y-3.8091
X6.2579Y-3.8681
X6.2697Y-3.7657
X6.2697Y-3.8287
X6.2697Y-3.8878
X6.2815Y-3.6693
X6.2815Y-3.7461
X6.2815Y-3.8091
X6.2815Y-3.8681
X6.311Y-3.6614
X6.3661Y-3.7559
X6.3661Y-3.7795
X6.3661Y-3.8031
X6.4528Y-3.9291
X6.4528Y-4.0276
X6.5157Y-3.6929
X6.5157Y-3.811
X6.5591Y-3.5354
X6.5591Y-3.6339
X6.5591Y-3.752
X6.5591Y-3.8701
X6.5591Y-4.0276
T2
X4.8031Y-3.1142
X4.8031Y-3.1535
X4.8031Y-3.1929
X4.8031Y-3.2283
X4.8031Y-3.2638
X4.8031Y-3.2992
X4.8031Y-3.3346
X4.8031Y-3.3701
X4.8031Y-3.4055
X4.8031Y-3.4409
X4.8031Y-3.4724
X4.8031Y-3.5079
X4.8031Y-3.5433
X4.8031Y-3.5787
X4.8031Y-3.6142
X4.8031Y-3.6496
X4.8031Y-3.685
X4.8031Y-3.7205
X4.8031Y-3.7559
X4.8031Y-3.7913
X4.8031Y-3.8268
X4.8031Y-3.8583
X4.8031Y-3.8937
X4.8031Y-3.9291
X4.8031Y-3.9646
X4.8031Y-4.0039
X4.8031Y-4.0394
X4.8031Y-4.0748
X4.8031Y-4.1102
X4.8031Y-4.1457
X4.8031Y-4.1811
X4.8031Y-4.2165
X4.8031Y-4.248
X4.8031Y-4.2835
X4.8031Y-4.3189
X4.8031Y-4.3543
X4.8031Y-4.3898
X4.8031Y-4.4252
X4.8031Y-4.4606
X4.8031Y-4.4961
X4.8031Y-4.5315
X4.8031Y-4.5669
X4.8268Y-3.4961
X4.8268Y-4.2402
X4.8268Y-4.4764
X4.8273Y-4.3342
X4.8303Y-3.6555
X4.8307Y-3.1654
X4.8307Y-3.2008
X4.8307Y-3.8543
X4.8307Y-3.9016
X4.8307Y-3.9567
X4.8307Y-4.3819
X4.8307Y-4.437
X4.8327Y-4.5177
X4.8345Y-4.0891
X4.8346Y-3.315
X4.8346Y-3.4606
X4.8346Y-3.5315
X4.8346Y-3.7126
X4.8346Y-3.752
X4.8346Y-3.7795
X4.8346Y-4.1417
X4.8346Y-4.189
X4.8346Y-4.2795
X4.8363Y-3.8097
X4.8386Y-3.2283
X4.8386Y-3.2795
X4.8386Y-4.0039
X4.8386Y-4.0433
X4.8418Y-3.4357
X4.8425Y-3.5984
X4.8425Y-3.6811
X4.8473Y-3.3612
X4.8504Y-3.3976
X4.8504Y-3.5591
X4.8504Y-4.2165
X4.8504Y-4.4094
X4.8504Y-3.6318
X4.8526Y-4.3171
X4.8543Y-3.9252
X4.8543Y-4.3465
X4.8558Y-3.5122
X4.8583Y-3.8819
X4.8583Y-4.4567
X4.8602Y-3.2067
X4.8618Y-3.323
X4.8622Y-3.4803
X4.8622Y-3.9685
X4.8622Y-4.4961
X4.8631Y-3.794
X4.8661Y-3.2913
X4.8661Y-3.6969
X4.8661Y-3.8346
X4.8661Y-4.063
X4.8661Y-4.1693
X4.867Y-4.1102
X4.8681Y-3.1811
X4.87Y-3.7285
X4.8701Y-3.2559
X4.8701Y-3.6654
X4.8701Y-3.7638
X4.8701Y-4.378
X4.874Y-3.4567
X4.874Y-4.0315
X4.874Y-4.1457
X4.878Y-3.2283
X4.878Y-3.5748
X4.8814Y-3.605
X4.8819Y-3.5394
X4.8819Y-4.2283
X4.8819Y-4.2677
X4.8819Y-4.2992
X4.8819Y-4.4252
X4.8856Y-4.204
X4.8858Y-3.3504
X4.8858Y-4.3307
X4.8898Y-3.3819
X4.8898Y-3.9055
X4.8935Y-4.0028
X4.8937Y-3.4173
X4.8937Y-3.5079
X4.8937Y-3.9488
X4.8976Y-3.2835
X4.8976Y-4.122
X4.8997Y-3.6387
X4.9016Y-3.2126
X4.9016Y-3.6693
X4.9016Y-3.8071
X4.9016Y-3.8701
X4.9016Y-4.0787
X4.9016Y-4.3543
X4.905Y-4.0456
X4.9055Y-3.252
X4.9055Y-4.3937
X4.9055Y-4.4567
X4.9082Y-3.7745
X4.9094Y-3.185
X4.9094Y-3.3189
X4.9094Y-3.5433
X4.9094Y-3.5787
X4.9094Y-3.6063
X4.9094Y-4.1732
X4.9114Y-4.4902
X4.9134Y-3.4449
X4.9173Y-4.2283
X4.9213Y-3.4724
X4.9213Y-3.5079
X4.9213Y-3.9488
X4.9213Y-4.2677
X4.9213Y-4.2992
X4.9213Y-4.4252
X4.9252Y-3.2283
X4.9252Y-3.4134
X4.9252Y-3.8268
X4.9252Y-4.0748
X4.9289Y-3.2651
X4.9291Y-3.2953
X4.9291Y-3.9843
X4.9291Y-4.1535
X4.9331Y-3.3701
X4.9331Y-3.9016
X4.9331Y-4.1142
X4.9331Y-4.3465
X4.9335Y-4.0164
X4.935Y-3.5374
X4.935Y-3.5669
X4.935Y-3.6043
X4.935Y-3.6358
X4.935Y-3.6654
X4.937Y-3.8701
X4.9409Y-3.7795
X4.9449Y-4.3031
X4.9449Y-4.4291
X4.9478Y-3.4946
X4.9488Y-3.3189
X4.9488Y-4.4567
X4.9495Y-4.398
X4.9503Y-3.4451
X4.9508Y-3.1988
X4.9508Y-4.4921
X4.9528Y-4.2638
X4.9605Y-4.2019
X4.9606Y-3.4094
X4.9606Y-4.2283
X4.9644Y-4.1637
X4.9646Y-3.2283
X4.9646Y-3.2874
X4.9646Y-4.126
X4.9646Y-4.3583
X4.968Y-4.3255
X4.9685Y-3.3819
X4.9685Y-3.5118
X4.9705Y-3.6043
X4.9705Y-3.6358
X4.9705Y-3.6654
X4.9724Y-3.1772
X4.9724Y-3.5374
X4.9724Y-3.5669
X4.9724Y-4.4291
X4.9764Y-3.7008
X4.9764Y-3.7244
X4.9764Y-3.748
X4.9764Y-4.2913
X4.979Y-3.254
X4.9803Y-3.4567
X4.9803Y-4.3937
X4.9803Y-4.4606
X4.9862Y-3.3145
X4.9875Y-3.4934
X4.9882Y-4.1378
X4.9882Y-4.248
X4.9882Y-4.502
X4.9921Y-3.3504
X4.9921Y-3.3898
X4.9961Y-3.2165
X4.9961Y-3.4252
X4.9983Y-3.2824
X5.0Y-3.6358
X5.0Y-3.6653
X5.0Y-2.939
X5.0Y-3.6043
X5.0Y-4.1693
X5.0Y-4.3465
X5.0Y-4.4173
X5.002Y-3.5374
X5.002Y-3.5669
X5.002Y-3.7008
X5.002Y-3.7244
X5.002Y-3.748
X5.0039Y-4.2953
X5.0039Y-4.4488
X5.0048Y-3.1567
X5.0079Y-4.3819
X5.0113Y-4.2073
X5.0118Y-4.4803
X5.0118Y-4.7421
X5.0157Y-4.5256
X5.0161Y-3.8193
X5.0197Y-3.4606
X5.0217Y-2.9685
X5.0217Y-4.7126
X5.0236Y-3.189
X5.0236Y-3.6476
X5.0236Y-3.6732
X5.0246Y-4.2621
X5.0295Y-3.1358
X5.0314Y-4.4244
X5.0315Y-3.4035
X5.0315Y-3.4291
X5.0315Y-4.3504
X5.0335Y-3.5846
X5.0354Y-2.939
X5.0354Y-4.315
X5.0354Y-4.5039
X5.0394Y-3.0
X5.0394Y-4.3819
X5.0433Y-4.4646
X5.0453Y-3.1043
X5.0453Y-4.685
X5.0472Y-3.1654
X5.0472Y-3.4606
X5.0472Y-4.7421
X5.0492Y-3.6476
X5.0492Y-3.6752
X5.0512Y-4.2165
X5.0512Y-4.5315
X5.0531Y-3.0689
X5.0551Y-4.563
X5.0551Y-4.6063
X5.0551Y-4.6457
X5.0571Y-2.9705
X5.0591Y-3.1378
X5.0591Y-4.311
X5.0591Y-4.3583
X5.063Y-3.0276
X5.063Y-3.4035
X5.063Y-3.4291
X5.0646Y-4.2443
X5.0669Y-2.9961
X5.0669Y-3.0906
X5.0669Y-4.3937
X5.0669Y-4.5
X5.0669Y-4.7067
X5.0709Y-2.939
X5.0709Y-4.4252
X5.0715Y-4.4502
X5.0735Y-4.6684
X5.0748Y-3.4606
X5.0787Y-3.6476
X5.0787Y-3.6752
X5.0787Y-3.8189
X5.0824Y-4.5344
X5.0827Y-4.4724
X5.0827Y-4.5906
X5.0827Y-4.6181
X5.0827Y-4.7421
X5.083Y-4.5624
X5.0945Y-4.6478
X5.0984Y-4.5079
X5.1024Y-4.6772
X5.1063Y-2.939
X5.1083Y-4.4488
X5.1102Y-4.7165
X5.1142Y-4.6142
X5.1181Y-4.5591
X5.1181Y-4.7421
X5.122Y-4.5315
X5.1243Y-4.4735
X5.126Y-4.5
X5.126Y-4.6693
X5.1309Y-4.5856
X5.1358Y-4.6969
X5.1378Y-4.626
X5.1417Y-2.939
X5.1437Y-4.4442
X5.1457Y-3.6614
X5.1476Y-3.5965
X5.1516Y-4.5236
X5.1535Y-4.7421
X5.1575Y-4.4961
X5.1575Y-4.6535
X5.1651Y-4.4717
X5.1693Y-4.6811
X5.1693Y-4.7146
X5.1772Y-2.939
X5.1811Y-4.4409
X5.189Y-4.5256
X5.189Y-4.7421
X5.1929Y-4.6575
X5.1949Y-4.4744
X5.2047Y-4.4449
X5.2047Y-4.6811
X5.2067Y-4.7106
X5.2126Y-2.939
X5.2205Y-4.4921
X5.2224Y-4.4646
X5.2244Y-4.1988
X5.2244Y-4.7421
X5.2283Y-4.1575
X5.2293Y-3.689
X5.2293Y-3.752
X5.2293Y-3.8661
X5.2362Y-3.4331
X5.2362Y-3.4685
X5.2362Y-3.5118
X5.2362Y-3.5709
X5.2362Y-3.6299
X5.2362Y-3.8071
X5.2362Y-3.9291
X5.2362Y-4.0512
X5.2362Y-4.1024
X5.2362Y-4.2283
X5.2362Y-4.5472
X5.2362Y-4.626
X5.2375Y-4.4385
X5.2382Y-4.7008
X5.2441Y-2.939
X5.2441Y-4.6654
X5.247Y-4.5856
X5.25Y-4.4705
X5.252Y-4.5
X5.2559Y-4.7421
X5.2638Y-3.9528
X5.2638Y-4.626
X5.2677Y-4.5512
X5.2717Y-4.6811
X5.2776Y-4.7126
X5.2795Y-2.939
X5.2795Y-3.3386
X5.2874Y-4.6575
X5.2904Y-3.689
X5.2904Y-3.752
X5.2904Y-3.8661
X5.2913Y-4.1576
X5.2913Y-4.7421
X5.2953Y-3.2795
X5.2953Y-3.4567
X5.2953Y-3.5157
X5.2953Y-3.6299
X5.2953Y-3.8091
X5.2953Y-3.9843
X5.2953Y-4.2283
X5.2953Y-4.3425
X5.2953Y-4.4016
X5.2992Y-4.0984
X5.3071Y-3.3386
X5.311Y-3.5748
X5.315Y-2.939
X5.315Y-4.6811
X5.3169Y-4.7146
X5.3268Y-4.5551
X5.3268Y-4.7421
X5.3307Y-4.6142
X5.3425Y-2.9724
X5.3465Y-4.6811
X5.3494Y-4.5223
X5.3504Y-2.939
X5.3543Y-3.2795
X5.3543Y-3.3386
X5.3543Y-3.4528
X5.3543Y-4.2283
X5.3543Y-4.3386
X5.3543Y-4.4055
X5.3602Y-4.7106
X5.3622Y-4.5827
X5.3622Y-4.7421
X5.374Y-2.9803
X5.378Y-4.626
X5.3819Y-4.6811
X5.3858Y-4.5236
X5.3898Y-2.939
X5.3898Y-4.5591
X5.3976Y-4.7421
X5.3996Y-2.9646
X5.4026Y-4.5856
X5.4055Y-4.622
X5.4075Y-4.7067
X5.4134Y-3.2756
X5.4134Y-3.3386
X5.4134Y-4.3386
X5.4134Y-4.4016
X5.4149Y-4.6771
X5.4213Y-4.5236
X5.4252Y-2.939
X5.4331Y-4.7421
X5.4409Y-2.9724
X5.4449Y-4.7165
X5.4528Y-4.6811
X5.4606Y-2.939
X5.4606Y-4.5256
X5.4685Y-4.7421
X5.4783Y-2.9646
X5.4843Y-4.685
X5.4961Y-2.939
X5.5039Y-4.7421
X5.5059Y-3.1457
X5.5059Y-3.1713
X5.5084Y-3.0748
X5.5084Y-3.1063
X5.5098Y-4.7126
X5.5118Y-2.9803
X5.5187Y-4.5856
X5.5197Y-4.5276
X5.5197Y-4.6811
X5.5236Y-4.5551
X5.5236Y-4.622
X5.5315Y-2.939
X5.5335Y-3.1457
X5.5335Y-3.1713
X5.5394Y-4.7421
X5.5413Y-3.0945
X5.5512Y-2.9665
X5.5551Y-4.5512
X5.5551Y-4.5906
X5.5551Y-4.6811
X5.5591Y-4.5236
X5.563Y-4.6299
X5.5669Y-2.939
X5.5689Y-4.7106
X5.5709Y-3.1142
X5.5748Y-4.7421
X5.5827Y-4.5984
X5.5866Y-4.5472
X5.5906Y-4.6811
X5.5925Y-2.9783
X5.5945Y-4.5236
X5.5965Y-3.1142
X5.5984Y-4.626
X5.6024Y-2.939
X5.6024Y-4.5669
X5.6102Y-4.7421
X5.6172Y-4.6099
X5.6181Y-4.5394
X5.6201Y-4.7126
X5.624Y-3.1142
X5.626Y-4.6811
X5.628Y-2.9646
X5.6299Y-4.6339
X5.6339Y-2.939
X5.6339Y-4.5866
X5.6417Y-4.5236
X5.6417Y-4.7421
X5.6472Y-3.0276
X5.6496Y-3.2795
X5.6496Y-3.3386
X5.6496Y-4.3386
X5.6496Y-4.4016
X5.6496Y-4.6142
X5.6535Y-4.7087
X5.659Y-4.6805
X5.6614Y-4.5472
X5.6654Y-4.5197
X5.6693Y-2.939
X5.6693Y-4.6339
X5.6732Y-4.5748
X5.6772Y-4.7421
X5.6811Y-4.5984
X5.6831Y-4.7146
X5.687Y-2.9665
X5.689Y-4.5276
X5.6929Y-4.6811
X5.7047Y-2.939
X5.7087Y-3.3937
X5.7087Y-3.4429
X5.7087Y-4.2205
X5.7087Y-4.2669
X5.7087Y-4.3406
X5.7087Y-4.7067
X5.7126Y-4.7421
X5.7224Y-2.9665
X5.7362Y-4.7165
X5.7402Y-2.939
X5.7402Y-3.0748
X5.7402Y-3.1063
X5.748Y-4.5945
X5.748Y-4.7421
X5.7598Y-4.5157
X5.7598Y-4.5551
X5.7614Y-3.0276
X5.7618Y-2.9665
X5.7677Y-4.7165
X5.7717Y-3.0748
X5.7717Y-3.1063
X5.7756Y-2.939
X5.7835Y-4.7421
X5.7953Y-2.9665
X5.8012Y-3.0748
X5.8012Y-3.1063
X5.8031Y-4.7165
X5.8071Y-3.0236
X5.811Y-2.939
X5.8142Y-4.624
X5.8189Y-4.7421
X5.8268Y-2.9665
X5.8307Y-3.0748
X5.8307Y-3.1063
X5.8327Y-4.6024
X5.8346Y-4.7146
X5.8465Y-2.939
X5.8492Y-4.624
X5.8543Y-4.7421
X5.8622Y-4.6024
X5.8661Y-2.9665
X5.872Y-4.7165
X5.8819Y-2.939
X5.8858Y-4.3465
X5.8898Y-4.7421
X5.8976Y-4.3898
X5.8996Y-2.9665
X5.9016Y-4.5236
X5.9035Y-4.7106
X5.9134Y-4.3681
X5.9154Y-3.4252
X5.9173Y-2.939
X5.9252Y-4.7421
X5.9291Y-4.3898
X5.9331Y-4.6496
X5.937Y-2.9665
X5.937Y-4.6772
X5.9528Y-2.939
X5.9528Y-4.5394
X5.9547Y-4.7126
X5.9606Y-4.7421
X5.9609Y-4.6032
X5.9646Y-3.0768
X5.9646Y-3.1063
X5.9681Y-4.6694
X5.9685Y-4.5709
X5.9724Y-2.9665
X5.9724Y-4.6378
X5.9882Y-2.939
X5.9921Y-4.6732
X5.9961Y-4.5866
X5.9961Y-4.7421
X5.9986Y-4.6133
X6.0Y-3.0935
X6.0039Y-3.2795
X6.0039Y-3.3543
X6.0039Y-4.3406
X6.0039Y-4.4055
X6.0039Y-4.7106
X6.0079Y-2.9685
X6.0157Y-4.6417
X6.0197Y-2.939
X6.0276Y-4.7421
X6.0315Y-4.252
X6.0315Y-4.6181
X6.0315Y-4.6772
X6.0433Y-2.9685
X6.0551Y-2.939
X6.0551Y-4.7106
X6.0598Y-4.6732
X6.061Y-4.7421
X6.063Y-3.2756
X6.063Y-3.3504
X6.063Y-3.4547
X6.063Y-4.2244
X6.063Y-4.3602
X6.063Y-4.3976
X6.0768Y-2.9626
X6.0906Y-2.939
X6.0976Y-4.6732
X6.0984Y-4.7421
X6.1004Y-4.7106
X6.1024Y-4.563
X6.1063Y-3.4528
X6.1122Y-2.9724
X6.1132Y-4.4606
X6.1201Y-3.1142
X6.122Y-3.2756
X6.122Y-3.3228
X6.122Y-3.5748
X6.122Y-3.685
X6.122Y-3.748
X6.122Y-3.8071
X6.122Y-3.8701
X6.122Y-3.9291
X6.122Y-4.0472
X6.122Y-4.1024
X6.122Y-4.1614
X6.122Y-4.2205
X6.122Y-4.4134
X6.126Y-2.939
X6.126Y-4.3602
X6.1339Y-4.7421
X6.1457Y-2.9803
X6.1457Y-4.7106
X6.1535Y-3.1142
X6.1654Y-2.939
X6.1732Y-4.7421
X6.1772Y-2.9665
X6.1811Y-3.4528
X6.1811Y-3.5157
X6.1811Y-3.5709
X6.1811Y-3.689
X6.1811Y-3.748
X6.1811Y-3.8661
X6.1811Y-3.9134
X6.1811Y-4.1614
X6.1811Y-4.2205
X6.185Y-3.8071
X6.1909Y-4.4803
X6.1909Y-4.7087
X6.1929Y-3.064
X6.2008Y-2.939
X6.2008Y-3.6614
X6.2008Y-3.7205
X6.2008Y-3.7795
X6.2008Y-3.8386
X6.2028Y-4.3701
X6.2047Y-4.4439
X6.2087Y-3.0915
X6.2087Y-4.7421
X6.2126Y-2.9803
X6.2244Y-3.064
X6.2283Y-4.7087
X6.2303Y-4.6772
X6.2362Y-2.939
X6.2402Y-3.5866
X6.2402Y-4.1614
X6.2441Y-4.7421
X6.248Y-2.9665
X6.252Y-3.0768
X6.252Y-3.1063
X6.2579Y-3.5138
X6.2596Y-4.6672
X6.2717Y-2.939
X6.2795Y-4.6339
X6.2795Y-4.7421
X6.2835Y-2.9764
X6.2835Y-3.0768
X6.2835Y-3.1063
X6.2874Y-4.7008
X6.2894Y-3.5728
X6.2953Y-4.2205
X6.2992Y-3.5138
X6.2992Y-4.1614
X6.2992Y-4.6693
X6.3045Y-4.4803
X6.3071Y-2.939
X6.3071Y-4.6063
X6.315Y-2.9902
X6.315Y-4.7421
X6.3228Y-4.6378
X6.3248Y-2.9665
X6.3307Y-4.7028
X6.3386Y-3.315
X6.3386Y-3.3622
X6.3386Y-3.4055
X6.3386Y-3.4567
X6.3386Y-3.5118
X6.3425Y-2.939
X6.3425Y-4.4587
X6.3425Y-4.5709
X6.3445Y-3.0059
X6.3504Y-4.7421
X6.3543Y-4.6378
X6.3583Y-4.5945
X6.3642Y-2.9685
X6.3661Y-3.0354
X6.3661Y-3.0866
X6.3661Y-4.6772
X6.3701Y-4.3307
X6.3701Y-4.5472
X6.374Y-2.9961
X6.374Y-3.126
X6.378Y-2.939
X6.3858Y-4.7106
X6.3858Y-4.7421
X6.3937Y-2.9685
X6.3976Y-3.1437
X6.3976Y-4.4587
X6.4035Y-3.1752
X6.4055Y-4.5138
X6.4094Y-2.939
X6.4173Y-4.7421
X6.4213Y-4.0551
X6.4213Y-4.1102
X6.4213Y-4.1614
X6.4213Y-4.2126
X6.4213Y-4.2638
X6.4213Y-4.3307
X6.4252Y-3.5354
X6.4252Y-4.4724
X6.437Y-3.2047
X6.439Y-3.1732
X6.4528Y-3.5354
X6.4528Y-4.2126
X6.4528Y-4.252
X6.4528Y-4.4921
X6.4567Y-4.4567
X6.4665Y-3.1969
X6.4665Y-3.2343
X6.4803Y-3.5354
X6.4823Y-4.4783
X6.4882Y-4.2126
X6.4882Y-4.252
X6.4921Y-3.8898
X6.5Y-3.187
X6.5Y-3.2205
X6.5Y-4.4567
X6.5059Y-3.2559
X6.5197Y-4.4882
X6.5315Y-3.1949
X6.5315Y-3.2913
X6.5335Y-3.2421
X6.5354Y-3.9882
X6.5433Y-4.4567
X6.5512Y-4.4291
X6.5551Y-3.2165
X6.5571Y-3.1732
X6.5571Y-3.3287
X6.5571Y-4.4941
X6.563Y-3.9882
X6.5689Y-3.2677
X6.5764Y-3.3018
X6.5787Y-4.4567
X6.5827Y-4.3937
X6.5827Y-4.4252
X6.5846Y-4.5157
X6.5866Y-3.1516
X6.5866Y-3.1791
X6.5866Y-3.2087
X6.5866Y-3.2441
X6.5866Y-3.3524
X6.5866Y-4.4843
X6.5906Y-3.9882
X6.6142Y-3.1181
X6.6142Y-3.1535
X6.6142Y-3.189
X6.6142Y-3.2244
X6.6142Y-3.2559
X6.6142Y-3.2913
X6.6142Y-3.3268
X6.6142Y-3.3622
X6.6142Y-3.4016
X6.6142Y-3.437
X6.6142Y-3.4724
X6.6142Y-3.5079
X6.6142Y-3.5433
X6.6142Y-3.5787
X6.6142Y-3.6142
X6.6142Y-3.6457
X6.6142Y-3.6811
X6.6142Y-3.7165
X6.6142Y-3.752
X6.6142Y-3.7874
X6.6142Y-3.8228
X6.6142Y-3.8583
X6.6142Y-3.8937
X6.6142Y-3.9291
X6.6142Y-4.0315
X6.6142Y-4.0669
X6.6142Y-4.1024
X6.6142Y-4.1378
X6.6142Y-4.1732
X6.6142Y-4.2087
X6.6142Y-4.2441
X6.6142Y-4.2795
X6.6142Y-4.311
X6.6142Y-4.3465
X6.6142Y-4.3819
X6.6142Y-4.4173
X6.6142Y-4.4528
X6.6142Y-4.4882
X6.6142Y-4.5197
X6.6142Y-4.5531
M30
