G04 #@! TF.GenerationSoftware,KiCad,Pcbnew,(6.0.9)*
G04 #@! TF.CreationDate,2024-05-21T19:31:49-07:00*
G04 #@! TF.ProjectId,IMX294_MIPI_Breakout_Small,494d5832-3934-45f4-9d49-50495f427265,rev?*
G04 #@! TF.SameCoordinates,Original*
G04 #@! TF.FileFunction,Copper,L2,Inr*
G04 #@! TF.FilePolarity,Positive*
%FSLAX46Y46*%
G04 Gerber Fmt 4.6, Leading zero omitted, Abs format (unit mm)*
G04 Created by KiCad (PCBNEW (6.0.9)) date 2024-05-21 19:31:49*
%MOMM*%
%LPD*%
G01*
G04 APERTURE LIST*
G04 #@! TA.AperFunction,ViaPad*
%ADD10C,0.450000*%
G04 #@! TD*
G04 #@! TA.AperFunction,ViaPad*
%ADD11C,0.350000*%
G04 #@! TD*
G04 APERTURE END LIST*
D10*
G04 #@! TO.N,Net-(C1-Pad1)*
X132800000Y-105600000D03*
G04 #@! TO.N,GND*
X133000000Y-93700000D03*
X126300000Y-90600000D03*
X142550000Y-79150000D03*
X159200000Y-88600000D03*
X145800000Y-78950000D03*
X126250000Y-93100000D03*
X153200000Y-108000000D03*
X157100000Y-96700000D03*
X157500000Y-94500000D03*
X164900000Y-95800000D03*
X150250000Y-87000000D03*
X152500000Y-84700000D03*
X164800000Y-107000000D03*
X133000000Y-96700000D03*
X139912500Y-78975000D03*
X126300000Y-89850000D03*
X155450000Y-78750000D03*
X162600000Y-90400000D03*
X141750000Y-79150000D03*
D11*
X162200000Y-95800000D03*
D10*
X136000000Y-84800000D03*
X127500000Y-87950000D03*
X164600000Y-100400000D03*
X133700000Y-100400000D03*
X126999641Y-93099250D03*
X143450000Y-79150000D03*
X152500000Y-110450000D03*
X158500000Y-90700000D03*
X133000000Y-99800000D03*
X157250000Y-77825000D03*
X145800000Y-78250000D03*
X157700000Y-112900000D03*
X132700000Y-106650000D03*
X140900000Y-78550000D03*
X133000000Y-87200000D03*
X146550000Y-78950000D03*
X128900000Y-87950000D03*
X157000000Y-105700000D03*
D11*
X159150000Y-93250000D03*
D10*
X157000000Y-95200000D03*
X158050000Y-77825000D03*
X157000000Y-107200000D03*
X146050000Y-117145000D03*
X157000000Y-90700000D03*
X129000000Y-97000000D03*
X151500000Y-78500000D03*
X164900000Y-94300000D03*
X163700000Y-100800000D03*
X133000000Y-107400000D03*
X157000000Y-99800000D03*
X133000000Y-92200000D03*
X158500000Y-105700000D03*
X137500000Y-84800000D03*
X134500000Y-110300000D03*
X147525000Y-117700000D03*
X164700000Y-91400000D03*
X133000000Y-104200000D03*
X162600000Y-92300000D03*
X144625000Y-117700000D03*
X143500000Y-84800000D03*
X167700000Y-88200000D03*
X152400000Y-78175000D03*
X140625000Y-117700000D03*
X164900000Y-96900000D03*
X127600000Y-93300000D03*
X159200000Y-87100000D03*
X157650000Y-78500000D03*
X134800000Y-84800000D03*
X128200000Y-87950000D03*
D11*
X160800000Y-93600000D03*
D10*
X126250000Y-92350000D03*
X156300000Y-78750000D03*
X157500000Y-113800000D03*
X133000000Y-98300000D03*
X153925000Y-118925000D03*
D11*
X160700000Y-97400000D03*
D10*
X129000000Y-92650000D03*
X127600000Y-92650000D03*
X155500000Y-84700000D03*
X139912500Y-78175000D03*
X157500000Y-96000000D03*
X151500000Y-77750000D03*
X126999641Y-92349250D03*
X157800000Y-91500000D03*
X150200000Y-111000000D03*
X162600000Y-91400000D03*
D11*
X161000000Y-99000000D03*
D10*
X160900000Y-89900000D03*
X133000000Y-90700000D03*
X158500000Y-89250000D03*
D11*
X162200000Y-94300000D03*
D10*
X134100000Y-84800000D03*
X154000000Y-110200000D03*
X157500000Y-93000000D03*
X139125000Y-117170000D03*
X137625000Y-117700000D03*
X167600000Y-82600000D03*
X167500000Y-85500000D03*
X157000000Y-93700000D03*
X127049641Y-90599250D03*
X127049641Y-89849250D03*
X154000000Y-84700000D03*
X128250000Y-92650000D03*
X137500000Y-110200000D03*
X133000000Y-95200000D03*
X146850000Y-76900000D03*
D11*
X159250000Y-97700000D03*
D10*
X155500000Y-110300000D03*
X157000000Y-98200000D03*
X160900000Y-87100000D03*
X157500000Y-97500000D03*
X145000000Y-86200000D03*
X133000000Y-88100000D03*
X163900000Y-107000000D03*
X130700000Y-93000000D03*
X155275000Y-113500000D03*
X157000000Y-87700000D03*
X129000000Y-93350000D03*
X146550000Y-78250000D03*
X167600000Y-102000000D03*
X164600000Y-98800000D03*
X128250000Y-93350000D03*
X136000000Y-110200000D03*
X143500000Y-110200000D03*
X145000000Y-108380000D03*
G04 #@! TO.N,Net-(C3-Pad1)*
X134500000Y-89300000D03*
G04 #@! TO.N,Net-(C4-Pad1)*
X134399116Y-105602417D03*
G04 #@! TO.N,Net-(C5-Pad1)*
X134500000Y-95200000D03*
G04 #@! TO.N,Net-(C6-Pad1)*
X134500000Y-96750000D03*
G04 #@! TO.N,Net-(C7-Pad1)*
X134500000Y-98200000D03*
G04 #@! TO.N,Net-(C9-Pad1)*
X133000000Y-102900000D03*
G04 #@! TO.N,+1V2*
X152500000Y-83300000D03*
X134500000Y-83300000D03*
X155500000Y-83200000D03*
X155500000Y-99800000D03*
X160000000Y-90700000D03*
X139200000Y-81500000D03*
X136000000Y-111900000D03*
X155500000Y-90800000D03*
X155500000Y-95200000D03*
X155500000Y-96700000D03*
X138350000Y-79850000D03*
X143500000Y-83300000D03*
X154000000Y-83200000D03*
X138350000Y-80650000D03*
X143500000Y-111800000D03*
X134500000Y-111800000D03*
X138350000Y-81500000D03*
X143950000Y-76900000D03*
X155500000Y-98300000D03*
X155500000Y-93600000D03*
X137500000Y-83200000D03*
X139200000Y-80650000D03*
X160000000Y-105700000D03*
X154000000Y-111700000D03*
X152500000Y-111900000D03*
X139200000Y-79850000D03*
X155500000Y-111800000D03*
X137500000Y-111800000D03*
X136000000Y-83300000D03*
G04 #@! TO.N,+1V8*
X134900000Y-90800000D03*
X145000000Y-110250000D03*
X134600000Y-104100000D03*
X159900000Y-107200000D03*
G04 #@! TO.N,+2V9*
X136000000Y-107400000D03*
X127050000Y-94600000D03*
X127050000Y-94000000D03*
X155500000Y-105700000D03*
X126400000Y-94000000D03*
X155500000Y-107200000D03*
X145000000Y-107200000D03*
X134500000Y-93800000D03*
X134500000Y-92200000D03*
X127410000Y-97010000D03*
X154000000Y-87800000D03*
X155400000Y-87700000D03*
X145000000Y-87450000D03*
X134500000Y-107400000D03*
X134500000Y-87800000D03*
X136000000Y-87700000D03*
X126400000Y-95200000D03*
X154000000Y-107300000D03*
X126400000Y-94600000D03*
X127050000Y-95200000D03*
G04 #@! TO.N,+3V3*
X163900000Y-89200000D03*
X127800000Y-87150000D03*
X164600000Y-89200000D03*
X128600000Y-87150000D03*
X163900000Y-88500000D03*
X147350000Y-78100000D03*
X154880000Y-118900000D03*
X127800000Y-86500000D03*
X159550000Y-78500000D03*
X158750000Y-78500000D03*
X165300000Y-89200000D03*
X157500000Y-114800000D03*
X128600000Y-86500000D03*
X147350000Y-78900000D03*
X164600000Y-88500000D03*
X148100000Y-78100000D03*
X148100000Y-78900000D03*
X165300000Y-88500000D03*
X163200000Y-89200000D03*
X158750000Y-77750000D03*
X159550000Y-77750000D03*
X164800000Y-108000000D03*
X163900000Y-108000000D03*
G04 #@! TO.N,SDA_3V3*
X161300000Y-114900000D03*
X160550000Y-114050000D03*
G04 #@! TO.N,SCL_3V3*
X162300000Y-110000000D03*
X164300000Y-110000000D03*
G04 #@! TO.N,CAM_EN*
X163075000Y-81975000D03*
X164700000Y-92300000D03*
G04 #@! TO.N,SCL_1V8*
X149800000Y-111700000D03*
G04 #@! TO.N,SDA_1V8*
X150600000Y-111700000D03*
G04 #@! TO.N,Net-(R1-Pad1)*
X134500000Y-101200000D03*
G04 #@! TO.N,Net-(R2-Pad1)*
X155500000Y-102800000D03*
G04 #@! TO.N,CLOCK*
X160000000Y-89100000D03*
D11*
G04 #@! TO.N,CAM_D0_P*
X159550000Y-93750000D03*
G04 #@! TO.N,CAM_D1_P*
X161245204Y-97730000D03*
G04 #@! TO.N,CAM_CLK_P*
X161500000Y-95750000D03*
G04 #@! TO.N,CAM_D2_P*
X161500000Y-94300000D03*
G04 #@! TO.N,CAM_D3_P*
X159550000Y-98350000D03*
D10*
G04 #@! TO.N,XVS*
X139125000Y-116120000D03*
G04 #@! TO.N,XHS*
X146025000Y-116095000D03*
D11*
G04 #@! TO.N,CAM_D0_N*
X158950000Y-93750000D03*
G04 #@! TO.N,CAM_D1_N*
X161245204Y-98330000D03*
G04 #@! TO.N,CAM_CLK_N*
X160900000Y-95750000D03*
G04 #@! TO.N,CAM_D2_N*
X160900000Y-94300000D03*
G04 #@! TO.N,CAM_D3_N*
X158950000Y-98350000D03*
D10*
G04 #@! TO.N,Net-(C2-Pad1)*
X155500000Y-104200000D03*
G04 #@! TO.N,Net-(C8-Pad1)*
X133000000Y-89200000D03*
G04 #@! TO.N,Net-(JP1-Pad2)*
X157000000Y-89300000D03*
G04 #@! TO.N,RST_1V8*
X149500000Y-110400000D03*
G04 #@! TO.N,Net-(C11-Pad3)*
X127850000Y-91050000D03*
X130750000Y-91350000D03*
G04 #@! TD*
G04 #@! TA.AperFunction,Conductor*
G04 #@! TO.N,GND*
G36*
X164988169Y-75203018D02*
G01*
X164999641Y-75205656D01*
X165010516Y-75203195D01*
X165019694Y-75203211D01*
X165031884Y-75202171D01*
X165173578Y-75209597D01*
X165339716Y-75218304D01*
X165350007Y-75219385D01*
X165526298Y-75247307D01*
X165680876Y-75271790D01*
X165691012Y-75273944D01*
X165909271Y-75332426D01*
X166014601Y-75360649D01*
X166024445Y-75363848D01*
X166274542Y-75459851D01*
X166337177Y-75483895D01*
X166346643Y-75488109D01*
X166645133Y-75640197D01*
X166654107Y-75645379D01*
X166935043Y-75827821D01*
X166943427Y-75833912D01*
X167203758Y-76044724D01*
X167211459Y-76051657D01*
X167448343Y-76288541D01*
X167455276Y-76296242D01*
X167666088Y-76556573D01*
X167672179Y-76564957D01*
X167854621Y-76845893D01*
X167859803Y-76854867D01*
X168011891Y-77153357D01*
X168016105Y-77162823D01*
X168059073Y-77274757D01*
X168060615Y-77304177D01*
X168079817Y-77328798D01*
X168136152Y-77475555D01*
X168139352Y-77485402D01*
X168161272Y-77567208D01*
X168158070Y-77628309D01*
X168120215Y-77675055D01*
X168123702Y-77674295D01*
X168179727Y-77698888D01*
X168209496Y-77747183D01*
X168226056Y-77808989D01*
X168228210Y-77819123D01*
X168236402Y-77870841D01*
X168226831Y-77931273D01*
X168183567Y-77974538D01*
X168123135Y-77984110D01*
X168068618Y-77956333D01*
X168041893Y-77907419D01*
X168017141Y-77793895D01*
X168023218Y-77733012D01*
X168060141Y-77691571D01*
X168003342Y-77669769D01*
X167971983Y-77624899D01*
X167897372Y-77406978D01*
X167893731Y-77396344D01*
X167893335Y-77371149D01*
X167877293Y-77352857D01*
X167735041Y-77054621D01*
X167733814Y-77052048D01*
X167721945Y-77033126D01*
X167551452Y-76761338D01*
X167549936Y-76758921D01*
X167380905Y-76547936D01*
X167335370Y-76491099D01*
X167333585Y-76488871D01*
X167087629Y-76245477D01*
X166961009Y-76146194D01*
X166817567Y-76033721D01*
X166817560Y-76033716D01*
X166815328Y-76031966D01*
X166520291Y-75851168D01*
X166483117Y-75833912D01*
X166209019Y-75706680D01*
X166206430Y-75705478D01*
X165877903Y-75596828D01*
X165539065Y-75526658D01*
X165536227Y-75526405D01*
X165536222Y-75526404D01*
X165236964Y-75499696D01*
X165236962Y-75499696D01*
X165234767Y-75499500D01*
X165011811Y-75499500D01*
X164754547Y-75514334D01*
X164751740Y-75514824D01*
X164751739Y-75514824D01*
X164416471Y-75573337D01*
X164416463Y-75573339D01*
X164413672Y-75573826D01*
X164081894Y-75672103D01*
X163763611Y-75807862D01*
X163761146Y-75809268D01*
X163761140Y-75809271D01*
X163467599Y-75976704D01*
X163463041Y-75979304D01*
X163184168Y-76184157D01*
X163182090Y-76186088D01*
X163182084Y-76186093D01*
X163063550Y-76296242D01*
X162930688Y-76419705D01*
X162928840Y-76421869D01*
X162928835Y-76421874D01*
X162844545Y-76520565D01*
X162705962Y-76682826D01*
X162512967Y-76970033D01*
X162354261Y-77277518D01*
X162231950Y-77601207D01*
X162231255Y-77603972D01*
X162231253Y-77603980D01*
X162187744Y-77777198D01*
X162147652Y-77936810D01*
X162122877Y-78125000D01*
X162105931Y-78253719D01*
X162102487Y-78279876D01*
X162097051Y-78625861D01*
X162097335Y-78628706D01*
X162119630Y-78852064D01*
X162131419Y-78970177D01*
X162205133Y-79308261D01*
X162317217Y-79635633D01*
X162466186Y-79947952D01*
X162467700Y-79950365D01*
X162467703Y-79950371D01*
X162567039Y-80108726D01*
X162650064Y-80241079D01*
X162866415Y-80511129D01*
X163112371Y-80754523D01*
X163192723Y-80817527D01*
X163382433Y-80966279D01*
X163382440Y-80966284D01*
X163384672Y-80968034D01*
X163679709Y-81148832D01*
X163993570Y-81294522D01*
X164322097Y-81403172D01*
X164660935Y-81473342D01*
X164663773Y-81473595D01*
X164663778Y-81473596D01*
X164963036Y-81500304D01*
X164963038Y-81500304D01*
X164965233Y-81500500D01*
X165188189Y-81500500D01*
X165445453Y-81485666D01*
X165448261Y-81485176D01*
X165783529Y-81426663D01*
X165783537Y-81426661D01*
X165786328Y-81426174D01*
X166118106Y-81327897D01*
X166436389Y-81192138D01*
X166438854Y-81190732D01*
X166438860Y-81190729D01*
X166734487Y-81022106D01*
X166736959Y-81020696D01*
X167015832Y-80815843D01*
X167017910Y-80813912D01*
X167017916Y-80813907D01*
X167267224Y-80582235D01*
X167269312Y-80580295D01*
X167271160Y-80578131D01*
X167271165Y-80578126D01*
X167355455Y-80479435D01*
X167494038Y-80317174D01*
X167687033Y-80029967D01*
X167845739Y-79722482D01*
X167850481Y-79709934D01*
X167895318Y-79591274D01*
X167968050Y-79398793D01*
X167990113Y-79310959D01*
X168051652Y-79065960D01*
X168052348Y-79063190D01*
X168080143Y-78852064D01*
X168097141Y-78722952D01*
X168097141Y-78722947D01*
X168097513Y-78720124D01*
X168100537Y-78527626D01*
X168120356Y-78469740D01*
X168170415Y-78434558D01*
X168231593Y-78435520D01*
X168280522Y-78472256D01*
X168296081Y-78507319D01*
X168297056Y-78511625D01*
X168299500Y-78533488D01*
X168299500Y-116354698D01*
X168280593Y-116412889D01*
X168231093Y-116448853D01*
X168169907Y-116448853D01*
X168120407Y-116412889D01*
X168101990Y-116364531D01*
X168068864Y-116032657D01*
X168068864Y-116032655D01*
X168068581Y-116029823D01*
X168059217Y-115986874D01*
X167995473Y-115694518D01*
X167995473Y-115694517D01*
X167994867Y-115691739D01*
X167882783Y-115364367D01*
X167733814Y-115052048D01*
X167730197Y-115046281D01*
X167551452Y-114761338D01*
X167549936Y-114758921D01*
X167375568Y-114541274D01*
X167335370Y-114491099D01*
X167333585Y-114488871D01*
X167087629Y-114245477D01*
X166828513Y-114042304D01*
X166817567Y-114033721D01*
X166817560Y-114033716D01*
X166815328Y-114031966D01*
X166520291Y-113851168D01*
X166206430Y-113705478D01*
X165877903Y-113596828D01*
X165539065Y-113526658D01*
X165536227Y-113526405D01*
X165536222Y-113526404D01*
X165236964Y-113499696D01*
X165236962Y-113499696D01*
X165234767Y-113499500D01*
X165011811Y-113499500D01*
X164754547Y-113514334D01*
X164751740Y-113514824D01*
X164751739Y-113514824D01*
X164416471Y-113573337D01*
X164416463Y-113573339D01*
X164413672Y-113573826D01*
X164081894Y-113672103D01*
X163763611Y-113807862D01*
X163761146Y-113809268D01*
X163761140Y-113809271D01*
X163467599Y-113976704D01*
X163463041Y-113979304D01*
X163184168Y-114184157D01*
X163182090Y-114186088D01*
X163182084Y-114186093D01*
X163063508Y-114296281D01*
X162930688Y-114419705D01*
X162928840Y-114421869D01*
X162928835Y-114421874D01*
X162844545Y-114520565D01*
X162705962Y-114682826D01*
X162512967Y-114970033D01*
X162354261Y-115277518D01*
X162231950Y-115601207D01*
X162231255Y-115603972D01*
X162231253Y-115603980D01*
X162204552Y-115710281D01*
X162147652Y-115936810D01*
X162141975Y-115979934D01*
X162106009Y-116253126D01*
X162102487Y-116279876D01*
X162097051Y-116625861D01*
X162131419Y-116970177D01*
X162132024Y-116972951D01*
X162132024Y-116972952D01*
X162177360Y-117180880D01*
X162205133Y-117308261D01*
X162317217Y-117635633D01*
X162466186Y-117947952D01*
X162467700Y-117950365D01*
X162467703Y-117950371D01*
X162589877Y-118145133D01*
X162650064Y-118241079D01*
X162866415Y-118511129D01*
X163112371Y-118754523D01*
X163192723Y-118817527D01*
X163382433Y-118966279D01*
X163382440Y-118966284D01*
X163384672Y-118968034D01*
X163679709Y-119148832D01*
X163682294Y-119150032D01*
X163682296Y-119150033D01*
X163769968Y-119190729D01*
X163993570Y-119294522D01*
X164322097Y-119403172D01*
X164660935Y-119473342D01*
X164663773Y-119473595D01*
X164663778Y-119473596D01*
X164963036Y-119500304D01*
X164963038Y-119500304D01*
X164965233Y-119500500D01*
X165188189Y-119500500D01*
X165445453Y-119485666D01*
X165448261Y-119485176D01*
X165783529Y-119426663D01*
X165783537Y-119426661D01*
X165786328Y-119426174D01*
X166118106Y-119327897D01*
X166436389Y-119192138D01*
X166438854Y-119190732D01*
X166438860Y-119190729D01*
X166734487Y-119022106D01*
X166736959Y-119020696D01*
X167015832Y-118815843D01*
X167017910Y-118813912D01*
X167017916Y-118813907D01*
X167267224Y-118582235D01*
X167269312Y-118580295D01*
X167271160Y-118578131D01*
X167271165Y-118578126D01*
X167389650Y-118439397D01*
X167494038Y-118317174D01*
X167687033Y-118029967D01*
X167845739Y-117722482D01*
X167960671Y-117418320D01*
X167998925Y-117370571D01*
X168057942Y-117354426D01*
X168115178Y-117376053D01*
X168148770Y-117427192D01*
X168148906Y-117478937D01*
X168139352Y-117514596D01*
X168136152Y-117524445D01*
X168040149Y-117774542D01*
X168016105Y-117837177D01*
X168011891Y-117846643D01*
X167859803Y-118145133D01*
X167854621Y-118154107D01*
X167672179Y-118435043D01*
X167666088Y-118443427D01*
X167455276Y-118703758D01*
X167448343Y-118711459D01*
X167211459Y-118948343D01*
X167203758Y-118955276D01*
X166943427Y-119166088D01*
X166935043Y-119172179D01*
X166654107Y-119354621D01*
X166645133Y-119359803D01*
X166346643Y-119511891D01*
X166337177Y-119516105D01*
X166024445Y-119636152D01*
X166014601Y-119639351D01*
X165909271Y-119667574D01*
X165691012Y-119726056D01*
X165680876Y-119728210D01*
X165526298Y-119752693D01*
X165350007Y-119780615D01*
X165339716Y-119781696D01*
X165032406Y-119797802D01*
X165021590Y-119796861D01*
X165011224Y-119796843D01*
X165000359Y-119794344D01*
X164988359Y-119797059D01*
X164966512Y-119799500D01*
X124934017Y-119799500D01*
X124911831Y-119796982D01*
X124911801Y-119796975D01*
X124900359Y-119794344D01*
X124889484Y-119796805D01*
X124880306Y-119796789D01*
X124868116Y-119797829D01*
X124726422Y-119790403D01*
X124560284Y-119781696D01*
X124549993Y-119780615D01*
X124373702Y-119752693D01*
X124219124Y-119728210D01*
X124208988Y-119726056D01*
X123990729Y-119667574D01*
X123885399Y-119639351D01*
X123875555Y-119636152D01*
X123562823Y-119516105D01*
X123553357Y-119511891D01*
X123254867Y-119359803D01*
X123245893Y-119354621D01*
X122964957Y-119172179D01*
X122956573Y-119166088D01*
X122696242Y-118955276D01*
X122688541Y-118948343D01*
X122451657Y-118711459D01*
X122444724Y-118703758D01*
X122233912Y-118443427D01*
X122227821Y-118435043D01*
X122045379Y-118154107D01*
X122040197Y-118145133D01*
X121888109Y-117846643D01*
X121883895Y-117837177D01*
X121859851Y-117774542D01*
X121763848Y-117524445D01*
X121760648Y-117514598D01*
X121760648Y-117514596D01*
X121717730Y-117354426D01*
X121673944Y-117191012D01*
X121671790Y-117180876D01*
X121637969Y-116967343D01*
X121619385Y-116850007D01*
X121618303Y-116839709D01*
X121607096Y-116625861D01*
X121897051Y-116625861D01*
X121931419Y-116970177D01*
X121932024Y-116972951D01*
X121932024Y-116972952D01*
X121977360Y-117180880D01*
X122005133Y-117308261D01*
X122117217Y-117635633D01*
X122266186Y-117947952D01*
X122267700Y-117950365D01*
X122267703Y-117950371D01*
X122389877Y-118145133D01*
X122450064Y-118241079D01*
X122666415Y-118511129D01*
X122912371Y-118754523D01*
X122992723Y-118817527D01*
X123182433Y-118966279D01*
X123182440Y-118966284D01*
X123184672Y-118968034D01*
X123479709Y-119148832D01*
X123482294Y-119150032D01*
X123482296Y-119150033D01*
X123569968Y-119190729D01*
X123793570Y-119294522D01*
X124122097Y-119403172D01*
X124460935Y-119473342D01*
X124463773Y-119473595D01*
X124463778Y-119473596D01*
X124763036Y-119500304D01*
X124763038Y-119500304D01*
X124765233Y-119500500D01*
X124988189Y-119500500D01*
X125245453Y-119485666D01*
X125248261Y-119485176D01*
X125583529Y-119426663D01*
X125583537Y-119426661D01*
X125586328Y-119426174D01*
X125918106Y-119327897D01*
X126236389Y-119192138D01*
X126238854Y-119190732D01*
X126238860Y-119190729D01*
X126534487Y-119022106D01*
X126536959Y-119020696D01*
X126701266Y-118900000D01*
X154449196Y-118900000D01*
X154450415Y-118907696D01*
X154468536Y-119022106D01*
X154470281Y-119033126D01*
X154473817Y-119040065D01*
X154473817Y-119040066D01*
X154514446Y-119119804D01*
X154531472Y-119153220D01*
X154626780Y-119248528D01*
X154633717Y-119252063D01*
X154633719Y-119252064D01*
X154739934Y-119306183D01*
X154746874Y-119309719D01*
X154754568Y-119310938D01*
X154754569Y-119310938D01*
X154843022Y-119324947D01*
X154854556Y-119326774D01*
X154872304Y-119329585D01*
X154880000Y-119330804D01*
X154887696Y-119329585D01*
X154905445Y-119326774D01*
X154916978Y-119324947D01*
X155005431Y-119310938D01*
X155005432Y-119310938D01*
X155013126Y-119309719D01*
X155020066Y-119306183D01*
X155126281Y-119252064D01*
X155126283Y-119252063D01*
X155133220Y-119248528D01*
X155228528Y-119153220D01*
X155245555Y-119119804D01*
X155286183Y-119040066D01*
X155286183Y-119040065D01*
X155289719Y-119033126D01*
X155291465Y-119022106D01*
X155309585Y-118907696D01*
X155310804Y-118900000D01*
X155289719Y-118766874D01*
X155228528Y-118646780D01*
X155133220Y-118551472D01*
X155126283Y-118547937D01*
X155126281Y-118547936D01*
X155020066Y-118493817D01*
X155020065Y-118493817D01*
X155013126Y-118490281D01*
X155005432Y-118489062D01*
X155005431Y-118489062D01*
X154887696Y-118470415D01*
X154880000Y-118469196D01*
X154872304Y-118470415D01*
X154754569Y-118489062D01*
X154754568Y-118489062D01*
X154746874Y-118490281D01*
X154739935Y-118493817D01*
X154739934Y-118493817D01*
X154633719Y-118547936D01*
X154633717Y-118547937D01*
X154626780Y-118551472D01*
X154531472Y-118646780D01*
X154470281Y-118766874D01*
X154449196Y-118900000D01*
X126701266Y-118900000D01*
X126815832Y-118815843D01*
X126817910Y-118813912D01*
X126817916Y-118813907D01*
X127067224Y-118582235D01*
X127069312Y-118580295D01*
X127071160Y-118578131D01*
X127071165Y-118578126D01*
X127189650Y-118439397D01*
X127294038Y-118317174D01*
X127487033Y-118029967D01*
X127645739Y-117722482D01*
X127768050Y-117398793D01*
X127779195Y-117354426D01*
X127837275Y-117123199D01*
X127852348Y-117063190D01*
X127897513Y-116720124D01*
X127902949Y-116374139D01*
X127877582Y-116120000D01*
X138694196Y-116120000D01*
X138695415Y-116127696D01*
X138712421Y-116235066D01*
X138715281Y-116253126D01*
X138718817Y-116260065D01*
X138718817Y-116260066D01*
X138772045Y-116364531D01*
X138776472Y-116373220D01*
X138871780Y-116468528D01*
X138878717Y-116472063D01*
X138878719Y-116472064D01*
X138956690Y-116511792D01*
X138991874Y-116529719D01*
X138999568Y-116530938D01*
X138999569Y-116530938D01*
X139117304Y-116549585D01*
X139125000Y-116550804D01*
X139132696Y-116549585D01*
X139250431Y-116530938D01*
X139250432Y-116530938D01*
X139258126Y-116529719D01*
X139293310Y-116511792D01*
X139371281Y-116472064D01*
X139371283Y-116472063D01*
X139378220Y-116468528D01*
X139473528Y-116373220D01*
X139477956Y-116364531D01*
X139531183Y-116260066D01*
X139531183Y-116260065D01*
X139534719Y-116253126D01*
X139537580Y-116235066D01*
X139554585Y-116127696D01*
X139555804Y-116120000D01*
X139551844Y-116095000D01*
X145594196Y-116095000D01*
X145615281Y-116228126D01*
X145676472Y-116348220D01*
X145771780Y-116443528D01*
X145778717Y-116447063D01*
X145778719Y-116447064D01*
X145884934Y-116501183D01*
X145891874Y-116504719D01*
X145899568Y-116505938D01*
X145899569Y-116505938D01*
X146017304Y-116524585D01*
X146025000Y-116525804D01*
X146032696Y-116524585D01*
X146150431Y-116505938D01*
X146150432Y-116505938D01*
X146158126Y-116504719D01*
X146165066Y-116501183D01*
X146271281Y-116447064D01*
X146271283Y-116447063D01*
X146278220Y-116443528D01*
X146373528Y-116348220D01*
X146434719Y-116228126D01*
X146455804Y-116095000D01*
X146445042Y-116027048D01*
X146435938Y-115969569D01*
X146435938Y-115969568D01*
X146434719Y-115961874D01*
X146373528Y-115841780D01*
X146278220Y-115746472D01*
X146271283Y-115742937D01*
X146271281Y-115742936D01*
X146165066Y-115688817D01*
X146165065Y-115688817D01*
X146158126Y-115685281D01*
X146150432Y-115684062D01*
X146150431Y-115684062D01*
X146032696Y-115665415D01*
X146025000Y-115664196D01*
X146017304Y-115665415D01*
X145899569Y-115684062D01*
X145899568Y-115684062D01*
X145891874Y-115685281D01*
X145884935Y-115688817D01*
X145884934Y-115688817D01*
X145778719Y-115742936D01*
X145778717Y-115742937D01*
X145771780Y-115746472D01*
X145676472Y-115841780D01*
X145615281Y-115961874D01*
X145614062Y-115969568D01*
X145614062Y-115969569D01*
X145604958Y-116027048D01*
X145594196Y-116095000D01*
X139551844Y-116095000D01*
X139541970Y-116032657D01*
X139535938Y-115994569D01*
X139535938Y-115994568D01*
X139534719Y-115986874D01*
X139473528Y-115866780D01*
X139378220Y-115771472D01*
X139371283Y-115767937D01*
X139371281Y-115767936D01*
X139265066Y-115713817D01*
X139265065Y-115713817D01*
X139258126Y-115710281D01*
X139250432Y-115709062D01*
X139250431Y-115709062D01*
X139132696Y-115690415D01*
X139125000Y-115689196D01*
X139117304Y-115690415D01*
X138999569Y-115709062D01*
X138999568Y-115709062D01*
X138991874Y-115710281D01*
X138984935Y-115713817D01*
X138984934Y-115713817D01*
X138878719Y-115767936D01*
X138878717Y-115767937D01*
X138871780Y-115771472D01*
X138776472Y-115866780D01*
X138715281Y-115986874D01*
X138714062Y-115994568D01*
X138714062Y-115994569D01*
X138708030Y-116032657D01*
X138694196Y-116120000D01*
X127877582Y-116120000D01*
X127875087Y-116095000D01*
X127868864Y-116032657D01*
X127868864Y-116032655D01*
X127868581Y-116029823D01*
X127859217Y-115986874D01*
X127795473Y-115694518D01*
X127795473Y-115694517D01*
X127794867Y-115691739D01*
X127682783Y-115364367D01*
X127533814Y-115052048D01*
X127530197Y-115046281D01*
X127375705Y-114800000D01*
X157069196Y-114800000D01*
X157090281Y-114933126D01*
X157093817Y-114940065D01*
X157093817Y-114940066D01*
X157144770Y-115040066D01*
X157151472Y-115053220D01*
X157246780Y-115148528D01*
X157253717Y-115152063D01*
X157253719Y-115152064D01*
X157359934Y-115206183D01*
X157366874Y-115209719D01*
X157374568Y-115210938D01*
X157374569Y-115210938D01*
X157492304Y-115229585D01*
X157500000Y-115230804D01*
X157507696Y-115229585D01*
X157625431Y-115210938D01*
X157625432Y-115210938D01*
X157633126Y-115209719D01*
X157640066Y-115206183D01*
X157746281Y-115152064D01*
X157746283Y-115152063D01*
X157753220Y-115148528D01*
X157848528Y-115053220D01*
X157855231Y-115040066D01*
X157906183Y-114940066D01*
X157906183Y-114940065D01*
X157909719Y-114933126D01*
X157914966Y-114900000D01*
X160869196Y-114900000D01*
X160870415Y-114907696D01*
X160880690Y-114972568D01*
X160890281Y-115033126D01*
X160893817Y-115040065D01*
X160893817Y-115040066D01*
X160946276Y-115143022D01*
X160951472Y-115153220D01*
X161046780Y-115248528D01*
X161053717Y-115252063D01*
X161053719Y-115252064D01*
X161103676Y-115277518D01*
X161166874Y-115309719D01*
X161174568Y-115310938D01*
X161174569Y-115310938D01*
X161292304Y-115329585D01*
X161300000Y-115330804D01*
X161307696Y-115329585D01*
X161425431Y-115310938D01*
X161425432Y-115310938D01*
X161433126Y-115309719D01*
X161496324Y-115277518D01*
X161546281Y-115252064D01*
X161546283Y-115252063D01*
X161553220Y-115248528D01*
X161648528Y-115153220D01*
X161653725Y-115143022D01*
X161706183Y-115040066D01*
X161706183Y-115040065D01*
X161709719Y-115033126D01*
X161719311Y-114972568D01*
X161729585Y-114907696D01*
X161730804Y-114900000D01*
X161709719Y-114766874D01*
X161704534Y-114756698D01*
X161652064Y-114653719D01*
X161652063Y-114653717D01*
X161648528Y-114646780D01*
X161553220Y-114551472D01*
X161546283Y-114547937D01*
X161546281Y-114547936D01*
X161440066Y-114493817D01*
X161440065Y-114493817D01*
X161433126Y-114490281D01*
X161425432Y-114489062D01*
X161425431Y-114489062D01*
X161307696Y-114470415D01*
X161300000Y-114469196D01*
X161292304Y-114470415D01*
X161174569Y-114489062D01*
X161174568Y-114489062D01*
X161166874Y-114490281D01*
X161159935Y-114493817D01*
X161159934Y-114493817D01*
X161053719Y-114547936D01*
X161053717Y-114547937D01*
X161046780Y-114551472D01*
X160951472Y-114646780D01*
X160947937Y-114653717D01*
X160947936Y-114653719D01*
X160895466Y-114756698D01*
X160890281Y-114766874D01*
X160869196Y-114900000D01*
X157914966Y-114900000D01*
X157930804Y-114800000D01*
X157909719Y-114666874D01*
X157896675Y-114641274D01*
X157852064Y-114553719D01*
X157852063Y-114553717D01*
X157848528Y-114546780D01*
X157753220Y-114451472D01*
X157746283Y-114447937D01*
X157746281Y-114447936D01*
X157640066Y-114393817D01*
X157640065Y-114393817D01*
X157633126Y-114390281D01*
X157625432Y-114389062D01*
X157625431Y-114389062D01*
X157507696Y-114370415D01*
X157500000Y-114369196D01*
X157492304Y-114370415D01*
X157374569Y-114389062D01*
X157374568Y-114389062D01*
X157366874Y-114390281D01*
X157359935Y-114393817D01*
X157359934Y-114393817D01*
X157253719Y-114447936D01*
X157253717Y-114447937D01*
X157246780Y-114451472D01*
X157151472Y-114546780D01*
X157147937Y-114553717D01*
X157147936Y-114553719D01*
X157103325Y-114641274D01*
X157090281Y-114666874D01*
X157069196Y-114800000D01*
X127375705Y-114800000D01*
X127351452Y-114761338D01*
X127349936Y-114758921D01*
X127175568Y-114541274D01*
X127135370Y-114491099D01*
X127133585Y-114488871D01*
X126887629Y-114245477D01*
X126638328Y-114050000D01*
X160119196Y-114050000D01*
X160140281Y-114183126D01*
X160143817Y-114190065D01*
X160143817Y-114190066D01*
X160173075Y-114247487D01*
X160201472Y-114303220D01*
X160296780Y-114398528D01*
X160303717Y-114402063D01*
X160303719Y-114402064D01*
X160400688Y-114451472D01*
X160416874Y-114459719D01*
X160424568Y-114460938D01*
X160424569Y-114460938D01*
X160542304Y-114479585D01*
X160550000Y-114480804D01*
X160557696Y-114479585D01*
X160675431Y-114460938D01*
X160675432Y-114460938D01*
X160683126Y-114459719D01*
X160699312Y-114451472D01*
X160796281Y-114402064D01*
X160796283Y-114402063D01*
X160803220Y-114398528D01*
X160898528Y-114303220D01*
X160926926Y-114247487D01*
X160956183Y-114190066D01*
X160956183Y-114190065D01*
X160959719Y-114183126D01*
X160980804Y-114050000D01*
X160959719Y-113916874D01*
X160956183Y-113909934D01*
X160902064Y-113803719D01*
X160902063Y-113803717D01*
X160898528Y-113796780D01*
X160803220Y-113701472D01*
X160796283Y-113697937D01*
X160796281Y-113697936D01*
X160690066Y-113643817D01*
X160690065Y-113643817D01*
X160683126Y-113640281D01*
X160675432Y-113639062D01*
X160675431Y-113639062D01*
X160557696Y-113620415D01*
X160550000Y-113619196D01*
X160542304Y-113620415D01*
X160424569Y-113639062D01*
X160424568Y-113639062D01*
X160416874Y-113640281D01*
X160409935Y-113643817D01*
X160409934Y-113643817D01*
X160303719Y-113697936D01*
X160303717Y-113697937D01*
X160296780Y-113701472D01*
X160201472Y-113796780D01*
X160197937Y-113803717D01*
X160197936Y-113803719D01*
X160143817Y-113909934D01*
X160140281Y-113916874D01*
X160119196Y-114050000D01*
X126638328Y-114050000D01*
X126628513Y-114042304D01*
X126617567Y-114033721D01*
X126617560Y-114033716D01*
X126615328Y-114031966D01*
X126320291Y-113851168D01*
X126006430Y-113705478D01*
X125677903Y-113596828D01*
X125339065Y-113526658D01*
X125336227Y-113526405D01*
X125336222Y-113526404D01*
X125036964Y-113499696D01*
X125036962Y-113499696D01*
X125034767Y-113499500D01*
X124811811Y-113499500D01*
X124554547Y-113514334D01*
X124551740Y-113514824D01*
X124551739Y-113514824D01*
X124216471Y-113573337D01*
X124216463Y-113573339D01*
X124213672Y-113573826D01*
X123881894Y-113672103D01*
X123563611Y-113807862D01*
X123561146Y-113809268D01*
X123561140Y-113809271D01*
X123267599Y-113976704D01*
X123263041Y-113979304D01*
X122984168Y-114184157D01*
X122982090Y-114186088D01*
X122982084Y-114186093D01*
X122863508Y-114296281D01*
X122730688Y-114419705D01*
X122728840Y-114421869D01*
X122728835Y-114421874D01*
X122644545Y-114520565D01*
X122505962Y-114682826D01*
X122312967Y-114970033D01*
X122154261Y-115277518D01*
X122031950Y-115601207D01*
X122031255Y-115603972D01*
X122031253Y-115603980D01*
X122004552Y-115710281D01*
X121947652Y-115936810D01*
X121941975Y-115979934D01*
X121906009Y-116253126D01*
X121902487Y-116279876D01*
X121897051Y-116625861D01*
X121607096Y-116625861D01*
X121602212Y-116532666D01*
X121604047Y-116511792D01*
X121603747Y-116511757D01*
X121604389Y-116506179D01*
X121605655Y-116500718D01*
X121605656Y-116500000D01*
X121604412Y-116494545D01*
X121602980Y-116488266D01*
X121600500Y-116466248D01*
X121600500Y-111800000D01*
X134069196Y-111800000D01*
X134090281Y-111933126D01*
X134093817Y-111940065D01*
X134093817Y-111940066D01*
X134146276Y-112043022D01*
X134151472Y-112053220D01*
X134246780Y-112148528D01*
X134253717Y-112152063D01*
X134253719Y-112152064D01*
X134359934Y-112206183D01*
X134366874Y-112209719D01*
X134374568Y-112210938D01*
X134374569Y-112210938D01*
X134492304Y-112229585D01*
X134500000Y-112230804D01*
X134507696Y-112229585D01*
X134625431Y-112210938D01*
X134625432Y-112210938D01*
X134633126Y-112209719D01*
X134640066Y-112206183D01*
X134746281Y-112152064D01*
X134746283Y-112152063D01*
X134753220Y-112148528D01*
X134848528Y-112053220D01*
X134853725Y-112043022D01*
X134906183Y-111940066D01*
X134906183Y-111940065D01*
X134909719Y-111933126D01*
X134914966Y-111900000D01*
X135569196Y-111900000D01*
X135590281Y-112033126D01*
X135593817Y-112040065D01*
X135593817Y-112040066D01*
X135646276Y-112143022D01*
X135651472Y-112153220D01*
X135746780Y-112248528D01*
X135753717Y-112252063D01*
X135753719Y-112252064D01*
X135859934Y-112306183D01*
X135866874Y-112309719D01*
X135874568Y-112310938D01*
X135874569Y-112310938D01*
X135992304Y-112329585D01*
X136000000Y-112330804D01*
X136007696Y-112329585D01*
X136125431Y-112310938D01*
X136125432Y-112310938D01*
X136133126Y-112309719D01*
X136140066Y-112306183D01*
X136246281Y-112252064D01*
X136246283Y-112252063D01*
X136253220Y-112248528D01*
X136348528Y-112153220D01*
X136353725Y-112143022D01*
X136406183Y-112040066D01*
X136406183Y-112040065D01*
X136409719Y-112033126D01*
X136430804Y-111900000D01*
X136420212Y-111833126D01*
X136414966Y-111800000D01*
X137069196Y-111800000D01*
X137090281Y-111933126D01*
X137093817Y-111940065D01*
X137093817Y-111940066D01*
X137146276Y-112043022D01*
X137151472Y-112053220D01*
X137246780Y-112148528D01*
X137253717Y-112152063D01*
X137253719Y-112152064D01*
X137359934Y-112206183D01*
X137366874Y-112209719D01*
X137374568Y-112210938D01*
X137374569Y-112210938D01*
X137492304Y-112229585D01*
X137500000Y-112230804D01*
X137507696Y-112229585D01*
X137625431Y-112210938D01*
X137625432Y-112210938D01*
X137633126Y-112209719D01*
X137640066Y-112206183D01*
X137746281Y-112152064D01*
X137746283Y-112152063D01*
X137753220Y-112148528D01*
X137848528Y-112053220D01*
X137853725Y-112043022D01*
X137906183Y-111940066D01*
X137906183Y-111940065D01*
X137909719Y-111933126D01*
X137930804Y-111800000D01*
X143069196Y-111800000D01*
X143090281Y-111933126D01*
X143093817Y-111940065D01*
X143093817Y-111940066D01*
X143146276Y-112043022D01*
X143151472Y-112053220D01*
X143246780Y-112148528D01*
X143253717Y-112152063D01*
X143253719Y-112152064D01*
X143359934Y-112206183D01*
X143366874Y-112209719D01*
X143374568Y-112210938D01*
X143374569Y-112210938D01*
X143492304Y-112229585D01*
X143500000Y-112230804D01*
X143507696Y-112229585D01*
X143625431Y-112210938D01*
X143625432Y-112210938D01*
X143633126Y-112209719D01*
X143640066Y-112206183D01*
X143746281Y-112152064D01*
X143746283Y-112152063D01*
X143753220Y-112148528D01*
X143848528Y-112053220D01*
X143853725Y-112043022D01*
X143906183Y-111940066D01*
X143906183Y-111940065D01*
X143909719Y-111933126D01*
X143930804Y-111800000D01*
X143914966Y-111700000D01*
X149369196Y-111700000D01*
X149370415Y-111707696D01*
X149381007Y-111774569D01*
X149390281Y-111833126D01*
X149393817Y-111840065D01*
X149393817Y-111840066D01*
X149444770Y-111940066D01*
X149451472Y-111953220D01*
X149546780Y-112048528D01*
X149553717Y-112052063D01*
X149553719Y-112052064D01*
X149659934Y-112106183D01*
X149666874Y-112109719D01*
X149674568Y-112110938D01*
X149674569Y-112110938D01*
X149792304Y-112129585D01*
X149800000Y-112130804D01*
X149807696Y-112129585D01*
X149925431Y-112110938D01*
X149925432Y-112110938D01*
X149933126Y-112109719D01*
X149940066Y-112106183D01*
X150046281Y-112052064D01*
X150046283Y-112052063D01*
X150053220Y-112048528D01*
X150129996Y-111971752D01*
X150184513Y-111943975D01*
X150244945Y-111953546D01*
X150270004Y-111971752D01*
X150346780Y-112048528D01*
X150353717Y-112052063D01*
X150353719Y-112052064D01*
X150459934Y-112106183D01*
X150466874Y-112109719D01*
X150474568Y-112110938D01*
X150474569Y-112110938D01*
X150592304Y-112129585D01*
X150600000Y-112130804D01*
X150607696Y-112129585D01*
X150725431Y-112110938D01*
X150725432Y-112110938D01*
X150733126Y-112109719D01*
X150740066Y-112106183D01*
X150846281Y-112052064D01*
X150846283Y-112052063D01*
X150853220Y-112048528D01*
X150948528Y-111953220D01*
X150955231Y-111940066D01*
X150975645Y-111900000D01*
X152069196Y-111900000D01*
X152090281Y-112033126D01*
X152093817Y-112040065D01*
X152093817Y-112040066D01*
X152146276Y-112143022D01*
X152151472Y-112153220D01*
X152246780Y-112248528D01*
X152253717Y-112252063D01*
X152253719Y-112252064D01*
X152359934Y-112306183D01*
X152366874Y-112309719D01*
X152374568Y-112310938D01*
X152374569Y-112310938D01*
X152492304Y-112329585D01*
X152500000Y-112330804D01*
X152507696Y-112329585D01*
X152625431Y-112310938D01*
X152625432Y-112310938D01*
X152633126Y-112309719D01*
X152640066Y-112306183D01*
X152746281Y-112252064D01*
X152746283Y-112252063D01*
X152753220Y-112248528D01*
X152848528Y-112153220D01*
X152853725Y-112143022D01*
X152906183Y-112040066D01*
X152906183Y-112040065D01*
X152909719Y-112033126D01*
X152930804Y-111900000D01*
X152920212Y-111833126D01*
X152910938Y-111774569D01*
X152910938Y-111774568D01*
X152909719Y-111766874D01*
X152906183Y-111759934D01*
X152875645Y-111700000D01*
X153569196Y-111700000D01*
X153570415Y-111707696D01*
X153581007Y-111774569D01*
X153590281Y-111833126D01*
X153593817Y-111840065D01*
X153593817Y-111840066D01*
X153644770Y-111940066D01*
X153651472Y-111953220D01*
X153746780Y-112048528D01*
X153753717Y-112052063D01*
X153753719Y-112052064D01*
X153859934Y-112106183D01*
X153866874Y-112109719D01*
X153874568Y-112110938D01*
X153874569Y-112110938D01*
X153992304Y-112129585D01*
X154000000Y-112130804D01*
X154007696Y-112129585D01*
X154125431Y-112110938D01*
X154125432Y-112110938D01*
X154133126Y-112109719D01*
X154140066Y-112106183D01*
X154246281Y-112052064D01*
X154246283Y-112052063D01*
X154253220Y-112048528D01*
X154348528Y-111953220D01*
X154355231Y-111940066D01*
X154406183Y-111840066D01*
X154406183Y-111840065D01*
X154409719Y-111833126D01*
X154414966Y-111800000D01*
X155069196Y-111800000D01*
X155090281Y-111933126D01*
X155093817Y-111940065D01*
X155093817Y-111940066D01*
X155146276Y-112043022D01*
X155151472Y-112053220D01*
X155246780Y-112148528D01*
X155253717Y-112152063D01*
X155253719Y-112152064D01*
X155359934Y-112206183D01*
X155366874Y-112209719D01*
X155374568Y-112210938D01*
X155374569Y-112210938D01*
X155492304Y-112229585D01*
X155500000Y-112230804D01*
X155507696Y-112229585D01*
X155625431Y-112210938D01*
X155625432Y-112210938D01*
X155633126Y-112209719D01*
X155640066Y-112206183D01*
X155746281Y-112152064D01*
X155746283Y-112152063D01*
X155753220Y-112148528D01*
X155848528Y-112053220D01*
X155853725Y-112043022D01*
X155906183Y-111940066D01*
X155906183Y-111940065D01*
X155909719Y-111933126D01*
X155930804Y-111800000D01*
X155909719Y-111666874D01*
X155896675Y-111641274D01*
X155852064Y-111553719D01*
X155852063Y-111553717D01*
X155848528Y-111546780D01*
X155753220Y-111451472D01*
X155746283Y-111447937D01*
X155746281Y-111447936D01*
X155640066Y-111393817D01*
X155640065Y-111393817D01*
X155633126Y-111390281D01*
X155625432Y-111389062D01*
X155625431Y-111389062D01*
X155507696Y-111370415D01*
X155500000Y-111369196D01*
X155492304Y-111370415D01*
X155374569Y-111389062D01*
X155374568Y-111389062D01*
X155366874Y-111390281D01*
X155359935Y-111393817D01*
X155359934Y-111393817D01*
X155253719Y-111447936D01*
X155253717Y-111447937D01*
X155246780Y-111451472D01*
X155151472Y-111546780D01*
X155147937Y-111553717D01*
X155147936Y-111553719D01*
X155103325Y-111641274D01*
X155090281Y-111666874D01*
X155069196Y-111800000D01*
X154414966Y-111800000D01*
X154418994Y-111774569D01*
X154429585Y-111707696D01*
X154430804Y-111700000D01*
X154409719Y-111566874D01*
X154359950Y-111469196D01*
X154352064Y-111453719D01*
X154352063Y-111453717D01*
X154348528Y-111446780D01*
X154253220Y-111351472D01*
X154246283Y-111347937D01*
X154246281Y-111347936D01*
X154140066Y-111293817D01*
X154140065Y-111293817D01*
X154133126Y-111290281D01*
X154125432Y-111289062D01*
X154125431Y-111289062D01*
X154007696Y-111270415D01*
X154000000Y-111269196D01*
X153992304Y-111270415D01*
X153874569Y-111289062D01*
X153874568Y-111289062D01*
X153866874Y-111290281D01*
X153859935Y-111293817D01*
X153859934Y-111293817D01*
X153753719Y-111347936D01*
X153753717Y-111347937D01*
X153746780Y-111351472D01*
X153651472Y-111446780D01*
X153647937Y-111453717D01*
X153647936Y-111453719D01*
X153640050Y-111469196D01*
X153590281Y-111566874D01*
X153569196Y-111700000D01*
X152875645Y-111700000D01*
X152852064Y-111653719D01*
X152852063Y-111653717D01*
X152848528Y-111646780D01*
X152753220Y-111551472D01*
X152746283Y-111547937D01*
X152746281Y-111547936D01*
X152640066Y-111493817D01*
X152640065Y-111493817D01*
X152633126Y-111490281D01*
X152625432Y-111489062D01*
X152625431Y-111489062D01*
X152507696Y-111470415D01*
X152500000Y-111469196D01*
X152492304Y-111470415D01*
X152374569Y-111489062D01*
X152374568Y-111489062D01*
X152366874Y-111490281D01*
X152359935Y-111493817D01*
X152359934Y-111493817D01*
X152253719Y-111547936D01*
X152253717Y-111547937D01*
X152246780Y-111551472D01*
X152151472Y-111646780D01*
X152147937Y-111653717D01*
X152147936Y-111653719D01*
X152093817Y-111759934D01*
X152090281Y-111766874D01*
X152089062Y-111774568D01*
X152089062Y-111774569D01*
X152079788Y-111833126D01*
X152069196Y-111900000D01*
X150975645Y-111900000D01*
X151006183Y-111840066D01*
X151006183Y-111840065D01*
X151009719Y-111833126D01*
X151018994Y-111774569D01*
X151029585Y-111707696D01*
X151030804Y-111700000D01*
X151009719Y-111566874D01*
X150959950Y-111469196D01*
X150952064Y-111453719D01*
X150952063Y-111453717D01*
X150948528Y-111446780D01*
X150853220Y-111351472D01*
X150846283Y-111347937D01*
X150846281Y-111347936D01*
X150740066Y-111293817D01*
X150740065Y-111293817D01*
X150733126Y-111290281D01*
X150725432Y-111289062D01*
X150725431Y-111289062D01*
X150607696Y-111270415D01*
X150600000Y-111269196D01*
X150592304Y-111270415D01*
X150474569Y-111289062D01*
X150474568Y-111289062D01*
X150466874Y-111290281D01*
X150459935Y-111293817D01*
X150459934Y-111293817D01*
X150353719Y-111347936D01*
X150353717Y-111347937D01*
X150346780Y-111351472D01*
X150270004Y-111428248D01*
X150215487Y-111456025D01*
X150155055Y-111446454D01*
X150129996Y-111428248D01*
X150053220Y-111351472D01*
X150046283Y-111347937D01*
X150046281Y-111347936D01*
X149940066Y-111293817D01*
X149940065Y-111293817D01*
X149933126Y-111290281D01*
X149925432Y-111289062D01*
X149925431Y-111289062D01*
X149807696Y-111270415D01*
X149800000Y-111269196D01*
X149792304Y-111270415D01*
X149674569Y-111289062D01*
X149674568Y-111289062D01*
X149666874Y-111290281D01*
X149659935Y-111293817D01*
X149659934Y-111293817D01*
X149553719Y-111347936D01*
X149553717Y-111347937D01*
X149546780Y-111351472D01*
X149451472Y-111446780D01*
X149447937Y-111453717D01*
X149447936Y-111453719D01*
X149440050Y-111469196D01*
X149390281Y-111566874D01*
X149369196Y-111700000D01*
X143914966Y-111700000D01*
X143909719Y-111666874D01*
X143896675Y-111641274D01*
X143852064Y-111553719D01*
X143852063Y-111553717D01*
X143848528Y-111546780D01*
X143753220Y-111451472D01*
X143746283Y-111447937D01*
X143746281Y-111447936D01*
X143640066Y-111393817D01*
X143640065Y-111393817D01*
X143633126Y-111390281D01*
X143625432Y-111389062D01*
X143625431Y-111389062D01*
X143507696Y-111370415D01*
X143500000Y-111369196D01*
X143492304Y-111370415D01*
X143374569Y-111389062D01*
X143374568Y-111389062D01*
X143366874Y-111390281D01*
X143359935Y-111393817D01*
X143359934Y-111393817D01*
X143253719Y-111447936D01*
X143253717Y-111447937D01*
X143246780Y-111451472D01*
X143151472Y-111546780D01*
X143147937Y-111553717D01*
X143147936Y-111553719D01*
X143103325Y-111641274D01*
X143090281Y-111666874D01*
X143069196Y-111800000D01*
X137930804Y-111800000D01*
X137909719Y-111666874D01*
X137896675Y-111641274D01*
X137852064Y-111553719D01*
X137852063Y-111553717D01*
X137848528Y-111546780D01*
X137753220Y-111451472D01*
X137746283Y-111447937D01*
X137746281Y-111447936D01*
X137640066Y-111393817D01*
X137640065Y-111393817D01*
X137633126Y-111390281D01*
X137625432Y-111389062D01*
X137625431Y-111389062D01*
X137507696Y-111370415D01*
X137500000Y-111369196D01*
X137492304Y-111370415D01*
X137374569Y-111389062D01*
X137374568Y-111389062D01*
X137366874Y-111390281D01*
X137359935Y-111393817D01*
X137359934Y-111393817D01*
X137253719Y-111447936D01*
X137253717Y-111447937D01*
X137246780Y-111451472D01*
X137151472Y-111546780D01*
X137147937Y-111553717D01*
X137147936Y-111553719D01*
X137103325Y-111641274D01*
X137090281Y-111666874D01*
X137069196Y-111800000D01*
X136414966Y-111800000D01*
X136410938Y-111774569D01*
X136410938Y-111774568D01*
X136409719Y-111766874D01*
X136406183Y-111759934D01*
X136352064Y-111653719D01*
X136352063Y-111653717D01*
X136348528Y-111646780D01*
X136253220Y-111551472D01*
X136246283Y-111547937D01*
X136246281Y-111547936D01*
X136140066Y-111493817D01*
X136140065Y-111493817D01*
X136133126Y-111490281D01*
X136125432Y-111489062D01*
X136125431Y-111489062D01*
X136007696Y-111470415D01*
X136000000Y-111469196D01*
X135992304Y-111470415D01*
X135874569Y-111489062D01*
X135874568Y-111489062D01*
X135866874Y-111490281D01*
X135859935Y-111493817D01*
X135859934Y-111493817D01*
X135753719Y-111547936D01*
X135753717Y-111547937D01*
X135746780Y-111551472D01*
X135651472Y-111646780D01*
X135647937Y-111653717D01*
X135647936Y-111653719D01*
X135593817Y-111759934D01*
X135590281Y-111766874D01*
X135589062Y-111774568D01*
X135589062Y-111774569D01*
X135579788Y-111833126D01*
X135569196Y-111900000D01*
X134914966Y-111900000D01*
X134930804Y-111800000D01*
X134909719Y-111666874D01*
X134896675Y-111641274D01*
X134852064Y-111553719D01*
X134852063Y-111553717D01*
X134848528Y-111546780D01*
X134753220Y-111451472D01*
X134746283Y-111447937D01*
X134746281Y-111447936D01*
X134640066Y-111393817D01*
X134640065Y-111393817D01*
X134633126Y-111390281D01*
X134625432Y-111389062D01*
X134625431Y-111389062D01*
X134507696Y-111370415D01*
X134500000Y-111369196D01*
X134492304Y-111370415D01*
X134374569Y-111389062D01*
X134374568Y-111389062D01*
X134366874Y-111390281D01*
X134359935Y-111393817D01*
X134359934Y-111393817D01*
X134253719Y-111447936D01*
X134253717Y-111447937D01*
X134246780Y-111451472D01*
X134151472Y-111546780D01*
X134147937Y-111553717D01*
X134147936Y-111553719D01*
X134103325Y-111641274D01*
X134090281Y-111666874D01*
X134069196Y-111800000D01*
X121600500Y-111800000D01*
X121600500Y-110250000D01*
X144569196Y-110250000D01*
X144590281Y-110383126D01*
X144651472Y-110503220D01*
X144746780Y-110598528D01*
X144753717Y-110602063D01*
X144753719Y-110602064D01*
X144840500Y-110646281D01*
X144866874Y-110659719D01*
X144874568Y-110660938D01*
X144874569Y-110660938D01*
X144992304Y-110679585D01*
X145000000Y-110680804D01*
X145007696Y-110679585D01*
X145125431Y-110660938D01*
X145125432Y-110660938D01*
X145133126Y-110659719D01*
X145159500Y-110646281D01*
X145246281Y-110602064D01*
X145246283Y-110602063D01*
X145253220Y-110598528D01*
X145348528Y-110503220D01*
X145401121Y-110400000D01*
X149069196Y-110400000D01*
X149090281Y-110533126D01*
X149093817Y-110540065D01*
X149093817Y-110540066D01*
X149125407Y-110602064D01*
X149151472Y-110653220D01*
X149246780Y-110748528D01*
X149253717Y-110752063D01*
X149253719Y-110752064D01*
X149359934Y-110806183D01*
X149366874Y-110809719D01*
X149374568Y-110810938D01*
X149374569Y-110810938D01*
X149492304Y-110829585D01*
X149500000Y-110830804D01*
X149507696Y-110829585D01*
X149625431Y-110810938D01*
X149625432Y-110810938D01*
X149633126Y-110809719D01*
X149640066Y-110806183D01*
X149746281Y-110752064D01*
X149746283Y-110752063D01*
X149753220Y-110748528D01*
X149848528Y-110653220D01*
X149874594Y-110602064D01*
X149906183Y-110540066D01*
X149906183Y-110540065D01*
X149909719Y-110533126D01*
X149930804Y-110400000D01*
X149909719Y-110266874D01*
X149848528Y-110146780D01*
X149753220Y-110051472D01*
X149746283Y-110047937D01*
X149746281Y-110047936D01*
X149652201Y-110000000D01*
X161869196Y-110000000D01*
X161870415Y-110007696D01*
X161888926Y-110124569D01*
X161890281Y-110133126D01*
X161951472Y-110253220D01*
X162046780Y-110348528D01*
X162053717Y-110352063D01*
X162053719Y-110352064D01*
X162132695Y-110392304D01*
X162166874Y-110409719D01*
X162174568Y-110410938D01*
X162174569Y-110410938D01*
X162292304Y-110429585D01*
X162300000Y-110430804D01*
X162307696Y-110429585D01*
X162425431Y-110410938D01*
X162425432Y-110410938D01*
X162433126Y-110409719D01*
X162467305Y-110392304D01*
X162546281Y-110352064D01*
X162546283Y-110352063D01*
X162553220Y-110348528D01*
X162648528Y-110253220D01*
X162709719Y-110133126D01*
X162711075Y-110124569D01*
X162729585Y-110007696D01*
X162730804Y-110000000D01*
X163869196Y-110000000D01*
X163870415Y-110007696D01*
X163888926Y-110124569D01*
X163890281Y-110133126D01*
X163951472Y-110253220D01*
X164046780Y-110348528D01*
X164053717Y-110352063D01*
X164053719Y-110352064D01*
X164132695Y-110392304D01*
X164166874Y-110409719D01*
X164174568Y-110410938D01*
X164174569Y-110410938D01*
X164292304Y-110429585D01*
X164300000Y-110430804D01*
X164307696Y-110429585D01*
X164425431Y-110410938D01*
X164425432Y-110410938D01*
X164433126Y-110409719D01*
X164467305Y-110392304D01*
X164546281Y-110352064D01*
X164546283Y-110352063D01*
X164553220Y-110348528D01*
X164648528Y-110253220D01*
X164709719Y-110133126D01*
X164711075Y-110124569D01*
X164729585Y-110007696D01*
X164730804Y-110000000D01*
X164709719Y-109866874D01*
X164648528Y-109746780D01*
X164553220Y-109651472D01*
X164546283Y-109647937D01*
X164546281Y-109647936D01*
X164440066Y-109593817D01*
X164440065Y-109593817D01*
X164433126Y-109590281D01*
X164425432Y-109589062D01*
X164425431Y-109589062D01*
X164307696Y-109570415D01*
X164300000Y-109569196D01*
X164292304Y-109570415D01*
X164174569Y-109589062D01*
X164174568Y-109589062D01*
X164166874Y-109590281D01*
X164159935Y-109593817D01*
X164159934Y-109593817D01*
X164053719Y-109647936D01*
X164053717Y-109647937D01*
X164046780Y-109651472D01*
X163951472Y-109746780D01*
X163890281Y-109866874D01*
X163869196Y-110000000D01*
X162730804Y-110000000D01*
X162709719Y-109866874D01*
X162648528Y-109746780D01*
X162553220Y-109651472D01*
X162546283Y-109647937D01*
X162546281Y-109647936D01*
X162440066Y-109593817D01*
X162440065Y-109593817D01*
X162433126Y-109590281D01*
X162425432Y-109589062D01*
X162425431Y-109589062D01*
X162307696Y-109570415D01*
X162300000Y-109569196D01*
X162292304Y-109570415D01*
X162174569Y-109589062D01*
X162174568Y-109589062D01*
X162166874Y-109590281D01*
X162159935Y-109593817D01*
X162159934Y-109593817D01*
X162053719Y-109647936D01*
X162053717Y-109647937D01*
X162046780Y-109651472D01*
X161951472Y-109746780D01*
X161890281Y-109866874D01*
X161869196Y-110000000D01*
X149652201Y-110000000D01*
X149640066Y-109993817D01*
X149640065Y-109993817D01*
X149633126Y-109990281D01*
X149625432Y-109989062D01*
X149625431Y-109989062D01*
X149507696Y-109970415D01*
X149500000Y-109969196D01*
X149492304Y-109970415D01*
X149374569Y-109989062D01*
X149374568Y-109989062D01*
X149366874Y-109990281D01*
X149359935Y-109993817D01*
X149359934Y-109993817D01*
X149253719Y-110047936D01*
X149253717Y-110047937D01*
X149246780Y-110051472D01*
X149151472Y-110146780D01*
X149090281Y-110266874D01*
X149069196Y-110400000D01*
X145401121Y-110400000D01*
X145409719Y-110383126D01*
X145430804Y-110250000D01*
X145412293Y-110133126D01*
X145410938Y-110124569D01*
X145410938Y-110124568D01*
X145409719Y-110116874D01*
X145406183Y-110109934D01*
X145352064Y-110003719D01*
X145352063Y-110003717D01*
X145348528Y-109996780D01*
X145253220Y-109901472D01*
X145246283Y-109897937D01*
X145246281Y-109897936D01*
X145140066Y-109843817D01*
X145140065Y-109843817D01*
X145133126Y-109840281D01*
X145125432Y-109839062D01*
X145125431Y-109839062D01*
X145007696Y-109820415D01*
X145000000Y-109819196D01*
X144992304Y-109820415D01*
X144874569Y-109839062D01*
X144874568Y-109839062D01*
X144866874Y-109840281D01*
X144859935Y-109843817D01*
X144859934Y-109843817D01*
X144753719Y-109897936D01*
X144753717Y-109897937D01*
X144746780Y-109901472D01*
X144651472Y-109996780D01*
X144647937Y-110003717D01*
X144647936Y-110003719D01*
X144593817Y-110109934D01*
X144590281Y-110116874D01*
X144589062Y-110124568D01*
X144589062Y-110124569D01*
X144587707Y-110133126D01*
X144569196Y-110250000D01*
X121600500Y-110250000D01*
X121600500Y-108000000D01*
X163469196Y-108000000D01*
X163490281Y-108133126D01*
X163551472Y-108253220D01*
X163646780Y-108348528D01*
X163653717Y-108352063D01*
X163653719Y-108352064D01*
X163759934Y-108406183D01*
X163766874Y-108409719D01*
X163774568Y-108410938D01*
X163774569Y-108410938D01*
X163892304Y-108429585D01*
X163900000Y-108430804D01*
X163907696Y-108429585D01*
X164025431Y-108410938D01*
X164025432Y-108410938D01*
X164033126Y-108409719D01*
X164040066Y-108406183D01*
X164146281Y-108352064D01*
X164146283Y-108352063D01*
X164153220Y-108348528D01*
X164248528Y-108253220D01*
X164261790Y-108227192D01*
X164305055Y-108183927D01*
X164365487Y-108174356D01*
X164420004Y-108202134D01*
X164438210Y-108227192D01*
X164451472Y-108253220D01*
X164546780Y-108348528D01*
X164553717Y-108352063D01*
X164553719Y-108352064D01*
X164659934Y-108406183D01*
X164666874Y-108409719D01*
X164674568Y-108410938D01*
X164674569Y-108410938D01*
X164792304Y-108429585D01*
X164800000Y-108430804D01*
X164807696Y-108429585D01*
X164925431Y-108410938D01*
X164925432Y-108410938D01*
X164933126Y-108409719D01*
X164940066Y-108406183D01*
X165046281Y-108352064D01*
X165046283Y-108352063D01*
X165053220Y-108348528D01*
X165148528Y-108253220D01*
X165209719Y-108133126D01*
X165230804Y-108000000D01*
X165209719Y-107866874D01*
X165206183Y-107859934D01*
X165152064Y-107753719D01*
X165152063Y-107753717D01*
X165148528Y-107746780D01*
X165053220Y-107651472D01*
X165046283Y-107647937D01*
X165046281Y-107647936D01*
X164940066Y-107593817D01*
X164940065Y-107593817D01*
X164933126Y-107590281D01*
X164925432Y-107589062D01*
X164925431Y-107589062D01*
X164807696Y-107570415D01*
X164800000Y-107569196D01*
X164792304Y-107570415D01*
X164674569Y-107589062D01*
X164674568Y-107589062D01*
X164666874Y-107590281D01*
X164659935Y-107593817D01*
X164659934Y-107593817D01*
X164553719Y-107647936D01*
X164553717Y-107647937D01*
X164546780Y-107651472D01*
X164451472Y-107746780D01*
X164447937Y-107753717D01*
X164447936Y-107753719D01*
X164438210Y-107772808D01*
X164394945Y-107816073D01*
X164334513Y-107825644D01*
X164279996Y-107797866D01*
X164261790Y-107772808D01*
X164252064Y-107753719D01*
X164252063Y-107753717D01*
X164248528Y-107746780D01*
X164153220Y-107651472D01*
X164146283Y-107647937D01*
X164146281Y-107647936D01*
X164040066Y-107593817D01*
X164040065Y-107593817D01*
X164033126Y-107590281D01*
X164025432Y-107589062D01*
X164025431Y-107589062D01*
X163907696Y-107570415D01*
X163900000Y-107569196D01*
X163892304Y-107570415D01*
X163774569Y-107589062D01*
X163774568Y-107589062D01*
X163766874Y-107590281D01*
X163759935Y-107593817D01*
X163759934Y-107593817D01*
X163653719Y-107647936D01*
X163653717Y-107647937D01*
X163646780Y-107651472D01*
X163551472Y-107746780D01*
X163547937Y-107753717D01*
X163547936Y-107753719D01*
X163493817Y-107859934D01*
X163490281Y-107866874D01*
X163469196Y-108000000D01*
X121600500Y-108000000D01*
X121600500Y-107400000D01*
X134069196Y-107400000D01*
X134090281Y-107533126D01*
X134093817Y-107540065D01*
X134093817Y-107540066D01*
X134146276Y-107643022D01*
X134151472Y-107653220D01*
X134246780Y-107748528D01*
X134253717Y-107752063D01*
X134253719Y-107752064D01*
X134294432Y-107772808D01*
X134366874Y-107809719D01*
X134374568Y-107810938D01*
X134374569Y-107810938D01*
X134492304Y-107829585D01*
X134500000Y-107830804D01*
X134507696Y-107829585D01*
X134625431Y-107810938D01*
X134625432Y-107810938D01*
X134633126Y-107809719D01*
X134705568Y-107772808D01*
X134746281Y-107752064D01*
X134746283Y-107752063D01*
X134753220Y-107748528D01*
X134848528Y-107653220D01*
X134853725Y-107643022D01*
X134906183Y-107540066D01*
X134906183Y-107540065D01*
X134909719Y-107533126D01*
X134930804Y-107400000D01*
X135569196Y-107400000D01*
X135590281Y-107533126D01*
X135593817Y-107540065D01*
X135593817Y-107540066D01*
X135646276Y-107643022D01*
X135651472Y-107653220D01*
X135746780Y-107748528D01*
X135753717Y-107752063D01*
X135753719Y-107752064D01*
X135794432Y-107772808D01*
X135866874Y-107809719D01*
X135874568Y-107810938D01*
X135874569Y-107810938D01*
X135992304Y-107829585D01*
X136000000Y-107830804D01*
X136007696Y-107829585D01*
X136125431Y-107810938D01*
X136125432Y-107810938D01*
X136133126Y-107809719D01*
X136205568Y-107772808D01*
X136246281Y-107752064D01*
X136246283Y-107752063D01*
X136253220Y-107748528D01*
X136348528Y-107653220D01*
X136353725Y-107643022D01*
X136406183Y-107540066D01*
X136406183Y-107540065D01*
X136409719Y-107533126D01*
X136430804Y-107400000D01*
X136420212Y-107333126D01*
X136410938Y-107274569D01*
X136410938Y-107274568D01*
X136409719Y-107266874D01*
X136406183Y-107259934D01*
X136375645Y-107200000D01*
X144569196Y-107200000D01*
X144570415Y-107207696D01*
X144581007Y-107274569D01*
X144590281Y-107333126D01*
X144593817Y-107340065D01*
X144593817Y-107340066D01*
X144644770Y-107440066D01*
X144651472Y-107453220D01*
X144746780Y-107548528D01*
X144753717Y-107552063D01*
X144753719Y-107552064D01*
X144859934Y-107606183D01*
X144866874Y-107609719D01*
X144874568Y-107610938D01*
X144874569Y-107610938D01*
X144992304Y-107629585D01*
X145000000Y-107630804D01*
X145007696Y-107629585D01*
X145125431Y-107610938D01*
X145125432Y-107610938D01*
X145133126Y-107609719D01*
X145140066Y-107606183D01*
X145246281Y-107552064D01*
X145246283Y-107552063D01*
X145253220Y-107548528D01*
X145348528Y-107453220D01*
X145355231Y-107440066D01*
X145406183Y-107340066D01*
X145406183Y-107340065D01*
X145409719Y-107333126D01*
X145414966Y-107300000D01*
X153569196Y-107300000D01*
X153590281Y-107433126D01*
X153593817Y-107440065D01*
X153593817Y-107440066D01*
X153646276Y-107543022D01*
X153651472Y-107553220D01*
X153746780Y-107648528D01*
X153753717Y-107652063D01*
X153753719Y-107652064D01*
X153859934Y-107706183D01*
X153866874Y-107709719D01*
X153874568Y-107710938D01*
X153874569Y-107710938D01*
X153992304Y-107729585D01*
X154000000Y-107730804D01*
X154007696Y-107729585D01*
X154125431Y-107710938D01*
X154125432Y-107710938D01*
X154133126Y-107709719D01*
X154140066Y-107706183D01*
X154246281Y-107652064D01*
X154246283Y-107652063D01*
X154253220Y-107648528D01*
X154348528Y-107553220D01*
X154353725Y-107543022D01*
X154406183Y-107440066D01*
X154406183Y-107440065D01*
X154409719Y-107433126D01*
X154430804Y-107300000D01*
X154414966Y-107200000D01*
X155069196Y-107200000D01*
X155070415Y-107207696D01*
X155081007Y-107274569D01*
X155090281Y-107333126D01*
X155093817Y-107340065D01*
X155093817Y-107340066D01*
X155144770Y-107440066D01*
X155151472Y-107453220D01*
X155246780Y-107548528D01*
X155253717Y-107552063D01*
X155253719Y-107552064D01*
X155359934Y-107606183D01*
X155366874Y-107609719D01*
X155374568Y-107610938D01*
X155374569Y-107610938D01*
X155492304Y-107629585D01*
X155500000Y-107630804D01*
X155507696Y-107629585D01*
X155625431Y-107610938D01*
X155625432Y-107610938D01*
X155633126Y-107609719D01*
X155640066Y-107606183D01*
X155746281Y-107552064D01*
X155746283Y-107552063D01*
X155753220Y-107548528D01*
X155848528Y-107453220D01*
X155855231Y-107440066D01*
X155906183Y-107340066D01*
X155906183Y-107340065D01*
X155909719Y-107333126D01*
X155918994Y-107274569D01*
X155929585Y-107207696D01*
X155930804Y-107200000D01*
X159469196Y-107200000D01*
X159470415Y-107207696D01*
X159481007Y-107274569D01*
X159490281Y-107333126D01*
X159493817Y-107340065D01*
X159493817Y-107340066D01*
X159544770Y-107440066D01*
X159551472Y-107453220D01*
X159646780Y-107548528D01*
X159653717Y-107552063D01*
X159653719Y-107552064D01*
X159759934Y-107606183D01*
X159766874Y-107609719D01*
X159774568Y-107610938D01*
X159774569Y-107610938D01*
X159892304Y-107629585D01*
X159900000Y-107630804D01*
X159907696Y-107629585D01*
X160025431Y-107610938D01*
X160025432Y-107610938D01*
X160033126Y-107609719D01*
X160040066Y-107606183D01*
X160146281Y-107552064D01*
X160146283Y-107552063D01*
X160153220Y-107548528D01*
X160248528Y-107453220D01*
X160255231Y-107440066D01*
X160306183Y-107340066D01*
X160306183Y-107340065D01*
X160309719Y-107333126D01*
X160318994Y-107274569D01*
X160329585Y-107207696D01*
X160330804Y-107200000D01*
X160309719Y-107066874D01*
X160259950Y-106969196D01*
X160252064Y-106953719D01*
X160252063Y-106953717D01*
X160248528Y-106946780D01*
X160153220Y-106851472D01*
X160146283Y-106847937D01*
X160146281Y-106847936D01*
X160040066Y-106793817D01*
X160040065Y-106793817D01*
X160033126Y-106790281D01*
X160025432Y-106789062D01*
X160025431Y-106789062D01*
X159907696Y-106770415D01*
X159900000Y-106769196D01*
X159892304Y-106770415D01*
X159774569Y-106789062D01*
X159774568Y-106789062D01*
X159766874Y-106790281D01*
X159759935Y-106793817D01*
X159759934Y-106793817D01*
X159653719Y-106847936D01*
X159653717Y-106847937D01*
X159646780Y-106851472D01*
X159551472Y-106946780D01*
X159547937Y-106953717D01*
X159547936Y-106953719D01*
X159540050Y-106969196D01*
X159490281Y-107066874D01*
X159469196Y-107200000D01*
X155930804Y-107200000D01*
X155909719Y-107066874D01*
X155859950Y-106969196D01*
X155852064Y-106953719D01*
X155852063Y-106953717D01*
X155848528Y-106946780D01*
X155753220Y-106851472D01*
X155746283Y-106847937D01*
X155746281Y-106847936D01*
X155640066Y-106793817D01*
X155640065Y-106793817D01*
X155633126Y-106790281D01*
X155625432Y-106789062D01*
X155625431Y-106789062D01*
X155507696Y-106770415D01*
X155500000Y-106769196D01*
X155492304Y-106770415D01*
X155374569Y-106789062D01*
X155374568Y-106789062D01*
X155366874Y-106790281D01*
X155359935Y-106793817D01*
X155359934Y-106793817D01*
X155253719Y-106847936D01*
X155253717Y-106847937D01*
X155246780Y-106851472D01*
X155151472Y-106946780D01*
X155147937Y-106953717D01*
X155147936Y-106953719D01*
X155140050Y-106969196D01*
X155090281Y-107066874D01*
X155069196Y-107200000D01*
X154414966Y-107200000D01*
X154409719Y-107166874D01*
X154396675Y-107141274D01*
X154352064Y-107053719D01*
X154352063Y-107053717D01*
X154348528Y-107046780D01*
X154253220Y-106951472D01*
X154246283Y-106947937D01*
X154246281Y-106947936D01*
X154140066Y-106893817D01*
X154140065Y-106893817D01*
X154133126Y-106890281D01*
X154125432Y-106889062D01*
X154125431Y-106889062D01*
X154007696Y-106870415D01*
X154000000Y-106869196D01*
X153992304Y-106870415D01*
X153874569Y-106889062D01*
X153874568Y-106889062D01*
X153866874Y-106890281D01*
X153859935Y-106893817D01*
X153859934Y-106893817D01*
X153753719Y-106947936D01*
X153753717Y-106947937D01*
X153746780Y-106951472D01*
X153651472Y-107046780D01*
X153647937Y-107053717D01*
X153647936Y-107053719D01*
X153603325Y-107141274D01*
X153590281Y-107166874D01*
X153569196Y-107300000D01*
X145414966Y-107300000D01*
X145418994Y-107274569D01*
X145429585Y-107207696D01*
X145430804Y-107200000D01*
X145409719Y-107066874D01*
X145359950Y-106969196D01*
X145352064Y-106953719D01*
X145352063Y-106953717D01*
X145348528Y-106946780D01*
X145253220Y-106851472D01*
X145246283Y-106847937D01*
X145246281Y-106847936D01*
X145140066Y-106793817D01*
X145140065Y-106793817D01*
X145133126Y-106790281D01*
X145125432Y-106789062D01*
X145125431Y-106789062D01*
X145007696Y-106770415D01*
X145000000Y-106769196D01*
X144992304Y-106770415D01*
X144874569Y-106789062D01*
X144874568Y-106789062D01*
X144866874Y-106790281D01*
X144859935Y-106793817D01*
X144859934Y-106793817D01*
X144753719Y-106847936D01*
X144753717Y-106847937D01*
X144746780Y-106851472D01*
X144651472Y-106946780D01*
X144647937Y-106953717D01*
X144647936Y-106953719D01*
X144640050Y-106969196D01*
X144590281Y-107066874D01*
X144569196Y-107200000D01*
X136375645Y-107200000D01*
X136352064Y-107153719D01*
X136352063Y-107153717D01*
X136348528Y-107146780D01*
X136253220Y-107051472D01*
X136246283Y-107047937D01*
X136246281Y-107047936D01*
X136140066Y-106993817D01*
X136140065Y-106993817D01*
X136133126Y-106990281D01*
X136125432Y-106989062D01*
X136125431Y-106989062D01*
X136007696Y-106970415D01*
X136000000Y-106969196D01*
X135992304Y-106970415D01*
X135874569Y-106989062D01*
X135874568Y-106989062D01*
X135866874Y-106990281D01*
X135859935Y-106993817D01*
X135859934Y-106993817D01*
X135753719Y-107047936D01*
X135753717Y-107047937D01*
X135746780Y-107051472D01*
X135651472Y-107146780D01*
X135647937Y-107153717D01*
X135647936Y-107153719D01*
X135593817Y-107259934D01*
X135590281Y-107266874D01*
X135589062Y-107274568D01*
X135589062Y-107274569D01*
X135579788Y-107333126D01*
X135569196Y-107400000D01*
X134930804Y-107400000D01*
X134920212Y-107333126D01*
X134910938Y-107274569D01*
X134910938Y-107274568D01*
X134909719Y-107266874D01*
X134906183Y-107259934D01*
X134852064Y-107153719D01*
X134852063Y-107153717D01*
X134848528Y-107146780D01*
X134753220Y-107051472D01*
X134746283Y-107047937D01*
X134746281Y-107047936D01*
X134640066Y-106993817D01*
X134640065Y-106993817D01*
X134633126Y-106990281D01*
X134625432Y-106989062D01*
X134625431Y-106989062D01*
X134507696Y-106970415D01*
X134500000Y-106969196D01*
X134492304Y-106970415D01*
X134374569Y-106989062D01*
X134374568Y-106989062D01*
X134366874Y-106990281D01*
X134359935Y-106993817D01*
X134359934Y-106993817D01*
X134253719Y-107047936D01*
X134253717Y-107047937D01*
X134246780Y-107051472D01*
X134151472Y-107146780D01*
X134147937Y-107153717D01*
X134147936Y-107153719D01*
X134093817Y-107259934D01*
X134090281Y-107266874D01*
X134089062Y-107274568D01*
X134089062Y-107274569D01*
X134079788Y-107333126D01*
X134069196Y-107400000D01*
X121600500Y-107400000D01*
X121600500Y-105600000D01*
X132369196Y-105600000D01*
X132370415Y-105607696D01*
X132384744Y-105698164D01*
X132390281Y-105733126D01*
X132393817Y-105740065D01*
X132393817Y-105740066D01*
X132444770Y-105840066D01*
X132451472Y-105853220D01*
X132546780Y-105948528D01*
X132553717Y-105952063D01*
X132553719Y-105952064D01*
X132659934Y-106006183D01*
X132666874Y-106009719D01*
X132674568Y-106010938D01*
X132674569Y-106010938D01*
X132792304Y-106029585D01*
X132800000Y-106030804D01*
X132807696Y-106029585D01*
X132925431Y-106010938D01*
X132925432Y-106010938D01*
X132933126Y-106009719D01*
X132940066Y-106006183D01*
X133046281Y-105952064D01*
X133046283Y-105952063D01*
X133053220Y-105948528D01*
X133148528Y-105853220D01*
X133155231Y-105840066D01*
X133206183Y-105740066D01*
X133206183Y-105740065D01*
X133209719Y-105733126D01*
X133215257Y-105698164D01*
X133229585Y-105607696D01*
X133230421Y-105602417D01*
X133968312Y-105602417D01*
X133969531Y-105610113D01*
X133983768Y-105700000D01*
X133989397Y-105735543D01*
X133992933Y-105742482D01*
X133992933Y-105742483D01*
X134045821Y-105846281D01*
X134050588Y-105855637D01*
X134145896Y-105950945D01*
X134152833Y-105954480D01*
X134152835Y-105954481D01*
X134259050Y-106008600D01*
X134265990Y-106012136D01*
X134273684Y-106013355D01*
X134273685Y-106013355D01*
X134391420Y-106032002D01*
X134399116Y-106033221D01*
X134406812Y-106032002D01*
X134524547Y-106013355D01*
X134524548Y-106013355D01*
X134532242Y-106012136D01*
X134539182Y-106008600D01*
X134645397Y-105954481D01*
X134645399Y-105954480D01*
X134652336Y-105950945D01*
X134747644Y-105855637D01*
X134752412Y-105846281D01*
X134805299Y-105742483D01*
X134805299Y-105742482D01*
X134808835Y-105735543D01*
X134814465Y-105700000D01*
X134828701Y-105610113D01*
X134829920Y-105602417D01*
X134822863Y-105557863D01*
X134810054Y-105476986D01*
X134810054Y-105476985D01*
X134808835Y-105469291D01*
X134747644Y-105349197D01*
X134652336Y-105253889D01*
X134645399Y-105250354D01*
X134645397Y-105250353D01*
X134539182Y-105196234D01*
X134539181Y-105196234D01*
X134532242Y-105192698D01*
X134524548Y-105191479D01*
X134524547Y-105191479D01*
X134406812Y-105172832D01*
X134399116Y-105171613D01*
X134391420Y-105172832D01*
X134273685Y-105191479D01*
X134273684Y-105191479D01*
X134265990Y-105192698D01*
X134259051Y-105196234D01*
X134259050Y-105196234D01*
X134152835Y-105250353D01*
X134152833Y-105250354D01*
X134145896Y-105253889D01*
X134050588Y-105349197D01*
X133989397Y-105469291D01*
X133988178Y-105476985D01*
X133988178Y-105476986D01*
X133975369Y-105557863D01*
X133968312Y-105602417D01*
X133230421Y-105602417D01*
X133230804Y-105600000D01*
X133209719Y-105466874D01*
X133196675Y-105441274D01*
X133152064Y-105353719D01*
X133152063Y-105353717D01*
X133148528Y-105346780D01*
X133053220Y-105251472D01*
X133046283Y-105247937D01*
X133046281Y-105247936D01*
X132940066Y-105193817D01*
X132940065Y-105193817D01*
X132933126Y-105190281D01*
X132925432Y-105189062D01*
X132925431Y-105189062D01*
X132807696Y-105170415D01*
X132800000Y-105169196D01*
X132792304Y-105170415D01*
X132674569Y-105189062D01*
X132674568Y-105189062D01*
X132666874Y-105190281D01*
X132659935Y-105193817D01*
X132659934Y-105193817D01*
X132553719Y-105247936D01*
X132553717Y-105247937D01*
X132546780Y-105251472D01*
X132451472Y-105346780D01*
X132447937Y-105353717D01*
X132447936Y-105353719D01*
X132403325Y-105441274D01*
X132390281Y-105466874D01*
X132369196Y-105600000D01*
X121600500Y-105600000D01*
X121600500Y-104100000D01*
X134169196Y-104100000D01*
X134190281Y-104233126D01*
X134193817Y-104240065D01*
X134193817Y-104240066D01*
X134244770Y-104340066D01*
X134251472Y-104353220D01*
X134346780Y-104448528D01*
X134353717Y-104452063D01*
X134353719Y-104452064D01*
X134459934Y-104506183D01*
X134466874Y-104509719D01*
X134474568Y-104510938D01*
X134474569Y-104510938D01*
X134592304Y-104529585D01*
X134600000Y-104530804D01*
X134607696Y-104529585D01*
X134725431Y-104510938D01*
X134725432Y-104510938D01*
X134733126Y-104509719D01*
X134740066Y-104506183D01*
X134846281Y-104452064D01*
X134846283Y-104452063D01*
X134853220Y-104448528D01*
X134902107Y-104399641D01*
X136394344Y-104399641D01*
X136395494Y-104404722D01*
X136412509Y-104642625D01*
X136464214Y-104880310D01*
X136549219Y-105108218D01*
X136550909Y-105111314D01*
X136550910Y-105111315D01*
X136637786Y-105270415D01*
X136665794Y-105321708D01*
X136811565Y-105516435D01*
X136983565Y-105688435D01*
X137178292Y-105834206D01*
X137181386Y-105835896D01*
X137181390Y-105835898D01*
X137381999Y-105945439D01*
X137391782Y-105950781D01*
X137619690Y-106035786D01*
X137857375Y-106087491D01*
X138020762Y-106099177D01*
X138091997Y-106104272D01*
X138094203Y-106104478D01*
X138099282Y-106105655D01*
X138100000Y-106105656D01*
X138105452Y-106104412D01*
X138105455Y-106104412D01*
X138111734Y-106102980D01*
X138133752Y-106100500D01*
X151865719Y-106100500D01*
X151888074Y-106103057D01*
X151899282Y-106105655D01*
X151900000Y-106105656D01*
X151905007Y-106104514D01*
X151906396Y-106104386D01*
X152142625Y-106087491D01*
X152380310Y-106035786D01*
X152608218Y-105950781D01*
X152618001Y-105945439D01*
X152818610Y-105835898D01*
X152818614Y-105835896D01*
X152821708Y-105834206D01*
X153000986Y-105700000D01*
X155069196Y-105700000D01*
X155090281Y-105833126D01*
X155093817Y-105840065D01*
X155093817Y-105840066D01*
X155146276Y-105943022D01*
X155151472Y-105953220D01*
X155246780Y-106048528D01*
X155253717Y-106052063D01*
X155253719Y-106052064D01*
X155356458Y-106104412D01*
X155366874Y-106109719D01*
X155374568Y-106110938D01*
X155374569Y-106110938D01*
X155492304Y-106129585D01*
X155500000Y-106130804D01*
X155507696Y-106129585D01*
X155625431Y-106110938D01*
X155625432Y-106110938D01*
X155633126Y-106109719D01*
X155643542Y-106104412D01*
X155746281Y-106052064D01*
X155746283Y-106052063D01*
X155753220Y-106048528D01*
X155848528Y-105953220D01*
X155853725Y-105943022D01*
X155906183Y-105840066D01*
X155906183Y-105840065D01*
X155909719Y-105833126D01*
X155930804Y-105700000D01*
X159569196Y-105700000D01*
X159590281Y-105833126D01*
X159593817Y-105840065D01*
X159593817Y-105840066D01*
X159646276Y-105943022D01*
X159651472Y-105953220D01*
X159746780Y-106048528D01*
X159753717Y-106052063D01*
X159753719Y-106052064D01*
X159856458Y-106104412D01*
X159866874Y-106109719D01*
X159874568Y-106110938D01*
X159874569Y-106110938D01*
X159992304Y-106129585D01*
X160000000Y-106130804D01*
X160007696Y-106129585D01*
X160125431Y-106110938D01*
X160125432Y-106110938D01*
X160133126Y-106109719D01*
X160143542Y-106104412D01*
X160246281Y-106052064D01*
X160246283Y-106052063D01*
X160253220Y-106048528D01*
X160348528Y-105953220D01*
X160353725Y-105943022D01*
X160406183Y-105840066D01*
X160406183Y-105840065D01*
X160409719Y-105833126D01*
X160430804Y-105700000D01*
X160416185Y-105607696D01*
X160410938Y-105574569D01*
X160410938Y-105574568D01*
X160409719Y-105566874D01*
X160363919Y-105476986D01*
X160352064Y-105453719D01*
X160352063Y-105453717D01*
X160348528Y-105446780D01*
X160253220Y-105351472D01*
X160246283Y-105347937D01*
X160246281Y-105347936D01*
X160140066Y-105293817D01*
X160140065Y-105293817D01*
X160133126Y-105290281D01*
X160125432Y-105289062D01*
X160125431Y-105289062D01*
X160007696Y-105270415D01*
X160000000Y-105269196D01*
X159992304Y-105270415D01*
X159874569Y-105289062D01*
X159874568Y-105289062D01*
X159866874Y-105290281D01*
X159859935Y-105293817D01*
X159859934Y-105293817D01*
X159753719Y-105347936D01*
X159753717Y-105347937D01*
X159746780Y-105351472D01*
X159651472Y-105446780D01*
X159647937Y-105453717D01*
X159647936Y-105453719D01*
X159636081Y-105476986D01*
X159590281Y-105566874D01*
X159589062Y-105574568D01*
X159589062Y-105574569D01*
X159583815Y-105607696D01*
X159569196Y-105700000D01*
X155930804Y-105700000D01*
X155916185Y-105607696D01*
X155910938Y-105574569D01*
X155910938Y-105574568D01*
X155909719Y-105566874D01*
X155863919Y-105476986D01*
X155852064Y-105453719D01*
X155852063Y-105453717D01*
X155848528Y-105446780D01*
X155753220Y-105351472D01*
X155746283Y-105347937D01*
X155746281Y-105347936D01*
X155640066Y-105293817D01*
X155640065Y-105293817D01*
X155633126Y-105290281D01*
X155625432Y-105289062D01*
X155625431Y-105289062D01*
X155507696Y-105270415D01*
X155500000Y-105269196D01*
X155492304Y-105270415D01*
X155374569Y-105289062D01*
X155374568Y-105289062D01*
X155366874Y-105290281D01*
X155359935Y-105293817D01*
X155359934Y-105293817D01*
X155253719Y-105347936D01*
X155253717Y-105347937D01*
X155246780Y-105351472D01*
X155151472Y-105446780D01*
X155147937Y-105453717D01*
X155147936Y-105453719D01*
X155136081Y-105476986D01*
X155090281Y-105566874D01*
X155089062Y-105574568D01*
X155089062Y-105574569D01*
X155083815Y-105607696D01*
X155069196Y-105700000D01*
X153000986Y-105700000D01*
X153016435Y-105688435D01*
X153188435Y-105516435D01*
X153334206Y-105321708D01*
X153362215Y-105270415D01*
X153449090Y-105111315D01*
X153449091Y-105111314D01*
X153450781Y-105108218D01*
X153535786Y-104880310D01*
X153587491Y-104642625D01*
X153601038Y-104453220D01*
X153604272Y-104408003D01*
X153604478Y-104405797D01*
X153605655Y-104400718D01*
X153605656Y-104400000D01*
X153604412Y-104394545D01*
X153602980Y-104388266D01*
X153600500Y-104366248D01*
X153600500Y-104200000D01*
X155069196Y-104200000D01*
X155090281Y-104333126D01*
X155093817Y-104340065D01*
X155093817Y-104340066D01*
X155146276Y-104443022D01*
X155151472Y-104453220D01*
X155246780Y-104548528D01*
X155253717Y-104552063D01*
X155253719Y-104552064D01*
X155354250Y-104603287D01*
X155366874Y-104609719D01*
X155374568Y-104610938D01*
X155374569Y-104610938D01*
X155492304Y-104629585D01*
X155500000Y-104630804D01*
X155507696Y-104629585D01*
X155625431Y-104610938D01*
X155625432Y-104610938D01*
X155633126Y-104609719D01*
X155645750Y-104603287D01*
X155746281Y-104552064D01*
X155746283Y-104552063D01*
X155753220Y-104548528D01*
X155848528Y-104453220D01*
X155853725Y-104443022D01*
X155906183Y-104340066D01*
X155906183Y-104340065D01*
X155909719Y-104333126D01*
X155930804Y-104200000D01*
X155909719Y-104066874D01*
X155906183Y-104059934D01*
X155852064Y-103953719D01*
X155852063Y-103953717D01*
X155848528Y-103946780D01*
X155753220Y-103851472D01*
X155746283Y-103847937D01*
X155746281Y-103847936D01*
X155640066Y-103793817D01*
X155640065Y-103793817D01*
X155633126Y-103790281D01*
X155625432Y-103789062D01*
X155625431Y-103789062D01*
X155507696Y-103770415D01*
X155500000Y-103769196D01*
X155492304Y-103770415D01*
X155374569Y-103789062D01*
X155374568Y-103789062D01*
X155366874Y-103790281D01*
X155359935Y-103793817D01*
X155359934Y-103793817D01*
X155253719Y-103847936D01*
X155253717Y-103847937D01*
X155246780Y-103851472D01*
X155151472Y-103946780D01*
X155147937Y-103953717D01*
X155147936Y-103953719D01*
X155093817Y-104059934D01*
X155090281Y-104066874D01*
X155069196Y-104200000D01*
X153600500Y-104200000D01*
X153600500Y-102800000D01*
X155069196Y-102800000D01*
X155090281Y-102933126D01*
X155093817Y-102940065D01*
X155093817Y-102940066D01*
X155144770Y-103040066D01*
X155151472Y-103053220D01*
X155246780Y-103148528D01*
X155253717Y-103152063D01*
X155253719Y-103152064D01*
X155359934Y-103206183D01*
X155366874Y-103209719D01*
X155374568Y-103210938D01*
X155374569Y-103210938D01*
X155492304Y-103229585D01*
X155500000Y-103230804D01*
X155507696Y-103229585D01*
X155625431Y-103210938D01*
X155625432Y-103210938D01*
X155633126Y-103209719D01*
X155640066Y-103206183D01*
X155746281Y-103152064D01*
X155746283Y-103152063D01*
X155753220Y-103148528D01*
X155848528Y-103053220D01*
X155855231Y-103040066D01*
X155906183Y-102940066D01*
X155906183Y-102940065D01*
X155909719Y-102933126D01*
X155930804Y-102800000D01*
X155909719Y-102666874D01*
X155896675Y-102641274D01*
X155852064Y-102553719D01*
X155852063Y-102553717D01*
X155848528Y-102546780D01*
X155753220Y-102451472D01*
X155746283Y-102447937D01*
X155746281Y-102447936D01*
X155640066Y-102393817D01*
X155640065Y-102393817D01*
X155633126Y-102390281D01*
X155625432Y-102389062D01*
X155625431Y-102389062D01*
X155507696Y-102370415D01*
X155500000Y-102369196D01*
X155492304Y-102370415D01*
X155374569Y-102389062D01*
X155374568Y-102389062D01*
X155366874Y-102390281D01*
X155359935Y-102393817D01*
X155359934Y-102393817D01*
X155253719Y-102447936D01*
X155253717Y-102447937D01*
X155246780Y-102451472D01*
X155151472Y-102546780D01*
X155147937Y-102553717D01*
X155147936Y-102553719D01*
X155103325Y-102641274D01*
X155090281Y-102666874D01*
X155069196Y-102800000D01*
X153600500Y-102800000D01*
X153600500Y-99800000D01*
X155069196Y-99800000D01*
X155090281Y-99933126D01*
X155151472Y-100053220D01*
X155246780Y-100148528D01*
X155253717Y-100152063D01*
X155253719Y-100152064D01*
X155359934Y-100206183D01*
X155366874Y-100209719D01*
X155374568Y-100210938D01*
X155374569Y-100210938D01*
X155492304Y-100229585D01*
X155500000Y-100230804D01*
X155507696Y-100229585D01*
X155625431Y-100210938D01*
X155625432Y-100210938D01*
X155633126Y-100209719D01*
X155640066Y-100206183D01*
X155746281Y-100152064D01*
X155746283Y-100152063D01*
X155753220Y-100148528D01*
X155848528Y-100053220D01*
X155909719Y-99933126D01*
X155930804Y-99800000D01*
X155909719Y-99666874D01*
X155848528Y-99546780D01*
X155753220Y-99451472D01*
X155746283Y-99447937D01*
X155746281Y-99447936D01*
X155640066Y-99393817D01*
X155640065Y-99393817D01*
X155633126Y-99390281D01*
X155625432Y-99389062D01*
X155625431Y-99389062D01*
X155507696Y-99370415D01*
X155500000Y-99369196D01*
X155492304Y-99370415D01*
X155374569Y-99389062D01*
X155374568Y-99389062D01*
X155366874Y-99390281D01*
X155359935Y-99393817D01*
X155359934Y-99393817D01*
X155253719Y-99447936D01*
X155253717Y-99447937D01*
X155246780Y-99451472D01*
X155151472Y-99546780D01*
X155090281Y-99666874D01*
X155069196Y-99800000D01*
X153600500Y-99800000D01*
X153600500Y-98300000D01*
X155069196Y-98300000D01*
X155090281Y-98433126D01*
X155093817Y-98440065D01*
X155093817Y-98440066D01*
X155146276Y-98543022D01*
X155151472Y-98553220D01*
X155246780Y-98648528D01*
X155253717Y-98652063D01*
X155253719Y-98652064D01*
X155331262Y-98691574D01*
X155366874Y-98709719D01*
X155374568Y-98710938D01*
X155374569Y-98710938D01*
X155492304Y-98729585D01*
X155500000Y-98730804D01*
X155507696Y-98729585D01*
X155625431Y-98710938D01*
X155625432Y-98710938D01*
X155633126Y-98709719D01*
X155668738Y-98691574D01*
X155746281Y-98652064D01*
X155746283Y-98652063D01*
X155753220Y-98648528D01*
X155848528Y-98553220D01*
X155853725Y-98543022D01*
X155906183Y-98440066D01*
X155906183Y-98440065D01*
X155909719Y-98433126D01*
X155922885Y-98350000D01*
X158569819Y-98350000D01*
X158571038Y-98357697D01*
X158586358Y-98454422D01*
X158588426Y-98467482D01*
X158591962Y-98474421D01*
X158591962Y-98474422D01*
X158632112Y-98553220D01*
X158642427Y-98573465D01*
X158726535Y-98657573D01*
X158733472Y-98661108D01*
X158733474Y-98661109D01*
X158825578Y-98708038D01*
X158832518Y-98711574D01*
X158840211Y-98712793D01*
X158840213Y-98712793D01*
X158942303Y-98728962D01*
X158950000Y-98730181D01*
X158957697Y-98728962D01*
X159059787Y-98712793D01*
X159059789Y-98712793D01*
X159067482Y-98711574D01*
X159074422Y-98708038D01*
X159166526Y-98661109D01*
X159166528Y-98661108D01*
X159173465Y-98657573D01*
X159179996Y-98651042D01*
X159181287Y-98650384D01*
X159185279Y-98647484D01*
X159185738Y-98648116D01*
X159234513Y-98623265D01*
X159294945Y-98632836D01*
X159320004Y-98651042D01*
X159326535Y-98657573D01*
X159333472Y-98661108D01*
X159333474Y-98661109D01*
X159425578Y-98708038D01*
X159432518Y-98711574D01*
X159440211Y-98712793D01*
X159440213Y-98712793D01*
X159542303Y-98728962D01*
X159550000Y-98730181D01*
X159557697Y-98728962D01*
X159659787Y-98712793D01*
X159659789Y-98712793D01*
X159667482Y-98711574D01*
X159674422Y-98708038D01*
X159766526Y-98661109D01*
X159766528Y-98661108D01*
X159773465Y-98657573D01*
X159857573Y-98573465D01*
X159867889Y-98553220D01*
X159908038Y-98474422D01*
X159908038Y-98474421D01*
X159911574Y-98467482D01*
X159913643Y-98454422D01*
X159928962Y-98357697D01*
X159930181Y-98350000D01*
X159928608Y-98340066D01*
X159927014Y-98330000D01*
X160865023Y-98330000D01*
X160866242Y-98337697D01*
X160880138Y-98425431D01*
X160883630Y-98447482D01*
X160887166Y-98454421D01*
X160887166Y-98454422D01*
X160933971Y-98546281D01*
X160937631Y-98553465D01*
X161021739Y-98637573D01*
X161028676Y-98641108D01*
X161028678Y-98641109D01*
X161120782Y-98688038D01*
X161127722Y-98691574D01*
X161135415Y-98692793D01*
X161135417Y-98692793D01*
X161237507Y-98708962D01*
X161245204Y-98710181D01*
X161252901Y-98708962D01*
X161354991Y-98692793D01*
X161354993Y-98692793D01*
X161362686Y-98691574D01*
X161369626Y-98688038D01*
X161461730Y-98641109D01*
X161461732Y-98641108D01*
X161468669Y-98637573D01*
X161552777Y-98553465D01*
X161556438Y-98546281D01*
X161603242Y-98454422D01*
X161603242Y-98454421D01*
X161606778Y-98447482D01*
X161610271Y-98425431D01*
X161624166Y-98337697D01*
X161625385Y-98330000D01*
X161624166Y-98322303D01*
X161607997Y-98220213D01*
X161607997Y-98220211D01*
X161606778Y-98212518D01*
X161600400Y-98200000D01*
X161556313Y-98113474D01*
X161556312Y-98113472D01*
X161552777Y-98106535D01*
X161546246Y-98100004D01*
X161545588Y-98098713D01*
X161542688Y-98094721D01*
X161543320Y-98094262D01*
X161518469Y-98045487D01*
X161528040Y-97985055D01*
X161546246Y-97959996D01*
X161552777Y-97953465D01*
X161606778Y-97847482D01*
X161625385Y-97730000D01*
X161606778Y-97612518D01*
X161552777Y-97506535D01*
X161468669Y-97422427D01*
X161461732Y-97418892D01*
X161461730Y-97418891D01*
X161369626Y-97371962D01*
X161369625Y-97371962D01*
X161362686Y-97368426D01*
X161354993Y-97367207D01*
X161354991Y-97367207D01*
X161252901Y-97351038D01*
X161245204Y-97349819D01*
X161237507Y-97351038D01*
X161135417Y-97367207D01*
X161135415Y-97367207D01*
X161127722Y-97368426D01*
X161120783Y-97371962D01*
X161120782Y-97371962D01*
X161028678Y-97418891D01*
X161028676Y-97418892D01*
X161021739Y-97422427D01*
X160937631Y-97506535D01*
X160883630Y-97612518D01*
X160865023Y-97730000D01*
X160883630Y-97847482D01*
X160937631Y-97953465D01*
X160944162Y-97959996D01*
X160944820Y-97961287D01*
X160947720Y-97965279D01*
X160947088Y-97965738D01*
X160971939Y-98014513D01*
X160962368Y-98074945D01*
X160944162Y-98100004D01*
X160937631Y-98106535D01*
X160934096Y-98113472D01*
X160934095Y-98113474D01*
X160890008Y-98200000D01*
X160883630Y-98212518D01*
X160882411Y-98220211D01*
X160882411Y-98220213D01*
X160866242Y-98322303D01*
X160865023Y-98330000D01*
X159927014Y-98330000D01*
X159912793Y-98240213D01*
X159912793Y-98240211D01*
X159911574Y-98232518D01*
X159905304Y-98220213D01*
X159861109Y-98133474D01*
X159861108Y-98133472D01*
X159857573Y-98126535D01*
X159773465Y-98042427D01*
X159766528Y-98038892D01*
X159766526Y-98038891D01*
X159674422Y-97991962D01*
X159674421Y-97991962D01*
X159667482Y-97988426D01*
X159659789Y-97987207D01*
X159659787Y-97987207D01*
X159557697Y-97971038D01*
X159550000Y-97969819D01*
X159542303Y-97971038D01*
X159440213Y-97987207D01*
X159440211Y-97987207D01*
X159432518Y-97988426D01*
X159425579Y-97991962D01*
X159425578Y-97991962D01*
X159333474Y-98038891D01*
X159333472Y-98038892D01*
X159326535Y-98042427D01*
X159320004Y-98048958D01*
X159318713Y-98049616D01*
X159314721Y-98052516D01*
X159314262Y-98051884D01*
X159265487Y-98076735D01*
X159205055Y-98067164D01*
X159179996Y-98048958D01*
X159173465Y-98042427D01*
X159166528Y-98038892D01*
X159166526Y-98038891D01*
X159074422Y-97991962D01*
X159074421Y-97991962D01*
X159067482Y-97988426D01*
X159059789Y-97987207D01*
X159059787Y-97987207D01*
X158957697Y-97971038D01*
X158950000Y-97969819D01*
X158942303Y-97971038D01*
X158840213Y-97987207D01*
X158840211Y-97987207D01*
X158832518Y-97988426D01*
X158825579Y-97991962D01*
X158825578Y-97991962D01*
X158733474Y-98038891D01*
X158733472Y-98038892D01*
X158726535Y-98042427D01*
X158642427Y-98126535D01*
X158638892Y-98133472D01*
X158638891Y-98133474D01*
X158594696Y-98220213D01*
X158588426Y-98232518D01*
X158587207Y-98240211D01*
X158587207Y-98240213D01*
X158571392Y-98340066D01*
X158569819Y-98350000D01*
X155922885Y-98350000D01*
X155930804Y-98300000D01*
X155909719Y-98166874D01*
X155885307Y-98118962D01*
X155852064Y-98053719D01*
X155852063Y-98053717D01*
X155848528Y-98046780D01*
X155753220Y-97951472D01*
X155746283Y-97947937D01*
X155746281Y-97947936D01*
X155640066Y-97893817D01*
X155640065Y-97893817D01*
X155633126Y-97890281D01*
X155625432Y-97889062D01*
X155625431Y-97889062D01*
X155507696Y-97870415D01*
X155500000Y-97869196D01*
X155492304Y-97870415D01*
X155374569Y-97889062D01*
X155374568Y-97889062D01*
X155366874Y-97890281D01*
X155359935Y-97893817D01*
X155359934Y-97893817D01*
X155253719Y-97947936D01*
X155253717Y-97947937D01*
X155246780Y-97951472D01*
X155151472Y-98046780D01*
X155147937Y-98053717D01*
X155147936Y-98053719D01*
X155114693Y-98118962D01*
X155090281Y-98166874D01*
X155069196Y-98300000D01*
X153600500Y-98300000D01*
X153600500Y-96700000D01*
X155069196Y-96700000D01*
X155090281Y-96833126D01*
X155093817Y-96840065D01*
X155093817Y-96840066D01*
X155116493Y-96884569D01*
X155151472Y-96953220D01*
X155246780Y-97048528D01*
X155253717Y-97052063D01*
X155253719Y-97052064D01*
X155334104Y-97093022D01*
X155366874Y-97109719D01*
X155374568Y-97110938D01*
X155374569Y-97110938D01*
X155492304Y-97129585D01*
X155500000Y-97130804D01*
X155507696Y-97129585D01*
X155625431Y-97110938D01*
X155625432Y-97110938D01*
X155633126Y-97109719D01*
X155665896Y-97093022D01*
X155746281Y-97052064D01*
X155746283Y-97052063D01*
X155753220Y-97048528D01*
X155848528Y-96953220D01*
X155883508Y-96884569D01*
X155906183Y-96840066D01*
X155906183Y-96840065D01*
X155909719Y-96833126D01*
X155930804Y-96700000D01*
X155909719Y-96566874D01*
X155877540Y-96503719D01*
X155852064Y-96453719D01*
X155852063Y-96453717D01*
X155848528Y-96446780D01*
X155753220Y-96351472D01*
X155746283Y-96347937D01*
X155746281Y-96347936D01*
X155640066Y-96293817D01*
X155640065Y-96293817D01*
X155633126Y-96290281D01*
X155625432Y-96289062D01*
X155625431Y-96289062D01*
X155507696Y-96270415D01*
X155500000Y-96269196D01*
X155492304Y-96270415D01*
X155374569Y-96289062D01*
X155374568Y-96289062D01*
X155366874Y-96290281D01*
X155359935Y-96293817D01*
X155359934Y-96293817D01*
X155253719Y-96347936D01*
X155253717Y-96347937D01*
X155246780Y-96351472D01*
X155151472Y-96446780D01*
X155147937Y-96453717D01*
X155147936Y-96453719D01*
X155122460Y-96503719D01*
X155090281Y-96566874D01*
X155069196Y-96700000D01*
X153600500Y-96700000D01*
X153600500Y-95750000D01*
X160519819Y-95750000D01*
X160538426Y-95867482D01*
X160592427Y-95973465D01*
X160676535Y-96057573D01*
X160683472Y-96061108D01*
X160683474Y-96061109D01*
X160775578Y-96108038D01*
X160782518Y-96111574D01*
X160790211Y-96112793D01*
X160790213Y-96112793D01*
X160892303Y-96128962D01*
X160900000Y-96130181D01*
X160907697Y-96128962D01*
X161009787Y-96112793D01*
X161009789Y-96112793D01*
X161017482Y-96111574D01*
X161024422Y-96108038D01*
X161116526Y-96061109D01*
X161116528Y-96061108D01*
X161123465Y-96057573D01*
X161129996Y-96051042D01*
X161131287Y-96050384D01*
X161135279Y-96047484D01*
X161135738Y-96048116D01*
X161184513Y-96023265D01*
X161244945Y-96032836D01*
X161270004Y-96051042D01*
X161276535Y-96057573D01*
X161283472Y-96061108D01*
X161283474Y-96061109D01*
X161375578Y-96108038D01*
X161382518Y-96111574D01*
X161390211Y-96112793D01*
X161390213Y-96112793D01*
X161492303Y-96128962D01*
X161500000Y-96130181D01*
X161507697Y-96128962D01*
X161609787Y-96112793D01*
X161609789Y-96112793D01*
X161617482Y-96111574D01*
X161624422Y-96108038D01*
X161716526Y-96061109D01*
X161716528Y-96061108D01*
X161723465Y-96057573D01*
X161807573Y-95973465D01*
X161861574Y-95867482D01*
X161880181Y-95750000D01*
X161861574Y-95632518D01*
X161858038Y-95625578D01*
X161811109Y-95533474D01*
X161811108Y-95533472D01*
X161807573Y-95526535D01*
X161723465Y-95442427D01*
X161716528Y-95438892D01*
X161716526Y-95438891D01*
X161624422Y-95391962D01*
X161624421Y-95391962D01*
X161617482Y-95388426D01*
X161609789Y-95387207D01*
X161609787Y-95387207D01*
X161507697Y-95371038D01*
X161500000Y-95369819D01*
X161492303Y-95371038D01*
X161390213Y-95387207D01*
X161390211Y-95387207D01*
X161382518Y-95388426D01*
X161375579Y-95391962D01*
X161375578Y-95391962D01*
X161283474Y-95438891D01*
X161283472Y-95438892D01*
X161276535Y-95442427D01*
X161270004Y-95448958D01*
X161268713Y-95449616D01*
X161264721Y-95452516D01*
X161264262Y-95451884D01*
X161215487Y-95476735D01*
X161155055Y-95467164D01*
X161129996Y-95448958D01*
X161123465Y-95442427D01*
X161116528Y-95438892D01*
X161116526Y-95438891D01*
X161024422Y-95391962D01*
X161024421Y-95391962D01*
X161017482Y-95388426D01*
X161009789Y-95387207D01*
X161009787Y-95387207D01*
X160907697Y-95371038D01*
X160900000Y-95369819D01*
X160892303Y-95371038D01*
X160790213Y-95387207D01*
X160790211Y-95387207D01*
X160782518Y-95388426D01*
X160775579Y-95391962D01*
X160775578Y-95391962D01*
X160683474Y-95438891D01*
X160683472Y-95438892D01*
X160676535Y-95442427D01*
X160592427Y-95526535D01*
X160588892Y-95533472D01*
X160588891Y-95533474D01*
X160541962Y-95625578D01*
X160538426Y-95632518D01*
X160519819Y-95750000D01*
X153600500Y-95750000D01*
X153600500Y-95200000D01*
X155069196Y-95200000D01*
X155090281Y-95333126D01*
X155093817Y-95340065D01*
X155093817Y-95340066D01*
X155145973Y-95442427D01*
X155151472Y-95453220D01*
X155246780Y-95548528D01*
X155253717Y-95552063D01*
X155253719Y-95552064D01*
X155359934Y-95606183D01*
X155366874Y-95609719D01*
X155374568Y-95610938D01*
X155374569Y-95610938D01*
X155492304Y-95629585D01*
X155500000Y-95630804D01*
X155507696Y-95629585D01*
X155625431Y-95610938D01*
X155625432Y-95610938D01*
X155633126Y-95609719D01*
X155640066Y-95606183D01*
X155746281Y-95552064D01*
X155746283Y-95552063D01*
X155753220Y-95548528D01*
X155848528Y-95453220D01*
X155854028Y-95442427D01*
X155906183Y-95340066D01*
X155906183Y-95340065D01*
X155909719Y-95333126D01*
X155930804Y-95200000D01*
X155909719Y-95066874D01*
X155848528Y-94946780D01*
X155753220Y-94851472D01*
X155746283Y-94847937D01*
X155746281Y-94847936D01*
X155640066Y-94793817D01*
X155640065Y-94793817D01*
X155633126Y-94790281D01*
X155625432Y-94789062D01*
X155625431Y-94789062D01*
X155507696Y-94770415D01*
X155500000Y-94769196D01*
X155492304Y-94770415D01*
X155374569Y-94789062D01*
X155374568Y-94789062D01*
X155366874Y-94790281D01*
X155359935Y-94793817D01*
X155359934Y-94793817D01*
X155253719Y-94847936D01*
X155253717Y-94847937D01*
X155246780Y-94851472D01*
X155151472Y-94946780D01*
X155090281Y-95066874D01*
X155069196Y-95200000D01*
X153600500Y-95200000D01*
X153600500Y-94300000D01*
X160519819Y-94300000D01*
X160538426Y-94417482D01*
X160592427Y-94523465D01*
X160676535Y-94607573D01*
X160683472Y-94611108D01*
X160683474Y-94611109D01*
X160775578Y-94658038D01*
X160782518Y-94661574D01*
X160790211Y-94662793D01*
X160790213Y-94662793D01*
X160892303Y-94678962D01*
X160900000Y-94680181D01*
X160907697Y-94678962D01*
X161009787Y-94662793D01*
X161009789Y-94662793D01*
X161017482Y-94661574D01*
X161024422Y-94658038D01*
X161116526Y-94611109D01*
X161116528Y-94611108D01*
X161123465Y-94607573D01*
X161129996Y-94601042D01*
X161131287Y-94600384D01*
X161135279Y-94597484D01*
X161135738Y-94598116D01*
X161184513Y-94573265D01*
X161244945Y-94582836D01*
X161270004Y-94601042D01*
X161276535Y-94607573D01*
X161283472Y-94611108D01*
X161283474Y-94611109D01*
X161375578Y-94658038D01*
X161382518Y-94661574D01*
X161390211Y-94662793D01*
X161390213Y-94662793D01*
X161492303Y-94678962D01*
X161500000Y-94680181D01*
X161507697Y-94678962D01*
X161609787Y-94662793D01*
X161609789Y-94662793D01*
X161617482Y-94661574D01*
X161624422Y-94658038D01*
X161716526Y-94611109D01*
X161716528Y-94611108D01*
X161723465Y-94607573D01*
X161807573Y-94523465D01*
X161861574Y-94417482D01*
X161880181Y-94300000D01*
X161861574Y-94182518D01*
X161832487Y-94125431D01*
X161811109Y-94083474D01*
X161811108Y-94083472D01*
X161807573Y-94076535D01*
X161723465Y-93992427D01*
X161716528Y-93988892D01*
X161716526Y-93988891D01*
X161624422Y-93941962D01*
X161624421Y-93941962D01*
X161617482Y-93938426D01*
X161609789Y-93937207D01*
X161609787Y-93937207D01*
X161507697Y-93921038D01*
X161500000Y-93919819D01*
X161492303Y-93921038D01*
X161390213Y-93937207D01*
X161390211Y-93937207D01*
X161382518Y-93938426D01*
X161375579Y-93941962D01*
X161375578Y-93941962D01*
X161283474Y-93988891D01*
X161283472Y-93988892D01*
X161276535Y-93992427D01*
X161270004Y-93998958D01*
X161268713Y-93999616D01*
X161264721Y-94002516D01*
X161264262Y-94001884D01*
X161215487Y-94026735D01*
X161155055Y-94017164D01*
X161129996Y-93998958D01*
X161123465Y-93992427D01*
X161116528Y-93988892D01*
X161116526Y-93988891D01*
X161024422Y-93941962D01*
X161024421Y-93941962D01*
X161017482Y-93938426D01*
X161009789Y-93937207D01*
X161009787Y-93937207D01*
X160907697Y-93921038D01*
X160900000Y-93919819D01*
X160892303Y-93921038D01*
X160790213Y-93937207D01*
X160790211Y-93937207D01*
X160782518Y-93938426D01*
X160775579Y-93941962D01*
X160775578Y-93941962D01*
X160683474Y-93988891D01*
X160683472Y-93988892D01*
X160676535Y-93992427D01*
X160592427Y-94076535D01*
X160588892Y-94083472D01*
X160588891Y-94083474D01*
X160567513Y-94125431D01*
X160538426Y-94182518D01*
X160519819Y-94300000D01*
X153600500Y-94300000D01*
X153600500Y-93600000D01*
X155069196Y-93600000D01*
X155070415Y-93607696D01*
X155081007Y-93674569D01*
X155090281Y-93733126D01*
X155093817Y-93740065D01*
X155093817Y-93740066D01*
X155120434Y-93792304D01*
X155151472Y-93853220D01*
X155246780Y-93948528D01*
X155253717Y-93952063D01*
X155253719Y-93952064D01*
X155347799Y-94000000D01*
X155366874Y-94009719D01*
X155374568Y-94010938D01*
X155374569Y-94010938D01*
X155492304Y-94029585D01*
X155500000Y-94030804D01*
X155507696Y-94029585D01*
X155625431Y-94010938D01*
X155625432Y-94010938D01*
X155633126Y-94009719D01*
X155652201Y-94000000D01*
X155746281Y-93952064D01*
X155746283Y-93952063D01*
X155753220Y-93948528D01*
X155848528Y-93853220D01*
X155879567Y-93792304D01*
X155901121Y-93750000D01*
X158569819Y-93750000D01*
X158588426Y-93867482D01*
X158591962Y-93874421D01*
X158591962Y-93874422D01*
X158631523Y-93952064D01*
X158642427Y-93973465D01*
X158726535Y-94057573D01*
X158733472Y-94061108D01*
X158733474Y-94061109D01*
X158825578Y-94108038D01*
X158832518Y-94111574D01*
X158840211Y-94112793D01*
X158840213Y-94112793D01*
X158942303Y-94128962D01*
X158950000Y-94130181D01*
X158957697Y-94128962D01*
X159059787Y-94112793D01*
X159059789Y-94112793D01*
X159067482Y-94111574D01*
X159074422Y-94108038D01*
X159166526Y-94061109D01*
X159166528Y-94061108D01*
X159173465Y-94057573D01*
X159179996Y-94051042D01*
X159181287Y-94050384D01*
X159185279Y-94047484D01*
X159185738Y-94048116D01*
X159234513Y-94023265D01*
X159294945Y-94032836D01*
X159320004Y-94051042D01*
X159326535Y-94057573D01*
X159333472Y-94061108D01*
X159333474Y-94061109D01*
X159425578Y-94108038D01*
X159432518Y-94111574D01*
X159440211Y-94112793D01*
X159440213Y-94112793D01*
X159542303Y-94128962D01*
X159550000Y-94130181D01*
X159557697Y-94128962D01*
X159659787Y-94112793D01*
X159659789Y-94112793D01*
X159667482Y-94111574D01*
X159674422Y-94108038D01*
X159766526Y-94061109D01*
X159766528Y-94061108D01*
X159773465Y-94057573D01*
X159857573Y-93973465D01*
X159868478Y-93952064D01*
X159908038Y-93874422D01*
X159908038Y-93874421D01*
X159911574Y-93867482D01*
X159930181Y-93750000D01*
X159928608Y-93740066D01*
X159912793Y-93640213D01*
X159912793Y-93640211D01*
X159911574Y-93632518D01*
X159871424Y-93553719D01*
X159861109Y-93533474D01*
X159861108Y-93533472D01*
X159857573Y-93526535D01*
X159773465Y-93442427D01*
X159766528Y-93438892D01*
X159766526Y-93438891D01*
X159674422Y-93391962D01*
X159674421Y-93391962D01*
X159667482Y-93388426D01*
X159659789Y-93387207D01*
X159659787Y-93387207D01*
X159557697Y-93371038D01*
X159550000Y-93369819D01*
X159542303Y-93371038D01*
X159440213Y-93387207D01*
X159440211Y-93387207D01*
X159432518Y-93388426D01*
X159425579Y-93391962D01*
X159425578Y-93391962D01*
X159333474Y-93438891D01*
X159333472Y-93438892D01*
X159326535Y-93442427D01*
X159320004Y-93448958D01*
X159318713Y-93449616D01*
X159314721Y-93452516D01*
X159314262Y-93451884D01*
X159265487Y-93476735D01*
X159205055Y-93467164D01*
X159179996Y-93448958D01*
X159173465Y-93442427D01*
X159166528Y-93438892D01*
X159166526Y-93438891D01*
X159074422Y-93391962D01*
X159074421Y-93391962D01*
X159067482Y-93388426D01*
X159059789Y-93387207D01*
X159059787Y-93387207D01*
X158957697Y-93371038D01*
X158950000Y-93369819D01*
X158942303Y-93371038D01*
X158840213Y-93387207D01*
X158840211Y-93387207D01*
X158832518Y-93388426D01*
X158825579Y-93391962D01*
X158825578Y-93391962D01*
X158733474Y-93438891D01*
X158733472Y-93438892D01*
X158726535Y-93442427D01*
X158642427Y-93526535D01*
X158638892Y-93533472D01*
X158638891Y-93533474D01*
X158628576Y-93553719D01*
X158588426Y-93632518D01*
X158587207Y-93640211D01*
X158587207Y-93640213D01*
X158571392Y-93740066D01*
X158569819Y-93750000D01*
X155901121Y-93750000D01*
X155906183Y-93740066D01*
X155906183Y-93740065D01*
X155909719Y-93733126D01*
X155918994Y-93674569D01*
X155929585Y-93607696D01*
X155930804Y-93600000D01*
X155909719Y-93466874D01*
X155872495Y-93393817D01*
X155852064Y-93353719D01*
X155852063Y-93353717D01*
X155848528Y-93346780D01*
X155753220Y-93251472D01*
X155746283Y-93247937D01*
X155746281Y-93247936D01*
X155640066Y-93193817D01*
X155640065Y-93193817D01*
X155633126Y-93190281D01*
X155625432Y-93189062D01*
X155625431Y-93189062D01*
X155507696Y-93170415D01*
X155500000Y-93169196D01*
X155492304Y-93170415D01*
X155374569Y-93189062D01*
X155374568Y-93189062D01*
X155366874Y-93190281D01*
X155359935Y-93193817D01*
X155359934Y-93193817D01*
X155253719Y-93247936D01*
X155253717Y-93247937D01*
X155246780Y-93251472D01*
X155151472Y-93346780D01*
X155147937Y-93353717D01*
X155147936Y-93353719D01*
X155127505Y-93393817D01*
X155090281Y-93466874D01*
X155069196Y-93600000D01*
X153600500Y-93600000D01*
X153600500Y-92300000D01*
X164269196Y-92300000D01*
X164290281Y-92433126D01*
X164293817Y-92440065D01*
X164293817Y-92440066D01*
X164346276Y-92543022D01*
X164351472Y-92553220D01*
X164446780Y-92648528D01*
X164453717Y-92652063D01*
X164453719Y-92652064D01*
X164559934Y-92706183D01*
X164566874Y-92709719D01*
X164574568Y-92710938D01*
X164574569Y-92710938D01*
X164692304Y-92729585D01*
X164700000Y-92730804D01*
X164707696Y-92729585D01*
X164825431Y-92710938D01*
X164825432Y-92710938D01*
X164833126Y-92709719D01*
X164840066Y-92706183D01*
X164946281Y-92652064D01*
X164946283Y-92652063D01*
X164953220Y-92648528D01*
X165048528Y-92553220D01*
X165053725Y-92543022D01*
X165106183Y-92440066D01*
X165106183Y-92440065D01*
X165109719Y-92433126D01*
X165130804Y-92300000D01*
X165109719Y-92166874D01*
X165106183Y-92159934D01*
X165052064Y-92053719D01*
X165052063Y-92053717D01*
X165048528Y-92046780D01*
X164953220Y-91951472D01*
X164946283Y-91947937D01*
X164946281Y-91947936D01*
X164840066Y-91893817D01*
X164840065Y-91893817D01*
X164833126Y-91890281D01*
X164825432Y-91889062D01*
X164825431Y-91889062D01*
X164707696Y-91870415D01*
X164700000Y-91869196D01*
X164692304Y-91870415D01*
X164574569Y-91889062D01*
X164574568Y-91889062D01*
X164566874Y-91890281D01*
X164559935Y-91893817D01*
X164559934Y-91893817D01*
X164453719Y-91947936D01*
X164453717Y-91947937D01*
X164446780Y-91951472D01*
X164351472Y-92046780D01*
X164347937Y-92053717D01*
X164347936Y-92053719D01*
X164293817Y-92159934D01*
X164290281Y-92166874D01*
X164269196Y-92300000D01*
X153600500Y-92300000D01*
X153600500Y-90800000D01*
X155069196Y-90800000D01*
X155070415Y-90807696D01*
X155088926Y-90924569D01*
X155090281Y-90933126D01*
X155093817Y-90940065D01*
X155093817Y-90940066D01*
X155146276Y-91043022D01*
X155151472Y-91053220D01*
X155246780Y-91148528D01*
X155253717Y-91152063D01*
X155253719Y-91152064D01*
X155359934Y-91206183D01*
X155366874Y-91209719D01*
X155374568Y-91210938D01*
X155374569Y-91210938D01*
X155492304Y-91229585D01*
X155500000Y-91230804D01*
X155507696Y-91229585D01*
X155625431Y-91210938D01*
X155625432Y-91210938D01*
X155633126Y-91209719D01*
X155640066Y-91206183D01*
X155746281Y-91152064D01*
X155746283Y-91152063D01*
X155753220Y-91148528D01*
X155848528Y-91053220D01*
X155853725Y-91043022D01*
X155906183Y-90940066D01*
X155906183Y-90940065D01*
X155909719Y-90933126D01*
X155911075Y-90924569D01*
X155929585Y-90807696D01*
X155930804Y-90800000D01*
X155914966Y-90700000D01*
X159569196Y-90700000D01*
X159590281Y-90833126D01*
X159593817Y-90840065D01*
X159593817Y-90840066D01*
X159644770Y-90940066D01*
X159651472Y-90953220D01*
X159746780Y-91048528D01*
X159753717Y-91052063D01*
X159753719Y-91052064D01*
X159855098Y-91103719D01*
X159866874Y-91109719D01*
X159874568Y-91110938D01*
X159874569Y-91110938D01*
X159992304Y-91129585D01*
X160000000Y-91130804D01*
X160007696Y-91129585D01*
X160125431Y-91110938D01*
X160125432Y-91110938D01*
X160133126Y-91109719D01*
X160144902Y-91103719D01*
X160246281Y-91052064D01*
X160246283Y-91052063D01*
X160253220Y-91048528D01*
X160348528Y-90953220D01*
X160355231Y-90940066D01*
X160406183Y-90840066D01*
X160406183Y-90840065D01*
X160409719Y-90833126D01*
X160430804Y-90700000D01*
X160421906Y-90643817D01*
X160410938Y-90574569D01*
X160410938Y-90574568D01*
X160409719Y-90566874D01*
X160396675Y-90541274D01*
X160352064Y-90453719D01*
X160352063Y-90453717D01*
X160348528Y-90446780D01*
X160253220Y-90351472D01*
X160246283Y-90347937D01*
X160246281Y-90347936D01*
X160140066Y-90293817D01*
X160140065Y-90293817D01*
X160133126Y-90290281D01*
X160125432Y-90289062D01*
X160125431Y-90289062D01*
X160007696Y-90270415D01*
X160000000Y-90269196D01*
X159992304Y-90270415D01*
X159874569Y-90289062D01*
X159874568Y-90289062D01*
X159866874Y-90290281D01*
X159859935Y-90293817D01*
X159859934Y-90293817D01*
X159753719Y-90347936D01*
X159753717Y-90347937D01*
X159746780Y-90351472D01*
X159651472Y-90446780D01*
X159647937Y-90453717D01*
X159647936Y-90453719D01*
X159603325Y-90541274D01*
X159590281Y-90566874D01*
X159589062Y-90574568D01*
X159589062Y-90574569D01*
X159578094Y-90643817D01*
X159569196Y-90700000D01*
X155914966Y-90700000D01*
X155909719Y-90666874D01*
X155881002Y-90610514D01*
X155852064Y-90553719D01*
X155852063Y-90553717D01*
X155848528Y-90546780D01*
X155753220Y-90451472D01*
X155746283Y-90447937D01*
X155746281Y-90447936D01*
X155640066Y-90393817D01*
X155640065Y-90393817D01*
X155633126Y-90390281D01*
X155625432Y-90389062D01*
X155625431Y-90389062D01*
X155507696Y-90370415D01*
X155500000Y-90369196D01*
X155492304Y-90370415D01*
X155374569Y-90389062D01*
X155374568Y-90389062D01*
X155366874Y-90390281D01*
X155359935Y-90393817D01*
X155359934Y-90393817D01*
X155253719Y-90447936D01*
X155253717Y-90447937D01*
X155246780Y-90451472D01*
X155151472Y-90546780D01*
X155147937Y-90553717D01*
X155147936Y-90553719D01*
X155118998Y-90610514D01*
X155090281Y-90666874D01*
X155069196Y-90800000D01*
X153600500Y-90800000D01*
X153600500Y-90634281D01*
X153603057Y-90611926D01*
X153604388Y-90606183D01*
X153605655Y-90600718D01*
X153605656Y-90600000D01*
X153604514Y-90594993D01*
X153604386Y-90593599D01*
X153601534Y-90553719D01*
X153587491Y-90357375D01*
X153535786Y-90119690D01*
X153450781Y-89891782D01*
X153362880Y-89730804D01*
X153335898Y-89681390D01*
X153335896Y-89681386D01*
X153334206Y-89678292D01*
X153188435Y-89483565D01*
X153016435Y-89311565D01*
X153000986Y-89300000D01*
X156569196Y-89300000D01*
X156590281Y-89433126D01*
X156593817Y-89440065D01*
X156593817Y-89440066D01*
X156646276Y-89543022D01*
X156651472Y-89553220D01*
X156746780Y-89648528D01*
X156753717Y-89652063D01*
X156753719Y-89652064D01*
X156811275Y-89681390D01*
X156866874Y-89709719D01*
X156874568Y-89710938D01*
X156874569Y-89710938D01*
X156992304Y-89729585D01*
X157000000Y-89730804D01*
X157007696Y-89729585D01*
X157125431Y-89710938D01*
X157125432Y-89710938D01*
X157133126Y-89709719D01*
X157188725Y-89681390D01*
X157246281Y-89652064D01*
X157246283Y-89652063D01*
X157253220Y-89648528D01*
X157348528Y-89553220D01*
X157353725Y-89543022D01*
X157406183Y-89440066D01*
X157406183Y-89440065D01*
X157409719Y-89433126D01*
X157430804Y-89300000D01*
X157420212Y-89233126D01*
X157410938Y-89174569D01*
X157410938Y-89174568D01*
X157409719Y-89166874D01*
X157406183Y-89159934D01*
X157375645Y-89100000D01*
X159569196Y-89100000D01*
X159570415Y-89107696D01*
X159581007Y-89174569D01*
X159590281Y-89233126D01*
X159593817Y-89240065D01*
X159593817Y-89240066D01*
X159644770Y-89340066D01*
X159651472Y-89353220D01*
X159746780Y-89448528D01*
X159753717Y-89452063D01*
X159753719Y-89452064D01*
X159854759Y-89503546D01*
X159866874Y-89509719D01*
X159874568Y-89510938D01*
X159874569Y-89510938D01*
X159992304Y-89529585D01*
X160000000Y-89530804D01*
X160007696Y-89529585D01*
X160125431Y-89510938D01*
X160125432Y-89510938D01*
X160133126Y-89509719D01*
X160145241Y-89503546D01*
X160246281Y-89452064D01*
X160246283Y-89452063D01*
X160253220Y-89448528D01*
X160348528Y-89353220D01*
X160355231Y-89340066D01*
X160406183Y-89240066D01*
X160406183Y-89240065D01*
X160409719Y-89233126D01*
X160414966Y-89200000D01*
X162769196Y-89200000D01*
X162770415Y-89207696D01*
X162787648Y-89316499D01*
X162790281Y-89333126D01*
X162793817Y-89340065D01*
X162793817Y-89340066D01*
X162846276Y-89443022D01*
X162851472Y-89453220D01*
X162946780Y-89548528D01*
X162953717Y-89552063D01*
X162953719Y-89552064D01*
X163059934Y-89606183D01*
X163066874Y-89609719D01*
X163074568Y-89610938D01*
X163074569Y-89610938D01*
X163192304Y-89629585D01*
X163200000Y-89630804D01*
X163207696Y-89629585D01*
X163325431Y-89610938D01*
X163325432Y-89610938D01*
X163333126Y-89609719D01*
X163340066Y-89606183D01*
X163446281Y-89552064D01*
X163446283Y-89552063D01*
X163453220Y-89548528D01*
X163479996Y-89521752D01*
X163534513Y-89493975D01*
X163594945Y-89503546D01*
X163620004Y-89521752D01*
X163646780Y-89548528D01*
X163653717Y-89552063D01*
X163653719Y-89552064D01*
X163759934Y-89606183D01*
X163766874Y-89609719D01*
X163774568Y-89610938D01*
X163774569Y-89610938D01*
X163892304Y-89629585D01*
X163900000Y-89630804D01*
X163907696Y-89629585D01*
X164025431Y-89610938D01*
X164025432Y-89610938D01*
X164033126Y-89609719D01*
X164040066Y-89606183D01*
X164146281Y-89552064D01*
X164146283Y-89552063D01*
X164153220Y-89548528D01*
X164179996Y-89521752D01*
X164234513Y-89493975D01*
X164294945Y-89503546D01*
X164320004Y-89521752D01*
X164346780Y-89548528D01*
X164353717Y-89552063D01*
X164353719Y-89552064D01*
X164459934Y-89606183D01*
X164466874Y-89609719D01*
X164474568Y-89610938D01*
X164474569Y-89610938D01*
X164592304Y-89629585D01*
X164600000Y-89630804D01*
X164607696Y-89629585D01*
X164725431Y-89610938D01*
X164725432Y-89610938D01*
X164733126Y-89609719D01*
X164740066Y-89606183D01*
X164846281Y-89552064D01*
X164846283Y-89552063D01*
X164853220Y-89548528D01*
X164879996Y-89521752D01*
X164934513Y-89493975D01*
X164994945Y-89503546D01*
X165020004Y-89521752D01*
X165046780Y-89548528D01*
X165053717Y-89552063D01*
X165053719Y-89552064D01*
X165159934Y-89606183D01*
X165166874Y-89609719D01*
X165174568Y-89610938D01*
X165174569Y-89610938D01*
X165292304Y-89629585D01*
X165300000Y-89630804D01*
X165307696Y-89629585D01*
X165425431Y-89610938D01*
X165425432Y-89610938D01*
X165433126Y-89609719D01*
X165440066Y-89606183D01*
X165546281Y-89552064D01*
X165546283Y-89552063D01*
X165553220Y-89548528D01*
X165648528Y-89453220D01*
X165653725Y-89443022D01*
X165706183Y-89340066D01*
X165706183Y-89340065D01*
X165709719Y-89333126D01*
X165712353Y-89316499D01*
X165729585Y-89207696D01*
X165730804Y-89200000D01*
X165709719Y-89066874D01*
X165696675Y-89041274D01*
X165652064Y-88953719D01*
X165652063Y-88953717D01*
X165648528Y-88946780D01*
X165621752Y-88920004D01*
X165593975Y-88865487D01*
X165603546Y-88805055D01*
X165621752Y-88779996D01*
X165648528Y-88753220D01*
X165653996Y-88742490D01*
X165706183Y-88640066D01*
X165706183Y-88640065D01*
X165709719Y-88633126D01*
X165730804Y-88500000D01*
X165709719Y-88366874D01*
X165648528Y-88246780D01*
X165553220Y-88151472D01*
X165546283Y-88147937D01*
X165546281Y-88147936D01*
X165440066Y-88093817D01*
X165440065Y-88093817D01*
X165433126Y-88090281D01*
X165425432Y-88089062D01*
X165425431Y-88089062D01*
X165307696Y-88070415D01*
X165300000Y-88069196D01*
X165292304Y-88070415D01*
X165174569Y-88089062D01*
X165174568Y-88089062D01*
X165166874Y-88090281D01*
X165159935Y-88093817D01*
X165159934Y-88093817D01*
X165053719Y-88147936D01*
X165053717Y-88147937D01*
X165046780Y-88151472D01*
X165020004Y-88178248D01*
X164965487Y-88206025D01*
X164905055Y-88196454D01*
X164879996Y-88178248D01*
X164853220Y-88151472D01*
X164846283Y-88147937D01*
X164846281Y-88147936D01*
X164740066Y-88093817D01*
X164740065Y-88093817D01*
X164733126Y-88090281D01*
X164725432Y-88089062D01*
X164725431Y-88089062D01*
X164607696Y-88070415D01*
X164600000Y-88069196D01*
X164592304Y-88070415D01*
X164474569Y-88089062D01*
X164474568Y-88089062D01*
X164466874Y-88090281D01*
X164459935Y-88093817D01*
X164459934Y-88093817D01*
X164353719Y-88147936D01*
X164353717Y-88147937D01*
X164346780Y-88151472D01*
X164320004Y-88178248D01*
X164265487Y-88206025D01*
X164205055Y-88196454D01*
X164179996Y-88178248D01*
X164153220Y-88151472D01*
X164146283Y-88147937D01*
X164146281Y-88147936D01*
X164040066Y-88093817D01*
X164040065Y-88093817D01*
X164033126Y-88090281D01*
X164025432Y-88089062D01*
X164025431Y-88089062D01*
X163907696Y-88070415D01*
X163900000Y-88069196D01*
X163892304Y-88070415D01*
X163774569Y-88089062D01*
X163774568Y-88089062D01*
X163766874Y-88090281D01*
X163759935Y-88093817D01*
X163759934Y-88093817D01*
X163653719Y-88147936D01*
X163653717Y-88147937D01*
X163646780Y-88151472D01*
X163551472Y-88246780D01*
X163490281Y-88366874D01*
X163469196Y-88500000D01*
X163490281Y-88633126D01*
X163493817Y-88640065D01*
X163493817Y-88640066D01*
X163515213Y-88682058D01*
X163524784Y-88742490D01*
X163497006Y-88797007D01*
X163442490Y-88824784D01*
X163382058Y-88815213D01*
X163340066Y-88793817D01*
X163340065Y-88793817D01*
X163333126Y-88790281D01*
X163325432Y-88789062D01*
X163325431Y-88789062D01*
X163207696Y-88770415D01*
X163200000Y-88769196D01*
X163192304Y-88770415D01*
X163074569Y-88789062D01*
X163074568Y-88789062D01*
X163066874Y-88790281D01*
X163059935Y-88793817D01*
X163059934Y-88793817D01*
X162953719Y-88847936D01*
X162953717Y-88847937D01*
X162946780Y-88851472D01*
X162851472Y-88946780D01*
X162847937Y-88953717D01*
X162847936Y-88953719D01*
X162803325Y-89041274D01*
X162790281Y-89066874D01*
X162769196Y-89200000D01*
X160414966Y-89200000D01*
X160418994Y-89174569D01*
X160429585Y-89107696D01*
X160430804Y-89100000D01*
X160409719Y-88966874D01*
X160374127Y-88897020D01*
X160352064Y-88853719D01*
X160352063Y-88853717D01*
X160348528Y-88846780D01*
X160253220Y-88751472D01*
X160246283Y-88747937D01*
X160246281Y-88747936D01*
X160140066Y-88693817D01*
X160140065Y-88693817D01*
X160133126Y-88690281D01*
X160125432Y-88689062D01*
X160125431Y-88689062D01*
X160007696Y-88670415D01*
X160000000Y-88669196D01*
X159992304Y-88670415D01*
X159874569Y-88689062D01*
X159874568Y-88689062D01*
X159866874Y-88690281D01*
X159859935Y-88693817D01*
X159859934Y-88693817D01*
X159753719Y-88747936D01*
X159753717Y-88747937D01*
X159746780Y-88751472D01*
X159651472Y-88846780D01*
X159647937Y-88853717D01*
X159647936Y-88853719D01*
X159625873Y-88897020D01*
X159590281Y-88966874D01*
X159569196Y-89100000D01*
X157375645Y-89100000D01*
X157352064Y-89053719D01*
X157352063Y-89053717D01*
X157348528Y-89046780D01*
X157253220Y-88951472D01*
X157246283Y-88947937D01*
X157246281Y-88947936D01*
X157140066Y-88893817D01*
X157140065Y-88893817D01*
X157133126Y-88890281D01*
X157125432Y-88889062D01*
X157125431Y-88889062D01*
X157007696Y-88870415D01*
X157000000Y-88869196D01*
X156992304Y-88870415D01*
X156874569Y-88889062D01*
X156874568Y-88889062D01*
X156866874Y-88890281D01*
X156859935Y-88893817D01*
X156859934Y-88893817D01*
X156753719Y-88947936D01*
X156753717Y-88947937D01*
X156746780Y-88951472D01*
X156651472Y-89046780D01*
X156647937Y-89053717D01*
X156647936Y-89053719D01*
X156593817Y-89159934D01*
X156590281Y-89166874D01*
X156589062Y-89174568D01*
X156589062Y-89174569D01*
X156579788Y-89233126D01*
X156569196Y-89300000D01*
X153000986Y-89300000D01*
X152821708Y-89165794D01*
X152818614Y-89164104D01*
X152818610Y-89164102D01*
X152611315Y-89050910D01*
X152611314Y-89050909D01*
X152608218Y-89049219D01*
X152380310Y-88964214D01*
X152142625Y-88912509D01*
X151979238Y-88900823D01*
X151908003Y-88895728D01*
X151905797Y-88895522D01*
X151900718Y-88894345D01*
X151900000Y-88894344D01*
X151894548Y-88895588D01*
X151894545Y-88895588D01*
X151888266Y-88897020D01*
X151866248Y-88899500D01*
X138134281Y-88899500D01*
X138111926Y-88896943D01*
X138106684Y-88895728D01*
X138100718Y-88894345D01*
X138100000Y-88894344D01*
X138094993Y-88895486D01*
X138093604Y-88895614D01*
X137857375Y-88912509D01*
X137619690Y-88964214D01*
X137391782Y-89049219D01*
X137388686Y-89050909D01*
X137388685Y-89050910D01*
X137181390Y-89164102D01*
X137181386Y-89164104D01*
X137178292Y-89165794D01*
X136983565Y-89311565D01*
X136811565Y-89483565D01*
X136665794Y-89678292D01*
X136664104Y-89681386D01*
X136664102Y-89681390D01*
X136637120Y-89730804D01*
X136549219Y-89891782D01*
X136464214Y-90119690D01*
X136412509Y-90357375D01*
X136395560Y-90594354D01*
X136394344Y-90599641D01*
X136397059Y-90611638D01*
X136399500Y-90633488D01*
X136399500Y-104365983D01*
X136396982Y-104388169D01*
X136394344Y-104399641D01*
X134902107Y-104399641D01*
X134948528Y-104353220D01*
X134955231Y-104340066D01*
X135006183Y-104240066D01*
X135006183Y-104240065D01*
X135009719Y-104233126D01*
X135030804Y-104100000D01*
X135009719Y-103966874D01*
X134996675Y-103941274D01*
X134952064Y-103853719D01*
X134952063Y-103853717D01*
X134948528Y-103846780D01*
X134853220Y-103751472D01*
X134846283Y-103747937D01*
X134846281Y-103747936D01*
X134740066Y-103693817D01*
X134740065Y-103693817D01*
X134733126Y-103690281D01*
X134725432Y-103689062D01*
X134725431Y-103689062D01*
X134607696Y-103670415D01*
X134600000Y-103669196D01*
X134592304Y-103670415D01*
X134474569Y-103689062D01*
X134474568Y-103689062D01*
X134466874Y-103690281D01*
X134459935Y-103693817D01*
X134459934Y-103693817D01*
X134353719Y-103747936D01*
X134353717Y-103747937D01*
X134346780Y-103751472D01*
X134251472Y-103846780D01*
X134247937Y-103853717D01*
X134247936Y-103853719D01*
X134203325Y-103941274D01*
X134190281Y-103966874D01*
X134169196Y-104100000D01*
X121600500Y-104100000D01*
X121600500Y-102900000D01*
X132569196Y-102900000D01*
X132590281Y-103033126D01*
X132593817Y-103040065D01*
X132593817Y-103040066D01*
X132646276Y-103143022D01*
X132651472Y-103153220D01*
X132746780Y-103248528D01*
X132753717Y-103252063D01*
X132753719Y-103252064D01*
X132859934Y-103306183D01*
X132866874Y-103309719D01*
X132874568Y-103310938D01*
X132874569Y-103310938D01*
X132992304Y-103329585D01*
X133000000Y-103330804D01*
X133007696Y-103329585D01*
X133125431Y-103310938D01*
X133125432Y-103310938D01*
X133133126Y-103309719D01*
X133140066Y-103306183D01*
X133246281Y-103252064D01*
X133246283Y-103252063D01*
X133253220Y-103248528D01*
X133348528Y-103153220D01*
X133353725Y-103143022D01*
X133406183Y-103040066D01*
X133406183Y-103040065D01*
X133409719Y-103033126D01*
X133430804Y-102900000D01*
X133409719Y-102766874D01*
X133406183Y-102759934D01*
X133352064Y-102653719D01*
X133352063Y-102653717D01*
X133348528Y-102646780D01*
X133253220Y-102551472D01*
X133246283Y-102547937D01*
X133246281Y-102547936D01*
X133140066Y-102493817D01*
X133140065Y-102493817D01*
X133133126Y-102490281D01*
X133125432Y-102489062D01*
X133125431Y-102489062D01*
X133007696Y-102470415D01*
X133000000Y-102469196D01*
X132992304Y-102470415D01*
X132874569Y-102489062D01*
X132874568Y-102489062D01*
X132866874Y-102490281D01*
X132859935Y-102493817D01*
X132859934Y-102493817D01*
X132753719Y-102547936D01*
X132753717Y-102547937D01*
X132746780Y-102551472D01*
X132651472Y-102646780D01*
X132647937Y-102653717D01*
X132647936Y-102653719D01*
X132593817Y-102759934D01*
X132590281Y-102766874D01*
X132569196Y-102900000D01*
X121600500Y-102900000D01*
X121600500Y-101200000D01*
X134069196Y-101200000D01*
X134090281Y-101333126D01*
X134151472Y-101453220D01*
X134246780Y-101548528D01*
X134253717Y-101552063D01*
X134253719Y-101552064D01*
X134359934Y-101606183D01*
X134366874Y-101609719D01*
X134374568Y-101610938D01*
X134374569Y-101610938D01*
X134492304Y-101629585D01*
X134500000Y-101630804D01*
X134507696Y-101629585D01*
X134625431Y-101610938D01*
X134625432Y-101610938D01*
X134633126Y-101609719D01*
X134640066Y-101606183D01*
X134746281Y-101552064D01*
X134746283Y-101552063D01*
X134753220Y-101548528D01*
X134848528Y-101453220D01*
X134909719Y-101333126D01*
X134930804Y-101200000D01*
X134909719Y-101066874D01*
X134848528Y-100946780D01*
X134753220Y-100851472D01*
X134746283Y-100847937D01*
X134746281Y-100847936D01*
X134640066Y-100793817D01*
X134640065Y-100793817D01*
X134633126Y-100790281D01*
X134625432Y-100789062D01*
X134625431Y-100789062D01*
X134507696Y-100770415D01*
X134500000Y-100769196D01*
X134492304Y-100770415D01*
X134374569Y-100789062D01*
X134374568Y-100789062D01*
X134366874Y-100790281D01*
X134359935Y-100793817D01*
X134359934Y-100793817D01*
X134253719Y-100847936D01*
X134253717Y-100847937D01*
X134246780Y-100851472D01*
X134151472Y-100946780D01*
X134090281Y-101066874D01*
X134069196Y-101200000D01*
X121600500Y-101200000D01*
X121600500Y-98200000D01*
X134069196Y-98200000D01*
X134090281Y-98333126D01*
X134093817Y-98340065D01*
X134093817Y-98340066D01*
X134144770Y-98440066D01*
X134151472Y-98453220D01*
X134246780Y-98548528D01*
X134253717Y-98552063D01*
X134253719Y-98552064D01*
X134310584Y-98581038D01*
X134366874Y-98609719D01*
X134374568Y-98610938D01*
X134374569Y-98610938D01*
X134492304Y-98629585D01*
X134500000Y-98630804D01*
X134507696Y-98629585D01*
X134625431Y-98610938D01*
X134625432Y-98610938D01*
X134633126Y-98609719D01*
X134689416Y-98581038D01*
X134746281Y-98552064D01*
X134746283Y-98552063D01*
X134753220Y-98548528D01*
X134848528Y-98453220D01*
X134855231Y-98440066D01*
X134906183Y-98340066D01*
X134906183Y-98340065D01*
X134909719Y-98333126D01*
X134930804Y-98200000D01*
X134911281Y-98076735D01*
X134910938Y-98074569D01*
X134910938Y-98074568D01*
X134909719Y-98066874D01*
X134883040Y-98014513D01*
X134852064Y-97953719D01*
X134852063Y-97953717D01*
X134848528Y-97946780D01*
X134753220Y-97851472D01*
X134746283Y-97847937D01*
X134746281Y-97847936D01*
X134640066Y-97793817D01*
X134640065Y-97793817D01*
X134633126Y-97790281D01*
X134625432Y-97789062D01*
X134625431Y-97789062D01*
X134507696Y-97770415D01*
X134500000Y-97769196D01*
X134492304Y-97770415D01*
X134374569Y-97789062D01*
X134374568Y-97789062D01*
X134366874Y-97790281D01*
X134359935Y-97793817D01*
X134359934Y-97793817D01*
X134253719Y-97847936D01*
X134253717Y-97847937D01*
X134246780Y-97851472D01*
X134151472Y-97946780D01*
X134147937Y-97953717D01*
X134147936Y-97953719D01*
X134116960Y-98014513D01*
X134090281Y-98066874D01*
X134089062Y-98074568D01*
X134089062Y-98074569D01*
X134088719Y-98076735D01*
X134069196Y-98200000D01*
X121600500Y-98200000D01*
X121600500Y-97010000D01*
X126979196Y-97010000D01*
X127000281Y-97143126D01*
X127003817Y-97150065D01*
X127003817Y-97150066D01*
X127008736Y-97159719D01*
X127061472Y-97263220D01*
X127156780Y-97358528D01*
X127163717Y-97362063D01*
X127163719Y-97362064D01*
X127269934Y-97416183D01*
X127276874Y-97419719D01*
X127284568Y-97420938D01*
X127284569Y-97420938D01*
X127402304Y-97439585D01*
X127410000Y-97440804D01*
X127417696Y-97439585D01*
X127535431Y-97420938D01*
X127535432Y-97420938D01*
X127543126Y-97419719D01*
X127550066Y-97416183D01*
X127656281Y-97362064D01*
X127656283Y-97362063D01*
X127663220Y-97358528D01*
X127758528Y-97263220D01*
X127811265Y-97159719D01*
X127816183Y-97150066D01*
X127816183Y-97150065D01*
X127819719Y-97143126D01*
X127840804Y-97010000D01*
X127830712Y-96946281D01*
X127820938Y-96884569D01*
X127820938Y-96884568D01*
X127819719Y-96876874D01*
X127816183Y-96869934D01*
X127762064Y-96763719D01*
X127762063Y-96763717D01*
X127758528Y-96756780D01*
X127751748Y-96750000D01*
X134069196Y-96750000D01*
X134070415Y-96757696D01*
X134088192Y-96869934D01*
X134090281Y-96883126D01*
X134093817Y-96890065D01*
X134093817Y-96890066D01*
X134125996Y-96953220D01*
X134151472Y-97003220D01*
X134246780Y-97098528D01*
X134253717Y-97102063D01*
X134253719Y-97102064D01*
X134310125Y-97130804D01*
X134366874Y-97159719D01*
X134374568Y-97160938D01*
X134374569Y-97160938D01*
X134492304Y-97179585D01*
X134500000Y-97180804D01*
X134507696Y-97179585D01*
X134625431Y-97160938D01*
X134625432Y-97160938D01*
X134633126Y-97159719D01*
X134689875Y-97130804D01*
X134746281Y-97102064D01*
X134746283Y-97102063D01*
X134753220Y-97098528D01*
X134848528Y-97003220D01*
X134874005Y-96953220D01*
X134906183Y-96890066D01*
X134906183Y-96890065D01*
X134909719Y-96883126D01*
X134911809Y-96869934D01*
X134929585Y-96757696D01*
X134930804Y-96750000D01*
X134909719Y-96616874D01*
X134903066Y-96603817D01*
X134852064Y-96503719D01*
X134852063Y-96503717D01*
X134848528Y-96496780D01*
X134753220Y-96401472D01*
X134746283Y-96397937D01*
X134746281Y-96397936D01*
X134640066Y-96343817D01*
X134640065Y-96343817D01*
X134633126Y-96340281D01*
X134625432Y-96339062D01*
X134625431Y-96339062D01*
X134507696Y-96320415D01*
X134500000Y-96319196D01*
X134492304Y-96320415D01*
X134374569Y-96339062D01*
X134374568Y-96339062D01*
X134366874Y-96340281D01*
X134359935Y-96343817D01*
X134359934Y-96343817D01*
X134253719Y-96397936D01*
X134253717Y-96397937D01*
X134246780Y-96401472D01*
X134151472Y-96496780D01*
X134147937Y-96503717D01*
X134147936Y-96503719D01*
X134096934Y-96603817D01*
X134090281Y-96616874D01*
X134069196Y-96750000D01*
X127751748Y-96750000D01*
X127663220Y-96661472D01*
X127656283Y-96657937D01*
X127656281Y-96657936D01*
X127550066Y-96603817D01*
X127550065Y-96603817D01*
X127543126Y-96600281D01*
X127535432Y-96599062D01*
X127535431Y-96599062D01*
X127417696Y-96580415D01*
X127410000Y-96579196D01*
X127402304Y-96580415D01*
X127284569Y-96599062D01*
X127284568Y-96599062D01*
X127276874Y-96600281D01*
X127269935Y-96603817D01*
X127269934Y-96603817D01*
X127163719Y-96657936D01*
X127163717Y-96657937D01*
X127156780Y-96661472D01*
X127061472Y-96756780D01*
X127057937Y-96763717D01*
X127057936Y-96763719D01*
X127003817Y-96869934D01*
X127000281Y-96876874D01*
X126999062Y-96884568D01*
X126999062Y-96884569D01*
X126989288Y-96946281D01*
X126979196Y-97010000D01*
X121600500Y-97010000D01*
X121600500Y-95200000D01*
X125969196Y-95200000D01*
X125990281Y-95333126D01*
X125993817Y-95340065D01*
X125993817Y-95340066D01*
X126045973Y-95442427D01*
X126051472Y-95453220D01*
X126146780Y-95548528D01*
X126153717Y-95552063D01*
X126153719Y-95552064D01*
X126259934Y-95606183D01*
X126266874Y-95609719D01*
X126274568Y-95610938D01*
X126274569Y-95610938D01*
X126392304Y-95629585D01*
X126400000Y-95630804D01*
X126407696Y-95629585D01*
X126525431Y-95610938D01*
X126525432Y-95610938D01*
X126533126Y-95609719D01*
X126540066Y-95606183D01*
X126646281Y-95552064D01*
X126646283Y-95552063D01*
X126653220Y-95548528D01*
X126658726Y-95543022D01*
X126665034Y-95538439D01*
X126666730Y-95540773D01*
X126709513Y-95518975D01*
X126769945Y-95528546D01*
X126784481Y-95539107D01*
X126784966Y-95538439D01*
X126791274Y-95543022D01*
X126796780Y-95548528D01*
X126803717Y-95552063D01*
X126803719Y-95552064D01*
X126909934Y-95606183D01*
X126916874Y-95609719D01*
X126924568Y-95610938D01*
X126924569Y-95610938D01*
X127042304Y-95629585D01*
X127050000Y-95630804D01*
X127057696Y-95629585D01*
X127175431Y-95610938D01*
X127175432Y-95610938D01*
X127183126Y-95609719D01*
X127190066Y-95606183D01*
X127296281Y-95552064D01*
X127296283Y-95552063D01*
X127303220Y-95548528D01*
X127398528Y-95453220D01*
X127404028Y-95442427D01*
X127456183Y-95340066D01*
X127456183Y-95340065D01*
X127459719Y-95333126D01*
X127480804Y-95200000D01*
X134069196Y-95200000D01*
X134090281Y-95333126D01*
X134093817Y-95340065D01*
X134093817Y-95340066D01*
X134145973Y-95442427D01*
X134151472Y-95453220D01*
X134246780Y-95548528D01*
X134253717Y-95552063D01*
X134253719Y-95552064D01*
X134359934Y-95606183D01*
X134366874Y-95609719D01*
X134374568Y-95610938D01*
X134374569Y-95610938D01*
X134492304Y-95629585D01*
X134500000Y-95630804D01*
X134507696Y-95629585D01*
X134625431Y-95610938D01*
X134625432Y-95610938D01*
X134633126Y-95609719D01*
X134640066Y-95606183D01*
X134746281Y-95552064D01*
X134746283Y-95552063D01*
X134753220Y-95548528D01*
X134848528Y-95453220D01*
X134854028Y-95442427D01*
X134906183Y-95340066D01*
X134906183Y-95340065D01*
X134909719Y-95333126D01*
X134930804Y-95200000D01*
X134909719Y-95066874D01*
X134848528Y-94946780D01*
X134753220Y-94851472D01*
X134746283Y-94847937D01*
X134746281Y-94847936D01*
X134640066Y-94793817D01*
X134640065Y-94793817D01*
X134633126Y-94790281D01*
X134625432Y-94789062D01*
X134625431Y-94789062D01*
X134507696Y-94770415D01*
X134500000Y-94769196D01*
X134492304Y-94770415D01*
X134374569Y-94789062D01*
X134374568Y-94789062D01*
X134366874Y-94790281D01*
X134359935Y-94793817D01*
X134359934Y-94793817D01*
X134253719Y-94847936D01*
X134253717Y-94847937D01*
X134246780Y-94851472D01*
X134151472Y-94946780D01*
X134090281Y-95066874D01*
X134069196Y-95200000D01*
X127480804Y-95200000D01*
X127459719Y-95066874D01*
X127398528Y-94946780D01*
X127401167Y-94945436D01*
X127386405Y-94899993D01*
X127401166Y-94854564D01*
X127398528Y-94853220D01*
X127456183Y-94740066D01*
X127456183Y-94740065D01*
X127459719Y-94733126D01*
X127480804Y-94600000D01*
X127459719Y-94466874D01*
X127434553Y-94417482D01*
X127398528Y-94346780D01*
X127401167Y-94345436D01*
X127386405Y-94299993D01*
X127401166Y-94254564D01*
X127398528Y-94253220D01*
X127456183Y-94140066D01*
X127456183Y-94140065D01*
X127459719Y-94133126D01*
X127462940Y-94112793D01*
X127477119Y-94023265D01*
X127480804Y-94000000D01*
X127470212Y-93933126D01*
X127460938Y-93874569D01*
X127460938Y-93874568D01*
X127459719Y-93866874D01*
X127449226Y-93846281D01*
X127425645Y-93800000D01*
X134069196Y-93800000D01*
X134070415Y-93807696D01*
X134081007Y-93874569D01*
X134090281Y-93933126D01*
X134093817Y-93940065D01*
X134093817Y-93940066D01*
X134141086Y-94032836D01*
X134151472Y-94053220D01*
X134246780Y-94148528D01*
X134253717Y-94152063D01*
X134253719Y-94152064D01*
X134313489Y-94182518D01*
X134366874Y-94209719D01*
X134374568Y-94210938D01*
X134374569Y-94210938D01*
X134492304Y-94229585D01*
X134500000Y-94230804D01*
X134507696Y-94229585D01*
X134625431Y-94210938D01*
X134625432Y-94210938D01*
X134633126Y-94209719D01*
X134686511Y-94182518D01*
X134746281Y-94152064D01*
X134746283Y-94152063D01*
X134753220Y-94148528D01*
X134848528Y-94053220D01*
X134858915Y-94032836D01*
X134906183Y-93940066D01*
X134906183Y-93940065D01*
X134909719Y-93933126D01*
X134918994Y-93874569D01*
X134929585Y-93807696D01*
X134930804Y-93800000D01*
X134920212Y-93733126D01*
X134910938Y-93674569D01*
X134910938Y-93674568D01*
X134909719Y-93666874D01*
X134888678Y-93625578D01*
X134852064Y-93553719D01*
X134852063Y-93553717D01*
X134848528Y-93546780D01*
X134753220Y-93451472D01*
X134746283Y-93447937D01*
X134746281Y-93447936D01*
X134640066Y-93393817D01*
X134640065Y-93393817D01*
X134633126Y-93390281D01*
X134625432Y-93389062D01*
X134625431Y-93389062D01*
X134507696Y-93370415D01*
X134500000Y-93369196D01*
X134492304Y-93370415D01*
X134374569Y-93389062D01*
X134374568Y-93389062D01*
X134366874Y-93390281D01*
X134359935Y-93393817D01*
X134359934Y-93393817D01*
X134253719Y-93447936D01*
X134253717Y-93447937D01*
X134246780Y-93451472D01*
X134151472Y-93546780D01*
X134147937Y-93553717D01*
X134147936Y-93553719D01*
X134111322Y-93625578D01*
X134090281Y-93666874D01*
X134089062Y-93674568D01*
X134089062Y-93674569D01*
X134079788Y-93733126D01*
X134069196Y-93800000D01*
X127425645Y-93800000D01*
X127402064Y-93753719D01*
X127402063Y-93753717D01*
X127398528Y-93746780D01*
X127303220Y-93651472D01*
X127296283Y-93647937D01*
X127296281Y-93647936D01*
X127190066Y-93593817D01*
X127190065Y-93593817D01*
X127183126Y-93590281D01*
X127175432Y-93589062D01*
X127175431Y-93589062D01*
X127057696Y-93570415D01*
X127050000Y-93569196D01*
X127042304Y-93570415D01*
X126924569Y-93589062D01*
X126924568Y-93589062D01*
X126916874Y-93590281D01*
X126909935Y-93593817D01*
X126909934Y-93593817D01*
X126803719Y-93647936D01*
X126803717Y-93647937D01*
X126796780Y-93651472D01*
X126791274Y-93656978D01*
X126784966Y-93661561D01*
X126783270Y-93659227D01*
X126740487Y-93681025D01*
X126680055Y-93671454D01*
X126665519Y-93660893D01*
X126665034Y-93661561D01*
X126658726Y-93656978D01*
X126653220Y-93651472D01*
X126646283Y-93647937D01*
X126646281Y-93647936D01*
X126540066Y-93593817D01*
X126540065Y-93593817D01*
X126533126Y-93590281D01*
X126525432Y-93589062D01*
X126525431Y-93589062D01*
X126407696Y-93570415D01*
X126400000Y-93569196D01*
X126392304Y-93570415D01*
X126274569Y-93589062D01*
X126274568Y-93589062D01*
X126266874Y-93590281D01*
X126259935Y-93593817D01*
X126259934Y-93593817D01*
X126153719Y-93647936D01*
X126153717Y-93647937D01*
X126146780Y-93651472D01*
X126051472Y-93746780D01*
X126047937Y-93753717D01*
X126047936Y-93753719D01*
X126000774Y-93846281D01*
X125990281Y-93866874D01*
X125989062Y-93874568D01*
X125989062Y-93874569D01*
X125979788Y-93933126D01*
X125969196Y-94000000D01*
X125972881Y-94023265D01*
X125987061Y-94112793D01*
X125990281Y-94133126D01*
X125993817Y-94140065D01*
X125993817Y-94140066D01*
X126051472Y-94253220D01*
X126048833Y-94254564D01*
X126063595Y-94300007D01*
X126048834Y-94345436D01*
X126051472Y-94346780D01*
X126015448Y-94417482D01*
X125990281Y-94466874D01*
X125969196Y-94600000D01*
X125990281Y-94733126D01*
X125993817Y-94740065D01*
X125993817Y-94740066D01*
X126051472Y-94853220D01*
X126048833Y-94854564D01*
X126063595Y-94900007D01*
X126048834Y-94945436D01*
X126051472Y-94946780D01*
X125990281Y-95066874D01*
X125969196Y-95200000D01*
X121600500Y-95200000D01*
X121600500Y-92200000D01*
X134069196Y-92200000D01*
X134090281Y-92333126D01*
X134093817Y-92340065D01*
X134093817Y-92340066D01*
X134144770Y-92440066D01*
X134151472Y-92453220D01*
X134246780Y-92548528D01*
X134253717Y-92552063D01*
X134253719Y-92552064D01*
X134359934Y-92606183D01*
X134366874Y-92609719D01*
X134374568Y-92610938D01*
X134374569Y-92610938D01*
X134492304Y-92629585D01*
X134500000Y-92630804D01*
X134507696Y-92629585D01*
X134625431Y-92610938D01*
X134625432Y-92610938D01*
X134633126Y-92609719D01*
X134640066Y-92606183D01*
X134746281Y-92552064D01*
X134746283Y-92552063D01*
X134753220Y-92548528D01*
X134848528Y-92453220D01*
X134855231Y-92440066D01*
X134906183Y-92340066D01*
X134906183Y-92340065D01*
X134909719Y-92333126D01*
X134930804Y-92200000D01*
X134909719Y-92066874D01*
X134896675Y-92041274D01*
X134852064Y-91953719D01*
X134852063Y-91953717D01*
X134848528Y-91946780D01*
X134753220Y-91851472D01*
X134746283Y-91847937D01*
X134746281Y-91847936D01*
X134640066Y-91793817D01*
X134640065Y-91793817D01*
X134633126Y-91790281D01*
X134625432Y-91789062D01*
X134625431Y-91789062D01*
X134507696Y-91770415D01*
X134500000Y-91769196D01*
X134492304Y-91770415D01*
X134374569Y-91789062D01*
X134374568Y-91789062D01*
X134366874Y-91790281D01*
X134359935Y-91793817D01*
X134359934Y-91793817D01*
X134253719Y-91847936D01*
X134253717Y-91847937D01*
X134246780Y-91851472D01*
X134151472Y-91946780D01*
X134147937Y-91953717D01*
X134147936Y-91953719D01*
X134103325Y-92041274D01*
X134090281Y-92066874D01*
X134069196Y-92200000D01*
X121600500Y-92200000D01*
X121600500Y-91050000D01*
X127419196Y-91050000D01*
X127420415Y-91057696D01*
X127428655Y-91109719D01*
X127440281Y-91183126D01*
X127501472Y-91303220D01*
X127596780Y-91398528D01*
X127603717Y-91402063D01*
X127603719Y-91402064D01*
X127709934Y-91456183D01*
X127716874Y-91459719D01*
X127724568Y-91460938D01*
X127724569Y-91460938D01*
X127842304Y-91479585D01*
X127850000Y-91480804D01*
X127857696Y-91479585D01*
X127975431Y-91460938D01*
X127975432Y-91460938D01*
X127983126Y-91459719D01*
X127990066Y-91456183D01*
X128096281Y-91402064D01*
X128096283Y-91402063D01*
X128103220Y-91398528D01*
X128151748Y-91350000D01*
X130319196Y-91350000D01*
X130320415Y-91357696D01*
X130336014Y-91456183D01*
X130340281Y-91483126D01*
X130401472Y-91603220D01*
X130496780Y-91698528D01*
X130503717Y-91702063D01*
X130503719Y-91702064D01*
X130609934Y-91756183D01*
X130616874Y-91759719D01*
X130624568Y-91760938D01*
X130624569Y-91760938D01*
X130742304Y-91779585D01*
X130750000Y-91780804D01*
X130757696Y-91779585D01*
X130875431Y-91760938D01*
X130875432Y-91760938D01*
X130883126Y-91759719D01*
X130890066Y-91756183D01*
X130996281Y-91702064D01*
X130996283Y-91702063D01*
X131003220Y-91698528D01*
X131098528Y-91603220D01*
X131159719Y-91483126D01*
X131163987Y-91456183D01*
X131179585Y-91357696D01*
X131180804Y-91350000D01*
X131172296Y-91296281D01*
X131160938Y-91224569D01*
X131160938Y-91224568D01*
X131159719Y-91216874D01*
X131124895Y-91148528D01*
X131102064Y-91103719D01*
X131102063Y-91103717D01*
X131098528Y-91096780D01*
X131003220Y-91001472D01*
X130996283Y-90997937D01*
X130996281Y-90997936D01*
X130890066Y-90943817D01*
X130890065Y-90943817D01*
X130883126Y-90940281D01*
X130875432Y-90939062D01*
X130875431Y-90939062D01*
X130757696Y-90920415D01*
X130750000Y-90919196D01*
X130742304Y-90920415D01*
X130624569Y-90939062D01*
X130624568Y-90939062D01*
X130616874Y-90940281D01*
X130609935Y-90943817D01*
X130609934Y-90943817D01*
X130503719Y-90997936D01*
X130503717Y-90997937D01*
X130496780Y-91001472D01*
X130401472Y-91096780D01*
X130397937Y-91103717D01*
X130397936Y-91103719D01*
X130375105Y-91148528D01*
X130340281Y-91216874D01*
X130339062Y-91224568D01*
X130339062Y-91224569D01*
X130327704Y-91296281D01*
X130319196Y-91350000D01*
X128151748Y-91350000D01*
X128198528Y-91303220D01*
X128259719Y-91183126D01*
X128271346Y-91109719D01*
X128279585Y-91057696D01*
X128280804Y-91050000D01*
X128264377Y-90946281D01*
X128260938Y-90924569D01*
X128260938Y-90924568D01*
X128259719Y-90916874D01*
X128256183Y-90909934D01*
X128202064Y-90803719D01*
X128202063Y-90803717D01*
X128200169Y-90800000D01*
X134469196Y-90800000D01*
X134470415Y-90807696D01*
X134488926Y-90924569D01*
X134490281Y-90933126D01*
X134493817Y-90940065D01*
X134493817Y-90940066D01*
X134546276Y-91043022D01*
X134551472Y-91053220D01*
X134646780Y-91148528D01*
X134653717Y-91152063D01*
X134653719Y-91152064D01*
X134759934Y-91206183D01*
X134766874Y-91209719D01*
X134774568Y-91210938D01*
X134774569Y-91210938D01*
X134892304Y-91229585D01*
X134900000Y-91230804D01*
X134907696Y-91229585D01*
X135025431Y-91210938D01*
X135025432Y-91210938D01*
X135033126Y-91209719D01*
X135040066Y-91206183D01*
X135146281Y-91152064D01*
X135146283Y-91152063D01*
X135153220Y-91148528D01*
X135248528Y-91053220D01*
X135253725Y-91043022D01*
X135306183Y-90940066D01*
X135306183Y-90940065D01*
X135309719Y-90933126D01*
X135311075Y-90924569D01*
X135329585Y-90807696D01*
X135330804Y-90800000D01*
X135309719Y-90666874D01*
X135281002Y-90610514D01*
X135252064Y-90553719D01*
X135252063Y-90553717D01*
X135248528Y-90546780D01*
X135153220Y-90451472D01*
X135146283Y-90447937D01*
X135146281Y-90447936D01*
X135040066Y-90393817D01*
X135040065Y-90393817D01*
X135033126Y-90390281D01*
X135025432Y-90389062D01*
X135025431Y-90389062D01*
X134907696Y-90370415D01*
X134900000Y-90369196D01*
X134892304Y-90370415D01*
X134774569Y-90389062D01*
X134774568Y-90389062D01*
X134766874Y-90390281D01*
X134759935Y-90393817D01*
X134759934Y-90393817D01*
X134653719Y-90447936D01*
X134653717Y-90447937D01*
X134646780Y-90451472D01*
X134551472Y-90546780D01*
X134547937Y-90553717D01*
X134547936Y-90553719D01*
X134518998Y-90610514D01*
X134490281Y-90666874D01*
X134469196Y-90800000D01*
X128200169Y-90800000D01*
X128198528Y-90796780D01*
X128103220Y-90701472D01*
X128096283Y-90697937D01*
X128096281Y-90697936D01*
X127990066Y-90643817D01*
X127990065Y-90643817D01*
X127983126Y-90640281D01*
X127975432Y-90639062D01*
X127975431Y-90639062D01*
X127857696Y-90620415D01*
X127850000Y-90619196D01*
X127842304Y-90620415D01*
X127724569Y-90639062D01*
X127724568Y-90639062D01*
X127716874Y-90640281D01*
X127709935Y-90643817D01*
X127709934Y-90643817D01*
X127603719Y-90697936D01*
X127603717Y-90697937D01*
X127596780Y-90701472D01*
X127501472Y-90796780D01*
X127497937Y-90803717D01*
X127497936Y-90803719D01*
X127443817Y-90909934D01*
X127440281Y-90916874D01*
X127439062Y-90924568D01*
X127439062Y-90924569D01*
X127435623Y-90946281D01*
X127419196Y-91050000D01*
X121600500Y-91050000D01*
X121600500Y-89200000D01*
X132569196Y-89200000D01*
X132570415Y-89207696D01*
X132587648Y-89316499D01*
X132590281Y-89333126D01*
X132593817Y-89340065D01*
X132593817Y-89340066D01*
X132646276Y-89443022D01*
X132651472Y-89453220D01*
X132746780Y-89548528D01*
X132753717Y-89552063D01*
X132753719Y-89552064D01*
X132859934Y-89606183D01*
X132866874Y-89609719D01*
X132874568Y-89610938D01*
X132874569Y-89610938D01*
X132992304Y-89629585D01*
X133000000Y-89630804D01*
X133007696Y-89629585D01*
X133125431Y-89610938D01*
X133125432Y-89610938D01*
X133133126Y-89609719D01*
X133140066Y-89606183D01*
X133246281Y-89552064D01*
X133246283Y-89552063D01*
X133253220Y-89548528D01*
X133348528Y-89453220D01*
X133353725Y-89443022D01*
X133406183Y-89340066D01*
X133406183Y-89340065D01*
X133409719Y-89333126D01*
X133412353Y-89316499D01*
X133414966Y-89300000D01*
X134069196Y-89300000D01*
X134090281Y-89433126D01*
X134093817Y-89440065D01*
X134093817Y-89440066D01*
X134146276Y-89543022D01*
X134151472Y-89553220D01*
X134246780Y-89648528D01*
X134253717Y-89652063D01*
X134253719Y-89652064D01*
X134311275Y-89681390D01*
X134366874Y-89709719D01*
X134374568Y-89710938D01*
X134374569Y-89710938D01*
X134492304Y-89729585D01*
X134500000Y-89730804D01*
X134507696Y-89729585D01*
X134625431Y-89710938D01*
X134625432Y-89710938D01*
X134633126Y-89709719D01*
X134688725Y-89681390D01*
X134746281Y-89652064D01*
X134746283Y-89652063D01*
X134753220Y-89648528D01*
X134848528Y-89553220D01*
X134853725Y-89543022D01*
X134906183Y-89440066D01*
X134906183Y-89440065D01*
X134909719Y-89433126D01*
X134930804Y-89300000D01*
X134920212Y-89233126D01*
X134910938Y-89174569D01*
X134910938Y-89174568D01*
X134909719Y-89166874D01*
X134906183Y-89159934D01*
X134852064Y-89053719D01*
X134852063Y-89053717D01*
X134848528Y-89046780D01*
X134753220Y-88951472D01*
X134746283Y-88947937D01*
X134746281Y-88947936D01*
X134640066Y-88893817D01*
X134640065Y-88893817D01*
X134633126Y-88890281D01*
X134625432Y-88889062D01*
X134625431Y-88889062D01*
X134507696Y-88870415D01*
X134500000Y-88869196D01*
X134492304Y-88870415D01*
X134374569Y-88889062D01*
X134374568Y-88889062D01*
X134366874Y-88890281D01*
X134359935Y-88893817D01*
X134359934Y-88893817D01*
X134253719Y-88947936D01*
X134253717Y-88947937D01*
X134246780Y-88951472D01*
X134151472Y-89046780D01*
X134147937Y-89053717D01*
X134147936Y-89053719D01*
X134093817Y-89159934D01*
X134090281Y-89166874D01*
X134089062Y-89174568D01*
X134089062Y-89174569D01*
X134079788Y-89233126D01*
X134069196Y-89300000D01*
X133414966Y-89300000D01*
X133429585Y-89207696D01*
X133430804Y-89200000D01*
X133409719Y-89066874D01*
X133396675Y-89041274D01*
X133352064Y-88953719D01*
X133352063Y-88953717D01*
X133348528Y-88946780D01*
X133253220Y-88851472D01*
X133246283Y-88847937D01*
X133246281Y-88847936D01*
X133140066Y-88793817D01*
X133140065Y-88793817D01*
X133133126Y-88790281D01*
X133125432Y-88789062D01*
X133125431Y-88789062D01*
X133007696Y-88770415D01*
X133000000Y-88769196D01*
X132992304Y-88770415D01*
X132874569Y-88789062D01*
X132874568Y-88789062D01*
X132866874Y-88790281D01*
X132859935Y-88793817D01*
X132859934Y-88793817D01*
X132753719Y-88847936D01*
X132753717Y-88847937D01*
X132746780Y-88851472D01*
X132651472Y-88946780D01*
X132647937Y-88953717D01*
X132647936Y-88953719D01*
X132603325Y-89041274D01*
X132590281Y-89066874D01*
X132569196Y-89200000D01*
X121600500Y-89200000D01*
X121600500Y-87800000D01*
X134069196Y-87800000D01*
X134070415Y-87807696D01*
X134078655Y-87859719D01*
X134090281Y-87933126D01*
X134093817Y-87940065D01*
X134093817Y-87940066D01*
X134146276Y-88043022D01*
X134151472Y-88053220D01*
X134246780Y-88148528D01*
X134253717Y-88152063D01*
X134253719Y-88152064D01*
X134340840Y-88196454D01*
X134366874Y-88209719D01*
X134374568Y-88210938D01*
X134374569Y-88210938D01*
X134492304Y-88229585D01*
X134500000Y-88230804D01*
X134507696Y-88229585D01*
X134625431Y-88210938D01*
X134625432Y-88210938D01*
X134633126Y-88209719D01*
X134659160Y-88196454D01*
X134746281Y-88152064D01*
X134746283Y-88152063D01*
X134753220Y-88148528D01*
X134848528Y-88053220D01*
X134853725Y-88043022D01*
X134906183Y-87940066D01*
X134906183Y-87940065D01*
X134909719Y-87933126D01*
X134921346Y-87859719D01*
X134929585Y-87807696D01*
X134930804Y-87800000D01*
X134914966Y-87700000D01*
X135569196Y-87700000D01*
X135590281Y-87833126D01*
X135593817Y-87840065D01*
X135593817Y-87840066D01*
X135644770Y-87940066D01*
X135651472Y-87953220D01*
X135746780Y-88048528D01*
X135753717Y-88052063D01*
X135753719Y-88052064D01*
X135859934Y-88106183D01*
X135866874Y-88109719D01*
X135874568Y-88110938D01*
X135874569Y-88110938D01*
X135992304Y-88129585D01*
X136000000Y-88130804D01*
X136007696Y-88129585D01*
X136125431Y-88110938D01*
X136125432Y-88110938D01*
X136133126Y-88109719D01*
X136140066Y-88106183D01*
X136246281Y-88052064D01*
X136246283Y-88052063D01*
X136253220Y-88048528D01*
X136348528Y-87953220D01*
X136355231Y-87940066D01*
X136406183Y-87840066D01*
X136406183Y-87840065D01*
X136409719Y-87833126D01*
X136430804Y-87700000D01*
X136412293Y-87583126D01*
X136410938Y-87574569D01*
X136410938Y-87574568D01*
X136409719Y-87566874D01*
X136374895Y-87498528D01*
X136352064Y-87453719D01*
X136352063Y-87453717D01*
X136350169Y-87450000D01*
X144569196Y-87450000D01*
X144570415Y-87457696D01*
X144588926Y-87574569D01*
X144590281Y-87583126D01*
X144593817Y-87590065D01*
X144593817Y-87590066D01*
X144636874Y-87674569D01*
X144651472Y-87703220D01*
X144746780Y-87798528D01*
X144753717Y-87802063D01*
X144753719Y-87802064D01*
X144859934Y-87856183D01*
X144866874Y-87859719D01*
X144874568Y-87860938D01*
X144874569Y-87860938D01*
X144992304Y-87879585D01*
X145000000Y-87880804D01*
X145007696Y-87879585D01*
X145125431Y-87860938D01*
X145125432Y-87860938D01*
X145133126Y-87859719D01*
X145140066Y-87856183D01*
X145246281Y-87802064D01*
X145246283Y-87802063D01*
X145250331Y-87800000D01*
X153569196Y-87800000D01*
X153570415Y-87807696D01*
X153578655Y-87859719D01*
X153590281Y-87933126D01*
X153593817Y-87940065D01*
X153593817Y-87940066D01*
X153646276Y-88043022D01*
X153651472Y-88053220D01*
X153746780Y-88148528D01*
X153753717Y-88152063D01*
X153753719Y-88152064D01*
X153840840Y-88196454D01*
X153866874Y-88209719D01*
X153874568Y-88210938D01*
X153874569Y-88210938D01*
X153992304Y-88229585D01*
X154000000Y-88230804D01*
X154007696Y-88229585D01*
X154125431Y-88210938D01*
X154125432Y-88210938D01*
X154133126Y-88209719D01*
X154159160Y-88196454D01*
X154246281Y-88152064D01*
X154246283Y-88152063D01*
X154253220Y-88148528D01*
X154348528Y-88053220D01*
X154353725Y-88043022D01*
X154406183Y-87940066D01*
X154406183Y-87940065D01*
X154409719Y-87933126D01*
X154421346Y-87859719D01*
X154429585Y-87807696D01*
X154430804Y-87800000D01*
X154414966Y-87700000D01*
X154969196Y-87700000D01*
X154990281Y-87833126D01*
X154993817Y-87840065D01*
X154993817Y-87840066D01*
X155044770Y-87940066D01*
X155051472Y-87953220D01*
X155146780Y-88048528D01*
X155153717Y-88052063D01*
X155153719Y-88052064D01*
X155259934Y-88106183D01*
X155266874Y-88109719D01*
X155274568Y-88110938D01*
X155274569Y-88110938D01*
X155392304Y-88129585D01*
X155400000Y-88130804D01*
X155407696Y-88129585D01*
X155525431Y-88110938D01*
X155525432Y-88110938D01*
X155533126Y-88109719D01*
X155540066Y-88106183D01*
X155646281Y-88052064D01*
X155646283Y-88052063D01*
X155653220Y-88048528D01*
X155748528Y-87953220D01*
X155755231Y-87940066D01*
X155806183Y-87840066D01*
X155806183Y-87840065D01*
X155809719Y-87833126D01*
X155830804Y-87700000D01*
X155812293Y-87583126D01*
X155810938Y-87574569D01*
X155810938Y-87574568D01*
X155809719Y-87566874D01*
X155774895Y-87498528D01*
X155752064Y-87453719D01*
X155752063Y-87453717D01*
X155748528Y-87446780D01*
X155653220Y-87351472D01*
X155646283Y-87347937D01*
X155646281Y-87347936D01*
X155540066Y-87293817D01*
X155540065Y-87293817D01*
X155533126Y-87290281D01*
X155525432Y-87289062D01*
X155525431Y-87289062D01*
X155407696Y-87270415D01*
X155400000Y-87269196D01*
X155392304Y-87270415D01*
X155274569Y-87289062D01*
X155274568Y-87289062D01*
X155266874Y-87290281D01*
X155259935Y-87293817D01*
X155259934Y-87293817D01*
X155153719Y-87347936D01*
X155153717Y-87347937D01*
X155146780Y-87351472D01*
X155051472Y-87446780D01*
X155047937Y-87453717D01*
X155047936Y-87453719D01*
X155025105Y-87498528D01*
X154990281Y-87566874D01*
X154989062Y-87574568D01*
X154989062Y-87574569D01*
X154987707Y-87583126D01*
X154969196Y-87700000D01*
X154414966Y-87700000D01*
X154409719Y-87666874D01*
X154406183Y-87659934D01*
X154352064Y-87553719D01*
X154352063Y-87553717D01*
X154348528Y-87546780D01*
X154253220Y-87451472D01*
X154246283Y-87447937D01*
X154246281Y-87447936D01*
X154140066Y-87393817D01*
X154140065Y-87393817D01*
X154133126Y-87390281D01*
X154125432Y-87389062D01*
X154125431Y-87389062D01*
X154007696Y-87370415D01*
X154000000Y-87369196D01*
X153992304Y-87370415D01*
X153874569Y-87389062D01*
X153874568Y-87389062D01*
X153866874Y-87390281D01*
X153859935Y-87393817D01*
X153859934Y-87393817D01*
X153753719Y-87447936D01*
X153753717Y-87447937D01*
X153746780Y-87451472D01*
X153651472Y-87546780D01*
X153647937Y-87553717D01*
X153647936Y-87553719D01*
X153593817Y-87659934D01*
X153590281Y-87666874D01*
X153569196Y-87800000D01*
X145250331Y-87800000D01*
X145253220Y-87798528D01*
X145348528Y-87703220D01*
X145363127Y-87674569D01*
X145406183Y-87590066D01*
X145406183Y-87590065D01*
X145409719Y-87583126D01*
X145411075Y-87574569D01*
X145429585Y-87457696D01*
X145430804Y-87450000D01*
X145421906Y-87393817D01*
X145410938Y-87324569D01*
X145410938Y-87324568D01*
X145409719Y-87316874D01*
X145348528Y-87196780D01*
X145253220Y-87101472D01*
X145246283Y-87097937D01*
X145246281Y-87097936D01*
X145140066Y-87043817D01*
X145140065Y-87043817D01*
X145133126Y-87040281D01*
X145125432Y-87039062D01*
X145125431Y-87039062D01*
X145007696Y-87020415D01*
X145000000Y-87019196D01*
X144992304Y-87020415D01*
X144874569Y-87039062D01*
X144874568Y-87039062D01*
X144866874Y-87040281D01*
X144859935Y-87043817D01*
X144859934Y-87043817D01*
X144753719Y-87097936D01*
X144753717Y-87097937D01*
X144746780Y-87101472D01*
X144651472Y-87196780D01*
X144590281Y-87316874D01*
X144589062Y-87324568D01*
X144589062Y-87324569D01*
X144578094Y-87393817D01*
X144569196Y-87450000D01*
X136350169Y-87450000D01*
X136348528Y-87446780D01*
X136253220Y-87351472D01*
X136246283Y-87347937D01*
X136246281Y-87347936D01*
X136140066Y-87293817D01*
X136140065Y-87293817D01*
X136133126Y-87290281D01*
X136125432Y-87289062D01*
X136125431Y-87289062D01*
X136007696Y-87270415D01*
X136000000Y-87269196D01*
X135992304Y-87270415D01*
X135874569Y-87289062D01*
X135874568Y-87289062D01*
X135866874Y-87290281D01*
X135859935Y-87293817D01*
X135859934Y-87293817D01*
X135753719Y-87347936D01*
X135753717Y-87347937D01*
X135746780Y-87351472D01*
X135651472Y-87446780D01*
X135647937Y-87453717D01*
X135647936Y-87453719D01*
X135625105Y-87498528D01*
X135590281Y-87566874D01*
X135589062Y-87574568D01*
X135589062Y-87574569D01*
X135587707Y-87583126D01*
X135569196Y-87700000D01*
X134914966Y-87700000D01*
X134909719Y-87666874D01*
X134906183Y-87659934D01*
X134852064Y-87553719D01*
X134852063Y-87553717D01*
X134848528Y-87546780D01*
X134753220Y-87451472D01*
X134746283Y-87447937D01*
X134746281Y-87447936D01*
X134640066Y-87393817D01*
X134640065Y-87393817D01*
X134633126Y-87390281D01*
X134625432Y-87389062D01*
X134625431Y-87389062D01*
X134507696Y-87370415D01*
X134500000Y-87369196D01*
X134492304Y-87370415D01*
X134374569Y-87389062D01*
X134374568Y-87389062D01*
X134366874Y-87390281D01*
X134359935Y-87393817D01*
X134359934Y-87393817D01*
X134253719Y-87447936D01*
X134253717Y-87447937D01*
X134246780Y-87451472D01*
X134151472Y-87546780D01*
X134147937Y-87553717D01*
X134147936Y-87553719D01*
X134093817Y-87659934D01*
X134090281Y-87666874D01*
X134069196Y-87800000D01*
X121600500Y-87800000D01*
X121600500Y-87150000D01*
X127369196Y-87150000D01*
X127370415Y-87157696D01*
X127388075Y-87269196D01*
X127390281Y-87283126D01*
X127393817Y-87290065D01*
X127393817Y-87290066D01*
X127427911Y-87356978D01*
X127451472Y-87403220D01*
X127546780Y-87498528D01*
X127553717Y-87502063D01*
X127553719Y-87502064D01*
X127655098Y-87553719D01*
X127666874Y-87559719D01*
X127674568Y-87560938D01*
X127674569Y-87560938D01*
X127792304Y-87579585D01*
X127800000Y-87580804D01*
X127807696Y-87579585D01*
X127925431Y-87560938D01*
X127925432Y-87560938D01*
X127933126Y-87559719D01*
X127944902Y-87553719D01*
X128046281Y-87502064D01*
X128046283Y-87502063D01*
X128053220Y-87498528D01*
X128129996Y-87421752D01*
X128184513Y-87393975D01*
X128244945Y-87403546D01*
X128270004Y-87421752D01*
X128346780Y-87498528D01*
X128353717Y-87502063D01*
X128353719Y-87502064D01*
X128455098Y-87553719D01*
X128466874Y-87559719D01*
X128474568Y-87560938D01*
X128474569Y-87560938D01*
X128592304Y-87579585D01*
X128600000Y-87580804D01*
X128607696Y-87579585D01*
X128725431Y-87560938D01*
X128725432Y-87560938D01*
X128733126Y-87559719D01*
X128744902Y-87553719D01*
X128846281Y-87502064D01*
X128846283Y-87502063D01*
X128853220Y-87498528D01*
X128948528Y-87403220D01*
X128972090Y-87356978D01*
X129006183Y-87290066D01*
X129006183Y-87290065D01*
X129009719Y-87283126D01*
X129011926Y-87269196D01*
X129029585Y-87157696D01*
X129030804Y-87150000D01*
X129022558Y-87097936D01*
X129010938Y-87024569D01*
X129010938Y-87024568D01*
X129009719Y-87016874D01*
X128948528Y-86896780D01*
X128943022Y-86891274D01*
X128938439Y-86884966D01*
X128940773Y-86883270D01*
X128918975Y-86840487D01*
X128928546Y-86780055D01*
X128939107Y-86765519D01*
X128938439Y-86765034D01*
X128943022Y-86758726D01*
X128948528Y-86753220D01*
X129009719Y-86633126D01*
X129030804Y-86500000D01*
X129009719Y-86366874D01*
X128948528Y-86246780D01*
X128853220Y-86151472D01*
X128846283Y-86147937D01*
X128846281Y-86147936D01*
X128740066Y-86093817D01*
X128740065Y-86093817D01*
X128733126Y-86090281D01*
X128725432Y-86089062D01*
X128725431Y-86089062D01*
X128607696Y-86070415D01*
X128600000Y-86069196D01*
X128592304Y-86070415D01*
X128474569Y-86089062D01*
X128474568Y-86089062D01*
X128466874Y-86090281D01*
X128459935Y-86093817D01*
X128459934Y-86093817D01*
X128353719Y-86147936D01*
X128353717Y-86147937D01*
X128346780Y-86151472D01*
X128270004Y-86228248D01*
X128215487Y-86256025D01*
X128155055Y-86246454D01*
X128129996Y-86228248D01*
X128053220Y-86151472D01*
X128046283Y-86147937D01*
X128046281Y-86147936D01*
X127940066Y-86093817D01*
X127940065Y-86093817D01*
X127933126Y-86090281D01*
X127925432Y-86089062D01*
X127925431Y-86089062D01*
X127807696Y-86070415D01*
X127800000Y-86069196D01*
X127792304Y-86070415D01*
X127674569Y-86089062D01*
X127674568Y-86089062D01*
X127666874Y-86090281D01*
X127659935Y-86093817D01*
X127659934Y-86093817D01*
X127553719Y-86147936D01*
X127553717Y-86147937D01*
X127546780Y-86151472D01*
X127451472Y-86246780D01*
X127390281Y-86366874D01*
X127369196Y-86500000D01*
X127390281Y-86633126D01*
X127451472Y-86753220D01*
X127456978Y-86758726D01*
X127461561Y-86765034D01*
X127459227Y-86766730D01*
X127481025Y-86809513D01*
X127471454Y-86869945D01*
X127460893Y-86884481D01*
X127461561Y-86884966D01*
X127456978Y-86891274D01*
X127451472Y-86896780D01*
X127390281Y-87016874D01*
X127389062Y-87024568D01*
X127389062Y-87024569D01*
X127377442Y-87097936D01*
X127369196Y-87150000D01*
X121600500Y-87150000D01*
X121600500Y-83300000D01*
X134069196Y-83300000D01*
X134090281Y-83433126D01*
X134093817Y-83440065D01*
X134093817Y-83440066D01*
X134146276Y-83543022D01*
X134151472Y-83553220D01*
X134246780Y-83648528D01*
X134253717Y-83652063D01*
X134253719Y-83652064D01*
X134359934Y-83706183D01*
X134366874Y-83709719D01*
X134374568Y-83710938D01*
X134374569Y-83710938D01*
X134492304Y-83729585D01*
X134500000Y-83730804D01*
X134507696Y-83729585D01*
X134625431Y-83710938D01*
X134625432Y-83710938D01*
X134633126Y-83709719D01*
X134640066Y-83706183D01*
X134746281Y-83652064D01*
X134746283Y-83652063D01*
X134753220Y-83648528D01*
X134848528Y-83553220D01*
X134853725Y-83543022D01*
X134906183Y-83440066D01*
X134906183Y-83440065D01*
X134909719Y-83433126D01*
X134930804Y-83300000D01*
X135569196Y-83300000D01*
X135590281Y-83433126D01*
X135593817Y-83440065D01*
X135593817Y-83440066D01*
X135646276Y-83543022D01*
X135651472Y-83553220D01*
X135746780Y-83648528D01*
X135753717Y-83652063D01*
X135753719Y-83652064D01*
X135859934Y-83706183D01*
X135866874Y-83709719D01*
X135874568Y-83710938D01*
X135874569Y-83710938D01*
X135992304Y-83729585D01*
X136000000Y-83730804D01*
X136007696Y-83729585D01*
X136125431Y-83710938D01*
X136125432Y-83710938D01*
X136133126Y-83709719D01*
X136140066Y-83706183D01*
X136246281Y-83652064D01*
X136246283Y-83652063D01*
X136253220Y-83648528D01*
X136348528Y-83553220D01*
X136353725Y-83543022D01*
X136406183Y-83440066D01*
X136406183Y-83440065D01*
X136409719Y-83433126D01*
X136430804Y-83300000D01*
X136414966Y-83200000D01*
X137069196Y-83200000D01*
X137090281Y-83333126D01*
X137093817Y-83340065D01*
X137093817Y-83340066D01*
X137144770Y-83440066D01*
X137151472Y-83453220D01*
X137246780Y-83548528D01*
X137253717Y-83552063D01*
X137253719Y-83552064D01*
X137359934Y-83606183D01*
X137366874Y-83609719D01*
X137374568Y-83610938D01*
X137374569Y-83610938D01*
X137492304Y-83629585D01*
X137500000Y-83630804D01*
X137507696Y-83629585D01*
X137625431Y-83610938D01*
X137625432Y-83610938D01*
X137633126Y-83609719D01*
X137640066Y-83606183D01*
X137746281Y-83552064D01*
X137746283Y-83552063D01*
X137753220Y-83548528D01*
X137848528Y-83453220D01*
X137855231Y-83440066D01*
X137906183Y-83340066D01*
X137906183Y-83340065D01*
X137909719Y-83333126D01*
X137914966Y-83300000D01*
X143069196Y-83300000D01*
X143090281Y-83433126D01*
X143093817Y-83440065D01*
X143093817Y-83440066D01*
X143146276Y-83543022D01*
X143151472Y-83553220D01*
X143246780Y-83648528D01*
X143253717Y-83652063D01*
X143253719Y-83652064D01*
X143359934Y-83706183D01*
X143366874Y-83709719D01*
X143374568Y-83710938D01*
X143374569Y-83710938D01*
X143492304Y-83729585D01*
X143500000Y-83730804D01*
X143507696Y-83729585D01*
X143625431Y-83710938D01*
X143625432Y-83710938D01*
X143633126Y-83709719D01*
X143640066Y-83706183D01*
X143746281Y-83652064D01*
X143746283Y-83652063D01*
X143753220Y-83648528D01*
X143848528Y-83553220D01*
X143853725Y-83543022D01*
X143906183Y-83440066D01*
X143906183Y-83440065D01*
X143909719Y-83433126D01*
X143930804Y-83300000D01*
X152069196Y-83300000D01*
X152090281Y-83433126D01*
X152093817Y-83440065D01*
X152093817Y-83440066D01*
X152146276Y-83543022D01*
X152151472Y-83553220D01*
X152246780Y-83648528D01*
X152253717Y-83652063D01*
X152253719Y-83652064D01*
X152359934Y-83706183D01*
X152366874Y-83709719D01*
X152374568Y-83710938D01*
X152374569Y-83710938D01*
X152492304Y-83729585D01*
X152500000Y-83730804D01*
X152507696Y-83729585D01*
X152625431Y-83710938D01*
X152625432Y-83710938D01*
X152633126Y-83709719D01*
X152640066Y-83706183D01*
X152746281Y-83652064D01*
X152746283Y-83652063D01*
X152753220Y-83648528D01*
X152848528Y-83553220D01*
X152853725Y-83543022D01*
X152906183Y-83440066D01*
X152906183Y-83440065D01*
X152909719Y-83433126D01*
X152930804Y-83300000D01*
X152914966Y-83200000D01*
X153569196Y-83200000D01*
X153590281Y-83333126D01*
X153593817Y-83340065D01*
X153593817Y-83340066D01*
X153644770Y-83440066D01*
X153651472Y-83453220D01*
X153746780Y-83548528D01*
X153753717Y-83552063D01*
X153753719Y-83552064D01*
X153859934Y-83606183D01*
X153866874Y-83609719D01*
X153874568Y-83610938D01*
X153874569Y-83610938D01*
X153992304Y-83629585D01*
X154000000Y-83630804D01*
X154007696Y-83629585D01*
X154125431Y-83610938D01*
X154125432Y-83610938D01*
X154133126Y-83609719D01*
X154140066Y-83606183D01*
X154246281Y-83552064D01*
X154246283Y-83552063D01*
X154253220Y-83548528D01*
X154348528Y-83453220D01*
X154355231Y-83440066D01*
X154406183Y-83340066D01*
X154406183Y-83340065D01*
X154409719Y-83333126D01*
X154430804Y-83200000D01*
X155069196Y-83200000D01*
X155090281Y-83333126D01*
X155093817Y-83340065D01*
X155093817Y-83340066D01*
X155144770Y-83440066D01*
X155151472Y-83453220D01*
X155246780Y-83548528D01*
X155253717Y-83552063D01*
X155253719Y-83552064D01*
X155359934Y-83606183D01*
X155366874Y-83609719D01*
X155374568Y-83610938D01*
X155374569Y-83610938D01*
X155492304Y-83629585D01*
X155500000Y-83630804D01*
X155507696Y-83629585D01*
X155625431Y-83610938D01*
X155625432Y-83610938D01*
X155633126Y-83609719D01*
X155640066Y-83606183D01*
X155746281Y-83552064D01*
X155746283Y-83552063D01*
X155753220Y-83548528D01*
X155848528Y-83453220D01*
X155855231Y-83440066D01*
X155906183Y-83340066D01*
X155906183Y-83340065D01*
X155909719Y-83333126D01*
X155930804Y-83200000D01*
X155909719Y-83066874D01*
X155896675Y-83041274D01*
X155852064Y-82953719D01*
X155852063Y-82953717D01*
X155848528Y-82946780D01*
X155753220Y-82851472D01*
X155746283Y-82847937D01*
X155746281Y-82847936D01*
X155640066Y-82793817D01*
X155640065Y-82793817D01*
X155633126Y-82790281D01*
X155625432Y-82789062D01*
X155625431Y-82789062D01*
X155507696Y-82770415D01*
X155500000Y-82769196D01*
X155492304Y-82770415D01*
X155374569Y-82789062D01*
X155374568Y-82789062D01*
X155366874Y-82790281D01*
X155359935Y-82793817D01*
X155359934Y-82793817D01*
X155253719Y-82847936D01*
X155253717Y-82847937D01*
X155246780Y-82851472D01*
X155151472Y-82946780D01*
X155147937Y-82953717D01*
X155147936Y-82953719D01*
X155103325Y-83041274D01*
X155090281Y-83066874D01*
X155069196Y-83200000D01*
X154430804Y-83200000D01*
X154409719Y-83066874D01*
X154396675Y-83041274D01*
X154352064Y-82953719D01*
X154352063Y-82953717D01*
X154348528Y-82946780D01*
X154253220Y-82851472D01*
X154246283Y-82847937D01*
X154246281Y-82847936D01*
X154140066Y-82793817D01*
X154140065Y-82793817D01*
X154133126Y-82790281D01*
X154125432Y-82789062D01*
X154125431Y-82789062D01*
X154007696Y-82770415D01*
X154000000Y-82769196D01*
X153992304Y-82770415D01*
X153874569Y-82789062D01*
X153874568Y-82789062D01*
X153866874Y-82790281D01*
X153859935Y-82793817D01*
X153859934Y-82793817D01*
X153753719Y-82847936D01*
X153753717Y-82847937D01*
X153746780Y-82851472D01*
X153651472Y-82946780D01*
X153647937Y-82953717D01*
X153647936Y-82953719D01*
X153603325Y-83041274D01*
X153590281Y-83066874D01*
X153569196Y-83200000D01*
X152914966Y-83200000D01*
X152909719Y-83166874D01*
X152906183Y-83159934D01*
X152852064Y-83053719D01*
X152852063Y-83053717D01*
X152848528Y-83046780D01*
X152753220Y-82951472D01*
X152746283Y-82947937D01*
X152746281Y-82947936D01*
X152640066Y-82893817D01*
X152640065Y-82893817D01*
X152633126Y-82890281D01*
X152625432Y-82889062D01*
X152625431Y-82889062D01*
X152507696Y-82870415D01*
X152500000Y-82869196D01*
X152492304Y-82870415D01*
X152374569Y-82889062D01*
X152374568Y-82889062D01*
X152366874Y-82890281D01*
X152359935Y-82893817D01*
X152359934Y-82893817D01*
X152253719Y-82947936D01*
X152253717Y-82947937D01*
X152246780Y-82951472D01*
X152151472Y-83046780D01*
X152147937Y-83053717D01*
X152147936Y-83053719D01*
X152093817Y-83159934D01*
X152090281Y-83166874D01*
X152069196Y-83300000D01*
X143930804Y-83300000D01*
X143909719Y-83166874D01*
X143906183Y-83159934D01*
X143852064Y-83053719D01*
X143852063Y-83053717D01*
X143848528Y-83046780D01*
X143753220Y-82951472D01*
X143746283Y-82947937D01*
X143746281Y-82947936D01*
X143640066Y-82893817D01*
X143640065Y-82893817D01*
X143633126Y-82890281D01*
X143625432Y-82889062D01*
X143625431Y-82889062D01*
X143507696Y-82870415D01*
X143500000Y-82869196D01*
X143492304Y-82870415D01*
X143374569Y-82889062D01*
X143374568Y-82889062D01*
X143366874Y-82890281D01*
X143359935Y-82893817D01*
X143359934Y-82893817D01*
X143253719Y-82947936D01*
X143253717Y-82947937D01*
X143246780Y-82951472D01*
X143151472Y-83046780D01*
X143147937Y-83053717D01*
X143147936Y-83053719D01*
X143093817Y-83159934D01*
X143090281Y-83166874D01*
X143069196Y-83300000D01*
X137914966Y-83300000D01*
X137930804Y-83200000D01*
X137909719Y-83066874D01*
X137896675Y-83041274D01*
X137852064Y-82953719D01*
X137852063Y-82953717D01*
X137848528Y-82946780D01*
X137753220Y-82851472D01*
X137746283Y-82847937D01*
X137746281Y-82847936D01*
X137640066Y-82793817D01*
X137640065Y-82793817D01*
X137633126Y-82790281D01*
X137625432Y-82789062D01*
X137625431Y-82789062D01*
X137507696Y-82770415D01*
X137500000Y-82769196D01*
X137492304Y-82770415D01*
X137374569Y-82789062D01*
X137374568Y-82789062D01*
X137366874Y-82790281D01*
X137359935Y-82793817D01*
X137359934Y-82793817D01*
X137253719Y-82847936D01*
X137253717Y-82847937D01*
X137246780Y-82851472D01*
X137151472Y-82946780D01*
X137147937Y-82953717D01*
X137147936Y-82953719D01*
X137103325Y-83041274D01*
X137090281Y-83066874D01*
X137069196Y-83200000D01*
X136414966Y-83200000D01*
X136409719Y-83166874D01*
X136406183Y-83159934D01*
X136352064Y-83053719D01*
X136352063Y-83053717D01*
X136348528Y-83046780D01*
X136253220Y-82951472D01*
X136246283Y-82947937D01*
X136246281Y-82947936D01*
X136140066Y-82893817D01*
X136140065Y-82893817D01*
X136133126Y-82890281D01*
X136125432Y-82889062D01*
X136125431Y-82889062D01*
X136007696Y-82870415D01*
X136000000Y-82869196D01*
X135992304Y-82870415D01*
X135874569Y-82889062D01*
X135874568Y-82889062D01*
X135866874Y-82890281D01*
X135859935Y-82893817D01*
X135859934Y-82893817D01*
X135753719Y-82947936D01*
X135753717Y-82947937D01*
X135746780Y-82951472D01*
X135651472Y-83046780D01*
X135647937Y-83053717D01*
X135647936Y-83053719D01*
X135593817Y-83159934D01*
X135590281Y-83166874D01*
X135569196Y-83300000D01*
X134930804Y-83300000D01*
X134909719Y-83166874D01*
X134906183Y-83159934D01*
X134852064Y-83053719D01*
X134852063Y-83053717D01*
X134848528Y-83046780D01*
X134753220Y-82951472D01*
X134746283Y-82947937D01*
X134746281Y-82947936D01*
X134640066Y-82893817D01*
X134640065Y-82893817D01*
X134633126Y-82890281D01*
X134625432Y-82889062D01*
X134625431Y-82889062D01*
X134507696Y-82870415D01*
X134500000Y-82869196D01*
X134492304Y-82870415D01*
X134374569Y-82889062D01*
X134374568Y-82889062D01*
X134366874Y-82890281D01*
X134359935Y-82893817D01*
X134359934Y-82893817D01*
X134253719Y-82947936D01*
X134253717Y-82947937D01*
X134246780Y-82951472D01*
X134151472Y-83046780D01*
X134147937Y-83053717D01*
X134147936Y-83053719D01*
X134093817Y-83159934D01*
X134090281Y-83166874D01*
X134069196Y-83300000D01*
X121600500Y-83300000D01*
X121600500Y-81975000D01*
X162644196Y-81975000D01*
X162665281Y-82108126D01*
X162726472Y-82228220D01*
X162821780Y-82323528D01*
X162828717Y-82327063D01*
X162828719Y-82327064D01*
X162934934Y-82381183D01*
X162941874Y-82384719D01*
X162949568Y-82385938D01*
X162949569Y-82385938D01*
X163067304Y-82404585D01*
X163075000Y-82405804D01*
X163082696Y-82404585D01*
X163200431Y-82385938D01*
X163200432Y-82385938D01*
X163208126Y-82384719D01*
X163215066Y-82381183D01*
X163321281Y-82327064D01*
X163321283Y-82327063D01*
X163328220Y-82323528D01*
X163423528Y-82228220D01*
X163484719Y-82108126D01*
X163505804Y-81975000D01*
X163484719Y-81841874D01*
X163442353Y-81758726D01*
X163427064Y-81728719D01*
X163427063Y-81728717D01*
X163423528Y-81721780D01*
X163328220Y-81626472D01*
X163321283Y-81622937D01*
X163321281Y-81622936D01*
X163215066Y-81568817D01*
X163215065Y-81568817D01*
X163208126Y-81565281D01*
X163200432Y-81564062D01*
X163200431Y-81564062D01*
X163082696Y-81545415D01*
X163075000Y-81544196D01*
X163067304Y-81545415D01*
X162949569Y-81564062D01*
X162949568Y-81564062D01*
X162941874Y-81565281D01*
X162934935Y-81568817D01*
X162934934Y-81568817D01*
X162828719Y-81622936D01*
X162828717Y-81622937D01*
X162821780Y-81626472D01*
X162726472Y-81721780D01*
X162722937Y-81728717D01*
X162722936Y-81728719D01*
X162707647Y-81758726D01*
X162665281Y-81841874D01*
X162644196Y-81975000D01*
X121600500Y-81975000D01*
X121600500Y-78625861D01*
X121897051Y-78625861D01*
X121897335Y-78628706D01*
X121919630Y-78852064D01*
X121931419Y-78970177D01*
X122005133Y-79308261D01*
X122117217Y-79635633D01*
X122266186Y-79947952D01*
X122267700Y-79950365D01*
X122267703Y-79950371D01*
X122367039Y-80108726D01*
X122450064Y-80241079D01*
X122666415Y-80511129D01*
X122912371Y-80754523D01*
X122992723Y-80817527D01*
X123182433Y-80966279D01*
X123182440Y-80966284D01*
X123184672Y-80968034D01*
X123479709Y-81148832D01*
X123793570Y-81294522D01*
X124122097Y-81403172D01*
X124460935Y-81473342D01*
X124463773Y-81473595D01*
X124463778Y-81473596D01*
X124763036Y-81500304D01*
X124763038Y-81500304D01*
X124765233Y-81500500D01*
X124988189Y-81500500D01*
X124996860Y-81500000D01*
X137919196Y-81500000D01*
X137940281Y-81633126D01*
X137943817Y-81640065D01*
X137943817Y-81640066D01*
X137985453Y-81721780D01*
X138001472Y-81753220D01*
X138096780Y-81848528D01*
X138103717Y-81852063D01*
X138103719Y-81852064D01*
X138209934Y-81906183D01*
X138216874Y-81909719D01*
X138224568Y-81910938D01*
X138224569Y-81910938D01*
X138342304Y-81929585D01*
X138350000Y-81930804D01*
X138357696Y-81929585D01*
X138475431Y-81910938D01*
X138475432Y-81910938D01*
X138483126Y-81909719D01*
X138490066Y-81906183D01*
X138596281Y-81852064D01*
X138596283Y-81852063D01*
X138603220Y-81848528D01*
X138698528Y-81753220D01*
X138698691Y-81753383D01*
X138744404Y-81720167D01*
X138805590Y-81720165D01*
X138851309Y-81753383D01*
X138851472Y-81753220D01*
X138946780Y-81848528D01*
X138953717Y-81852063D01*
X138953719Y-81852064D01*
X139059934Y-81906183D01*
X139066874Y-81909719D01*
X139074568Y-81910938D01*
X139074569Y-81910938D01*
X139192304Y-81929585D01*
X139200000Y-81930804D01*
X139207696Y-81929585D01*
X139325431Y-81910938D01*
X139325432Y-81910938D01*
X139333126Y-81909719D01*
X139340066Y-81906183D01*
X139446281Y-81852064D01*
X139446283Y-81852063D01*
X139453220Y-81848528D01*
X139548528Y-81753220D01*
X139564548Y-81721780D01*
X139606183Y-81640066D01*
X139606183Y-81640065D01*
X139609719Y-81633126D01*
X139630804Y-81500000D01*
X139618983Y-81425366D01*
X139610938Y-81374569D01*
X139610938Y-81374568D01*
X139609719Y-81366874D01*
X139589287Y-81326774D01*
X139552064Y-81253719D01*
X139552063Y-81253717D01*
X139548528Y-81246780D01*
X139453220Y-81151472D01*
X139453383Y-81151309D01*
X139420167Y-81105596D01*
X139420165Y-81044410D01*
X139453383Y-80998691D01*
X139453220Y-80998528D01*
X139548528Y-80903220D01*
X139565370Y-80870167D01*
X139606183Y-80790066D01*
X139606183Y-80790065D01*
X139609719Y-80783126D01*
X139630804Y-80650000D01*
X139609719Y-80516874D01*
X139605657Y-80508901D01*
X139552064Y-80403719D01*
X139552063Y-80403717D01*
X139548528Y-80396780D01*
X139471752Y-80320004D01*
X139443975Y-80265487D01*
X139453546Y-80205055D01*
X139471752Y-80179996D01*
X139548528Y-80103220D01*
X139565370Y-80070167D01*
X139606183Y-79990066D01*
X139606183Y-79990065D01*
X139609719Y-79983126D01*
X139630804Y-79850000D01*
X139609719Y-79716874D01*
X139568325Y-79635633D01*
X139552064Y-79603719D01*
X139552063Y-79603717D01*
X139548528Y-79596780D01*
X139453220Y-79501472D01*
X139446283Y-79497937D01*
X139446281Y-79497936D01*
X139340066Y-79443817D01*
X139340065Y-79443817D01*
X139333126Y-79440281D01*
X139325432Y-79439062D01*
X139325431Y-79439062D01*
X139207696Y-79420415D01*
X139200000Y-79419196D01*
X139192304Y-79420415D01*
X139074569Y-79439062D01*
X139074568Y-79439062D01*
X139066874Y-79440281D01*
X139059935Y-79443817D01*
X139059934Y-79443817D01*
X138953719Y-79497936D01*
X138953717Y-79497937D01*
X138946780Y-79501472D01*
X138851472Y-79596780D01*
X138851309Y-79596617D01*
X138805596Y-79629833D01*
X138744410Y-79629835D01*
X138698691Y-79596617D01*
X138698528Y-79596780D01*
X138603220Y-79501472D01*
X138596283Y-79497937D01*
X138596281Y-79497936D01*
X138490066Y-79443817D01*
X138490065Y-79443817D01*
X138483126Y-79440281D01*
X138475432Y-79439062D01*
X138475431Y-79439062D01*
X138357696Y-79420415D01*
X138350000Y-79419196D01*
X138342304Y-79420415D01*
X138224569Y-79439062D01*
X138224568Y-79439062D01*
X138216874Y-79440281D01*
X138209935Y-79443817D01*
X138209934Y-79443817D01*
X138103719Y-79497936D01*
X138103717Y-79497937D01*
X138096780Y-79501472D01*
X138001472Y-79596780D01*
X137997937Y-79603717D01*
X137997936Y-79603719D01*
X137981675Y-79635633D01*
X137940281Y-79716874D01*
X137919196Y-79850000D01*
X137940281Y-79983126D01*
X137943817Y-79990065D01*
X137943817Y-79990066D01*
X137984631Y-80070167D01*
X138001472Y-80103220D01*
X138078248Y-80179996D01*
X138106025Y-80234513D01*
X138096454Y-80294945D01*
X138078248Y-80320004D01*
X138001472Y-80396780D01*
X137997937Y-80403717D01*
X137997936Y-80403719D01*
X137944343Y-80508901D01*
X137940281Y-80516874D01*
X137919196Y-80650000D01*
X137940281Y-80783126D01*
X137943817Y-80790065D01*
X137943817Y-80790066D01*
X137984631Y-80870167D01*
X138001472Y-80903220D01*
X138096780Y-80998528D01*
X138096617Y-80998691D01*
X138129833Y-81044404D01*
X138129835Y-81105590D01*
X138096617Y-81151309D01*
X138096780Y-81151472D01*
X138001472Y-81246780D01*
X137997937Y-81253717D01*
X137997936Y-81253719D01*
X137960713Y-81326774D01*
X137940281Y-81366874D01*
X137939062Y-81374568D01*
X137939062Y-81374569D01*
X137931017Y-81425366D01*
X137919196Y-81500000D01*
X124996860Y-81500000D01*
X125245453Y-81485666D01*
X125248261Y-81485176D01*
X125583529Y-81426663D01*
X125583537Y-81426661D01*
X125586328Y-81426174D01*
X125918106Y-81327897D01*
X126236389Y-81192138D01*
X126238854Y-81190732D01*
X126238860Y-81190729D01*
X126534487Y-81022106D01*
X126536959Y-81020696D01*
X126815832Y-80815843D01*
X126817910Y-80813912D01*
X126817916Y-80813907D01*
X127067224Y-80582235D01*
X127069312Y-80580295D01*
X127071160Y-80578131D01*
X127071165Y-80578126D01*
X127155455Y-80479435D01*
X127294038Y-80317174D01*
X127487033Y-80029967D01*
X127645739Y-79722482D01*
X127650481Y-79709934D01*
X127695318Y-79591274D01*
X127768050Y-79398793D01*
X127790113Y-79310959D01*
X127851652Y-79065960D01*
X127852348Y-79063190D01*
X127873832Y-78900000D01*
X146919196Y-78900000D01*
X146940281Y-79033126D01*
X147001472Y-79153220D01*
X147096780Y-79248528D01*
X147103717Y-79252063D01*
X147103719Y-79252064D01*
X147208558Y-79305482D01*
X147216874Y-79309719D01*
X147224568Y-79310938D01*
X147224569Y-79310938D01*
X147342304Y-79329585D01*
X147350000Y-79330804D01*
X147357696Y-79329585D01*
X147475431Y-79310938D01*
X147475432Y-79310938D01*
X147483126Y-79309719D01*
X147491442Y-79305482D01*
X147596281Y-79252064D01*
X147596283Y-79252063D01*
X147603220Y-79248528D01*
X147654996Y-79196752D01*
X147709513Y-79168975D01*
X147769945Y-79178546D01*
X147795004Y-79196752D01*
X147846780Y-79248528D01*
X147853717Y-79252063D01*
X147853719Y-79252064D01*
X147958558Y-79305482D01*
X147966874Y-79309719D01*
X147974568Y-79310938D01*
X147974569Y-79310938D01*
X148092304Y-79329585D01*
X148100000Y-79330804D01*
X148107696Y-79329585D01*
X148225431Y-79310938D01*
X148225432Y-79310938D01*
X148233126Y-79309719D01*
X148241442Y-79305482D01*
X148346281Y-79252064D01*
X148346283Y-79252063D01*
X148353220Y-79248528D01*
X148448528Y-79153220D01*
X148509719Y-79033126D01*
X148530804Y-78900000D01*
X148509719Y-78766874D01*
X148499226Y-78746281D01*
X148452064Y-78653719D01*
X148452063Y-78653717D01*
X148448528Y-78646780D01*
X148371752Y-78570004D01*
X148343975Y-78515487D01*
X148346428Y-78500000D01*
X158319196Y-78500000D01*
X158320415Y-78507696D01*
X158338679Y-78623009D01*
X158340281Y-78633126D01*
X158343817Y-78640065D01*
X158343817Y-78640066D01*
X158386050Y-78722952D01*
X158401472Y-78753220D01*
X158496780Y-78848528D01*
X158503717Y-78852063D01*
X158503719Y-78852064D01*
X158582695Y-78892304D01*
X158616874Y-78909719D01*
X158624568Y-78910938D01*
X158624569Y-78910938D01*
X158742304Y-78929585D01*
X158750000Y-78930804D01*
X158757696Y-78929585D01*
X158875431Y-78910938D01*
X158875432Y-78910938D01*
X158883126Y-78909719D01*
X158917305Y-78892304D01*
X158996281Y-78852064D01*
X158996283Y-78852063D01*
X159003220Y-78848528D01*
X159079996Y-78771752D01*
X159134513Y-78743975D01*
X159194945Y-78753546D01*
X159220004Y-78771752D01*
X159296780Y-78848528D01*
X159303717Y-78852063D01*
X159303719Y-78852064D01*
X159382695Y-78892304D01*
X159416874Y-78909719D01*
X159424568Y-78910938D01*
X159424569Y-78910938D01*
X159542304Y-78929585D01*
X159550000Y-78930804D01*
X159557696Y-78929585D01*
X159675431Y-78910938D01*
X159675432Y-78910938D01*
X159683126Y-78909719D01*
X159717305Y-78892304D01*
X159796281Y-78852064D01*
X159796283Y-78852063D01*
X159803220Y-78848528D01*
X159898528Y-78753220D01*
X159913951Y-78722952D01*
X159956183Y-78640066D01*
X159956183Y-78640065D01*
X159959719Y-78633126D01*
X159961322Y-78623009D01*
X159979585Y-78507696D01*
X159980804Y-78500000D01*
X159969717Y-78429996D01*
X159960938Y-78374569D01*
X159960938Y-78374568D01*
X159959719Y-78366874D01*
X159926290Y-78301266D01*
X159902064Y-78253719D01*
X159902063Y-78253717D01*
X159898528Y-78246780D01*
X159846752Y-78195004D01*
X159818975Y-78140487D01*
X159828546Y-78080055D01*
X159846752Y-78054996D01*
X159898528Y-78003220D01*
X159913127Y-77974569D01*
X159956183Y-77890066D01*
X159956183Y-77890065D01*
X159959719Y-77883126D01*
X159980804Y-77750000D01*
X159971550Y-77691571D01*
X159960938Y-77624569D01*
X159960938Y-77624568D01*
X159959719Y-77616874D01*
X159898528Y-77496780D01*
X159803220Y-77401472D01*
X159796283Y-77397937D01*
X159796281Y-77397936D01*
X159690066Y-77343817D01*
X159690065Y-77343817D01*
X159683126Y-77340281D01*
X159675432Y-77339062D01*
X159675431Y-77339062D01*
X159557696Y-77320415D01*
X159550000Y-77319196D01*
X159542304Y-77320415D01*
X159424569Y-77339062D01*
X159424568Y-77339062D01*
X159416874Y-77340281D01*
X159409935Y-77343817D01*
X159409934Y-77343817D01*
X159303719Y-77397936D01*
X159303717Y-77397937D01*
X159296780Y-77401472D01*
X159220004Y-77478248D01*
X159165487Y-77506025D01*
X159105055Y-77496454D01*
X159079996Y-77478248D01*
X159003220Y-77401472D01*
X158996283Y-77397937D01*
X158996281Y-77397936D01*
X158890066Y-77343817D01*
X158890065Y-77343817D01*
X158883126Y-77340281D01*
X158875432Y-77339062D01*
X158875431Y-77339062D01*
X158757696Y-77320415D01*
X158750000Y-77319196D01*
X158742304Y-77320415D01*
X158624569Y-77339062D01*
X158624568Y-77339062D01*
X158616874Y-77340281D01*
X158609935Y-77343817D01*
X158609934Y-77343817D01*
X158503719Y-77397936D01*
X158503717Y-77397937D01*
X158496780Y-77401472D01*
X158401472Y-77496780D01*
X158340281Y-77616874D01*
X158339062Y-77624568D01*
X158339062Y-77624569D01*
X158328450Y-77691571D01*
X158319196Y-77750000D01*
X158340281Y-77883126D01*
X158343817Y-77890065D01*
X158343817Y-77890066D01*
X158386874Y-77974569D01*
X158401472Y-78003220D01*
X158453248Y-78054996D01*
X158481025Y-78109513D01*
X158471454Y-78169945D01*
X158453248Y-78195004D01*
X158401472Y-78246780D01*
X158397937Y-78253717D01*
X158397936Y-78253719D01*
X158373710Y-78301266D01*
X158340281Y-78366874D01*
X158339062Y-78374568D01*
X158339062Y-78374569D01*
X158330283Y-78429996D01*
X158319196Y-78500000D01*
X148346428Y-78500000D01*
X148353546Y-78455055D01*
X148371752Y-78429996D01*
X148448528Y-78353220D01*
X148509719Y-78233126D01*
X148530804Y-78100000D01*
X148509719Y-77966874D01*
X148492989Y-77934040D01*
X148452064Y-77853719D01*
X148452063Y-77853717D01*
X148448528Y-77846780D01*
X148353220Y-77751472D01*
X148346283Y-77747937D01*
X148346281Y-77747936D01*
X148240066Y-77693817D01*
X148240065Y-77693817D01*
X148233126Y-77690281D01*
X148225432Y-77689062D01*
X148225431Y-77689062D01*
X148107696Y-77670415D01*
X148100000Y-77669196D01*
X148092304Y-77670415D01*
X147974569Y-77689062D01*
X147974568Y-77689062D01*
X147966874Y-77690281D01*
X147959935Y-77693817D01*
X147959934Y-77693817D01*
X147853719Y-77747936D01*
X147853717Y-77747937D01*
X147846780Y-77751472D01*
X147795004Y-77803248D01*
X147740487Y-77831025D01*
X147680055Y-77821454D01*
X147654996Y-77803248D01*
X147603220Y-77751472D01*
X147596283Y-77747937D01*
X147596281Y-77747936D01*
X147490066Y-77693817D01*
X147490065Y-77693817D01*
X147483126Y-77690281D01*
X147475432Y-77689062D01*
X147475431Y-77689062D01*
X147357696Y-77670415D01*
X147350000Y-77669196D01*
X147342304Y-77670415D01*
X147224569Y-77689062D01*
X147224568Y-77689062D01*
X147216874Y-77690281D01*
X147209935Y-77693817D01*
X147209934Y-77693817D01*
X147103719Y-77747936D01*
X147103717Y-77747937D01*
X147096780Y-77751472D01*
X147001472Y-77846780D01*
X146997937Y-77853717D01*
X146997936Y-77853719D01*
X146957011Y-77934040D01*
X146940281Y-77966874D01*
X146919196Y-78100000D01*
X146940281Y-78233126D01*
X147001472Y-78353220D01*
X147078248Y-78429996D01*
X147106025Y-78484513D01*
X147096454Y-78544945D01*
X147078248Y-78570004D01*
X147001472Y-78646780D01*
X146997937Y-78653717D01*
X146997936Y-78653719D01*
X146950774Y-78746281D01*
X146940281Y-78766874D01*
X146919196Y-78900000D01*
X127873832Y-78900000D01*
X127880143Y-78852064D01*
X127897141Y-78722952D01*
X127897141Y-78722947D01*
X127897513Y-78720124D01*
X127902949Y-78374139D01*
X127881086Y-78155108D01*
X127868864Y-78032657D01*
X127868864Y-78032655D01*
X127868581Y-78029823D01*
X127794867Y-77691739D01*
X127682783Y-77364367D01*
X127533814Y-77052048D01*
X127521945Y-77033126D01*
X127438435Y-76900000D01*
X143519196Y-76900000D01*
X143520415Y-76907696D01*
X143530690Y-76972568D01*
X143540281Y-77033126D01*
X143601472Y-77153220D01*
X143696780Y-77248528D01*
X143703717Y-77252063D01*
X143703719Y-77252064D01*
X143753676Y-77277518D01*
X143816874Y-77309719D01*
X143824568Y-77310938D01*
X143824569Y-77310938D01*
X143942304Y-77329585D01*
X143950000Y-77330804D01*
X143957696Y-77329585D01*
X144075431Y-77310938D01*
X144075432Y-77310938D01*
X144083126Y-77309719D01*
X144146324Y-77277518D01*
X144196281Y-77252064D01*
X144196283Y-77252063D01*
X144203220Y-77248528D01*
X144298528Y-77153220D01*
X144359719Y-77033126D01*
X144369311Y-76972568D01*
X144379585Y-76907696D01*
X144380804Y-76900000D01*
X144359719Y-76766874D01*
X144352901Y-76753493D01*
X144302064Y-76653719D01*
X144302063Y-76653717D01*
X144298528Y-76646780D01*
X144203220Y-76551472D01*
X144196283Y-76547937D01*
X144196281Y-76547936D01*
X144090066Y-76493817D01*
X144090065Y-76493817D01*
X144083126Y-76490281D01*
X144075432Y-76489062D01*
X144075431Y-76489062D01*
X143957696Y-76470415D01*
X143950000Y-76469196D01*
X143942304Y-76470415D01*
X143824569Y-76489062D01*
X143824568Y-76489062D01*
X143816874Y-76490281D01*
X143809935Y-76493817D01*
X143809934Y-76493817D01*
X143703719Y-76547936D01*
X143703717Y-76547937D01*
X143696780Y-76551472D01*
X143601472Y-76646780D01*
X143597937Y-76653717D01*
X143597936Y-76653719D01*
X143547099Y-76753493D01*
X143540281Y-76766874D01*
X143519196Y-76900000D01*
X127438435Y-76900000D01*
X127351452Y-76761338D01*
X127349936Y-76758921D01*
X127180905Y-76547936D01*
X127135370Y-76491099D01*
X127133585Y-76488871D01*
X126887629Y-76245477D01*
X126761009Y-76146194D01*
X126617567Y-76033721D01*
X126617560Y-76033716D01*
X126615328Y-76031966D01*
X126320291Y-75851168D01*
X126283117Y-75833912D01*
X126009019Y-75706680D01*
X126006430Y-75705478D01*
X125677903Y-75596828D01*
X125339065Y-75526658D01*
X125336227Y-75526405D01*
X125336222Y-75526404D01*
X125036964Y-75499696D01*
X125036962Y-75499696D01*
X125034767Y-75499500D01*
X124811811Y-75499500D01*
X124554547Y-75514334D01*
X124551740Y-75514824D01*
X124551739Y-75514824D01*
X124216471Y-75573337D01*
X124216463Y-75573339D01*
X124213672Y-75573826D01*
X123881894Y-75672103D01*
X123563611Y-75807862D01*
X123561146Y-75809268D01*
X123561140Y-75809271D01*
X123267599Y-75976704D01*
X123263041Y-75979304D01*
X122984168Y-76184157D01*
X122982090Y-76186088D01*
X122982084Y-76186093D01*
X122863550Y-76296242D01*
X122730688Y-76419705D01*
X122728840Y-76421869D01*
X122728835Y-76421874D01*
X122644545Y-76520565D01*
X122505962Y-76682826D01*
X122312967Y-76970033D01*
X122154261Y-77277518D01*
X122031950Y-77601207D01*
X122031255Y-77603972D01*
X122031253Y-77603980D01*
X121987744Y-77777198D01*
X121947652Y-77936810D01*
X121922877Y-78125000D01*
X121905931Y-78253719D01*
X121902487Y-78279876D01*
X121897051Y-78625861D01*
X121600500Y-78625861D01*
X121600500Y-78534281D01*
X121603057Y-78511926D01*
X121604388Y-78506183D01*
X121605655Y-78500718D01*
X121605656Y-78500000D01*
X121604411Y-78494542D01*
X121603790Y-78488993D01*
X121604004Y-78488969D01*
X121602184Y-78467857D01*
X121603929Y-78434558D01*
X121618304Y-78160284D01*
X121619386Y-78149985D01*
X121620891Y-78140487D01*
X121661653Y-77883126D01*
X121671790Y-77819124D01*
X121673944Y-77808988D01*
X121760648Y-77485402D01*
X121763848Y-77475555D01*
X121883895Y-77162823D01*
X121888109Y-77153357D01*
X122040197Y-76854867D01*
X122045379Y-76845893D01*
X122227821Y-76564957D01*
X122233912Y-76556573D01*
X122444724Y-76296242D01*
X122451657Y-76288541D01*
X122688541Y-76051657D01*
X122696242Y-76044724D01*
X122956573Y-75833912D01*
X122964957Y-75827821D01*
X123245893Y-75645379D01*
X123254867Y-75640197D01*
X123553357Y-75488109D01*
X123562823Y-75483895D01*
X123625458Y-75459851D01*
X123875555Y-75363848D01*
X123885399Y-75360649D01*
X123990729Y-75332426D01*
X124208988Y-75273944D01*
X124219124Y-75271790D01*
X124373702Y-75247307D01*
X124549993Y-75219385D01*
X124560284Y-75218304D01*
X124867594Y-75202198D01*
X124878410Y-75203139D01*
X124888776Y-75203157D01*
X124899641Y-75205656D01*
X124911641Y-75202941D01*
X124933488Y-75200500D01*
X164965983Y-75200500D01*
X164988169Y-75203018D01*
G37*
G04 #@! TD.AperFunction*
G04 #@! TD*
M02*
