G04 #@! TF.GenerationSoftware,KiCad,Pcbnew,(6.0.9)*
G04 #@! TF.CreationDate,2024-05-21T19:31:49-07:00*
G04 #@! TF.ProjectId,IMX294_MIPI_Breakout_Small,494d5832-3934-45f4-9d49-50495f427265,rev?*
G04 #@! TF.SameCoordinates,Original*
G04 #@! TF.FileFunction,Soldermask,Bot*
G04 #@! TF.FilePolarity,Negative*
%FSLAX46Y46*%
G04 Gerber Fmt 4.6, Leading zero omitted, Abs format (unit mm)*
G04 Created by KiCad (PCBNEW (6.0.9)) date 2024-05-21 19:31:49*
%MOMM*%
%LPD*%
G01*
G04 APERTURE LIST*
%ADD10C,5.600000*%
%ADD11R,2.400000X2.400000*%
%ADD12C,0.900000*%
G04 APERTURE END LIST*
D10*
G04 #@! TO.C,H3*
X124900000Y-78500000D03*
G04 #@! TD*
G04 #@! TO.C,H1*
X165100000Y-116500000D03*
G04 #@! TD*
G04 #@! TO.C,H2*
X165100000Y-78500000D03*
G04 #@! TD*
G04 #@! TO.C,H4*
X124900000Y-116500000D03*
G04 #@! TD*
D11*
G04 #@! TO.C,U2*
X130750000Y-84000000D03*
X130750000Y-111000000D03*
X159250000Y-111000000D03*
X159250000Y-84000000D03*
D12*
X130000000Y-86250000D03*
X130000000Y-87750000D03*
X130000000Y-89250000D03*
X130000000Y-90750000D03*
X130000000Y-92250000D03*
X130000000Y-93750000D03*
X130000000Y-95250000D03*
X130000000Y-96750000D03*
X130000000Y-98250000D03*
X130000000Y-99750000D03*
X130000000Y-101250000D03*
X130000000Y-102750000D03*
X130000000Y-104250000D03*
X130000000Y-105750000D03*
X130000000Y-107250000D03*
X130000000Y-108750000D03*
X160000000Y-86250000D03*
X160000000Y-87750000D03*
X160000000Y-89250000D03*
X160000000Y-90750000D03*
X160000000Y-92250000D03*
X160000000Y-93750000D03*
X160000000Y-95250000D03*
X160000000Y-96750000D03*
X160000000Y-98250000D03*
X160000000Y-99750000D03*
X160000000Y-101250000D03*
X160000000Y-102750000D03*
X160000000Y-104250000D03*
X160000000Y-105750000D03*
X160000000Y-107250000D03*
X160000000Y-108750000D03*
X131500000Y-86250000D03*
X131500000Y-87750000D03*
X131500000Y-89250000D03*
X131500000Y-90750000D03*
X131500000Y-92250000D03*
X131500000Y-93750000D03*
X131500000Y-95250000D03*
X131500000Y-96750000D03*
X131500000Y-98250000D03*
X131500000Y-99750000D03*
X131500000Y-101250000D03*
X131500000Y-102750000D03*
X131500000Y-104250000D03*
X131500000Y-105750000D03*
X131500000Y-107250000D03*
X131500000Y-108750000D03*
X133000000Y-83250000D03*
X133000000Y-84750000D03*
X133000000Y-86250000D03*
X133000000Y-87750000D03*
X133000000Y-89250000D03*
X133000000Y-90750000D03*
X133000000Y-92250000D03*
X133000000Y-93750000D03*
X133000000Y-95250000D03*
X133000000Y-96750000D03*
X133000000Y-98250000D03*
X133000000Y-99750000D03*
X133000000Y-101250000D03*
X133000000Y-102750000D03*
X133000000Y-104250000D03*
X133000000Y-105750000D03*
X133000000Y-107250000D03*
X133000000Y-108750000D03*
X133000000Y-110250000D03*
X133000000Y-111750000D03*
X134500000Y-83250000D03*
X134500000Y-84750000D03*
X134500000Y-86250000D03*
X134500000Y-87750000D03*
X134500000Y-89250000D03*
X134500000Y-90750000D03*
X134500000Y-92250000D03*
X134500000Y-93750000D03*
X134500000Y-95250000D03*
X134500000Y-96750000D03*
X134500000Y-98250000D03*
X134500000Y-99750000D03*
X134500000Y-101250000D03*
X134500000Y-102750000D03*
X134500000Y-104250000D03*
X134500000Y-105750000D03*
X134500000Y-107250000D03*
X134500000Y-108750000D03*
X134500000Y-110250000D03*
X134500000Y-111750000D03*
X136000000Y-83250000D03*
X136000000Y-84750000D03*
X136000000Y-86250000D03*
X136000000Y-87750000D03*
X136000000Y-107250000D03*
X136000000Y-108750000D03*
X136000000Y-110250000D03*
X136000000Y-111750000D03*
X137500000Y-83250000D03*
X137500000Y-84750000D03*
X137500000Y-86250000D03*
X137500000Y-87750000D03*
X137500000Y-107250000D03*
X137500000Y-108750000D03*
X137500000Y-110250000D03*
X137500000Y-111750000D03*
X139000000Y-83250000D03*
X139000000Y-84750000D03*
X139000000Y-86250000D03*
X139000000Y-87750000D03*
X139000000Y-107250000D03*
X139000000Y-108750000D03*
X139000000Y-110250000D03*
X139000000Y-111750000D03*
X140500000Y-83250000D03*
X140500000Y-84750000D03*
X140500000Y-86250000D03*
X140500000Y-87750000D03*
X140500000Y-107250000D03*
X140500000Y-108750000D03*
X140500000Y-110250000D03*
X140500000Y-111750000D03*
X142000000Y-83250000D03*
X142000000Y-84750000D03*
X142000000Y-86250000D03*
X142000000Y-87750000D03*
X142000000Y-107250000D03*
X142000000Y-108750000D03*
X142000000Y-110250000D03*
X142000000Y-111750000D03*
X143500000Y-83250000D03*
X143500000Y-84750000D03*
X143500000Y-86250000D03*
X143500000Y-87750000D03*
X143500000Y-107250000D03*
X143500000Y-108750000D03*
X143500000Y-110250000D03*
X143500000Y-111750000D03*
X145000000Y-83250000D03*
X145000000Y-84750000D03*
X145000000Y-86250000D03*
X145000000Y-87750000D03*
X145000000Y-107250000D03*
X145000000Y-108750000D03*
X145000000Y-110250000D03*
X145000000Y-111750000D03*
X146500000Y-83250000D03*
X146500000Y-84750000D03*
X146500000Y-86250000D03*
X146500000Y-87750000D03*
X146500000Y-107250000D03*
X146500000Y-108750000D03*
X146500000Y-110250000D03*
X146500000Y-111750000D03*
X148000000Y-83250000D03*
X148000000Y-84750000D03*
X148000000Y-86250000D03*
X148000000Y-87750000D03*
X148000000Y-107250000D03*
X148000000Y-108750000D03*
X148000000Y-110250000D03*
X148000000Y-111750000D03*
X149500000Y-83250000D03*
X149500000Y-84750000D03*
X149500000Y-86250000D03*
X149500000Y-87750000D03*
X149500000Y-107250000D03*
X149500000Y-108750000D03*
X149500000Y-110250000D03*
X149500000Y-111750000D03*
X151000000Y-83250000D03*
X151000000Y-84750000D03*
X151000000Y-86250000D03*
X151000000Y-87750000D03*
X151000000Y-107250000D03*
X151000000Y-108750000D03*
X151000000Y-110250000D03*
X151000000Y-111750000D03*
X152500000Y-83250000D03*
X152500000Y-84750000D03*
X152500000Y-86250000D03*
X152500000Y-87750000D03*
X152500000Y-107250000D03*
X152500000Y-108750000D03*
X152500000Y-110250000D03*
X152500000Y-111750000D03*
X154000000Y-83250000D03*
X154000000Y-84750000D03*
X154000000Y-86250000D03*
X154000000Y-87750000D03*
X154000000Y-107250000D03*
X154000000Y-108750000D03*
X154000000Y-110250000D03*
X154000000Y-111750000D03*
X155500000Y-83250000D03*
X155500000Y-84750000D03*
X155500000Y-86250000D03*
X155500000Y-87750000D03*
X155500000Y-89250000D03*
X155500000Y-90750000D03*
X155500000Y-92250000D03*
X155500000Y-93750000D03*
X155500000Y-95250000D03*
X155500000Y-96750000D03*
X155500000Y-98250000D03*
X155500000Y-99750000D03*
X155500000Y-101250000D03*
X155500000Y-102750000D03*
X155500000Y-104250000D03*
X155500000Y-105750000D03*
X155500000Y-107250000D03*
X155500000Y-108750000D03*
X155500000Y-110250000D03*
X155500000Y-111750000D03*
X157000000Y-83250000D03*
X157000000Y-84750000D03*
X157000000Y-86250000D03*
X157000000Y-87750000D03*
X157000000Y-89250000D03*
X157000000Y-90750000D03*
X157000000Y-92250000D03*
X157000000Y-93750000D03*
X157000000Y-95250000D03*
X157000000Y-96750000D03*
X157000000Y-98250000D03*
X157000000Y-99750000D03*
X157000000Y-101250000D03*
X157000000Y-102750000D03*
X157000000Y-104250000D03*
X157000000Y-105750000D03*
X157000000Y-107250000D03*
X157000000Y-108750000D03*
X157000000Y-110250000D03*
X157000000Y-111750000D03*
X158500000Y-86250000D03*
X158500000Y-87750000D03*
X158500000Y-89250000D03*
X158500000Y-90750000D03*
X158500000Y-92250000D03*
X158500000Y-93750000D03*
X158500000Y-95250000D03*
X158500000Y-96750000D03*
X158500000Y-98250000D03*
X158500000Y-99750000D03*
X158500000Y-101250000D03*
X158500000Y-102750000D03*
X158500000Y-104250000D03*
X158500000Y-105750000D03*
X158500000Y-107250000D03*
X158500000Y-108750000D03*
G04 #@! TD*
M02*
